<svg xmlns="http://www.w3.org/2000/svg" viewBox="0 0 1200 1200"><defs><style>.cls-1{fill:#fff;}.cls-1,.cls-2{fill-rule:evenodd;}.cls-2{fill:#093;}</style></defs><title>AGRI-SUL FC 2 team colour</title><g id="AGRI-SUL_FC_2_team_colour" data-name="AGRI-SUL FC 2 team colour"><path class="cls-1" d="M264.53,89,187.25,190.61c12.27,18.79,23.25,41.85,30.68,61.2,21,54.61,27.41,113.71,12.42,170.76C202.19,529.78,142.78,773,232.43,860.84c40.54,39.71,92.68,74,141.15,103.34,46.55,28.15,94.45,53.88,142.46,79.43a419.22,419.22,0,0,1,80.29,56.4,419.24,419.24,0,0,1,80.29-56.4c48-25.54,95.9-51.28,142.46-79.43,48.47-29.3,100.61-63.62,141.15-103.34,89.65-87.82,30.24-331.06,2.07-438.27-15-57.06-8.57-116.16,12.43-170.77,7.43-19.34,18.41-42.4,30.68-61.19L928.13,89c-50.44,16-100.34,25.24-153.52,28.94-59.12,4.11-119,1.94-178.28,1.94S477.17,122,418.05,117.91C364.87,114.21,315,105,264.53,89m690.25,647.4-11.12,10.8c3.82,5.74,4.21,4.28,10.71,1.78C957.24,741.6,958.88,741.15,954.77,736.37Zm-191,150.76a16.67,16.67,0,0,0-9.1,11.39q-2.23,9.51,4.8,23.09,6.89,13.28,16.36,17.5a16.13,16.13,0,0,0,14.62-.55,17.11,17.11,0,0,0,9.37-11.89q2.07-9.37-4.55-22.13-5.1-9.82-11.56-15a19.08,19.08,0,0,0-10.08-4.45A17.59,17.59,0,0,0,763.73,887.14Zm-103.89,91a45.74,45.74,0,0,0,10.47-.62c5.41-1,9.31-2.92,11.72-5.86a11.63,11.63,0,0,0,2.64-9.78,13.41,13.41,0,0,0-3.14-6.46,13.1,13.1,0,0,0-7.19-4,27.5,27.5,0,0,0-11.08,0c-1.85.33-3.43.64-4.74.93a24.07,24.07,0,0,0-3.12.89Zm-5.18-29a34.13,34.13,0,0,0,3.88-.2c1.44-.15,3-.38,4.71-.68,4.36-.78,7.56-1.82,9.58-3.16a10.64,10.64,0,0,0,4.27-5.23,12.29,12.29,0,0,0,.61-6.67,11.81,11.81,0,0,0-6-8.31q-5-3-13.35-1.5a31,31,0,0,0-7.9,2.42Zm-145.49,4.65L505,927l-16.38,21.64Zm-115-89.41a16.28,16.28,0,0,0-14.45-2.43q-9.45,2.79-17.78,15-8.54,12.48-7.8,22.84a16,16,0,0,0,7.32,12.52,17.9,17.9,0,0,0,15.68,2.5q8.5-2.4,16.75-14.45,8.93-13.06,8.18-23Q401.48,869.3,394.2,864.32Zm-157-127.84,11.12,10.8c-3.82,5.74-4.21,4.28-10.71,1.79C234.71,741.7,233.07,741.25,237.17,736.48Zm23.54,46.26,3.15-15.23L255,786.42l-7.78,5,1-31.69L234.34,788.4,238,757.74l-14.54,17.85L230,744.51l-13.68,14.15L221,730.87c-10.62,13.76-13.44,9.35-14.1,2.59a2.74,2.74,0,0,0,2,1.18c2.32.22,5-2.35,5.92-5.76.83-3.07-.08-5.8-2-6.41a52.59,52.59,0,0,1,9.24-7.69c7.06-23.3,14.84-43.35,24.08-57-8.93,21.84-12.79,35.33-16.11,55.46l9.41,13.61c2.33-4.09,10.78-14.65,18.43-18.89-4.3,5.57-9.8,20.16-11,28.95l10.5,7.49c7.43,5.51,14.91,11,22.32,16.5l7.49-19.68c-.64,8,1,15.61.38,23.6l.38.36Zm29.44,72.69,21.12-53.08L281.43,830.8c-2.74,2.62-4.17,4.54-4.29,5.79-.15,1.69.62,3.42,2.29,5.17l1.5,1.57-1.21,1.16L264.9,829l1.21-1.16,1.5,1.57q2.7,2.83,5.56,2.38c1.16-.18,3-1.48,5.49-3.86l29.18-27.82a14.14,14.14,0,0,0,3.66-4.74,5.08,5.08,0,0,0,0-3.22,12.63,12.63,0,0,0-3.14-4.58l1.23-1.17L321.62,799l-19.5,49.52,50.14-17.39,12.06,12.64L363.09,845l-1.48-1.55q-2.73-2.87-5.57-2.42c-1.17.19-3,1.47-5.51,3.86l-29.18,27.82c-2.74,2.62-4.15,4.56-4.25,5.83q-.22,2.53,2.28,5.16l1.48,1.55-1.21,1.16-18.09-19,1.21-1.16,1.51,1.58q2.73,2.87,5.56,2.38c1.16-.18,3-1.48,5.49-3.86l29.84-28.46-54,18.61Zm106.63,6.64q9.92,6.79,12,19.28t-5.59,23.76q-7.95,11.61-20.51,14.25a29.65,29.65,0,0,1-35.52-24q-2-12.37,6.08-24.24,8.3-12.13,21.8-14.14A29.55,29.55,0,0,1,396.78,862.07Zm75.72,42.71L411.7,941l23.06,10.41q5.31,2.4,9.19,1.35c2.6-.7,5.7-3.07,9.29-7.14l1.26.86-9.37,13.7-45.79-20.67.69-1.53,59.26-35.06-18-8.12q-4.48-2-6.93-2a7.61,7.61,0,0,0-4.35,1.44c-1.26.91-2.94,2.92-5,6l-1.57-.71L430.9,886ZM509.6,957.3l-23.19-5.71L480,960a15.17,15.17,0,0,0-2.79,4.85,3.13,3.13,0,0,0,.71,2.72c.7.91,2.46,1.82,5.31,2.75l-.4,1.63L464,967.34l.4-1.63c2.61.16,4.37,0,5.28-.54,1.85-1,4.22-3.5,7.11-7.38L510,913.68l1.54.38,8.58,55q1,6.64,2.65,8.92a9.67,9.67,0,0,0,5.23,3.43l-.4,1.63L504,977.18l.4-1.63c2.41.47,4.13.46,5.14,0a3.13,3.13,0,0,0,1.88-2.16c.32-1.3.22-3.48-.27-6.58ZM577.67,987l-21.85-52.79-1.57,41.21c-.14,3.79.17,6.16,1,7.14,1.07,1.31,2.83,2,5.25,2.11l2.17.08-.06,1.68-21.45-.81.06-1.68,2.17.08c2.61.1,4.48-.62,5.65-2.16.7-.94,1.11-3.14,1.25-6.59L551.78,935a14.14,14.14,0,0,0-.68-5.95,5.09,5.09,0,0,0-2.26-2.29,12.64,12.64,0,0,0-5.44-1.09l.06-1.69,17.46.66,20.53,49.1,23.84-47.42,17.46.66-.06,1.69-2.14-.08c-2.64-.1-4.53.62-5.68,2.15-.7,1-1.13,3.14-1.26,6.6l-1.53,40.29c-.14,3.79.2,6.16,1,7.14q1.6,2,5.24,2.11l2.14.08-.06,1.68-26.2-1,.06-1.68,2.19.08c2.64.1,4.52-.62,5.65-2.16.7-.94,1.11-3.14,1.25-6.59l1.57-41.21-25.75,51Zm100.9-39.66q6.57.2,10.23,2.61a13.59,13.59,0,0,1,6.14,9.3,15.28,15.28,0,0,1-1.33,9.18,16.58,16.58,0,0,1-6.78,7.44q-4.66,2.8-14.9,4.63l-28.67,5.12-.29-1.65,2.28-.41q3.81-.68,5-3.41c.5-1.16.46-3.44-.15-6.85l-7-39.25q-1-5.64-2.57-6.88a6.69,6.69,0,0,0-5.55-1l-2.28.41-.3-1.67,26.24-4.68a52.45,52.45,0,0,1,12-1q7,.41,11.28,3.87a14.25,14.25,0,0,1,5.22,8.8,13.3,13.3,0,0,1-1.31,8.67A16.64,16.64,0,0,1,678.57,947.31Zm64.72,11.84.54,1.59-25.06,8.45-.54-1.59,2.08-.7q3.62-1.22,4.54-3.89c.38-1.15,0-3.49-1.19-7l-12.73-37.78a20.57,20.57,0,0,0-2.53-5.67,4.15,4.15,0,0,0-2.39-1.26,8.61,8.61,0,0,0-4.32.31l-2.08.7-.54-1.6,25.06-8.45.54,1.6-2.12.71c-2.38.8-3.88,2.1-4.5,3.86-.41,1.17,0,3.5,1.15,7l12.73,37.78a20.58,20.58,0,0,0,2.53,5.67,4.12,4.12,0,0,0,2.44,1.24,8.37,8.37,0,0,0,4.28-.28Zm55-22q7.81,5,14.33,5.84a24.22,24.22,0,0,0,12.87-1.81l.67,1.3a49.88,49.88,0,0,1-13.08,3.93,57.93,57.93,0,0,1-15,.58,66.4,66.4,0,0,1-13.78-2.61,43.73,43.73,0,0,1-11.78-.19,30.6,30.6,0,0,1-12.65-5.67,35,35,0,0,1-9.74-12.09q-6.37-12.28-2.63-24.53a29.31,29.31,0,0,1,15.07-18.11q10.73-5.57,22.82-1.51T804,898.73a32.67,32.67,0,0,1,3.56,20.55A31.1,31.1,0,0,1,798.3,937.13Zm30.16-96.38-1.05-1.32,17.09-13.62,1.06,1.32-1.82,1.45a6.25,6.25,0,0,0-2.48,5.86c.09,1.14,1.19,3,3.33,5.73l15.59,19.57q5.79,7.27,7.54,12.4a18.1,18.1,0,0,1-.18,11.39q-1.95,6.23-9.2,12-7.91,6.3-14.18,6.81a18.92,18.92,0,0,1-11.67-2.74q-3.66-2.27-10.62-11l-15-18.86c-2.36-3-4.31-4.59-5.87-4.85s-3.24.32-5.06,1.77l-1.82,1.45L793,866.81l20.86-16.62,1.05,1.32L813.09,853c-2,1.59-2.93,3.35-2.78,5.29.08,1.32,1.21,3.34,3.36,6l16.76,21a59.81,59.81,0,0,0,5.64,6,17.73,17.73,0,0,0,6.38,4.17,12.93,12.93,0,0,0,6.56.23,17.09,17.09,0,0,0,7.3-3.65,22,22,0,0,0,6.82-8.81A14.12,14.12,0,0,0,864,874q-1.2-4.31-7.32-12l-15.57-19.55c-2.4-3-4.24-4.62-5.5-4.86a6.72,6.72,0,0,0-5.38,1.72Zm36.46-31.29,18.46,15.93,8.86-10.27q3.45-4,3.41-6.37c0-2.11-1.31-4.37-3.86-6.82l1.1-1.27,16.27,14L908,816a23.61,23.61,0,0,0-5.21-2.81,5.71,5.71,0,0,0-3.65.4,13.69,13.69,0,0,0-4.44,3.74l-8.86,10.27,15.41,13.29a19.47,19.47,0,0,0,4,3,2.94,2.94,0,0,0,1.9,0,7.93,7.93,0,0,0,2.65-2.29l6.84-7.93a27.82,27.82,0,0,0,4.41-6.23,11.21,11.21,0,0,0,.81-5.31,35.12,35.12,0,0,0-2.67-9.93l1.19-1.38,8.25,14.13-31.06,36-1.27-1.1,1.43-1.66a8.64,8.64,0,0,0,1.9-3.82,3.84,3.84,0,0,0-.35-2.93,21.94,21.94,0,0,0-4.18-4.28L864.8,820.9c-3-2.56-5-3.83-6.25-3.83q-2.44,0-4.94,2.94l-1.43,1.66-1.28-1.11,31.06-36,10.68,8.31-1.17,1.35a21.15,21.15,0,0,0-6.44-2.76,7.26,7.26,0,0,0-4.35.78,20.75,20.75,0,0,0-4.71,4.41Zm66.33-26.82-3.15-15.22,8.87,18.9,7.78,5-1-31.69,13.91,28.66-3.7-30.66,14.55,17.85-6.55-31.07,13.69,14.15-4.67-27.79c10.62,13.75,13.45,9.35,14.1,2.59a2.74,2.74,0,0,1-2,1.18c-2.32.23-5-2.35-5.92-5.76-.83-3.07.07-5.8,2-6.41a52.57,52.57,0,0,0-9.25-7.69c-7.07-23.3-14.85-43.34-24.1-57,8.94,21.84,12.8,35.33,16.13,55.46l-9.4,13.61c-2.33-4.09-10.79-14.65-18.43-18.88,4.3,5.57,9.81,20.16,11,28.94l-10.5,7.49c-7.43,5.51-14.9,11-22.31,16.51l-7.5-19.68c.64,8-1,15.61-.38,23.6l-.38.36Zm-645.93-519V248.84h3c2.5,0,4-.21,4.57-.65a3,3,0,0,0,.83-2.47,21.85,21.85,0,0,0-.11-2.34c-.08-.73-.18-1.46-.31-2.16L290.9,230H273.22l-2.06,10c-.34,1.53-.59,2.73-.7,3.59a15.76,15.76,0,0,0-.2,2.37,2.4,2.4,0,0,0,1.19,2.13,6.45,6.45,0,0,0,3.39.75h3.25v14.84H248.75V248.84h2.43a5,5,0,0,0,4.19-2.52c1.13-1.66,2.1-4.42,2.94-8.21l17.26-79h23.75l15.38,78.73c1.06,5.17,2,8.32,2.87,9.41a5,5,0,0,0,4.16,1.64h3.44v14.84ZM287.8,215l-6-31.68L276.24,215Zm74,7.75V208H398.1v14.76h-2.35c-2.25,0-3.72.44-4.39,1.3s-1,3.41-1,7.62v33.06H378.41l-2.15-6.39a37.76,37.76,0,0,1-9.74,6.6,24,24,0,0,1-9.71,2.16q-15.24,0-24-14.84T324,211.44q0-25,9.41-40.34t24.91-15.31a24.62,24.62,0,0,1,9.67,1.82,23.81,23.81,0,0,1,8,5.64l1.58-5.8H388v43.1H376.55c-1.08-10.06-2.77-17.34-5.07-21.89s-5.4-6.81-9.32-6.81q-6.68,0-9.69,9.25t-3,30q0,21,3,30.39c2,6.24,5.22,9.36,9.61,9.36q4.31,0,5.82-2.11c1-1.38,1.53-4.42,1.53-9.1v-8c0-4-.33-6.45-1-7.43s-2.15-1.48-4.52-1.48Zm71.5-20.53H439c4,0,6.9-1,8.53-3.09s2.46-5.48,2.46-10.29c0-5.28-.75-9-2.27-11.12s-4.18-3.2-8-3.2h-6.44Zm-21.55,37.61V182.74c0-4.05-.33-6.55-1-7.49s-2.1-1.4-4.44-1.4H403V159.06h45.2q12,0,17.9,6.47T472,185.11c0,5.87-1.21,10.84-3.64,14.84a18.5,18.5,0,0,1-10.28,8.24q6.71,1.29,9.07,6.5t2.37,23.86a33.57,33.57,0,0,0,.6,7.82c.39,1.43,1.06,2.16,2,2.16s1.55-.88,2-2.68a36.29,36.29,0,0,0,.65-8.06c0-.36,0-.94,0-1.77s0-1.4,0-1.82h6.64c0,.47,0,1.14,0,2.11s0,1.64,0,2.08q0,14.62-3.78,21.21t-12.19,6.6q-8.93,0-13-6t-4.09-18.9v-8.73c0-7-.59-11.46-1.75-13.36s-3.57-2.86-7.24-2.86h-5.87v23.45c0,4.05.33,6.58,1,7.54s2.1,1.46,4.37,1.46h3.72v14.84H403V248.84h3.3c2.3,0,3.77-.49,4.42-1.46S411.72,243.9,411.72,239.85Zm110.87-80.79v14.76h-3.2c-2.37,0-3.87.49-4.52,1.48s-1,3.46-1,7.43v57.11c0,4,.34,6.52,1,7.51s2.15,1.48,4.49,1.48h3.2v14.84h-39V248.84h3.25q3.45,0,4.45-1.48c.67-1,1-3.48,1-7.51V182.74c0-4-.33-6.45-1-7.43s-2.14-1.48-4.47-1.48h-3.25V159.06Zm5,80.47V214.71h28.63v24.82Zm37.33-14.37h9.46q2.35,12.09,7.77,18.92t12.79,6.81a9.07,9.07,0,0,0,7.11-3,11.42,11.42,0,0,0,2.68-7.88q0-7.53-11.62-12.63c-2.51-1.07-4.49-1.95-5.92-2.68A120.21,120.21,0,0,1,576.42,219a22.76,22.76,0,0,1-5.45-4.42,31.19,31.19,0,0,1-5.86-10.47A42,42,0,0,1,563.22,191q0-15.75,7.34-25.45a23.16,23.16,0,0,1,19.38-9.67,33.45,33.45,0,0,1,11.42,1.9,35.88,35.88,0,0,1,10.28,5.87l1.78-5.25h9.41v36.34h-11c-1.08-7.43-3.12-12.94-6.12-16.58a14.77,14.77,0,0,0-12-5.46,9.3,9.3,0,0,0-7.24,3.2,11.41,11.41,0,0,0-2.84,7.85q0,7,10.9,10.61c1.78.62,3.16,1.09,4.16,1.46q15.2,5.58,21.32,13.83t6.12,22.48q0,15.83-7.52,25.24t-20.29,9.41A30.73,30.73,0,0,1,587,264.7a40.55,40.55,0,0,1-10.7-6.34l-2.43,5.8h-9Zm94.72,3.72c0,8.08.78,13.72,2.37,17a8.23,8.23,0,0,0,8,4.89c4.47,0,7.67-1.61,9.61-4.81s2.92-8.45,2.92-15.75V182.74c0-4.11-.33-6.63-1-7.54s-2.09-1.38-4.39-1.38h-3.34V159.06h30.44v14.76h-3c-2.28,0-3.77.47-4.42,1.4s-1,3.3-1,7v50.5q0,16.73-7.6,25.47T666,267q-13.34,0-20.65-8.6T638,234.05V182.74c0-4-.34-6.45-1-7.43s-2.15-1.48-4.49-1.48h-3.34V159.06h39.58v14.76h-3.64c-2.35,0-3.87.49-4.52,1.48s-1,3.46-1,7.43Zm86.66-69.82v14.76h-3.74c-2.15,0-3.57.42-4.24,1.22s-1,3.12-1,6.94v66.54h4.4q6.12,0,8.61-1a8.14,8.14,0,0,0,4-3.61,26.62,26.62,0,0,0,2.82-8.68,117.94,117.94,0,0,0,1.29-15.15h10.18v43.62H706.75V248.84H710c2.3,0,3.77-.49,4.42-1.46s1-3.46,1-7.54V182.74c0-4.05-.33-6.58-1-7.51s-2.1-1.4-4.44-1.4h-3.3V159.06Zm126.49,0v42.86H862.11a119,119,0,0,0-1-12.61,36.19,36.19,0,0,0-2.12-8.27,11.65,11.65,0,0,0-4.34-5.59q-2.64-1.64-10.15-1.64h-8.42v28.72h2.53q4.45,0,6.23-3.43c1.19-2.29,1.79-6.34,1.79-12.19V186h8.22v47.75h-8.22c-.13-7.3-.72-12.06-1.79-14.24s-3.1-3.27-6.13-3.27h-2.63v23.6c0,4.31.34,6.89,1,7.75s2.12,1.25,4.32,1.25h3.64v14.84H806V248.84h3.3c2.17,0,3.59-.42,4.27-1.22s1-3.14,1-7V182.74c0-4.05-.33-6.58-1-7.51s-2.1-1.4-4.44-1.4H806V159.06Zm71.65,64.1q-.39,21-8.34,32.33t-22.5,11.31q-17,0-26.17-14.35t-9.15-41q0-25.23,9.48-40.37t25.35-15.15a27.09,27.09,0,0,1,9.92,1.79,28.5,28.5,0,0,1,8.78,5.51l1.68-5.77h10.65v43.1H932.36q-1.71-15.09-5.25-21.91t-9.51-6.81q-6.92,0-10.08,9.33t-3.15,30q0,21.33,3.25,30.7t10.57,9.36q6.63,0,10.9-7.56t4.78-20.46ZM691.67,383.46c-2-2.15-1.71-2.48-2-5.44,5.32,1.29.66-.23,2.65,2.39,11.09,4,25.64-1,29.24,9.77,1.06,4,.49.8-.69,2-3.57,0-5.69-.93-6.86,2.12-2.79.44-1-.91-2.95,1.63,1.78,6.17,11,9.54,15.77,4.72,4.06-5.26-3.76-16.45,8.54-15.36,1,5.69-2.64,6.27.87,11.22,6.78-.24,6.92-6.52,5.2-11.84-2.85-1.18-1.35,1.46-2.67-2.4h4.58c14.3-.49,32.7-18.53,42.47-24.93a89,89,0,0,1,22.65-10.63c13.47-4.17,16.77-1.92,28.86-3.27-2.75,1.23.83-2.86-.85,1.21-.09.23-.72,3-2.15,4.37-3.77,3.65-2.94-.17-8.27,4.1-26.69,2.76-38.94,17.75-52.49,27.74l3.67,1.8c1.29.41,2.61.49,4.08.82a21,21,0,0,1,7.07,2.8l-14.57,3.15.11.48h0a8.1,8.1,0,0,1,.5.87,4.46,4.46,0,0,0,.53.85l-.21.49-.39.45-13.48,4.62,2.14,2.42,2.31-.54c5.13.59,1.29-.22,2.26,1.78l-4.62,1.67c-7.38.79-10.52,5-14.56,8.49.74,7.09,3.13,6.29.83,15.73l3.21.81c2.53-2.94,2.6-2.05,6.94-2.17l-3.73,3.31c-3.67,1.93-5.86,4.65-9.25,5.55,2.79,2.9-.35.39,4,2.4,3,1.41,1.69,0,3.77,2.1-5.52,1.36-10.22,4.15-14.82,6.51,3.31,4.15,4.88,1.79,5.06,8.61-4.42,2.64-3.64.32-8.54,1.52-3.37.83-3.05,1.6-4.17,3.06l-1,1.53c-5.63-2.26-15.46-9.3-2.68-11.55l4.15-.72c-2.88-3.56-3.19-2.73-8.7-4.93.38-8.47,4.39-6.26,10.75-8.8,1.37-10.43-14.28-21.92-20.18-26.32-4.71-3.51-6.78-8.06-10.63-12.8C699.15,389.61,693.46,389.1,691.67,383.46ZM596.33,852.18l-1.59-3.84a15.42,15.42,0,0,1,1.59-.63,15.43,15.43,0,0,1,1.59.63Zm-75.47-12,14.08.83c-1.07,3.7-1.8,3.73-3.74,6,5.27,3.16,7,3.4,14.54,3.39l-.54,3-2,.43c-1.43,2.47-2.69-3.15-.89,2.93l1.76,1.1-1.48,2.46,3.17-.66,2.84-1.58,9.58-1.64,3,7.27c3.72-1-.32,0,4.32-2.3,1.29,4.09.89,3.63,3.59,6.11l3.65,2.75-.63-6.94.52-2.55,1.48,1.34c.15.15.51,1,.62.76s.38.53.55.8c1.55,3.92,1.17,4,3.57,3.26l2.32-1.73,5.29,6c1.86,2.12-2.52,1.35,2.79,1.9l1.35-8.56.77-4c2.74,1.06.55-2.89,2.35,2.14l-.11,5.22a4.62,4.62,0,0,0,.58,0l.63,0c.69.07,1.15.1,1.48.11s.8,0,1.48-.11l.63,0a4.62,4.62,0,0,0,.58,0l-.11-5.22c1.8-5-.38-1.08,2.35-2.14l.77,4,1.35,8.56c5.32-.55.93.22,2.79-1.9l5.29-6,2.32,1.73c2.4.7,2,.65,3.57-3.26.17-.28.44-1,.55-.8s.47-.61.62-.76l1.48-1.34.52,2.55-.63,6.94,3.65-2.75c2.7-2.49,2.29-2,3.59-6.11,4.63,2.33.6,1.34,4.32,2.3l3-7.27,9.58,1.64,2.84,1.58,3.16.66-1.47-2.46,1.76-1.1c1.8-6.08.54-.45-.89-2.93l-2-.43-.54-3c7.52,0,9.28-.23,14.54-3.39-1.94-2.3-2.67-2.33-3.74-6l14.09-.83c4.89-.49,9.41-.22,12.32-1.79l-5.63-1.34-9.08-1.38,5.1-3-5.22-5.36c2.47-1.75,6.5-1.72,10.7-2.9l-7.45-12.35c-2.59-2.85,2.77-1.09-2.51-2.42l-.28,7.55-2.38,2.91-3.48.71c.74,5.95.66,2.64,1.92,3.93l-1.11,6.73-5.94,1.31-1.67-2c-.9,6.66-.56.78.95,3.37l.06.88c-.12,2.53.6,2-1.74,2l-2.29-.55-2.59-2.85c.89,5.29.36,2.79,2,4.68-.58,6.28,0,1.83-1.81,3.69a19.9,19.9,0,0,0-14.2-5.73c3.35,3.5,4.81,6.41,4.86,13.43-3.45-1.34-4.15-2.35-7.24-3.8-1.81-1.76,2.72-1.54-3.11-1.41-.89,9.2,0,2.83-2,5.22l-.92-1.61-3,5.41a5.89,5.89,0,0,1-.53.75l-9.27-19.05-.83-3.65c-.52.61-1.31.72-1.08,2.67,0,.16.37.56.49.87,2.4,8.2,5.23,16.94-2.42,20.9l-4.73-7.71-2.2,6.39c-1.69-1.37-3.86-3-5.08-3.93l-2.69-6.35-1.32-.59-1.32.59-2.69,6.35c-1.22,1-3.39,2.56-5.08,3.93L585,848.3,580.3,856c-7.65-4-4.82-12.7-2.42-20.9.12-.31.47-.7.49-.87.23-2-.56-2.07-1.08-2.67l-.83,3.65-9.27,19.05a5.83,5.83,0,0,1-.53-.75l-3-5.41-.92,1.61c-2-2.39-1.14,4-2-5.22-5.83-.13-1.3-.35-3.11,1.41-3.09,1.45-3.79,2.46-7.24,3.8.05-7,1.52-9.93,4.86-13.43A19.9,19.9,0,0,0,541,842c-1.82-1.86-1.23,2.59-1.81-3.69,1.63-1.88,1.09.61,2-4.68l-2.59,2.85-2.29.55c-2.34,0-1.62.55-1.74-2l.06-.88c1.51-2.59,1.85,3.28.95-3.37l-1.67,2-5.94-1.31-1.11-6.73c1.26-1.29,1.18,2,1.92-3.93l-3.48-.71-2.37-2.91-.28-7.55c-5.28,1.33.08-.44-2.51,2.42l-7.45,12.35c4.2,1.18,8.23,1.15,10.7,2.9l-5.22,5.36,5.1,3-9.08,1.38-5.63,1.34C511.45,840,516,839.71,520.86,840.2ZM663.48,591.13c1,5.19-.35,2.15,2.76,5.55l3.51,2.55,6.27,1.65-.33,8.49c-2,2.38-1.62,3.15-1.59,7.19,0,.36.15,3.36.2,3.65.73,4.14.24,1.16,1.28,2.78-2.78,16.22,16.69,38.37,22.75,45.22,2.75,1.52.73-2.15,2.58,2.62-5.47-.08-2.93-.18-4.67-1.77-10.29-1-19.82-14.67-26.87-19.57,3.27-1.73-2.33,1.23,2.26-.91l2.34-1.22-4.91-5.43-6.2-13.47c0,4.07-.24,3.24.93,7,1.37,4.36,3.47,2.57.14,4-15.86-10.81-5-33.36-5.43-39.52-.78-11.08.36-7.35,1.3-15.54l2.59-3.93.23,6.62,3.52.36C664.58,593.31,666.1,588.28,663.48,591.13ZM863.82,367.74v14.34c-5.51,11.66.06,19.51-14.08,36.74-3.8,4.63-7,8.43-8.35,16.39-1.38,8.11-1,10.14-5.75,12.53-1.42.72-1.29.44-2.57,1.05-2.61,1.24-.64-.22-2.45,1.35,2.79,10,3.42,19-1.43,28.28-6.4,12.22-10.93,8.06-21.14,13.47-1.07,2.71-1.07,5.6-2.1,8.8s-2.59,5.24-3.7,7.51c-.2-.28-.37-1.12-.43-.94s-.33-.72-.41-.94l-1.7-5.52-4,.13-7.45-2,6.1-1.12,3.16-1.13c2.08-3.66.87-.9-.29-2l-3-1.39-3.34-.32-6.13-1c.27-.31.59-1,.76-.72l2.19-.61c.33,0,1,0,1.45,0,5,0,4.91.15,7-3.49-2.62-3.32-6.14-4.08-11.55-4.44L782,481.36l2.64-2,5-1.7-12.66-6.3c3.25-4.53.36-.44,5.41-3.67-3.44-1.9-4.6-1.92-6.67-5.2,6.76-5.24,17.06-.58,24.09,1.65L799,452.44l-2.41-2.64,3.27,1.8c4.58,1.9,1.7,2.37,7.29,3.82a46.85,46.85,0,0,0-3.37-17.52l-3.62-1.81c4.68-1.62,3.23-.19,4.62.78l4.7,1.75c-.26-7.3-5.69-11.81-8.61-15.74,11.15.29,11,5,17.37,8.06,28.68-12.11,0-39.78,17.64-53.14,10.52-8,11.27-.8,17.8-.78,6.62-11.53-6.29-21.69-15.73-24-3.05-3,3.67-1.33-3.43-2.69,1.88-.16,2.66-3,8.12-4.42C860.29,345.59,858.61,357.5,863.82,367.74ZM741.7,580.24c-2.88,0-1.35,1.55-.64,5.05-6,.39-10.83,3.38-12.79,7.86l-1,1.91,2.08,2.23c-3.71,2.35-4.07,2.09-8.2,3.55-6.51,2.3-3.86,2.28-5.29,5.65-6.51,1.27-7.32,1.24-14.48.5l-4-.32c-.49-.52-1.75-1-2.14-1.6l1-1.4,6-.25c4.8-1.66,5.37-1.47,9.29-4.7,2.69-2.22,5.88-4.29,8-6.59,3.14-1.58,1.51.61,3.23-3.61,1-5.43,3.58-3.86,8.82-6.76,5-2.77,4.42-5.36,9-8.25C741.87,575.7,742.45,576.8,741.7,580.24ZM637.15,401c7,1.41,10.52,4.06,9.8,12.49-3.67,1.55-9,1.89-12.2,3.42,1.39,8.91,9.36,8.6,9.64,17.29a12.33,12.33,0,0,1-10.49-.58c-7.23-3.7-1.8-3.79-9.48-3.09-8.46.77-15.82-5.13-12.06-13.22,4.71.3,5.84,2.71,8.49,5.44l1.1-.82,1-6.3c4.68-1.43,2.17,2.5,7.87-1.17.37-7.8-2.38-1.45-4.33-8.45-1.15-4.12,1.7,1.48-.57-2.89-1.16-2.24-7.58-7.44-9.87-8-4.91-.31-1.22.37-2.65-1.82.63-.74,1.76-1,2.64-1.47,6.67-4.06,10.35-6.69,20-3.37.52,5.65-.85,6.92-4,9.19ZM482.62,722.45c-3.19,1.6-2,8.15-2.17,11.92-.4,2.69.38,2-2.34,1.92-20.67-17.51-72.11-11-96.34-27.92l-1.94-3.14c-.54,5.76-.91,2.43,1.23,4.72,5.69,10.28,27.39,15.93,42.64,16.48,16.24.59,38.85.4,48.33,10.72l-9.89-.11-3.18-.38c-3.16,1.14-1.18,0-2.79,1.92,1.94,1.39-2.52,1.49,4.23,1.62l3.52-.44a64.87,64.87,0,0,1,6.92,1.07c3,.71,4.26,1.2,6.34,3-32.35,5.56-30.13,17.34-53.47,12.67-1.18-.39-1.33-.91-3.55-.7-3.29.31-1.22.19-3,1.23l6.53,1.53c11.05.34,18.05,2,28.42-2.68,9.49-4.29,12.07-7.39,24.65-7.73,3.6,2.36,2.25,2.23,3.72,6.46a4.73,4.73,0,0,1-.84.49c-.2.09-.61.35-.86.46-.87.37,4-.41-4.79,1.32-11.35,2.25-10.37,3.87-17,5.82-5,2.14-4.1,2.5-8,5,4.31.08,6.58-.67,9-3.76,8.17-.56,13.56-4.29,22.62-4.29-2.09,5-7.81,8.3-13.5,10.73l-4.75,1.38-7.78,2.11c2.89.32,6.66,1.31,8-1.28,1.54.14,5.31,1.6,5.31-1.33,7.47.44,12.76-4.37,17.5-6.94l7.56,7c-.7,1.55-.11,1.89-1.48,3.31l1.9.78c6,5.55,14.68,10.3,20.5,16.13-2.09,5-1.8,1.46-4.27,6.52l10.55,3.17c3.53,2.92,2.56,3,2.78,3.74,6.36,19.5,42.89,6.27,57,5.08l4.16-.39-.35,5.1-1.8,3.19,6.1-.58c.52,1.94-1.59,1.42,1.87,1.55,1.4.47,1.37.1,2.95,1.07,2,1-.9-.41,3.27-.4h.17c4.17,0,1.25,1.43,3.27.4,1.58-1,1.54-.6,2.95-1.07,3.46-.12,1.35.39,1.87-1.55l6.1.58-1.8-3.19-.35-5.1,4.16.39c14.13,1.18,50.67,14.42,57-5.08.22-.76-.75-.82,2.78-3.74L683,798.11c-2.47-5.07-2.18-1.53-4.27-6.52,5.82-5.83,14.46-10.57,20.5-16.13l1.9-.78c-1.37-1.42-.79-1.76-1.48-3.31l7.56-7c4.74,2.57,10,7.37,17.5,6.94,0,2.93,3.76,1.47,5.31,1.33,1.36,2.59,5.13,1.6,8,1.28l-7.78-2.11-4.75-1.38c-5.69-2.43-11.41-5.74-13.5-10.73,9.06,0,14.45,3.73,22.62,4.29,2.44,3.08,4.71,3.84,9,3.76-3.91-2.53-3-2.89-8-5-6.6-2-5.62-3.57-17-5.82-8.74-1.73-3.92-1-4.79-1.32-.25-.11-.66-.37-.86-.46a4.73,4.73,0,0,1-.84-.49c1.46-4.23.12-4.1,3.72-6.46,12.59.33,15.17,3.44,24.65,7.73,10.36,4.69,17.36,3,28.42,2.68l6.53-1.53c-1.75-1,.32-.92-3-1.23-2.23-.21-2.37.3-3.55.7-23.34,4.67-21.12-7.11-53.47-12.67,2.07-1.79,3.35-2.28,6.34-3a64.89,64.89,0,0,1,6.92-1.07l3.52.44c6.75-.12,2.29-.23,4.23-1.62-1.61-2,.36-.78-2.79-1.92l-3.18.38-9.9.11c9.48-10.32,32.09-10.13,48.33-10.72,15.25-.55,36.95-6.2,42.64-16.48,2.14-2.29,1.77,1,1.23-4.72l-1.94,3.14c-24.23,17-75.66,10.41-96.34,27.92-2.71.13-1.93.77-2.33-1.92-.18-3.78,1-10.33-2.17-11.92l-3-1.14-5.54-19.24L699.13,708c-5-.71-4.39-1.09-6.86-3.55-2.71,3.22-.43,3.88-4.16,2.11-2.66-2,3.42-1.35-3.29-1.78.09,7-.3,1.69,1.44,3.76l.33,9.38-1.39,3.63,2.36-1.76c5.3-2.39,4-5.48,9-3.84l1.28,1c2.77,2.28,2.13,1.56,1.64,5.51-.67,15.53-13.16,4.15-10.29,13.2,1.14,3.58,5.74,2.93,8.57,2,4-1.26,4.59-3.81,7-6.46,3.9,6.48-2.48,6.21-3.07,13.62-.57,7,1.65,5,2.34,5.64.29.27,1.37.8,1.63,1.05,2.06,2,.59-2.76,1.41,2s-3.34,2.07-10.43,10.25c-3.57,4.12-8.83,9.18-13.83,12.14-8.86,5.23-3.46-.22-9.23,1.91-2.43.9-3.5,3.39-8.16,5l-2.55-2.18-2.39,1.82-13.34,6.44c-1.86,1.51-1.79-2.05-1.44,2.38,5.77,1.11,5.19,1.86,10.12-.72,2,.8,1.16.14,3.34,1.43l2.73-1.73c5.35-1.33,3.71-3,8.07-4.15,2-.52,1,.36,4.74-1.07,3-1.15,1.76-1.23,5.31-2.24L672,792c-2.74,2.69-9,3.78-12.67,4.43l-2.76.81,2.92,2L662,806.5c-2.88.64-5.72.82-7.94,1.33-4.58,1-3.26.79-8.25,0,0-2,.51-1.46-1.38-1.64l-1.31,1.38c-1.44.85.3.36-2.72,1.18-.48-.17-2.09-.9-2.24-.94-2.89-.71-.09-.17-1.84-.21-2.34-.05,2,2.19-4-.16-3.71-.34,1.11-.27-3.68,1.13l-9.05-2.88c-1.09-1.9,1.72-1.52-2-1.54l-.79,4.64c-5.78-1.56-11.4-5-14.51-5.78-5.38.38-1.67-1.13-4.12,1.88a2,2,0,0,1-3.6,0c-2.45-3,1.26-1.5-4.12-1.88-3.11.76-8.73,4.22-14.51,5.78l-.79-4.64c-3.74,0-.93-.36-2,1.54L564,808.6c-4.79-1.4,0-1.47-3.68-1.13-6,2.35-1.65.11-4,.16-1.75,0,1.05-.5-1.84.21-.15,0-1.76.77-2.24.94-3-.82-1.28-.34-2.72-1.18l-1.31-1.38c-1.89.18-1.38-.33-1.38,1.64-5,.76-3.68,1-8.25,0-2.22-.51-5.06-.69-7.94-1.33l2.48-7.23,2.92-2-2.76-.81c-3.64-.65-9.93-1.74-12.67-4.43l-8-9.26c3.55,1,2.29,1.08,5.31,2.24,3.73,1.43,2.7.55,4.74,1.07,4.36,1.12,2.73,2.81,8.07,4.15l2.73,1.73c2.18-1.29,1.3-.63,3.34-1.43,4.94,2.59,4.35,1.83,10.12.72.35-4.43.42-.87-1.44-2.38l-13.34-6.44-2.39-1.82-2.55,2.18c-4.67-1.59-5.73-4.09-8.16-5-5.77-2.13-.37,3.32-9.23-1.91-5-3-10.26-8-13.83-12.14-7.09-8.19-11.27-5.47-10.43-10.25s-.65,0,1.41-2c.26-.25,1.34-.78,1.63-1.05.7-.65,2.91,1.4,2.34-5.64-.6-7.4-7-7.14-3.07-13.62,2.44,2.64,3.06,5.19,7,6.46,2.82.9,7.43,1.55,8.57-2,2.87-9-9.62,2.33-10.29-13.2-.48-3.95-1.13-3.23,1.64-5.51l1.28-1c5-1.63,3.71,1.45,9,3.84l2.36,1.76-1.39-3.63.33-9.38c1.74-2.07,1.35,3.22,1.44-3.76-6.71.43-.63-.26-3.29,1.78-3.72,1.77-1.45,1.11-4.16-2.11-2.47,2.46-1.87,2.84-6.86,3.55l-2.38-5.93-5.54,19.24Zm280.06-73.81c3.72-.59,1.91-.24,3.72-3.68s.77-3.19,3.5-6c1.47,4,1.32,8,.34,12.82l1,1.33,10.28-4.1c2.22-2.65-1.28-2.06,5-1.84-.11,5.14.7,1.34-1.83,4.12-3.58,6.59-5.6,16.15-13.26,16.53-1.37,1.35,1,1.28-4.41,2l.63-3.47c-.22-2.63.54-2.11-1.92-1.93-4,2.51-5.23,2.73-10.74,3.19l4.21-11.14c-15.84,4.77-11.05-.93-14.31-3.81-5.2-4.6-3.75,5.13-14.53,2.42.2-.28.56-1,.67-.76s.52-.58.66-.76c2.37-3,3.77-3.86,2.66-8.36s-4.69-5.55-8.66-6.71c12.24-10,0-15.3,27.89-18.85-1.1-7.39,4.65-10.86,11.58-11.76,5.78,19.13-30.64,9.87-26.36,32.53,4.11-.07.93-.34,5.57-2.07l1.82,7.91c10.94-2.28,6.86-10,12.81-14.71,5.21,5.38,4.7,8.51,2.61,16.56ZM692.3,563.48c-.23-6.22-.21-1.91,1.41-3.6,6.74.26,1.81,0,3.74,1.62l2.53.33c.13,7.67-3.87,9.56-8.45,5.59l-2.09-2.52Zm-27.21-86.14-1.21,2.49c-1.41,3.33-1.06.68-.75,5,1.18,5.85,1.34,7.75-2.56,10.68-.53,1.44-.7,3-1.09,4.06-1.42,3.87.19,1.09-1.94,3.41-2.4,8.49-6.19,3.41-5.83,16.58,4.64-.16,4.35.25,7-2.3.59,9-4.43,8.19-8.33,11.74-3.66,3.34.65,1.13-5.74,5.44-3.72,2.51-2.91.51-3.66,6.71l-.34,4.11c-5.65,0-.51.25-2.77-1.34-2.84-2.32-2.86-2.26-4.36-6.24-.21-.25-.6-.9-.65-.73s-.46-.62-.51-.83c-.64-2.68-.41-.72-.27-3.37,2.88-1.76,3.44-.64,6.17-2.88-.14-3-.72-4.85.83-7.33s3.49-2.14,5.65-3.35c.22-5.2,1.4-3.93.07-7.79-1.24-3.61-2.36-2.16-2.57-8.24,6.57-7.4,2.84,3.37,4.84-11.21l3.15,1c.21-.2.52-.8.62-.6l2.84-2.57,2.08-2.42c2.69-3.2.32,1.52,2.21-2.81-6.61-4.06-18.77-9.11-11.86-19,3.33.52,1.55,1,5.55,3.27,2.55,1.47,3.71,1.54,6.3,3.24l2.39-3a23.29,23.29,0,0,0,1.26-3.35c-2.73-4.18-5.45-7.66-6.54-14.26.22-.08.62-.26.71,0s.6,0,.72-.06c3.41-.6,2,.27,3.91-1.14-1.16-3.66,0-1-3.07-3.17-1.87-1.33-6.35-.62-3.63-13.61,6-.92,3.41,1.85,8.3,2.44,1.31.16,9.46-5,15.66,5.8,2.05,3.58,3.28,8.44-.09,11-6.85,3.29-7.94-3.67-14.15-3.24-2.29,10.9,4.79,2.42,14.08,15.72,5.89,8.44-.27,19.61-8.93,10.92C665.48,476.95,666.94,475.78,665.09,477.34ZM692,514.18l-3.39,3.76c2.25,3.23,2.57,3,7.55,4.42L695,515.28c-1.69-4.61-.25-3.27-3.79-5.92-1,1.56-1.11.15-.52,2.81S690.65,511.95,692,514.18Zm18.82-10.38-2.31-4.08c6,0,2.05,0,3.52,1.28,4.32,1.57,7.51,8.47,9,14.58.33,0,.82-.57,1-.26,2.12,4.14,1.38-.35,1.91-.41,7.14-.78,7.57,8.88-8.07,14.33-5.51.84-5.33-.87-5.11,4.72,3.25,3.15,2,3.17,1.65,4.11-6.17,2.39-10.45,1-15.5-1.24-3.55-1.6-1.68-2.34-7.49-1.12-4.85,1-5.37,2.86-6.17,4.65,4.85,0,.44,2-.67,2.5l-7.25,2.63-4.66-1-.33-11.63,3.36.56c3.44-2.27,6.77-4.7,7.68-10.31-3.1,2.6-3.4,3.91-7.08,5.53-.86-6.86-1-12.24-2.28-18.56-.75-3.62-11.58-22.45,6.8-18.56,4.68,1,1.24-.43,4,1.66l-.45,3.78c5.73-.16.64-.3,2.8,1.4.51,4.39,3.27,2.7,8.13,4.94l1.2-3.22c5.28,1,2.65-.05,4.89,2.43,5.78,1.17,8.08,4.61,8.27,11.69L705,516.32l-.34,4.35,4-.61C712.44,515.4,711.92,510.89,710.83,503.8Zm-22.12,21.78-2.09,2.34,2.33,1.85c1.68,1.7-2.73,1.23,3.9,2l-.36-3.77,1.87-4.07c-3.24.18-1-.18-4,.59-.26.07-.71.78-.89.5S689,525.38,688.71,525.58Zm96,20.54c-3.27-7.36-7.71-10.73-8.7-17.2-1-6.28,1.37-3.8-1.48-8.08-2.49-3.73-5.22-3.3-7.61-10.92-2.78-8.85-.87-9.9,2.94-14.29,3,1.52,16.08,14,14.84,23.45l-6.92,2.58c.75,9.8,13.3,13.06,9.89,25.8-.13,2.14.47,1.67-1.53,1.69ZM694.15,750.85c2.09-3.12-2.23-1.36,1.76-2.38.89,1.23,3-.59.08,3.71a21,21,0,0,1-2.57,7.07c-5.59.68-2.18-.14-6.7-.71-5.66,11.29-7.43,4.38-13.58,8.75-4.1,2.91.09,2.42-7.17,2.8-5.79.31-1.77.85-6.83,2.67-1.76,1.38,2.83,1.41-4.08,1.47,2-4.08,1.1-1.86,3-3.13,1.57-2.82,2.34-5.69,6.27-7.77,4.78-2.53,1,.74,6.57-2,.21-.1.5-.33.72-.43,4.89-2.26,3.55-.59,6.53-2.1,5.34-2.72,1.06-6.23,14.58-5.27Zm-195.64,0c-2.09-3.12,2.23-1.36-1.76-2.38-.89,1.23-3-.59-.08,3.71a21,21,0,0,0,2.57,7.07c5.59.68,2.18-.14,6.7-.71,5.66,11.29,7.43,4.38,13.58,8.75,4.1,2.91-.09,2.42,7.17,2.8,5.78.31,1.77.85,6.83,2.67,1.76,1.38-2.83,1.41,4.08,1.47-2-4.08-1.1-1.86-3-3.13-1.57-2.82-2.34-5.69-6.27-7.77-4.78-2.53-1,.74-6.57-2-.2-.1-.5-.33-.72-.43-4.89-2.26-3.55-.59-6.53-2.1-5.34-2.72-1.06-6.23-14.58-5.27Zm97.82,39.31,1.89-.4c-.25-5.05.29-.85-1.89-2.35-2.17,1.5-1.64-2.71-1.89,2.35Zm0-19.26a7,7,0,0,0,1.23.37c5.09-7.26,1.54-12.77,1.45-20.63-.1-9.44,6.53-8.26,9.77-2.36l9.56-7.73c3.31-1.19-2.54,1.38,2.14-.45,1.95-.76.06.16,2.07-1.17,7.3-4.81-3.66.78,2.09-1.63l3.31,1.44.81-3.68c5.06-1.05.94-.48,2.63.91,6.27-2.87-2.3-2.77,5.38-2.84,4.68,0,2.42,1.12,7.37,1.57l3.54-6,4.21-6.58c1.3-4.76,1.4-4.45,4.76-7.86a27,27,0,0,1-.88,4.67c-1.17,3.26-.66,2-2.67,4l-3.73,7.59c-1.53,11-2.75,16.42-13.43,17.94-12.14,1.73-14.36,4.94-20,11.74,2.13,1.38.67-.11,3.7,0,.13,0,.66.5.76.24s.51.23.74.38c-.5,6.9.5,1.62-2.32,2.67-5.56,10.75-17.7,20.21-13,36.52-6.13-.55-7-2-8-7.54l-1.58.38-1.58-.38c-.94,5.51-1.84,7-8,7.54,4.73-16.31-7.41-25.77-13-36.52-2.82-1.05-1.82,4.23-2.32-2.67.24-.15.64-.64.74-.38s.62-.24.76-.24c3-.07,1.56,1.42,3.7,0-5.62-6.81-7.84-10-20-11.74-10.68-1.52-11.9-6.92-13.43-17.94l-3.73-7.59c-2-2-1.49-.76-2.67-4a27,27,0,0,1-.88-4.67c3.36,3.41,3.46,3.09,4.76,7.86l4.21,6.58,3.54,6c4.95-.45,2.69-1.61,7.37-1.57,7.68.07-.89,0,5.38,2.84,1.69-1.39-2.43-2,2.63-.91l.81,3.68L568,737.3c5.75,2.41-5.22-3.18,2.09,1.63,2,1.33.12.4,2.07,1.17,4.68,1.84-1.17-.73,2.14.45l9.56,7.73c3.24-5.9,9.87-7.08,9.77,2.36-.09,7.86-3.64,13.37,1.45,20.63A7,7,0,0,0,596.33,770.9Zm73.92-23.33c-1.9,3.81-1.33,2.72-5.19,3.84.36-5.72.21-5.68,4-7.6l2.38-1.28c.32,3.46-.58,4.27-.6,4.19S670.44,747.28,670.25,747.57Zm115-145.91c.18,7.81,1.28,10.59-5,13.84-1.7-1.08-1.06-.45-3.05-1.36-1.5,2.88-4.35,8-6.43,2.19-2.88-1.79-1.57-12.73.74-16.85l2.64-4c.18-7.33,5-11.75,6.94-18.24l1.08-3c3.48-.27.33-.25,1.8,1.82,1.25,12-7.16,14.81-4.67,25.11l2.49-1c0-2.22-.49-1.55,2-1.47Zm9.18-70.36c.44,6.36,4.32,6.35,3,14.53l-1,2.39c-1.8-1.39-1.21-.52-2.25-3.2-1.48-6.35-5.95-8.13-3.07-15.3l1.14-3.32C793.71,528.18,793.86,528.89,794.41,531.29ZM771.36,556.5l-.73,24.13c-2.08-.8-11.89-13.67-13-15.67-3.69-6.94-4.66-14.9-4.39-23.29,4.66,1.79,11.2,9.84,13.18,14.17l3.24-2.27,3.5-3.85Zm-82,32.9c-4.87.08-5.35.7-9-2.28l-12.86-.26a37.36,37.36,0,0,1,10.23-25.79c7-7.34,16.93-8.52,29.39-7.28l2.39-.54c-2.06-1.18-.05-.35-1.15-2.1,3.78.46,8.29,2,12,2.15,10,.5-3.77-1.62,9.75-2.64,2.47,2.27,3.21,2.56,6.51.92-2.81-2.63-.77-.65-3.36-1.91-3.6-2.19-1.31-.18-2.49-2.32-3.13-1.22-1.41,1.23-3-2.81,5,1.15,2.28.51,4,2.21,4.88.75,6.28,2.36,12.52,2.46-1.87-5.6-.46-2-5.06-5.25a12.54,12.54,0,0,1-4.64-5.18c-3.55-6.86-2.43-11.68,2.35-15.41,4.29,3.36,8.35,11.23,10.64,17.28,4,10.52,3.24,14.13,3.58,25.49.45,15.08,7.47-4.5,3.87,24.36-1,8.08-3.51,15.82-8,20.94l-4.42,6.3c-.31-4.07-.9-.84.15-3.86l2.53-4.31c2.18-10,5.93-16.51,3.63-28.43-1-5.09-4.85-9.64-5.1-11.63s2.33-7.5,1.95-13.87l-.08-3.55c-5.84,0-1.33-.31-3.13,1.45l-3.31,1L738,556.18c-2.66,3,2.11,2.37-9.74,1.64-2.26,2.57-2,2.74-4.9,3.41l-3.26-.74-.57,9c-.6,7.71-4.94,13.06-9.31,16.65C703.56,591.64,699.2,590.46,689.34,589.4Zm25.32-29.46c-6-2.76-24.78-2.31-30.41.32-8.67,4.05-7.47,14-1.12,20C697.31,593.71,720.14,578.48,714.66,559.94ZM616.49,322.07c3.47,12.6,32.34,11.65,58.41,24.84L715.7,369c5.44,2.73,9.53,6,13.75,8.06,3,1.46,1.42-.05,3.88,2.56-3.05,2.19-10.84.54-13.69-1.91-3.93-.32-6.83-4.95-8.6-7.61-1.78,1.84-4,8.67-16.7,4.22a33,33,0,0,1-13.06-8.61c-1.76-1.8-2.11,2.59-1.25-2.8,7.13.38,1.57.49,3.93-2-3.54-7-18-21.82-28.16-13,1.94,1.13,16,.72,18.16,10.15,1,4.52-1.37,7.49-5.76,7-6.93-.71,2.64.6-3.76-1.93a36.14,36.14,0,0,0-6-1.2c-3-.59-7.21-1.78-9.63-3.8-3-2.51-2-2.75-3.21-4.26-2.34-2.82-.86-1.18-4.6-2.74-8.6-3.6-4.83-13.67-16.08-13,8.89,10.44-7.84,18.86-14.22,9.93-2.44-6.19.36-3.93.67-7,.19-1.81-3.41-7.54-2-13.81.65-2.86,2.47-3.89,3.41-6.62l-.47-1.24h4Zm72,71.84c3.6,0,6.15.42,8.43,2.54a5.69,5.69,0,0,1,2.21,3.8c.74,5.4,0,2.33-1.33,3l-2.62,2.76c8.73,2.36,16,11.52,18.29,21.27-12.55-3.87-14-20.2-25.22-22.13-5.31-.58-1.62-.39-3,1,3.81,2.93,12.73,8.28,10.62,16.5-7.49,1.36-11.69-6.28-14.74-12l1.22-2.21-.36-5.23c-4.48-8.21-12.46-4.7-22.83-16.13-2,.5-14.67,8.25-18.33-8-6.93-1.54-4.22-.31-8.27-2.78-6.32-4.51-10.27-10-6.41-18.74l1.84-1.35c7.11-3.2,8.09.28,8.1.29,5.77,1.12,9.3,3.87,10.83,8.56-3.32,6.65-6,3.15-6,9.86,9.82,3,21.11-1.81,27.61.39,2.6.88,2,.91,3.25,2.07-3.77,4.76-4.12,2.59-9.05,6.17l-1.41,1.23c7.53,3.25,17.58-6.89,24.53,2.47L683,390.93c3.84,3.55-3.53-1.48,2.24,1.4Zm67.85,301.81a34.3,34.3,0,0,1-9.79,20.53c-6.59,6.37-13.28,5.46-24.53,6-1.27,2,2.29,1.17-3.13,1.85-1.14-8.27-.58-.78,1.9-3.45,14-2.72,11.31-10.13,11-13.9,8-2,20.72-15.87,22.33-19,2.27-1.86-3.26-2.9,3.54-1.18.28,3.86.69,4-.34,7.35-.09.29-.36.68-.45.9A8.57,8.57,0,0,1,756.36,695.72ZM626.91,465.88c-13.16-13-3.53-23.38.23-22.53,4.27,3,2,1.69,3.17,4.53,2.74,6.91,11.57,12.94,2.23,16.92a17.15,17.15,0,0,0-1.86,3.41C625,467.1,628.42,467.43,626.91,465.88ZM693.19,626l2.25,1.49c1.48,3.49,1.26,3.15,5.38,5l4.93.73,1.33,4.16c1,5.06,2.67.92,4.07,6.55,1.05,4.24-3.64,3.57,5.09,5.88l-.66-4.48,5.21-2c4.24-.44,2.39-.31,5.81.74l-1.38,2.9c-1.92,15.32-20.7,2.32-25-2.33-6.29-6.85-11.75-13.38-15.72-24.29l5.12-.41C692.9,623.11,690.61,621.06,693.19,626ZM706,447.77c2.5-2.9-3.8-2.91,4.42-2.15-1.34,6.91.12.89-2.24,3.59-1.25,4.7,2.94,2.34,1.52,10.79l-7.26,1.61c-.47,6.27,0,6.78-3.46,10.67l-.59,6.22c-3.09,2-2.75.94-3.3,4,3.12,3.16,6.15,6.56,6.42,13.31-10.4-.76-16.94-3.94-18.51-13.63,2.11-2.22,4.64-2.94,7.64-4.93-1.27-7.15-4.26,0-3.41-11.55,7,.58,6.6,4.5,12.55,1.86l.51-4.2c-.12-.57-1.52-3.48-1.9-4.3-2.25-4.83-2.4-5.69-2.34-11.37C700.39,448.41,702.1,450.25,706,447.77Zm6.75,30.37a9.37,9.37,0,0,1,4.3-.8c3.64.3,12.41,5.69,14.68,13.7,3.22,11.35,6,3.12,8.48,13.84,4.08-2,1.78-1.6,4.69-2.41,4.48,5.39,13.07,11.69,9.38,21.84-15.57,5.15-21-17.56-22.71-19.58-6.13-7.47-18.11,4.31-26.22-20.07l-.86-5.53,6.19,1.49C711.32,476,710.46,480.26,712.79,478.14Zm-34,265.55c-.29-5.71-1.34-5.22,3.83-6.84,0,0,2.88.7.74,4.79C682.2,743.85,681.46,743.31,678.78,743.69Zm50.67-117.28c-2.77,4,.36,1-3.7,3.18l-4.25-2.12c0-2.34.54-1.73-1.91-1.47l-1.17,3.08c-7.14-.76-12-5.76-16.28-8.24l-2-3.12c-1.24,1.72-1.28-.7-1.13,2.38.19,4-.43.3,1.86,2l1.27,2.88-1,1.16-4.73-2L696,622.9l-2.07-9.4,15.63.18c2.11,2.33-3.21,1.26,4.17,1.85,2.49.77,4-.31,6.45-1.25a5.52,5.52,0,0,0,3.08,1.47c2.34.49,1.79,0,4.06-.16l2.25-4.24c1.89-5.71,7.21-5.42,9.49-3.15,3,3-.56,2.23-.67,6.93,0,4.3-2.32,5.08-6.47,4.26a10.19,10.19,0,0,1-.28,3.51C730.53,625.71,730.65,624.87,729.46,626.41Zm63-14.77c-.82-1.28-.22.91-1.13-2.73-1.21-4.82-5-32.65-4.27-34.74.1-.28,2.56-3.91,2.89-4.36l3.63-4.19c2.12,3.13,2.76,5.78,1.68,11-1.24,5.95-3.72,4.6-2,10.62C796.09,597.42,796.48,602.89,792.45,611.64ZM625.91,487.24c-3.29,3.81-9.55,10.79-10,15.91,1.76,2,5.25,4.1,6.41,6.11,3.52,6.1-.94,5,1,10.19,2.05,5.57,10.58,9.29.13,16.46l-7-4.92c1.13-3.82,4.23-6.09.3-11.18-2.55-3.31-9.23-8.22-4.06-18.78,3-6.08,2.61,1.22,1.77-6-.71-6.1-2.76-9.63,1.6-14,6.48-6.56,13.1.18,20.94-.14,1.8-.07-.86-3,2.11.55,2.64,3.18,1.9,10-2.63,11.24C631.41,494,630.52,489.18,625.91,487.24ZM501,383.46c2-2.15,1.72-2.48,2-5.44-5.32,1.29-.66-.23-2.65,2.39-11.09,4-25.64-1-29.24,9.77-1.06,4-.49.8.69,2,3.57,0,5.69-.93,6.86,2.12,2.79.44,1-.91,2.95,1.63-1.78,6.17-11,9.54-15.77,4.72-4.06-5.26,3.76-16.45-8.54-15.36-1,5.69,2.64,6.27-.87,11.22-6.78-.24-6.92-6.52-5.2-11.84,2.85-1.18,1.35,1.46,2.67-2.4h-4.58c-14.3-.49-32.7-18.53-42.47-24.93a89,89,0,0,0-22.65-10.63c-13.47-4.17-16.77-1.92-28.86-3.27,2.75,1.23-.83-2.86.85,1.21.1.23.72,3,2.15,4.37,3.78,3.65,2.94-.17,8.27,4.1,26.69,2.76,38.94,17.75,52.49,27.74l-3.67,1.8c-1.29.41-2.61.49-4.08.82a21,21,0,0,0-7.07,2.8l14.57,3.15-.11.48h0a8.15,8.15,0,0,0-.5.87,4.46,4.46,0,0,1-.53.85l.21.49.38.45,13.48,4.62-2.14,2.42-2.31-.54c-5.13.59-1.29-.22-2.26,1.78l4.62,1.67c7.38.79,10.52,5,14.56,8.49-.74,7.09-3.13,6.29-.83,15.73l-3.21.81c-2.53-2.94-2.6-2.05-6.94-2.17l3.73,3.31c3.67,1.93,5.86,4.65,9.25,5.55-2.79,2.9.35.39-4,2.4-3,1.41-1.69,0-3.77,2.1,5.52,1.36,10.22,4.15,14.82,6.51-3.31,4.15-4.88,1.79-5.06,8.61,4.42,2.64,3.64.32,8.54,1.52,3.37.83,3.05,1.6,4.17,3.06l1,1.53c5.63-2.26,15.46-9.3,2.68-11.55l-4.15-.72c2.88-3.56,3.19-2.73,8.7-4.93-.38-8.47-4.39-6.26-10.75-8.8-1.37-10.43,14.28-21.92,20.18-26.32,4.71-3.51,6.78-8.06,10.63-12.8C493.51,389.61,499.19,389.1,501,383.46Zm28.19,207.67c-1,5.19.35,2.15-2.76,5.55l-3.51,2.55-6.27,1.65.33,8.49c2,2.38,1.62,3.15,1.59,7.19,0,.36-.15,3.36-.2,3.65-.73,4.14-.24,1.16-1.28,2.78,2.78,16.22-16.69,38.37-22.75,45.22-2.75,1.52-.73-2.15-2.58,2.62,5.47-.08,2.93-.18,4.67-1.77,10.29-1,19.82-14.67,26.87-19.57-3.27-1.73,2.33,1.23-2.26-.91l-2.34-1.22,4.91-5.43,6.2-13.47c0,4.07.24,3.24-.93,7-1.37,4.36-3.47,2.57-.14,4,15.86-10.81,5-33.36,5.43-39.52.78-11.08-.36-7.35-1.3-15.54l-2.59-3.93-.23,6.62-3.52.36C528.08,593.31,526.56,588.28,529.18,591.13ZM328.84,367.74v14.34c5.51,11.66-.06,19.51,14.08,36.74,3.8,4.63,7,8.43,8.35,16.39,1.38,8.11,1,10.14,5.75,12.53,1.42.72,1.28.44,2.57,1.05,2.61,1.24.64-.22,2.45,1.35-2.79,10-3.42,19,1.43,28.28,6.4,12.22,10.93,8.06,21.14,13.47,1.07,2.71,1.07,5.6,2.1,8.8s2.59,5.24,3.7,7.51c.2-.28.37-1.12.43-.94s.33-.72.41-.94l1.7-5.52,4,.13,7.45-2-6.1-1.12-3.16-1.13c-2.08-3.66-.87-.9.29-2l3-1.39,3.34-.32,6.13-1c-.27-.31-.59-1-.76-.72l-2.19-.61c-.33,0-1,0-1.45,0-5,0-4.91.15-7-3.49,2.62-3.32,6.14-4.08,11.55-4.44l2.62-1.33-2.64-2-5-1.7,12.66-6.3c-3.25-4.53-.36-.44-5.41-3.67,3.44-1.9,4.6-1.92,6.67-5.2-6.76-5.24-17.06-.58-24.09,1.65l.76-11.68,2.41-2.64-3.27,1.8c-4.58,1.9-1.7,2.37-7.29,3.82a46.85,46.85,0,0,1,3.37-17.52l3.62-1.81c-4.68-1.62-3.23-.19-4.61.78l-4.7,1.75c.26-7.3,5.69-11.81,8.61-15.74-11.15.29-11,5-17.37,8.06-28.68-12.11,0-39.78-17.64-53.14-10.52-8-11.27-.8-17.8-.78-6.62-11.53,6.29-21.69,15.73-24,3.05-3-3.67-1.33,3.43-2.69-1.88-.16-2.66-3-8.12-4.42C332.37,345.59,334.05,357.5,328.84,367.74ZM451,580.24c2.88,0,1.35,1.55.64,5.05,6,.39,10.83,3.38,12.78,7.86l1,1.91-2.08,2.23c3.71,2.35,4.07,2.09,8.2,3.55,6.51,2.3,3.86,2.28,5.29,5.65,6.51,1.27,7.32,1.24,14.48.5l4-.32c.49-.52,1.75-1,2.14-1.6l-1-1.4-6-.25c-4.8-1.66-5.37-1.47-9.29-4.7-2.69-2.22-5.88-4.29-8-6.59-3.14-1.58-1.51.61-3.23-3.61-1-5.43-3.58-3.86-8.82-6.76-5-2.77-4.42-5.36-9-8.25C450.79,575.7,450.21,576.8,451,580.24ZM555.51,401c-7,1.41-10.52,4.06-9.8,12.49,3.67,1.55,9,1.89,12.2,3.42-1.39,8.91-9.36,8.6-9.64,17.29a12.33,12.33,0,0,0,10.49-.58c7.23-3.7,1.8-3.79,9.48-3.09,8.46.77,15.82-5.13,12.06-13.22-4.71.3-5.84,2.71-8.49,5.44l-1.1-.82-1-6.3c-4.68-1.43-2.17,2.5-7.87-1.17-.37-7.8,2.38-1.45,4.33-8.45,1.15-4.12-1.7,1.48.57-2.89,1.16-2.24,7.58-7.44,9.87-8,4.91-.31,1.23.37,2.65-1.82-.63-.74-1.76-1-2.64-1.47-6.67-4.06-10.35-6.69-20-3.37-.52,5.65.85,6.92,4,9.19ZM430,648.64c-3.72-.59-1.91-.24-3.72-3.68s-.77-3.19-3.5-6c-1.47,4-1.32,8-.34,12.82l-1,1.33L411.15,649c-2.22-2.65,1.28-2.06-5-1.84.11,5.14-.7,1.34,1.83,4.12,3.58,6.59,5.6,16.15,13.26,16.53,1.37,1.35-1,1.28,4.41,2L425,666.4c.22-2.63-.54-2.11,1.92-1.93,4,2.51,5.23,2.73,10.74,3.19l-4.21-11.14c15.84,4.77,11.05-.93,14.31-3.81,5.2-4.6,3.75,5.13,14.53,2.42-.2-.28-.57-1-.67-.76s-.52-.58-.66-.76c-2.37-3-3.77-3.86-2.66-8.36s4.69-5.55,8.66-6.71c-12.24-10,0-15.3-27.89-18.85,1.1-7.39-4.65-10.86-11.58-11.76-5.78,19.13,30.64,9.87,26.36,32.53-4.11-.07-.93-.34-5.57-2.07l-1.82,7.91c-10.94-2.28-6.86-10-12.81-14.71-5.21,5.38-4.7,8.51-2.61,16.56Zm70.38-85.16c.23-6.22.21-1.91-1.41-3.6-6.74.26-1.81,0-3.74,1.62l-2.53.33c-.13,7.67,3.87,9.56,8.45,5.59l2.09-2.52Zm27.21-86.14,1.21,2.49c1.41,3.33,1.06.68.75,5-1.18,5.85-1.34,7.75,2.56,10.68.53,1.44.7,3,1.09,4.06,1.42,3.87-.19,1.09,1.94,3.41,2.4,8.49,6.19,3.41,5.83,16.58-4.64-.16-4.35.25-7-2.3-.59,9,4.43,8.19,8.33,11.74,3.66,3.34-.65,1.13,5.74,5.44,3.72,2.51,2.91.51,3.66,6.71l.34,4.11c5.65,0,.51.25,2.77-1.34,2.84-2.32,2.86-2.26,4.36-6.24.21-.25.6-.9.65-.73s.46-.62.51-.83c.64-2.68.41-.72.27-3.37-2.88-1.76-3.44-.64-6.17-2.88.14-3,.72-4.85-.83-7.33s-3.49-2.14-5.65-3.35c-.22-5.2-1.4-3.93-.07-7.79,1.24-3.61,2.36-2.16,2.57-8.24-6.57-7.4-2.84,3.37-4.84-11.21l-3.15,1c-.2-.2-.52-.8-.62-.6L539,489.74l-2.08-2.42c-2.69-3.2-.32,1.52-2.21-2.81,6.61-4.06,18.77-9.11,11.86-19-3.33.52-1.55,1-5.55,3.27-2.55,1.47-3.71,1.54-6.3,3.24l-2.39-3a23.3,23.3,0,0,1-1.26-3.35c2.73-4.18,5.45-7.66,6.54-14.26-.22-.08-.62-.26-.71,0s-.6,0-.72-.06c-3.41-.6-2,.27-3.91-1.14,1.16-3.66,0-1,3.07-3.17,1.87-1.33,6.35-.62,3.63-13.61-6-.92-3.41,1.85-8.3,2.44-1.31.16-9.46-5-15.66,5.8-2.05,3.58-3.28,8.44.09,11,6.85,3.29,7.94-3.67,14.15-3.24,2.29,10.9-4.79,2.42-14.08,15.72-5.89,8.44.27,19.61,8.93,10.92C527.18,476.95,525.72,475.78,527.57,477.34Zm-26.93,36.83,3.39,3.76c-2.25,3.23-2.57,3-7.55,4.42l1.15-7.08c1.69-4.61.25-3.27,3.79-5.92,1,1.56,1.11.15.52,2.81S502,511.95,500.64,514.18ZM481.82,503.8l2.31-4.08c-6,0-2.05,0-3.52,1.28-4.32,1.57-7.51,8.47-9,14.58-.33,0-.82-.57-1-.26-2.12,4.14-1.38-.35-1.91-.41-7.14-.78-7.57,8.88,8.07,14.33,5.51.84,5.33-.87,5.11,4.72-3.25,3.15-2,3.17-1.65,4.11,6.17,2.39,10.45,1,15.5-1.24,3.55-1.6,1.68-2.34,7.49-1.12,4.85,1,5.37,2.86,6.17,4.65-4.85,0-.44,2,.67,2.5l7.25,2.63,4.66-1,.33-11.63-3.36.56c-3.44-2.27-6.77-4.7-7.68-10.31,3.1,2.6,3.4,3.91,7.08,5.53.86-6.86,1-12.24,2.28-18.56.75-3.62,11.58-22.45-6.8-18.56-4.68,1-1.24-.43-4,1.66l.45,3.78c-5.73-.16-.64-.3-2.8,1.4-.51,4.39-3.27,2.7-8.13,4.94l-1.2-3.22c-5.28,1-2.65-.05-4.89,2.43-5.78,1.17-8.08,4.61-8.27,11.69l2.74,2.07.34,4.35-4-.61C480.22,515.4,480.73,510.89,481.82,503.8Zm22.13,21.78,2.09,2.34-2.32,1.85c-1.68,1.7,2.73,1.23-3.9,2l.36-3.77-1.87-4.07c3.24.18,1-.18,4,.59.26.07.71.78.89.5S503.69,525.38,503.95,525.58Zm-96,20.54c3.27-7.36,7.71-10.73,8.7-17.2,1-6.28-1.37-3.8,1.48-8.08,2.49-3.73,5.22-3.3,7.61-10.92,2.78-8.85.87-9.9-2.94-14.29-3,1.52-16.08,14-14.84,23.45l6.92,2.58c-.75,9.8-13.3,13.06-9.89,25.8.13,2.14-.47,1.67,1.53,1.69ZM522.41,747.57c1.9,3.81,1.33,2.72,5.19,3.84-.36-5.72-.21-5.68-4-7.6l-2.38-1.28c-.32,3.46.58,4.27.6,4.19S522.21,747.28,522.41,747.57Zm-115-145.91c-.18,7.81-1.28,10.59,5,13.84,1.7-1.08,1.06-.45,3.05-1.36,1.5,2.88,4.35,8,6.43,2.19,2.88-1.79,1.58-12.73-.74-16.85l-2.64-4c-.18-7.33-5-11.75-6.94-18.24l-1.08-3c-3.48-.27-.33-.25-1.8,1.82-1.25,12,7.16,14.81,4.67,25.11l-2.49-1c0-2.22.49-1.55-2-1.47Zm-9.18-70.36c-.44,6.36-4.32,6.35-3,14.53l1,2.39c1.79-1.39,1.21-.52,2.25-3.2,1.48-6.35,5.95-8.13,3.07-15.3l-1.14-3.32C399,528.18,398.8,528.89,398.25,531.29ZM421.3,556.5l.73,24.13c2.08-.8,11.89-13.67,13-15.67,3.69-6.94,4.66-14.9,4.39-23.29-4.66,1.79-11.2,9.84-13.18,14.17L423,553.57l-3.5-3.85Zm82,32.9c4.87.08,5.35.7,9-2.28l12.86-.26A37.36,37.36,0,0,0,515,561.07c-7-7.34-16.93-8.52-29.39-7.28l-2.39-.54c2.06-1.18.05-.35,1.15-2.1-3.78.46-8.29,2-12,2.15-10,.5,3.77-1.62-9.75-2.64-2.47,2.27-3.21,2.56-6.51.92,2.81-2.63.77-.65,3.36-1.91,3.6-2.19,1.31-.18,2.49-2.32,3.13-1.22,1.41,1.23,3-2.81-5,1.15-2.28.51-4,2.21-4.88.75-6.28,2.36-12.52,2.46,1.87-5.6.46-2,5.06-5.25a12.54,12.54,0,0,0,4.64-5.18c3.55-6.86,2.43-11.68-2.35-15.41-4.29,3.36-8.35,11.23-10.64,17.28-4,10.52-3.24,14.13-3.58,25.49-.45,15.08-7.47-4.5-3.87,24.36,1,8.08,3.51,15.82,8,20.94l4.42,6.3c.31-4.07.9-.84-.15-3.86l-2.52-4.31c-2.18-10-5.93-16.51-3.63-28.43,1-5.09,4.85-9.64,5.1-11.63s-2.33-7.5-1.95-13.87l.08-3.55c5.84,0,1.33-.31,3.13,1.45l3.31,1,1.21,1.63c2.66,3-2.11,2.37,9.74,1.64,2.26,2.57,2,2.74,4.9,3.41l3.26-.74.57,9c.6,7.71,4.95,13.06,9.31,16.65C489.1,591.64,493.46,590.46,503.31,589.4ZM478,559.94c6-2.76,24.78-2.31,30.41.32,8.67,4.05,7.47,14,1.12,20C495.34,593.71,472.51,578.48,478,559.94Zm98.17-237.87c-3.47,12.6-32.34,11.65-58.41,24.84L477,369c-5.44,2.73-9.53,6-13.75,8.06-3,1.46-1.42-.05-3.88,2.56,3.05,2.19,10.84.54,13.69-1.91,3.93-.32,6.83-4.95,8.6-7.61,1.78,1.84,4,8.67,16.7,4.22a33,33,0,0,0,13.06-8.61c1.76-1.8,2.11,2.59,1.25-2.8-7.13.38-1.57.49-3.93-2,3.54-7,18-21.82,28.16-13-1.94,1.13-16,.72-18.16,10.15-1,4.52,1.37,7.49,5.76,7,6.93-.71-2.64.6,3.76-1.93a36.13,36.13,0,0,1,6-1.2c3-.59,7.21-1.78,9.63-3.8,3-2.51,2-2.75,3.21-4.26,2.34-2.82.86-1.18,4.6-2.74,8.6-3.6,4.83-13.67,16.08-13-8.89,10.44,7.84,18.86,14.22,9.93,2.44-6.19-.36-3.93-.67-7-.19-1.81,3.41-7.54,2-13.81-.65-2.86-2.47-3.89-3.41-6.62l.47-1.24h-4Zm-72,71.84c-3.6,0-6.15.42-8.43,2.54a5.69,5.69,0,0,0-2.21,3.8c-.74,5.4,0,2.33,1.33,3l2.62,2.76c-8.73,2.36-16,11.52-18.29,21.27,12.55-3.87,14-20.2,25.22-22.13,5.31-.58,1.62-.39,3,1-3.81,2.93-12.73,8.28-10.62,16.5,7.49,1.36,11.69-6.28,14.74-12l-1.22-2.21.36-5.23c4.48-8.21,12.46-4.7,22.83-16.13,2,.5,14.67,8.25,18.33-8,6.93-1.54,4.22-.31,8.27-2.78,6.32-4.51,10.27-10,6.41-18.74l-1.84-1.35c-7.11-3.2-8.09.28-8.1.29-5.77,1.12-9.3,3.87-10.83,8.56,3.32,6.65,6,3.15,6,9.86-9.83,3-21.11-1.81-27.61.39-2.6.88-2,.91-3.25,2.07,3.77,4.76,4.12,2.59,9.05,6.17l1.41,1.23c-7.53,3.25-17.58-6.89-24.53,2.47l2.81,3.65c-3.84,3.55,3.53-1.48-2.23,1.4ZM436.3,695.72a34.3,34.3,0,0,0,9.79,20.53c6.59,6.37,13.28,5.46,24.53,6,1.27,2-2.29,1.17,3.13,1.85,1.14-8.27.58-.78-1.9-3.45-14-2.72-11.31-10.13-11-13.9-8-2-20.73-15.87-22.33-19-2.27-1.86,3.26-2.9-3.54-1.18-.28,3.86-.69,4,.34,7.35.09.29.36.68.45.9A8.55,8.55,0,0,0,436.3,695.72ZM565.75,465.88c13.16-13,3.53-23.38-.23-22.53-4.27,3-2,1.69-3.17,4.53-2.74,6.91-11.57,12.94-2.23,16.92a17.13,17.13,0,0,1,1.86,3.41C567.64,467.1,564.23,467.43,565.75,465.88ZM499.47,626l-2.25,1.49c-1.48,3.49-1.26,3.15-5.38,5l-4.93.73-1.33,4.16c-1,5.06-2.67.92-4.07,6.55-1.05,4.24,3.64,3.57-5.09,5.88l.66-4.48-5.21-2c-4.24-.44-2.39-.31-5.81.74l1.38,2.9c1.92,15.32,20.7,2.32,25-2.33,6.29-6.85,11.75-13.38,15.72-24.29l-5.12-.41C499.76,623.11,502.05,621.06,499.47,626ZM486.62,447.77c-2.5-2.9,3.8-2.91-4.42-2.15,1.34,6.91-.12.89,2.24,3.59,1.25,4.7-2.94,2.34-1.52,10.79l7.26,1.61c.47,6.27,0,6.78,3.46,10.67l.59,6.22c3.09,2,2.75.94,3.3,4-3.12,3.16-6.15,6.56-6.42,13.31,10.4-.76,16.94-3.94,18.51-13.63-2.11-2.22-4.64-2.94-7.64-4.93,1.27-7.15,4.26,0,3.41-11.55-7,.58-6.6,4.5-12.55,1.86l-.51-4.2c.12-.57,1.52-3.48,1.9-4.3,2.25-4.83,2.4-5.69,2.34-11.37C492.26,448.41,490.56,450.25,486.62,447.77Zm-6.75,30.37a9.37,9.37,0,0,0-4.3-.8c-3.64.3-12.41,5.69-14.68,13.7-3.22,11.35-6,3.12-8.48,13.84-4.08-2-1.77-1.6-4.69-2.41-4.48,5.39-13.07,11.69-9.38,21.84,15.57,5.15,21-17.56,22.71-19.58,6.13-7.47,18.1,4.31,26.22-20.07l.86-5.53-6.19,1.49C481.34,476,482.2,480.26,479.86,478.14Zm34,265.55c.29-5.71,1.34-5.22-3.83-6.84,0,0-2.88.7-.74,4.79C510.46,743.85,511.2,743.31,513.87,743.69ZM463.2,626.41c2.77,4-.36,1,3.7,3.18l4.25-2.12c0-2.34-.54-1.73,1.91-1.47l1.17,3.08c7.14-.76,12-5.76,16.28-8.24l2-3.12c1.24,1.72,1.28-.7,1.13,2.38-.19,4,.43.3-1.86,2l-1.27,2.88,1,1.16,4.73-2,.35-1.18,2.07-9.4-15.63.18c-2.11,2.33,3.21,1.26-4.17,1.85-2.49.77-4-.31-6.45-1.25a5.52,5.52,0,0,1-3.08,1.47c-2.34.49-1.79,0-4.06-.16l-2.25-4.24c-1.89-5.71-7.21-5.42-9.49-3.15-3,3,.55,2.23.67,6.93,0,4.3,2.32,5.08,6.47,4.26a10.19,10.19,0,0,0,.28,3.51C462.13,625.71,462,624.87,463.2,626.41Zm-63-14.77c.82-1.28.22.91,1.13-2.73,1.21-4.82,5-32.65,4.27-34.74-.1-.28-2.56-3.91-2.89-4.36l-3.63-4.19c-2.12,3.13-2.76,5.78-1.68,11,1.24,5.95,3.72,4.6,2,10.62C396.57,597.42,396.17,602.89,400.21,611.64Zm166.53-124.4c3.29,3.81,9.55,10.79,10,15.91-1.76,2-5.25,4.1-6.41,6.11-3.52,6.1.94,5-1,10.19-2.05,5.57-10.58,9.29-.13,16.46l7-4.92c-1.13-3.82-4.23-6.09-.3-11.18,2.55-3.31,9.23-8.22,4.06-18.78-3-6.08-2.61,1.22-1.77-6,.71-6.1,2.76-9.63-1.6-14-6.48-6.56-13.1.18-20.94-.14-1.8-.07.86-3-2.11.55-2.64,3.18-1.9,10,2.63,11.24C561.25,494,562.14,489.18,566.74,487.24Zm29.58,399.59c-20.3,0-50.3-6.75-67.12-17.44-21.42-13.62-34.21-29.86-39.31-54.88-3.05-15-10-12.62-16.15-22.75-6.85-11.26-32-17.05-34.38-28.66-4.81-1-14.3,1-20.56-.19-9-1.75-9.36-10-.74-10.68,5.15-.41,13.42.07,20.31-.69,3.59-.39,8-4.34,8.24-7,.36-3.7-9.07-8-10.23-8.36-13.11-3.82-30.86-4.68-41.27-8.17-8.15-2.74-25.42-4.29-22.33-22.58,1.76-10.41,13.74-3.42,30.37.88,7.52,1.94,15.32,1.48,23.72,1.48-15.65-11.64-43.54-92-43.54-146.76,0-51.08-27.79-63.58-29.93-72.4-1.74-3.1-9.18-25-18.28-47-5.44-13.16-15.1-20.83-15.31-21.82-3.4-16.69-13.8-91.7,12.19-89.64,21.25-4.18,36.15-1.2,52.71,1.51,16.93,2.77,33.43,23.62,39.84,25.8,13,11.7,39.83,2.55,51.65-5.19,10.43-6.83,49.57-25,81.94-34.46,15.24-4.47,33.16-5.32,38.18-5.32s22.95.84,38.18,5.32c32.37,9.5,71.51,27.63,81.94,34.46,11.81,7.74,38.63,16.88,51.65,5.19,6.41-2.18,22.9-23,39.84-25.8,16.56-2.71,31.46-5.69,52.71-1.51,26-2.05,15.59,73,12.19,89.64-.2,1-9.87,8.66-15.31,21.82-9.11,22-16.55,43.9-18.28,47-2.14,8.82-29.93,21.33-29.93,72.4,0,54.76-27.88,135.12-43.54,146.76,8.4,0,16.21.46,23.72-1.48,16.63-4.3,28.61-11.29,30.37-.88,3.1,18.29-14.17,19.84-22.33,22.58-10.41,3.49-28.16,4.36-41.27,8.17-1.16.34-10.6,4.66-10.23,8.36.26,2.68,4.65,6.63,8.24,7,6.88.75,15.15.28,20.31.69,8.62.68,8.25,8.93-.74,10.68-6.26,1.22-15.74-.81-20.56.19-2.4,11.61-27.54,17.4-34.38,28.66-6.16,10.13-13.1,7.78-16.15,22.75-5.1,25-17.88,41.25-39.31,54.88C646.63,880.08,616.62,886.83,596.33,886.83Zm0-784.56c-127.27,0-216.53,7.27-338.22-33.9L165.48,190.2s80.13,105.11,47.87,227.91-88.43,362,6.77,455.29C292.32,944.1,417.35,1011,507.78,1059.12c43.84,23.33,78.07,54.62,88.55,65.09,10.47-10.47,44.7-41.76,88.54-65.09,90.44-48.11,215.47-115,287.65-185.72,95.21-93.26,39-332.49,6.77-455.29s47.87-227.91,47.87-227.91L934.55,68.37C812.86,109.55,723.59,102.27,596.33,102.27Z"/><path class="cls-2" d="M264.53,89,187.25,190.61c12.27,18.79,23.25,41.85,30.68,61.2,21,54.61,27.41,113.71,12.42,170.76C202.19,529.78,142.78,773,232.43,860.84c40.54,39.71,92.68,74,141.15,103.34,46.55,28.15,94.45,53.88,142.46,79.43a419.22,419.22,0,0,1,80.29,56.4,419.24,419.24,0,0,1,80.29-56.4c48-25.54,95.9-51.28,142.46-79.43,48.47-29.3,100.61-63.62,141.15-103.34,89.65-87.82,30.24-331.06,2.07-438.27-15-57.06-8.57-116.16,12.43-170.77,7.43-19.34,18.41-42.4,30.68-61.19L928.13,89c-50.44,16-100.34,25.24-153.52,28.94-59.12,4.11-119,1.94-178.28,1.94S477.17,122,418.05,117.91C364.87,114.21,315,105,264.53,89m690.25,647.4-11.12,10.8c3.82,5.74,4.21,4.28,10.71,1.78C957.24,741.6,958.88,741.15,954.77,736.37Zm-191,150.76a16.67,16.67,0,0,0-9.1,11.39q-2.23,9.51,4.8,23.09,6.89,13.28,16.36,17.5a16.13,16.13,0,0,0,14.62-.55,17.11,17.11,0,0,0,9.37-11.89q2.07-9.37-4.55-22.13-5.1-9.82-11.56-15a19.08,19.08,0,0,0-10.08-4.45A17.59,17.59,0,0,0,763.73,887.14Zm-103.89,91a45.74,45.74,0,0,0,10.47-.62c5.41-1,9.31-2.92,11.72-5.86a11.63,11.63,0,0,0,2.64-9.78,13.41,13.41,0,0,0-3.14-6.46,13.1,13.1,0,0,0-7.19-4,27.5,27.5,0,0,0-11.08,0c-1.85.33-3.43.64-4.74.93a24.07,24.07,0,0,0-3.12.89Zm-5.18-29a34.13,34.13,0,0,0,3.88-.2c1.44-.15,3-.38,4.71-.68,4.36-.78,7.56-1.82,9.58-3.16a10.64,10.64,0,0,0,4.27-5.23,12.29,12.29,0,0,0,.61-6.67,11.81,11.81,0,0,0-6-8.31q-5-3-13.35-1.5a31,31,0,0,0-7.9,2.42Zm-145.49,4.65L505,927l-16.38,21.64Zm-115-89.41a16.28,16.28,0,0,0-14.45-2.43q-9.45,2.79-17.78,15-8.54,12.48-7.8,22.84a16,16,0,0,0,7.32,12.52,17.9,17.9,0,0,0,15.68,2.5q8.5-2.4,16.75-14.45,8.93-13.06,8.18-23Q401.48,869.3,394.2,864.32Zm-157-127.84,11.12,10.8c-3.82,5.74-4.21,4.28-10.71,1.79C234.71,741.7,233.07,741.25,237.17,736.48Zm23.54,46.26,3.15-15.23L255,786.42l-7.78,5,1-31.69L234.34,788.4,238,757.74l-14.54,17.85L230,744.51l-13.68,14.15L221,730.87c-10.62,13.76-13.44,9.35-14.1,2.59a2.74,2.74,0,0,0,2,1.18c2.32.22,5-2.35,5.92-5.76.83-3.07-.08-5.8-2-6.41a52.59,52.59,0,0,1,9.24-7.69c7.06-23.3,14.84-43.35,24.08-57-8.93,21.84-12.79,35.33-16.11,55.46l9.41,13.61c2.33-4.09,10.78-14.65,18.43-18.89-4.3,5.57-9.8,20.16-11,28.95l10.5,7.49c7.43,5.51,14.91,11,22.32,16.5l7.49-19.68c-.64,8,1,15.61.38,23.6l.38.36Zm29.44,72.69,21.12-53.08L281.43,830.8c-2.74,2.62-4.17,4.54-4.29,5.79-.15,1.69.62,3.42,2.29,5.17l1.5,1.57-1.21,1.16L264.9,829l1.21-1.16,1.5,1.57q2.7,2.83,5.56,2.38c1.16-.18,3-1.48,5.49-3.86l29.18-27.82a14.14,14.14,0,0,0,3.66-4.74,5.08,5.08,0,0,0,0-3.22,12.63,12.63,0,0,0-3.14-4.58l1.23-1.17L321.62,799l-19.5,49.52,50.14-17.39,12.06,12.64L363.09,845l-1.48-1.55q-2.73-2.87-5.57-2.42c-1.17.19-3,1.47-5.51,3.86l-29.18,27.82c-2.74,2.62-4.15,4.56-4.25,5.83q-.22,2.53,2.28,5.16l1.48,1.55-1.21,1.16-18.09-19,1.21-1.16,1.51,1.58q2.73,2.87,5.56,2.38c1.16-.18,3-1.48,5.49-3.86l29.84-28.46-54,18.61Zm106.63,6.64q9.92,6.79,12,19.28t-5.59,23.76q-7.95,11.61-20.51,14.25a29.65,29.65,0,0,1-35.52-24q-2-12.37,6.08-24.24,8.3-12.13,21.8-14.14A29.55,29.55,0,0,1,396.78,862.07Zm75.72,42.71L411.7,941l23.06,10.41q5.31,2.4,9.19,1.35c2.6-.7,5.7-3.07,9.29-7.14l1.26.86-9.37,13.7-45.79-20.67.69-1.53,59.26-35.06-18-8.12q-4.48-2-6.93-2a7.61,7.61,0,0,0-4.35,1.44c-1.26.91-2.94,2.92-5,6l-1.57-.71L430.9,886ZM509.6,957.3l-23.19-5.71L480,960a15.17,15.17,0,0,0-2.79,4.85,3.13,3.13,0,0,0,.71,2.72c.7.91,2.46,1.82,5.31,2.75l-.4,1.63L464,967.34l.4-1.63c2.61.16,4.37,0,5.28-.54,1.85-1,4.22-3.5,7.11-7.38L510,913.68l1.54.38,8.58,55q1,6.64,2.65,8.92a9.67,9.67,0,0,0,5.23,3.43l-.4,1.63L504,977.18l.4-1.63c2.41.47,4.13.46,5.14,0a3.13,3.13,0,0,0,1.88-2.16c.32-1.3.22-3.48-.27-6.58ZM577.67,987l-21.85-52.79-1.57,41.21c-.14,3.79.17,6.16,1,7.14,1.07,1.31,2.83,2,5.25,2.11l2.17.08-.06,1.68-21.45-.81.06-1.68,2.17.08c2.61.1,4.48-.62,5.65-2.16.7-.94,1.11-3.14,1.25-6.59L551.78,935a14.14,14.14,0,0,0-.68-5.95,5.09,5.09,0,0,0-2.26-2.29,12.64,12.64,0,0,0-5.44-1.09l.06-1.69,17.46.66,20.53,49.1,23.84-47.42,17.46.66-.06,1.69-2.14-.08c-2.64-.1-4.53.62-5.68,2.15-.7,1-1.13,3.14-1.26,6.6l-1.53,40.29c-.14,3.79.2,6.16,1,7.14q1.6,2,5.24,2.11l2.14.08-.06,1.68-26.2-1,.06-1.68,2.19.08c2.64.1,4.52-.62,5.65-2.16.7-.94,1.11-3.14,1.25-6.59l1.57-41.21-25.75,51Zm100.9-39.66q6.57.2,10.23,2.61a13.59,13.59,0,0,1,6.14,9.3,15.28,15.28,0,0,1-1.33,9.18,16.58,16.58,0,0,1-6.78,7.44q-4.66,2.8-14.9,4.63l-28.67,5.12-.29-1.65,2.28-.41q3.81-.68,5-3.41c.5-1.16.46-3.44-.15-6.85l-7-39.25q-1-5.64-2.57-6.88a6.69,6.69,0,0,0-5.55-1l-2.28.41-.3-1.67,26.24-4.68a52.45,52.45,0,0,1,12-1q7,.41,11.28,3.87a14.25,14.25,0,0,1,5.22,8.8,13.3,13.3,0,0,1-1.31,8.67A16.64,16.64,0,0,1,678.57,947.31Zm64.72,11.84.54,1.59-25.06,8.45-.54-1.59,2.08-.7q3.62-1.22,4.54-3.89c.38-1.15,0-3.49-1.19-7l-12.73-37.78a20.57,20.57,0,0,0-2.53-5.67,4.15,4.15,0,0,0-2.39-1.26,8.61,8.61,0,0,0-4.32.31l-2.08.7-.54-1.6,25.06-8.45.54,1.6-2.12.71c-2.38.8-3.88,2.1-4.5,3.86-.41,1.17,0,3.5,1.15,7l12.73,37.78a20.58,20.58,0,0,0,2.53,5.67,4.12,4.12,0,0,0,2.44,1.24,8.37,8.37,0,0,0,4.28-.28Zm55-22q7.81,5,14.33,5.84a24.22,24.22,0,0,0,12.87-1.81l.67,1.3a49.88,49.88,0,0,1-13.08,3.93,57.93,57.93,0,0,1-15,.58,66.4,66.4,0,0,1-13.78-2.61,43.73,43.73,0,0,1-11.78-.19,30.6,30.6,0,0,1-12.65-5.67,35,35,0,0,1-9.74-12.09q-6.37-12.28-2.63-24.53a29.31,29.31,0,0,1,15.07-18.11q10.73-5.57,22.82-1.51T804,898.73a32.67,32.67,0,0,1,3.56,20.55A31.1,31.1,0,0,1,798.3,937.13Zm30.16-96.38-1.05-1.32,17.09-13.62,1.06,1.32-1.82,1.45a6.25,6.25,0,0,0-2.48,5.86c.09,1.14,1.19,3,3.33,5.73l15.59,19.57q5.79,7.27,7.54,12.4a18.1,18.1,0,0,1-.18,11.39q-1.95,6.23-9.2,12-7.91,6.3-14.18,6.81a18.92,18.92,0,0,1-11.67-2.74q-3.66-2.27-10.62-11l-15-18.86c-2.36-3-4.31-4.59-5.87-4.85s-3.24.32-5.06,1.77l-1.82,1.45L793,866.81l20.86-16.62,1.05,1.32L813.09,853c-2,1.59-2.93,3.35-2.78,5.29.08,1.32,1.21,3.34,3.36,6l16.76,21a59.81,59.81,0,0,0,5.64,6,17.73,17.73,0,0,0,6.38,4.17,12.93,12.93,0,0,0,6.56.23,17.09,17.09,0,0,0,7.3-3.65,22,22,0,0,0,6.82-8.81A14.12,14.12,0,0,0,864,874q-1.2-4.31-7.32-12l-15.57-19.55c-2.4-3-4.24-4.62-5.5-4.86a6.72,6.72,0,0,0-5.38,1.72Zm36.46-31.29,18.46,15.93,8.86-10.27q3.45-4,3.41-6.37c0-2.11-1.31-4.37-3.86-6.82l1.1-1.27,16.27,14L908,816a23.61,23.61,0,0,0-5.21-2.81,5.71,5.71,0,0,0-3.65.4,13.69,13.69,0,0,0-4.44,3.74l-8.86,10.27,15.41,13.29a19.47,19.47,0,0,0,4,3,2.94,2.94,0,0,0,1.9,0,7.93,7.93,0,0,0,2.65-2.29l6.84-7.93a27.82,27.82,0,0,0,4.41-6.23,11.21,11.21,0,0,0,.81-5.31,35.12,35.12,0,0,0-2.67-9.93l1.19-1.38,8.25,14.13-31.06,36-1.27-1.1,1.43-1.66a8.64,8.64,0,0,0,1.9-3.82,3.84,3.84,0,0,0-.35-2.93,21.94,21.94,0,0,0-4.18-4.28L864.8,820.9c-3-2.56-5-3.83-6.25-3.83q-2.44,0-4.94,2.94l-1.43,1.66-1.28-1.11,31.06-36,10.68,8.31-1.17,1.35a21.15,21.15,0,0,0-6.44-2.76,7.26,7.26,0,0,0-4.35.78,20.75,20.75,0,0,0-4.71,4.41Zm66.33-26.82-3.15-15.22,8.87,18.9,7.78,5-1-31.69,13.91,28.66-3.7-30.66,14.55,17.85-6.55-31.07,13.69,14.15-4.67-27.79c10.62,13.75,13.45,9.35,14.1,2.59a2.74,2.74,0,0,1-2,1.18c-2.32.23-5-2.35-5.92-5.76-.83-3.07.07-5.8,2-6.41a52.57,52.57,0,0,0-9.25-7.69c-7.07-23.3-14.85-43.34-24.1-57,8.94,21.84,12.8,35.33,16.13,55.46l-9.4,13.61c-2.33-4.09-10.79-14.65-18.43-18.88,4.3,5.57,9.81,20.16,11,28.94l-10.5,7.49c-7.43,5.51-14.9,11-22.31,16.51l-7.5-19.68c.64,8-1,15.61-.38,23.6l-.38.36Zm-645.93-519V248.84h3c2.5,0,4-.21,4.57-.65a3,3,0,0,0,.83-2.47,21.85,21.85,0,0,0-.11-2.34c-.08-.73-.18-1.46-.31-2.16L290.9,230H273.22l-2.06,10c-.34,1.53-.59,2.73-.7,3.59a15.76,15.76,0,0,0-.2,2.37,2.4,2.4,0,0,0,1.19,2.13,6.45,6.45,0,0,0,3.39.75h3.25v14.84H248.75V248.84h2.43a5,5,0,0,0,4.19-2.52c1.13-1.66,2.1-4.42,2.94-8.21l17.26-79h23.75l15.38,78.73c1.06,5.17,2,8.32,2.87,9.41a5,5,0,0,0,4.16,1.64h3.44v14.84ZM287.8,215l-6-31.68L276.24,215Zm74,7.75V208H398.1v14.76h-2.35c-2.25,0-3.72.44-4.39,1.3s-1,3.41-1,7.62v33.06H378.41l-2.15-6.39a37.76,37.76,0,0,1-9.74,6.6,24,24,0,0,1-9.71,2.16q-15.24,0-24-14.84T324,211.44q0-25,9.41-40.34t24.91-15.31a24.62,24.62,0,0,1,9.67,1.82,23.81,23.81,0,0,1,8,5.64l1.58-5.8H388v43.1H376.55c-1.08-10.06-2.77-17.34-5.07-21.89s-5.4-6.81-9.32-6.81q-6.68,0-9.69,9.25t-3,30q0,21,3,30.39c2,6.24,5.22,9.36,9.61,9.36q4.31,0,5.82-2.11c1-1.38,1.53-4.42,1.53-9.1v-8c0-4-.33-6.45-1-7.43s-2.15-1.48-4.52-1.48Zm71.5-20.53H439c4,0,6.9-1,8.53-3.09s2.46-5.48,2.46-10.29c0-5.28-.75-9-2.27-11.12s-4.18-3.2-8-3.2h-6.44Zm-21.55,37.61V182.74c0-4.05-.33-6.55-1-7.49s-2.1-1.4-4.44-1.4H403V159.06h45.2q12,0,17.9,6.47T472,185.11c0,5.87-1.21,10.84-3.64,14.84a18.5,18.5,0,0,1-10.28,8.24q6.71,1.29,9.07,6.5t2.37,23.86a33.57,33.57,0,0,0,.6,7.82c.39,1.43,1.06,2.16,2,2.16s1.55-.88,2-2.68a36.29,36.29,0,0,0,.65-8.06c0-.36,0-.94,0-1.77s0-1.4,0-1.82h6.64c0,.47,0,1.14,0,2.11s0,1.64,0,2.08q0,14.62-3.78,21.21t-12.19,6.6q-8.93,0-13-6t-4.09-18.9v-8.73c0-7-.59-11.46-1.75-13.36s-3.57-2.86-7.24-2.86h-5.87v23.45c0,4.05.33,6.58,1,7.54s2.1,1.46,4.37,1.46h3.72v14.84H403V248.84h3.3c2.3,0,3.77-.49,4.42-1.46S411.72,243.9,411.72,239.85Zm110.87-80.79v14.76h-3.2c-2.37,0-3.87.49-4.52,1.48s-1,3.46-1,7.43v57.11c0,4,.34,6.52,1,7.51s2.15,1.48,4.49,1.48h3.2v14.84h-39V248.84h3.25q3.45,0,4.45-1.48c.67-1,1-3.48,1-7.51V182.74c0-4-.33-6.45-1-7.43s-2.14-1.48-4.47-1.48h-3.25V159.06Zm5,80.47V214.71h28.63v24.82Zm37.33-14.37h9.46q2.35,12.09,7.77,18.92t12.79,6.81a9.07,9.07,0,0,0,7.11-3,11.42,11.42,0,0,0,2.68-7.88q0-7.53-11.62-12.63c-2.51-1.07-4.49-1.95-5.92-2.68A120.21,120.21,0,0,1,576.42,219a22.76,22.76,0,0,1-5.45-4.42,31.19,31.19,0,0,1-5.86-10.47A42,42,0,0,1,563.22,191q0-15.75,7.34-25.45a23.16,23.16,0,0,1,19.38-9.67,33.45,33.45,0,0,1,11.42,1.9,35.88,35.88,0,0,1,10.28,5.87l1.78-5.25h9.41v36.34h-11c-1.08-7.43-3.12-12.94-6.12-16.58a14.77,14.77,0,0,0-12-5.46,9.3,9.3,0,0,0-7.24,3.2,11.41,11.41,0,0,0-2.84,7.85q0,7,10.9,10.61c1.78.62,3.16,1.09,4.16,1.46q15.2,5.58,21.32,13.83t6.12,22.48q0,15.83-7.52,25.24t-20.29,9.41A30.73,30.73,0,0,1,587,264.7a40.55,40.55,0,0,1-10.7-6.34l-2.43,5.8h-9Zm94.72,3.72c0,8.08.78,13.72,2.37,17a8.23,8.23,0,0,0,8,4.89c4.47,0,7.67-1.61,9.61-4.81s2.92-8.45,2.92-15.75V182.74c0-4.11-.33-6.63-1-7.54s-2.09-1.38-4.39-1.38h-3.34V159.06h30.44v14.76h-3c-2.28,0-3.77.47-4.42,1.4s-1,3.3-1,7v50.5q0,16.73-7.6,25.47T666,267q-13.34,0-20.65-8.6T638,234.05V182.74c0-4-.34-6.45-1-7.43s-2.15-1.48-4.49-1.48h-3.34V159.06h39.58v14.76h-3.64c-2.35,0-3.87.49-4.52,1.48s-1,3.46-1,7.43Zm86.66-69.82v14.76h-3.74c-2.15,0-3.57.42-4.24,1.22s-1,3.12-1,6.94v66.54h4.4q6.12,0,8.61-1a8.14,8.14,0,0,0,4-3.61,26.62,26.62,0,0,0,2.82-8.68,117.94,117.94,0,0,0,1.29-15.15h10.18v43.62H706.75V248.84H710c2.3,0,3.77-.49,4.42-1.46s1-3.46,1-7.54V182.74c0-4.05-.33-6.58-1-7.51s-2.1-1.4-4.44-1.4h-3.3V159.06Zm126.49,0v42.86H862.11a119,119,0,0,0-1-12.61,36.19,36.19,0,0,0-2.12-8.27,11.65,11.65,0,0,0-4.34-5.59q-2.64-1.64-10.15-1.64h-8.42v28.72h2.53q4.45,0,6.23-3.43c1.19-2.29,1.79-6.34,1.79-12.19V186h8.22v47.75h-8.22c-.13-7.3-.72-12.06-1.79-14.24s-3.1-3.27-6.13-3.27h-2.63v23.6c0,4.31.34,6.89,1,7.75s2.12,1.25,4.32,1.25h3.64v14.84H806V248.84h3.3c2.17,0,3.59-.42,4.27-1.22s1-3.14,1-7V182.74c0-4.05-.33-6.58-1-7.51s-2.1-1.4-4.44-1.4H806V159.06Zm71.65,64.1q-.39,21-8.34,32.33t-22.5,11.31q-17,0-26.17-14.35t-9.15-41q0-25.23,9.48-40.37t25.35-15.15a27.09,27.09,0,0,1,9.92,1.79,28.5,28.5,0,0,1,8.78,5.51l1.68-5.77h10.65v43.1H932.36q-1.71-15.09-5.25-21.91t-9.51-6.81q-6.92,0-10.08,9.33t-3.15,30q0,21.33,3.25,30.7t10.57,9.36q6.63,0,10.9-7.56t4.78-20.46ZM691.67,383.46c-2-2.15-1.71-2.48-2-5.44,5.32,1.29.66-.23,2.65,2.39,11.09,4,25.64-1,29.24,9.77,1.06,4,.49.8-.69,2-3.57,0-5.69-.93-6.86,2.12-2.79.44-1-.91-2.95,1.63,1.78,6.17,11,9.54,15.77,4.72,4.06-5.26-3.76-16.45,8.54-15.36,1,5.69-2.64,6.27.87,11.22,6.78-.24,6.92-6.52,5.2-11.84-2.85-1.18-1.35,1.46-2.67-2.4h4.58c14.3-.49,32.7-18.53,42.47-24.93a89,89,0,0,1,22.65-10.63c13.47-4.17,16.77-1.92,28.86-3.27-2.75,1.23.83-2.86-.85,1.21-.09.23-.72,3-2.15,4.37-3.77,3.65-2.94-.17-8.27,4.1-26.69,2.76-38.94,17.75-52.49,27.74l3.67,1.8c1.29.41,2.61.49,4.08.82a21,21,0,0,1,7.07,2.8l-14.57,3.15.11.48h0a8.1,8.1,0,0,1,.5.87,4.46,4.46,0,0,0,.53.85l-.21.49-.39.45-13.48,4.62,2.14,2.42,2.31-.54c5.13.59,1.29-.22,2.26,1.78l-4.62,1.67c-7.38.79-10.52,5-14.56,8.49.74,7.09,3.13,6.29.83,15.73l3.21.81c2.53-2.94,2.6-2.05,6.94-2.17l-3.73,3.31c-3.67,1.93-5.86,4.65-9.25,5.55,2.79,2.9-.35.39,4,2.4,3,1.41,1.69,0,3.77,2.1-5.52,1.36-10.22,4.15-14.82,6.51,3.31,4.15,4.88,1.79,5.06,8.61-4.42,2.64-3.64.32-8.54,1.52-3.37.83-3.05,1.6-4.17,3.06l-1,1.53c-5.63-2.26-15.46-9.3-2.68-11.55l4.15-.72c-2.88-3.56-3.19-2.73-8.7-4.93.38-8.47,4.39-6.26,10.75-8.8,1.37-10.43-14.28-21.92-20.18-26.32-4.71-3.51-6.78-8.06-10.63-12.8C699.15,389.61,693.46,389.1,691.67,383.46ZM596.33,852.18l-1.59-3.84a15.42,15.42,0,0,1,1.59-.63,15.43,15.43,0,0,1,1.59.63Zm-75.47-12,14.08.83c-1.07,3.7-1.8,3.73-3.74,6,5.27,3.16,7,3.4,14.54,3.39l-.54,3-2,.43c-1.43,2.47-2.69-3.15-.89,2.93l1.76,1.1-1.48,2.46,3.17-.66,2.84-1.58,9.58-1.64,3,7.27c3.72-1-.32,0,4.32-2.3,1.29,4.09.89,3.63,3.59,6.11l3.65,2.75-.63-6.94.52-2.55,1.48,1.34c.15.15.51,1,.62.76s.38.53.55.8c1.55,3.92,1.17,4,3.57,3.26l2.32-1.73,5.29,6c1.86,2.12-2.52,1.35,2.79,1.9l1.35-8.56.77-4c2.74,1.06.55-2.89,2.35,2.14l-.11,5.22a4.62,4.62,0,0,0,.58,0l.63,0c.69.07,1.15.1,1.48.11s.8,0,1.48-.11l.63,0a4.62,4.62,0,0,0,.58,0l-.11-5.22c1.8-5-.38-1.08,2.35-2.14l.77,4,1.35,8.56c5.32-.55.93.22,2.79-1.9l5.29-6,2.32,1.73c2.4.7,2,.65,3.57-3.26.17-.28.44-1,.55-.8s.47-.61.62-.76l1.48-1.34.52,2.55-.63,6.94,3.65-2.75c2.7-2.49,2.29-2,3.59-6.11,4.63,2.33.6,1.34,4.32,2.3l3-7.27,9.58,1.64,2.84,1.58,3.16.66-1.47-2.46,1.76-1.1c1.8-6.08.54-.45-.89-2.93l-2-.43-.54-3c7.52,0,9.28-.23,14.54-3.39-1.94-2.3-2.67-2.33-3.74-6l14.09-.83c4.89-.49,9.41-.22,12.32-1.79l-5.63-1.34-9.08-1.38,5.1-3-5.22-5.36c2.47-1.75,6.5-1.72,10.7-2.9l-7.45-12.35c-2.59-2.85,2.77-1.09-2.51-2.42l-.28,7.55-2.38,2.91-3.48.71c.74,5.95.66,2.64,1.92,3.93l-1.11,6.73-5.94,1.31-1.67-2c-.9,6.66-.56.78.95,3.37l.06.88c-.12,2.53.6,2-1.74,2l-2.29-.55-2.59-2.85c.89,5.29.36,2.79,2,4.68-.58,6.28,0,1.83-1.81,3.69a19.9,19.9,0,0,0-14.2-5.73c3.35,3.5,4.81,6.41,4.86,13.43-3.45-1.34-4.15-2.35-7.24-3.8-1.81-1.76,2.72-1.54-3.11-1.41-.89,9.2,0,2.83-2,5.22l-.92-1.61-3,5.41a5.89,5.89,0,0,1-.53.75l-9.27-19.05-.83-3.65c-.52.61-1.31.72-1.08,2.67,0,.16.37.56.49.87,2.4,8.2,5.23,16.94-2.42,20.9l-4.73-7.71-2.2,6.39c-1.69-1.37-3.86-3-5.08-3.93l-2.69-6.35-1.32-.59-1.32.59-2.69,6.35c-1.22,1-3.39,2.56-5.08,3.93L585,848.3,580.3,856c-7.65-4-4.82-12.7-2.42-20.9.12-.31.47-.7.49-.87.23-2-.56-2.07-1.08-2.67l-.83,3.65-9.27,19.05a5.83,5.83,0,0,1-.53-.75l-3-5.41-.92,1.61c-2-2.39-1.14,4-2-5.22-5.83-.13-1.3-.35-3.11,1.41-3.09,1.45-3.79,2.46-7.24,3.8.05-7,1.52-9.93,4.86-13.43A19.9,19.9,0,0,0,541,842c-1.82-1.86-1.23,2.59-1.81-3.69,1.63-1.88,1.09.61,2-4.68l-2.59,2.85-2.29.55c-2.34,0-1.62.55-1.74-2l.06-.88c1.51-2.59,1.85,3.28.95-3.37l-1.67,2-5.94-1.31-1.11-6.73c1.26-1.29,1.18,2,1.92-3.93l-3.48-.71-2.37-2.91-.28-7.55c-5.28,1.33.08-.44-2.51,2.42l-7.45,12.35c4.2,1.18,8.23,1.15,10.7,2.9l-5.22,5.36,5.1,3-9.08,1.38-5.63,1.34C511.45,840,516,839.71,520.86,840.2ZM663.48,591.13c1,5.19-.35,2.15,2.76,5.55l3.51,2.55,6.27,1.65-.33,8.49c-2,2.38-1.62,3.15-1.59,7.19,0,.36.15,3.36.2,3.65.73,4.14.24,1.16,1.28,2.78-2.78,16.22,16.69,38.37,22.75,45.22,2.75,1.52.73-2.15,2.58,2.62-5.47-.08-2.93-.18-4.67-1.77-10.29-1-19.82-14.67-26.87-19.57,3.27-1.73-2.33,1.23,2.26-.91l2.34-1.22-4.91-5.43-6.2-13.47c0,4.07-.24,3.24.93,7,1.37,4.36,3.47,2.57.14,4-15.86-10.81-5-33.36-5.43-39.52-.78-11.08.36-7.35,1.3-15.54l2.59-3.93.23,6.62,3.52.36C664.58,593.31,666.1,588.28,663.48,591.13ZM863.82,367.74v14.34c-5.51,11.66.06,19.51-14.08,36.74-3.8,4.63-7,8.43-8.35,16.39-1.38,8.11-1,10.14-5.75,12.53-1.42.72-1.29.44-2.57,1.05-2.61,1.24-.64-.22-2.45,1.35,2.79,10,3.42,19-1.43,28.28-6.4,12.22-10.93,8.06-21.14,13.47-1.07,2.71-1.07,5.6-2.1,8.8s-2.59,5.24-3.7,7.51c-.2-.28-.37-1.12-.43-.94s-.33-.72-.41-.94l-1.7-5.52-4,.13-7.45-2,6.1-1.12,3.16-1.13c2.08-3.66.87-.9-.29-2l-3-1.39-3.34-.32-6.13-1c.27-.31.59-1,.76-.72l2.19-.61c.33,0,1,0,1.45,0,5,0,4.91.15,7-3.49-2.62-3.32-6.14-4.08-11.55-4.44L782,481.36l2.64-2,5-1.7-12.66-6.3c3.25-4.53.36-.44,5.41-3.67-3.44-1.9-4.6-1.92-6.67-5.2,6.76-5.24,17.06-.58,24.09,1.65L799,452.44l-2.41-2.64,3.27,1.8c4.58,1.9,1.7,2.37,7.29,3.82a46.85,46.85,0,0,0-3.37-17.52l-3.62-1.81c4.68-1.62,3.23-.19,4.62.78l4.7,1.75c-.26-7.3-5.69-11.81-8.61-15.74,11.15.29,11,5,17.37,8.06,28.68-12.11,0-39.78,17.64-53.14,10.52-8,11.27-.8,17.8-.78,6.62-11.53-6.29-21.69-15.73-24-3.05-3,3.67-1.33-3.43-2.69,1.88-.16,2.66-3,8.12-4.42C860.29,345.59,858.61,357.5,863.82,367.74ZM741.7,580.24c-2.88,0-1.35,1.55-.64,5.05-6,.39-10.83,3.38-12.79,7.86l-1,1.91,2.08,2.23c-3.71,2.35-4.07,2.09-8.2,3.55-6.51,2.3-3.86,2.28-5.29,5.65-6.51,1.27-7.32,1.24-14.48.5l-4-.32c-.49-.52-1.75-1-2.14-1.6l1-1.4,6-.25c4.8-1.66,5.37-1.47,9.29-4.7,2.69-2.22,5.88-4.29,8-6.59,3.14-1.58,1.51.61,3.23-3.61,1-5.43,3.58-3.86,8.82-6.76,5-2.77,4.42-5.36,9-8.25C741.87,575.7,742.45,576.8,741.7,580.24ZM637.15,401c7,1.41,10.52,4.06,9.8,12.49-3.67,1.55-9,1.89-12.2,3.42,1.39,8.91,9.36,8.6,9.64,17.29a12.33,12.33,0,0,1-10.49-.58c-7.23-3.7-1.8-3.79-9.48-3.09-8.46.77-15.82-5.13-12.06-13.22,4.71.3,5.84,2.71,8.49,5.44l1.1-.82,1-6.3c4.68-1.43,2.17,2.5,7.87-1.17.37-7.8-2.38-1.45-4.33-8.45-1.15-4.12,1.7,1.48-.57-2.89-1.16-2.24-7.58-7.44-9.87-8-4.91-.31-1.22.37-2.65-1.82.63-.74,1.76-1,2.64-1.47,6.67-4.06,10.35-6.69,20-3.37.52,5.65-.85,6.92-4,9.19ZM482.62,722.45c-3.19,1.6-2,8.15-2.17,11.92-.4,2.69.38,2-2.34,1.92-20.67-17.51-72.11-11-96.34-27.92l-1.94-3.14c-.54,5.76-.91,2.43,1.23,4.72,5.69,10.28,27.39,15.93,42.64,16.48,16.24.59,38.85.4,48.33,10.72l-9.89-.11-3.18-.38c-3.16,1.14-1.18,0-2.79,1.92,1.94,1.39-2.52,1.49,4.23,1.62l3.52-.44a64.87,64.87,0,0,1,6.92,1.07c3,.71,4.26,1.2,6.34,3-32.35,5.56-30.13,17.34-53.47,12.67-1.18-.39-1.33-.91-3.55-.7-3.29.31-1.22.19-3,1.23l6.53,1.53c11.05.34,18.05,2,28.42-2.68,9.49-4.29,12.07-7.39,24.65-7.73,3.6,2.36,2.25,2.23,3.72,6.46a4.73,4.73,0,0,1-.84.49c-.2.09-.61.35-.86.46-.87.37,4-.41-4.79,1.32-11.35,2.25-10.37,3.87-17,5.82-5,2.14-4.1,2.5-8,5,4.31.08,6.58-.67,9-3.76,8.17-.56,13.56-4.29,22.62-4.29-2.09,5-7.81,8.3-13.5,10.73l-4.75,1.38-7.78,2.11c2.89.32,6.66,1.31,8-1.28,1.54.14,5.31,1.6,5.31-1.33,7.47.44,12.76-4.37,17.5-6.94l7.56,7c-.7,1.55-.11,1.89-1.48,3.31l1.9.78c6,5.55,14.68,10.3,20.5,16.13-2.09,5-1.8,1.46-4.27,6.52l10.55,3.17c3.53,2.92,2.56,3,2.78,3.74,6.36,19.5,42.89,6.27,57,5.08l4.16-.39-.35,5.1-1.8,3.19,6.1-.58c.52,1.94-1.59,1.42,1.87,1.55,1.4.47,1.37.1,2.95,1.07,2,1-.9-.41,3.27-.4h.17c4.17,0,1.25,1.43,3.27.4,1.58-1,1.54-.6,2.95-1.07,3.46-.12,1.35.39,1.87-1.55l6.1.58-1.8-3.19-.35-5.1,4.16.39c14.13,1.18,50.67,14.42,57-5.08.22-.76-.75-.82,2.78-3.74L683,798.11c-2.47-5.07-2.18-1.53-4.27-6.52,5.82-5.83,14.46-10.57,20.5-16.13l1.9-.78c-1.37-1.42-.79-1.76-1.48-3.31l7.56-7c4.74,2.57,10,7.37,17.5,6.94,0,2.93,3.76,1.47,5.31,1.33,1.36,2.59,5.13,1.6,8,1.28l-7.78-2.11-4.75-1.38c-5.69-2.43-11.41-5.74-13.5-10.73,9.06,0,14.45,3.73,22.62,4.29,2.44,3.08,4.71,3.84,9,3.76-3.91-2.53-3-2.89-8-5-6.6-2-5.62-3.57-17-5.82-8.74-1.73-3.92-1-4.79-1.32-.25-.11-.66-.37-.86-.46a4.73,4.73,0,0,1-.84-.49c1.46-4.23.12-4.1,3.72-6.46,12.59.33,15.17,3.44,24.65,7.73,10.36,4.69,17.36,3,28.42,2.68l6.53-1.53c-1.75-1,.32-.92-3-1.23-2.23-.21-2.37.3-3.55.7-23.34,4.67-21.12-7.11-53.47-12.67,2.07-1.79,3.35-2.28,6.34-3a64.89,64.89,0,0,1,6.92-1.07l3.52.44c6.75-.12,2.29-.23,4.23-1.62-1.61-2,.36-.78-2.79-1.92l-3.18.38-9.9.11c9.48-10.32,32.09-10.13,48.33-10.72,15.25-.55,36.95-6.2,42.64-16.48,2.14-2.29,1.77,1,1.23-4.72l-1.94,3.14c-24.23,17-75.66,10.41-96.34,27.92-2.71.13-1.93.77-2.33-1.92-.18-3.78,1-10.33-2.17-11.92l-3-1.14-5.54-19.24L699.13,708c-5-.71-4.39-1.09-6.86-3.55-2.71,3.22-.43,3.88-4.16,2.11-2.66-2,3.42-1.35-3.29-1.78.09,7-.3,1.69,1.44,3.76l.33,9.38-1.39,3.63,2.36-1.76c5.3-2.39,4-5.48,9-3.84l1.28,1c2.77,2.28,2.13,1.56,1.64,5.51-.67,15.53-13.16,4.15-10.29,13.2,1.14,3.58,5.74,2.93,8.57,2,4-1.26,4.59-3.81,7-6.46,3.9,6.48-2.48,6.21-3.07,13.62-.57,7,1.65,5,2.34,5.64.29.27,1.37.8,1.63,1.05,2.06,2,.59-2.76,1.41,2s-3.34,2.07-10.43,10.25c-3.57,4.12-8.83,9.18-13.83,12.14-8.86,5.23-3.46-.22-9.23,1.91-2.43.9-3.5,3.39-8.16,5l-2.55-2.18-2.39,1.82-13.34,6.44c-1.86,1.51-1.79-2.05-1.44,2.38,5.77,1.11,5.19,1.86,10.12-.72,2,.8,1.16.14,3.34,1.43l2.73-1.73c5.35-1.33,3.71-3,8.07-4.15,2-.52,1,.36,4.74-1.07,3-1.15,1.76-1.23,5.31-2.24L672,792c-2.74,2.69-9,3.78-12.67,4.43l-2.76.81,2.92,2L662,806.5c-2.88.64-5.72.82-7.94,1.33-4.58,1-3.26.79-8.25,0,0-2,.51-1.46-1.38-1.64l-1.31,1.38c-1.44.85.3.36-2.72,1.18-.48-.17-2.09-.9-2.24-.94-2.89-.71-.09-.17-1.84-.21-2.34-.05,2,2.19-4-.16-3.71-.34,1.11-.27-3.68,1.13l-9.05-2.88c-1.09-1.9,1.72-1.52-2-1.54l-.79,4.64c-5.78-1.56-11.4-5-14.51-5.78-5.38.38-1.67-1.13-4.12,1.88a2,2,0,0,1-3.6,0c-2.45-3,1.26-1.5-4.12-1.88-3.11.76-8.73,4.22-14.51,5.78l-.79-4.64c-3.74,0-.93-.36-2,1.54L564,808.6c-4.79-1.4,0-1.47-3.68-1.13-6,2.35-1.65.11-4,.16-1.75,0,1.05-.5-1.84.21-.15,0-1.76.77-2.24.94-3-.82-1.28-.34-2.72-1.18l-1.31-1.38c-1.89.18-1.38-.33-1.38,1.64-5,.76-3.68,1-8.25,0-2.22-.51-5.06-.69-7.94-1.33l2.48-7.23,2.92-2-2.76-.81c-3.64-.65-9.93-1.74-12.67-4.43l-8-9.26c3.55,1,2.29,1.08,5.31,2.24,3.73,1.43,2.7.55,4.74,1.07,4.36,1.12,2.73,2.81,8.07,4.15l2.73,1.73c2.18-1.29,1.3-.63,3.34-1.43,4.94,2.59,4.35,1.83,10.12.72.35-4.43.42-.87-1.44-2.38l-13.34-6.44-2.39-1.82-2.55,2.18c-4.67-1.59-5.73-4.09-8.16-5-5.77-2.13-.37,3.32-9.23-1.91-5-3-10.26-8-13.83-12.14-7.09-8.19-11.27-5.47-10.43-10.25s-.65,0,1.41-2c.26-.25,1.34-.78,1.63-1.05.7-.65,2.91,1.4,2.34-5.64-.6-7.4-7-7.14-3.07-13.62,2.44,2.64,3.06,5.19,7,6.46,2.82.9,7.43,1.55,8.57-2,2.87-9-9.62,2.33-10.29-13.2-.48-3.95-1.13-3.23,1.64-5.51l1.28-1c5-1.63,3.71,1.45,9,3.84l2.36,1.76-1.39-3.63.33-9.38c1.74-2.07,1.35,3.22,1.44-3.76-6.71.43-.63-.26-3.29,1.78-3.72,1.77-1.45,1.11-4.16-2.11-2.47,2.46-1.87,2.84-6.86,3.55l-2.38-5.93-5.54,19.24Zm280.06-73.81c3.72-.59,1.91-.24,3.72-3.68s.77-3.19,3.5-6c1.47,4,1.32,8,.34,12.82l1,1.33,10.28-4.1c2.22-2.65-1.28-2.06,5-1.84-.11,5.14.7,1.34-1.83,4.12-3.58,6.59-5.6,16.15-13.26,16.53-1.37,1.35,1,1.28-4.41,2l.63-3.47c-.22-2.63.54-2.11-1.92-1.93-4,2.51-5.23,2.73-10.74,3.19l4.21-11.14c-15.84,4.77-11.05-.93-14.31-3.81-5.2-4.6-3.75,5.13-14.53,2.42.2-.28.56-1,.67-.76s.52-.58.66-.76c2.37-3,3.77-3.86,2.66-8.36s-4.69-5.55-8.66-6.71c12.24-10,0-15.3,27.89-18.85-1.1-7.39,4.65-10.86,11.58-11.76,5.78,19.13-30.64,9.87-26.36,32.53,4.11-.07.93-.34,5.57-2.07l1.82,7.91c10.94-2.28,6.86-10,12.81-14.71,5.21,5.38,4.7,8.51,2.61,16.56ZM692.3,563.48c-.23-6.22-.21-1.91,1.41-3.6,6.74.26,1.81,0,3.74,1.62l2.53.33c.13,7.67-3.87,9.56-8.45,5.59l-2.09-2.52Zm-27.21-86.14-1.21,2.49c-1.41,3.33-1.06.68-.75,5,1.18,5.85,1.34,7.75-2.56,10.68-.53,1.44-.7,3-1.09,4.06-1.42,3.87.19,1.09-1.94,3.41-2.4,8.49-6.19,3.41-5.83,16.58,4.64-.16,4.35.25,7-2.3.59,9-4.43,8.19-8.33,11.74-3.66,3.34.65,1.13-5.74,5.44-3.72,2.51-2.91.51-3.66,6.71l-.34,4.11c-5.65,0-.51.25-2.77-1.34-2.84-2.32-2.86-2.26-4.36-6.24-.21-.25-.6-.9-.65-.73s-.46-.62-.51-.83c-.64-2.68-.41-.72-.27-3.37,2.88-1.76,3.44-.64,6.17-2.88-.14-3-.72-4.85.83-7.33s3.49-2.14,5.65-3.35c.22-5.2,1.4-3.93.07-7.79-1.24-3.61-2.36-2.16-2.57-8.24,6.57-7.4,2.84,3.37,4.84-11.21l3.15,1c.21-.2.52-.8.62-.6l2.84-2.57,2.08-2.42c2.69-3.2.32,1.52,2.21-2.81-6.61-4.06-18.77-9.11-11.86-19,3.33.52,1.55,1,5.55,3.27,2.55,1.47,3.71,1.54,6.3,3.24l2.39-3a23.29,23.29,0,0,0,1.26-3.35c-2.73-4.18-5.45-7.66-6.54-14.26.22-.08.62-.26.71,0s.6,0,.72-.06c3.41-.6,2,.27,3.91-1.14-1.16-3.66,0-1-3.07-3.17-1.87-1.33-6.35-.62-3.63-13.61,6-.92,3.41,1.85,8.3,2.44,1.31.16,9.46-5,15.66,5.8,2.05,3.58,3.28,8.44-.09,11-6.85,3.29-7.94-3.67-14.15-3.24-2.29,10.9,4.79,2.42,14.08,15.72,5.89,8.44-.27,19.61-8.93,10.92C665.48,476.95,666.94,475.78,665.09,477.34ZM692,514.18l-3.39,3.76c2.25,3.23,2.57,3,7.55,4.42L695,515.28c-1.69-4.61-.25-3.27-3.79-5.92-1,1.56-1.11.15-.52,2.81S690.65,511.95,692,514.18Zm18.82-10.38-2.31-4.08c6,0,2.05,0,3.52,1.28,4.32,1.57,7.51,8.47,9,14.58.33,0,.82-.57,1-.26,2.12,4.14,1.38-.35,1.91-.41,7.14-.78,7.57,8.88-8.07,14.33-5.51.84-5.33-.87-5.11,4.72,3.25,3.15,2,3.17,1.65,4.11-6.17,2.39-10.45,1-15.5-1.24-3.55-1.6-1.68-2.34-7.49-1.12-4.85,1-5.37,2.86-6.17,4.65,4.85,0,.44,2-.67,2.5l-7.25,2.63-4.66-1-.33-11.63,3.36.56c3.44-2.27,6.77-4.7,7.68-10.31-3.1,2.6-3.4,3.91-7.08,5.53-.86-6.86-1-12.24-2.28-18.56-.75-3.62-11.58-22.45,6.8-18.56,4.68,1,1.24-.43,4,1.66l-.45,3.78c5.73-.16.64-.3,2.8,1.4.51,4.39,3.27,2.7,8.13,4.94l1.2-3.22c5.28,1,2.65-.05,4.89,2.43,5.78,1.17,8.08,4.61,8.27,11.69L705,516.32l-.34,4.35,4-.61C712.44,515.4,711.92,510.89,710.83,503.8Zm-22.12,21.78-2.09,2.34,2.33,1.85c1.68,1.7-2.73,1.23,3.9,2l-.36-3.77,1.87-4.07c-3.24.18-1-.18-4,.59-.26.07-.71.78-.89.5S689,525.38,688.71,525.58Zm96,20.54c-3.27-7.36-7.71-10.73-8.7-17.2-1-6.28,1.37-3.8-1.48-8.08-2.49-3.73-5.22-3.3-7.61-10.92-2.78-8.85-.87-9.9,2.94-14.29,3,1.52,16.08,14,14.84,23.45l-6.92,2.58c.75,9.8,13.3,13.06,9.89,25.8-.13,2.14.47,1.67-1.53,1.69ZM694.15,750.85c2.09-3.12-2.23-1.36,1.76-2.38.89,1.23,3-.59.08,3.71a21,21,0,0,1-2.57,7.07c-5.59.68-2.18-.14-6.7-.71-5.66,11.29-7.43,4.38-13.58,8.75-4.1,2.91.09,2.42-7.17,2.8-5.79.31-1.77.85-6.83,2.67-1.76,1.38,2.83,1.41-4.08,1.47,2-4.08,1.1-1.86,3-3.13,1.57-2.82,2.34-5.69,6.27-7.77,4.78-2.53,1,.74,6.57-2,.21-.1.5-.33.72-.43,4.89-2.26,3.55-.59,6.53-2.1,5.34-2.72,1.06-6.23,14.58-5.27Zm-195.64,0c-2.09-3.12,2.23-1.36-1.76-2.38-.89,1.23-3-.59-.08,3.71a21,21,0,0,0,2.57,7.07c5.59.68,2.18-.14,6.7-.71,5.66,11.29,7.43,4.38,13.58,8.75,4.1,2.91-.09,2.42,7.17,2.8,5.78.31,1.77.85,6.83,2.67,1.76,1.38-2.83,1.41,4.08,1.47-2-4.08-1.1-1.86-3-3.13-1.57-2.82-2.34-5.69-6.27-7.77-4.78-2.53-1,.74-6.57-2-.2-.1-.5-.33-.72-.43-4.89-2.26-3.55-.59-6.53-2.1-5.34-2.72-1.06-6.23-14.58-5.27Zm97.82,39.31,1.89-.4c-.25-5.05.29-.85-1.89-2.35-2.17,1.5-1.64-2.71-1.89,2.35Zm0-19.26a7,7,0,0,0,1.23.37c5.09-7.26,1.54-12.77,1.45-20.63-.1-9.44,6.53-8.26,9.77-2.36l9.56-7.73c3.31-1.19-2.54,1.38,2.14-.45,1.95-.76.06.16,2.07-1.17,7.3-4.81-3.66.78,2.09-1.63l3.31,1.44.81-3.68c5.06-1.05.94-.48,2.63.91,6.27-2.87-2.3-2.77,5.38-2.84,4.68,0,2.42,1.12,7.37,1.57l3.54-6,4.21-6.58c1.3-4.76,1.4-4.45,4.76-7.86a27,27,0,0,1-.88,4.67c-1.17,3.26-.66,2-2.67,4l-3.73,7.59c-1.53,11-2.75,16.42-13.43,17.94-12.14,1.73-14.36,4.94-20,11.74,2.13,1.38.67-.11,3.7,0,.13,0,.66.5.76.24s.51.23.74.38c-.5,6.9.5,1.62-2.32,2.67-5.56,10.75-17.7,20.21-13,36.52-6.13-.55-7-2-8-7.54l-1.58.38-1.58-.38c-.94,5.51-1.84,7-8,7.54,4.73-16.31-7.41-25.77-13-36.52-2.82-1.05-1.82,4.23-2.32-2.67.24-.15.64-.64.74-.38s.62-.24.76-.24c3-.07,1.56,1.42,3.7,0-5.62-6.81-7.84-10-20-11.74-10.68-1.52-11.9-6.92-13.43-17.94l-3.73-7.59c-2-2-1.49-.76-2.67-4a27,27,0,0,1-.88-4.67c3.36,3.41,3.46,3.09,4.76,7.86l4.21,6.58,3.54,6c4.95-.45,2.69-1.61,7.37-1.57,7.68.07-.89,0,5.38,2.84,1.69-1.39-2.43-2,2.63-.91l.81,3.68L568,737.3c5.75,2.41-5.22-3.18,2.09,1.63,2,1.33.12.4,2.07,1.17,4.68,1.84-1.17-.73,2.14.45l9.56,7.73c3.24-5.9,9.87-7.08,9.77,2.36-.09,7.86-3.64,13.37,1.45,20.63A7,7,0,0,0,596.33,770.9Zm73.92-23.33c-1.9,3.81-1.33,2.72-5.19,3.84.36-5.72.21-5.68,4-7.6l2.38-1.28c.32,3.46-.58,4.27-.6,4.19S670.44,747.28,670.25,747.57Zm115-145.91c.18,7.81,1.28,10.59-5,13.84-1.7-1.08-1.06-.45-3.05-1.36-1.5,2.88-4.35,8-6.43,2.19-2.88-1.79-1.57-12.73.74-16.85l2.64-4c.18-7.33,5-11.75,6.94-18.24l1.08-3c3.48-.27.33-.25,1.8,1.82,1.25,12-7.16,14.81-4.67,25.11l2.49-1c0-2.22-.49-1.55,2-1.47Zm9.18-70.36c.44,6.36,4.32,6.35,3,14.53l-1,2.39c-1.8-1.39-1.21-.52-2.25-3.2-1.48-6.35-5.95-8.13-3.07-15.3l1.14-3.32C793.71,528.18,793.86,528.89,794.41,531.29ZM771.36,556.5l-.73,24.13c-2.08-.8-11.89-13.67-13-15.67-3.69-6.94-4.66-14.9-4.39-23.29,4.66,1.79,11.2,9.84,13.18,14.17l3.24-2.27,3.5-3.85Zm-82,32.9c-4.87.08-5.35.7-9-2.28l-12.86-.26a37.36,37.36,0,0,1,10.23-25.79c7-7.34,16.93-8.52,29.39-7.28l2.39-.54c-2.06-1.18-.05-.35-1.15-2.1,3.78.46,8.29,2,12,2.15,10,.5-3.77-1.62,9.75-2.64,2.47,2.27,3.21,2.56,6.51.92-2.81-2.63-.77-.65-3.36-1.91-3.6-2.19-1.31-.18-2.49-2.32-3.13-1.22-1.41,1.23-3-2.81,5,1.15,2.28.51,4,2.21,4.88.75,6.28,2.36,12.52,2.46-1.87-5.6-.46-2-5.06-5.25a12.54,12.54,0,0,1-4.64-5.18c-3.55-6.86-2.43-11.68,2.35-15.41,4.29,3.36,8.35,11.23,10.64,17.28,4,10.52,3.24,14.13,3.58,25.49.45,15.08,7.47-4.5,3.87,24.36-1,8.08-3.51,15.82-8,20.94l-4.42,6.3c-.31-4.07-.9-.84.15-3.86l2.53-4.31c2.18-10,5.93-16.51,3.63-28.43-1-5.09-4.85-9.64-5.1-11.63s2.33-7.5,1.95-13.87l-.08-3.55c-5.84,0-1.33-.31-3.13,1.45l-3.31,1L738,556.18c-2.66,3,2.11,2.37-9.74,1.64-2.26,2.57-2,2.74-4.9,3.41l-3.26-.74-.57,9c-.6,7.71-4.94,13.06-9.31,16.65C703.56,591.64,699.2,590.46,689.34,589.4Zm25.32-29.46c-6-2.76-24.78-2.31-30.41.32-8.67,4.05-7.47,14-1.12,20C697.31,593.71,720.14,578.48,714.66,559.94ZM616.49,322.07c3.47,12.6,32.34,11.65,58.41,24.84L715.7,369c5.44,2.73,9.53,6,13.75,8.06,3,1.46,1.42-.05,3.88,2.56-3.05,2.19-10.84.54-13.69-1.91-3.93-.32-6.83-4.95-8.6-7.61-1.78,1.84-4,8.67-16.7,4.22a33,33,0,0,1-13.06-8.61c-1.76-1.8-2.11,2.59-1.25-2.8,7.13.38,1.57.49,3.93-2-3.54-7-18-21.82-28.16-13,1.94,1.13,16,.72,18.16,10.15,1,4.52-1.37,7.49-5.76,7-6.93-.71,2.64.6-3.76-1.93a36.14,36.14,0,0,0-6-1.2c-3-.59-7.21-1.78-9.63-3.8-3-2.51-2-2.75-3.21-4.26-2.34-2.82-.86-1.18-4.6-2.74-8.6-3.6-4.83-13.67-16.08-13,8.89,10.44-7.84,18.86-14.22,9.93-2.44-6.19.36-3.93.67-7,.19-1.81-3.41-7.54-2-13.81.65-2.86,2.47-3.89,3.41-6.62l-.47-1.24h4Zm72,71.84c3.6,0,6.15.42,8.43,2.54a5.69,5.69,0,0,1,2.21,3.8c.74,5.4,0,2.33-1.33,3l-2.62,2.76c8.73,2.36,16,11.52,18.29,21.27-12.55-3.87-14-20.2-25.22-22.13-5.31-.58-1.62-.39-3,1,3.81,2.93,12.73,8.28,10.62,16.5-7.49,1.36-11.69-6.28-14.74-12l1.22-2.21-.36-5.23c-4.48-8.21-12.46-4.7-22.83-16.13-2,.5-14.67,8.25-18.33-8-6.93-1.54-4.22-.31-8.27-2.78-6.32-4.51-10.27-10-6.41-18.74l1.84-1.35c7.11-3.2,8.09.28,8.1.29,5.77,1.12,9.3,3.87,10.83,8.56-3.32,6.65-6,3.15-6,9.86,9.82,3,21.11-1.81,27.61.39,2.6.88,2,.91,3.25,2.07-3.77,4.76-4.12,2.59-9.05,6.17l-1.41,1.23c7.53,3.25,17.58-6.89,24.53,2.47L683,390.93c3.84,3.55-3.53-1.48,2.24,1.4Zm67.85,301.81a34.3,34.3,0,0,1-9.79,20.53c-6.59,6.37-13.28,5.46-24.53,6-1.27,2,2.29,1.17-3.13,1.85-1.14-8.27-.58-.78,1.9-3.45,14-2.72,11.31-10.13,11-13.9,8-2,20.72-15.87,22.33-19,2.27-1.86-3.26-2.9,3.54-1.18.28,3.86.69,4-.34,7.35-.09.29-.36.68-.45.9A8.57,8.57,0,0,1,756.36,695.72ZM626.91,465.88c-13.16-13-3.53-23.38.23-22.53,4.27,3,2,1.69,3.17,4.53,2.74,6.91,11.57,12.94,2.23,16.92a17.15,17.15,0,0,0-1.86,3.41C625,467.1,628.42,467.43,626.91,465.88ZM693.19,626l2.25,1.49c1.48,3.49,1.26,3.15,5.38,5l4.93.73,1.33,4.16c1,5.06,2.67.92,4.07,6.55,1.05,4.24-3.64,3.57,5.09,5.88l-.66-4.48,5.21-2c4.24-.44,2.39-.31,5.81.74l-1.38,2.9c-1.92,15.32-20.7,2.32-25-2.33-6.29-6.85-11.75-13.38-15.72-24.29l5.12-.41C692.9,623.11,690.61,621.06,693.19,626ZM706,447.77c2.5-2.9-3.8-2.91,4.42-2.15-1.34,6.91.12.89-2.24,3.59-1.25,4.7,2.94,2.34,1.52,10.79l-7.26,1.61c-.47,6.27,0,6.78-3.46,10.67l-.59,6.22c-3.09,2-2.75.94-3.3,4,3.12,3.16,6.15,6.56,6.42,13.31-10.4-.76-16.94-3.94-18.51-13.63,2.11-2.22,4.64-2.94,7.64-4.93-1.27-7.15-4.26,0-3.41-11.55,7,.58,6.6,4.5,12.55,1.86l.51-4.2c-.12-.57-1.52-3.48-1.9-4.3-2.25-4.83-2.4-5.69-2.34-11.37C700.39,448.41,702.1,450.25,706,447.77Zm6.75,30.37a9.37,9.37,0,0,1,4.3-.8c3.64.3,12.41,5.69,14.68,13.7,3.22,11.35,6,3.12,8.48,13.84,4.08-2,1.78-1.6,4.69-2.41,4.48,5.39,13.07,11.69,9.38,21.84-15.57,5.15-21-17.56-22.71-19.58-6.13-7.47-18.11,4.31-26.22-20.07l-.86-5.53,6.19,1.49C711.32,476,710.46,480.26,712.79,478.14Zm-34,265.55c-.29-5.71-1.34-5.22,3.83-6.84,0,0,2.88.7.74,4.79C682.2,743.85,681.46,743.31,678.78,743.69Zm50.67-117.28c-2.77,4,.36,1-3.7,3.18l-4.25-2.12c0-2.34.54-1.73-1.91-1.47l-1.17,3.08c-7.14-.76-12-5.76-16.28-8.24l-2-3.12c-1.24,1.72-1.28-.7-1.13,2.38.19,4-.43.3,1.86,2l1.27,2.88-1,1.16-4.73-2L696,622.9l-2.07-9.4,15.63.18c2.11,2.33-3.21,1.26,4.17,1.85,2.49.77,4-.31,6.45-1.25a5.52,5.52,0,0,0,3.08,1.47c2.34.49,1.79,0,4.06-.16l2.25-4.24c1.89-5.71,7.21-5.42,9.49-3.15,3,3-.56,2.23-.67,6.93,0,4.3-2.32,5.08-6.47,4.26a10.19,10.19,0,0,1-.28,3.51C730.53,625.71,730.65,624.87,729.46,626.41Zm63-14.77c-.82-1.28-.22.91-1.13-2.73-1.21-4.82-5-32.65-4.27-34.74.1-.28,2.56-3.91,2.89-4.36l3.63-4.19c2.12,3.13,2.76,5.78,1.68,11-1.24,5.95-3.72,4.6-2,10.62C796.09,597.42,796.48,602.89,792.45,611.64ZM625.91,487.24c-3.29,3.81-9.55,10.79-10,15.91,1.76,2,5.25,4.1,6.41,6.11,3.52,6.1-.94,5,1,10.19,2.05,5.57,10.58,9.29.13,16.46l-7-4.92c1.13-3.82,4.23-6.09.3-11.18-2.55-3.31-9.23-8.22-4.06-18.78,3-6.08,2.61,1.22,1.77-6-.71-6.1-2.76-9.63,1.6-14,6.48-6.56,13.1.18,20.94-.14,1.8-.07-.86-3,2.11.55,2.64,3.18,1.9,10-2.63,11.24C631.41,494,630.52,489.18,625.91,487.24ZM501,383.46c2-2.15,1.72-2.48,2-5.44-5.32,1.29-.66-.23-2.65,2.39-11.09,4-25.64-1-29.24,9.77-1.06,4-.49.8.69,2,3.57,0,5.69-.93,6.86,2.12,2.79.44,1-.91,2.95,1.63-1.78,6.17-11,9.54-15.77,4.72-4.06-5.26,3.76-16.45-8.54-15.36-1,5.69,2.64,6.27-.87,11.22-6.78-.24-6.92-6.52-5.2-11.84,2.85-1.18,1.35,1.46,2.67-2.4h-4.58c-14.3-.49-32.7-18.53-42.47-24.93a89,89,0,0,0-22.65-10.63c-13.47-4.17-16.77-1.92-28.86-3.27,2.75,1.23-.83-2.86.85,1.21.1.23.72,3,2.15,4.37,3.78,3.65,2.94-.17,8.27,4.1,26.69,2.76,38.94,17.75,52.49,27.74l-3.67,1.8c-1.29.41-2.61.49-4.08.82a21,21,0,0,0-7.07,2.8l14.57,3.15-.11.48h0a8.15,8.15,0,0,0-.5.87,4.46,4.46,0,0,1-.53.85l.21.49.38.45,13.48,4.62-2.14,2.42-2.31-.54c-5.13.59-1.29-.22-2.26,1.78l4.62,1.67c7.38.79,10.52,5,14.56,8.49-.74,7.09-3.13,6.29-.83,15.73l-3.21.81c-2.53-2.94-2.6-2.05-6.94-2.17l3.73,3.31c3.67,1.93,5.86,4.65,9.25,5.55-2.79,2.9.35.39-4,2.4-3,1.41-1.69,0-3.77,2.1,5.52,1.36,10.22,4.15,14.82,6.51-3.31,4.15-4.88,1.79-5.06,8.61,4.42,2.64,3.64.32,8.54,1.52,3.37.83,3.05,1.6,4.17,3.06l1,1.53c5.63-2.26,15.46-9.3,2.68-11.55l-4.15-.72c2.88-3.56,3.19-2.73,8.7-4.93-.38-8.47-4.39-6.26-10.75-8.8-1.37-10.43,14.28-21.92,20.18-26.32,4.71-3.51,6.78-8.06,10.63-12.8C493.51,389.61,499.19,389.1,501,383.46Zm28.19,207.67c-1,5.19.35,2.15-2.76,5.55l-3.51,2.55-6.27,1.65.33,8.49c2,2.38,1.62,3.15,1.59,7.19,0,.36-.15,3.36-.2,3.65-.73,4.14-.24,1.16-1.28,2.78,2.78,16.22-16.69,38.37-22.75,45.22-2.75,1.52-.73-2.15-2.58,2.62,5.47-.08,2.93-.18,4.67-1.77,10.29-1,19.82-14.67,26.87-19.57-3.27-1.73,2.33,1.23-2.26-.91l-2.34-1.22,4.91-5.43,6.2-13.47c0,4.07.24,3.24-.93,7-1.37,4.36-3.47,2.57-.14,4,15.86-10.81,5-33.36,5.43-39.52.78-11.08-.36-7.35-1.3-15.54l-2.59-3.93-.23,6.62-3.52.36C528.08,593.31,526.56,588.28,529.18,591.13ZM328.84,367.74v14.34c5.51,11.66-.06,19.51,14.08,36.74,3.8,4.63,7,8.43,8.35,16.39,1.38,8.11,1,10.14,5.75,12.53,1.42.72,1.28.44,2.57,1.05,2.61,1.24.64-.22,2.45,1.35-2.79,10-3.42,19,1.43,28.28,6.4,12.22,10.93,8.06,21.14,13.47,1.07,2.71,1.07,5.6,2.1,8.8s2.59,5.24,3.7,7.51c.2-.28.37-1.12.43-.94s.33-.72.41-.94l1.7-5.52,4,.13,7.45-2-6.1-1.12-3.16-1.13c-2.08-3.66-.87-.9.29-2l3-1.39,3.34-.32,6.13-1c-.27-.31-.59-1-.76-.72l-2.19-.61c-.33,0-1,0-1.45,0-5,0-4.91.15-7-3.49,2.62-3.32,6.14-4.08,11.55-4.44l2.62-1.33-2.64-2-5-1.7,12.66-6.3c-3.25-4.53-.36-.44-5.41-3.67,3.44-1.9,4.6-1.92,6.67-5.2-6.76-5.24-17.06-.58-24.09,1.65l.76-11.68,2.41-2.64-3.27,1.8c-4.58,1.9-1.7,2.37-7.29,3.82a46.85,46.85,0,0,1,3.37-17.52l3.62-1.81c-4.68-1.62-3.23-.19-4.61.78l-4.7,1.75c.26-7.3,5.69-11.81,8.61-15.74-11.15.29-11,5-17.37,8.06-28.68-12.11,0-39.78-17.64-53.14-10.52-8-11.27-.8-17.8-.78-6.62-11.53,6.29-21.69,15.73-24,3.05-3-3.67-1.33,3.43-2.69-1.88-.16-2.66-3-8.12-4.42C332.37,345.59,334.05,357.5,328.84,367.74ZM451,580.24c2.88,0,1.35,1.55.64,5.05,6,.39,10.83,3.38,12.78,7.86l1,1.91-2.08,2.23c3.71,2.35,4.07,2.09,8.2,3.55,6.51,2.3,3.86,2.28,5.29,5.65,6.51,1.27,7.32,1.24,14.48.5l4-.32c.49-.52,1.75-1,2.14-1.6l-1-1.4-6-.25c-4.8-1.66-5.37-1.47-9.29-4.7-2.69-2.22-5.88-4.29-8-6.59-3.14-1.58-1.51.61-3.23-3.61-1-5.43-3.58-3.86-8.82-6.76-5-2.77-4.42-5.36-9-8.25C450.79,575.7,450.21,576.8,451,580.24ZM555.51,401c-7,1.41-10.52,4.06-9.8,12.49,3.67,1.55,9,1.89,12.2,3.42-1.39,8.91-9.36,8.6-9.64,17.29a12.33,12.33,0,0,0,10.49-.58c7.23-3.7,1.8-3.79,9.48-3.09,8.46.77,15.82-5.13,12.06-13.22-4.71.3-5.84,2.71-8.49,5.44l-1.1-.82-1-6.3c-4.68-1.43-2.17,2.5-7.87-1.17-.37-7.8,2.38-1.45,4.33-8.45,1.15-4.12-1.7,1.48.57-2.89,1.16-2.24,7.58-7.44,9.87-8,4.91-.31,1.23.37,2.65-1.82-.63-.74-1.76-1-2.64-1.47-6.67-4.06-10.35-6.69-20-3.37-.52,5.65.85,6.92,4,9.19ZM430,648.64c-3.72-.59-1.91-.24-3.72-3.68s-.77-3.19-3.5-6c-1.47,4-1.32,8-.34,12.82l-1,1.33L411.15,649c-2.22-2.65,1.28-2.06-5-1.84.11,5.14-.7,1.34,1.83,4.12,3.58,6.59,5.6,16.15,13.26,16.53,1.37,1.35-1,1.28,4.41,2L425,666.4c.22-2.63-.54-2.11,1.92-1.93,4,2.51,5.23,2.73,10.74,3.19l-4.21-11.14c15.84,4.77,11.05-.93,14.31-3.81,5.2-4.6,3.75,5.13,14.53,2.42-.2-.28-.57-1-.67-.76s-.52-.58-.66-.76c-2.37-3-3.77-3.86-2.66-8.36s4.69-5.55,8.66-6.71c-12.24-10,0-15.3-27.89-18.85,1.1-7.39-4.65-10.86-11.58-11.76-5.78,19.13,30.64,9.87,26.36,32.53-4.11-.07-.93-.34-5.57-2.07l-1.82,7.91c-10.94-2.28-6.86-10-12.81-14.71-5.21,5.38-4.7,8.51-2.61,16.56Zm70.38-85.16c.23-6.22.21-1.91-1.41-3.6-6.74.26-1.81,0-3.74,1.62l-2.53.33c-.13,7.67,3.87,9.56,8.45,5.59l2.09-2.52Zm27.21-86.14,1.21,2.49c1.41,3.33,1.06.68.75,5-1.18,5.85-1.34,7.75,2.56,10.68.53,1.44.7,3,1.09,4.06,1.42,3.87-.19,1.09,1.94,3.41,2.4,8.49,6.19,3.41,5.83,16.58-4.64-.16-4.35.25-7-2.3-.59,9,4.43,8.19,8.33,11.74,3.66,3.34-.65,1.13,5.74,5.44,3.72,2.51,2.91.51,3.66,6.71l.34,4.11c5.65,0,.51.25,2.77-1.34,2.84-2.32,2.86-2.26,4.36-6.24.21-.25.6-.9.65-.73s.46-.62.51-.83c.64-2.68.41-.72.27-3.37-2.88-1.76-3.44-.64-6.17-2.88.14-3,.72-4.85-.83-7.33s-3.49-2.14-5.65-3.35c-.22-5.2-1.4-3.93-.07-7.79,1.24-3.61,2.36-2.16,2.57-8.24-6.57-7.4-2.84,3.37-4.84-11.21l-3.15,1c-.2-.2-.52-.8-.62-.6L539,489.74l-2.08-2.42c-2.69-3.2-.32,1.52-2.21-2.81,6.61-4.06,18.77-9.11,11.86-19-3.33.52-1.55,1-5.55,3.27-2.55,1.47-3.71,1.54-6.3,3.24l-2.39-3a23.3,23.3,0,0,1-1.26-3.35c2.73-4.18,5.45-7.66,6.54-14.26-.22-.08-.62-.26-.71,0s-.6,0-.72-.06c-3.41-.6-2,.27-3.91-1.14,1.16-3.66,0-1,3.07-3.17,1.87-1.33,6.35-.62,3.63-13.61-6-.92-3.41,1.85-8.3,2.44-1.31.16-9.46-5-15.66,5.8-2.05,3.58-3.28,8.44.09,11,6.85,3.29,7.94-3.67,14.15-3.24,2.29,10.9-4.79,2.42-14.08,15.72-5.89,8.44.27,19.61,8.93,10.92C527.18,476.95,525.72,475.78,527.57,477.34Zm-26.93,36.83,3.39,3.76c-2.25,3.23-2.57,3-7.55,4.42l1.15-7.08c1.69-4.61.25-3.27,3.79-5.92,1,1.56,1.11.15.52,2.81S502,511.95,500.64,514.18ZM481.82,503.8l2.31-4.08c-6,0-2.05,0-3.52,1.28-4.32,1.57-7.51,8.47-9,14.58-.33,0-.82-.57-1-.26-2.12,4.14-1.38-.35-1.91-.41-7.14-.78-7.57,8.88,8.07,14.33,5.51.84,5.33-.87,5.11,4.72-3.25,3.15-2,3.17-1.65,4.11,6.17,2.39,10.45,1,15.5-1.24,3.55-1.6,1.68-2.34,7.49-1.12,4.85,1,5.37,2.86,6.17,4.65-4.85,0-.44,2,.67,2.5l7.25,2.63,4.66-1,.33-11.63-3.36.56c-3.44-2.27-6.77-4.7-7.68-10.31,3.1,2.6,3.4,3.91,7.08,5.53.86-6.86,1-12.24,2.28-18.56.75-3.62,11.58-22.45-6.8-18.56-4.68,1-1.24-.43-4,1.66l.45,3.78c-5.73-.16-.64-.3-2.8,1.4-.51,4.39-3.27,2.7-8.13,4.94l-1.2-3.22c-5.28,1-2.65-.05-4.89,2.43-5.78,1.17-8.08,4.61-8.27,11.69l2.74,2.07.34,4.35-4-.61C480.22,515.4,480.73,510.89,481.82,503.8Zm22.13,21.78,2.09,2.34-2.32,1.85c-1.68,1.7,2.73,1.23-3.9,2l.36-3.77-1.87-4.07c3.24.18,1-.18,4,.59.26.07.71.78.89.5S503.69,525.38,503.95,525.58Zm-96,20.54c3.27-7.36,7.71-10.73,8.7-17.2,1-6.28-1.37-3.8,1.48-8.08,2.49-3.73,5.22-3.3,7.61-10.92,2.78-8.85.87-9.9-2.94-14.29-3,1.52-16.08,14-14.84,23.45l6.92,2.58c-.75,9.8-13.3,13.06-9.89,25.8.13,2.14-.47,1.67,1.53,1.69ZM522.41,747.57c1.9,3.81,1.33,2.72,5.19,3.84-.36-5.72-.21-5.68-4-7.6l-2.38-1.28c-.32,3.46.58,4.27.6,4.19S522.21,747.28,522.41,747.57Zm-115-145.91c-.18,7.81-1.28,10.59,5,13.84,1.7-1.08,1.06-.45,3.05-1.36,1.5,2.88,4.35,8,6.43,2.19,2.88-1.79,1.58-12.73-.74-16.85l-2.64-4c-.18-7.33-5-11.75-6.94-18.24l-1.08-3c-3.48-.27-.33-.25-1.8,1.82-1.25,12,7.16,14.81,4.67,25.11l-2.49-1c0-2.22.49-1.55-2-1.47Zm-9.18-70.36c-.44,6.36-4.32,6.35-3,14.53l1,2.39c1.79-1.39,1.21-.52,2.25-3.2,1.48-6.35,5.95-8.13,3.07-15.3l-1.14-3.32C399,528.18,398.8,528.89,398.25,531.29ZM421.3,556.5l.73,24.13c2.08-.8,11.89-13.67,13-15.67,3.69-6.94,4.66-14.9,4.39-23.29-4.66,1.79-11.2,9.84-13.18,14.17L423,553.57l-3.5-3.85Zm82,32.9c4.87.08,5.35.7,9-2.28l12.86-.26A37.36,37.36,0,0,0,515,561.07c-7-7.34-16.93-8.52-29.39-7.28l-2.39-.54c2.06-1.18.05-.35,1.15-2.1-3.78.46-8.29,2-12,2.15-10,.5,3.77-1.62-9.75-2.64-2.47,2.27-3.21,2.56-6.51.92,2.81-2.63.77-.65,3.36-1.91,3.6-2.19,1.31-.18,2.49-2.32,3.13-1.22,1.41,1.23,3-2.81-5,1.15-2.28.51-4,2.21-4.88.75-6.28,2.36-12.52,2.46,1.87-5.6.46-2,5.06-5.25a12.54,12.54,0,0,0,4.64-5.18c3.55-6.86,2.43-11.68-2.35-15.41-4.29,3.36-8.35,11.23-10.64,17.28-4,10.52-3.24,14.13-3.58,25.49-.45,15.08-7.47-4.5-3.87,24.36,1,8.08,3.51,15.82,8,20.94l4.42,6.3c.31-4.07.9-.84-.15-3.86l-2.52-4.31c-2.18-10-5.93-16.51-3.63-28.43,1-5.09,4.85-9.64,5.1-11.63s-2.33-7.5-1.95-13.87l.08-3.55c5.84,0,1.33-.31,3.13,1.45l3.31,1,1.21,1.63c2.66,3-2.11,2.37,9.74,1.64,2.26,2.57,2,2.74,4.9,3.41l3.26-.74.57,9c.6,7.71,4.95,13.06,9.31,16.65C489.1,591.64,493.46,590.46,503.31,589.4ZM478,559.94c6-2.76,24.78-2.31,30.41.32,8.67,4.05,7.47,14,1.12,20C495.34,593.71,472.51,578.48,478,559.94Zm98.17-237.87c-3.47,12.6-32.34,11.65-58.41,24.84L477,369c-5.44,2.73-9.53,6-13.75,8.06-3,1.46-1.42-.05-3.88,2.56,3.05,2.19,10.84.54,13.69-1.91,3.93-.32,6.83-4.95,8.6-7.61,1.78,1.84,4,8.67,16.7,4.22a33,33,0,0,0,13.06-8.61c1.76-1.8,2.11,2.59,1.25-2.8-7.13.38-1.57.49-3.93-2,3.54-7,18-21.82,28.16-13-1.94,1.13-16,.72-18.16,10.15-1,4.52,1.37,7.49,5.76,7,6.93-.71-2.64.6,3.76-1.93a36.13,36.13,0,0,1,6-1.2c3-.59,7.21-1.78,9.63-3.8,3-2.51,2-2.75,3.21-4.26,2.34-2.82.86-1.18,4.6-2.74,8.6-3.6,4.83-13.67,16.08-13-8.89,10.44,7.84,18.86,14.22,9.93,2.44-6.19-.36-3.93-.67-7-.19-1.81,3.41-7.54,2-13.81-.65-2.86-2.47-3.89-3.41-6.62l.47-1.24h-4Zm-72,71.84c-3.6,0-6.15.42-8.43,2.54a5.69,5.69,0,0,0-2.21,3.8c-.74,5.4,0,2.33,1.33,3l2.62,2.76c-8.73,2.36-16,11.52-18.29,21.27,12.55-3.87,14-20.2,25.22-22.13,5.31-.58,1.62-.39,3,1-3.81,2.93-12.73,8.28-10.62,16.5,7.49,1.36,11.69-6.28,14.74-12l-1.22-2.21.36-5.23c4.48-8.21,12.46-4.7,22.83-16.13,2,.5,14.67,8.25,18.33-8,6.93-1.54,4.22-.31,8.27-2.78,6.32-4.51,10.27-10,6.41-18.74l-1.84-1.35c-7.11-3.2-8.09.28-8.1.29-5.77,1.12-9.3,3.87-10.83,8.56,3.32,6.65,6,3.15,6,9.86-9.83,3-21.11-1.81-27.61.39-2.6.88-2,.91-3.25,2.07,3.77,4.76,4.12,2.59,9.05,6.17l1.41,1.23c-7.53,3.25-17.58-6.89-24.53,2.47l2.81,3.65c-3.84,3.55,3.53-1.48-2.23,1.4ZM436.3,695.72a34.3,34.3,0,0,0,9.79,20.53c6.59,6.37,13.28,5.46,24.53,6,1.27,2-2.29,1.17,3.13,1.85,1.14-8.27.58-.78-1.9-3.45-14-2.72-11.31-10.13-11-13.9-8-2-20.73-15.87-22.33-19-2.27-1.86,3.26-2.9-3.54-1.18-.28,3.86-.69,4,.34,7.35.09.29.36.68.45.9A8.55,8.55,0,0,0,436.3,695.72ZM565.75,465.88c13.16-13,3.53-23.38-.23-22.53-4.27,3-2,1.69-3.17,4.53-2.74,6.91-11.57,12.94-2.23,16.92a17.13,17.13,0,0,1,1.86,3.41C567.64,467.1,564.23,467.43,565.75,465.88ZM499.47,626l-2.25,1.49c-1.48,3.49-1.26,3.15-5.38,5l-4.93.73-1.33,4.16c-1,5.06-2.67.92-4.07,6.55-1.05,4.24,3.64,3.57-5.09,5.88l.66-4.48-5.21-2c-4.24-.44-2.39-.31-5.81.74l1.38,2.9c1.92,15.32,20.7,2.32,25-2.33,6.29-6.85,11.75-13.38,15.72-24.29l-5.12-.41C499.76,623.11,502.05,621.06,499.47,626ZM486.62,447.77c-2.5-2.9,3.8-2.91-4.42-2.15,1.34,6.91-.12.89,2.24,3.59,1.25,4.7-2.94,2.34-1.52,10.79l7.26,1.61c.47,6.27,0,6.78,3.46,10.67l.59,6.22c3.09,2,2.75.94,3.3,4-3.12,3.16-6.15,6.56-6.42,13.31,10.4-.76,16.94-3.94,18.51-13.63-2.11-2.22-4.64-2.94-7.64-4.93,1.27-7.15,4.26,0,3.41-11.55-7,.58-6.6,4.5-12.55,1.86l-.51-4.2c.12-.57,1.52-3.48,1.9-4.3,2.25-4.83,2.4-5.69,2.34-11.37C492.26,448.41,490.56,450.25,486.62,447.77Zm-6.75,30.37a9.37,9.37,0,0,0-4.3-.8c-3.64.3-12.41,5.69-14.68,13.7-3.22,11.35-6,3.12-8.48,13.84-4.08-2-1.77-1.6-4.69-2.41-4.48,5.39-13.07,11.69-9.38,21.84,15.57,5.15,21-17.56,22.71-19.58,6.13-7.47,18.1,4.31,26.22-20.07l.86-5.53-6.19,1.49C481.34,476,482.2,480.26,479.86,478.14Zm34,265.55c.29-5.71,1.34-5.22-3.83-6.84,0,0-2.88.7-.74,4.79C510.46,743.85,511.2,743.31,513.87,743.69ZM463.2,626.41c2.77,4-.36,1,3.7,3.18l4.25-2.12c0-2.34-.54-1.73,1.91-1.47l1.17,3.08c7.14-.76,12-5.76,16.28-8.24l2-3.12c1.24,1.72,1.28-.7,1.13,2.38-.19,4,.43.3-1.86,2l-1.27,2.88,1,1.16,4.73-2,.35-1.18,2.07-9.4-15.63.18c-2.11,2.33,3.21,1.26-4.17,1.85-2.49.77-4-.31-6.45-1.25a5.52,5.52,0,0,1-3.08,1.47c-2.34.49-1.79,0-4.06-.16l-2.25-4.24c-1.89-5.71-7.21-5.42-9.49-3.15-3,3,.55,2.23.67,6.93,0,4.3,2.32,5.08,6.47,4.26a10.19,10.19,0,0,0,.28,3.51C462.13,625.71,462,624.87,463.2,626.41Zm-63-14.77c.82-1.28.22.91,1.13-2.73,1.21-4.82,5-32.65,4.27-34.74-.1-.28-2.56-3.91-2.89-4.36l-3.63-4.19c-2.12,3.13-2.76,5.78-1.68,11,1.24,5.95,3.72,4.6,2,10.62C396.57,597.42,396.17,602.89,400.21,611.64Zm166.53-124.4c3.29,3.81,9.55,10.79,10,15.91-1.76,2-5.25,4.1-6.41,6.11-3.52,6.1.94,5-1,10.19-2.05,5.57-10.58,9.29-.13,16.46l7-4.92c-1.13-3.82-4.23-6.09-.3-11.18,2.55-3.31,9.23-8.22,4.06-18.78-3-6.08-2.61,1.22-1.77-6,.71-6.1,2.76-9.63-1.6-14-6.48-6.56-13.1.18-20.94-.14-1.8-.07.86-3-2.11.55-2.64,3.18-1.9,10,2.63,11.24C561.25,494,562.14,489.18,566.74,487.24Zm29.58,399.59c-20.3,0-50.3-6.75-67.12-17.44-21.42-13.62-34.21-29.86-39.31-54.88-3.05-15-10-12.62-16.15-22.75-6.85-11.26-32-17.05-34.38-28.66-4.81-1-14.3,1-20.56-.19-9-1.75-9.36-10-.74-10.68,5.15-.41,13.42.07,20.31-.69,3.59-.39,8-4.34,8.24-7,.36-3.7-9.07-8-10.23-8.36-13.11-3.82-30.86-4.68-41.27-8.17-8.15-2.74-25.42-4.29-22.33-22.58,1.76-10.41,13.74-3.42,30.37.88,7.52,1.94,15.32,1.48,23.72,1.48-15.65-11.64-43.54-92-43.54-146.76,0-51.08-27.79-63.58-29.93-72.4-1.74-3.1-9.18-25-18.28-47-5.44-13.16-15.1-20.83-15.31-21.82-3.4-16.69-13.8-91.7,12.19-89.64,21.25-4.18,36.15-1.2,52.71,1.51,16.93,2.77,33.43,23.62,39.84,25.8,13,11.7,39.83,2.55,51.65-5.19,10.43-6.83,49.57-25,81.94-34.46,15.24-4.47,33.16-5.32,38.18-5.32s22.95.84,38.18,5.32c32.37,9.5,71.51,27.63,81.94,34.46,11.81,7.74,38.63,16.88,51.65,5.19,6.41-2.18,22.9-23,39.84-25.8,16.56-2.71,31.46-5.69,52.71-1.51,26-2.05,15.59,73,12.19,89.64-.2,1-9.87,8.66-15.31,21.82-9.11,22-16.55,43.9-18.28,47-2.14,8.82-29.93,21.33-29.93,72.4,0,54.76-27.88,135.12-43.54,146.76,8.4,0,16.21.46,23.72-1.48,16.63-4.3,28.61-11.29,30.37-.88,3.1,18.29-14.17,19.84-22.33,22.58-10.41,3.49-28.16,4.36-41.27,8.17-1.16.34-10.6,4.66-10.23,8.36.26,2.68,4.65,6.63,8.24,7,6.88.75,15.15.28,20.31.69,8.62.68,8.25,8.93-.74,10.68-6.26,1.22-15.74-.81-20.56.19-2.4,11.61-27.54,17.4-34.38,28.66-6.16,10.13-13.1,7.78-16.15,22.75-5.1,25-17.88,41.25-39.31,54.88C646.63,880.08,616.62,886.83,596.33,886.83Zm0-784.56c-127.27,0-216.53,7.27-338.22-33.9L165.48,190.2s80.13,105.11,47.87,227.91-88.43,362,6.77,455.29C292.32,944.1,417.35,1011,507.78,1059.12c43.84,23.33,78.07,54.62,88.55,65.09,10.47-10.47,44.7-41.76,88.54-65.09,90.44-48.11,215.47-115,287.65-185.72,95.21-93.26,39-332.49,6.77-455.29s47.87-227.91,47.87-227.91L934.55,68.37C812.86,109.55,723.59,102.27,596.33,102.27Zm0-18.13c58.39,0,117.59,2.2,175.83-1.85,54.35-3.78,104.91-13.6,156.57-31.09l12.6-4.26L1050.55,190.6,1042,201.78c-13.49,17.82-26.07,43.79-33.91,64.42-18,47.26-23.77,98.33-10.81,147.67,32.65,124.3,91.91,371.84-11.72,473.35-17.45,17.1-38.18,32.91-57.87,47.34-27,19.79-55,38.48-83.29,56.36-48.83,30.84-99.88,58.09-150.84,85.2-29,15.4-60.84,38.52-84.19,61.86l-13.07,13.07L583.25,1138c-23.34-23.34-55.23-46.46-84.18-61.86-51-27.11-102-54.36-150.84-85.2-28.31-17.88-56.29-36.57-83.29-56.36-19.69-14.43-40.41-30.24-57.87-47.34-103.63-101.51-44.38-349-11.72-473.35,13-49.34,7.15-100.41-10.81-147.67-7.84-20.63-20.42-46.61-33.91-64.42L142.1,190.6,251.33,46.95l12.6,4.26c51.66,17.48,102.22,27.3,156.57,31.09C478.74,86.34,537.94,84.15,596.33,84.15Z"/></g></svg>