<svg xmlns="http://www.w3.org/2000/svg" viewBox="0 0 1200 1200"><defs><style>.cls-1{fill:#fff;}.cls-1,.cls-2{fill-rule:evenodd;}.cls-2{fill:#39c;}</style></defs><title>BABALAZA FC - GAZELLES 2 team colour</title><g id="BABALAZA_FC_-_GAZELLES_2_team_colour" data-name="BABALAZA FC - GAZELLES 2 team colour"><path class="cls-1" d="M265.53,89,188.25,190.61c12.27,18.79,23.25,41.85,30.68,61.2,21,54.61,27.41,113.71,12.42,170.76C203.2,529.78,143.78,773,233.43,860.84c40.54,39.71,92.68,74,141.15,103.34,46.55,28.15,94.45,53.88,142.46,79.43a419.23,419.23,0,0,1,80.29,56.4,419.24,419.24,0,0,1,80.29-56.4c48-25.54,95.9-51.28,142.46-79.43,48.47-29.3,100.61-63.62,141.15-103.34,89.65-87.82,30.24-331.06,2.07-438.27-15-57.06-8.57-116.16,12.43-170.77,7.43-19.34,18.41-42.4,30.68-61.19L929.13,89c-50.44,16-100.34,25.24-153.52,28.94-59.12,4.11-119,1.94-178.28,1.94S478.18,122,419.05,117.91C365.87,114.21,316,105,265.53,89m690.25,647.4-11.12,10.8c3.82,5.74,4.21,4.28,10.71,1.78C958.25,741.6,959.88,741.15,955.78,736.37Zm-191,150.76a16.67,16.67,0,0,0-9.1,11.39q-2.23,9.51,4.8,23.09,6.89,13.28,16.36,17.5a16.13,16.13,0,0,0,14.62-.55,17.11,17.11,0,0,0,9.37-11.89q2.07-9.37-4.55-22.13-5.1-9.82-11.56-15a19.08,19.08,0,0,0-10.08-4.45A17.59,17.59,0,0,0,764.74,887.14Zm-103.89,91a45.74,45.74,0,0,0,10.47-.62c5.41-1,9.31-2.92,11.72-5.86a11.63,11.63,0,0,0,2.64-9.78,13.41,13.41,0,0,0-3.14-6.46,13.1,13.1,0,0,0-7.19-4,27.5,27.5,0,0,0-11.08,0c-1.85.33-3.43.64-4.74.93a24,24,0,0,0-3.12.89Zm-5.18-29a34.16,34.16,0,0,0,3.88-.2c1.44-.15,3-.38,4.71-.68,4.36-.78,7.56-1.82,9.58-3.16a10.64,10.64,0,0,0,4.27-5.23,12.29,12.29,0,0,0,.61-6.67,11.81,11.81,0,0,0-6-8.31q-5-3-13.35-1.5a31,31,0,0,0-7.9,2.42Zm-145.49,4.65L506,927l-16.38,21.64Zm-115-89.41a16.28,16.28,0,0,0-14.45-2.43q-9.45,2.79-17.78,15-8.54,12.48-7.8,22.84a16,16,0,0,0,7.32,12.52,17.9,17.9,0,0,0,15.68,2.5q8.5-2.4,16.75-14.45,8.93-13.06,8.18-23Q402.48,869.3,395.21,864.32Zm-157-127.84,11.12,10.8c-3.82,5.74-4.21,4.28-10.71,1.79C235.71,741.7,234.07,741.25,238.18,736.48Zm23.54,46.26,3.15-15.23L256,786.42l-7.78,5,1-31.69L235.35,788.4,239,757.74l-14.54,17.85L231,744.51l-13.68,14.15L222,730.87c-10.62,13.76-13.44,9.35-14.1,2.59a2.74,2.74,0,0,0,2,1.18c2.32.22,5-2.35,5.92-5.76.83-3.07-.08-5.8-2-6.41a52.58,52.58,0,0,1,9.24-7.69c7.06-23.3,14.84-43.35,24.08-57-8.93,21.84-12.79,35.33-16.11,55.46l9.41,13.61c2.33-4.09,10.78-14.65,18.43-18.89-4.3,5.57-9.8,20.16-11,28.95l10.5,7.49c7.43,5.51,14.91,11,22.32,16.5l7.49-19.68c-.64,8,1,15.61.38,23.6l.38.36Zm29.44,72.69,21.12-53.08L282.43,830.8c-2.74,2.62-4.17,4.54-4.29,5.79-.15,1.69.62,3.42,2.29,5.17l1.5,1.57-1.21,1.16L265.91,829l1.21-1.16,1.5,1.57q2.7,2.83,5.56,2.38c1.16-.18,3-1.48,5.49-3.86l29.18-27.82a14.14,14.14,0,0,0,3.66-4.74,5.09,5.09,0,0,0,0-3.22,12.63,12.63,0,0,0-3.14-4.58l1.23-1.17L322.62,799l-19.5,49.52,50.14-17.39,12.06,12.64L364.1,845l-1.48-1.55q-2.73-2.87-5.57-2.42c-1.17.19-3,1.47-5.51,3.86l-29.18,27.82c-2.74,2.62-4.15,4.56-4.25,5.83q-.22,2.53,2.28,5.16l1.48,1.55-1.21,1.16-18.09-19,1.21-1.16,1.51,1.58q2.73,2.87,5.56,2.38c1.16-.18,3-1.48,5.49-3.86l29.84-28.46-54,18.61Zm106.63,6.64q9.92,6.79,12,19.28t-5.59,23.76q-7.95,11.61-20.51,14.25a29.65,29.65,0,0,1-35.52-24q-2-12.37,6.08-24.24,8.3-12.13,21.8-14.14A29.55,29.55,0,0,1,397.78,862.07Zm75.72,42.71L412.7,941l23.06,10.41q5.31,2.4,9.19,1.35c2.6-.7,5.7-3.07,9.29-7.14l1.26.86-9.37,13.7-45.79-20.67.69-1.53,59.26-35.06-18-8.12q-4.48-2-6.93-2a7.61,7.61,0,0,0-4.35,1.44c-1.26.91-2.94,2.92-5,6l-1.57-.71L431.91,886Zm37.11,52.52-23.19-5.71L481,960a15.17,15.17,0,0,0-2.79,4.85,3.13,3.13,0,0,0,.71,2.72c.7.91,2.46,1.82,5.31,2.75l-.4,1.63L465,967.34l.4-1.63c2.61.16,4.37,0,5.28-.54,1.85-1,4.22-3.5,7.11-7.38L511,913.68l1.54.38,8.58,55q1,6.64,2.65,8.92a9.68,9.68,0,0,0,5.23,3.43l-.4,1.63L505,977.18l.4-1.63c2.41.47,4.13.46,5.14,0a3.13,3.13,0,0,0,1.88-2.16c.32-1.3.22-3.48-.27-6.58ZM578.67,987l-21.85-52.79-1.57,41.21c-.14,3.79.17,6.16,1,7.14,1.07,1.32,2.83,2,5.25,2.11l2.17.08-.06,1.68-21.45-.82.06-1.68,2.17.08c2.61.1,4.48-.62,5.65-2.16.7-.94,1.11-3.14,1.25-6.59L552.78,935a14.14,14.14,0,0,0-.68-5.95,5.09,5.09,0,0,0-2.26-2.29,12.63,12.63,0,0,0-5.44-1.09l.06-1.69,17.46.66,20.53,49.1,23.84-47.42,17.46.66-.06,1.69-2.14-.08c-2.64-.1-4.53.62-5.68,2.15-.7,1-1.13,3.14-1.26,6.6l-1.53,40.29c-.14,3.79.2,6.16,1,7.14q1.6,2,5.24,2.11l2.14.08-.06,1.68-26.2-1,.06-1.68,2.19.08c2.64.1,4.52-.62,5.65-2.16.7-.94,1.11-3.14,1.25-6.59l1.57-41.21-25.75,51Zm100.9-39.66q6.57.2,10.23,2.61a13.59,13.59,0,0,1,6.14,9.3,15.28,15.28,0,0,1-1.33,9.18,16.58,16.58,0,0,1-6.78,7.44q-4.66,2.8-14.9,4.63l-28.67,5.12-.29-1.65,2.28-.41q3.81-.68,5-3.41c.5-1.16.46-3.44-.15-6.85l-7-39.25q-1-5.64-2.57-6.88a6.69,6.69,0,0,0-5.55-1l-2.28.41-.3-1.67,26.24-4.68a52.45,52.45,0,0,1,12-1q7,.41,11.28,3.87a14.25,14.25,0,0,1,5.22,8.8,13.3,13.3,0,0,1-1.31,8.67A16.63,16.63,0,0,1,679.57,947.31Zm64.72,11.84.54,1.59-25.06,8.45-.54-1.59,2.08-.7q3.62-1.22,4.54-3.89c.38-1.15,0-3.49-1.19-7l-12.73-37.78a20.57,20.57,0,0,0-2.53-5.67,4.15,4.15,0,0,0-2.39-1.26,8.62,8.62,0,0,0-4.32.31l-2.07.7-.54-1.6,25.06-8.45.54,1.6-2.12.71c-2.38.8-3.88,2.1-4.5,3.86-.41,1.17,0,3.5,1.15,7l12.73,37.78a20.59,20.59,0,0,0,2.53,5.67,4.12,4.12,0,0,0,2.44,1.24,8.37,8.37,0,0,0,4.28-.28Zm55-22q7.81,5,14.33,5.84a24.22,24.22,0,0,0,12.87-1.81l.67,1.3a49.89,49.89,0,0,1-13.08,3.93,57.92,57.92,0,0,1-15,.58,66.41,66.41,0,0,1-13.78-2.61,43.73,43.73,0,0,1-11.78-.19,30.6,30.6,0,0,1-12.65-5.67,35,35,0,0,1-9.74-12.09q-6.37-12.28-2.63-24.53a29.31,29.31,0,0,1,15.07-18.11q10.73-5.57,22.82-1.51T805,898.73a32.66,32.66,0,0,1,3.56,20.55A31.1,31.1,0,0,1,799.3,937.13Zm30.16-96.38-1.05-1.32,17.09-13.62,1.06,1.32-1.82,1.45a6.25,6.25,0,0,0-2.48,5.86c.09,1.14,1.19,3,3.33,5.73l15.59,19.57q5.79,7.27,7.54,12.4a18.1,18.1,0,0,1-.18,11.39q-1.95,6.23-9.2,12-7.91,6.3-14.18,6.81a18.92,18.92,0,0,1-11.67-2.74q-3.66-2.27-10.62-11l-15-18.86c-2.36-3-4.31-4.59-5.87-4.85s-3.24.32-5.06,1.77l-1.82,1.45L794,866.81l20.86-16.62,1.05,1.32L814.09,853c-2,1.59-2.93,3.35-2.78,5.29.08,1.32,1.21,3.34,3.36,6l16.76,21a59.8,59.8,0,0,0,5.64,6,17.73,17.73,0,0,0,6.38,4.17,12.93,12.93,0,0,0,6.56.23,17.09,17.09,0,0,0,7.3-3.65,22,22,0,0,0,6.82-8.81A14.12,14.12,0,0,0,865,874q-1.2-4.31-7.32-12l-15.57-19.55c-2.4-3-4.24-4.62-5.5-4.86a6.72,6.72,0,0,0-5.38,1.72Zm36.46-31.29,18.46,15.93,8.86-10.27q3.45-4,3.41-6.37c0-2.11-1.31-4.37-3.86-6.82l1.1-1.27,16.27,14-1.1,1.27a23.62,23.62,0,0,0-5.21-2.81,5.71,5.71,0,0,0-3.65.4,13.69,13.69,0,0,0-4.44,3.74l-8.86,10.27,15.41,13.29a19.47,19.47,0,0,0,4,3,2.94,2.94,0,0,0,1.9,0,7.93,7.93,0,0,0,2.65-2.29l6.84-7.93a27.83,27.83,0,0,0,4.41-6.23,11.21,11.21,0,0,0,.81-5.31,35.12,35.12,0,0,0-2.67-9.93l1.19-1.38,8.25,14.13-31.06,36-1.27-1.1,1.43-1.66a8.65,8.65,0,0,0,1.9-3.82,3.84,3.84,0,0,0-.35-2.93,21.93,21.93,0,0,0-4.18-4.28L865.8,820.9c-3-2.56-5-3.83-6.25-3.83q-2.44,0-4.94,2.94l-1.43,1.66-1.28-1.11,31.06-36,10.68,8.31-1.17,1.35a21.16,21.16,0,0,0-6.44-2.76,7.26,7.26,0,0,0-4.35.78,20.74,20.74,0,0,0-4.71,4.41Zm66.33-26.82-3.15-15.22,8.87,18.9,7.78,5-1-31.69,13.91,28.66-3.7-30.66,14.55,17.85-6.55-31.07,13.69,14.15-4.67-27.79c10.62,13.75,13.45,9.35,14.1,2.59a2.74,2.74,0,0,1-2,1.18c-2.32.23-5-2.35-5.92-5.76-.83-3.07.07-5.8,2-6.41a52.58,52.58,0,0,0-9.24-7.69c-7.07-23.3-14.85-43.34-24.1-57,8.94,21.84,12.8,35.33,16.13,55.46l-9.4,13.61c-2.33-4.09-10.79-14.65-18.43-18.88,4.3,5.57,9.81,20.16,11,28.94l-10.5,7.49c-7.43,5.51-14.9,11-22.31,16.51l-7.5-19.68c.64,8-1,15.61-.38,23.6l-.38.36ZM280.12,199.39h3.44c3.33,0,5.75-1.15,7.29-3.48s2.28-6,2.28-10.93-.7-8.42-2.13-10.57-3.8-3.16-7.13-3.16h-3.75Zm0,47.18h4c3.81,0,6.55-1.33,8.21-4s2.47-7,2.47-13.1c0-5.57-.88-9.68-2.61-12.34s-4.47-4-8.16-4h-3.94Zm-29,14.78V246.41h3.16c2.08,0,3.44-.39,4.1-1.23s1-3.16,1-7V179.9c0-4.08-.31-6.62-.92-7.56s-2-1.41-4.25-1.41h-3.06V156.08H289q12.33,0,18.07,6t5.75,18.78a32,32,0,0,1-3.35,15.09,22.75,22.75,0,0,1-9.66,9.73A22.81,22.81,0,0,1,312,215.24q4,6.59,4,17.23,0,15.46-6.44,22.18T288,261.34Zm103.18-49-5.72-31.88-5.36,31.88Zm62.19-13h3.44c3.33,0,5.75-1.15,7.29-3.48s2.28-6,2.28-10.93-.7-8.42-2.13-10.57-3.8-3.16-7.13-3.16h-3.75Zm0,47.18h4c3.81,0,6.55-1.33,8.21-4s2.47-7,2.47-13.1c0-5.57-.88-9.68-2.61-12.34s-4.47-4-8.16-4h-3.94Zm-26.37-.16h.55c2.08,0,3.44-.39,4.1-1.23s1-3.16,1-7V179.9c0-4.08-.31-6.62-.92-7.56s-2-1.41-4.25-1.41h-3.06V156.08h37.86q12.33,0,18.07,6t5.75,18.78a32,32,0,0,1-3.35,15.09,22.75,22.75,0,0,1-9.66,9.73,22.82,22.82,0,0,1,12.21,9.57q4,6.59,4,17.23,0,15.46-6.44,22.18t-21.59,6.7H351.94V246.41h2.83c2.39,0,3.85-.21,4.38-.65a3.1,3.1,0,0,0,.8-2.48,23,23,0,0,0-.11-2.35c-.08-.73-.17-1.46-.3-2.17l-2.25-11.27H340.34l-2,10c-.33,1.54-.56,2.75-.67,3.61a16.6,16.6,0,0,0-.19,2.38,2.45,2.45,0,0,0,1.14,2.14,6,6,0,0,0,3.25.76H345v14.93H316.89V246.41h2.33a4.71,4.71,0,0,0,4-2.54c1.08-1.67,2-4.45,2.81-8.26l16.54-79.53h22.76L380.1,235.3c1,5.2,1.92,8.37,2.75,9.47a4.67,4.67,0,0,0,4,1.65h3.3Zm100.57-34L485,180.51l-5.36,31.88Zm71.09-56.31v14.85h-3.58c-2.06,0-3.42.42-4.06,1.23s-1,3.14-1,7v67h4.22q5.86,0,8.25-1a8,8,0,0,0,3.83-3.64,27.73,27.73,0,0,0,2.7-8.74,124.59,124.59,0,0,0,1.24-15.25h9.75v43.88H488.33V246.41h2.83c2.39,0,3.85-.21,4.38-.65a3.1,3.1,0,0,0,.8-2.48,23,23,0,0,0-.11-2.35c-.08-.73-.17-1.46-.3-2.17l-2.25-11.27H476.73l-2,10c-.33,1.54-.56,2.75-.67,3.61a16.6,16.6,0,0,0-.19,2.38,2.45,2.45,0,0,0,1.14,2.14,6,6,0,0,0,3.25.76h3.11v14.93H453.28V246.41h2.33a4.71,4.71,0,0,0,4-2.54c1.08-1.67,2-4.45,2.81-8.26L479,156.08h22.76l14.74,79.22c1,5.2,1.92,8.37,2.75,9.47a4.67,4.67,0,0,0,4,1.65h3.85c2.2,0,3.61-.5,4.24-1.46s.94-3.48.94-7.58V179.9c0-4.08-.31-6.62-.92-7.56s-2-1.41-4.25-1.41h-3.16V156.08Zm59.86,56.31-5.72-31.88-5.36,31.88Zm127.24,49V246.41h2.83c2.39,0,3.85-.21,4.38-.65a3.1,3.1,0,0,0,.8-2.48,23,23,0,0,0-.11-2.35c-.08-.73-.17-1.46-.3-2.17l-2.25-11.27H737.29l-2,10c-.33,1.54-.56,2.75-.67,3.61a16.61,16.61,0,0,0-.19,2.38,2.45,2.45,0,0,0,1.14,2.14,6,6,0,0,0,3.25.76H742v14.93H619.27V246.41h2.83c2.39,0,3.85-.21,4.38-.65a3.1,3.1,0,0,0,.8-2.48,23,23,0,0,0-.11-2.35c-.08-.73-.17-1.46-.3-2.17l-2.25-11.27H607.67l-2,10c-.33,1.54-.56,2.75-.67,3.61a16.61,16.61,0,0,0-.19,2.38,2.45,2.45,0,0,0,1.14,2.14,6,6,0,0,0,3.25.76h3.11v14.93H584.22V246.41h2.33a4.71,4.71,0,0,0,4-2.54c1.08-1.67,2-4.45,2.81-8.26l16.54-79.53h22.76l14.74,79.22c1,5.2,1.92,8.37,2.75,9.47a4.67,4.67,0,0,0,4,1.65h.78l34.89-75.48h-8.38c-5.07,0-8.6,1.7-10.57,5.13s-3.19,9.83-3.58,19.25H656.56V156.08h57.66v14.85l-34.72,75.48h8.57c5.44,0,9.19-1.94,11.29-5.78s3.33-11,3.69-21.5h11.18v27.28h2a4.71,4.71,0,0,0,4-2.54c1.08-1.67,2-4.45,2.81-8.26l16.54-79.53H762.3L777,235.3c1,5.2,1.92,8.37,2.75,9.47a4.67,4.67,0,0,0,4,1.65h3.3v14.93Zm2.38-49-5.72-31.88-5.36,31.88Zm127.58-56.31v43.13H868.64a125.72,125.72,0,0,0-1-12.68,37.84,37.84,0,0,0-2-8.32,11.65,11.65,0,0,0-4.16-5.62q-2.53-1.65-9.72-1.65h-8.07v28.9h2.42a6.1,6.1,0,0,0,6-3.45c1.14-2.3,1.72-6.38,1.72-12.27v-.92h7.88v48h-7.88c-.13-7.35-.69-12.13-1.72-14.33s-3-3.3-5.88-3.3h-2.52v23.75c0,4.34.33,6.93,1,7.79s2,1.26,4.14,1.26h3.49v14.93H814.88V246.41H818c2.08,0,3.44-.42,4.1-1.23s1-3.16,1-7V179.9c0-4.08-.31-6.62-.92-7.56s-2-1.41-4.25-1.41h-3.06V156.08Zm68.66,64.49q-.38,21.15-8,32.53T918,264.48q-16.3,0-25.08-14.44t-8.77-41.27q0-25.38,9.08-40.62t24.29-15.25a24.87,24.87,0,0,1,9.5,1.8,27.16,27.16,0,0,1,8.41,5.54l1.61-5.81h10.21v43.36H936q-1.64-15.18-5-22t-9.11-6.85q-6.64,0-9.66,9.39t-3,30.15q0,21.46,3.11,30.89t10.13,9.42q6.35,0,10.44-7.61t4.58-20.58ZM495.37,697.15s-8.34-32.42-46-47.81-35.26-28.5-49.27-42.67-36.28-28.82-42.84-43.4c-27.19-60.43,28.27-29.34,68.28-10.07,43.36,20.88,65.12,41.15,73.95,52.15s-1.61,6.27-20.94-5.36-48.94-27-60.48-30.18,30.22,29.59,37.2,45.58,13,34.48,24.41,50.61A115.81,115.81,0,0,1,495.37,697.15Zm-10.58-30.61c.36.25,1,.06,1.21.55,1.28,3.34-.69-.24,2.44,1.07,5.21,2.18-.48-.52,3.71,1.49,3.65,1.74,3.67,1.78,7,5,4.7,4.53,5.17,7.63,8.57,13.1,9.19-.39,10.93-4.86,18.1-7.7,7.4,2.5,6.1,5.55,16,6.19-1.18-2.78-17.36-21.67-23.11-24.71C499.44,651.29,495.8,655.81,484.79,666.54Zm53.78,148.33c2.91-5,1.32-8.49,5.46-14.41,3.48-5,6.93-5.31,6.59-11.54-.26-4.74-6.26-22-7.46-30.88-4.52-33.45,4.24-63.73.54-70.57-10.55,10.3-14.45,42-16.35,54.37-7.5-8.32-9.37-20.91-15.91-29.49C511.44,742,526.76,791,538.57,814.86ZM699.29,697.15s8.34-32.42,46-47.81,35.26-28.5,49.27-42.67,36.28-28.82,42.84-43.4c27.19-60.43-28.27-29.34-68.28-10.07-43.36,20.88-65.12,41.15-73.95,52.15s1.61,6.27,20.94-5.36,48.93-27,60.48-30.18-30.22,29.59-37.2,45.58S726.37,649.87,715,666A115.8,115.8,0,0,0,699.29,697.15Zm10.58-30.61c-.36.25-1,.06-1.21.55-1.28,3.34.69-.24-2.44,1.07-5.21,2.18.48-.52-3.71,1.49-3.65,1.74-3.67,1.78-7,5-4.7,4.53-5.17,7.63-8.57,13.1-9.19-.39-10.93-4.86-18.1-7.7-7.4,2.5-6.1,5.55-16,6.19,1.18-2.78,17.36-21.67,23.11-24.71C695.22,651.29,698.87,655.81,709.87,666.54ZM656.09,814.86c-2.91-5-1.32-8.49-5.46-14.41-3.48-5-6.93-5.31-6.59-11.54.26-4.74,6.26-22,7.46-30.88,4.52-33.45-4.24-63.73-.54-70.57,10.55,10.3,14.45,42,16.35,54.37,7.5-8.32,9.37-20.91,15.91-29.49C683.22,742,667.91,791,656.09,814.86Zm-58.76-40.22a67.62,67.62,0,0,1,38.73,11.63c-.17-7.94-3.21-17.26-3.35-27.37-.29-20.72,6.86-63.72,16.67-79,9.32-14.52,9.15-35.35,22.1-42.2,14.54-7.7,35.17-4.69,39,21.61,2.09-.67,4.22-1.44,6.37-2.29a326.33,326.33,0,0,0-25.73-43l1-21.11-.31-.08,10.94-11.58c4.32-5.8,7.55-8.41,12.19-14.72,20.24-27.57,38.25-59.51,42.88-96.5,8.44-67.37-31.88-124.53-66.35-153.56,18.68,50.4,30.41,69.31,24.4,132.27a79.22,79.22,0,0,1,30.28,1.72c-.49.17-1.26,0-1.49.48-.5,1.1-10.28-.06-12.07,0-17.38.62-22.12,9.75-23.46,24.79,16.06-2,23.47-1.33,34.24,6.56-32.4-11.75-40.5,5.52-48.64,18.79,16.21,1.88,22.11-.15,31.91,9.26-18.36-5.87-42.75-5.78-52.1,15.21,13.32,2.28,21.49,3.41,28,11.6-12.65-3.37-20.46-8.43-36.33-3.55-4.71,1.45-18.77,11.16-24.76,15,6,3.66,25,6,34.55,19.46,1.93,1.67,2.13-1.1,4,6.27l-5.9-6.43c-17.67-11.45-32.16-12.43-57.2-7.3l.38.36a132.61,132.61,0,0,0-20,.27,132.61,132.61,0,0,0-20-.27l.38-.36c-25-5.13-39.53-4.14-57.2,7.3l-5.9,6.43c1.91-7.37,2.11-4.6,4-6.27,9.52-13.47,28.54-15.81,34.55-19.46-6-3.8-20-13.51-24.76-15-15.87-4.89-23.68.17-36.33,3.55,6.48-8.19,14.65-9.32,28-11.6-9.35-21-33.74-21.08-52.1-15.21,9.81-9.42,15.71-7.38,31.91-9.26-8.14-13.27-16.24-30.54-48.64-18.79,10.77-7.89,18.18-8.55,34.24-6.56-1.34-15-6.09-24.16-23.46-24.79-1.79-.06-11.57,1.09-12.07,0-.23-.51-1-.31-1.49-.48a79.22,79.22,0,0,1,30.28-1.72c-6-63,5.72-81.87,24.4-132.27-34.47,29-74.78,86.18-66.35,153.56,4.63,37,22.64,68.94,42.88,96.5,4.64,6.32,7.87,8.93,12.19,14.72l10.94,11.58-.31.08,1,21.11a326.24,326.24,0,0,0-25.73,43c2.15.85,4.28,1.62,6.37,2.29,3.86-26.3,24.49-29.31,39-21.61,13,6.86,12.78,27.69,22.1,42.2,9.81,15.28,17,58.27,16.67,79-.14,10.11-3.18,19.43-3.35,27.37A67.62,67.62,0,0,1,597.33,774.65Zm-33,36c-7.19-5.87-3.81-11-.83-18.84-8.82,6.32-13.75,17.4-.85,25.41,9.29,5.77,17.31,6.4,27.21,13.58-24-2.56-26.35,8.64-40.75,8.69-9.15-7.91-5.15-11.24-10.32-19.68-7.91,27.34,1.23,26.52,9.51,35.49,7.57,8.2,12.61,32.66,49.07,32.67s41.49-24.47,49.07-32.67c8.28-9,17.42-8.15,9.51-35.49-5.17,8.44-1.16,11.77-10.32,19.68-14.4,0-16.72-11.24-40.75-8.69,9.9-7.18,17.91-7.81,27.21-13.58,12.9-8,8-19.08-.85-25.41,3,7.83,6.36,13-.83,18.84-3.92-.43.18,1.44-2.65-4.56-20.07,1.11-21.29,7-30.39,15.59-9.1-8.56-10.31-14.48-30.39-15.59C564.12,812.11,568.22,810.23,564.29,810.67Zm-75.38-364a69.75,69.75,0,0,0,2.23,9.29,55.77,55.77,0,0,1,3.34,9.84c4.38,15.25,13.89,30,25.08,41.11q2.63,2.62,5,5.47c6.49,7.77,15.16,14.32,23.55,19.92q3.46,2.31,7,4.55a167.32,167.32,0,0,0,25.18,13,143.75,143.75,0,0,1,17.08.39,143.75,143.75,0,0,1,17.08-.39,167.32,167.32,0,0,0,25.18-13q3.5-2.24,7-4.55c8.38-5.59,17.06-12.15,23.55-19.92q2.38-2.85,5-5.47c11.19-11.12,20.7-25.85,25.08-41.11a55.77,55.77,0,0,1,3.34-9.84,69.75,69.75,0,0,0,2.23-9.29c2.84-24.47,3.31-47-3.26-70.93-2.38-8.65-5.46-17.09-8.66-25.46-4-10.34-8.07-20.61-11.92-31l-13.48-36.37,29.67,25a213.54,213.54,0,0,1,51.8,65.61c15.28,30.19,22.33,63.3,18.11,97.05-4.25,34-19.06,64.2-38.16,92a329.68,329.68,0,0,1,34.86-19.33c5.95-2.86,11.86-5.8,17.8-8.68,11-5.32,22.66-10.9,34.32-14.56,9.89-3.11,23-5.77,31.58,1.8,12.56,11,3.93,32.57-1.64,44.93-7.91,17.57-31.24,32.57-44.9,46.39a69.7,69.7,0,0,0-8.27,10.75c-4.29,6.43-8.24,11.72-14.15,16.85-8.74,7.57-19.61,13-30.25,17.35-27.41,11.2-50.15,49.79-58,77.12v0c-2.78,9.74-5.35,19.54-8,29.31s-5.37,19.65-8.45,29.35a188.86,188.86,0,0,1-8.53,22.77l0,1.2c3.24,11.57,5.63,25-2.83,34.9-2.9,3.41-6.52,5.6-9.45,8.77-1.56,1.69-3.3,5-4.52,7a73.66,73.66,0,0,1-9.27,12.55c-11.46,12.11-26.45,16.46-42.8,16.46S566,893,554.53,880.93a73.66,73.66,0,0,1-9.27-12.55c-1.22-2-3-5.27-4.52-7-2.93-3.17-6.55-5.36-9.45-8.77-8.45-9.94-6.06-23.33-2.83-34.9l0-1.2a188.86,188.86,0,0,1-8.53-22.77c-3.08-9.7-5.79-19.53-8.45-29.35s-5.21-19.58-8-29.31v0c-7.81-27.33-30.56-65.92-58-77.12-10.64-4.35-21.51-9.78-30.25-17.35-5.91-5.12-9.86-10.42-14.15-16.85A69.7,69.7,0,0,0,392.81,613c-13.66-13.82-37-28.82-44.9-46.39-5.56-12.36-14.19-33.91-1.64-44.93,8.63-7.57,21.69-4.91,31.58-1.8,11.65,3.66,23.32,9.24,34.32,14.56,5.94,2.88,11.85,5.81,17.8,8.68a329.68,329.68,0,0,1,34.86,19.33c-19.1-27.76-33.9-58-38.16-92-4.23-33.76,2.83-66.87,18.11-97.05a213.54,213.54,0,0,1,51.8-65.61l29.67-25-13.48,36.37c-3.85,10.38-8,20.65-11.92,31-3.2,8.37-6.29,16.81-8.66,25.46C485.61,399.61,486.07,422.16,488.92,446.63ZM597.33,102.27c-127.27,0-216.53,7.27-338.22-33.9L166.49,190.2s80.13,105.11,47.87,227.91-88.43,362,6.77,455.29C293.32,944.1,418.35,1011,508.79,1059.12c43.84,23.33,78.07,54.62,88.55,65.09,10.47-10.47,44.7-41.76,88.54-65.09,90.44-48.11,215.47-115,287.65-185.72,95.21-93.26,39-332.49,6.77-455.29s47.87-227.91,47.87-227.91L935.55,68.37C813.86,109.55,724.6,102.27,597.33,102.27Z"/><path class="cls-2" d="M265.53,89,188.25,190.61c12.27,18.79,23.25,41.85,30.68,61.2,21,54.61,27.41,113.71,12.42,170.76C203.2,529.78,143.78,773,233.43,860.84c40.54,39.71,92.68,74,141.15,103.34,46.55,28.15,94.45,53.88,142.46,79.43a419.23,419.23,0,0,1,80.29,56.4,419.24,419.24,0,0,1,80.29-56.4c48-25.54,95.9-51.28,142.46-79.43,48.47-29.3,100.61-63.62,141.15-103.34,89.65-87.82,30.24-331.06,2.07-438.27-15-57.06-8.57-116.16,12.43-170.77,7.43-19.34,18.41-42.4,30.68-61.19L929.13,89c-50.44,16-100.34,25.24-153.52,28.94-59.12,4.11-119,1.94-178.28,1.94S478.18,122,419.05,117.91C365.87,114.21,316,105,265.53,89m690.25,647.4-11.12,10.8c3.82,5.74,4.21,4.28,10.71,1.78C958.25,741.6,959.88,741.15,955.78,736.37Zm-191,150.76a16.67,16.67,0,0,0-9.1,11.39q-2.23,9.51,4.8,23.09,6.89,13.28,16.36,17.5a16.13,16.13,0,0,0,14.62-.55,17.11,17.11,0,0,0,9.37-11.89q2.07-9.37-4.55-22.13-5.1-9.82-11.56-15a19.08,19.08,0,0,0-10.08-4.45A17.59,17.59,0,0,0,764.74,887.14Zm-103.89,91a45.74,45.74,0,0,0,10.47-.62c5.41-1,9.31-2.92,11.72-5.86a11.63,11.63,0,0,0,2.64-9.78,13.41,13.41,0,0,0-3.14-6.46,13.1,13.1,0,0,0-7.19-4,27.5,27.5,0,0,0-11.08,0c-1.85.33-3.43.64-4.74.93a24,24,0,0,0-3.12.89Zm-5.18-29a34.16,34.16,0,0,0,3.88-.2c1.44-.15,3-.38,4.71-.68,4.36-.78,7.56-1.82,9.58-3.16a10.64,10.64,0,0,0,4.27-5.23,12.29,12.29,0,0,0,.61-6.67,11.81,11.81,0,0,0-6-8.31q-5-3-13.35-1.5a31,31,0,0,0-7.9,2.42Zm-145.49,4.65L506,927l-16.38,21.64Zm-115-89.41a16.28,16.28,0,0,0-14.45-2.43q-9.45,2.79-17.78,15-8.54,12.48-7.8,22.84a16,16,0,0,0,7.32,12.52,17.9,17.9,0,0,0,15.68,2.5q8.5-2.4,16.75-14.45,8.93-13.06,8.18-23Q402.48,869.3,395.21,864.32Zm-157-127.84,11.12,10.8c-3.82,5.74-4.21,4.28-10.71,1.79C235.71,741.7,234.07,741.25,238.18,736.48Zm23.54,46.26,3.15-15.23L256,786.42l-7.78,5,1-31.69L235.35,788.4,239,757.74l-14.54,17.85L231,744.51l-13.68,14.15L222,730.87c-10.62,13.76-13.44,9.35-14.1,2.59a2.74,2.74,0,0,0,2,1.18c2.32.22,5-2.35,5.92-5.76.83-3.07-.08-5.8-2-6.41a52.58,52.58,0,0,1,9.24-7.69c7.06-23.3,14.84-43.35,24.08-57-8.93,21.84-12.79,35.33-16.11,55.46l9.41,13.61c2.33-4.09,10.78-14.65,18.43-18.89-4.3,5.57-9.8,20.16-11,28.95l10.5,7.49c7.43,5.51,14.91,11,22.32,16.5l7.49-19.68c-.64,8,1,15.61.38,23.6l.38.36Zm29.44,72.69,21.12-53.08L282.43,830.8c-2.74,2.62-4.17,4.54-4.29,5.79-.15,1.69.62,3.42,2.29,5.17l1.5,1.57-1.21,1.16L265.91,829l1.21-1.16,1.5,1.57q2.7,2.83,5.56,2.38c1.16-.18,3-1.48,5.49-3.86l29.18-27.82a14.14,14.14,0,0,0,3.66-4.74,5.09,5.09,0,0,0,0-3.22,12.63,12.63,0,0,0-3.14-4.58l1.23-1.17L322.62,799l-19.5,49.52,50.14-17.39,12.06,12.64L364.1,845l-1.48-1.55q-2.73-2.87-5.57-2.42c-1.17.19-3,1.47-5.51,3.86l-29.18,27.82c-2.74,2.62-4.15,4.56-4.25,5.83q-.22,2.53,2.28,5.16l1.48,1.55-1.21,1.16-18.09-19,1.21-1.16,1.51,1.58q2.73,2.87,5.56,2.38c1.16-.18,3-1.48,5.49-3.86l29.84-28.46-54,18.61Zm106.63,6.64q9.92,6.79,12,19.28t-5.59,23.76q-7.95,11.61-20.51,14.25a29.65,29.65,0,0,1-35.52-24q-2-12.37,6.08-24.24,8.3-12.13,21.8-14.14A29.55,29.55,0,0,1,397.78,862.07Zm75.72,42.71L412.7,941l23.06,10.41q5.31,2.4,9.19,1.35c2.6-.7,5.7-3.07,9.29-7.14l1.26.86-9.37,13.7-45.79-20.67.69-1.53,59.26-35.06-18-8.12q-4.48-2-6.93-2a7.61,7.61,0,0,0-4.35,1.44c-1.26.91-2.94,2.92-5,6l-1.57-.71L431.91,886Zm37.11,52.52-23.19-5.71L481,960a15.17,15.17,0,0,0-2.79,4.85,3.13,3.13,0,0,0,.71,2.72c.7.91,2.46,1.82,5.31,2.75l-.4,1.63L465,967.34l.4-1.63c2.61.16,4.37,0,5.28-.54,1.85-1,4.22-3.5,7.11-7.38L511,913.68l1.54.38,8.58,55q1,6.64,2.65,8.92a9.68,9.68,0,0,0,5.23,3.43l-.4,1.63L505,977.18l.4-1.63c2.41.47,4.13.46,5.14,0a3.13,3.13,0,0,0,1.88-2.16c.32-1.3.22-3.48-.27-6.58ZM578.67,987l-21.85-52.79-1.57,41.21c-.14,3.79.17,6.16,1,7.14,1.07,1.32,2.83,2,5.25,2.11l2.17.08-.06,1.68-21.45-.82.06-1.68,2.17.08c2.61.1,4.48-.62,5.65-2.16.7-.94,1.11-3.14,1.25-6.59L552.78,935a14.14,14.14,0,0,0-.68-5.95,5.09,5.09,0,0,0-2.26-2.29,12.63,12.63,0,0,0-5.44-1.09l.06-1.69,17.46.66,20.53,49.1,23.84-47.42,17.46.66-.06,1.69-2.14-.08c-2.64-.1-4.53.62-5.68,2.15-.7,1-1.13,3.14-1.26,6.6l-1.53,40.29c-.14,3.79.2,6.16,1,7.14q1.6,2,5.24,2.11l2.14.08-.06,1.68-26.2-1,.06-1.68,2.19.08c2.64.1,4.52-.62,5.65-2.16.7-.94,1.11-3.14,1.25-6.59l1.57-41.21-25.75,51Zm100.9-39.66q6.57.2,10.23,2.61a13.59,13.59,0,0,1,6.14,9.3,15.28,15.28,0,0,1-1.33,9.18,16.58,16.58,0,0,1-6.78,7.44q-4.66,2.8-14.9,4.63l-28.67,5.12-.29-1.65,2.28-.41q3.81-.68,5-3.41c.5-1.16.46-3.44-.15-6.85l-7-39.25q-1-5.64-2.57-6.88a6.69,6.69,0,0,0-5.55-1l-2.28.41-.3-1.67,26.24-4.68a52.45,52.45,0,0,1,12-1q7,.41,11.28,3.87a14.25,14.25,0,0,1,5.22,8.8,13.3,13.3,0,0,1-1.31,8.67A16.63,16.63,0,0,1,679.57,947.31Zm64.72,11.84.54,1.59-25.06,8.45-.54-1.59,2.08-.7q3.62-1.22,4.54-3.89c.38-1.15,0-3.49-1.19-7l-12.73-37.78a20.57,20.57,0,0,0-2.53-5.67,4.15,4.15,0,0,0-2.39-1.26,8.62,8.62,0,0,0-4.32.31l-2.07.7-.54-1.6,25.06-8.45.54,1.6-2.12.71c-2.38.8-3.88,2.1-4.5,3.86-.41,1.17,0,3.5,1.15,7l12.73,37.78a20.59,20.59,0,0,0,2.53,5.67,4.12,4.12,0,0,0,2.44,1.24,8.37,8.37,0,0,0,4.28-.28Zm55-22q7.81,5,14.33,5.84a24.22,24.22,0,0,0,12.87-1.81l.67,1.3a49.89,49.89,0,0,1-13.08,3.93,57.92,57.92,0,0,1-15,.58,66.41,66.41,0,0,1-13.78-2.61,43.73,43.73,0,0,1-11.78-.19,30.6,30.6,0,0,1-12.65-5.67,35,35,0,0,1-9.74-12.09q-6.37-12.28-2.63-24.53a29.31,29.31,0,0,1,15.07-18.11q10.73-5.57,22.82-1.51T805,898.73a32.66,32.66,0,0,1,3.56,20.55A31.1,31.1,0,0,1,799.3,937.13Zm30.16-96.38-1.05-1.32,17.09-13.62,1.06,1.32-1.82,1.45a6.25,6.25,0,0,0-2.48,5.86c.09,1.14,1.19,3,3.33,5.73l15.59,19.57q5.79,7.27,7.54,12.4a18.1,18.1,0,0,1-.18,11.39q-1.95,6.23-9.2,12-7.91,6.3-14.18,6.81a18.92,18.92,0,0,1-11.67-2.74q-3.66-2.27-10.62-11l-15-18.86c-2.36-3-4.31-4.59-5.87-4.85s-3.24.32-5.06,1.77l-1.82,1.45L794,866.81l20.86-16.62,1.05,1.32L814.09,853c-2,1.59-2.93,3.35-2.78,5.29.08,1.32,1.21,3.34,3.36,6l16.76,21a59.8,59.8,0,0,0,5.64,6,17.73,17.73,0,0,0,6.38,4.17,12.93,12.93,0,0,0,6.56.23,17.09,17.09,0,0,0,7.3-3.65,22,22,0,0,0,6.82-8.81A14.12,14.12,0,0,0,865,874q-1.2-4.31-7.32-12l-15.57-19.55c-2.4-3-4.24-4.62-5.5-4.86a6.72,6.72,0,0,0-5.38,1.72Zm36.46-31.29,18.46,15.93,8.86-10.27q3.45-4,3.41-6.37c0-2.11-1.31-4.37-3.86-6.82l1.1-1.27,16.27,14-1.1,1.27a23.62,23.62,0,0,0-5.21-2.81,5.71,5.71,0,0,0-3.65.4,13.69,13.69,0,0,0-4.44,3.74l-8.86,10.27,15.41,13.29a19.47,19.47,0,0,0,4,3,2.94,2.94,0,0,0,1.9,0,7.93,7.93,0,0,0,2.65-2.29l6.84-7.93a27.83,27.83,0,0,0,4.41-6.23,11.21,11.21,0,0,0,.81-5.31,35.12,35.12,0,0,0-2.67-9.93l1.19-1.38,8.25,14.13-31.06,36-1.27-1.1,1.43-1.66a8.65,8.65,0,0,0,1.9-3.82,3.84,3.84,0,0,0-.35-2.93,21.93,21.93,0,0,0-4.18-4.28L865.8,820.9c-3-2.56-5-3.83-6.25-3.83q-2.44,0-4.94,2.94l-1.43,1.66-1.28-1.11,31.06-36,10.68,8.31-1.17,1.35a21.16,21.16,0,0,0-6.44-2.76,7.26,7.26,0,0,0-4.35.78,20.74,20.74,0,0,0-4.71,4.41Zm66.33-26.82-3.15-15.22,8.87,18.9,7.78,5-1-31.69,13.91,28.66-3.7-30.66,14.55,17.85-6.55-31.07,13.69,14.15-4.67-27.79c10.62,13.75,13.45,9.35,14.1,2.59a2.74,2.74,0,0,1-2,1.18c-2.32.23-5-2.35-5.92-5.76-.83-3.07.07-5.8,2-6.41a52.58,52.58,0,0,0-9.24-7.69c-7.07-23.3-14.85-43.34-24.1-57,8.94,21.84,12.8,35.33,16.13,55.46l-9.4,13.61c-2.33-4.09-10.79-14.65-18.43-18.88,4.3,5.57,9.81,20.16,11,28.94l-10.5,7.49c-7.43,5.51-14.9,11-22.31,16.51l-7.5-19.68c.64,8-1,15.61-.38,23.6l-.38.36ZM280.12,199.39h3.44c3.33,0,5.75-1.15,7.29-3.48s2.28-6,2.28-10.93-.7-8.42-2.13-10.57-3.8-3.16-7.13-3.16h-3.75Zm0,47.18h4c3.81,0,6.55-1.33,8.21-4s2.47-7,2.47-13.1c0-5.57-.88-9.68-2.61-12.34s-4.47-4-8.16-4h-3.94Zm-29,14.78V246.41h3.16c2.08,0,3.44-.39,4.1-1.23s1-3.16,1-7V179.9c0-4.08-.31-6.62-.92-7.56s-2-1.41-4.25-1.41h-3.06V156.08H289q12.33,0,18.07,6t5.75,18.78a32,32,0,0,1-3.35,15.09,22.75,22.75,0,0,1-9.66,9.73A22.81,22.81,0,0,1,312,215.24q4,6.59,4,17.23,0,15.46-6.44,22.18T288,261.34Zm103.18-49-5.72-31.88-5.36,31.88Zm62.19-13h3.44c3.33,0,5.75-1.15,7.29-3.48s2.28-6,2.28-10.93-.7-8.42-2.13-10.57-3.8-3.16-7.13-3.16h-3.75Zm0,47.18h4c3.81,0,6.55-1.33,8.21-4s2.47-7,2.47-13.1c0-5.57-.88-9.68-2.61-12.34s-4.47-4-8.16-4h-3.94Zm-26.37-.16h.55c2.08,0,3.44-.39,4.1-1.23s1-3.16,1-7V179.9c0-4.08-.31-6.62-.92-7.56s-2-1.41-4.25-1.41h-3.06V156.08h37.86q12.33,0,18.07,6t5.75,18.78a32,32,0,0,1-3.35,15.09,22.75,22.75,0,0,1-9.66,9.73,22.82,22.82,0,0,1,12.21,9.57q4,6.59,4,17.23,0,15.46-6.44,22.18t-21.59,6.7H351.94V246.41h2.83c2.39,0,3.85-.21,4.38-.65a3.1,3.1,0,0,0,.8-2.48,23,23,0,0,0-.11-2.35c-.08-.73-.17-1.46-.3-2.17l-2.25-11.27H340.34l-2,10c-.33,1.54-.56,2.75-.67,3.61a16.6,16.6,0,0,0-.19,2.38,2.45,2.45,0,0,0,1.14,2.14,6,6,0,0,0,3.25.76H345v14.93H316.89V246.41h2.33a4.71,4.71,0,0,0,4-2.54c1.08-1.67,2-4.45,2.81-8.26l16.54-79.53h22.76L380.1,235.3c1,5.2,1.92,8.37,2.75,9.47a4.67,4.67,0,0,0,4,1.65h3.3Zm100.57-34L485,180.51l-5.36,31.88Zm71.09-56.31v14.85h-3.58c-2.06,0-3.42.42-4.06,1.23s-1,3.14-1,7v67h4.22q5.86,0,8.25-1a8,8,0,0,0,3.83-3.64,27.73,27.73,0,0,0,2.7-8.74,124.59,124.59,0,0,0,1.24-15.25h9.75v43.88H488.33V246.41h2.83c2.39,0,3.85-.21,4.38-.65a3.1,3.1,0,0,0,.8-2.48,23,23,0,0,0-.11-2.35c-.08-.73-.17-1.46-.3-2.17l-2.25-11.27H476.73l-2,10c-.33,1.54-.56,2.75-.67,3.61a16.6,16.6,0,0,0-.19,2.38,2.45,2.45,0,0,0,1.14,2.14,6,6,0,0,0,3.25.76h3.11v14.93H453.28V246.41h2.33a4.71,4.71,0,0,0,4-2.54c1.08-1.67,2-4.45,2.81-8.26L479,156.08h22.76l14.74,79.22c1,5.2,1.92,8.37,2.75,9.47a4.67,4.67,0,0,0,4,1.65h3.85c2.2,0,3.61-.5,4.24-1.46s.94-3.48.94-7.58V179.9c0-4.08-.31-6.62-.92-7.56s-2-1.41-4.25-1.41h-3.16V156.08Zm59.86,56.31-5.72-31.88-5.36,31.88Zm127.24,49V246.41h2.83c2.39,0,3.85-.21,4.38-.65a3.1,3.1,0,0,0,.8-2.48,23,23,0,0,0-.11-2.35c-.08-.73-.17-1.46-.3-2.17l-2.25-11.27H737.29l-2,10c-.33,1.54-.56,2.75-.67,3.61a16.61,16.61,0,0,0-.19,2.38,2.45,2.45,0,0,0,1.14,2.14,6,6,0,0,0,3.25.76H742v14.93H619.27V246.41h2.83c2.39,0,3.85-.21,4.38-.65a3.1,3.1,0,0,0,.8-2.48,23,23,0,0,0-.11-2.35c-.08-.73-.17-1.46-.3-2.17l-2.25-11.27H607.67l-2,10c-.33,1.54-.56,2.75-.67,3.61a16.61,16.61,0,0,0-.19,2.38,2.45,2.45,0,0,0,1.14,2.14,6,6,0,0,0,3.25.76h3.11v14.93H584.22V246.41h2.33a4.71,4.71,0,0,0,4-2.54c1.08-1.67,2-4.45,2.81-8.26l16.54-79.53h22.76l14.74,79.22c1,5.2,1.92,8.37,2.75,9.47a4.67,4.67,0,0,0,4,1.65h.78l34.89-75.48h-8.38c-5.07,0-8.6,1.7-10.57,5.13s-3.19,9.83-3.58,19.25H656.56V156.08h57.66v14.85l-34.72,75.48h8.57c5.44,0,9.19-1.94,11.29-5.78s3.33-11,3.69-21.5h11.18v27.28h2a4.71,4.71,0,0,0,4-2.54c1.08-1.67,2-4.45,2.81-8.26l16.54-79.53H762.3L777,235.3c1,5.2,1.92,8.37,2.75,9.47a4.67,4.67,0,0,0,4,1.65h3.3v14.93Zm2.38-49-5.72-31.88-5.36,31.88Zm127.58-56.31v43.13H868.64a125.72,125.72,0,0,0-1-12.68,37.84,37.84,0,0,0-2-8.32,11.65,11.65,0,0,0-4.16-5.62q-2.53-1.65-9.72-1.65h-8.07v28.9h2.42a6.1,6.1,0,0,0,6-3.45c1.14-2.3,1.72-6.38,1.72-12.27v-.92h7.88v48h-7.88c-.13-7.35-.69-12.13-1.72-14.33s-3-3.3-5.88-3.3h-2.52v23.75c0,4.34.33,6.93,1,7.79s2,1.26,4.14,1.26h3.49v14.93H814.88V246.41H818c2.08,0,3.44-.42,4.1-1.23s1-3.16,1-7V179.9c0-4.08-.31-6.62-.92-7.56s-2-1.41-4.25-1.41h-3.06V156.08Zm68.66,64.49q-.38,21.15-8,32.53T918,264.48q-16.3,0-25.08-14.44t-8.77-41.27q0-25.38,9.08-40.62t24.29-15.25a24.87,24.87,0,0,1,9.5,1.8,27.16,27.16,0,0,1,8.41,5.54l1.61-5.81h10.21v43.36H936q-1.64-15.18-5-22t-9.11-6.85q-6.64,0-9.66,9.39t-3,30.15q0,21.46,3.11,30.89t10.13,9.42q6.35,0,10.44-7.61t4.58-20.58ZM495.37,697.15s-8.34-32.42-46-47.81-35.26-28.5-49.27-42.67-36.28-28.82-42.84-43.4c-27.19-60.43,28.27-29.34,68.28-10.07,43.36,20.88,65.12,41.15,73.95,52.15s-1.61,6.27-20.94-5.36-48.94-27-60.48-30.18,30.22,29.59,37.2,45.58,13,34.48,24.41,50.61A115.81,115.81,0,0,1,495.37,697.15Zm-10.58-30.61c.36.25,1,.06,1.21.55,1.28,3.34-.69-.24,2.44,1.07,5.21,2.18-.48-.52,3.71,1.49,3.65,1.74,3.67,1.78,7,5,4.7,4.53,5.17,7.63,8.57,13.1,9.19-.39,10.93-4.86,18.1-7.7,7.4,2.5,6.1,5.55,16,6.19-1.18-2.78-17.36-21.67-23.11-24.71C499.44,651.29,495.8,655.81,484.79,666.54Zm53.78,148.33c2.91-5,1.32-8.49,5.46-14.41,3.48-5,6.93-5.31,6.59-11.54-.26-4.74-6.26-22-7.46-30.88-4.52-33.45,4.24-63.73.54-70.57-10.55,10.3-14.45,42-16.35,54.37-7.5-8.32-9.37-20.91-15.91-29.49C511.44,742,526.76,791,538.57,814.86ZM699.29,697.15s8.34-32.42,46-47.81,35.26-28.5,49.27-42.67,36.28-28.82,42.84-43.4c27.19-60.43-28.27-29.34-68.28-10.07-43.36,20.88-65.12,41.15-73.95,52.15s1.61,6.27,20.94-5.36,48.93-27,60.48-30.18-30.22,29.59-37.2,45.58S726.37,649.87,715,666A115.8,115.8,0,0,0,699.29,697.15Zm10.58-30.61c-.36.25-1,.06-1.21.55-1.28,3.34.69-.24-2.44,1.07-5.21,2.18.48-.52-3.71,1.49-3.65,1.74-3.67,1.78-7,5-4.7,4.53-5.17,7.63-8.57,13.1-9.19-.39-10.93-4.86-18.1-7.7-7.4,2.5-6.1,5.55-16,6.19,1.18-2.78,17.36-21.67,23.11-24.71C695.22,651.29,698.87,655.81,709.87,666.54ZM656.09,814.86c-2.91-5-1.32-8.49-5.46-14.41-3.48-5-6.93-5.31-6.59-11.54.26-4.74,6.26-22,7.46-30.88,4.52-33.45-4.24-63.73-.54-70.57,10.55,10.3,14.45,42,16.35,54.37,7.5-8.32,9.37-20.91,15.91-29.49C683.22,742,667.91,791,656.09,814.86Zm-58.76-40.22a67.62,67.62,0,0,1,38.73,11.63c-.17-7.94-3.21-17.26-3.35-27.37-.29-20.72,6.86-63.72,16.67-79,9.32-14.52,9.15-35.35,22.1-42.2,14.54-7.7,35.17-4.69,39,21.61,2.09-.67,4.22-1.44,6.37-2.29a326.33,326.33,0,0,0-25.73-43l1-21.11-.31-.08,10.94-11.58c4.32-5.8,7.55-8.41,12.19-14.72,20.24-27.57,38.25-59.51,42.88-96.5,8.44-67.37-31.88-124.53-66.35-153.56,18.68,50.4,30.41,69.31,24.4,132.27a79.22,79.22,0,0,1,30.28,1.72c-.49.17-1.26,0-1.49.48-.5,1.1-10.28-.06-12.07,0-17.38.62-22.12,9.75-23.46,24.79,16.06-2,23.47-1.33,34.24,6.56-32.4-11.75-40.5,5.52-48.64,18.79,16.21,1.88,22.11-.15,31.91,9.26-18.36-5.87-42.75-5.78-52.1,15.21,13.32,2.28,21.49,3.41,28,11.6-12.65-3.37-20.46-8.43-36.33-3.55-4.71,1.45-18.77,11.16-24.76,15,6,3.66,25,6,34.55,19.46,1.93,1.67,2.13-1.1,4,6.27l-5.9-6.43c-17.67-11.45-32.16-12.43-57.2-7.3l.38.36a132.61,132.61,0,0,0-20,.27,132.61,132.61,0,0,0-20-.27l.38-.36c-25-5.13-39.53-4.14-57.2,7.3l-5.9,6.43c1.91-7.37,2.11-4.6,4-6.27,9.52-13.47,28.54-15.81,34.55-19.46-6-3.8-20-13.51-24.76-15-15.87-4.89-23.68.17-36.33,3.55,6.48-8.19,14.65-9.32,28-11.6-9.35-21-33.74-21.08-52.1-15.21,9.81-9.42,15.71-7.38,31.91-9.26-8.14-13.27-16.24-30.54-48.64-18.79,10.77-7.89,18.18-8.55,34.24-6.56-1.34-15-6.09-24.16-23.46-24.79-1.79-.06-11.57,1.09-12.07,0-.23-.51-1-.31-1.49-.48a79.22,79.22,0,0,1,30.28-1.72c-6-63,5.72-81.87,24.4-132.27-34.47,29-74.78,86.18-66.35,153.56,4.63,37,22.64,68.94,42.88,96.5,4.64,6.32,7.87,8.93,12.19,14.72l10.94,11.58-.31.08,1,21.11a326.24,326.24,0,0,0-25.73,43c2.15.85,4.28,1.62,6.37,2.29,3.86-26.3,24.49-29.31,39-21.61,13,6.86,12.78,27.69,22.1,42.2,9.81,15.28,17,58.27,16.67,79-.14,10.11-3.18,19.43-3.35,27.37A67.62,67.62,0,0,1,597.33,774.65Zm-33,36c-7.19-5.87-3.81-11-.83-18.84-8.82,6.32-13.75,17.4-.85,25.41,9.29,5.77,17.31,6.4,27.21,13.58-24-2.56-26.35,8.64-40.75,8.69-9.15-7.91-5.15-11.24-10.32-19.68-7.91,27.34,1.23,26.52,9.51,35.49,7.57,8.2,12.61,32.66,49.07,32.67s41.49-24.47,49.07-32.67c8.28-9,17.42-8.15,9.51-35.49-5.17,8.44-1.16,11.77-10.32,19.68-14.4,0-16.72-11.24-40.75-8.69,9.9-7.18,17.91-7.81,27.21-13.58,12.9-8,8-19.08-.85-25.41,3,7.83,6.36,13-.83,18.84-3.92-.43.18,1.44-2.65-4.56-20.07,1.11-21.29,7-30.39,15.59-9.1-8.56-10.31-14.48-30.39-15.59C564.12,812.11,568.22,810.23,564.29,810.67Zm-75.38-364a69.75,69.75,0,0,0,2.23,9.29,55.77,55.77,0,0,1,3.34,9.84c4.38,15.25,13.89,30,25.08,41.11q2.63,2.62,5,5.47c6.49,7.77,15.16,14.32,23.55,19.92q3.46,2.31,7,4.55a167.32,167.32,0,0,0,25.18,13,143.75,143.75,0,0,1,17.08.39,143.75,143.75,0,0,1,17.08-.39,167.32,167.32,0,0,0,25.18-13q3.5-2.24,7-4.55c8.38-5.59,17.06-12.15,23.55-19.92q2.38-2.85,5-5.47c11.19-11.12,20.7-25.85,25.08-41.11a55.77,55.77,0,0,1,3.34-9.84,69.75,69.75,0,0,0,2.23-9.29c2.84-24.47,3.31-47-3.26-70.93-2.38-8.65-5.46-17.09-8.66-25.46-4-10.34-8.07-20.61-11.92-31l-13.48-36.37,29.67,25a213.54,213.54,0,0,1,51.8,65.61c15.28,30.19,22.33,63.3,18.11,97.05-4.25,34-19.06,64.2-38.16,92a329.68,329.68,0,0,1,34.86-19.33c5.95-2.86,11.86-5.8,17.8-8.68,11-5.32,22.66-10.9,34.32-14.56,9.89-3.11,23-5.77,31.58,1.8,12.56,11,3.93,32.57-1.64,44.93-7.91,17.57-31.24,32.57-44.9,46.39a69.7,69.7,0,0,0-8.27,10.75c-4.29,6.43-8.24,11.72-14.15,16.85-8.74,7.57-19.61,13-30.25,17.35-27.41,11.2-50.15,49.79-58,77.12v0c-2.78,9.74-5.35,19.54-8,29.31s-5.37,19.65-8.45,29.35a188.86,188.86,0,0,1-8.53,22.77l0,1.2c3.24,11.57,5.63,25-2.83,34.9-2.9,3.41-6.52,5.6-9.45,8.77-1.56,1.69-3.3,5-4.52,7a73.66,73.66,0,0,1-9.27,12.55c-11.46,12.11-26.45,16.46-42.8,16.46S566,893,554.53,880.93a73.66,73.66,0,0,1-9.27-12.55c-1.22-2-3-5.27-4.52-7-2.93-3.17-6.55-5.36-9.45-8.77-8.45-9.94-6.06-23.33-2.83-34.9l0-1.2a188.86,188.86,0,0,1-8.53-22.77c-3.08-9.7-5.79-19.53-8.45-29.35s-5.21-19.58-8-29.31v0c-7.81-27.33-30.56-65.92-58-77.12-10.64-4.35-21.51-9.78-30.25-17.35-5.91-5.12-9.86-10.42-14.15-16.85A69.7,69.7,0,0,0,392.81,613c-13.66-13.82-37-28.82-44.9-46.39-5.56-12.36-14.19-33.91-1.64-44.93,8.63-7.57,21.69-4.91,31.58-1.8,11.65,3.66,23.32,9.24,34.32,14.56,5.94,2.88,11.85,5.81,17.8,8.68a329.68,329.68,0,0,1,34.86,19.33c-19.1-27.76-33.9-58-38.16-92-4.23-33.76,2.83-66.87,18.11-97.05a213.54,213.54,0,0,1,51.8-65.61l29.67-25-13.48,36.37c-3.85,10.38-8,20.65-11.92,31-3.2,8.37-6.29,16.81-8.66,25.46C485.61,399.61,486.07,422.16,488.92,446.63ZM597.33,102.27c-127.27,0-216.53,7.27-338.22-33.9L166.49,190.2s80.13,105.11,47.87,227.91-88.43,362,6.77,455.29C293.32,944.1,418.35,1011,508.79,1059.12c43.84,23.33,78.07,54.62,88.55,65.09,10.47-10.47,44.7-41.76,88.54-65.09,90.44-48.11,215.47-115,287.65-185.72,95.21-93.26,39-332.49,6.77-455.29s47.87-227.91,47.87-227.91L935.55,68.37C813.86,109.55,724.6,102.27,597.33,102.27Zm0-18.13c58.39,0,117.59,2.2,175.83-1.85,54.35-3.78,104.91-13.6,156.57-31.09l12.6-4.26L1051.55,190.6,1043,201.78c-13.49,17.82-26.07,43.79-33.91,64.42-18,47.26-23.77,98.33-10.81,147.67,32.65,124.3,91.91,371.84-11.72,473.35-17.45,17.1-38.18,32.91-57.87,47.34-27,19.79-55,38.48-83.29,56.36-48.83,30.84-99.88,58.09-150.84,85.2-29,15.4-60.84,38.52-84.19,61.86l-13.07,13.07L584.26,1138c-23.34-23.34-55.23-46.46-84.18-61.86-51-27.11-102-54.36-150.84-85.2-28.31-17.88-56.29-36.57-83.29-56.36-19.69-14.43-40.41-30.24-57.87-47.34-103.63-101.51-44.38-349-11.72-473.35,13-49.34,7.15-100.41-10.81-147.67-7.84-20.63-20.42-46.61-33.91-64.42l-8.52-11.18L252.33,46.95l12.6,4.26c51.66,17.48,102.22,27.3,156.57,31.09C479.74,86.34,538.94,84.15,597.33,84.15Z"/></g></svg>