<svg id="BAPTINE_FC_-_EAGLES_1_W_B" data-name="BAPTINE FC - EAGLES 1 W&amp;B" xmlns="http://www.w3.org/2000/svg" viewBox="0 0 1200 1200"><defs><style>.cls-1{fill:#fff;}.cls-1,.cls-3{fill-rule:evenodd;}.cls-2{fill:none;stroke:#fff;stroke-miterlimit:22.93;stroke-width:0.57px;}</style></defs><title>BAPTINE FC - EAGLES 1 W&amp;amp;B</title><path class="cls-1" d="M266.56,87,189.29,188.61c12.27,18.79,23.25,41.85,30.68,61.2,21,54.61,27.41,113.71,12.42,170.76C204.23,527.78,144.82,771,234.47,858.84c40.54,39.71,92.68,74,141.15,103.34,46.55,28.15,94.45,53.88,142.46,79.43a419.22,419.22,0,0,1,80.29,56.4,419.24,419.24,0,0,1,80.29-56.4c48-25.54,95.9-51.28,142.46-79.43,48.47-29.3,100.61-63.62,141.15-103.34,89.65-87.82,30.24-331.06,2.07-438.27-15-57.06-8.57-116.16,12.43-170.77,7.43-19.34,18.41-42.4,30.68-61.19L930.17,87c-50.44,16-100.34,25.24-153.52,28.94-59.12,4.11-119,1.94-178.28,1.94S479.21,120,420.09,115.91C366.91,112.21,317,103,266.56,87Zm690.25,647.4-11.12,10.8c3.82,5.74,4.21,4.28,10.71,1.78C959.28,739.6,960.92,739.15,956.81,734.37Zm-191,150.76a16.67,16.67,0,0,0-9.1,11.39q-2.23,9.51,4.8,23.09,6.89,13.28,16.36,17.5a16.13,16.13,0,0,0,14.62-.55,17.11,17.11,0,0,0,9.37-11.89q2.07-9.37-4.55-22.13-5.1-9.82-11.56-15a19.08,19.08,0,0,0-10.08-4.45A17.59,17.59,0,0,0,765.77,885.14Zm-103.89,91a45.74,45.74,0,0,0,10.47-.62c5.41-1,9.31-2.92,11.72-5.86a11.63,11.63,0,0,0,2.64-9.78,13.41,13.41,0,0,0-3.14-6.46,13.1,13.1,0,0,0-7.19-4,27.5,27.5,0,0,0-11.08,0c-1.85.33-3.43.64-4.74.93a24.07,24.07,0,0,0-3.12.89Zm-5.18-29a34.13,34.13,0,0,0,3.88-.2c1.44-.15,3-.38,4.71-.68,4.36-.78,7.56-1.82,9.58-3.16a10.64,10.64,0,0,0,4.27-5.23,12.29,12.29,0,0,0,.61-6.67,11.81,11.81,0,0,0-6-8.31q-5-3-13.35-1.5a31,31,0,0,0-7.9,2.42Zm-145.49,4.65L507,925l-16.38,21.64Zm-115-89.41a16.28,16.28,0,0,0-14.45-2.43q-9.45,2.79-17.78,15-8.54,12.48-7.8,22.84a16,16,0,0,0,7.32,12.52,17.9,17.9,0,0,0,15.68,2.5q8.5-2.4,16.75-14.45,8.93-13.06,8.18-23Q403.51,867.3,396.24,862.32Zm-157-127.84,11.12,10.8c-3.82,5.74-4.21,4.28-10.71,1.79C236.74,739.7,235.11,739.25,239.21,734.48Zm23.54,46.26,3.15-15.23L257,784.42l-7.78,5,1-31.69L236.38,786.4l3.69-30.66-14.54,17.85,6.54-31.07-13.68,14.15,4.66-27.79c-10.62,13.76-13.44,9.35-14.1,2.59a2.74,2.74,0,0,0,2,1.18c2.32.22,5-2.35,5.92-5.76.83-3.07-.08-5.8-2-6.41a52.59,52.59,0,0,1,9.24-7.69c7.06-23.3,14.84-43.35,24.08-57-8.93,21.84-12.79,35.33-16.11,55.46l9.41,13.61c2.33-4.09,10.78-14.65,18.43-18.89-4.3,5.57-9.8,20.16-11,28.95l10.5,7.49c7.43,5.51,14.91,11,22.32,16.5l7.49-19.68c-.64,8,1,15.61.38,23.6l.38.36Zm29.44,72.69,21.12-53.08L283.47,828.8c-2.74,2.62-4.17,4.54-4.29,5.79-.15,1.69.62,3.42,2.29,5.17l1.5,1.57-1.21,1.16L266.94,827l1.21-1.16,1.5,1.57q2.7,2.83,5.56,2.38c1.16-.18,3-1.48,5.49-3.86l29.18-27.82a14.14,14.14,0,0,0,3.66-4.74,5.08,5.08,0,0,0,0-3.22,12.63,12.63,0,0,0-3.14-4.58l1.23-1.17L323.66,797l-19.5,49.52,50.14-17.39,12.06,12.64L365.13,843l-1.48-1.55q-2.73-2.87-5.57-2.42c-1.17.19-3,1.47-5.51,3.86L323.4,870.68c-2.74,2.62-4.15,4.56-4.25,5.83q-.22,2.53,2.28,5.16l1.48,1.55-1.21,1.16-18.09-19,1.21-1.16,1.51,1.58q2.73,2.87,5.56,2.38c1.16-.18,3-1.48,5.49-3.86l29.84-28.46-54,18.61Zm106.63,6.64q9.92,6.79,12,19.28t-5.59,23.76q-7.95,11.61-20.51,14.25a29.65,29.65,0,0,1-35.52-24q-2-12.37,6.08-24.24,8.3-12.13,21.8-14.14A29.55,29.55,0,0,1,398.81,860.07Zm75.72,42.71L413.73,939l23.06,10.41q5.31,2.4,9.19,1.35c2.6-.7,5.7-3.07,9.29-7.14l1.26.86-9.37,13.7-45.79-20.67.69-1.53,59.26-35.06-18-8.12q-4.48-2-6.93-2a7.61,7.61,0,0,0-4.35,1.44c-1.26.91-2.94,2.92-5,6l-1.57-.71L432.94,884Zm37.11,52.52-23.19-5.71L482.06,958a15.17,15.17,0,0,0-2.79,4.85,3.13,3.13,0,0,0,.71,2.72c.7.91,2.46,1.82,5.31,2.75l-.4,1.63L466,965.34l.4-1.63c2.61.16,4.37,0,5.28-.54,1.85-1,4.22-3.5,7.11-7.38L512,911.68l1.54.38,8.58,55q1,6.64,2.65,8.92a9.67,9.67,0,0,0,5.23,3.43l-.4,1.63L506,975.18l.4-1.63c2.41.47,4.13.46,5.14,0a3.13,3.13,0,0,0,1.88-2.16c.32-1.3.22-3.48-.27-6.58ZM579.71,985l-21.85-52.79-1.57,41.21c-.14,3.79.17,6.16,1,7.14,1.07,1.31,2.83,2,5.25,2.11l2.17.08-.06,1.68-21.45-.81.06-1.68,2.17.08c2.61.1,4.48-.62,5.65-2.16.7-.94,1.11-3.14,1.25-6.59L553.82,933a14.14,14.14,0,0,0-.68-5.95,5.09,5.09,0,0,0-2.26-2.29,12.64,12.64,0,0,0-5.44-1.09l.06-1.69,17.46.66,20.53,49.1,23.84-47.42,17.46.66-.06,1.69-2.14-.08c-2.64-.1-4.53.62-5.68,2.15-.7,1-1.13,3.14-1.26,6.6l-1.53,40.29c-.14,3.79.2,6.16,1,7.14q1.6,2,5.24,2.11l2.14.08-.06,1.68-26.2-1,.06-1.68,2.19.08c2.64.1,4.52-.62,5.65-2.16.7-.94,1.11-3.14,1.25-6.59L607,934.05l-25.75,51Zm100.9-39.66q6.57.2,10.23,2.61a13.59,13.59,0,0,1,6.14,9.3,15.28,15.28,0,0,1-1.33,9.18,16.58,16.58,0,0,1-6.78,7.44q-4.66,2.8-14.9,4.63L645.3,983.6l-.29-1.65,2.28-.41q3.81-.68,5-3.41c.5-1.16.46-3.44-.15-6.85l-7-39.25q-1-5.64-2.57-6.88a6.69,6.69,0,0,0-5.55-1l-2.28.41-.3-1.67,26.24-4.68a52.45,52.45,0,0,1,12-1q7,.41,11.28,3.87a14.25,14.25,0,0,1,5.22,8.8,13.3,13.3,0,0,1-1.31,8.67A16.64,16.64,0,0,1,680.6,945.31Zm64.72,11.84.54,1.59-25.06,8.45-.54-1.59,2.08-.7q3.62-1.22,4.54-3.89c.38-1.15,0-3.49-1.19-7L713,916.24a20.57,20.57,0,0,0-2.53-5.67,4.15,4.15,0,0,0-2.39-1.26,8.61,8.61,0,0,0-4.32.31l-2.08.7-.54-1.6,25.06-8.45.54,1.6-2.12.71c-2.38.8-3.88,2.1-4.5,3.86-.41,1.17,0,3.5,1.15,7L734,951.23a20.58,20.58,0,0,0,2.53,5.67,4.12,4.12,0,0,0,2.44,1.24,8.37,8.37,0,0,0,4.28-.28Zm55-22q7.81,5,14.33,5.84a24.22,24.22,0,0,0,12.87-1.81l.67,1.3a49.88,49.88,0,0,1-13.08,3.93,57.93,57.93,0,0,1-15,.58,66.4,66.4,0,0,1-13.78-2.61,43.73,43.73,0,0,1-11.78-.19A30.6,30.6,0,0,1,762,936.51a35,35,0,0,1-9.74-12.09q-6.37-12.28-2.63-24.53a29.31,29.31,0,0,1,15.07-18.11q10.73-5.57,22.82-1.51T806,896.73a32.67,32.67,0,0,1,3.56,20.55A31.1,31.1,0,0,1,800.33,935.13Zm30.16-96.38-1.05-1.32,17.09-13.62,1.06,1.32-1.82,1.45a6.25,6.25,0,0,0-2.48,5.86c.09,1.14,1.19,3,3.33,5.73l15.59,19.57q5.79,7.27,7.54,12.4a18.1,18.1,0,0,1-.18,11.39q-1.95,6.23-9.2,12-7.91,6.3-14.18,6.81a18.92,18.92,0,0,1-11.67-2.74q-3.66-2.27-10.62-11l-15-18.86c-2.36-3-4.31-4.59-5.87-4.85s-3.24.32-5.06,1.77l-1.82,1.45-1.06-1.32,20.86-16.62,1.05,1.32L815.13,851c-2,1.59-2.93,3.35-2.78,5.29.08,1.32,1.21,3.34,3.36,6l16.76,21a59.81,59.81,0,0,0,5.64,6,17.73,17.73,0,0,0,6.38,4.17,12.93,12.93,0,0,0,6.56.23,17.09,17.09,0,0,0,7.3-3.65,22,22,0,0,0,6.82-8.81,14.12,14.12,0,0,0,.9-9.36q-1.2-4.31-7.32-12l-15.57-19.55c-2.4-3-4.24-4.62-5.5-4.86a6.72,6.72,0,0,0-5.38,1.72ZM867,807.46l18.46,15.93,8.86-10.27q3.45-4,3.41-6.37c0-2.11-1.31-4.37-3.86-6.82l1.1-1.27,16.27,14-1.1,1.27a23.61,23.61,0,0,0-5.21-2.81,5.71,5.71,0,0,0-3.65.4,13.69,13.69,0,0,0-4.44,3.74l-8.86,10.27,15.41,13.29a19.47,19.47,0,0,0,4,3,2.94,2.94,0,0,0,1.9,0,7.93,7.93,0,0,0,2.65-2.29l6.84-7.93a27.82,27.82,0,0,0,4.41-6.23A11.21,11.21,0,0,0,924,820a35.12,35.12,0,0,0-2.67-9.93l1.19-1.38,8.25,14.13-31.06,36-1.27-1.1,1.43-1.66a8.64,8.64,0,0,0,1.9-3.82,3.84,3.84,0,0,0-.35-2.93,21.94,21.94,0,0,0-4.18-4.28L866.83,818.9c-3-2.56-5-3.83-6.25-3.83q-2.44,0-4.94,2.94l-1.43,1.66-1.28-1.11,31.06-36,10.68,8.31-1.17,1.35a21.15,21.15,0,0,0-6.44-2.76,7.26,7.26,0,0,0-4.35.78,20.75,20.75,0,0,0-4.71,4.41Zm66.33-26.82-3.15-15.22,8.87,18.9,7.78,5-1-31.69,13.91,28.66L956,755.63l14.55,17.85L964,742.41l13.69,14.15L973,728.76c10.62,13.75,13.45,9.35,14.1,2.59a2.74,2.74,0,0,1-2,1.18c-2.32.23-5-2.35-5.92-5.76-.83-3.07.07-5.8,2-6.41a52.57,52.57,0,0,0-9.25-7.69c-7.07-23.3-14.85-43.34-24.1-57,8.94,21.84,12.8,35.33,16.13,55.46l-9.4,13.61c-2.33-4.09-10.79-14.65-18.43-18.88,4.3,5.57,9.81,20.16,11,28.94l-10.5,7.49c-7.43,5.51-14.9,11-22.31,16.51l-7.5-19.68c.64,8-1,15.61-.38,23.6l-.38.36Zm-319.83,7.6c-.1.1.28.28.3.3ZM296.72,196.48h3.68c3.56,0,6.15-1.14,7.79-3.46s2.44-6,2.44-10.87-.75-8.37-2.27-10.5-4.06-3.15-7.62-3.15h-4Zm0,46.9H301c4.08,0,7-1.33,8.77-4s2.64-7,2.64-13c0-5.54-.94-9.62-2.79-12.27s-4.78-4-8.72-4h-4.21Zm-31,14.69V243.23h3.38c2.22,0,3.68-.39,4.38-1.22s1.05-3.15,1.05-7v-57.9c0-4.06-.33-6.58-1-7.51s-2.16-1.4-4.54-1.4h-3.27V153.43h40.47q13.18,0,19.31,6t6.15,18.67a30,30,0,0,1-3.58,15,23.52,23.52,0,0,1-10.33,9.67q8.77,3,13,9.52t4.28,17.13q0,15.37-6.88,22t-23.07,6.66ZM376,209.41l-6.12-31.69-5.73,31.69Zm79.6-56q14.13,0,20.75,7.07t6.6,22.1c0,10.06-2.19,17.42-6.58,22.12s-11.31,7-20.77,7H442.68v22.46c0,4.08.33,6.58,1,7.54s2.17,1.46,4.48,1.46H452v14.85H373.48V243.23h3c2.56,0,4.11-.21,4.68-.65a3,3,0,0,0,.85-2.47,21.25,21.25,0,0,0-.12-2.34c-.08-.73-.18-1.46-.32-2.16l-2.41-11.21H361.08l-2.11,10c-.35,1.53-.6,2.73-.72,3.59a15.39,15.39,0,0,0-.2,2.37,2.39,2.39,0,0,0,1.22,2.13,6.74,6.74,0,0,0,3.48.75h3.32v14.85H336V243.23h2.49a5.09,5.09,0,0,0,4.29-2.52c1.15-1.66,2.16-4.42,3-8.22l17.68-79.06h24.33l15.76,78.75c1.09,5.17,2.05,8.32,2.94,9.41a5.17,5.17,0,0,0,4.26,1.64h4.11c2.36,0,3.86-.49,4.53-1.46s1-3.46,1-7.54V177.12c0-4.06-.33-6.55-1-7.49s-2.16-1.4-4.54-1.4H411.5V153.43Zm-12.83,45.39h4.41c4.63,0,7.9-1.17,9.82-3.54s2.89-6.34,2.89-11.93c0-5.28-.92-9-2.74-11.18s-5-3.28-9.59-3.28h-4.79Zm65.63-29c-3.68,0-6.5,1.95-8.45,5.82s-2.94,9.54-2.94,17V193h-9.94v-39.6h70.77V193H548v-.44q0-11-3-16.9c-2-3.93-4.83-5.88-8.54-5.88h-2.94v64.42c0,4,.35,6.53,1,7.51s2.21,1.48,4.59,1.48h5.63v14.85H500.57V243.23h5.25q3.38,0,4.46-1.25c.72-.86,1.07-3.43,1.07-7.75V169.81Zm93.45-16.38V168.2h-3.27c-2.42,0-4,.49-4.63,1.48s-1,3.46-1,7.44v57.12c0,4,.35,6.53,1,7.51s2.21,1.48,4.59,1.48h3.27v14.85h-40V243.23h3.33q3.53,0,4.56-1.48c.68-1,1-3.48,1-7.51V177.12c0-4-.33-6.45-1-7.44s-2.19-1.48-4.58-1.48h-3.33V153.43Zm36.92,0,24.78,70.46V177.12c0-4.21-.35-6.76-1.05-7.62s-2.19-1.3-4.48-1.3H654.2V153.43h29.57V168.2h-2.41c-2.34,0-3.86.47-4.53,1.4s-1,3.46-1,7.51v81H652.78l-26.15-75v51.19c0,4.08.33,6.58,1,7.54s2.19,1.46,4.53,1.46h3v14.85H605.5V243.23h3.27q3.58,0,4.61-1.48c.68-1,1-3.48,1-7.51V177.12c0-4-.33-6.45-1-7.44s-2.21-1.48-4.63-1.48H605.5V153.43Zm118.91,0v39H747a102.17,102.17,0,0,0-2.17-11.88,24.1,24.1,0,0,0-2.82-6.86,11.21,11.21,0,0,0-4.65-4.24q-2.76-1.25-8.87-1.25H717.87v28.73h2.59q4.56,0,6.4-3.43c1.22-2.29,1.84-6.34,1.84-12.19v-.91h8.42v47.76H728.7c-.13-7.31-.73-12.06-1.84-14.25s-3.19-3.28-6.3-3.28h-2.69v32.6h11.9c4.61,0,7.79-.44,9.52-1.3a8.62,8.62,0,0,0,4-4.42,40.6,40.6,0,0,0,2.47-9.1,108.11,108.11,0,0,0,1.2-13.52h11.06v43.18h-71V243.23h3.37c2.22,0,3.68-.42,4.38-1.22s1.05-3.15,1.05-7v-57.9c0-4.06-.33-6.58-1-7.51s-2.16-1.4-4.54-1.4H687.1V153.43Zm108.35,0V196.3H855.13a116.49,116.49,0,0,0-1.05-12.61,35.49,35.49,0,0,0-2.17-8.27,11.71,11.71,0,0,0-4.44-5.59q-2.71-1.64-10.39-1.64h-8.62v28.73H831c3,0,5.16-1.14,6.38-3.43s1.84-6.34,1.84-12.19v-.91h8.42v47.76h-8.42c-.13-7.31-.74-12.06-1.84-14.25s-3.17-3.28-6.28-3.28h-2.69v23.61c0,4.32.35,6.89,1.05,7.75s2.17,1.25,4.43,1.25h3.73v14.85h-40V243.23H801c2.22,0,3.68-.42,4.38-1.22s1.05-3.15,1.05-7v-57.9c0-4.06-.33-6.58-1-7.51s-2.16-1.4-4.54-1.4h-3.27V153.43Zm73.38,64.11q-.4,21-8.54,32.34t-23,11.31q-17.42,0-26.8-14.35t-9.37-41q0-25.23,9.71-40.38t26-15.16a28.33,28.33,0,0,1,10.16,1.79,29.3,29.3,0,0,1,9,5.51l1.72-5.77h10.91v43.11h-12q-1.75-15.09-5.38-21.92T912,166.2q-7.09,0-10.33,9.33t-3.22,30q0,21.33,3.33,30.7t10.83,9.36q6.79,0,11.16-7.57t4.9-20.46ZM434.85,352.18c-1,1.15,1.64.52-1.45,1,.25-.52.5-1,.82-1.57,1.89-3,3.66-5.44,6.56-7.43-.82-.31-1.64-.63-2.4-1-15.82,3-24.2,10.68-31.07,19.42-3.78,4.92-6.3,10.42-9.45,14.55-4.35,5.76-9.08,6.18-16.58,9.37-47.53,20-86.8,51-94.42,102.79-3.4,23.6-.13,40,13.49,59.3,3,4.19,8.89,10.89,13,11.2,1-5.5-4.29-20-5.17-27.22-1.13-9.58,1.39-16.23,4.1-23.4,5.67,1.36,4,2.56,15,3.3,20.93,1.41,54-3.61,74.82-8.58,10.84-2.62,7.31-2.62,15.76,1.26,16.2,7.48,37.32,17.22,52.38,25.59C490.82,542.17,512.88,557.56,522,581c2.58,6.59.57,9.32-1.45,15.34-9.58,28.05-31,48.94-47.15,73.12-5.48,8.22-10.72,14.45-16.45,24.23-4.92,8.64-9.58,16.12-14.5,25.7-9,17.43-17.21,38.68-19.73,58.72-1,8.32-1.26,28.68,4,34.49,2.27-22.35,12.1-42.45,24.39-59.14,2.21-3.14,11.09-13.92,13.8-15.7,7.82,12.88-3.4,39.1-6.87,51.71,11-7.07,32.34-38.57,39.14-50.35,5.23-9.37,10.59-18.74,15.88-28.11,3.09-5.65,12.23-26.12,16.51-27.53.38-.52.76-1.1,1.2-1.67-.44,2.83-.25,1.31-.95,2,.88,8.85-10.78,46.16-15.06,57.83-2.33,6-4.66,11.88-7.06,17.8a6.7,6.7,0,0,0,.69.47C518.81,756.4,551,722,562.36,708.2c5.17-6.33,10.34-12.72,15.63-19.1.13,4.08-16.64,64.12-18.09,75.05,6.49-3.4,21.24-18.11,26.41-24.34,1.64-1.94,2.65-2.67,4.22-4.45,5.74-6.44,32-37.68,33.47-42.76.25-.42.63-.89.95-1.36.63.63.63.42.25,1.26-1.7,12.72-10.84,30.57-12.35,38.21,10.34-3.66,34.73-37.21,38.89-40-2.27,7.85-26.6,48.26-32.65,57.73-1.58,2.46-3.84,5.86-5,8.17.06.31.06.63.13.94C634,745,665.61,714.84,680.61,694.8c5.61-7.54,8.13-10.68,13.24-18.84,1.45-2.25,2.58-4.66,4.16-6.54-.5,5.5-10,36.69-12.42,44.28-2.21,7.12-12.92,39.67-13.87,43.91,1.45-.94,35.93-36.59,39.84-40.67q25.72-26.54,51.18-53.44-25.72,54-53.07,108.08a.55.55,0,0,0,.32.05C729.34,755,748.81,738,768.54,721c4.85-4.5,9.33-8.32,14.31-13.14,12.1-11.41,23.45-22.19,33.53-35.12,1.83-2.46,4.22-5.6,6.18-7.85-1.89,16.7-26.22,67.2-28.55,75.37.13,1-.13.84.95.52a120.44,120.44,0,0,0,31.14-27.32c2-2.41,3.09-3.51,5.42-6.23,1.26-1.57,3.15-4.45,4.6-6.7,10.78-15.39,26.35-49.72,27-68.09.63-1.88.13-.52.95-1.47a11.5,11.5,0,0,0,.76,1.1c2.14,7.8,4.35,15.55,6.3,23.29,2.33,11.41,9.71,74.22,10.15,74.74,5.92-9.26,13.49-31.77,16.14-42.66,6-25.75,6.63-48.26,2.52-69.19-4.14-21.09-12.86-40.88-23.76-61.45,1.89.58,4.22,2.77,6.68,4.14s4.29,3.09,6.68,4.55c4.1,2.3,10.59,7.12,13.8,8.16-2.08-15.34-11.66-40-19.1-52-10.84-17.48-20.8-23.61-31-36.85,1.89.47,24.08,12.82,26.54,13.92.13-14-23.7-41.09-33.41-51.71-4.35-4.87-10-10-13.36-14.6-1.26-.84-.44,1.78-1.2-1.26,3.15.26,1.26,0,2.21,1q12.29,8.32,24.77,16.49c1.45.89,2.21,1.68,3.59,2.46-5.48-25.86-38.32-56.26-61.65-69-4.66-2.56-8.26-5-13.43-7.54-3.15-1.62-10.91-5.86-14.12-6.59a3.53,3.53,0,0,1-1.39-.47c.13-.1.25-.31.31-.37a1.45,1.45,0,0,0,.32-.16c.06-.05.38.16.38,0s.25.05.38.1q12.58,1.18,25.15,2.2c.13-.21.25-.47.38-.73-2.4-1.62-6.37-5.65-10.65-8.64C766,344.17,753.79,335.75,726,326c-6.62-2.25-21.87-6.75-29-7.33,5-1.2,10.15-2.46,15.25-3.72-5.61-4.08-41.6-11.93-51.75-13.61-14.18-2.36-30.07-3.77-44.75-2.83-5.8.37-12,1.78-17.33,2,4.85-4.24,11.85-5.55,17.78-8.79-24.33-2.56-62,9.21-85.22,19.63-7.94,3.61-16,8.85-23.13,11.83,1.13-2,2.65-3.45,4-5.44s2.46-3.87,3.72-5.86c-17.08,1-47.84,18.32-62.65,28.21C447.14,344,440.65,348.89,434.85,352.18Zm190.74-24.86c27.1,1.83,78,10,104.7,19.68,3.59,1.36,10.46,4.81,12.86,5.23,1.45.58.63-1.47,1.2.63-.57.73.69,1.94-1.83.52-8,.68-28.18,3.66-33.22,8.69,7.75,3.4,15.51,6.75,23.32,10.1,21.94,9.89,46.71,22.35,63.16,38.63.88.68.13-1.1,1.13,1.2l-1.13-.16c-8.26-1.57-29.06-5.71-37.13.63-.06,4.5,3,4.76,6.55,6.23,14.62,6.18,45.32,14.45,53.14,29.26,1.2,1,.44-1.62,1.07,1.47-.5-.31-1-.58-1.45-.89-7.44-3.19-30.7-6.12-40.72-4.71,4.48,12.93,69,55.64,75.26,78.56-5-1.31-18-15.81-51.94-7.07,1,2.41,5.29,5.65,7.37,7.69,6.3,6.28,15.38,16.28,20.49,23.29,5.61,7.43,21.56,29.62,14.81,41.35-2.46-3.19-4.35-6.18-7.19-8.9a54.88,54.88,0,0,0-8.45-6.59c-4.41-3.19-13.36-8.48-22.06-7.43,11.41,4.08,34.54,25.59,38.45,36.74a15.21,15.21,0,0,0,1.58.05c6.43-19.21,6.24-29.89-4-48.1-4.41-7.48-28.18-33-28.3-34,1.13-.05,2.27-.05,3.47-.05,9.08-2,20.11,1.78,26.16,4.5,14.5,6.44,11.09,6.59,19.29,11.83,1.26.73-.19.1,1.45.68-3.28-19.21-22.63-39.67-33.41-49.67-7.19-6.8-13.87-12.93-21-19.1-6.37-5.34-12.73-10.78-19.1-16.23-1.83-1.47-1.45-.26-2.4-2.51,7.88-.16,13.43,0,20.61,1.73a43.47,43.47,0,0,1,8.76,3c2.27,1,6.3,3.45,7.75,3.77-1-15.34-16.58-24.91-24.9-29.26a120,120,0,0,0-18.28-7.64c-5.74-1.88-16.58-3.93-18.41-6.91,11.16-3.25,24.52.16,34.67,3.56,2.21.73,8,3.51,9,3.61a5.53,5.53,0,0,1,.63-.37c-6.68-18.06-44.44-39.52-61.9-47.58-8-3.51-15.95-7.07-23.89-10.68,9.58-5.65,23.26-4.29,33.72-4.13-3.85-5.7-16.2-11.57-24.2-14.66-21.81-8.64-51.18-14-75.13-16.7a7.5,7.5,0,0,0-1.13-.1h0C654.39,326.48,634.85,324.81,625.59,327.32Zm-61.83-11.67c.19,1.2-.13.94,1.13.84,34.67-8.06,70.91-13.77,106-4.66,4.22,1.1,8.19,2.93,11.72,4-2.4,2.25-8,2-10.65,4.34,18.15,3,79.86,23.71,94.86,36,1.7,1.31,3.53,2.15,5.11,3.56a8.71,8.71,0,0,0,.82,1.2,13.38,13.38,0,0,1-1.58-.37c-9.9,1-19.73,2.09-29.56,3.09,2.65,2.3,9.64,5.29,13.36,7.12,4.85,2.36,9.08,4.29,14.06,6.86,21.87,10.78,64.61,34.39,72.87,52.5-2.14-.73-4.79-2.46-7.25-3.72-4.6-2.25-17.27-8.85-21.49-8.69,2.84,6.8,23.83,32.45,30.7,41.14,2.52,3.09,8,9.58,9.9,13,.32.47.63.94.95,1.36a6.92,6.92,0,0,1-1.45-.63c-6.81.31-27.23-11.41-31.77-12.77,4.85,11.57,58.56,65.69,66,92.27a7.2,7.2,0,0,1-1.32-.58l-1.13-.68c-2-.94-3.91-1.94-5.8-2.93-4.6-2.62-20.74-9.47-25.53-10.73q7.75,16.64,15.38,33c9,21.15,32.27,92.38,19.79,111a170.79,170.79,0,0,0-10.46-47.58c-3.28-8.16-14.81-33.29-19.73-39.62q-1.7,15-4,30c-3.28,18.06-9.2,38.47-17.9,55.79-3.66,7.33-11,18.95-16.77,23.13,1.39-5.6,5.48-14.34,7.44-20.88,4.92-17.64,13.17-51.55,13.43-67a2.2,2.2,0,0,1-.63-.1c-1.58,9.21-13.24,25.8-19.16,34.65a282.94,282.94,0,0,1-18.78,23.13c-2.33,2.46-4.6,4.92-6.87,7.38-8.57,9.37-48,48.89-59.63,55.58,2.4-4.13,4.92-8.37,7.31-12.61,10.4-19.58,36.94-78,38-92.69-13.87,14.86-28,29.62-42.17,44.28-3.85,3.93-40.15,41.66-43.43,43.7-.5,1.31.88.37-1.07,1.36a11.16,11.16,0,0,1,.82-1.47c0-3.61,17.65-67.78,19.86-77,1.39-5.86,5.23-20.26,5.36-25.07-1.39,1.83-20,32.19-25.15,39.31-1.58,2.2-2.27,3.61-4.22,6.33-1.45,2.15-3,4.19-4.41,6.28-5,7.59-32.65,45.59-39,48.83-.38.47-.76.89-1.13,1.31l1.13-1.26c.32-2.93,6-13.14,7.88-17,2.58-5.39,5.23-11.31,7.88-16.85,2.9-6.23,13.17-28.84,13.36-35.28.25-2.83.38-.89-.57-1.47-3.21,3-39.71,49.62-43.56,52.81.95-14,1.89-28.05,2.65-42.08l-1.89,3c-6,10.78-18.53,29.73-26.28,39.36-2.52,3.4-5.11,6.8-7.69,10.21-5.92,7.59-8.38,11.67-15.51,19.68-2.77,3.09-5,6.18-8.07,9.21-.69.94.95.37-1.64,1.26,0-2.72-.13-.21.57-1.2,4.1-12.56,17.9-71.44,18.15-85.63-4.85,6.7-9.71,13.35-14.62,20C569.74,685,537.15,725.68,529,729c7.12-26.69,9-37.68,12.92-65,.82-6.86,2.52-16,2.58-22.66-.19-1,.13-.68-1-.52-1.07,5.34-28,45.59-34.67,54.33-1.39,1.73-2,2.88-3.4,4.4-2.33,2.67-7,9.47-11,11.78,1.13-5.39,8.57-19.26,11.09-24.81,3.72-8,7.75-16.12,11.41-24.13,3.53-7.59,19.79-43,19.48-50.14-.13,0-.19,0-.25-.05-1.32,1.57-1.83,3.4-2.84,5-4.35,7.43-18,26.69-23.26,32.92-1.76,2.15-1.89,2.46-3.59,4.81-2.58,3.61-23.2,30.15-25.09,31.3-2.84-6.44,1-10.21,3.4-14.55s4.6-8.48,6.93-12.77c5.23-9.58,6.43-11,11.22-18.89,6.68-11.25,11.66-17.9,18.15-30.78,8.19-16.38,5.48-14.92,9.77-27.95,4,9.37,2.21,14.6-.5,21.88,3.47-2.36,7.56-9.89,9-15.28,2-7.48,1.26-13.87,0-22.35,6.62,7.07,10,20.41,8,31l.69-.16a31.79,31.79,0,0,0,3.4-21.72c-1.77-9.42-5.17-12.93-9.27-19.31,16.77,11,21.05,23.45,18,44.59-.88,5.34-2.58,11.2-3.09,16.17,8.82-10,12.42-35.54,5.11-51.5-2.14-4.82-6.3-10.26-9.33-12.46-.76-.52-1.51-1-2.21-1.57,4.35-.52,1.07-.31,2.27.84,3.09,1.52,5.74,2.56,8.64,4.14,17.21,9.53,16.26,16.49,20,20.46.06-9.68-4.54-17.53-9.58-23.29-9.39-10.94-12.86-8.95-17.4-12.61,10-1.62,18.28,1.2,27.1,2-4.35-7.54-30.19-9.84-41.79-11.83-15.88-2.72-28.11-5.23-42.8-9.84-.76-.16-1.45-.31-2.14-.52a1.7,1.7,0,0,1,2-.26c8.13.52,24.46,4.34,32.27,2.72a2,2,0,0,1,.32-.47c-13.49-2.2-40.91-11.31-53.58-20.47-1.39-.68-.19,1.2-1.51-1.31a10.25,10.25,0,0,0,1.39.52c9.9,3.45,34.16,9.79,45.63,10a2.22,2.22,0,0,1-.13-.63c-3.78-.63-10.21-5.23-12.42-7.8,10.72.37,25.28.47,33-7.17,3.15-3.14,1.76-1.94,7.37-2.77,3.21-.47,6.37-1.2,9.52-1.78,6.18-1.15,11.66-1.78,16.14.47-5.8-8.9-14.37-2.41-26.47-4.76-2-15.91-21.94-5.08-38.2-18.06-5.8-4.61-24.71-23.19-24-35.07,6-3.61,5,2.09,17.27,12.77,3.66,3.19,14,12.93,19.73,11.78-.95-4.34-3.84-6-6.56-7.48-8.13-4.4-17.65-13.45-17.84-24.08,3.21,2,6.43,4,9.58,6,2.33,1.83,7.56,20.2,29.25,18.21,22.12-2,31.08-24.55,19.86-36.38-1.39-1.15,0,1.41-1.32-1.31,2.52-.84.5-.31,1.26.42,2.08.68,6.05,4.87,8.19,7.22,7.56,8.37,3.53,14.34-.38,21.2-2.14,3.66-1.64,6.33-4,10.1-3.21-1-3.91-2.25-8.57-2.56,1.39,2.93,3.66,4.34.95,6.59-5.55,4.66-18.72,2.36-23.83,2.62,1.26,4.82,3.78,7.33,9,6.39-.5-.73-1-1.52-1.45-2.3,9.83-3.3,25.78,1.26,35.42-1.67-3.15-1.1-5.67-1.36-6.68-4.5,2.9-5.39,7.56-3,11-.73s6.37,5,9.83,7.12c-1.76-6.75-15.51-12.35-19.6-17.69a2.16,2.16,0,0,0,.19-.47c.38-.84.76-1.73,1.2-2.62a11.35,11.35,0,0,1,1.64-2.72c7.37-9.32,5-9.79,16-10.68,7.06-.63,20,2.56,26.41,4.55,13,4,18.41-2.3,30.7-1.88,7.94.21,21.75,4.24,28.62-1.15-10.15.63-19-2.25-28.55-3.61-10.09-1.41-19.29,1.88-30.57-.58-7.37-1.52-19.29-5.76-24.14-9.32-13.49-9.84-8.07-6.33-23-11-7.5-2.36-18-6.33-26.85-5.81-21.68,1.15-44.94,2.67-66.5,7.64-10,2.25-18.22,9.84-26,11.2,8.57-13.45,23.64-22,44.56-27.06-9.39-6.44-40.09,3.24-47.65,10-.44.52,0,.79-1.07,1.15-2.14-2.35-.19-1.1-.19-1.2,5.17-14.66,30.63-29.68,45.89-34.81,13.8-4.66,16.26-2.62,23.57-4.19-22.57-8.69-41.35.89-60.51,7.64,1.45-11.93,15-26.64,24.71-33.86h0v-.05h.06l.06-.05.06-.05a2.67,2.67,0,0,1,.44-.31c2-1.52,8.82-6.49,11.54-7.9a28.18,28.18,0,0,1,4.29-2.09c-2.08,4.34-11.91,19.73-12.29,22.56,7.19-3.35,14.94-8.32,22.06-12.2,21.18-11.62,52.63-28.37,76.39-31C573.46,308.58,568.6,312.14,563.75,315.65ZM454.83,347.89c-3.59,4.82-16.89,24.86-15.19,35.17,0,2.56-.25.84.76,1.47,1.64-1.52,2.08-2.93,4.29-4.55a69.24,69.24,0,0,1,6.05-3.51c3-1.57,10.21-5.23,13.61-5.65.63-.73-.19-.47,1.13-.94,2.46-.89.76,0,1.51.26l-2.46.94c-14.75,7.54-31.64,24.08-28.74,43.7,2.27-1.57,13-13.19,20.8-14.5.57-.78-.06-1.26,2.08-.68-.76.26-1.51.47-2.21.68-3.53,2.67-7.06,5-10.27,8-2.9,2.83-6.49,6.23-7.56,10.26-7.38-1.62-26.79-16.38-31.83-27.16-2.71-5.71-1.39-7.38.5-11.72,3.34-7.69,10.84-21.15,18-25.33-1.45,4.82-4.54,9.94-3.21,16.28,2-.89,26-20.62,32.21-23.08,1.07-1.73.25-1.1,2.39-1.94C455.84,348.1,457.16,346.37,454.83,347.89ZM302,531.18c-2.9-1.67-5.92-14-6.56-16.8a63.05,63.05,0,0,1-1.7-19.37c2.14-31.3,20.49-56.58,45.38-75.42,1.51-1.1,3.47-2.83,5.55-4.24h0c2.58-2.83,11.41-6.7,11.72-6.8h0c11.72-6,27.1-15.65,41.1-19.21,2.33,5.08,9.9,13.19,13.43,17.11a73.39,73.39,0,0,0,16.2,13.4c14.43,9,28.68,7.28,40.47,14.92a80.41,80.41,0,0,1,16.07,13.61c2.4,2.56,5,5.29,6.3,9.11,3.53,10,13.8,16.7,24.27,20,8.64,2.72,14.88,1.88,22.82,3.45-4.73,5.7-20.11,2.51-26,.89-20.36-5.65-28.55-8.74-51.24-8.79-4.85.05-8.64-7.22-22.25-8.74a5.56,5.56,0,0,0,.06,1c3.4.79,6.11,3.14,8.89,4.76,1.39,1.31.25-1.88,1.32,1.83-2.14.31-.5.58-2.08-.42-8.82-.58-17.21-2.67-27-.1,3.66.78,7.31,1.57,11,2.3a44,44,0,0,1-11.16,2h-.19l-2.4.16c-.06,0-.06,0-.06-.05l-3.66.21h0c-7,.31-12.92-.1-20.23,1.57-5.8,1.36-14.18,5.5-18.59,6-11.41,1.41-24.65-4.55-35.74-3.82-12.23.79-27.73,7.54-31.77,15.65-3,6,0,12.61-2,17.8C301.22,520.77,302.42,523.12,302,531.18ZM520.7,413.63c3.21-2,22.5-2.77,27.92-2.46,10.4.68,15.06,23,.19,33.55C524.8,461.68,498.07,427.45,520.7,413.63ZM309.86,503c-.25-6.7,2.52-10,7.56-12.72,9.2-5,24.58-7.75,34.67-5.55,5.11.89,10.21,1.73,15.32,2.56-8.51,2.67-23.07.84-32.78,2.41C318.68,492.19,315.47,499.1,309.86,503Zm15.82.16c.25-1.41.38-1.47,1.64-2.72,2.21-1.73,4.41-3.51,6.68-5.29,14.5-9.26,23.07,1.1,41.35-7.54,4.35-2,53.7-10.31,61.52-11.36,5-.68,8.57.37,13.49.73s9.39-.42,14.43-.52c21.81-.52,31,2.72,50.11,8.64,17,5.23,19,.16,26.66-1,9.14,10-9.08,12.88-16.89,13.19-11,.37-18.53.42-28-2.67-8.32-2.77-15.38-6.28-23.38-9-7.56-2.51-20.61,1.31-29.88.73-6.05-.37-7.75-2.51-13-.21-4.29,1.94-8.32,3.56-12.67,5.44-21.31,9.16-9.64,4.08-28.49,5.7C373.84,498.68,338.73,506,325.68,503.18Zm156.57-7.69c.63.05,1.26.05,2,.05-.76.63.13.37-1.2.58-2.14.31.44.42-.76-.52-3.59.47-10.53-.26-15-.16-5.29.16-10.46.63-15.76,1.26,2.9,2.93,25.15,13.61,27,14.18s.38-1.1,1.32.47c0,.05-.76.79-.88.37-.06-.1-.25-.1-.38-.16-4.22-.21-8.38-.42-12.54-.68,1.39,1.67,4.35,3.35,6.24,4.87,11.6,9.37,36.12,17.22,50.87,19.63.82.31,1.64.58,2.46.84a15.09,15.09,0,0,1-3.34.42c-3,0-.82.05-1.83-.47-5.23,1.57-11,.21-16.14.05,2.21,2.51,10,7.48,16.26,14.5,4.35,4.87,10.21,11.51,12.42,18.48-3.91-3.66-7.82-7.38-11.66-11-9.83-8.9-26-22.77-36.87-29.78-13.3-8.58-25.91-17.32-41-24.13-2.52-1.15-12.92-5.34-14.5-6.59C446.26,492,466.43,491.2,482.25,495.49ZM479.54,729.6a1.79,1.79,0,0,0,.5.42c4-2.67,8.26-5.86,12-8.9,2.71-2.15,9.45-8.17,11.47-9.16a9.25,9.25,0,0,1,.38-1c.38-.31.76-.63,1.13-1-.25.42-.5.84-.76,1.2.06.94.25.63-.69.79-.5,7.07-25.34,45.8-30.76,50.51,1.2-7.38,2.71-11.2,2.14-19.84-.44-6.54-2.08-14.39-6.18-17.8-12.67,1.88-29.18,27.11-33.15,35.07a4,4,0,0,1-.76.05c2.9-12.51,10-28.47,15.51-38.47,4.92-9,14.94-26,21-33.92,2.27,5.81,2.58,12.56,3.15,18.95,2.77-2,11.72-14.29,14.5-17.9,2.21-2.88,11.53-16.23,13.93-17.69C495.3,690.51,487.42,710,479.54,729.6Zm-89.88-291c-2.21-3.56-17.84-14.29-24.08-14.34,1.58,4.45,6.74,8,10.46,9.37C380.58,435.4,385.5,437.18,389.66,438.6Zm13-9.21c-1.58-6.54-15.06-12.46-21.3-14.5-2.52-.84-7.44-.47-9.39-1.88.76-3.35,3.72-2,6.49-4.08-3.84-.21-14.18-.84-12.67,5,.76,2.62,8.76,6.07,11,7.22C383.16,424.67,392.11,432.21,402.64,429.38Zm141.44-4.14c1.76-13.35-18.91-15.39-20.67-2.36C521.65,436.82,542.26,439.48,544.09,425.25Zm-12.8,82.17c-.13.26-.25.47-.38.68,6.43,1.1,7.12,3.24,20.49,4.5,7.5.68,15.32.31,22.94.52-5.86,4-26.22,5.44-34.23,7.28,8.76,4.5,33.47,1.52,45.26.94,7.63-.42,15.82-.58,22.94.37a58.65,58.65,0,0,1,9.77,2.2c3.66,1.15,5.55,2.77,8.13,4-3.21-9.63-24.14-14.24-33.66-16.43-3.91-.89-10-1.57-13-3,13.93-4,27.61.73,36.05.94-2.84-5.08-14.31-7.69-20.93-9.89-1.2-.89-.32,1.31-1.13-1.26a18,18,0,0,0,1.83.52c12.73-2.41,38.89,3.72,49.1,7.64l.19-.94c-2.46-.89-6.05-3.25-9.39-4.81A81.79,81.79,0,0,0,602,493.19c-9-.21-18,.84-27.17,2-10.08,1.36-17.4,1.67-27.17,2.25,4.79,4.08,23.32,4.61,31.26,5.5C556.5,510.3,550.83,507.21,531.29,507.42Zm244.94-35.59c.32.58.57,1.15.88,1.67-.57-.31-1.07-.63-1.58-.89-19.73-16.7-59.38-26.85-87.24-24.39,9.64,7,14.75,4.87,34.1,24.55,13.49,13.61,16,20.15,25.21,35.75,2.21,2.2,2,3.66-.82,1.2-1.76-2.83-25-12.3-30.76-14.5-33.28-13.08-73-25.28-111-19.16,1,.37,2,.73,3.09,1.1,25.15,5.81,51.31,19.78,62.59,44.59-7.25-2-7.82-4.45-24.77-7.17-6.18-1-21.75-3.61-27.73-2.88,1.89,1.52,5.61,3,10,6.28,7.63,5.86,20.8,15.91,23.26,27.63a32.81,32.81,0,0,1-4.79-3.3c-11-8.37-30.82-11.15-44.31-8.53,21.68,6,49.54,9.89,61.33,32.35.69-.94.95,1.1.31-2-.76-6.33-7.63-21.15-10.65-26.27-8.13-14-12.61-16-15.32-20.15,14.43.94,36.62,13.29,48.6,21.83,2,1.47,3.59,3.19,5.74,4.24C686.66,529.77,666,501.3,654,492c-10.4-8.27-12.86-8.22-17.21-11.36,23.76-.21,73.5,22.14,96.25,32.14,9.64,4.5,19.35,9,29.12,13.4.57-.94.76,1.15.32-1.62-2.33-15.7-20.74-43.65-33.28-55.74-2.65-2.56-5-4.45-7.5-6.75-2.21-1.94-5.48-3.93-7.69-5.76,13.8-1,37.13,10.26,46,14.86,4.16,2.2,16.83,9.42,19.79,11.72,6.05,4.45,12.1,8.85,18.15,13.14-7.69-29.36-46.08-75-78.1-83a71.08,71.08,0,0,0,8.19,6.49C740.49,427.66,771.44,457.8,776.23,471.83ZM452,772.66c-7.09,12.43-12.2,25.94-13.66,40.3l-2.51,24.71-16.73-18.35c-8.32-9.13-8.31-31.44-6.85-43.32,2.63-21.32,11.1-43.41,20.87-62.43,4.6-9,9.73-17.48,14.76-26.18,5.12-8.87,11.21-16.41,16.83-24.84,15.18-22.74,37-44.33,45.87-70.52a52.65,52.65,0,0,0,2.07-6,5,5,0,0,0-.45-1.73c-8-20.46-28.4-34.31-46.85-44.53-16.63-9.2-34.37-17.27-51.65-25.22-1.2-.55-2.43-1.22-3.64-1.81-1.62.37-3.39.91-4.89,1.26-22.72,5.46-54.95,10.42-78.15,8.87-2.41-.16-4.73-.35-7-.72a25.82,25.82,0,0,0-.33,8.42,93.47,93.47,0,0,0,2.57,11c1.49,5.79,3.58,13.6,2.5,19.51l-1.8,9.82-10-.76c-8.62-.66-16.47-9.17-21.2-15.86-15.33-21.71-19.22-41.15-15.4-67.3,8.27-56.77,51.1-90.24,101.07-111.41,3-1.28,7.38-2.5,10.09-4.06a6.29,6.29,0,0,0,2-1.8c3.46-4.56,5.86-9.92,9.53-14.65,10.08-13,21.45-20.38,37.74-23.5l3.61-.69,3.31,1.6.1,0c1.16-.81,2.31-1.6,3.47-2.37C464,319,495.73,301.23,515.52,300.08l14.33-.83c24.74-10.77,62.13-22,88.07-19.27l35.28,3.72-6.83,3.74c5.57.56,11.09,1.31,16.51,2.21,11.49,1.9,48.18,9.55,56.47,15.58l15.24,11.09a192,192,0,0,1,32.61,15.16c9.6,5.69,18.73,12.24,27.85,18.67q1,.69,1.93,1.42c1.94,1.49,3.79,3.07,5.63,4.67a35.28,35.28,0,0,0,2.92,2.43l7.93,5.37-4.16,8.63-.19.39c25.56,14.81,58.62,46.3,64.71,75l3.82,18c7.71,10.94,13.9,22.57,13.81,31.95l-.11,12.5c1,1.44,2,2.93,2.92,4.48,8.8,14.18,18.42,39.84,20.66,56.38l2.38,17.51-15.23-5a182.62,182.62,0,0,1,9.34,31.39c4.87,24.79,3.21,49.42-2.61,73.9-3.07,12.92-10.54,35-17.58,46.07L883.11,748l-9.71-11.52c-2.39-2.84-2.6-5.78-3-9.12-.39-2.93-.75-5.86-1.12-8.79-1.09-8.72-2.15-17.43-3.26-26.15-.83-6.55-1.67-13.1-2.58-19.64A214.62,214.62,0,0,1,845.89,706c-1.7,2.53-3.33,5.25-5.27,7.59-1.72,2.07-3.63,4-5.29,6.07a133.1,133.1,0,0,1-34.05,29.88l-1.24.75-1.27.37a11.2,11.2,0,0,1-15.21-9.88l-.26-2.15.61-2.15c1.44-5.06,4.27-11,6.37-15.88l3.43-8-2.63,2.51c-4.77,4.56-9.65,9-14.57,13.38-19.29,17.25-39.1,33.88-58.72,50.75l-3.12,2.68h-4.11a11.39,11.39,0,0,1-7.4-2.61l-6.79-5.64,4-7.88q11.16-22.17,22.16-44.42l-2.37,2.47q-9.81,10.18-19.68,20.31-6.74,6.92-13.51,13.81c-2.18,2.21-6.06,6.5-8.59,8.15l-22.79,14.81,5.92-26.53c.67-3,1.76-6.22,2.68-9.17,1.49-4.77,3-9.52,4.54-14.28q1.39-4.34,2.8-8.67c-4.11,4.29-8.31,8.45-12.47,12.42-11.48,11-24.9,22.9-38.33,31.42l-13.64,8.65L603.87,759c-.09-.44-.15-.86-.2-1.3l-.7-3.48,1.8-3.47c1.35-2.6,3-5.11,4.61-7.59l-10.64,3.77,1.07-5.42-.42.48c-1.29,1.45-2.79,2.74-4,4.21-6.38,7.61-21.28,22.59-29.76,27l-19,9.93,2.81-21.22a155.08,155.08,0,0,1,3.34-15.56q1.82-7.46,3.73-14.89c-14.47,15.66-33.89,34.77-43.9,38.22l-5,1.72-4.49-2.8a17.12,17.12,0,0,1-1.9-1.34l-5.72-4.74c-9.75,14.13-22.2,29.93-30.87,35.51l-24.4,15.72,7.69-28C449.19,781.35,450.65,777,452,772.66ZM598.37,100.27c-127.27,0-216.53,7.27-338.22-33.9L167.52,188.2s80.13,105.11,47.87,227.91-88.43,362,6.77,455.29C294.35,942.1,419.39,1009,509.82,1057.12c43.84,23.33,78.07,54.62,88.55,65.09,10.47-10.47,44.7-41.76,88.54-65.09,90.44-48.11,215.47-115,287.65-185.72,95.21-93.26,39-332.49,6.77-455.29s47.87-227.91,47.87-227.91L936.58,66.37C814.9,107.55,725.63,100.27,598.37,100.27Z"/><path class="cls-2" d="M266.56,87,189.29,188.61c12.27,18.79,23.25,41.85,30.68,61.2,21,54.61,27.41,113.71,12.42,170.76C204.23,527.78,144.82,771,234.47,858.84c40.54,39.71,92.68,74,141.15,103.34,46.55,28.15,94.45,53.88,142.46,79.43a419.22,419.22,0,0,1,80.29,56.4,419.24,419.24,0,0,1,80.29-56.4c48-25.54,95.9-51.28,142.46-79.43,48.47-29.3,100.61-63.62,141.15-103.34,89.65-87.82,30.24-331.06,2.07-438.27-15-57.06-8.57-116.16,12.43-170.77,7.43-19.34,18.41-42.4,30.68-61.19L930.17,87c-50.44,16-100.34,25.24-153.52,28.94-59.12,4.11-119,1.94-178.28,1.94S479.21,120,420.09,115.91C366.91,112.21,317,103,266.56,87Zm690.25,647.4-11.12,10.8c3.82,5.74,4.21,4.28,10.71,1.78C959.28,739.6,960.92,739.15,956.81,734.37Zm-191,150.76a16.67,16.67,0,0,0-9.1,11.39q-2.23,9.51,4.8,23.09,6.89,13.28,16.36,17.5a16.13,16.13,0,0,0,14.62-.55,17.11,17.11,0,0,0,9.37-11.89q2.07-9.37-4.55-22.13-5.1-9.82-11.56-15a19.08,19.08,0,0,0-10.08-4.45A17.59,17.59,0,0,0,765.77,885.14Zm-103.89,91a45.74,45.74,0,0,0,10.47-.62c5.41-1,9.31-2.92,11.72-5.86a11.63,11.63,0,0,0,2.64-9.78,13.41,13.41,0,0,0-3.14-6.46,13.1,13.1,0,0,0-7.19-4,27.5,27.5,0,0,0-11.08,0c-1.85.33-3.43.64-4.74.93a24.07,24.07,0,0,0-3.12.89Zm-5.18-29a34.13,34.13,0,0,0,3.88-.2c1.44-.15,3-.38,4.71-.68,4.36-.78,7.56-1.82,9.58-3.16a10.64,10.64,0,0,0,4.27-5.23,12.29,12.29,0,0,0,.61-6.67,11.81,11.81,0,0,0-6-8.31q-5-3-13.35-1.5a31,31,0,0,0-7.9,2.42Zm-145.49,4.65L507,925l-16.38,21.64Zm-115-89.41a16.28,16.28,0,0,0-14.45-2.43q-9.45,2.79-17.78,15-8.54,12.48-7.8,22.84a16,16,0,0,0,7.32,12.52,17.9,17.9,0,0,0,15.68,2.5q8.5-2.4,16.75-14.45,8.93-13.06,8.18-23Q403.51,867.3,396.24,862.32Zm-157-127.84,11.12,10.8c-3.82,5.74-4.21,4.28-10.71,1.79C236.74,739.7,235.11,739.25,239.21,734.48Zm23.54,46.26,3.15-15.23L257,784.42l-7.78,5,1-31.69L236.38,786.4l3.69-30.66-14.54,17.85,6.54-31.07-13.68,14.15,4.66-27.79c-10.62,13.76-13.44,9.35-14.1,2.59a2.74,2.74,0,0,0,2,1.18c2.32.22,5-2.35,5.92-5.76.83-3.07-.08-5.8-2-6.41a52.59,52.59,0,0,1,9.24-7.69c7.06-23.3,14.84-43.35,24.08-57-8.93,21.84-12.79,35.33-16.11,55.46l9.41,13.61c2.33-4.09,10.78-14.65,18.43-18.89-4.3,5.57-9.8,20.16-11,28.95l10.5,7.49c7.43,5.51,14.91,11,22.32,16.5l7.49-19.68c-.64,8,1,15.61.38,23.6l.38.36Zm29.44,72.69,21.12-53.08L283.47,828.8c-2.74,2.62-4.17,4.54-4.29,5.79-.15,1.69.62,3.42,2.29,5.17l1.5,1.57-1.21,1.16L266.94,827l1.21-1.16,1.5,1.57q2.7,2.83,5.56,2.38c1.16-.18,3-1.48,5.49-3.86l29.18-27.82a14.14,14.14,0,0,0,3.66-4.74,5.08,5.08,0,0,0,0-3.22,12.63,12.63,0,0,0-3.14-4.58l1.23-1.17L323.66,797l-19.5,49.52,50.14-17.39,12.06,12.64L365.13,843l-1.48-1.55q-2.73-2.87-5.57-2.42c-1.17.19-3,1.47-5.51,3.86L323.4,870.68c-2.74,2.62-4.15,4.56-4.25,5.83q-.22,2.53,2.28,5.16l1.48,1.55-1.21,1.16-18.09-19,1.21-1.16,1.51,1.58q2.73,2.87,5.56,2.38c1.16-.18,3-1.48,5.49-3.86l29.84-28.46-54,18.61Zm106.63,6.64q9.92,6.79,12,19.28t-5.59,23.76q-7.95,11.61-20.51,14.25a29.65,29.65,0,0,1-35.52-24q-2-12.37,6.08-24.24,8.3-12.13,21.8-14.14A29.55,29.55,0,0,1,398.81,860.07Zm75.72,42.71L413.73,939l23.06,10.41q5.31,2.4,9.19,1.35c2.6-.7,5.7-3.07,9.29-7.14l1.26.86-9.37,13.7-45.79-20.67.69-1.53,59.26-35.06-18-8.12q-4.48-2-6.93-2a7.61,7.61,0,0,0-4.35,1.44c-1.26.91-2.94,2.92-5,6l-1.57-.71L432.94,884Zm37.11,52.52-23.19-5.71L482.06,958a15.17,15.17,0,0,0-2.79,4.85,3.13,3.13,0,0,0,.71,2.72c.7.91,2.46,1.82,5.31,2.75l-.4,1.63L466,965.34l.4-1.63c2.61.16,4.37,0,5.28-.54,1.85-1,4.22-3.5,7.11-7.38L512,911.68l1.54.38,8.58,55q1,6.64,2.65,8.92a9.67,9.67,0,0,0,5.23,3.43l-.4,1.63L506,975.18l.4-1.63c2.41.47,4.13.46,5.14,0a3.13,3.13,0,0,0,1.88-2.16c.32-1.3.22-3.48-.27-6.58ZM579.71,985l-21.85-52.79-1.57,41.21c-.14,3.79.17,6.16,1,7.14,1.07,1.31,2.83,2,5.25,2.11l2.17.08-.06,1.68-21.45-.81.06-1.68,2.17.08c2.61.1,4.48-.62,5.65-2.16.7-.94,1.11-3.14,1.25-6.59L553.82,933a14.14,14.14,0,0,0-.68-5.95,5.09,5.09,0,0,0-2.26-2.29,12.64,12.64,0,0,0-5.44-1.09l.06-1.69,17.46.66,20.53,49.1,23.84-47.42,17.46.66-.06,1.69-2.14-.08c-2.64-.1-4.53.62-5.68,2.15-.7,1-1.13,3.14-1.26,6.6l-1.53,40.29c-.14,3.79.2,6.16,1,7.14q1.6,2,5.24,2.11l2.14.08-.06,1.68-26.2-1,.06-1.68,2.19.08c2.64.1,4.52-.62,5.65-2.16.7-.94,1.11-3.14,1.25-6.59L607,934.05l-25.75,51Zm100.9-39.66q6.57.2,10.23,2.61a13.59,13.59,0,0,1,6.14,9.3,15.28,15.28,0,0,1-1.33,9.18,16.58,16.58,0,0,1-6.78,7.44q-4.66,2.8-14.9,4.63L645.3,983.6l-.29-1.65,2.28-.41q3.81-.68,5-3.41c.5-1.16.46-3.44-.15-6.85l-7-39.25q-1-5.64-2.57-6.88a6.69,6.69,0,0,0-5.55-1l-2.28.41-.3-1.67,26.24-4.68a52.45,52.45,0,0,1,12-1q7,.41,11.28,3.87a14.25,14.25,0,0,1,5.22,8.8,13.3,13.3,0,0,1-1.31,8.67A16.64,16.64,0,0,1,680.6,945.31Zm64.72,11.84.54,1.59-25.06,8.45-.54-1.59,2.08-.7q3.62-1.22,4.54-3.89c.38-1.15,0-3.49-1.19-7L713,916.24a20.57,20.57,0,0,0-2.53-5.67,4.15,4.15,0,0,0-2.39-1.26,8.61,8.61,0,0,0-4.32.31l-2.08.7-.54-1.6,25.06-8.45.54,1.6-2.12.71c-2.38.8-3.88,2.1-4.5,3.86-.41,1.17,0,3.5,1.15,7L734,951.23a20.58,20.58,0,0,0,2.53,5.67,4.12,4.12,0,0,0,2.44,1.24,8.37,8.37,0,0,0,4.28-.28Zm55-22q7.81,5,14.33,5.84a24.22,24.22,0,0,0,12.87-1.81l.67,1.3a49.88,49.88,0,0,1-13.08,3.93,57.93,57.93,0,0,1-15,.58,66.4,66.4,0,0,1-13.78-2.61,43.73,43.73,0,0,1-11.78-.19A30.6,30.6,0,0,1,762,936.51a35,35,0,0,1-9.74-12.09q-6.37-12.28-2.63-24.53a29.31,29.31,0,0,1,15.07-18.11q10.73-5.57,22.82-1.51T806,896.73a32.67,32.67,0,0,1,3.56,20.55A31.1,31.1,0,0,1,800.33,935.13Zm30.16-96.38-1.05-1.32,17.09-13.62,1.06,1.32-1.82,1.45a6.25,6.25,0,0,0-2.48,5.86c.09,1.14,1.19,3,3.33,5.73l15.59,19.57q5.79,7.27,7.54,12.4a18.1,18.1,0,0,1-.18,11.39q-1.95,6.23-9.2,12-7.91,6.3-14.18,6.81a18.92,18.92,0,0,1-11.67-2.74q-3.66-2.27-10.62-11l-15-18.86c-2.36-3-4.31-4.59-5.87-4.85s-3.24.32-5.06,1.77l-1.82,1.45-1.06-1.32,20.86-16.62,1.05,1.32L815.13,851c-2,1.59-2.93,3.35-2.78,5.29.08,1.32,1.21,3.34,3.36,6l16.76,21a59.81,59.81,0,0,0,5.64,6,17.73,17.73,0,0,0,6.38,4.17,12.93,12.93,0,0,0,6.56.23,17.09,17.09,0,0,0,7.3-3.65,22,22,0,0,0,6.82-8.81,14.12,14.12,0,0,0,.9-9.36q-1.2-4.31-7.32-12l-15.57-19.55c-2.4-3-4.24-4.62-5.5-4.86a6.72,6.72,0,0,0-5.38,1.72ZM867,807.46l18.46,15.93,8.86-10.27q3.45-4,3.41-6.37c0-2.11-1.31-4.37-3.86-6.82l1.1-1.27,16.27,14-1.1,1.27a23.61,23.61,0,0,0-5.21-2.81,5.71,5.71,0,0,0-3.65.4,13.69,13.69,0,0,0-4.44,3.74l-8.86,10.27,15.41,13.29a19.47,19.47,0,0,0,4,3,2.94,2.94,0,0,0,1.9,0,7.93,7.93,0,0,0,2.65-2.29l6.84-7.93a27.82,27.82,0,0,0,4.41-6.23A11.21,11.21,0,0,0,924,820a35.12,35.12,0,0,0-2.67-9.93l1.19-1.38,8.25,14.13-31.06,36-1.27-1.1,1.43-1.66a8.64,8.64,0,0,0,1.9-3.82,3.84,3.84,0,0,0-.35-2.93,21.94,21.94,0,0,0-4.18-4.28L866.83,818.9c-3-2.56-5-3.83-6.25-3.83q-2.44,0-4.94,2.94l-1.43,1.66-1.28-1.11,31.06-36,10.68,8.31-1.17,1.35a21.15,21.15,0,0,0-6.44-2.76,7.26,7.26,0,0,0-4.35.78,20.75,20.75,0,0,0-4.71,4.41Zm66.33-26.82-3.15-15.22,8.87,18.9,7.78,5-1-31.69,13.91,28.66L956,755.63l14.55,17.85L964,742.41l13.69,14.15L973,728.76c10.62,13.75,13.45,9.35,14.1,2.59a2.74,2.74,0,0,1-2,1.18c-2.32.23-5-2.35-5.92-5.76-.83-3.07.07-5.8,2-6.41a52.57,52.57,0,0,0-9.25-7.69c-7.07-23.3-14.85-43.34-24.1-57,8.94,21.84,12.8,35.33,16.13,55.46l-9.4,13.61c-2.33-4.09-10.79-14.65-18.43-18.88,4.3,5.57,9.81,20.16,11,28.94l-10.5,7.49c-7.43,5.51-14.9,11-22.31,16.51l-7.5-19.68c.64,8-1,15.61-.38,23.6l-.38.36Zm-319.83,7.6c-.1.1.28.28.3.3ZM296.72,196.48h3.68c3.56,0,6.15-1.14,7.79-3.46s2.44-6,2.44-10.87-.75-8.37-2.27-10.5-4.06-3.15-7.62-3.15h-4Zm0,46.9H301c4.08,0,7-1.33,8.77-4s2.64-7,2.64-13c0-5.54-.94-9.62-2.79-12.27s-4.78-4-8.72-4h-4.21Zm-31,14.69V243.23h3.38c2.22,0,3.68-.39,4.38-1.22s1.05-3.15,1.05-7v-57.9c0-4.06-.33-6.58-1-7.51s-2.16-1.4-4.54-1.4h-3.27V153.43h40.47q13.18,0,19.31,6t6.15,18.67a30,30,0,0,1-3.58,15,23.52,23.52,0,0,1-10.33,9.67q8.77,3,13,9.52t4.28,17.13q0,15.37-6.88,22t-23.07,6.66ZM376,209.41l-6.12-31.69-5.73,31.69Zm79.6-56q14.13,0,20.75,7.07t6.6,22.1c0,10.06-2.19,17.42-6.58,22.12s-11.31,7-20.77,7H442.68v22.46c0,4.08.33,6.58,1,7.54s2.17,1.46,4.48,1.46H452v14.85H373.48V243.23h3c2.56,0,4.11-.21,4.68-.65a3,3,0,0,0,.85-2.47,21.25,21.25,0,0,0-.12-2.34c-.08-.73-.18-1.46-.32-2.16l-2.41-11.21H361.08l-2.11,10c-.35,1.53-.6,2.73-.72,3.59a15.39,15.39,0,0,0-.2,2.37,2.39,2.39,0,0,0,1.22,2.13,6.74,6.74,0,0,0,3.48.75h3.32v14.85H336V243.23h2.49a5.09,5.09,0,0,0,4.29-2.52c1.15-1.66,2.16-4.42,3-8.22l17.68-79.06h24.33l15.76,78.75c1.09,5.17,2.05,8.32,2.94,9.41a5.17,5.17,0,0,0,4.26,1.64h4.11c2.36,0,3.86-.49,4.53-1.46s1-3.46,1-7.54V177.12c0-4.06-.33-6.55-1-7.49s-2.16-1.4-4.54-1.4H411.5V153.43Zm-12.83,45.39h4.41c4.63,0,7.9-1.17,9.82-3.54s2.89-6.34,2.89-11.93c0-5.28-.92-9-2.74-11.18s-5-3.28-9.59-3.28h-4.79Zm65.63-29c-3.68,0-6.5,1.95-8.45,5.82s-2.94,9.54-2.94,17V193h-9.94v-39.6h70.77V193H548v-.44q0-11-3-16.9c-2-3.93-4.83-5.88-8.54-5.88h-2.94v64.42c0,4,.35,6.53,1,7.51s2.21,1.48,4.59,1.48h5.63v14.85H500.57V243.23h5.25q3.38,0,4.46-1.25c.72-.86,1.07-3.43,1.07-7.75V169.81Zm93.45-16.38V168.2h-3.27c-2.42,0-4,.49-4.63,1.48s-1,3.46-1,7.44v57.12c0,4,.35,6.53,1,7.51s2.21,1.48,4.59,1.48h3.27v14.85h-40V243.23h3.33q3.53,0,4.56-1.48c.68-1,1-3.48,1-7.51V177.12c0-4-.33-6.45-1-7.44s-2.19-1.48-4.58-1.48h-3.33V153.43Zm36.92,0,24.78,70.46V177.12c0-4.21-.35-6.76-1.05-7.62s-2.19-1.3-4.48-1.3H654.2V153.43h29.57V168.2h-2.41c-2.34,0-3.86.47-4.53,1.4s-1,3.46-1,7.51v81H652.78l-26.15-75v51.19c0,4.08.33,6.58,1,7.54s2.19,1.46,4.53,1.46h3v14.85H605.5V243.23h3.27q3.58,0,4.61-1.48c.68-1,1-3.48,1-7.51V177.12c0-4-.33-6.45-1-7.44s-2.21-1.48-4.63-1.48H605.5V153.43Zm118.91,0v39H747a102.17,102.17,0,0,0-2.17-11.88,24.1,24.1,0,0,0-2.82-6.86,11.21,11.21,0,0,0-4.65-4.24q-2.76-1.25-8.87-1.25H717.87v28.73h2.59q4.56,0,6.4-3.43c1.22-2.29,1.84-6.34,1.84-12.19v-.91h8.42v47.76H728.7c-.13-7.31-.73-12.06-1.84-14.25s-3.19-3.28-6.3-3.28h-2.69v32.6h11.9c4.61,0,7.79-.44,9.52-1.3a8.62,8.62,0,0,0,4-4.42,40.6,40.6,0,0,0,2.47-9.1,108.11,108.11,0,0,0,1.2-13.52h11.06v43.18h-71V243.23h3.37c2.22,0,3.68-.42,4.38-1.22s1.05-3.15,1.05-7v-57.9c0-4.06-.33-6.58-1-7.51s-2.16-1.4-4.54-1.4H687.1V153.43Zm108.35,0V196.3H855.13a116.49,116.49,0,0,0-1.05-12.61,35.49,35.49,0,0,0-2.17-8.27,11.71,11.71,0,0,0-4.44-5.59q-2.71-1.64-10.39-1.64h-8.62v28.73H831c3,0,5.16-1.14,6.38-3.43s1.84-6.34,1.84-12.19v-.91h8.42v47.76h-8.42c-.13-7.31-.74-12.06-1.84-14.25s-3.17-3.28-6.28-3.28h-2.69v23.61c0,4.32.35,6.89,1.05,7.75s2.17,1.25,4.43,1.25h3.73v14.85h-40V243.23H801c2.22,0,3.68-.42,4.38-1.22s1.05-3.15,1.05-7v-57.9c0-4.06-.33-6.58-1-7.51s-2.16-1.4-4.54-1.4h-3.27V153.43Zm73.38,64.11q-.4,21-8.54,32.34t-23,11.31q-17.42,0-26.8-14.35t-9.37-41q0-25.23,9.71-40.38t26-15.16a28.33,28.33,0,0,1,10.16,1.79,29.3,29.3,0,0,1,9,5.51l1.72-5.77h10.91v43.11h-12q-1.75-15.09-5.38-21.92T912,166.2q-7.09,0-10.33,9.33t-3.22,30q0,21.33,3.33,30.7t10.83,9.36q6.79,0,11.16-7.57t4.9-20.46ZM434.85,352.18c-1,1.15,1.64.52-1.45,1,.25-.52.5-1,.82-1.57,1.89-3,3.66-5.44,6.56-7.43-.82-.31-1.64-.63-2.4-1-15.82,3-24.2,10.68-31.07,19.42-3.78,4.92-6.3,10.42-9.45,14.55-4.35,5.76-9.08,6.18-16.58,9.37-47.53,20-86.8,51-94.42,102.79-3.4,23.6-.13,40,13.49,59.3,3,4.19,8.89,10.89,13,11.2,1-5.5-4.29-20-5.17-27.22-1.13-9.58,1.39-16.23,4.1-23.4,5.67,1.36,4,2.56,15,3.3,20.93,1.41,54-3.61,74.82-8.58,10.84-2.62,7.31-2.62,15.76,1.26,16.2,7.48,37.32,17.22,52.38,25.59C490.82,542.17,512.88,557.56,522,581c2.58,6.59.57,9.32-1.45,15.34-9.58,28.05-31,48.94-47.15,73.12-5.48,8.22-10.72,14.45-16.45,24.23-4.92,8.64-9.58,16.12-14.5,25.7-9,17.43-17.21,38.68-19.73,58.72-1,8.32-1.26,28.68,4,34.49,2.27-22.35,12.1-42.45,24.39-59.14,2.21-3.14,11.09-13.92,13.8-15.7,7.82,12.88-3.4,39.1-6.87,51.71,11-7.07,32.34-38.57,39.14-50.35,5.23-9.37,10.59-18.74,15.88-28.11,3.09-5.65,12.23-26.12,16.51-27.53.38-.52.76-1.1,1.2-1.67-.44,2.83-.25,1.31-.95,2,.88,8.85-10.78,46.16-15.06,57.83-2.33,6-4.66,11.88-7.06,17.8a6.7,6.7,0,0,0,.69.47C518.81,756.4,551,722,562.36,708.2c5.17-6.33,10.34-12.72,15.63-19.1.13,4.08-16.64,64.12-18.09,75.05,6.49-3.4,21.24-18.11,26.41-24.34,1.64-1.94,2.65-2.67,4.22-4.45,5.74-6.44,32-37.68,33.47-42.76.25-.42.63-.89.95-1.36.63.63.63.42.25,1.26-1.7,12.72-10.84,30.57-12.35,38.21,10.34-3.66,34.73-37.21,38.89-40-2.27,7.85-26.6,48.26-32.65,57.73-1.58,2.46-3.84,5.86-5,8.17.06.31.06.63.13.94C634,745,665.61,714.84,680.61,694.8c5.61-7.54,8.13-10.68,13.24-18.84,1.45-2.25,2.58-4.66,4.16-6.54-.5,5.5-10,36.69-12.42,44.28-2.21,7.12-12.92,39.67-13.87,43.91,1.45-.94,35.93-36.59,39.84-40.67q25.72-26.54,51.18-53.44-25.72,54-53.07,108.08a.55.55,0,0,0,.32.05C729.34,755,748.81,738,768.54,721c4.85-4.5,9.33-8.32,14.31-13.14,12.1-11.41,23.45-22.19,33.53-35.12,1.83-2.46,4.22-5.6,6.18-7.85-1.89,16.7-26.22,67.2-28.55,75.37.13,1-.13.84.95.52a120.44,120.44,0,0,0,31.14-27.32c2-2.41,3.09-3.51,5.42-6.23,1.26-1.57,3.15-4.45,4.6-6.7,10.78-15.39,26.35-49.72,27-68.09.63-1.88.13-.52.95-1.47a11.5,11.5,0,0,0,.76,1.1c2.14,7.8,4.35,15.55,6.3,23.29,2.33,11.41,9.71,74.22,10.15,74.74,5.92-9.26,13.49-31.77,16.14-42.66,6-25.75,6.63-48.26,2.52-69.19-4.14-21.09-12.86-40.88-23.76-61.45,1.89.58,4.22,2.77,6.68,4.14s4.29,3.09,6.68,4.55c4.1,2.3,10.59,7.12,13.8,8.16-2.08-15.34-11.66-40-19.1-52-10.84-17.48-20.8-23.61-31-36.85,1.89.47,24.08,12.82,26.54,13.92.13-14-23.7-41.09-33.41-51.71-4.35-4.87-10-10-13.36-14.6-1.26-.84-.44,1.78-1.2-1.26,3.15.26,1.26,0,2.21,1q12.29,8.32,24.77,16.49c1.45.89,2.21,1.68,3.59,2.46-5.48-25.86-38.32-56.26-61.65-69-4.66-2.56-8.26-5-13.43-7.54-3.15-1.62-10.91-5.86-14.12-6.59a3.53,3.53,0,0,1-1.39-.47c.13-.1.25-.31.31-.37a1.45,1.45,0,0,0,.32-.16c.06-.05.38.16.38,0s.25.05.38.1q12.58,1.18,25.15,2.2c.13-.21.25-.47.38-.73-2.4-1.62-6.37-5.65-10.65-8.64C766,344.17,753.79,335.75,726,326c-6.62-2.25-21.87-6.75-29-7.33,5-1.2,10.15-2.46,15.25-3.72-5.61-4.08-41.6-11.93-51.75-13.61-14.18-2.36-30.07-3.77-44.75-2.83-5.8.37-12,1.78-17.33,2,4.85-4.24,11.85-5.55,17.78-8.79-24.33-2.56-62,9.21-85.22,19.63-7.94,3.61-16,8.85-23.13,11.83,1.13-2,2.65-3.45,4-5.44s2.46-3.87,3.72-5.86c-17.08,1-47.84,18.32-62.65,28.21C447.14,344,440.65,348.89,434.85,352.18Zm190.74-24.86c27.1,1.83,78,10,104.7,19.68,3.59,1.36,10.46,4.81,12.86,5.23,1.45.58.63-1.47,1.2.63-.57.73.69,1.94-1.83.52-8,.68-28.18,3.66-33.22,8.69,7.75,3.4,15.51,6.75,23.32,10.1,21.94,9.89,46.71,22.35,63.16,38.63.88.68.13-1.1,1.13,1.2l-1.13-.16c-8.26-1.57-29.06-5.71-37.13.63-.06,4.5,3,4.76,6.55,6.23,14.62,6.18,45.32,14.45,53.14,29.26,1.2,1,.44-1.62,1.07,1.47-.5-.31-1-.58-1.45-.89-7.44-3.19-30.7-6.12-40.72-4.71,4.48,12.93,69,55.64,75.26,78.56-5-1.31-18-15.81-51.94-7.07,1,2.41,5.29,5.65,7.37,7.69,6.3,6.28,15.38,16.28,20.49,23.29,5.61,7.43,21.56,29.62,14.81,41.35-2.46-3.19-4.35-6.18-7.19-8.9a54.88,54.88,0,0,0-8.45-6.59c-4.41-3.19-13.36-8.48-22.06-7.43,11.41,4.08,34.54,25.59,38.45,36.74a15.21,15.21,0,0,0,1.58.05c6.43-19.21,6.24-29.89-4-48.1-4.41-7.48-28.18-33-28.3-34,1.13-.05,2.27-.05,3.47-.05,9.08-2,20.11,1.78,26.16,4.5,14.5,6.44,11.09,6.59,19.29,11.83,1.26.73-.19.1,1.45.68-3.28-19.21-22.63-39.67-33.41-49.67-7.19-6.8-13.87-12.93-21-19.1-6.37-5.34-12.73-10.78-19.1-16.23-1.83-1.47-1.45-.26-2.4-2.51,7.88-.16,13.43,0,20.61,1.73a43.47,43.47,0,0,1,8.76,3c2.27,1,6.3,3.45,7.75,3.77-1-15.34-16.58-24.91-24.9-29.26a120,120,0,0,0-18.28-7.64c-5.74-1.88-16.58-3.93-18.41-6.91,11.16-3.25,24.52.16,34.67,3.56,2.21.73,8,3.51,9,3.61a5.53,5.53,0,0,1,.63-.37c-6.68-18.06-44.44-39.52-61.9-47.58-8-3.51-15.95-7.07-23.89-10.68,9.58-5.65,23.26-4.29,33.72-4.13-3.85-5.7-16.2-11.57-24.2-14.66-21.81-8.64-51.18-14-75.13-16.7a7.5,7.5,0,0,0-1.13-.1h0C654.39,326.48,634.85,324.81,625.59,327.32Zm-61.83-11.67c.19,1.2-.13.94,1.13.84,34.67-8.06,70.91-13.77,106-4.66,4.22,1.1,8.19,2.93,11.72,4-2.4,2.25-8,2-10.65,4.34,18.15,3,79.86,23.71,94.86,36,1.7,1.31,3.53,2.15,5.11,3.56a8.71,8.71,0,0,0,.82,1.2,13.38,13.38,0,0,1-1.58-.37c-9.9,1-19.73,2.09-29.56,3.09,2.65,2.3,9.64,5.29,13.36,7.12,4.85,2.36,9.08,4.29,14.06,6.86,21.87,10.78,64.61,34.39,72.87,52.5-2.14-.73-4.79-2.46-7.25-3.72-4.6-2.25-17.27-8.85-21.49-8.69,2.84,6.8,23.83,32.45,30.7,41.14,2.52,3.09,8,9.58,9.9,13,.32.47.63.94.95,1.36a6.92,6.92,0,0,1-1.45-.63c-6.81.31-27.23-11.41-31.77-12.77,4.85,11.57,58.56,65.69,66,92.27a7.2,7.2,0,0,1-1.32-.58l-1.13-.68c-2-.94-3.91-1.94-5.8-2.93-4.6-2.62-20.74-9.47-25.53-10.73q7.75,16.64,15.38,33c9,21.15,32.27,92.38,19.79,111a170.79,170.79,0,0,0-10.46-47.58c-3.28-8.16-14.81-33.29-19.73-39.62q-1.7,15-4,30c-3.28,18.06-9.2,38.47-17.9,55.79-3.66,7.33-11,18.95-16.77,23.13,1.39-5.6,5.48-14.34,7.44-20.88,4.92-17.64,13.17-51.55,13.43-67a2.2,2.2,0,0,1-.63-.1c-1.58,9.21-13.24,25.8-19.16,34.65a282.94,282.94,0,0,1-18.78,23.13c-2.33,2.46-4.6,4.92-6.87,7.38-8.57,9.37-48,48.89-59.63,55.58,2.4-4.13,4.92-8.37,7.31-12.61,10.4-19.58,36.94-78,38-92.69-13.87,14.86-28,29.62-42.17,44.28-3.85,3.93-40.15,41.66-43.43,43.7-.5,1.31.88.37-1.07,1.36a11.16,11.16,0,0,1,.82-1.47c0-3.61,17.65-67.78,19.86-77,1.39-5.86,5.23-20.26,5.36-25.07-1.39,1.83-20,32.19-25.15,39.31-1.58,2.2-2.27,3.61-4.22,6.33-1.45,2.15-3,4.19-4.41,6.28-5,7.59-32.65,45.59-39,48.83-.38.47-.76.89-1.13,1.31l1.13-1.26c.32-2.93,6-13.14,7.88-17,2.58-5.39,5.23-11.31,7.88-16.85,2.9-6.23,13.17-28.84,13.36-35.28.25-2.83.38-.89-.57-1.47-3.21,3-39.71,49.62-43.56,52.81.95-14,1.89-28.05,2.65-42.08l-1.89,3c-6,10.78-18.53,29.73-26.28,39.36-2.52,3.4-5.11,6.8-7.69,10.21-5.92,7.59-8.38,11.67-15.51,19.68-2.77,3.09-5,6.18-8.07,9.21-.69.94.95.37-1.64,1.26,0-2.72-.13-.21.57-1.2,4.1-12.56,17.9-71.44,18.15-85.63-4.85,6.7-9.71,13.35-14.62,20C569.74,685,537.15,725.68,529,729c7.12-26.69,9-37.68,12.92-65,.82-6.86,2.52-16,2.58-22.66-.19-1,.13-.68-1-.52-1.07,5.34-28,45.59-34.67,54.33-1.39,1.73-2,2.88-3.4,4.4-2.33,2.67-7,9.47-11,11.78,1.13-5.39,8.57-19.26,11.09-24.81,3.72-8,7.75-16.12,11.41-24.13,3.53-7.59,19.79-43,19.48-50.14-.13,0-.19,0-.25-.05-1.32,1.57-1.83,3.4-2.84,5-4.35,7.43-18,26.69-23.26,32.92-1.76,2.15-1.89,2.46-3.59,4.81-2.58,3.61-23.2,30.15-25.09,31.3-2.84-6.44,1-10.21,3.4-14.55s4.6-8.48,6.93-12.77c5.23-9.58,6.43-11,11.22-18.89,6.68-11.25,11.66-17.9,18.15-30.78,8.19-16.38,5.48-14.92,9.77-27.95,4,9.37,2.21,14.6-.5,21.88,3.47-2.36,7.56-9.89,9-15.28,2-7.48,1.26-13.87,0-22.35,6.62,7.07,10,20.41,8,31l.69-.16a31.79,31.79,0,0,0,3.4-21.72c-1.77-9.42-5.17-12.93-9.27-19.31,16.77,11,21.05,23.45,18,44.59-.88,5.34-2.58,11.2-3.09,16.17,8.82-10,12.42-35.54,5.11-51.5-2.14-4.82-6.3-10.26-9.33-12.46-.76-.52-1.51-1-2.21-1.57,4.35-.52,1.07-.31,2.27.84,3.09,1.52,5.74,2.56,8.64,4.14,17.21,9.53,16.26,16.49,20,20.46.06-9.68-4.54-17.53-9.58-23.29-9.39-10.94-12.86-8.95-17.4-12.61,10-1.62,18.28,1.2,27.1,2-4.35-7.54-30.19-9.84-41.79-11.83-15.88-2.72-28.11-5.23-42.8-9.84-.76-.16-1.45-.31-2.14-.52a1.7,1.7,0,0,1,2-.26c8.13.52,24.46,4.34,32.27,2.72a2,2,0,0,1,.32-.47c-13.49-2.2-40.91-11.31-53.58-20.47-1.39-.68-.19,1.2-1.51-1.31a10.25,10.25,0,0,0,1.39.52c9.9,3.45,34.16,9.79,45.63,10a2.22,2.22,0,0,1-.13-.63c-3.78-.63-10.21-5.23-12.42-7.8,10.72.37,25.28.47,33-7.17,3.15-3.14,1.76-1.94,7.37-2.77,3.21-.47,6.37-1.2,9.52-1.78,6.18-1.15,11.66-1.78,16.14.47-5.8-8.9-14.37-2.41-26.47-4.76-2-15.91-21.94-5.08-38.2-18.06-5.8-4.61-24.71-23.19-24-35.07,6-3.61,5,2.09,17.27,12.77,3.66,3.19,14,12.93,19.73,11.78-.95-4.34-3.84-6-6.56-7.48-8.13-4.4-17.65-13.45-17.84-24.08,3.21,2,6.43,4,9.58,6,2.33,1.83,7.56,20.2,29.25,18.21,22.12-2,31.08-24.55,19.86-36.38-1.39-1.15,0,1.41-1.32-1.31,2.52-.84.5-.31,1.26.42,2.08.68,6.05,4.87,8.19,7.22,7.56,8.37,3.53,14.34-.38,21.2-2.14,3.66-1.64,6.33-4,10.1-3.21-1-3.91-2.25-8.57-2.56,1.39,2.93,3.66,4.34.95,6.59-5.55,4.66-18.72,2.36-23.83,2.62,1.26,4.82,3.78,7.33,9,6.39-.5-.73-1-1.52-1.45-2.3,9.83-3.3,25.78,1.26,35.42-1.67-3.15-1.1-5.67-1.36-6.68-4.5,2.9-5.39,7.56-3,11-.73s6.37,5,9.83,7.12c-1.76-6.75-15.51-12.35-19.6-17.69a2.16,2.16,0,0,0,.19-.47c.38-.84.76-1.73,1.2-2.62a11.35,11.35,0,0,1,1.64-2.72c7.37-9.32,5-9.79,16-10.68,7.06-.63,20,2.56,26.41,4.55,13,4,18.41-2.3,30.7-1.88,7.94.21,21.75,4.24,28.62-1.15-10.15.63-19-2.25-28.55-3.61-10.09-1.41-19.29,1.88-30.57-.58-7.37-1.52-19.29-5.76-24.14-9.32-13.49-9.84-8.07-6.33-23-11-7.5-2.36-18-6.33-26.85-5.81-21.68,1.15-44.94,2.67-66.5,7.64-10,2.25-18.22,9.84-26,11.2,8.57-13.45,23.64-22,44.56-27.06-9.39-6.44-40.09,3.24-47.65,10-.44.52,0,.79-1.07,1.15-2.14-2.35-.19-1.1-.19-1.2,5.17-14.66,30.63-29.68,45.89-34.81,13.8-4.66,16.26-2.62,23.57-4.19-22.57-8.69-41.35.89-60.51,7.64,1.45-11.93,15-26.64,24.71-33.86h0v-.05h.06l.06-.05.06-.05a2.67,2.67,0,0,1,.44-.31c2-1.52,8.82-6.49,11.54-7.9a28.18,28.18,0,0,1,4.29-2.09c-2.08,4.34-11.91,19.73-12.29,22.56,7.19-3.35,14.94-8.32,22.06-12.2,21.18-11.62,52.63-28.37,76.39-31C573.46,308.58,568.6,312.14,563.75,315.65ZM454.83,347.89c-3.59,4.82-16.89,24.86-15.19,35.17,0,2.56-.25.84.76,1.47,1.64-1.52,2.08-2.93,4.29-4.55a69.24,69.24,0,0,1,6.05-3.51c3-1.57,10.21-5.23,13.61-5.65.63-.73-.19-.47,1.13-.94,2.46-.89.76,0,1.51.26l-2.46.94c-14.75,7.54-31.64,24.08-28.74,43.7,2.27-1.57,13-13.19,20.8-14.5.57-.78-.06-1.26,2.08-.68-.76.26-1.51.47-2.21.68-3.53,2.67-7.06,5-10.27,8-2.9,2.83-6.49,6.23-7.56,10.26-7.38-1.62-26.79-16.38-31.83-27.16-2.71-5.71-1.39-7.38.5-11.72,3.34-7.69,10.84-21.15,18-25.33-1.45,4.82-4.54,9.94-3.21,16.28,2-.89,26-20.62,32.21-23.08,1.07-1.73.25-1.1,2.39-1.94C455.84,348.1,457.16,346.37,454.83,347.89ZM302,531.18c-2.9-1.67-5.92-14-6.56-16.8a63.05,63.05,0,0,1-1.7-19.37c2.14-31.3,20.49-56.58,45.38-75.42,1.51-1.1,3.47-2.83,5.55-4.24h0c2.58-2.83,11.41-6.7,11.72-6.8h0c11.72-6,27.1-15.65,41.1-19.21,2.33,5.08,9.9,13.19,13.43,17.11a73.39,73.39,0,0,0,16.2,13.4c14.43,9,28.68,7.28,40.47,14.92a80.41,80.41,0,0,1,16.07,13.61c2.4,2.56,5,5.29,6.3,9.11,3.53,10,13.8,16.7,24.27,20,8.64,2.72,14.88,1.88,22.82,3.45-4.73,5.7-20.11,2.51-26,.89-20.36-5.65-28.55-8.74-51.24-8.79-4.85.05-8.64-7.22-22.25-8.74a5.56,5.56,0,0,0,.06,1c3.4.79,6.11,3.14,8.89,4.76,1.39,1.31.25-1.88,1.32,1.83-2.14.31-.5.58-2.08-.42-8.82-.58-17.21-2.67-27-.1,3.66.78,7.31,1.57,11,2.3a44,44,0,0,1-11.16,2h-.19l-2.4.16c-.06,0-.06,0-.06-.05l-3.66.21h0c-7,.31-12.92-.1-20.23,1.57-5.8,1.36-14.18,5.5-18.59,6-11.41,1.41-24.65-4.55-35.74-3.82-12.23.79-27.73,7.54-31.77,15.65-3,6,0,12.61-2,17.8C301.22,520.77,302.42,523.12,302,531.18ZM520.7,413.63c3.21-2,22.5-2.77,27.92-2.46,10.4.68,15.06,23,.19,33.55C524.8,461.68,498.07,427.45,520.7,413.63ZM309.86,503c-.25-6.7,2.52-10,7.56-12.72,9.2-5,24.58-7.75,34.67-5.55,5.11.89,10.21,1.73,15.32,2.56-8.51,2.67-23.07.84-32.78,2.41C318.68,492.19,315.47,499.1,309.86,503Zm15.82.16c.25-1.41.38-1.47,1.64-2.72,2.21-1.73,4.41-3.51,6.68-5.29,14.5-9.26,23.07,1.1,41.35-7.54,4.35-2,53.7-10.31,61.52-11.36,5-.68,8.57.37,13.49.73s9.39-.42,14.43-.52c21.81-.52,31,2.72,50.11,8.64,17,5.23,19,.16,26.66-1,9.14,10-9.08,12.88-16.89,13.19-11,.37-18.53.42-28-2.67-8.32-2.77-15.38-6.28-23.38-9-7.56-2.51-20.61,1.31-29.88.73-6.05-.37-7.75-2.51-13-.21-4.29,1.94-8.32,3.56-12.67,5.44-21.31,9.16-9.64,4.08-28.49,5.7C373.84,498.68,338.73,506,325.68,503.18Zm156.57-7.69c.63.05,1.26.05,2,.05-.76.63.13.37-1.2.58-2.14.31.44.42-.76-.52-3.59.47-10.53-.26-15-.16-5.29.16-10.46.63-15.76,1.26,2.9,2.93,25.15,13.61,27,14.18s.38-1.1,1.32.47c0,.05-.76.79-.88.37-.06-.1-.25-.1-.38-.16-4.22-.21-8.38-.42-12.54-.68,1.39,1.67,4.35,3.35,6.24,4.87,11.6,9.37,36.12,17.22,50.87,19.63.82.31,1.64.58,2.46.84a15.09,15.09,0,0,1-3.34.42c-3,0-.82.05-1.83-.47-5.23,1.57-11,.21-16.14.05,2.21,2.51,10,7.48,16.26,14.5,4.35,4.87,10.21,11.51,12.42,18.48-3.91-3.66-7.82-7.38-11.66-11-9.83-8.9-26-22.77-36.87-29.78-13.3-8.58-25.91-17.32-41-24.13-2.52-1.15-12.92-5.34-14.5-6.59C446.26,492,466.43,491.2,482.25,495.49ZM479.54,729.6a1.79,1.79,0,0,0,.5.42c4-2.67,8.26-5.86,12-8.9,2.71-2.15,9.45-8.17,11.47-9.16a9.25,9.25,0,0,1,.38-1c.38-.31.76-.63,1.13-1-.25.42-.5.84-.76,1.2.06.94.25.63-.69.79-.5,7.07-25.34,45.8-30.76,50.51,1.2-7.38,2.71-11.2,2.14-19.84-.44-6.54-2.08-14.39-6.18-17.8-12.67,1.88-29.18,27.11-33.15,35.07a4,4,0,0,1-.76.05c2.9-12.51,10-28.47,15.51-38.47,4.92-9,14.94-26,21-33.92,2.27,5.81,2.58,12.56,3.15,18.95,2.77-2,11.72-14.29,14.5-17.9,2.21-2.88,11.53-16.23,13.93-17.69C495.3,690.51,487.42,710,479.54,729.6Zm-89.88-291c-2.21-3.56-17.84-14.29-24.08-14.34,1.58,4.45,6.74,8,10.46,9.37C380.58,435.4,385.5,437.18,389.66,438.6Zm13-9.21c-1.58-6.54-15.06-12.46-21.3-14.5-2.52-.84-7.44-.47-9.39-1.88.76-3.35,3.72-2,6.49-4.08-3.84-.21-14.18-.84-12.67,5,.76,2.62,8.76,6.07,11,7.22C383.16,424.67,392.11,432.21,402.64,429.38Zm141.44-4.14c1.76-13.35-18.91-15.39-20.67-2.36C521.65,436.82,542.26,439.48,544.09,425.25Zm-12.8,82.17c-.13.26-.25.47-.38.68,6.43,1.1,7.12,3.24,20.49,4.5,7.5.68,15.32.31,22.94.52-5.86,4-26.22,5.44-34.23,7.28,8.76,4.5,33.47,1.52,45.26.94,7.63-.42,15.82-.58,22.94.37a58.65,58.65,0,0,1,9.77,2.2c3.66,1.15,5.55,2.77,8.13,4-3.21-9.63-24.14-14.24-33.66-16.43-3.91-.89-10-1.57-13-3,13.93-4,27.61.73,36.05.94-2.84-5.08-14.31-7.69-20.93-9.89-1.2-.89-.32,1.31-1.13-1.26a18,18,0,0,0,1.83.52c12.73-2.41,38.89,3.72,49.1,7.64l.19-.94c-2.46-.89-6.05-3.25-9.39-4.81A81.79,81.79,0,0,0,602,493.19c-9-.21-18,.84-27.17,2-10.08,1.36-17.4,1.67-27.17,2.25,4.79,4.08,23.32,4.61,31.26,5.5C556.5,510.3,550.83,507.21,531.29,507.42Zm244.94-35.59c.32.58.57,1.15.88,1.67-.57-.31-1.07-.63-1.58-.89-19.73-16.7-59.38-26.85-87.24-24.39,9.64,7,14.75,4.87,34.1,24.55,13.49,13.61,16,20.15,25.21,35.75,2.21,2.2,2,3.66-.82,1.2-1.76-2.83-25-12.3-30.76-14.5-33.28-13.08-73-25.28-111-19.16,1,.37,2,.73,3.09,1.1,25.15,5.81,51.31,19.78,62.59,44.59-7.25-2-7.82-4.45-24.77-7.17-6.18-1-21.75-3.61-27.73-2.88,1.89,1.52,5.61,3,10,6.28,7.63,5.86,20.8,15.91,23.26,27.63a32.81,32.81,0,0,1-4.79-3.3c-11-8.37-30.82-11.15-44.31-8.53,21.68,6,49.54,9.89,61.33,32.35.69-.94.95,1.1.31-2-.76-6.33-7.63-21.15-10.65-26.27-8.13-14-12.61-16-15.32-20.15,14.43.94,36.62,13.29,48.6,21.83,2,1.47,3.59,3.19,5.74,4.24C686.66,529.77,666,501.3,654,492c-10.4-8.27-12.86-8.22-17.21-11.36,23.76-.21,73.5,22.14,96.25,32.14,9.64,4.5,19.35,9,29.12,13.4.57-.94.76,1.15.32-1.62-2.33-15.7-20.74-43.65-33.28-55.74-2.65-2.56-5-4.45-7.5-6.75-2.21-1.94-5.48-3.93-7.69-5.76,13.8-1,37.13,10.26,46,14.86,4.16,2.2,16.83,9.42,19.79,11.72,6.05,4.45,12.1,8.85,18.15,13.14-7.69-29.36-46.08-75-78.1-83a71.08,71.08,0,0,0,8.19,6.49C740.49,427.66,771.44,457.8,776.23,471.83ZM452,772.66c-7.09,12.43-12.2,25.94-13.66,40.3l-2.51,24.71-16.73-18.35c-8.32-9.13-8.31-31.44-6.85-43.32,2.63-21.32,11.1-43.41,20.87-62.43,4.6-9,9.73-17.48,14.76-26.18,5.12-8.87,11.21-16.41,16.83-24.84,15.18-22.74,37-44.33,45.87-70.52a52.65,52.65,0,0,0,2.07-6,5,5,0,0,0-.45-1.73c-8-20.46-28.4-34.31-46.85-44.53-16.63-9.2-34.37-17.27-51.65-25.22-1.2-.55-2.43-1.22-3.64-1.81-1.62.37-3.39.91-4.89,1.26-22.72,5.46-54.95,10.42-78.15,8.87-2.41-.16-4.73-.35-7-.72a25.82,25.82,0,0,0-.33,8.42,93.47,93.47,0,0,0,2.57,11c1.49,5.79,3.58,13.6,2.5,19.51l-1.8,9.82-10-.76c-8.62-.66-16.47-9.17-21.2-15.86-15.33-21.71-19.22-41.15-15.4-67.3,8.27-56.77,51.1-90.24,101.07-111.41,3-1.28,7.38-2.5,10.09-4.06a6.29,6.29,0,0,0,2-1.8c3.46-4.56,5.86-9.92,9.53-14.65,10.08-13,21.45-20.38,37.74-23.5l3.61-.69,3.31,1.6.1,0c1.16-.81,2.31-1.6,3.47-2.37C464,319,495.73,301.23,515.52,300.08l14.33-.83c24.74-10.77,62.13-22,88.07-19.27l35.28,3.72-6.83,3.74c5.57.56,11.09,1.31,16.51,2.21,11.49,1.9,48.18,9.55,56.47,15.58l15.24,11.09a192,192,0,0,1,32.61,15.16c9.6,5.69,18.73,12.24,27.85,18.67q1,.69,1.93,1.42c1.94,1.49,3.79,3.07,5.63,4.67a35.28,35.28,0,0,0,2.92,2.43l7.93,5.37-4.16,8.63-.19.39c25.56,14.81,58.62,46.3,64.71,75l3.82,18c7.71,10.94,13.9,22.57,13.81,31.95l-.11,12.5c1,1.44,2,2.93,2.92,4.48,8.8,14.18,18.42,39.84,20.66,56.38l2.38,17.51-15.23-5a182.62,182.62,0,0,1,9.34,31.39c4.87,24.79,3.21,49.42-2.61,73.9-3.07,12.92-10.54,35-17.58,46.07L883.11,748l-9.71-11.52c-2.39-2.84-2.6-5.78-3-9.12-.39-2.93-.75-5.86-1.12-8.79-1.09-8.72-2.15-17.43-3.26-26.15-.83-6.55-1.67-13.1-2.58-19.64A214.62,214.62,0,0,1,845.89,706c-1.7,2.53-3.33,5.25-5.27,7.59-1.72,2.07-3.63,4-5.29,6.07a133.1,133.1,0,0,1-34.05,29.88l-1.24.75-1.27.37a11.2,11.2,0,0,1-15.21-9.88l-.26-2.15.61-2.15c1.44-5.06,4.27-11,6.37-15.88l3.43-8-2.63,2.51c-4.77,4.56-9.65,9-14.57,13.38-19.29,17.25-39.1,33.88-58.72,50.75l-3.12,2.68h-4.11a11.39,11.39,0,0,1-7.4-2.61l-6.79-5.64,4-7.88q11.16-22.17,22.16-44.42l-2.37,2.47q-9.81,10.18-19.68,20.31-6.74,6.92-13.51,13.81c-2.18,2.21-6.06,6.5-8.59,8.15l-22.79,14.81,5.92-26.53c.67-3,1.76-6.22,2.68-9.17,1.49-4.77,3-9.52,4.54-14.28q1.39-4.34,2.8-8.67c-4.11,4.29-8.31,8.45-12.47,12.42-11.48,11-24.9,22.9-38.33,31.42l-13.64,8.65L603.87,759c-.09-.44-.15-.86-.2-1.3l-.7-3.48,1.8-3.47c1.35-2.6,3-5.11,4.61-7.59l-10.64,3.77,1.07-5.42-.42.48c-1.29,1.45-2.79,2.74-4,4.21-6.38,7.61-21.28,22.59-29.76,27l-19,9.93,2.81-21.22a155.08,155.08,0,0,1,3.34-15.56q1.82-7.46,3.73-14.89c-14.47,15.66-33.89,34.77-43.9,38.22l-5,1.72-4.49-2.8a17.12,17.12,0,0,1-1.9-1.34l-5.72-4.74c-9.75,14.13-22.2,29.93-30.87,35.51l-24.4,15.72,7.69-28C449.19,781.35,450.65,777,452,772.66ZM598.37,100.27c-127.27,0-216.53,7.27-338.22-33.9L167.52,188.2s80.13,105.11,47.87,227.91-88.43,362,6.77,455.29C294.35,942.1,419.39,1009,509.82,1057.12c43.84,23.33,78.07,54.62,88.55,65.09,10.47-10.47,44.7-41.76,88.54-65.09,90.44-48.11,215.47-115,287.65-185.72,95.21-93.26,39-332.49,6.77-455.29s47.87-227.91,47.87-227.91L936.58,66.37C814.9,107.55,725.63,100.27,598.37,100.27Z"/><path class="cls-3" d="M266.56,87,189.29,188.61c12.27,18.79,23.25,41.85,30.68,61.2,21,54.61,27.41,113.71,12.42,170.76C204.23,527.78,144.82,771,234.47,858.84c40.54,39.71,92.68,74,141.15,103.34,46.55,28.15,94.45,53.88,142.46,79.43a419.22,419.22,0,0,1,80.29,56.4,419.24,419.24,0,0,1,80.29-56.4c48-25.54,95.9-51.28,142.46-79.43,48.47-29.3,100.61-63.62,141.15-103.34,89.65-87.82,30.24-331.06,2.07-438.27-15-57.06-8.57-116.16,12.43-170.77,7.43-19.34,18.41-42.4,30.68-61.19L930.17,87c-50.44,16-100.34,25.24-153.52,28.94-59.12,4.11-119,1.94-178.28,1.94S479.21,120,420.09,115.91C366.91,112.21,317,103,266.56,87m690.25,647.4-11.12,10.8c3.82,5.74,4.21,4.28,10.71,1.78C959.28,739.6,960.92,739.15,956.81,734.37Zm-191,150.76a16.67,16.67,0,0,0-9.1,11.39q-2.23,9.51,4.8,23.09,6.89,13.28,16.36,17.5a16.13,16.13,0,0,0,14.62-.55,17.11,17.11,0,0,0,9.37-11.89q2.07-9.37-4.55-22.13-5.1-9.82-11.56-15a19.08,19.08,0,0,0-10.08-4.45A17.59,17.59,0,0,0,765.77,885.14Zm-103.89,91a45.74,45.74,0,0,0,10.47-.62c5.41-1,9.31-2.92,11.72-5.86a11.63,11.63,0,0,0,2.64-9.78,13.41,13.41,0,0,0-3.14-6.46,13.1,13.1,0,0,0-7.19-4,27.5,27.5,0,0,0-11.08,0c-1.85.33-3.43.64-4.74.93a24.07,24.07,0,0,0-3.12.89Zm-5.18-29a34.13,34.13,0,0,0,3.88-.2c1.44-.15,3-.38,4.71-.68,4.36-.78,7.56-1.82,9.58-3.16a10.64,10.64,0,0,0,4.27-5.23,12.29,12.29,0,0,0,.61-6.67,11.81,11.81,0,0,0-6-8.31q-5-3-13.35-1.5a31,31,0,0,0-7.9,2.42Zm-145.49,4.65L507,925l-16.38,21.64Zm-115-89.41a16.28,16.28,0,0,0-14.45-2.43q-9.45,2.79-17.78,15-8.54,12.48-7.8,22.84a16,16,0,0,0,7.32,12.52,17.9,17.9,0,0,0,15.68,2.5q8.5-2.4,16.75-14.45,8.93-13.06,8.18-23Q403.51,867.3,396.24,862.32Zm-157-127.84,11.12,10.8c-3.82,5.74-4.21,4.28-10.71,1.79C236.74,739.7,235.11,739.25,239.21,734.48Zm23.54,46.26,3.15-15.23L257,784.42l-7.78,5,1-31.69L236.38,786.4l3.69-30.66-14.54,17.85,6.54-31.07-13.68,14.15,4.66-27.79c-10.62,13.76-13.44,9.35-14.1,2.59a2.74,2.74,0,0,0,2,1.18c2.32.22,5-2.35,5.92-5.76.83-3.07-.08-5.8-2-6.41a52.59,52.59,0,0,1,9.24-7.69c7.06-23.3,14.84-43.35,24.08-57-8.93,21.84-12.79,35.33-16.11,55.46l9.41,13.61c2.33-4.09,10.78-14.65,18.43-18.89-4.3,5.57-9.8,20.16-11,28.95l10.5,7.49c7.43,5.51,14.91,11,22.32,16.5l7.49-19.68c-.64,8,1,15.61.38,23.6l.38.36Zm29.44,72.69,21.12-53.08L283.47,828.8c-2.74,2.62-4.17,4.54-4.29,5.79-.15,1.69.62,3.42,2.29,5.17l1.5,1.57-1.21,1.16L266.94,827l1.21-1.16,1.5,1.57q2.7,2.83,5.56,2.38c1.16-.18,3-1.48,5.49-3.86l29.18-27.82a14.14,14.14,0,0,0,3.66-4.74,5.08,5.08,0,0,0,0-3.22,12.63,12.63,0,0,0-3.14-4.58l1.23-1.17L323.66,797l-19.5,49.52,50.14-17.39,12.06,12.64L365.13,843l-1.48-1.55q-2.73-2.87-5.57-2.42c-1.17.19-3,1.47-5.51,3.86L323.4,870.68c-2.74,2.62-4.15,4.56-4.25,5.83q-.22,2.53,2.28,5.16l1.48,1.55-1.21,1.16-18.09-19,1.21-1.16,1.51,1.58q2.73,2.87,5.56,2.38c1.16-.18,3-1.48,5.49-3.86l29.84-28.46-54,18.61Zm106.63,6.64q9.92,6.79,12,19.28t-5.59,23.76q-7.95,11.61-20.51,14.25a29.65,29.65,0,0,1-35.52-24q-2-12.37,6.08-24.24,8.3-12.13,21.8-14.14A29.55,29.55,0,0,1,398.81,860.07Zm75.72,42.71L413.73,939l23.06,10.41q5.31,2.4,9.19,1.35c2.6-.7,5.7-3.07,9.29-7.14l1.26.86-9.37,13.7-45.79-20.67.69-1.53,59.26-35.06-18-8.12q-4.48-2-6.93-2a7.61,7.61,0,0,0-4.35,1.44c-1.26.91-2.94,2.92-5,6l-1.57-.71L432.94,884Zm37.11,52.52-23.19-5.71L482.06,958a15.17,15.17,0,0,0-2.79,4.85,3.13,3.13,0,0,0,.71,2.72c.7.91,2.46,1.82,5.31,2.75l-.4,1.63L466,965.34l.4-1.63c2.61.16,4.37,0,5.28-.54,1.85-1,4.22-3.5,7.11-7.38L512,911.68l1.54.38,8.58,55q1,6.64,2.65,8.92a9.67,9.67,0,0,0,5.23,3.43l-.4,1.63L506,975.18l.4-1.63c2.41.47,4.13.46,5.14,0a3.13,3.13,0,0,0,1.88-2.16c.32-1.3.22-3.48-.27-6.58ZM579.71,985l-21.85-52.79-1.57,41.21c-.14,3.79.17,6.16,1,7.14,1.07,1.31,2.83,2,5.25,2.11l2.17.08-.06,1.68-21.45-.81.06-1.68,2.17.08c2.61.1,4.48-.62,5.65-2.16.7-.94,1.11-3.14,1.25-6.59L553.82,933a14.14,14.14,0,0,0-.68-5.95,5.09,5.09,0,0,0-2.26-2.29,12.64,12.64,0,0,0-5.44-1.09l.06-1.69,17.46.66,20.53,49.1,23.84-47.42,17.46.66-.06,1.69-2.14-.08c-2.64-.1-4.53.62-5.68,2.15-.7,1-1.13,3.14-1.26,6.6l-1.53,40.29c-.14,3.79.2,6.16,1,7.14q1.6,2,5.24,2.11l2.14.08-.06,1.68-26.2-1,.06-1.68,2.19.08c2.64.1,4.52-.62,5.65-2.16.7-.94,1.11-3.14,1.25-6.59L607,934.05l-25.75,51Zm100.9-39.66q6.57.2,10.23,2.61a13.59,13.59,0,0,1,6.14,9.3,15.28,15.28,0,0,1-1.33,9.18,16.58,16.58,0,0,1-6.78,7.44q-4.66,2.8-14.9,4.63L645.3,983.6l-.29-1.65,2.28-.41q3.81-.68,5-3.41c.5-1.16.46-3.44-.15-6.85l-7-39.25q-1-5.64-2.57-6.88a6.69,6.69,0,0,0-5.55-1l-2.28.41-.3-1.67,26.24-4.68a52.45,52.45,0,0,1,12-1q7,.41,11.28,3.87a14.25,14.25,0,0,1,5.22,8.8,13.3,13.3,0,0,1-1.31,8.67A16.64,16.64,0,0,1,680.6,945.31Zm64.72,11.84.54,1.59-25.06,8.45-.54-1.59,2.08-.7q3.62-1.22,4.54-3.89c.38-1.15,0-3.49-1.19-7L713,916.24a20.57,20.57,0,0,0-2.53-5.67,4.15,4.15,0,0,0-2.39-1.26,8.61,8.61,0,0,0-4.32.31l-2.08.7-.54-1.6,25.06-8.45.54,1.6-2.12.71c-2.38.8-3.88,2.1-4.5,3.86-.41,1.17,0,3.5,1.15,7L734,951.23a20.58,20.58,0,0,0,2.53,5.67,4.12,4.12,0,0,0,2.44,1.24,8.37,8.37,0,0,0,4.28-.28Zm55-22q7.81,5,14.33,5.84a24.22,24.22,0,0,0,12.87-1.81l.67,1.3a49.88,49.88,0,0,1-13.08,3.93,57.93,57.93,0,0,1-15,.58,66.4,66.4,0,0,1-13.78-2.61,43.73,43.73,0,0,1-11.78-.19A30.6,30.6,0,0,1,762,936.51a35,35,0,0,1-9.74-12.09q-6.37-12.28-2.63-24.53a29.31,29.31,0,0,1,15.07-18.11q10.73-5.57,22.82-1.51T806,896.73a32.67,32.67,0,0,1,3.56,20.55A31.1,31.1,0,0,1,800.33,935.13Zm30.16-96.38-1.05-1.32,17.09-13.62,1.06,1.32-1.82,1.45a6.25,6.25,0,0,0-2.48,5.86c.09,1.14,1.19,3,3.33,5.73l15.59,19.57q5.79,7.27,7.54,12.4a18.1,18.1,0,0,1-.18,11.39q-1.95,6.23-9.2,12-7.91,6.3-14.18,6.81a18.92,18.92,0,0,1-11.67-2.74q-3.66-2.27-10.62-11l-15-18.86c-2.36-3-4.31-4.59-5.87-4.85s-3.24.32-5.06,1.77l-1.82,1.45-1.06-1.32,20.86-16.62,1.05,1.32L815.13,851c-2,1.59-2.93,3.35-2.78,5.29.08,1.32,1.21,3.34,3.36,6l16.76,21a59.81,59.81,0,0,0,5.64,6,17.73,17.73,0,0,0,6.38,4.17,12.93,12.93,0,0,0,6.56.23,17.09,17.09,0,0,0,7.3-3.65,22,22,0,0,0,6.82-8.81,14.12,14.12,0,0,0,.9-9.36q-1.2-4.31-7.32-12l-15.57-19.55c-2.4-3-4.24-4.62-5.5-4.86a6.72,6.72,0,0,0-5.38,1.72ZM867,807.46l18.46,15.93,8.86-10.27q3.45-4,3.41-6.37c0-2.11-1.31-4.37-3.86-6.82l1.1-1.27,16.27,14-1.1,1.27a23.61,23.61,0,0,0-5.21-2.81,5.71,5.71,0,0,0-3.65.4,13.69,13.69,0,0,0-4.44,3.74l-8.86,10.27,15.41,13.29a19.47,19.47,0,0,0,4,3,2.94,2.94,0,0,0,1.9,0,7.93,7.93,0,0,0,2.65-2.29l6.84-7.93a27.82,27.82,0,0,0,4.41-6.23A11.21,11.21,0,0,0,924,820a35.12,35.12,0,0,0-2.67-9.93l1.19-1.38,8.25,14.13-31.06,36-1.27-1.1,1.43-1.66a8.64,8.64,0,0,0,1.9-3.82,3.84,3.84,0,0,0-.35-2.93,21.94,21.94,0,0,0-4.18-4.28L866.83,818.9c-3-2.56-5-3.83-6.25-3.83q-2.44,0-4.94,2.94l-1.43,1.66-1.28-1.11,31.06-36,10.68,8.31-1.17,1.35a21.15,21.15,0,0,0-6.44-2.76,7.26,7.26,0,0,0-4.35.78,20.75,20.75,0,0,0-4.71,4.41Zm66.33-26.82-3.15-15.22,8.87,18.9,7.78,5-1-31.69,13.91,28.66L956,755.63l14.55,17.85L964,742.41l13.69,14.15L973,728.76c10.62,13.75,13.45,9.35,14.1,2.59a2.74,2.74,0,0,1-2,1.18c-2.32.23-5-2.35-5.92-5.76-.83-3.07.07-5.8,2-6.41a52.57,52.57,0,0,0-9.25-7.69c-7.07-23.3-14.85-43.34-24.1-57,8.94,21.84,12.8,35.33,16.13,55.46l-9.4,13.61c-2.33-4.09-10.79-14.65-18.43-18.88,4.3,5.57,9.81,20.16,11,28.94l-10.5,7.49c-7.43,5.51-14.9,11-22.31,16.51l-7.5-19.68c.64,8-1,15.61-.38,23.6l-.38.36Zm-319.83,7.6c-.1.1.28.28.3.3ZM296.72,196.48h3.68c3.56,0,6.15-1.14,7.79-3.46s2.44-6,2.44-10.87-.75-8.37-2.27-10.5-4.06-3.15-7.62-3.15h-4Zm0,46.9H301c4.08,0,7-1.33,8.77-4s2.64-7,2.64-13c0-5.54-.94-9.62-2.79-12.27s-4.78-4-8.72-4h-4.21Zm-31,14.69V243.23h3.38c2.22,0,3.68-.39,4.38-1.22s1.05-3.15,1.05-7v-57.9c0-4.06-.33-6.58-1-7.51s-2.16-1.4-4.54-1.4h-3.27V153.43h40.47q13.18,0,19.31,6t6.15,18.67a30,30,0,0,1-3.58,15,23.52,23.52,0,0,1-10.33,9.67q8.77,3,13,9.52t4.28,17.13q0,15.37-6.88,22t-23.07,6.66ZM376,209.41l-6.12-31.69-5.73,31.69Zm79.6-56q14.13,0,20.75,7.07t6.6,22.1c0,10.06-2.19,17.42-6.58,22.12s-11.31,7-20.77,7H442.68v22.46c0,4.08.33,6.58,1,7.54s2.17,1.46,4.48,1.46H452v14.85H373.48V243.23h3c2.56,0,4.11-.21,4.68-.65a3,3,0,0,0,.85-2.47,21.25,21.25,0,0,0-.12-2.34c-.08-.73-.18-1.46-.32-2.16l-2.41-11.21H361.08l-2.11,10c-.35,1.53-.6,2.73-.72,3.59a15.39,15.39,0,0,0-.2,2.37,2.39,2.39,0,0,0,1.22,2.13,6.74,6.74,0,0,0,3.48.75h3.32v14.85H336V243.23h2.49a5.09,5.09,0,0,0,4.29-2.52c1.15-1.66,2.16-4.42,3-8.22l17.68-79.06h24.33l15.76,78.75c1.09,5.17,2.05,8.32,2.94,9.41a5.17,5.17,0,0,0,4.26,1.64h4.11c2.36,0,3.86-.49,4.53-1.46s1-3.46,1-7.54V177.12c0-4.06-.33-6.55-1-7.49s-2.16-1.4-4.54-1.4H411.5V153.43Zm-12.83,45.39h4.41c4.63,0,7.9-1.17,9.82-3.54s2.89-6.34,2.89-11.93c0-5.28-.92-9-2.74-11.18s-5-3.28-9.59-3.28h-4.79Zm65.63-29c-3.68,0-6.5,1.95-8.45,5.82s-2.94,9.54-2.94,17V193h-9.94v-39.6h70.77V193H548v-.44q0-11-3-16.9c-2-3.93-4.83-5.88-8.54-5.88h-2.94v64.42c0,4,.35,6.53,1,7.51s2.21,1.48,4.59,1.48h5.63v14.85H500.57V243.23h5.25q3.38,0,4.46-1.25c.72-.86,1.07-3.43,1.07-7.75V169.81Zm93.45-16.38V168.2h-3.27c-2.42,0-4,.49-4.63,1.48s-1,3.46-1,7.44v57.12c0,4,.35,6.53,1,7.51s2.21,1.48,4.59,1.48h3.27v14.85h-40V243.23h3.33q3.53,0,4.56-1.48c.68-1,1-3.48,1-7.51V177.12c0-4-.33-6.45-1-7.44s-2.19-1.48-4.58-1.48h-3.33V153.43Zm36.92,0,24.78,70.46V177.12c0-4.21-.35-6.76-1.05-7.62s-2.19-1.3-4.48-1.3H654.2V153.43h29.57V168.2h-2.41c-2.34,0-3.86.47-4.53,1.4s-1,3.46-1,7.51v81H652.78l-26.15-75v51.19c0,4.08.33,6.58,1,7.54s2.19,1.46,4.53,1.46h3v14.85H605.5V243.23h3.27q3.58,0,4.61-1.48c.68-1,1-3.48,1-7.51V177.12c0-4-.33-6.45-1-7.44s-2.21-1.48-4.63-1.48H605.5V153.43Zm118.91,0v39H747a102.17,102.17,0,0,0-2.17-11.88,24.1,24.1,0,0,0-2.82-6.86,11.21,11.21,0,0,0-4.65-4.24q-2.76-1.25-8.87-1.25H717.87v28.73h2.59q4.56,0,6.4-3.43c1.22-2.29,1.84-6.34,1.84-12.19v-.91h8.42v47.76H728.7c-.13-7.31-.73-12.06-1.84-14.25s-3.19-3.28-6.3-3.28h-2.69v32.6h11.9c4.61,0,7.79-.44,9.52-1.3a8.62,8.62,0,0,0,4-4.42,40.6,40.6,0,0,0,2.47-9.1,108.11,108.11,0,0,0,1.2-13.52h11.06v43.18h-71V243.23h3.37c2.22,0,3.68-.42,4.38-1.22s1.05-3.15,1.05-7v-57.9c0-4.06-.33-6.58-1-7.51s-2.16-1.4-4.54-1.4H687.1V153.43Zm108.35,0V196.3H855.13a116.49,116.49,0,0,0-1.05-12.61,35.49,35.49,0,0,0-2.17-8.27,11.71,11.71,0,0,0-4.44-5.59q-2.71-1.64-10.39-1.64h-8.62v28.73H831c3,0,5.16-1.14,6.38-3.43s1.84-6.34,1.84-12.19v-.91h8.42v47.76h-8.42c-.13-7.31-.74-12.06-1.84-14.25s-3.17-3.28-6.28-3.28h-2.69v23.61c0,4.32.35,6.89,1.05,7.75s2.17,1.25,4.43,1.25h3.73v14.85h-40V243.23H801c2.22,0,3.68-.42,4.38-1.22s1.05-3.15,1.05-7v-57.9c0-4.06-.33-6.58-1-7.51s-2.16-1.4-4.54-1.4h-3.27V153.43Zm73.38,64.11q-.4,21-8.54,32.34t-23,11.31q-17.42,0-26.8-14.35t-9.37-41q0-25.23,9.71-40.38t26-15.16a28.33,28.33,0,0,1,10.16,1.79,29.3,29.3,0,0,1,9,5.51l1.72-5.77h10.91v43.11h-12q-1.75-15.09-5.38-21.92T912,166.2q-7.09,0-10.33,9.33t-3.22,30q0,21.33,3.33,30.7t10.83,9.36q6.79,0,11.16-7.57t4.9-20.46ZM434.85,352.18c-1,1.15,1.64.52-1.45,1,.25-.52.5-1,.82-1.57,1.89-3,3.66-5.44,6.56-7.43-.82-.31-1.64-.63-2.4-1-15.82,3-24.2,10.68-31.07,19.42-3.78,4.92-6.3,10.42-9.45,14.55-4.35,5.76-9.08,6.18-16.58,9.37-47.53,20-86.8,51-94.42,102.79-3.4,23.6-.13,40,13.49,59.3,3,4.19,8.89,10.89,13,11.2,1-5.5-4.29-20-5.17-27.22-1.13-9.58,1.39-16.23,4.1-23.4,5.67,1.36,4,2.56,15,3.3,20.93,1.41,54-3.61,74.82-8.58,10.84-2.62,7.31-2.62,15.76,1.26,16.2,7.48,37.32,17.22,52.38,25.59C490.82,542.17,512.88,557.56,522,581c2.58,6.59.57,9.32-1.45,15.34-9.58,28.05-31,48.94-47.15,73.12-5.48,8.22-10.72,14.45-16.45,24.23-4.92,8.64-9.58,16.12-14.5,25.7-9,17.43-17.21,38.68-19.73,58.72-1,8.32-1.26,28.68,4,34.49,2.27-22.35,12.1-42.45,24.39-59.14,2.21-3.14,11.09-13.92,13.8-15.7,7.82,12.88-3.4,39.1-6.87,51.71,11-7.07,32.34-38.57,39.14-50.35,5.23-9.37,10.59-18.74,15.88-28.11,3.09-5.65,12.23-26.12,16.51-27.53.38-.52.76-1.1,1.2-1.67-.44,2.83-.25,1.31-.95,2,.88,8.85-10.78,46.16-15.06,57.83-2.33,6-4.66,11.88-7.06,17.8a6.7,6.7,0,0,0,.69.47C518.81,756.4,551,722,562.36,708.2c5.17-6.33,10.34-12.72,15.63-19.1.13,4.08-16.64,64.12-18.09,75.05,6.49-3.4,21.24-18.11,26.41-24.34,1.64-1.94,2.65-2.67,4.22-4.45,5.74-6.44,32-37.68,33.47-42.76.25-.42.63-.89.95-1.36.63.63.63.42.25,1.26-1.7,12.72-10.84,30.57-12.35,38.21,10.34-3.66,34.73-37.21,38.89-40-2.27,7.85-26.6,48.26-32.65,57.73-1.58,2.46-3.84,5.86-5,8.17.06.31.06.63.13.94C634,745,665.61,714.84,680.61,694.8c5.61-7.54,8.13-10.68,13.24-18.84,1.45-2.25,2.58-4.66,4.16-6.54-.5,5.5-10,36.69-12.42,44.28-2.21,7.12-12.92,39.67-13.87,43.91,1.45-.94,35.93-36.59,39.84-40.67q25.72-26.54,51.18-53.44-25.72,54-53.07,108.08a.55.55,0,0,0,.32.05C729.34,755,748.81,738,768.54,721c4.85-4.5,9.33-8.32,14.31-13.14,12.1-11.41,23.45-22.19,33.53-35.12,1.83-2.46,4.22-5.6,6.18-7.85-1.89,16.7-26.22,67.2-28.55,75.37.13,1-.13.84.95.52a120.44,120.44,0,0,0,31.14-27.32c2-2.41,3.09-3.51,5.42-6.23,1.26-1.57,3.15-4.45,4.6-6.7,10.78-15.39,26.35-49.72,27-68.09.63-1.88.13-.52.95-1.47a11.5,11.5,0,0,0,.76,1.1c2.14,7.8,4.35,15.55,6.3,23.29,2.33,11.41,9.71,74.22,10.15,74.74,5.92-9.26,13.49-31.77,16.14-42.66,6-25.75,6.63-48.26,2.52-69.19-4.14-21.09-12.86-40.88-23.76-61.45,1.89.58,4.22,2.77,6.68,4.14s4.29,3.09,6.68,4.55c4.1,2.3,10.59,7.12,13.8,8.16-2.08-15.34-11.66-40-19.1-52-10.84-17.48-20.8-23.61-31-36.85,1.89.47,24.08,12.82,26.54,13.92.13-14-23.7-41.09-33.41-51.71-4.35-4.87-10-10-13.36-14.6-1.26-.84-.44,1.78-1.2-1.26,3.15.26,1.26,0,2.21,1q12.29,8.32,24.77,16.49c1.45.89,2.21,1.68,3.59,2.46-5.48-25.86-38.32-56.26-61.65-69-4.66-2.56-8.26-5-13.43-7.54-3.15-1.62-10.91-5.86-14.12-6.59a3.53,3.53,0,0,1-1.39-.47c.13-.1.25-.31.31-.37a1.45,1.45,0,0,0,.32-.16c.06-.05.38.16.38,0s.25.05.38.1q12.58,1.18,25.15,2.2c.13-.21.25-.47.38-.73-2.4-1.62-6.37-5.65-10.65-8.64C766,344.17,753.79,335.75,726,326c-6.62-2.25-21.87-6.75-29-7.33,5-1.2,10.15-2.46,15.25-3.72-5.61-4.08-41.6-11.93-51.75-13.61-14.18-2.36-30.07-3.77-44.75-2.83-5.8.37-12,1.78-17.33,2,4.85-4.24,11.85-5.55,17.78-8.79-24.33-2.56-62,9.21-85.22,19.63-7.94,3.61-16,8.85-23.13,11.83,1.13-2,2.65-3.45,4-5.44s2.46-3.87,3.72-5.86c-17.08,1-47.84,18.32-62.65,28.21C447.14,344,440.65,348.89,434.85,352.18Zm190.74-24.86c27.1,1.83,78,10,104.7,19.68,3.59,1.36,10.46,4.81,12.86,5.23,1.45.58.63-1.47,1.2.63-.57.73.69,1.94-1.83.52-8,.68-28.18,3.66-33.22,8.69,7.75,3.4,15.51,6.75,23.32,10.1,21.94,9.89,46.71,22.35,63.16,38.63.88.68.13-1.1,1.13,1.2l-1.13-.16c-8.26-1.57-29.06-5.71-37.13.63-.06,4.5,3,4.76,6.55,6.23,14.62,6.18,45.32,14.45,53.14,29.26,1.2,1,.44-1.62,1.07,1.47-.5-.31-1-.58-1.45-.89-7.44-3.19-30.7-6.12-40.72-4.71,4.48,12.93,69,55.64,75.26,78.56-5-1.31-18-15.81-51.94-7.07,1,2.41,5.29,5.65,7.37,7.69,6.3,6.28,15.38,16.28,20.49,23.29,5.61,7.43,21.56,29.62,14.81,41.35-2.46-3.19-4.35-6.18-7.19-8.9a54.88,54.88,0,0,0-8.45-6.59c-4.41-3.19-13.36-8.48-22.06-7.43,11.41,4.08,34.54,25.59,38.45,36.74a15.21,15.21,0,0,0,1.58.05c6.43-19.21,6.24-29.89-4-48.1-4.41-7.48-28.18-33-28.3-34,1.13-.05,2.27-.05,3.47-.05,9.08-2,20.11,1.78,26.16,4.5,14.5,6.44,11.09,6.59,19.29,11.83,1.26.73-.19.1,1.45.68-3.28-19.21-22.63-39.67-33.41-49.67-7.19-6.8-13.87-12.93-21-19.1-6.37-5.34-12.73-10.78-19.1-16.23-1.83-1.47-1.45-.26-2.4-2.51,7.88-.16,13.43,0,20.61,1.73a43.47,43.47,0,0,1,8.76,3c2.27,1,6.3,3.45,7.75,3.77-1-15.34-16.58-24.91-24.9-29.26a120,120,0,0,0-18.28-7.64c-5.74-1.88-16.58-3.93-18.41-6.91,11.16-3.25,24.52.16,34.67,3.56,2.21.73,8,3.51,9,3.61a5.53,5.53,0,0,1,.63-.37c-6.68-18.06-44.44-39.52-61.9-47.58-8-3.51-15.95-7.07-23.89-10.68,9.58-5.65,23.26-4.29,33.72-4.13-3.85-5.7-16.2-11.57-24.2-14.66-21.81-8.64-51.18-14-75.13-16.7a7.5,7.5,0,0,0-1.13-.1h0C654.39,326.48,634.85,324.81,625.59,327.32Zm-61.83-11.67c.19,1.2-.13.94,1.13.84,34.67-8.06,70.91-13.77,106-4.66,4.22,1.1,8.19,2.93,11.72,4-2.4,2.25-8,2-10.65,4.34,18.15,3,79.86,23.71,94.86,36,1.7,1.31,3.53,2.15,5.11,3.56a8.71,8.71,0,0,0,.82,1.2,13.38,13.38,0,0,1-1.58-.37c-9.9,1-19.73,2.09-29.56,3.09,2.65,2.3,9.64,5.29,13.36,7.12,4.85,2.36,9.08,4.29,14.06,6.86,21.87,10.78,64.61,34.39,72.87,52.5-2.14-.73-4.79-2.46-7.25-3.72-4.6-2.25-17.27-8.85-21.49-8.69,2.84,6.8,23.83,32.45,30.7,41.14,2.52,3.09,8,9.58,9.9,13,.32.47.63.94.95,1.36a6.92,6.92,0,0,1-1.45-.63c-6.81.31-27.23-11.41-31.77-12.77,4.85,11.57,58.56,65.69,66,92.27a7.2,7.2,0,0,1-1.32-.58l-1.13-.68c-2-.94-3.91-1.94-5.8-2.93-4.6-2.62-20.74-9.47-25.53-10.73q7.75,16.64,15.38,33c9,21.15,32.27,92.38,19.79,111a170.79,170.79,0,0,0-10.46-47.58c-3.28-8.16-14.81-33.29-19.73-39.62q-1.7,15-4,30c-3.28,18.06-9.2,38.47-17.9,55.79-3.66,7.33-11,18.95-16.77,23.13,1.39-5.6,5.48-14.34,7.44-20.88,4.92-17.64,13.17-51.55,13.43-67a2.2,2.2,0,0,1-.63-.1c-1.58,9.21-13.24,25.8-19.16,34.65a282.94,282.94,0,0,1-18.78,23.13c-2.33,2.46-4.6,4.92-6.87,7.38-8.57,9.37-48,48.89-59.63,55.58,2.4-4.13,4.92-8.37,7.31-12.61,10.4-19.58,36.94-78,38-92.69-13.87,14.86-28,29.62-42.17,44.28-3.85,3.93-40.15,41.66-43.43,43.7-.5,1.31.88.37-1.07,1.36a11.16,11.16,0,0,1,.82-1.47c0-3.61,17.65-67.78,19.86-77,1.39-5.86,5.23-20.26,5.36-25.07-1.39,1.83-20,32.19-25.15,39.31-1.58,2.2-2.27,3.61-4.22,6.33-1.45,2.15-3,4.19-4.41,6.28-5,7.59-32.65,45.59-39,48.83-.38.47-.76.89-1.13,1.31l1.13-1.26c.32-2.93,6-13.14,7.88-17,2.58-5.39,5.23-11.31,7.88-16.85,2.9-6.23,13.17-28.84,13.36-35.28.25-2.83.38-.89-.57-1.47-3.21,3-39.71,49.62-43.56,52.81.95-14,1.89-28.05,2.65-42.08l-1.89,3c-6,10.78-18.53,29.73-26.28,39.36-2.52,3.4-5.11,6.8-7.69,10.21-5.92,7.59-8.38,11.67-15.51,19.68-2.77,3.09-5,6.18-8.07,9.21-.69.94.95.37-1.64,1.26,0-2.72-.13-.21.57-1.2,4.1-12.56,17.9-71.44,18.15-85.63-4.85,6.7-9.71,13.35-14.62,20C569.74,685,537.15,725.68,529,729c7.12-26.69,9-37.68,12.92-65,.82-6.86,2.52-16,2.58-22.66-.19-1,.13-.68-1-.52-1.07,5.34-28,45.59-34.67,54.33-1.39,1.73-2,2.88-3.4,4.4-2.33,2.67-7,9.47-11,11.78,1.13-5.39,8.57-19.26,11.09-24.81,3.72-8,7.75-16.12,11.41-24.13,3.53-7.59,19.79-43,19.48-50.14-.13,0-.19,0-.25-.05-1.32,1.57-1.83,3.4-2.84,5-4.35,7.43-18,26.69-23.26,32.92-1.76,2.15-1.89,2.46-3.59,4.81-2.58,3.61-23.2,30.15-25.09,31.3-2.84-6.44,1-10.21,3.4-14.55s4.6-8.48,6.93-12.77c5.23-9.58,6.43-11,11.22-18.89,6.68-11.25,11.66-17.9,18.15-30.78,8.19-16.38,5.48-14.92,9.77-27.95,4,9.37,2.21,14.6-.5,21.88,3.47-2.36,7.56-9.89,9-15.28,2-7.48,1.26-13.87,0-22.35,6.62,7.07,10,20.41,8,31l.69-.16a31.79,31.79,0,0,0,3.4-21.72c-1.77-9.42-5.17-12.93-9.27-19.31,16.77,11,21.05,23.45,18,44.59-.88,5.34-2.58,11.2-3.09,16.17,8.82-10,12.42-35.54,5.11-51.5-2.14-4.82-6.3-10.26-9.33-12.46-.76-.52-1.51-1-2.21-1.57,4.35-.52,1.07-.31,2.27.84,3.09,1.52,5.74,2.56,8.64,4.14,17.21,9.53,16.26,16.49,20,20.46.06-9.68-4.54-17.53-9.58-23.29-9.39-10.94-12.86-8.95-17.4-12.61,10-1.62,18.28,1.2,27.1,2-4.35-7.54-30.19-9.84-41.79-11.83-15.88-2.72-28.11-5.23-42.8-9.84-.76-.16-1.45-.31-2.14-.52a1.7,1.7,0,0,1,2-.26c8.13.52,24.46,4.34,32.27,2.72a2,2,0,0,1,.32-.47c-13.49-2.2-40.91-11.31-53.58-20.47-1.39-.68-.19,1.2-1.51-1.31a10.25,10.25,0,0,0,1.39.52c9.9,3.45,34.16,9.79,45.63,10a2.22,2.22,0,0,1-.13-.63c-3.78-.63-10.21-5.23-12.42-7.8,10.72.37,25.28.47,33-7.17,3.15-3.14,1.76-1.94,7.37-2.77,3.21-.47,6.37-1.2,9.52-1.78,6.18-1.15,11.66-1.78,16.14.47-5.8-8.9-14.37-2.41-26.47-4.76-2-15.91-21.94-5.08-38.2-18.06-5.8-4.61-24.71-23.19-24-35.07,6-3.61,5,2.09,17.27,12.77,3.66,3.19,14,12.93,19.73,11.78-.95-4.34-3.84-6-6.56-7.48-8.13-4.4-17.65-13.45-17.84-24.08,3.21,2,6.43,4,9.58,6,2.33,1.83,7.56,20.2,29.25,18.21,22.12-2,31.08-24.55,19.86-36.38-1.39-1.15,0,1.41-1.32-1.31,2.52-.84.5-.31,1.26.42,2.08.68,6.05,4.87,8.19,7.22,7.56,8.37,3.53,14.34-.38,21.2-2.14,3.66-1.64,6.33-4,10.1-3.21-1-3.91-2.25-8.57-2.56,1.39,2.93,3.66,4.34.95,6.59-5.55,4.66-18.72,2.36-23.83,2.62,1.26,4.82,3.78,7.33,9,6.39-.5-.73-1-1.52-1.45-2.3,9.83-3.3,25.78,1.26,35.42-1.67-3.15-1.1-5.67-1.36-6.68-4.5,2.9-5.39,7.56-3,11-.73s6.37,5,9.83,7.12c-1.76-6.75-15.51-12.35-19.6-17.69a2.16,2.16,0,0,0,.19-.47c.38-.84.76-1.73,1.2-2.62a11.35,11.35,0,0,1,1.64-2.72c7.37-9.32,5-9.79,16-10.68,7.06-.63,20,2.56,26.41,4.55,13,4,18.41-2.3,30.7-1.88,7.94.21,21.75,4.24,28.62-1.15-10.15.63-19-2.25-28.55-3.61-10.09-1.41-19.29,1.88-30.57-.58-7.37-1.52-19.29-5.76-24.14-9.32-13.49-9.84-8.07-6.33-23-11-7.5-2.36-18-6.33-26.85-5.81-21.68,1.15-44.94,2.67-66.5,7.64-10,2.25-18.22,9.84-26,11.2,8.57-13.45,23.64-22,44.56-27.06-9.39-6.44-40.09,3.24-47.65,10-.44.52,0,.79-1.07,1.15-2.14-2.35-.19-1.1-.19-1.2,5.17-14.66,30.63-29.68,45.89-34.81,13.8-4.66,16.26-2.62,23.57-4.19-22.57-8.69-41.35.89-60.51,7.64,1.45-11.93,15-26.64,24.71-33.86h0v-.05h.06l.06-.05.06-.05a2.67,2.67,0,0,1,.44-.31c2-1.52,8.82-6.49,11.54-7.9a28.18,28.18,0,0,1,4.29-2.09c-2.08,4.34-11.91,19.73-12.29,22.56,7.19-3.35,14.94-8.32,22.06-12.2,21.18-11.62,52.63-28.37,76.39-31C573.46,308.58,568.6,312.14,563.75,315.65ZM454.83,347.89c-3.59,4.82-16.89,24.86-15.19,35.17,0,2.56-.25.84.76,1.47,1.64-1.52,2.08-2.93,4.29-4.55a69.24,69.24,0,0,1,6.05-3.51c3-1.57,10.21-5.23,13.61-5.65.63-.73-.19-.47,1.13-.94,2.46-.89.76,0,1.51.26l-2.46.94c-14.75,7.54-31.64,24.08-28.74,43.7,2.27-1.57,13-13.19,20.8-14.5.57-.78-.06-1.26,2.08-.68-.76.26-1.51.47-2.21.68-3.53,2.67-7.06,5-10.27,8-2.9,2.83-6.49,6.23-7.56,10.26-7.38-1.62-26.79-16.38-31.83-27.16-2.71-5.71-1.39-7.38.5-11.72,3.34-7.69,10.84-21.15,18-25.33-1.45,4.82-4.54,9.94-3.21,16.28,2-.89,26-20.62,32.21-23.08,1.07-1.73.25-1.1,2.39-1.94C455.84,348.1,457.16,346.37,454.83,347.89ZM302,531.18c-2.9-1.67-5.92-14-6.56-16.8a63.05,63.05,0,0,1-1.7-19.37c2.14-31.3,20.49-56.58,45.38-75.42,1.51-1.1,3.47-2.83,5.55-4.24h0c2.58-2.83,11.41-6.7,11.72-6.8h0c11.72-6,27.1-15.65,41.1-19.21,2.33,5.08,9.9,13.19,13.43,17.11a73.39,73.39,0,0,0,16.2,13.4c14.43,9,28.68,7.28,40.47,14.92a80.41,80.41,0,0,1,16.07,13.61c2.4,2.56,5,5.29,6.3,9.11,3.53,10,13.8,16.7,24.27,20,8.64,2.72,14.88,1.88,22.82,3.45-4.73,5.7-20.11,2.51-26,.89-20.36-5.65-28.55-8.74-51.24-8.79-4.85.05-8.64-7.22-22.25-8.74a5.56,5.56,0,0,0,.06,1c3.4.79,6.11,3.14,8.89,4.76,1.39,1.31.25-1.88,1.32,1.83-2.14.31-.5.58-2.08-.42-8.82-.58-17.21-2.67-27-.1,3.66.78,7.31,1.57,11,2.3a44,44,0,0,1-11.16,2h-.19l-2.4.16c-.06,0-.06,0-.06-.05l-3.66.21h0c-7,.31-12.92-.1-20.23,1.57-5.8,1.36-14.18,5.5-18.59,6-11.41,1.41-24.65-4.55-35.74-3.82-12.23.79-27.73,7.54-31.77,15.65-3,6,0,12.61-2,17.8C301.22,520.77,302.42,523.12,302,531.18ZM520.7,413.63c3.21-2,22.5-2.77,27.92-2.46,10.4.68,15.06,23,.19,33.55C524.8,461.68,498.07,427.45,520.7,413.63ZM309.86,503c-.25-6.7,2.52-10,7.56-12.72,9.2-5,24.58-7.75,34.67-5.55,5.11.89,10.21,1.73,15.32,2.56-8.51,2.67-23.07.84-32.78,2.41C318.68,492.19,315.47,499.1,309.86,503Zm15.82.16c.25-1.41.38-1.47,1.64-2.72,2.21-1.73,4.41-3.51,6.68-5.29,14.5-9.26,23.07,1.1,41.35-7.54,4.35-2,53.7-10.31,61.52-11.36,5-.68,8.57.37,13.49.73s9.39-.42,14.43-.52c21.81-.52,31,2.72,50.11,8.64,17,5.23,19,.16,26.66-1,9.14,10-9.08,12.88-16.89,13.19-11,.37-18.53.42-28-2.67-8.32-2.77-15.38-6.28-23.38-9-7.56-2.51-20.61,1.31-29.88.73-6.05-.37-7.75-2.51-13-.21-4.29,1.94-8.32,3.56-12.67,5.44-21.31,9.16-9.64,4.08-28.49,5.7C373.84,498.68,338.73,506,325.68,503.18Zm156.57-7.69c.63.05,1.26.05,2,.05-.76.63.13.37-1.2.58-2.14.31.44.42-.76-.52-3.59.47-10.53-.26-15-.16-5.29.16-10.46.63-15.76,1.26,2.9,2.93,25.15,13.61,27,14.18s.38-1.1,1.32.47c0,.05-.76.79-.88.37-.06-.1-.25-.1-.38-.16-4.22-.21-8.38-.42-12.54-.68,1.39,1.67,4.35,3.35,6.24,4.87,11.6,9.37,36.12,17.22,50.87,19.63.82.31,1.64.58,2.46.84a15.09,15.09,0,0,1-3.34.42c-3,0-.82.05-1.83-.47-5.23,1.57-11,.21-16.14.05,2.21,2.51,10,7.48,16.26,14.5,4.35,4.87,10.21,11.51,12.42,18.48-3.91-3.66-7.82-7.38-11.66-11-9.83-8.9-26-22.77-36.87-29.78-13.3-8.58-25.91-17.32-41-24.13-2.52-1.15-12.92-5.34-14.5-6.59C446.26,492,466.43,491.2,482.25,495.49ZM479.54,729.6a1.79,1.79,0,0,0,.5.42c4-2.67,8.26-5.86,12-8.9,2.71-2.15,9.45-8.17,11.47-9.16a9.25,9.25,0,0,1,.38-1c.38-.31.76-.63,1.13-1-.25.42-.5.84-.76,1.2.06.94.25.63-.69.79-.5,7.07-25.34,45.8-30.76,50.51,1.2-7.38,2.71-11.2,2.14-19.84-.44-6.54-2.08-14.39-6.18-17.8-12.67,1.88-29.18,27.11-33.15,35.07a4,4,0,0,1-.76.05c2.9-12.51,10-28.47,15.51-38.47,4.92-9,14.94-26,21-33.92,2.27,5.81,2.58,12.56,3.15,18.95,2.77-2,11.72-14.29,14.5-17.9,2.21-2.88,11.53-16.23,13.93-17.69C495.3,690.51,487.42,710,479.54,729.6Zm-89.88-291c-2.21-3.56-17.84-14.29-24.08-14.34,1.58,4.45,6.74,8,10.46,9.37C380.58,435.4,385.5,437.18,389.66,438.6Zm13-9.21c-1.58-6.54-15.06-12.46-21.3-14.5-2.52-.84-7.44-.47-9.39-1.88.76-3.35,3.72-2,6.49-4.08-3.84-.21-14.18-.84-12.67,5,.76,2.62,8.76,6.07,11,7.22C383.16,424.67,392.11,432.21,402.64,429.38Zm141.44-4.14c1.76-13.35-18.91-15.39-20.67-2.36C521.65,436.82,542.26,439.48,544.09,425.25Zm-12.8,82.17c-.13.26-.25.47-.38.68,6.43,1.1,7.12,3.24,20.49,4.5,7.5.68,15.32.31,22.94.52-5.86,4-26.22,5.44-34.23,7.28,8.76,4.5,33.47,1.52,45.26.94,7.63-.42,15.82-.58,22.94.37a58.65,58.65,0,0,1,9.77,2.2c3.66,1.15,5.55,2.77,8.13,4-3.21-9.63-24.14-14.24-33.66-16.43-3.91-.89-10-1.57-13-3,13.93-4,27.61.73,36.05.94-2.84-5.08-14.31-7.69-20.93-9.89-1.2-.89-.32,1.31-1.13-1.26a18,18,0,0,0,1.83.52c12.73-2.41,38.89,3.72,49.1,7.64l.19-.94c-2.46-.89-6.05-3.25-9.39-4.81A81.79,81.79,0,0,0,602,493.19c-9-.21-18,.84-27.17,2-10.08,1.36-17.4,1.67-27.17,2.25,4.79,4.08,23.32,4.61,31.26,5.5C556.5,510.3,550.83,507.21,531.29,507.42Zm244.94-35.59c.32.58.57,1.15.88,1.67-.57-.31-1.07-.63-1.58-.89-19.73-16.7-59.38-26.85-87.24-24.39,9.64,7,14.75,4.87,34.1,24.55,13.49,13.61,16,20.15,25.21,35.75,2.21,2.2,2,3.66-.82,1.2-1.76-2.83-25-12.3-30.76-14.5-33.28-13.08-73-25.28-111-19.16,1,.37,2,.73,3.09,1.1,25.15,5.81,51.31,19.78,62.59,44.59-7.25-2-7.82-4.45-24.77-7.17-6.18-1-21.75-3.61-27.73-2.88,1.89,1.52,5.61,3,10,6.28,7.63,5.86,20.8,15.91,23.26,27.63a32.81,32.81,0,0,1-4.79-3.3c-11-8.37-30.82-11.15-44.31-8.53,21.68,6,49.54,9.89,61.33,32.35.69-.94.95,1.1.31-2-.76-6.33-7.63-21.15-10.65-26.27-8.13-14-12.61-16-15.32-20.15,14.43.94,36.62,13.29,48.6,21.83,2,1.47,3.59,3.19,5.74,4.24C686.66,529.77,666,501.3,654,492c-10.4-8.27-12.86-8.22-17.21-11.36,23.76-.21,73.5,22.14,96.25,32.14,9.64,4.5,19.35,9,29.12,13.4.57-.94.76,1.15.32-1.62-2.33-15.7-20.74-43.65-33.28-55.74-2.65-2.56-5-4.45-7.5-6.75-2.21-1.94-5.48-3.93-7.69-5.76,13.8-1,37.13,10.26,46,14.86,4.16,2.2,16.83,9.42,19.79,11.72,6.05,4.45,12.1,8.85,18.15,13.14-7.69-29.36-46.08-75-78.1-83a71.08,71.08,0,0,0,8.19,6.49C740.49,427.66,771.44,457.8,776.23,471.83ZM452,772.66c-7.09,12.43-12.2,25.94-13.66,40.3l-2.51,24.71-16.73-18.35c-8.32-9.13-8.31-31.44-6.85-43.32,2.63-21.32,11.1-43.41,20.87-62.43,4.6-9,9.73-17.48,14.76-26.18,5.12-8.87,11.21-16.41,16.83-24.84,15.18-22.74,37-44.33,45.87-70.52a52.65,52.65,0,0,0,2.07-6,5,5,0,0,0-.45-1.73c-8-20.46-28.4-34.31-46.85-44.53-16.63-9.2-34.37-17.27-51.65-25.22-1.2-.55-2.43-1.22-3.64-1.81-1.62.37-3.39.91-4.89,1.26-22.72,5.46-54.95,10.42-78.15,8.87-2.41-.16-4.73-.35-7-.72a25.82,25.82,0,0,0-.33,8.42,93.47,93.47,0,0,0,2.57,11c1.49,5.79,3.58,13.6,2.5,19.51l-1.8,9.82-10-.76c-8.62-.66-16.47-9.17-21.2-15.86-15.33-21.71-19.22-41.15-15.4-67.3,8.27-56.77,51.1-90.24,101.07-111.41,3-1.28,7.38-2.5,10.09-4.06a6.29,6.29,0,0,0,2-1.8c3.46-4.56,5.86-9.92,9.53-14.65,10.08-13,21.45-20.38,37.74-23.5l3.61-.69,3.31,1.6.1,0c1.16-.81,2.31-1.6,3.47-2.37C464,319,495.73,301.23,515.52,300.08l14.33-.83c24.74-10.77,62.13-22,88.07-19.27l35.28,3.72-6.83,3.74c5.57.56,11.09,1.31,16.51,2.21,11.49,1.9,48.18,9.55,56.47,15.58l15.24,11.09a192,192,0,0,1,32.61,15.16c9.6,5.69,18.73,12.24,27.85,18.67q1,.69,1.93,1.42c1.94,1.49,3.79,3.07,5.63,4.67a35.28,35.28,0,0,0,2.92,2.43l7.93,5.37-4.16,8.63-.19.39c25.56,14.81,58.62,46.3,64.71,75l3.82,18c7.71,10.94,13.9,22.57,13.81,31.95l-.11,12.5c1,1.44,2,2.93,2.92,4.48,8.8,14.18,18.42,39.84,20.66,56.38l2.38,17.51-15.23-5a182.62,182.62,0,0,1,9.34,31.39c4.87,24.79,3.21,49.42-2.61,73.9-3.07,12.92-10.54,35-17.58,46.07L883.11,748l-9.71-11.52c-2.39-2.84-2.6-5.78-3-9.12-.39-2.93-.75-5.86-1.12-8.79-1.09-8.72-2.15-17.43-3.26-26.15-.83-6.55-1.67-13.1-2.58-19.64A214.62,214.62,0,0,1,845.89,706c-1.7,2.53-3.33,5.25-5.27,7.59-1.72,2.07-3.63,4-5.29,6.07a133.1,133.1,0,0,1-34.05,29.88l-1.24.75-1.27.37a11.2,11.2,0,0,1-15.21-9.88l-.26-2.15.61-2.15c1.44-5.06,4.27-11,6.37-15.88l3.43-8-2.63,2.51c-4.77,4.56-9.65,9-14.57,13.38-19.29,17.25-39.1,33.88-58.72,50.75l-3.12,2.68h-4.11a11.39,11.39,0,0,1-7.4-2.61l-6.79-5.64,4-7.88q11.16-22.17,22.16-44.42l-2.37,2.47q-9.81,10.18-19.68,20.31-6.74,6.92-13.51,13.81c-2.18,2.21-6.06,6.5-8.59,8.15l-22.79,14.81,5.92-26.53c.67-3,1.76-6.22,2.68-9.17,1.49-4.77,3-9.52,4.54-14.28q1.39-4.34,2.8-8.67c-4.11,4.29-8.31,8.45-12.47,12.42-11.48,11-24.9,22.9-38.33,31.42l-13.64,8.65L603.87,759c-.09-.44-.15-.86-.2-1.3l-.7-3.48,1.8-3.47c1.35-2.6,3-5.11,4.61-7.59l-10.64,3.77,1.07-5.42-.42.48c-1.29,1.45-2.79,2.74-4,4.21-6.38,7.61-21.28,22.59-29.76,27l-19,9.93,2.81-21.22a155.08,155.08,0,0,1,3.34-15.56q1.82-7.46,3.73-14.89c-14.47,15.66-33.89,34.77-43.9,38.22l-5,1.72-4.49-2.8a17.12,17.12,0,0,1-1.9-1.34l-5.72-4.74c-9.75,14.13-22.2,29.93-30.87,35.51l-24.4,15.72,7.69-28C449.19,781.35,450.65,777,452,772.66ZM598.37,100.27c-127.27,0-216.53,7.27-338.22-33.9L167.52,188.2s80.13,105.11,47.87,227.91-88.43,362,6.77,455.29C294.35,942.1,419.39,1009,509.82,1057.12c43.84,23.33,78.07,54.62,88.55,65.09,10.47-10.47,44.7-41.76,88.54-65.09,90.44-48.11,215.47-115,287.65-185.72,95.21-93.26,39-332.49,6.77-455.29s47.87-227.91,47.87-227.91L936.58,66.37C814.9,107.55,725.63,100.27,598.37,100.27Zm0-18.13c58.39,0,117.59,2.2,175.83-1.85,54.35-3.78,104.91-13.6,156.57-31.09l12.6-4.26L1052.59,188.6l-8.52,11.18c-13.49,17.82-26.07,43.79-33.91,64.42-18,47.26-23.77,98.33-10.81,147.67,32.65,124.3,91.91,371.84-11.72,473.35-17.45,17.1-38.18,32.91-57.87,47.34-27,19.79-55,38.48-83.29,56.36-48.83,30.84-99.88,58.09-150.84,85.2-29,15.4-60.84,38.52-84.19,61.86l-13.07,13.07L585.29,1136c-23.34-23.34-55.23-46.46-84.18-61.86-51-27.11-102-54.36-150.84-85.2C322,971,294,952.35,267,932.56c-19.69-14.43-40.41-30.24-57.87-47.34-103.63-101.51-44.38-349-11.72-473.35,13-49.34,7.15-100.41-10.81-147.67-7.84-20.63-20.42-46.61-33.91-64.42l-8.52-11.18L253.37,44.95,266,49.21c51.66,17.48,102.22,27.3,156.57,31.09C480.78,84.34,540,82.15,598.37,82.15Z"/></svg>