<svg xmlns="http://www.w3.org/2000/svg" viewBox="0 0 1200 1200"><defs><style>.cls-1{fill:#f4cd0c;}.cls-1,.cls-3{fill-rule:evenodd;}.cls-2{fill:none;stroke:#f4cd0c;stroke-miterlimit:22.93;stroke-width:0.57px;}.cls-3{fill:#082ea5;}</style></defs><title>CHELSEA FC - LIONS 3 team colour 2</title><g id="CHELSEA_FC_-_LIONS_3_team_colour_2" data-name="CHELSEA FC - LIONS 3 team colour 2"><path class="cls-1" d="M264.57,88,187.29,189.61c12.27,18.79,23.25,41.85,30.68,61.2,21,54.61,27.41,113.71,12.42,170.76C202.23,528.78,142.82,772,232.47,859.84c40.54,39.71,92.68,74,141.15,103.34,46.55,28.15,94.45,53.88,142.46,79.43a419.23,419.23,0,0,1,80.29,56.4,419.24,419.24,0,0,1,80.29-56.4c48-25.54,95.9-51.28,142.46-79.43,48.47-29.3,100.61-63.62,141.15-103.34,89.65-87.82,30.24-331.06,2.07-438.27-15-57.06-8.57-116.16,12.43-170.77,7.43-19.34,18.41-42.4,30.68-61.19L928.17,88c-50.44,16-100.34,25.24-153.52,28.94-59.12,4.11-119,1.94-178.28,1.94S477.21,121,418.09,116.91C364.91,113.21,315,104,264.57,88Zm-27.35,647.5,11.12,10.8c-3.82,5.74-4.21,4.28-10.71,1.79C234.75,740.7,233.11,740.25,237.22,735.48Zm53,119,21.12-53.08L281.47,829.8c-2.74,2.62-4.17,4.54-4.29,5.79-.15,1.69.62,3.42,2.29,5.17l1.5,1.57-1.21,1.16L264.95,828l1.21-1.16,1.5,1.57q2.7,2.83,5.56,2.38c1.16-.18,3-1.48,5.49-3.86l29.18-27.82a14.14,14.14,0,0,0,3.66-4.74,5.09,5.09,0,0,0,0-3.22,12.63,12.63,0,0,0-3.14-4.58l1.23-1.17L321.66,798l-19.5,49.52,50.14-17.39,12.06,12.64L363.14,844l-1.48-1.55q-2.73-2.87-5.57-2.42c-1.17.19-3,1.47-5.51,3.86L321.4,871.68c-2.74,2.62-4.15,4.56-4.25,5.83q-.22,2.53,2.28,5.16l1.48,1.55-1.21,1.16-18.09-19,1.21-1.16,1.51,1.58q2.73,2.87,5.56,2.38c1.16-.18,3-1.48,5.49-3.86l29.84-28.46-54,18.61Zm104.06,8.89a16.28,16.28,0,0,0-14.45-2.43q-9.45,2.79-17.78,15-8.54,12.48-7.8,22.84a16,16,0,0,0,7.32,12.52,17.9,17.9,0,0,0,15.68,2.5q8.5-2.4,16.75-14.45,8.93-13.06,8.18-23Q401.52,868.3,394.24,863.32Zm2.57-2.25q9.92,6.79,12,19.28t-5.59,23.76q-7.95,11.61-20.51,14.25a29.65,29.65,0,0,1-35.52-24q-2-12.37,6.08-24.24,8.3-12.13,21.8-14.14A29.55,29.55,0,0,1,396.82,861.07Zm75.72,42.71L411.74,940l23.06,10.41q5.31,2.4,9.19,1.35c2.6-.7,5.7-3.07,9.29-7.14l1.26.86-9.37,13.7-45.79-20.67.69-1.53,59.26-35.06-18-8.12q-4.48-2-6.93-2a7.61,7.61,0,0,0-4.35,1.44c-1.26.91-2.94,2.92-5,6l-1.57-.71L430.95,885Zm36.68,48.94L505,926l-16.38,21.64Zm.43,3.58-23.19-5.71L480.07,959a15.17,15.17,0,0,0-2.79,4.85,3.13,3.13,0,0,0,.71,2.72c.7.91,2.46,1.82,5.31,2.75l-.4,1.63L464,966.34l.4-1.63c2.61.16,4.37,0,5.28-.54,1.85-1,4.22-3.5,7.11-7.38L510,912.68l1.54.38,8.58,55q1,6.64,2.65,8.92a9.68,9.68,0,0,0,5.23,3.43l-.4,1.63L504,976.18l.4-1.63c2.41.47,4.13.46,5.14,0a3.13,3.13,0,0,0,1.88-2.16c.32-1.3.22-3.48-.27-6.58Zm150.24,20.81a45.74,45.74,0,0,0,10.47-.62c5.41-1,9.31-2.92,11.72-5.86a11.63,11.63,0,0,0,2.64-9.78,13.41,13.41,0,0,0-3.14-6.46,13.1,13.1,0,0,0-7.19-4,27.5,27.5,0,0,0-11.08,0c-1.85.33-3.43.64-4.74.93a24,24,0,0,0-3.12.89Zm-5.18-29a34.16,34.16,0,0,0,3.88-.2c1.44-.15,3-.38,4.71-.68,4.36-.78,7.56-1.82,9.58-3.16a10.64,10.64,0,0,0,4.27-5.23,12.29,12.29,0,0,0,.61-6.67,11.81,11.81,0,0,0-6-8.31q-5-3-13.35-1.5a31,31,0,0,0-7.9,2.42Zm23.9-1.76q6.57.2,10.23,2.61a13.59,13.59,0,0,1,6.14,9.3,15.28,15.28,0,0,1-1.33,9.18,16.58,16.58,0,0,1-6.78,7.44q-4.66,2.8-14.9,4.63L643.3,984.6l-.29-1.65,2.28-.41q3.81-.68,5-3.41c.5-1.16.46-3.44-.15-6.85l-7-39.25q-1-5.64-2.57-6.88a6.69,6.69,0,0,0-5.55-1l-2.28.41-.3-1.67,26.24-4.68a52.45,52.45,0,0,1,12-1q7,.41,11.28,3.87a14.25,14.25,0,0,1,5.22,8.8,13.3,13.3,0,0,1-1.31,8.67A16.63,16.63,0,0,1,678.61,946.31Zm64.72,11.84.54,1.59-25.06,8.45-.54-1.59,2.08-.7q3.62-1.22,4.54-3.89c.38-1.15,0-3.49-1.19-7L711,917.24a20.57,20.57,0,0,0-2.53-5.67,4.15,4.15,0,0,0-2.39-1.26,8.62,8.62,0,0,0-4.32.31l-2.07.7-.54-1.6,25.06-8.45.54,1.6-2.12.71c-2.38.8-3.88,2.1-4.5,3.86-.41,1.17,0,3.5,1.15,7L732,952.23a20.59,20.59,0,0,0,2.53,5.67,4.12,4.12,0,0,0,2.44,1.24,8.37,8.37,0,0,0,4.28-.28Zm20.44-72a16.67,16.67,0,0,0-9.1,11.39q-2.23,9.51,4.8,23.09,6.89,13.28,16.36,17.5a16.13,16.13,0,0,0,14.62-.55,17.11,17.11,0,0,0,9.37-11.89q2.07-9.37-4.55-22.13-5.1-9.82-11.56-15a19.08,19.08,0,0,0-10.08-4.45A17.59,17.59,0,0,0,763.78,886.13Zm34.56,50q7.81,5,14.33,5.84a24.22,24.22,0,0,0,12.87-1.81l.67,1.3a49.89,49.89,0,0,1-13.08,3.93,57.92,57.92,0,0,1-15,.58,66.41,66.41,0,0,1-13.78-2.61,43.73,43.73,0,0,1-11.78-.19A30.6,30.6,0,0,1,760,937.51a35,35,0,0,1-9.74-12.09q-6.37-12.28-2.63-24.53a29.31,29.31,0,0,1,15.07-18.11q10.73-5.57,22.82-1.51T804,897.73a32.66,32.66,0,0,1,3.56,20.55A31.1,31.1,0,0,1,798.34,936.13ZM865,808.46l18.46,15.93,8.86-10.27q3.45-4,3.41-6.37c0-2.11-1.31-4.37-3.86-6.82l1.1-1.27,16.27,14-1.1,1.27a23.62,23.62,0,0,0-5.21-2.81,5.71,5.71,0,0,0-3.65.4,13.69,13.69,0,0,0-4.44,3.74l-8.86,10.27,15.41,13.29a19.47,19.47,0,0,0,4,3,2.94,2.94,0,0,0,1.9,0,7.93,7.93,0,0,0,2.65-2.29l6.84-7.93a27.83,27.83,0,0,0,4.41-6.23A11.21,11.21,0,0,0,922,821a35.12,35.12,0,0,0-2.67-9.93l1.19-1.38,8.25,14.13-31.06,36-1.27-1.1,1.43-1.66a8.65,8.65,0,0,0,1.9-3.82,3.84,3.84,0,0,0-.35-2.93,21.93,21.93,0,0,0-4.18-4.28l-30.36-26.18c-3-2.56-5-3.83-6.25-3.83q-2.44,0-4.94,2.94l-1.43,1.66-1.28-1.11,31.06-36,10.68,8.31-1.17,1.35a21.16,21.16,0,0,0-6.44-2.76,7.26,7.26,0,0,0-4.35.78,20.74,20.74,0,0,0-4.71,4.41ZM577.71,986l-21.85-52.79-1.57,41.21c-.14,3.79.17,6.16,1,7.14,1.07,1.32,2.83,2,5.25,2.11l2.17.08-.06,1.68-21.45-.82.06-1.68,2.17.08c2.61.1,4.48-.62,5.65-2.16.7-.94,1.11-3.14,1.25-6.59L551.82,934a14.14,14.14,0,0,0-.68-5.95,5.09,5.09,0,0,0-2.26-2.29,12.63,12.63,0,0,0-5.44-1.09l.06-1.69,17.46.66,20.53,49.1,23.84-47.42,17.46.66-.06,1.69-2.14-.08c-2.64-.1-4.53.62-5.68,2.15-.7,1-1.13,3.14-1.26,6.6l-1.53,40.29c-.14,3.79.2,6.16,1,7.14q1.6,2,5.24,2.11l2.14.08-.06,1.68-26.2-1,.06-1.68,2.19.08c2.64.1,4.52-.62,5.65-2.16.7-.94,1.11-3.14,1.25-6.59L605,935.05l-25.75,51ZM828.5,839.75l-1.05-1.32,17.09-13.62,1.06,1.32-1.82,1.45a6.25,6.25,0,0,0-2.48,5.86c.09,1.14,1.19,3,3.33,5.73l15.59,19.57q5.79,7.27,7.54,12.4a18.1,18.1,0,0,1-.18,11.39q-1.95,6.23-9.2,12-7.91,6.3-14.18,6.81a18.92,18.92,0,0,1-11.67-2.74q-3.66-2.27-10.62-11l-15-18.86c-2.36-3-4.31-4.59-5.87-4.85s-3.24.32-5.06,1.77l-1.82,1.45-1.06-1.32,20.86-16.62,1.05,1.32L813.13,852c-2,1.59-2.93,3.35-2.78,5.29.08,1.32,1.21,3.34,3.36,6l16.76,21a59.8,59.8,0,0,0,5.64,6,17.73,17.73,0,0,0,6.38,4.17,12.93,12.93,0,0,0,6.56.23,17.09,17.09,0,0,0,7.3-3.65,22,22,0,0,0,6.82-8.81,14.12,14.12,0,0,0,.9-9.36q-1.2-4.31-7.32-12L841.2,841.43c-2.4-3-4.24-4.62-5.5-4.86a6.72,6.72,0,0,0-5.38,1.72ZM954.82,735.37l-11.12,10.8c3.82,5.74,4.21,4.28,10.71,1.78C957.29,740.6,958.92,740.15,954.82,735.37Zm-23.52,46.27-3.15-15.22,8.87,18.9,7.78,5-1-31.69,13.91,28.66L954,756.63l14.55,17.85L962,743.41l13.69,14.15L971,729.76c10.62,13.75,13.45,9.35,14.1,2.59a2.74,2.74,0,0,1-2,1.18c-2.32.23-5-2.35-5.92-5.76-.83-3.07.07-5.8,2-6.41a52.58,52.58,0,0,0-9.24-7.69c-7.07-23.3-14.85-43.34-24.1-57,8.94,21.84,12.8,35.33,16.13,55.46l-9.4,13.61c-2.33-4.09-10.79-14.65-18.43-18.88,4.3,5.57,9.81,20.16,11,28.94l-10.5,7.49c-7.43,5.51-14.9,11-22.31,16.51l-7.5-19.68c.64,8-1,15.61-.38,23.6l-.38.36Zm-670.54.1,3.15-15.23L255,785.42l-7.78,5,1-31.69L234.38,787.4l3.69-30.66-14.54,17.85,6.54-31.07-13.68,14.15,4.66-27.79c-10.62,13.76-13.44,9.35-14.1,2.59a2.74,2.74,0,0,0,2,1.18c2.32.22,5-2.35,5.92-5.76.83-3.07-.08-5.8-2-6.41a52.58,52.58,0,0,1,9.24-7.69c7.06-23.3,14.84-43.35,24.08-57-8.93,21.84-12.79,35.33-16.11,55.46l9.41,13.61c2.33-4.09,10.78-14.65,18.43-18.89-4.3,5.57-9.8,20.16-11,28.95l10.5,7.49c7.43,5.51,14.91,11,22.32,16.5l7.49-19.68c-.64,8,1,15.61.38,23.6l.38.36Zm84.9-561.8q-.52,21.14-11,32.53t-29.78,11.38q-22.52,0-34.64-14.44t-12.12-41.27q0-25.38,12.55-40.62t33.56-15.25a46.07,46.07,0,0,1,13.13,1.8,41,41,0,0,1,11.62,5.54l2.22-5.81h14.1v43.36H329.69q-2.27-15.18-7-22t-12.59-6.85q-9.17,0-13.35,9.39t-4.17,30.15q0,21.46,4.3,30.89t14,9.42q8.78,0,14.43-7.61t6.33-20.58Zm54.6-64.49V170.3h-1.45q-3.92,0-5.12,1.49c-.8,1-1.21,3.5-1.21,7.48v19h24.1v-19c0-4-.41-6.49-1.23-7.48s-2.55-1.49-5.16-1.49h-1.38V155.44H457V170.3h-4.43c-3,0-5,.47-5.85,1.41s-1.3,3.48-1.3,7.56v57.46c0,4.11.43,6.62,1.3,7.58s2.81,1.46,5.85,1.46H457v14.93H408.81V245.78h1.38c2.57,0,4.28-.52,5.12-1.54s1.27-3.5,1.27-7.51V213.14h-24.1v23.59c0,4,.41,6.49,1.23,7.51s2.53,1.54,5.1,1.54h1.45v14.93H352V245.78h4.36q4.37,0,5.77-1.26c.93-.86,1.38-3.45,1.38-7.79V179.27c0-4.13-.43-6.67-1.27-7.58s-2.79-1.39-5.87-1.39H352V155.44Zm152.27,0v39.23h-13.8a82.59,82.59,0,0,0-2.81-12,21.71,21.71,0,0,0-3.65-6.9,13.84,13.84,0,0,0-6-4.26q-3.56-1.26-11.47-1.26H501.06v28.9h3.35c3.93,0,6.7-1.15,8.27-3.45s2.38-6.38,2.38-12.27v-.92h10.89v48H515.05c-.17-7.35-1-12.13-2.38-14.33s-4.13-3.3-8.14-3.3h-3.48v32.8h15.38c6,0,10.07-.44,12.31-1.31A10,10,0,0,0,534,240a34,34,0,0,0,3.2-9.15,85.39,85.39,0,0,0,1.56-13.6H553v43.44H461.27V245.78h4.36c2.87,0,4.75-.42,5.66-1.23s1.36-3.16,1.36-7V179.27c0-4.08-.43-6.62-1.27-7.56s-2.79-1.41-5.87-1.41h-4.23V155.44Zm62,0V170.3h-4.95c-2.85,0-4.73.42-5.62,1.23s-1.34,3.14-1.34,7v67h5.83q8.1,0,11.4-1a10.3,10.3,0,0,0,5.29-3.64,22.69,22.69,0,0,0,3.74-8.74,91.09,91.09,0,0,0,1.71-15.25h13.48v43.88H562.2V245.78h4.36c3,0,5-.5,5.85-1.46s1.3-3.48,1.3-7.58V179.27c0-4.08-.43-6.62-1.27-7.56s-2.79-1.41-5.87-1.41H562.2V155.44Zm41.9,66.51H669q3.11,12.16,10.28,19a23.7,23.7,0,0,0,16.93,6.85c3.91,0,7.06-1,9.42-3a9.93,9.93,0,0,0,3.54-7.92q0-7.57-15.38-12.71c-3.33-1.07-5.94-2-7.84-2.69q-9.23-3.37-14.23-5.73a29.92,29.92,0,0,1-7.21-4.45,30.38,30.38,0,0,1-7.75-10.54,33,33,0,0,1-2.51-13.15q0-15.85,9.72-25.6t25.66-9.73a57.1,57.1,0,0,1,15.12,1.91,53,53,0,0,1,13.61,5.91l2.35-5.28h12.46v36.56H718.52c-1.43-7.48-4.13-13-8.1-16.69s-9.27-5.49-15.9-5.49a14.3,14.3,0,0,0-9.59,3.22,10,10,0,0,0-3.76,7.9q0,7.06,14.43,10.67c2.35.63,4.19,1.1,5.51,1.46q20.12,5.61,28.23,13.91t8.1,22.62q0,15.93-10,25.39t-26.87,9.47a52.22,52.22,0,0,1-14.88-2.12,59.3,59.3,0,0,1-14.17-6.38l-3.22,5.83h-11.9Zm177.69-66.51v39.23h-13.8a82.62,82.62,0,0,0-2.81-12,21.7,21.7,0,0,0-3.65-6.9,13.85,13.85,0,0,0-6-4.26q-3.56-1.26-11.47-1.26H782.67v28.9H786c3.93,0,6.7-1.15,8.27-3.45s2.38-6.38,2.38-12.27v-.92h10.89v48H796.66c-.17-7.35-1-12.13-2.38-14.33s-4.13-3.3-8.14-3.3h-3.48v32.8H798c6,0,10.07-.44,12.31-1.31a10,10,0,0,0,5.23-4.45,34,34,0,0,0,3.2-9.15,85.33,85.33,0,0,0,1.56-13.6h14.3v43.44H742.88V245.78h4.36c2.87,0,4.75-.42,5.66-1.23s1.36-3.16,1.36-7V179.27c0-4.08-.43-6.62-1.27-7.56s-2.79-1.41-5.87-1.41h-4.23V155.44Zm52,105.27V245.78h3.91c3.3,0,5.31-.21,6-.65a2.65,2.65,0,0,0,1.1-2.48,16.71,16.71,0,0,0-.15-2.35c-.11-.73-.24-1.46-.41-2.17l-3.11-11.27H870.12l-2.72,10a36.71,36.71,0,0,0-.93,3.61,12.13,12.13,0,0,0-.26,2.38,2.37,2.37,0,0,0,1.58,2.14,10.8,10.8,0,0,0,4.49.76h4.3v14.93H837.72V245.78h3.22a7.12,7.12,0,0,0,5.55-2.54c1.49-1.67,2.79-4.45,3.89-8.26l22.85-79.53h31.45L925,234.66c1.4,5.2,2.66,8.37,3.8,9.47s3,1.65,5.51,1.65h4.56v14.93Zm3.28-49-7.91-31.88-7.41,31.88ZM731,343.65c2.5,1.2,4.81,2.86,8.24,3.12,3.58.28,7.27-.6,6.67-4.77C744.84,334.63,732.77,341.15,731,343.65ZM695.5,373.27c2.69.32,3.42,2.11,8,2,3.21-.1,5.42-1.27,8.14-2.14,10.86-3.48,14.18,11.34,8.38,9.85-1.91-.49-4.12-4.59-11.1-4.29-3.12.13-6.29.88-9.28,0C697.52,378.09,695.18,376,695.5,373.27Zm69,241.84c-2.18,1.57-9.68,3.8-12.92,4.83-5.39,1.72-10.51,1.65-16.18,1,2.61,4.92-1.86,13.81-2.72,19.38-1.58,10.26,1.21,15.12-1.54,20.22-5.22,9.68-26.24,5.1-36.32,2.52-4.77-1.22-14.46-3.94-19.12-1.2-2.39,1.4-4.08,3.14-7.66,3.65-5.8.84-11.88-3.61-14.92-8l-5.31-6.19a13.11,13.11,0,0,0-7.27-4.18c-4.93-1-5.68.33-9.1,1.87.52-5.89,2.26-11.17,5.92-13.69,5.57-3.85,9.52-1.91,15.35-1-3.5-3.33-15.07-6-18.65,0l-1.67-2.17a3.39,3.39,0,0,0-2.31-1c-2.22-.21-3.95.82-5.51,1.39,1.49-7.84,10-11.74,19.2-9.81,7.93,1.67,11.61,3.48,17.21,8.34a41.71,41.71,0,0,0,23.07,9.57c9.56.58,11.84-1.47,18.08-3.89l5.27-1.82c-3.24-13.1-6.8-22.32-9.18-37.39-1-6.34-1.75-15-.69-21.37,1.19-7.12,5.34-9.52,11-11.59,12.67-4.66,24.92-1.48,36.81,3.36,4.09,1.67,4.07,1.94,6.75,4.73,4,4.14,9.8,17.59,10.14,24.13,1.25,2.92,1.58,5.53,2.05,8.93.23,1.62.32,3.36.64,4.93C765.27,612.5,766.26,614.55,764.49,615.11Zm2.49-20.9a96.93,96.93,0,0,0,3.14,17l1.74,10.91c1.36,12.33,10.85,28.84,17.4,38.08a76.38,76.38,0,0,0,6.13,7.36,104.26,104.26,0,0,0,14.68,13c11.83,8.85,12.72,7,16.38,25a104.72,104.72,0,0,1,1.77,12.25c.47,5.41,1.35,9.61-2.47,10.81-8.83,2.77-13.64,1.27-19.93,7.55-4.18,4.18-6.79,13.56-5.73,21.88.95-3,3.5-5.24,7.45-5.54.73-6,5-10.89,11.4-10.8-4,2.86-5.73,3.87-7.94,9.16-1.87,4.46-1.74,10.72-1.33,15.94,1.33-2.41,1.87-4.86,4.31-6.39s5.63-1.28,8.58-2c1.67-4.08,1.42-6.05,4.31-9.25,2-2.17,5.18-5,9-4.65-3.32,3.78-6.5,5.24-8.48,10.45A17.52,17.52,0,0,0,829,770.39c.65-1.43.76-3.39,1.73-5.05a5.91,5.91,0,0,1,3.87-2.83c6.75-2.1,16.34,1.12,20.22-6.46,4.05-7.92.56-15.51-.86-23.33-3.09-17,.07-29.73-1.77-39.33-2.76-14.35-17.4-14.7-19.27-34.54-1.23-13.09,2.33-24.69,4.23-37.19.71-4.66-.1-9,.27-13.09,1.1,4.25,11.09,12.83,15.17,14.85,22.44,11.14,51.68,2.83,68.48-11.85a68.52,68.52,0,0,0,10.53-12.09c5.54-7.61,9.41-17.19,11.45-27.28,5-25-1.28-54.54-15.49-74.07-9.64-13.25-21.77-21.45-38.72-21.88-8.76-.22-18.36,1.35-24.79,5.27s-11.74,8-15.64,14.85c-4.24,7.47-6.12,14.44-5.74,25.09a37.13,37.13,0,0,0,9.43,24.07c.74.87,1.26,1.22,1.9,2.05,2.43,3.19,9.95,9,13.1,10.23-3-7-4.59-12.68-3.3-20.83,1.1-6.95,4.36-10.92,8.19-16.1,4.22-5.7,7.29-7.67,8.74-15.54a15.83,15.83,0,0,0-1.52-10.25,11.37,11.37,0,0,0-2.65-3.32c-1.14-1-3-1.36-4-2.33,5-4.62,15-8.77,24.26-5.43A46.68,46.68,0,0,1,916,496.74c16.57,18.79,24.5,47.79,16.85,75-3.65,13-10.27,21.61-19.19,29.35-16,13.89-51.26,19.68-62.61-1.2-7.67-14.12-10.46-32.64-19.38-45.72-1.19-1.74-2.23-3.5-3.31-5a90.57,90.57,0,0,0-22.2-21.77A38.84,38.84,0,0,1,796,517c-7.4-11.14.33-22.53-8.21-40.75-2.61-5.56-9.79-16.46-13.92-18.75a22.71,22.71,0,0,1-10.66,14.08c-6.51,3.52-12.85,3.65-21,3.53,2.27-5.6,6.63-13.88,2.63-20.45-6.22-10.19-24.67-11.68-36.44-3.77-7,4.67-7.24,8.07-10.56,14.11l-.17.28-.18.27a2.93,2.93,0,0,1-.19.27c-.95-2.94-2.79-4.37-4-10a47.16,47.16,0,0,1-.65-13.1c-2.8.27-7.87,2.67-9.12,4.21-2.75-2.83-2.36-5-7.81-8.8-3.79-2.64-7.87-3-12.2-4.7A42.66,42.66,0,0,1,644,419.2c-1.94-2.51-2.43-2-2-5.77,1.27-11.69,1-25.3-9.86-31.58-4.15-2.4-8.54-3.18-14-3.33,1.42,2.56,4,3.49,4.27,6.7.28,3-1.64,5.5-1.67,9.3,2.48,1.84,5.07,3.28,6.62,6.41s1.72,8.31.6,12.07c-1.67-6.16-2.73-11-7.93-14.54a14.07,14.07,0,0,0-6.1-2c7,12.89-3.59,21.06-2.28,35.09,1.28,13.73,4,13.93,18.06,18.24,1.2.37,2.73,1.29,3.86,1.49l7.76,7A32.33,32.33,0,0,0,644,461l8.88,8A69.42,69.42,0,0,0,668,479.17c2.3,1.22,3.5,2,5.55,3.13,4.78,2.59,8.25,2.87,14.41,2.18,13.58-1.5,33.39-6.34,45-14.12a53,53,0,0,1,5.69-3.17c-1.15,2.51-7.83,7.55-10.35,9.23-11.15,7.44-31,12.57-44.46,14C682.4,501.79,689.83,516,696.33,524a107.17,107.17,0,0,0,11.18,11.82c4.81,3.95,10.13,8.91,15.67,12.78s21.88,13.24,24.76,15.48a71,71,0,0,1,6.37,5.09,43.94,43.94,0,0,1,5.21,6.3c3.06,4.15,5,10.23,6.86,16.05.13.58.25,1.36.4,1.88S767,594.06,767,594.21ZM623.72,494c-1.63-1.41-2.19-.77-3.67-1.71,2.89-3.06,13.11-2.74,18.62,2.36,5.85,5.42,8,9.37,7.17,17.85,5.35-.7,12.15-3.66,17-5.55,5.36-2.09,10.09-5.26,14.79-7.43.87,2.39,1.42,6.08,2.17,8.93,2.76,10.52,6.73,14.53,10.39,21.72-5.26,3-16.52,7.07-22.61,8.8a211,211,0,0,1-25.21,6c-10.65,1.69-16.57-4.49-16.35-15.12.15-7,2.24-15.25-3.41-19.72-1.43-1.13-3.54-1.48-4.85-2.41,3.84-1.5,10-2.38,13.49-.1,4.18,2.7,3.91,5.17,6.13,9.8.16-6-2.74-12.12-7.68-14.25-1.62-.7-4.67-.72-5.75-1.28C622.31,499.63,623.92,496.68,623.72,494Zm25.81,162.39c-2.85,2.84-4.21.76-7.69,1.74-2.26.64-2.17,3.3-3,5.46,0,.09-.14.39-.16.33s-.1.23-.17.33c-1-2.69-2.57-3.73-3-7.46-.61-4.82,1-5.47,2.24-8.11A13.49,13.49,0,0,1,649.53,656.43ZM461.7,343.65c-2.5,1.2-4.81,2.86-8.24,3.12-3.58.28-7.27-.6-6.67-4.77C447.87,334.63,459.93,341.15,461.7,343.65Zm35.51,29.62c-2.69.32-3.42,2.11-8,2-3.21-.1-5.42-1.27-8.14-2.14-10.86-3.48-14.18,11.34-8.38,9.85,1.91-.49,4.12-4.59,11.1-4.29,3.12.13,6.29.88,9.28,0C495.19,378.09,497.53,376,497.21,373.27Zm-69,241.84c2.18,1.57,9.68,3.8,12.92,4.83,5.39,1.72,10.51,1.65,16.18,1-2.61,4.92,1.86,13.81,2.72,19.38,1.58,10.26-1.21,15.12,1.54,20.22,5.22,9.68,26.24,5.1,36.32,2.52,4.77-1.22,14.46-3.94,19.12-1.2,2.39,1.4,4.08,3.14,7.66,3.65,5.8.84,11.88-3.61,14.92-8l5.31-6.19a13.11,13.11,0,0,1,7.27-4.18c4.93-1,5.68.33,9.1,1.87-.52-5.89-2.26-11.17-5.92-13.69-5.57-3.85-9.52-1.91-15.35-1,3.5-3.33,15.07-6,18.65,0l1.67-2.17a3.39,3.39,0,0,1,2.31-1c2.22-.21,3.94.82,5.51,1.39-1.49-7.84-10-11.74-19.2-9.81-7.93,1.67-11.61,3.48-17.21,8.34a41.72,41.72,0,0,1-23.07,9.57c-9.56.58-11.84-1.47-18.08-3.89L485.3,635c3.24-13.1,6.8-22.32,9.18-37.39,1-6.34,1.75-15,.69-21.37-1.19-7.12-5.34-9.52-11-11.59-12.67-4.66-24.92-1.48-36.81,3.36-4.09,1.67-4.07,1.94-6.75,4.73-4,4.14-9.8,17.59-10.14,24.13-1.25,2.92-1.58,5.53-2.05,8.93-.23,1.62-.32,3.36-.64,4.93C427.44,612.5,426.45,614.55,428.21,615.11Zm-2.49-20.9a96.91,96.91,0,0,1-3.14,17l-1.74,10.91c-1.36,12.33-10.85,28.84-17.4,38.08a76.4,76.4,0,0,1-6.13,7.36,104.24,104.24,0,0,1-14.68,13c-11.83,8.85-12.72,7-16.38,25a104.61,104.61,0,0,0-1.77,12.25c-.47,5.41-1.35,9.61,2.47,10.81,8.83,2.77,13.64,1.27,19.93,7.55,4.18,4.18,6.79,13.56,5.73,21.88-.95-3-3.5-5.24-7.45-5.54-.73-6-5-10.89-11.4-10.8,4,2.86,5.73,3.87,7.94,9.16,1.87,4.46,1.74,10.72,1.33,15.94-1.33-2.41-1.87-4.86-4.31-6.39s-5.63-1.28-8.58-2c-1.67-4.08-1.42-6.05-4.31-9.25-2-2.17-5.18-5-9-4.65,3.32,3.78,6.51,5.24,8.49,10.45a17.52,17.52,0,0,1-1.58,15.38c-.65-1.43-.76-3.39-1.73-5.05a5.91,5.91,0,0,0-3.87-2.83c-6.75-2.1-16.34,1.12-20.22-6.46-4.05-7.92-.56-15.51.86-23.33,3.09-17-.07-29.73,1.77-39.33,2.76-14.35,17.4-14.7,19.27-34.54,1.23-13.09-2.33-24.69-4.23-37.19-.71-4.66.1-9-.27-13.09-1.1,4.25-11.09,12.83-15.17,14.85-22.45,11.14-51.68,2.83-68.48-11.85a68.51,68.51,0,0,1-10.53-12.09c-5.54-7.61-9.41-17.19-11.45-27.28-5-25,1.28-54.54,15.49-74.07,9.64-13.25,21.77-21.45,38.72-21.88,8.76-.22,18.36,1.35,24.79,5.27s11.74,8,15.64,14.85c4.24,7.47,6.12,14.44,5.74,25.09a37.13,37.13,0,0,1-9.43,24.07c-.74.87-1.26,1.22-1.9,2.05-2.43,3.19-9.95,9-13.1,10.23,3-7,4.59-12.68,3.3-20.83-1.1-6.95-4.36-10.92-8.19-16.1-4.22-5.7-7.29-7.67-8.74-15.54a15.83,15.83,0,0,1,1.52-10.25,11.38,11.38,0,0,1,2.65-3.32c1.14-1,3-1.36,4-2.33-5-4.62-15-8.77-24.26-5.43a46.67,46.67,0,0,0-19.25,12.73c-16.57,18.79-24.5,47.79-16.85,75,3.65,13,10.27,21.61,19.19,29.35,16,13.89,51.26,19.68,62.61-1.2,7.67-14.12,10.46-32.64,19.38-45.72,1.19-1.74,2.23-3.5,3.31-5a90.57,90.57,0,0,1,22.2-21.77A38.84,38.84,0,0,0,396.76,517c7.4-11.14-.33-22.53,8.21-40.75,2.61-5.56,9.79-16.46,13.92-18.75a22.71,22.71,0,0,0,10.66,14.08c6.51,3.52,12.85,3.65,21,3.53-2.27-5.6-6.63-13.88-2.63-20.45,6.22-10.19,24.67-11.68,36.44-3.77,7,4.67,7.24,8.07,10.56,14.11l.17.28.18.27a2.66,2.66,0,0,0,.19.27c.95-2.94,2.79-4.37,4-10a47.17,47.17,0,0,0,.65-13.1c2.8.27,7.87,2.67,9.12,4.21,2.75-2.83,2.35-5,7.81-8.8,3.79-2.64,7.87-3,12.2-4.7a42.65,42.65,0,0,0,19.4-14.17c1.94-2.51,2.43-2,2-5.77-1.27-11.69-1-25.3,9.86-31.58,4.15-2.4,8.54-3.18,14-3.33-1.42,2.56-4,3.49-4.27,6.7-.28,3,1.64,5.5,1.67,9.3-2.48,1.84-5.07,3.28-6.62,6.41s-1.72,8.31-.6,12.07c1.67-6.16,2.73-11,7.93-14.54a14.06,14.06,0,0,1,6.1-2c-7,12.89,3.59,21.06,2.28,35.09-1.28,13.73-4,13.93-18.06,18.24-1.2.37-2.73,1.29-3.86,1.49l-7.76,7a32.31,32.31,0,0,1-2.61,2.68l-8.89,8a69.41,69.41,0,0,1-15.11,10.18c-2.3,1.22-3.5,2-5.55,3.13-4.78,2.59-8.25,2.87-14.41,2.18-13.57-1.5-33.39-6.34-45-14.12a52.9,52.9,0,0,0-5.69-3.17c1.15,2.51,7.83,7.55,10.35,9.23,11.15,7.44,31,12.57,44.46,14,1.38,11.37-6.06,25.56-12.55,33.62a107.19,107.19,0,0,1-11.18,11.82c-4.81,3.95-10.13,8.91-15.67,12.78s-21.88,13.24-24.76,15.48a70.85,70.85,0,0,0-6.37,5.09,43.87,43.87,0,0,0-5.21,6.3c-3.06,4.15-5,10.23-6.86,16.05-.13.58-.25,1.36-.41,1.88S425.76,594.06,425.73,594.21ZM569,494c1.63-1.41,2.19-.77,3.67-1.71-2.89-3.06-13.11-2.74-18.62,2.36-5.85,5.42-8,9.37-7.17,17.85-5.35-.7-12.15-3.66-17-5.55-5.36-2.09-10.09-5.26-14.79-7.43-.87,2.39-1.42,6.08-2.17,8.93-2.76,10.52-6.73,14.53-10.39,21.72,5.26,3,16.52,7.07,22.61,8.8a210.94,210.94,0,0,0,25.21,6c10.65,1.69,16.58-4.49,16.35-15.12-.15-7-2.24-15.25,3.41-19.72,1.43-1.13,3.54-1.48,4.85-2.41-3.84-1.5-10-2.38-13.49-.1-4.18,2.7-3.91,5.17-6.14,9.8-.16-6,2.74-12.12,7.68-14.25,1.62-.7,4.68-.72,5.75-1.28C570.39,499.63,568.78,496.68,569,494ZM543.17,656.43c2.86,2.84,4.21.76,7.69,1.74,2.26.64,2.17,3.3,3,5.46,0,.09.14.39.16.33s.1.23.17.33c1-2.69,2.57-3.73,3-7.46.61-4.82-1-5.47-2.24-8.11A13.49,13.49,0,0,0,543.17,656.43ZM405.83,308.78a28.32,28.32,0,0,0-7.14,2.52l-2.92,1.16c-2.76.71-7.4,3.65-10.1,5.06a47.65,47.65,0,0,0-4.79,3.11L376.74,324c-7.28,7-7.78,6.39-14.06,16.9-3.46,5.78-6.43,16.11-7.26,24-1.56,14.9,1.17,18,2.29,27.95.17-7.18-.55-8.83,1.87-15.56,1.35-3.76,5-8.64,7.61-10.22-1.19,9.53-1.65,14.48.08,24.18,1.28,7.16,3.62,13.8,5,21,2.79,14.12,2,26.72-3.21,40-.58,1.48-1.38,2.95-1.88,4.56,10.19-.33,19.28-5.15,24-14.05-.41,4.43-1.37,8.5-1.65,13.46a97.21,97.21,0,0,0,2.21,28c.94,3.77,1.91,8.7,5.51,9.76-.49-5.42-.21-10.34,1.49-14.89,4.29-11.5,9-16.36,16.26-24.31.6-.66,3.42-3.64,3.65-4.09a18.42,18.42,0,0,0,4.06-3.19c-.2,2.3-.89,6.8,0,8.71-.3,5.61,5.11,10.67,8.27,12.62a32.93,32.93,0,0,0,16.37,4.45,33,33,0,0,0-2.5-4.34c-2.73-4.78-4-10.91-1.53-15.83,3-6,9.87-9.23,16.16-10.67,15.7-3.62,27.34,1.69,35.41,15.44,3.86-15.87-2.19-30.9-10.36-38.29-4.77-4.31-10.31-5.81-18.21-6.93-7.51-1.07-13.67-2.56-14-11,2.65,1.91,2.23,3.13,6.53,4.63,8.75,3.06,20.47-6.09,25.23-4.77.88,2-.53,3.37-1.06,5.53,6.43-.86,14.84-14.86,10.39-22.17-2.15-3.52-8.47-4.43-12.93-2.28-4.69,2.26-8.43,7.46-10.48,6.4s-6-17.11,7.74-22.16c6.14-2.25,10.46.44,15.36-1s5.4-7.85,3.38-12.43c-2.17-4.91-.17-2,.11-6.6.19-3.11-.86-4.76-3-5.77a52.22,52.22,0,0,0-5.87-2.78c-8.61-3.08-25.39-9-33.51-9.59,1.46-7.48-.08-12-4.06-16-5.18-5.17-6.66-4.51-14.18-7.19l-3.35-.87c-7.52-1.39-19.29-4-25.56-8.91-1.41-1.11-1-1.49-2.54-2.38.07,4,.48,9,2.58,11.52a5.84,5.84,0,0,0,2.54,2.34C408.25,308.13,407,308.14,405.83,308.78Zm381.05,0A28.33,28.33,0,0,1,794,311.3l2.92,1.16c2.76.71,7.4,3.65,10.1,5.06a47.58,47.58,0,0,1,4.79,3.11L816,324c7.28,7,7.78,6.39,14.06,16.9,3.46,5.78,6.43,16.11,7.26,24,1.56,14.9-1.17,18-2.29,27.95-.17-7.18.55-8.83-1.87-15.56-1.35-3.76-5-8.64-7.61-10.22,1.19,9.53,1.65,14.48-.08,24.18-1.28,7.16-3.62,13.8-5,21-2.79,14.12-2,26.72,3.21,40,.59,1.48,1.38,2.95,1.88,4.56-10.19-.33-19.28-5.15-24-14.05.41,4.43,1.37,8.5,1.65,13.46a97.2,97.2,0,0,1-2.21,28C800,488,799,492.9,795.42,494c.49-5.42.21-10.34-1.49-14.89-4.29-11.5-9-16.36-16.26-24.31-.6-.66-3.42-3.64-3.65-4.09a18.42,18.42,0,0,1-4.06-3.19c.2,2.3.89,6.8,0,8.71.3,5.61-5.11,10.67-8.27,12.62a32.93,32.93,0,0,1-16.37,4.45,33,33,0,0,1,2.5-4.34c2.73-4.78,4-10.91,1.53-15.83-3-6-9.87-9.23-16.16-10.67-15.7-3.62-27.34,1.69-35.42,15.44C693.93,442,700,427,708.15,419.57c4.77-4.31,10.31-5.81,18.21-6.93,7.51-1.07,13.67-2.56,14-11-2.66,1.91-2.23,3.13-6.53,4.63-8.75,3.06-20.47-6.09-25.23-4.77-.88,2,.53,3.37,1.06,5.53-6.43-.86-14.84-14.86-10.39-22.17,2.15-3.52,8.47-4.43,12.93-2.28,4.69,2.26,8.43,7.46,10.48,6.4s6-17.11-7.74-22.16c-6.14-2.25-10.46.44-15.36-1s-5.4-7.85-3.38-12.43c2.17-4.91.17-2-.11-6.6-.19-3.11.86-4.76,3-5.77a52.23,52.23,0,0,1,5.87-2.78c8.61-3.08,25.39-9,33.51-9.59-1.46-7.48.08-12,4.06-16,5.18-5.17,6.66-4.51,14.18-7.19l3.35-.87c7.52-1.39,19.29-4,25.56-8.91,1.41-1.11,1-1.49,2.54-2.38-.07,4-.48,9-2.58,11.52a5.85,5.85,0,0,1-2.54,2.34C784.46,308.13,785.73,308.14,786.88,308.78ZM670,805.58h10.69q-1.21,16.63-10.24,25.71t-24.37,9.08a45.76,45.76,0,0,1-16.58-2.86,37.2,37.2,0,0,1-13.22-8.74,42.54,42.54,0,0,1-9.74-14.71,48,48,0,0,1-3.32-17.94,47.42,47.42,0,0,1,3.21-17.69,43.21,43.21,0,0,1,9.72-14.54A39.69,39.69,0,0,1,645,752a37.64,37.64,0,0,1,12.6,2.09,42.31,42.31,0,0,1,11.62,6.46l2.49-7.46h9v34.17h-9.59q-1.46-12-7.69-18.52t-16-6.55q-11.5,0-18,9.16t-6.53,25.38q0,15.42,6.49,23.83T647.65,829q9.17,0,14.88-6T670,805.58Zm-154.65,32.3v-9.47h4.85c3.69,0,6-.44,6.88-1.31s1.33-3,1.33-6.4V771.6c0-3.4-.44-5.53-1.33-6.4s-3.19-1.31-6.88-1.31h-4.85v-9.41H593V789h-9.59a62.69,62.69,0,0,0-.85-11.08,25.67,25.67,0,0,0-2.61-7.79,10.29,10.29,0,0,0-5.95-4.81q-4.13-1.46-12.43-1.45H546V789.5h2.13q7.8,0,10.26-2.69c1.62-1.8,2.61-5.95,3-12.41l9.47-.06v41.81l-9.47-.06q-.56-10.75-3-13.86t-10.17-3.13H546v21.61c0,3.36.46,5.49,1.37,6.38s3.23,1.33,7,1.33h5.82v9.47Zm81-736.61c-127.27,0-216.53,7.27-338.22-33.9L165.53,189.2s80.13,105.11,47.87,227.91-88.43,362,6.77,455.29C292.36,943.1,417.39,1010,507.82,1058.12c43.84,23.33,78.07,54.62,88.55,65.09,10.47-10.47,44.7-41.76,88.54-65.09,90.44-48.11,215.47-115,287.65-185.72,95.21-93.26,39-332.49,6.77-455.29s47.87-227.91,47.87-227.91L934.59,67.37C812.9,108.55,723.64,101.27,596.37,101.27Z"/><path class="cls-2" d="M264.57,88,187.29,189.61c12.27,18.79,23.25,41.85,30.68,61.2,21,54.61,27.41,113.71,12.42,170.76C202.23,528.78,142.82,772,232.47,859.84c40.54,39.71,92.68,74,141.15,103.34,46.55,28.15,94.45,53.88,142.46,79.43a419.23,419.23,0,0,1,80.29,56.4,419.24,419.24,0,0,1,80.29-56.4c48-25.54,95.9-51.28,142.46-79.43,48.47-29.3,100.61-63.62,141.15-103.34,89.65-87.82,30.24-331.06,2.07-438.27-15-57.06-8.57-116.16,12.43-170.77,7.43-19.34,18.41-42.4,30.68-61.19L928.17,88c-50.44,16-100.34,25.24-153.52,28.94-59.12,4.11-119,1.94-178.28,1.94S477.21,121,418.09,116.91C364.91,113.21,315,104,264.57,88Zm-27.35,647.5,11.12,10.8c-3.82,5.74-4.21,4.28-10.71,1.79C234.75,740.7,233.11,740.25,237.22,735.48Zm53,119,21.12-53.08L281.47,829.8c-2.74,2.62-4.17,4.54-4.29,5.79-.15,1.69.62,3.42,2.29,5.17l1.5,1.57-1.21,1.16L264.95,828l1.21-1.16,1.5,1.57q2.7,2.83,5.56,2.38c1.16-.18,3-1.48,5.49-3.86l29.18-27.82a14.14,14.14,0,0,0,3.66-4.74,5.09,5.09,0,0,0,0-3.22,12.63,12.63,0,0,0-3.14-4.58l1.23-1.17L321.66,798l-19.5,49.52,50.14-17.39,12.06,12.64L363.14,844l-1.48-1.55q-2.73-2.87-5.57-2.42c-1.17.19-3,1.47-5.51,3.86L321.4,871.68c-2.74,2.62-4.15,4.56-4.25,5.83q-.22,2.53,2.28,5.16l1.48,1.55-1.21,1.16-18.09-19,1.21-1.16,1.51,1.58q2.73,2.87,5.56,2.38c1.16-.18,3-1.48,5.49-3.86l29.84-28.46-54,18.61Zm104.06,8.89a16.28,16.28,0,0,0-14.45-2.43q-9.45,2.79-17.78,15-8.54,12.48-7.8,22.84a16,16,0,0,0,7.32,12.52,17.9,17.9,0,0,0,15.68,2.5q8.5-2.4,16.75-14.45,8.93-13.06,8.18-23Q401.52,868.3,394.24,863.32Zm2.57-2.25q9.92,6.79,12,19.28t-5.59,23.76q-7.95,11.61-20.51,14.25a29.65,29.65,0,0,1-35.52-24q-2-12.37,6.08-24.24,8.3-12.13,21.8-14.14A29.55,29.55,0,0,1,396.82,861.07Zm75.72,42.71L411.74,940l23.06,10.41q5.31,2.4,9.19,1.35c2.6-.7,5.7-3.07,9.29-7.14l1.26.86-9.37,13.7-45.79-20.67.69-1.53,59.26-35.06-18-8.12q-4.48-2-6.93-2a7.61,7.61,0,0,0-4.35,1.44c-1.26.91-2.94,2.92-5,6l-1.57-.71L430.95,885Zm36.68,48.94L505,926l-16.38,21.64Zm.43,3.58-23.19-5.71L480.07,959a15.17,15.17,0,0,0-2.79,4.85,3.13,3.13,0,0,0,.71,2.72c.7.91,2.46,1.82,5.31,2.75l-.4,1.63L464,966.34l.4-1.63c2.61.16,4.37,0,5.28-.54,1.85-1,4.22-3.5,7.11-7.38L510,912.68l1.54.38,8.58,55q1,6.64,2.65,8.92a9.68,9.68,0,0,0,5.23,3.43l-.4,1.63L504,976.18l.4-1.63c2.41.47,4.13.46,5.14,0a3.13,3.13,0,0,0,1.88-2.16c.32-1.3.22-3.48-.27-6.58Zm150.24,20.81a45.74,45.74,0,0,0,10.47-.62c5.41-1,9.31-2.92,11.72-5.86a11.63,11.63,0,0,0,2.64-9.78,13.41,13.41,0,0,0-3.14-6.46,13.1,13.1,0,0,0-7.19-4,27.5,27.5,0,0,0-11.08,0c-1.85.33-3.43.64-4.74.93a24,24,0,0,0-3.12.89Zm-5.18-29a34.16,34.16,0,0,0,3.88-.2c1.44-.15,3-.38,4.71-.68,4.36-.78,7.56-1.82,9.58-3.16a10.64,10.64,0,0,0,4.27-5.23,12.29,12.29,0,0,0,.61-6.67,11.81,11.81,0,0,0-6-8.31q-5-3-13.35-1.5a31,31,0,0,0-7.9,2.42Zm23.9-1.76q6.57.2,10.23,2.61a13.59,13.59,0,0,1,6.14,9.3,15.28,15.28,0,0,1-1.33,9.18,16.58,16.58,0,0,1-6.78,7.44q-4.66,2.8-14.9,4.63L643.3,984.6l-.29-1.65,2.28-.41q3.81-.68,5-3.41c.5-1.16.46-3.44-.15-6.85l-7-39.25q-1-5.64-2.57-6.88a6.69,6.69,0,0,0-5.55-1l-2.28.41-.3-1.67,26.24-4.68a52.45,52.45,0,0,1,12-1q7,.41,11.28,3.87a14.25,14.25,0,0,1,5.22,8.8,13.3,13.3,0,0,1-1.31,8.67A16.63,16.63,0,0,1,678.61,946.31Zm64.72,11.84.54,1.59-25.06,8.45-.54-1.59,2.08-.7q3.62-1.22,4.54-3.89c.38-1.15,0-3.49-1.19-7L711,917.24a20.57,20.57,0,0,0-2.53-5.67,4.15,4.15,0,0,0-2.39-1.26,8.62,8.62,0,0,0-4.32.31l-2.07.7-.54-1.6,25.06-8.45.54,1.6-2.12.71c-2.38.8-3.88,2.1-4.5,3.86-.41,1.17,0,3.5,1.15,7L732,952.23a20.59,20.59,0,0,0,2.53,5.67,4.12,4.12,0,0,0,2.44,1.24,8.37,8.37,0,0,0,4.28-.28Zm20.44-72a16.67,16.67,0,0,0-9.1,11.39q-2.23,9.51,4.8,23.09,6.89,13.28,16.36,17.5a16.13,16.13,0,0,0,14.62-.55,17.11,17.11,0,0,0,9.37-11.89q2.07-9.37-4.55-22.13-5.1-9.82-11.56-15a19.08,19.08,0,0,0-10.08-4.45A17.59,17.59,0,0,0,763.78,886.13Zm34.56,50q7.81,5,14.33,5.84a24.22,24.22,0,0,0,12.87-1.81l.67,1.3a49.89,49.89,0,0,1-13.08,3.93,57.92,57.92,0,0,1-15,.58,66.41,66.41,0,0,1-13.78-2.61,43.73,43.73,0,0,1-11.78-.19A30.6,30.6,0,0,1,760,937.51a35,35,0,0,1-9.74-12.09q-6.37-12.28-2.63-24.53a29.31,29.31,0,0,1,15.07-18.11q10.73-5.57,22.82-1.51T804,897.73a32.66,32.66,0,0,1,3.56,20.55A31.1,31.1,0,0,1,798.34,936.13ZM865,808.46l18.46,15.93,8.86-10.27q3.45-4,3.41-6.37c0-2.11-1.31-4.37-3.86-6.82l1.1-1.27,16.27,14-1.1,1.27a23.62,23.62,0,0,0-5.21-2.81,5.71,5.71,0,0,0-3.65.4,13.69,13.69,0,0,0-4.44,3.74l-8.86,10.27,15.41,13.29a19.47,19.47,0,0,0,4,3,2.94,2.94,0,0,0,1.9,0,7.93,7.93,0,0,0,2.65-2.29l6.84-7.93a27.83,27.83,0,0,0,4.41-6.23A11.21,11.21,0,0,0,922,821a35.12,35.12,0,0,0-2.67-9.93l1.19-1.38,8.25,14.13-31.06,36-1.27-1.1,1.43-1.66a8.65,8.65,0,0,0,1.9-3.82,3.84,3.84,0,0,0-.35-2.93,21.93,21.93,0,0,0-4.18-4.28l-30.36-26.18c-3-2.56-5-3.83-6.25-3.83q-2.44,0-4.94,2.94l-1.43,1.66-1.28-1.11,31.06-36,10.68,8.31-1.17,1.35a21.16,21.16,0,0,0-6.44-2.76,7.26,7.26,0,0,0-4.35.78,20.74,20.74,0,0,0-4.71,4.41ZM577.71,986l-21.85-52.79-1.57,41.21c-.14,3.79.17,6.16,1,7.14,1.07,1.32,2.83,2,5.25,2.11l2.17.08-.06,1.68-21.45-.82.06-1.68,2.17.08c2.61.1,4.48-.62,5.65-2.16.7-.94,1.11-3.14,1.25-6.59L551.82,934a14.14,14.14,0,0,0-.68-5.95,5.09,5.09,0,0,0-2.26-2.29,12.63,12.63,0,0,0-5.44-1.09l.06-1.69,17.46.66,20.53,49.1,23.84-47.42,17.46.66-.06,1.69-2.14-.08c-2.64-.1-4.53.62-5.68,2.15-.7,1-1.13,3.14-1.26,6.6l-1.53,40.29c-.14,3.79.2,6.16,1,7.14q1.6,2,5.24,2.11l2.14.08-.06,1.68-26.2-1,.06-1.68,2.19.08c2.64.1,4.52-.62,5.65-2.16.7-.94,1.11-3.14,1.25-6.59L605,935.05l-25.75,51ZM828.5,839.75l-1.05-1.32,17.09-13.62,1.06,1.32-1.82,1.45a6.25,6.25,0,0,0-2.48,5.86c.09,1.14,1.19,3,3.33,5.73l15.59,19.57q5.79,7.27,7.54,12.4a18.1,18.1,0,0,1-.18,11.39q-1.95,6.23-9.2,12-7.91,6.3-14.18,6.81a18.92,18.92,0,0,1-11.67-2.74q-3.66-2.27-10.62-11l-15-18.86c-2.36-3-4.31-4.59-5.87-4.85s-3.24.32-5.06,1.77l-1.82,1.45-1.06-1.32,20.86-16.62,1.05,1.32L813.13,852c-2,1.59-2.93,3.35-2.78,5.29.08,1.32,1.21,3.34,3.36,6l16.76,21a59.8,59.8,0,0,0,5.64,6,17.73,17.73,0,0,0,6.38,4.17,12.93,12.93,0,0,0,6.56.23,17.09,17.09,0,0,0,7.3-3.65,22,22,0,0,0,6.82-8.81,14.12,14.12,0,0,0,.9-9.36q-1.2-4.31-7.32-12L841.2,841.43c-2.4-3-4.24-4.62-5.5-4.86a6.72,6.72,0,0,0-5.38,1.72ZM954.82,735.37l-11.12,10.8c3.82,5.74,4.21,4.28,10.71,1.78C957.29,740.6,958.92,740.15,954.82,735.37Zm-23.52,46.27-3.15-15.22,8.87,18.9,7.78,5-1-31.69,13.91,28.66L954,756.63l14.55,17.85L962,743.41l13.69,14.15L971,729.76c10.62,13.75,13.45,9.35,14.1,2.59a2.74,2.74,0,0,1-2,1.18c-2.32.23-5-2.35-5.92-5.76-.83-3.07.07-5.8,2-6.41a52.58,52.58,0,0,0-9.24-7.69c-7.07-23.3-14.85-43.34-24.1-57,8.94,21.84,12.8,35.33,16.13,55.46l-9.4,13.61c-2.33-4.09-10.79-14.65-18.43-18.88,4.3,5.57,9.81,20.16,11,28.94l-10.5,7.49c-7.43,5.51-14.9,11-22.31,16.51l-7.5-19.68c.64,8-1,15.61-.38,23.6l-.38.36Zm-670.54.1,3.15-15.23L255,785.42l-7.78,5,1-31.69L234.38,787.4l3.69-30.66-14.54,17.85,6.54-31.07-13.68,14.15,4.66-27.79c-10.62,13.76-13.44,9.35-14.1,2.59a2.74,2.74,0,0,0,2,1.18c2.32.22,5-2.35,5.92-5.76.83-3.07-.08-5.8-2-6.41a52.58,52.58,0,0,1,9.24-7.69c7.06-23.3,14.84-43.35,24.08-57-8.93,21.84-12.79,35.33-16.11,55.46l9.41,13.61c2.33-4.09,10.78-14.65,18.43-18.89-4.3,5.57-9.8,20.16-11,28.95l10.5,7.49c7.43,5.51,14.91,11,22.32,16.5l7.49-19.68c-.64,8,1,15.61.38,23.6l.38.36Zm84.9-561.8q-.52,21.14-11,32.53t-29.78,11.38q-22.52,0-34.64-14.44t-12.12-41.27q0-25.38,12.55-40.62t33.56-15.25a46.07,46.07,0,0,1,13.13,1.8,41,41,0,0,1,11.62,5.54l2.22-5.81h14.1v43.36H329.69q-2.27-15.18-7-22t-12.59-6.85q-9.17,0-13.35,9.39t-4.17,30.15q0,21.46,4.3,30.89t14,9.42q8.78,0,14.43-7.61t6.33-20.58Zm54.6-64.49V170.3h-1.45q-3.92,0-5.12,1.49c-.8,1-1.21,3.5-1.21,7.48v19h24.1v-19c0-4-.41-6.49-1.23-7.48s-2.55-1.49-5.16-1.49h-1.38V155.44H457V170.3h-4.43c-3,0-5,.47-5.85,1.41s-1.3,3.48-1.3,7.56v57.46c0,4.11.43,6.62,1.3,7.58s2.81,1.46,5.85,1.46H457v14.93H408.81V245.78h1.38c2.57,0,4.28-.52,5.12-1.54s1.27-3.5,1.27-7.51V213.14h-24.1v23.59c0,4,.41,6.49,1.23,7.51s2.53,1.54,5.1,1.54h1.45v14.93H352V245.78h4.36q4.37,0,5.77-1.26c.93-.86,1.38-3.45,1.38-7.79V179.27c0-4.13-.43-6.67-1.27-7.58s-2.79-1.39-5.87-1.39H352V155.44Zm152.27,0v39.23h-13.8a82.59,82.59,0,0,0-2.81-12,21.71,21.71,0,0,0-3.65-6.9,13.84,13.84,0,0,0-6-4.26q-3.56-1.26-11.47-1.26H501.06v28.9h3.35c3.93,0,6.7-1.15,8.27-3.45s2.38-6.38,2.38-12.27v-.92h10.89v48H515.05c-.17-7.35-1-12.13-2.38-14.33s-4.13-3.3-8.14-3.3h-3.48v32.8h15.38c6,0,10.07-.44,12.31-1.31A10,10,0,0,0,534,240a34,34,0,0,0,3.2-9.15,85.39,85.39,0,0,0,1.56-13.6H553v43.44H461.27V245.78h4.36c2.87,0,4.75-.42,5.66-1.23s1.36-3.16,1.36-7V179.27c0-4.08-.43-6.62-1.27-7.56s-2.79-1.41-5.87-1.41h-4.23V155.44Zm62,0V170.3h-4.95c-2.85,0-4.73.42-5.62,1.23s-1.34,3.14-1.34,7v67h5.83q8.1,0,11.4-1a10.3,10.3,0,0,0,5.29-3.64,22.69,22.69,0,0,0,3.74-8.74,91.09,91.09,0,0,0,1.71-15.25h13.48v43.88H562.2V245.78h4.36c3,0,5-.5,5.85-1.46s1.3-3.48,1.3-7.58V179.27c0-4.08-.43-6.62-1.27-7.56s-2.79-1.41-5.87-1.41H562.2V155.44Zm41.9,66.51H669q3.11,12.16,10.28,19a23.7,23.7,0,0,0,16.93,6.85c3.91,0,7.06-1,9.42-3a9.93,9.93,0,0,0,3.54-7.92q0-7.57-15.38-12.71c-3.33-1.07-5.94-2-7.84-2.69q-9.23-3.37-14.23-5.73a29.92,29.92,0,0,1-7.21-4.45,30.38,30.38,0,0,1-7.75-10.54,33,33,0,0,1-2.51-13.15q0-15.85,9.72-25.6t25.66-9.73a57.1,57.1,0,0,1,15.12,1.91,53,53,0,0,1,13.61,5.91l2.35-5.28h12.46v36.56H718.52c-1.43-7.48-4.13-13-8.1-16.69s-9.27-5.49-15.9-5.49a14.3,14.3,0,0,0-9.59,3.22,10,10,0,0,0-3.76,7.9q0,7.06,14.43,10.67c2.35.63,4.19,1.1,5.51,1.46q20.12,5.61,28.23,13.91t8.1,22.62q0,15.93-10,25.39t-26.87,9.47a52.22,52.22,0,0,1-14.88-2.12,59.3,59.3,0,0,1-14.17-6.38l-3.22,5.83h-11.9Zm177.69-66.51v39.23h-13.8a82.62,82.62,0,0,0-2.81-12,21.7,21.7,0,0,0-3.65-6.9,13.85,13.85,0,0,0-6-4.26q-3.56-1.26-11.47-1.26H782.67v28.9H786c3.93,0,6.7-1.15,8.27-3.45s2.38-6.38,2.38-12.27v-.92h10.89v48H796.66c-.17-7.35-1-12.13-2.38-14.33s-4.13-3.3-8.14-3.3h-3.48v32.8H798c6,0,10.07-.44,12.31-1.31a10,10,0,0,0,5.23-4.45,34,34,0,0,0,3.2-9.15,85.33,85.33,0,0,0,1.56-13.6h14.3v43.44H742.88V245.78h4.36c2.87,0,4.75-.42,5.66-1.23s1.36-3.16,1.36-7V179.27c0-4.08-.43-6.62-1.27-7.56s-2.79-1.41-5.87-1.41h-4.23V155.44Zm52,105.27V245.78h3.91c3.3,0,5.31-.21,6-.65a2.65,2.65,0,0,0,1.1-2.48,16.71,16.71,0,0,0-.15-2.35c-.11-.73-.24-1.46-.41-2.17l-3.11-11.27H870.12l-2.72,10a36.71,36.71,0,0,0-.93,3.61,12.13,12.13,0,0,0-.26,2.38,2.37,2.37,0,0,0,1.58,2.14,10.8,10.8,0,0,0,4.49.76h4.3v14.93H837.72V245.78h3.22a7.12,7.12,0,0,0,5.55-2.54c1.49-1.67,2.79-4.45,3.89-8.26l22.85-79.53h31.45L925,234.66c1.4,5.2,2.66,8.37,3.8,9.47s3,1.65,5.51,1.65h4.56v14.93Zm3.28-49-7.91-31.88-7.41,31.88ZM731,343.65c2.5,1.2,4.81,2.86,8.24,3.12,3.58.28,7.27-.6,6.67-4.77C744.84,334.63,732.77,341.15,731,343.65ZM695.5,373.27c2.69.32,3.42,2.11,8,2,3.21-.1,5.42-1.27,8.14-2.14,10.86-3.48,14.18,11.34,8.38,9.85-1.91-.49-4.12-4.59-11.1-4.29-3.12.13-6.29.88-9.28,0C697.52,378.09,695.18,376,695.5,373.27Zm69,241.84c-2.18,1.57-9.68,3.8-12.92,4.83-5.39,1.72-10.51,1.65-16.18,1,2.61,4.92-1.86,13.81-2.72,19.38-1.58,10.26,1.21,15.12-1.54,20.22-5.22,9.68-26.24,5.1-36.32,2.52-4.77-1.22-14.46-3.94-19.12-1.2-2.39,1.4-4.08,3.14-7.66,3.65-5.8.84-11.88-3.61-14.92-8l-5.31-6.19a13.11,13.11,0,0,0-7.27-4.18c-4.93-1-5.68.33-9.1,1.87.52-5.89,2.26-11.17,5.92-13.69,5.57-3.85,9.52-1.91,15.35-1-3.5-3.33-15.07-6-18.65,0l-1.67-2.17a3.39,3.39,0,0,0-2.31-1c-2.22-.21-3.95.82-5.51,1.39,1.49-7.84,10-11.74,19.2-9.81,7.93,1.67,11.61,3.48,17.21,8.34a41.71,41.71,0,0,0,23.07,9.57c9.56.58,11.84-1.47,18.08-3.89l5.27-1.82c-3.24-13.1-6.8-22.32-9.18-37.39-1-6.34-1.75-15-.69-21.37,1.19-7.12,5.34-9.52,11-11.59,12.67-4.66,24.92-1.48,36.81,3.36,4.09,1.67,4.07,1.94,6.75,4.73,4,4.14,9.8,17.59,10.14,24.13,1.25,2.92,1.58,5.53,2.05,8.93.23,1.62.32,3.36.64,4.93C765.27,612.5,766.26,614.55,764.49,615.11Zm2.49-20.9a96.93,96.93,0,0,0,3.14,17l1.74,10.91c1.36,12.33,10.85,28.84,17.4,38.08a76.38,76.38,0,0,0,6.13,7.36,104.26,104.26,0,0,0,14.68,13c11.83,8.85,12.72,7,16.38,25a104.72,104.72,0,0,1,1.77,12.25c.47,5.41,1.35,9.61-2.47,10.81-8.83,2.77-13.64,1.27-19.93,7.55-4.18,4.18-6.79,13.56-5.73,21.88.95-3,3.5-5.24,7.45-5.54.73-6,5-10.89,11.4-10.8-4,2.86-5.73,3.87-7.94,9.16-1.87,4.46-1.74,10.72-1.33,15.94,1.33-2.41,1.87-4.86,4.31-6.39s5.63-1.28,8.58-2c1.67-4.08,1.42-6.05,4.31-9.25,2-2.17,5.18-5,9-4.65-3.32,3.78-6.5,5.24-8.48,10.45A17.52,17.52,0,0,0,829,770.39c.65-1.43.76-3.39,1.73-5.05a5.91,5.91,0,0,1,3.87-2.83c6.75-2.1,16.34,1.12,20.22-6.46,4.05-7.92.56-15.51-.86-23.33-3.09-17,.07-29.73-1.77-39.33-2.76-14.35-17.4-14.7-19.27-34.54-1.23-13.09,2.33-24.69,4.23-37.19.71-4.66-.1-9,.27-13.09,1.1,4.25,11.09,12.83,15.17,14.85,22.44,11.14,51.68,2.83,68.48-11.85a68.52,68.52,0,0,0,10.53-12.09c5.54-7.61,9.41-17.19,11.45-27.28,5-25-1.28-54.54-15.49-74.07-9.64-13.25-21.77-21.45-38.72-21.88-8.76-.22-18.36,1.35-24.79,5.27s-11.74,8-15.64,14.85c-4.24,7.47-6.12,14.44-5.74,25.09a37.13,37.13,0,0,0,9.43,24.07c.74.87,1.26,1.22,1.9,2.05,2.43,3.19,9.95,9,13.1,10.23-3-7-4.59-12.68-3.3-20.83,1.1-6.95,4.36-10.92,8.19-16.1,4.22-5.7,7.29-7.67,8.74-15.54a15.83,15.83,0,0,0-1.52-10.25,11.37,11.37,0,0,0-2.65-3.32c-1.14-1-3-1.36-4-2.33,5-4.62,15-8.77,24.26-5.43A46.68,46.68,0,0,1,916,496.74c16.57,18.79,24.5,47.79,16.85,75-3.65,13-10.27,21.61-19.19,29.35-16,13.89-51.26,19.68-62.61-1.2-7.67-14.12-10.46-32.64-19.38-45.72-1.19-1.74-2.23-3.5-3.31-5a90.57,90.57,0,0,0-22.2-21.77A38.84,38.84,0,0,1,796,517c-7.4-11.14.33-22.53-8.21-40.75-2.61-5.56-9.79-16.46-13.92-18.75a22.71,22.71,0,0,1-10.66,14.08c-6.51,3.52-12.85,3.65-21,3.53,2.27-5.6,6.63-13.88,2.63-20.45-6.22-10.19-24.67-11.68-36.44-3.77-7,4.67-7.24,8.07-10.56,14.11l-.17.28-.18.27a2.93,2.93,0,0,1-.19.27c-.95-2.94-2.79-4.37-4-10a47.16,47.16,0,0,1-.65-13.1c-2.8.27-7.87,2.67-9.12,4.21-2.75-2.83-2.36-5-7.81-8.8-3.79-2.64-7.87-3-12.2-4.7A42.66,42.66,0,0,1,644,419.2c-1.94-2.51-2.43-2-2-5.77,1.27-11.69,1-25.3-9.86-31.58-4.15-2.4-8.54-3.18-14-3.33,1.42,2.56,4,3.49,4.27,6.7.28,3-1.64,5.5-1.67,9.3,2.48,1.84,5.07,3.28,6.62,6.41s1.72,8.31.6,12.07c-1.67-6.16-2.73-11-7.93-14.54a14.07,14.07,0,0,0-6.1-2c7,12.89-3.59,21.06-2.28,35.09,1.28,13.73,4,13.93,18.06,18.24,1.2.37,2.73,1.29,3.86,1.49l7.76,7A32.33,32.33,0,0,0,644,461l8.88,8A69.42,69.42,0,0,0,668,479.17c2.3,1.22,3.5,2,5.55,3.13,4.78,2.59,8.25,2.87,14.41,2.18,13.58-1.5,33.39-6.34,45-14.12a53,53,0,0,1,5.69-3.17c-1.15,2.51-7.83,7.55-10.35,9.23-11.15,7.44-31,12.57-44.46,14C682.4,501.79,689.83,516,696.33,524a107.17,107.17,0,0,0,11.18,11.82c4.81,3.95,10.13,8.91,15.67,12.78s21.88,13.24,24.76,15.48a71,71,0,0,1,6.37,5.09,43.94,43.94,0,0,1,5.21,6.3c3.06,4.15,5,10.23,6.86,16.05.13.58.25,1.36.4,1.88S767,594.06,767,594.21ZM623.72,494c-1.63-1.41-2.19-.77-3.67-1.71,2.89-3.06,13.11-2.74,18.62,2.36,5.85,5.42,8,9.37,7.17,17.85,5.35-.7,12.15-3.66,17-5.55,5.36-2.09,10.09-5.26,14.79-7.43.87,2.39,1.42,6.08,2.17,8.93,2.76,10.52,6.73,14.53,10.39,21.72-5.26,3-16.52,7.07-22.61,8.8a211,211,0,0,1-25.21,6c-10.65,1.69-16.57-4.49-16.35-15.12.15-7,2.24-15.25-3.41-19.72-1.43-1.13-3.54-1.48-4.85-2.41,3.84-1.5,10-2.38,13.49-.1,4.18,2.7,3.91,5.17,6.13,9.8.16-6-2.74-12.12-7.68-14.25-1.62-.7-4.67-.72-5.75-1.28C622.31,499.63,623.92,496.68,623.72,494Zm25.81,162.39c-2.85,2.84-4.21.76-7.69,1.74-2.26.64-2.17,3.3-3,5.46,0,.09-.14.39-.16.33s-.1.23-.17.33c-1-2.69-2.57-3.73-3-7.46-.61-4.82,1-5.47,2.24-8.11A13.49,13.49,0,0,1,649.53,656.43ZM461.7,343.65c-2.5,1.2-4.81,2.86-8.24,3.12-3.58.28-7.27-.6-6.67-4.77C447.87,334.63,459.93,341.15,461.7,343.65Zm35.51,29.62c-2.69.32-3.42,2.11-8,2-3.21-.1-5.42-1.27-8.14-2.14-10.86-3.48-14.18,11.34-8.38,9.85,1.91-.49,4.12-4.59,11.1-4.29,3.12.13,6.29.88,9.28,0C495.19,378.09,497.53,376,497.21,373.27Zm-69,241.84c2.18,1.57,9.68,3.8,12.92,4.83,5.39,1.72,10.51,1.65,16.18,1-2.61,4.92,1.86,13.81,2.72,19.38,1.58,10.26-1.21,15.12,1.54,20.22,5.22,9.68,26.24,5.1,36.32,2.52,4.77-1.22,14.46-3.94,19.12-1.2,2.39,1.4,4.08,3.14,7.66,3.65,5.8.84,11.88-3.61,14.92-8l5.31-6.19a13.11,13.11,0,0,1,7.27-4.18c4.93-1,5.68.33,9.1,1.87-.52-5.89-2.26-11.17-5.92-13.69-5.57-3.85-9.52-1.91-15.35-1,3.5-3.33,15.07-6,18.65,0l1.67-2.17a3.39,3.39,0,0,1,2.31-1c2.22-.21,3.94.82,5.51,1.39-1.49-7.84-10-11.74-19.2-9.81-7.93,1.67-11.61,3.48-17.21,8.34a41.72,41.72,0,0,1-23.07,9.57c-9.56.58-11.84-1.47-18.08-3.89L485.3,635c3.24-13.1,6.8-22.32,9.18-37.39,1-6.34,1.75-15,.69-21.37-1.19-7.12-5.34-9.52-11-11.59-12.67-4.66-24.92-1.48-36.81,3.36-4.09,1.67-4.07,1.94-6.75,4.73-4,4.14-9.8,17.59-10.14,24.13-1.25,2.92-1.58,5.53-2.05,8.93-.23,1.62-.32,3.36-.64,4.93C427.44,612.5,426.45,614.55,428.21,615.11Zm-2.49-20.9a96.91,96.91,0,0,1-3.14,17l-1.74,10.91c-1.36,12.33-10.85,28.84-17.4,38.08a76.4,76.4,0,0,1-6.13,7.36,104.24,104.24,0,0,1-14.68,13c-11.83,8.85-12.72,7-16.38,25a104.61,104.61,0,0,0-1.77,12.25c-.47,5.41-1.35,9.61,2.47,10.81,8.83,2.77,13.64,1.27,19.93,7.55,4.18,4.18,6.79,13.56,5.73,21.88-.95-3-3.5-5.24-7.45-5.54-.73-6-5-10.89-11.4-10.8,4,2.86,5.73,3.87,7.94,9.16,1.87,4.46,1.74,10.72,1.33,15.94-1.33-2.41-1.87-4.86-4.31-6.39s-5.63-1.28-8.58-2c-1.67-4.08-1.42-6.05-4.31-9.25-2-2.17-5.18-5-9-4.65,3.32,3.78,6.51,5.24,8.49,10.45a17.52,17.52,0,0,1-1.58,15.38c-.65-1.43-.76-3.39-1.73-5.05a5.91,5.91,0,0,0-3.87-2.83c-6.75-2.1-16.34,1.12-20.22-6.46-4.05-7.92-.56-15.51.86-23.33,3.09-17-.07-29.73,1.77-39.33,2.76-14.35,17.4-14.7,19.27-34.54,1.23-13.09-2.33-24.69-4.23-37.19-.71-4.66.1-9-.27-13.09-1.1,4.25-11.09,12.83-15.17,14.85-22.45,11.14-51.68,2.83-68.48-11.85a68.51,68.51,0,0,1-10.53-12.09c-5.54-7.61-9.41-17.19-11.45-27.28-5-25,1.28-54.54,15.49-74.07,9.64-13.25,21.77-21.45,38.72-21.88,8.76-.22,18.36,1.35,24.79,5.27s11.74,8,15.64,14.85c4.24,7.47,6.12,14.44,5.74,25.09a37.13,37.13,0,0,1-9.43,24.07c-.74.87-1.26,1.22-1.9,2.05-2.43,3.19-9.95,9-13.1,10.23,3-7,4.59-12.68,3.3-20.83-1.1-6.95-4.36-10.92-8.19-16.1-4.22-5.7-7.29-7.67-8.74-15.54a15.83,15.83,0,0,1,1.52-10.25,11.38,11.38,0,0,1,2.65-3.32c1.14-1,3-1.36,4-2.33-5-4.62-15-8.77-24.26-5.43a46.67,46.67,0,0,0-19.25,12.73c-16.57,18.79-24.5,47.79-16.85,75,3.65,13,10.27,21.61,19.19,29.35,16,13.89,51.26,19.68,62.61-1.2,7.67-14.12,10.46-32.64,19.38-45.72,1.19-1.74,2.23-3.5,3.31-5a90.57,90.57,0,0,1,22.2-21.77A38.84,38.84,0,0,0,396.76,517c7.4-11.14-.33-22.53,8.21-40.75,2.61-5.56,9.79-16.46,13.92-18.75a22.71,22.71,0,0,0,10.66,14.08c6.51,3.52,12.85,3.65,21,3.53-2.27-5.6-6.63-13.88-2.63-20.45,6.22-10.19,24.67-11.68,36.44-3.77,7,4.67,7.24,8.07,10.56,14.11l.17.28.18.27a2.66,2.66,0,0,0,.19.27c.95-2.94,2.79-4.37,4-10a47.17,47.17,0,0,0,.65-13.1c2.8.27,7.87,2.67,9.12,4.21,2.75-2.83,2.35-5,7.81-8.8,3.79-2.64,7.87-3,12.2-4.7a42.65,42.65,0,0,0,19.4-14.17c1.94-2.51,2.43-2,2-5.77-1.27-11.69-1-25.3,9.86-31.58,4.15-2.4,8.54-3.18,14-3.33-1.42,2.56-4,3.49-4.27,6.7-.28,3,1.64,5.5,1.67,9.3-2.48,1.84-5.07,3.28-6.62,6.41s-1.72,8.31-.6,12.07c1.67-6.16,2.73-11,7.93-14.54a14.06,14.06,0,0,1,6.1-2c-7,12.89,3.59,21.06,2.28,35.09-1.28,13.73-4,13.93-18.06,18.24-1.2.37-2.73,1.29-3.86,1.49l-7.76,7a32.31,32.31,0,0,1-2.61,2.68l-8.89,8a69.41,69.41,0,0,1-15.11,10.18c-2.3,1.22-3.5,2-5.55,3.13-4.78,2.59-8.25,2.87-14.41,2.18-13.57-1.5-33.39-6.34-45-14.12a52.9,52.9,0,0,0-5.69-3.17c1.15,2.51,7.83,7.55,10.35,9.23,11.15,7.44,31,12.57,44.46,14,1.38,11.37-6.06,25.56-12.55,33.62a107.19,107.19,0,0,1-11.18,11.82c-4.81,3.95-10.13,8.91-15.67,12.78s-21.88,13.24-24.76,15.48a70.85,70.85,0,0,0-6.37,5.09,43.87,43.87,0,0,0-5.21,6.3c-3.06,4.15-5,10.23-6.86,16.05-.13.58-.25,1.36-.41,1.88S425.76,594.06,425.73,594.21ZM569,494c1.63-1.41,2.19-.77,3.67-1.71-2.89-3.06-13.11-2.74-18.62,2.36-5.85,5.42-8,9.37-7.17,17.85-5.35-.7-12.15-3.66-17-5.55-5.36-2.09-10.09-5.26-14.79-7.43-.87,2.39-1.42,6.08-2.17,8.93-2.76,10.52-6.73,14.53-10.39,21.72,5.26,3,16.52,7.07,22.61,8.8a210.94,210.94,0,0,0,25.21,6c10.65,1.69,16.58-4.49,16.35-15.12-.15-7-2.24-15.25,3.41-19.72,1.43-1.13,3.54-1.48,4.85-2.41-3.84-1.5-10-2.38-13.49-.1-4.18,2.7-3.91,5.17-6.14,9.8-.16-6,2.74-12.12,7.68-14.25,1.62-.7,4.68-.72,5.75-1.28C570.39,499.63,568.78,496.68,569,494ZM543.17,656.43c2.86,2.84,4.21.76,7.69,1.74,2.26.64,2.17,3.3,3,5.46,0,.09.14.39.16.33s.1.23.17.33c1-2.69,2.57-3.73,3-7.46.61-4.82-1-5.47-2.24-8.11A13.49,13.49,0,0,0,543.17,656.43ZM405.83,308.78a28.32,28.32,0,0,0-7.14,2.52l-2.92,1.16c-2.76.71-7.4,3.65-10.1,5.06a47.65,47.65,0,0,0-4.79,3.11L376.74,324c-7.28,7-7.78,6.39-14.06,16.9-3.46,5.78-6.43,16.11-7.26,24-1.56,14.9,1.17,18,2.29,27.95.17-7.18-.55-8.83,1.87-15.56,1.35-3.76,5-8.64,7.61-10.22-1.19,9.53-1.65,14.48.08,24.18,1.28,7.16,3.62,13.8,5,21,2.79,14.12,2,26.72-3.21,40-.58,1.48-1.38,2.95-1.88,4.56,10.19-.33,19.28-5.15,24-14.05-.41,4.43-1.37,8.5-1.65,13.46a97.21,97.21,0,0,0,2.21,28c.94,3.77,1.91,8.7,5.51,9.76-.49-5.42-.21-10.34,1.49-14.89,4.29-11.5,9-16.36,16.26-24.31.6-.66,3.42-3.64,3.65-4.09a18.42,18.42,0,0,0,4.06-3.19c-.2,2.3-.89,6.8,0,8.71-.3,5.61,5.11,10.67,8.27,12.62a32.93,32.93,0,0,0,16.37,4.45,33,33,0,0,0-2.5-4.34c-2.73-4.78-4-10.91-1.53-15.83,3-6,9.87-9.23,16.16-10.67,15.7-3.62,27.34,1.69,35.41,15.44,3.86-15.87-2.19-30.9-10.36-38.29-4.77-4.31-10.31-5.81-18.21-6.93-7.51-1.07-13.67-2.56-14-11,2.65,1.91,2.23,3.13,6.53,4.63,8.75,3.06,20.47-6.09,25.23-4.77.88,2-.53,3.37-1.06,5.53,6.43-.86,14.84-14.86,10.39-22.17-2.15-3.52-8.47-4.43-12.93-2.28-4.69,2.26-8.43,7.46-10.48,6.4s-6-17.11,7.74-22.16c6.14-2.25,10.46.44,15.36-1s5.4-7.85,3.38-12.43c-2.17-4.91-.17-2,.11-6.6.19-3.11-.86-4.76-3-5.77a52.22,52.22,0,0,0-5.87-2.78c-8.61-3.08-25.39-9-33.51-9.59,1.46-7.48-.08-12-4.06-16-5.18-5.17-6.66-4.51-14.18-7.19l-3.35-.87c-7.52-1.39-19.29-4-25.56-8.91-1.41-1.11-1-1.49-2.54-2.38.07,4,.48,9,2.58,11.52a5.84,5.84,0,0,0,2.54,2.34C408.25,308.13,407,308.14,405.83,308.78Zm381.05,0A28.33,28.33,0,0,1,794,311.3l2.92,1.16c2.76.71,7.4,3.65,10.1,5.06a47.58,47.58,0,0,1,4.79,3.11L816,324c7.28,7,7.78,6.39,14.06,16.9,3.46,5.78,6.43,16.11,7.26,24,1.56,14.9-1.17,18-2.29,27.95-.17-7.18.55-8.83-1.87-15.56-1.35-3.76-5-8.64-7.61-10.22,1.19,9.53,1.65,14.48-.08,24.18-1.28,7.16-3.62,13.8-5,21-2.79,14.12-2,26.72,3.21,40,.59,1.48,1.38,2.95,1.88,4.56-10.19-.33-19.28-5.15-24-14.05.41,4.43,1.37,8.5,1.65,13.46a97.2,97.2,0,0,1-2.21,28C800,488,799,492.9,795.42,494c.49-5.42.21-10.34-1.49-14.89-4.29-11.5-9-16.36-16.26-24.31-.6-.66-3.42-3.64-3.65-4.09a18.42,18.42,0,0,1-4.06-3.19c.2,2.3.89,6.8,0,8.71.3,5.61-5.11,10.67-8.27,12.62a32.93,32.93,0,0,1-16.37,4.45,33,33,0,0,1,2.5-4.34c2.73-4.78,4-10.91,1.53-15.83-3-6-9.87-9.23-16.16-10.67-15.7-3.62-27.34,1.69-35.42,15.44C693.93,442,700,427,708.15,419.57c4.77-4.31,10.31-5.81,18.21-6.93,7.51-1.07,13.67-2.56,14-11-2.66,1.91-2.23,3.13-6.53,4.63-8.75,3.06-20.47-6.09-25.23-4.77-.88,2,.53,3.37,1.06,5.53-6.43-.86-14.84-14.86-10.39-22.17,2.15-3.52,8.47-4.43,12.93-2.28,4.69,2.26,8.43,7.46,10.48,6.4s6-17.11-7.74-22.16c-6.14-2.25-10.46.44-15.36-1s-5.4-7.85-3.38-12.43c2.17-4.91.17-2-.11-6.6-.19-3.11.86-4.76,3-5.77a52.23,52.23,0,0,1,5.87-2.78c8.61-3.08,25.39-9,33.51-9.59-1.46-7.48.08-12,4.06-16,5.18-5.17,6.66-4.51,14.18-7.19l3.35-.87c7.52-1.39,19.29-4,25.56-8.91,1.41-1.11,1-1.49,2.54-2.38-.07,4-.48,9-2.58,11.52a5.85,5.85,0,0,1-2.54,2.34C784.46,308.13,785.73,308.14,786.88,308.78ZM670,805.58h10.69q-1.21,16.63-10.24,25.71t-24.37,9.08a45.76,45.76,0,0,1-16.58-2.86,37.2,37.2,0,0,1-13.22-8.74,42.54,42.54,0,0,1-9.74-14.71,48,48,0,0,1-3.32-17.94,47.42,47.42,0,0,1,3.21-17.69,43.21,43.21,0,0,1,9.72-14.54A39.69,39.69,0,0,1,645,752a37.64,37.64,0,0,1,12.6,2.09,42.31,42.31,0,0,1,11.62,6.46l2.49-7.46h9v34.17h-9.59q-1.46-12-7.69-18.52t-16-6.55q-11.5,0-18,9.16t-6.53,25.38q0,15.42,6.49,23.83T647.65,829q9.17,0,14.88-6T670,805.58Zm-154.65,32.3v-9.47h4.85c3.69,0,6-.44,6.88-1.31s1.33-3,1.33-6.4V771.6c0-3.4-.44-5.53-1.33-6.4s-3.19-1.31-6.88-1.31h-4.85v-9.41H593V789h-9.59a62.69,62.69,0,0,0-.85-11.08,25.67,25.67,0,0,0-2.61-7.79,10.29,10.29,0,0,0-5.95-4.81q-4.13-1.46-12.43-1.45H546V789.5h2.13q7.8,0,10.26-2.69c1.62-1.8,2.61-5.95,3-12.41l9.47-.06v41.81l-9.47-.06q-.56-10.75-3-13.86t-10.17-3.13H546v21.61c0,3.36.46,5.49,1.37,6.38s3.23,1.33,7,1.33h5.82v9.47Zm81-736.61c-127.27,0-216.53,7.27-338.22-33.9L165.53,189.2s80.13,105.11,47.87,227.91-88.43,362,6.77,455.29C292.36,943.1,417.39,1010,507.82,1058.12c43.84,23.33,78.07,54.62,88.55,65.09,10.47-10.47,44.7-41.76,88.54-65.09,90.44-48.11,215.47-115,287.65-185.72,95.21-93.26,39-332.49,6.77-455.29s47.87-227.91,47.87-227.91L934.59,67.37C812.9,108.55,723.64,101.27,596.37,101.27Z"/><path class="cls-3" d="M264.57,88,187.29,189.61c12.27,18.79,23.25,41.85,30.68,61.2,21,54.61,27.41,113.71,12.42,170.76C202.23,528.78,142.82,772,232.47,859.84c40.54,39.71,92.68,74,141.15,103.34,46.55,28.15,94.45,53.88,142.46,79.43a419.23,419.23,0,0,1,80.29,56.4,419.24,419.24,0,0,1,80.29-56.4c48-25.54,95.9-51.28,142.46-79.43,48.47-29.3,100.61-63.62,141.15-103.34,89.65-87.82,30.24-331.06,2.07-438.27-15-57.06-8.57-116.16,12.43-170.77,7.43-19.34,18.41-42.4,30.68-61.19L928.17,88c-50.44,16-100.34,25.24-153.52,28.94-59.12,4.11-119,1.94-178.28,1.94S477.21,121,418.09,116.91C364.91,113.21,315,104,264.57,88m-27.35,647.5,11.12,10.8c-3.82,5.74-4.21,4.28-10.71,1.79C234.75,740.7,233.11,740.25,237.22,735.48Zm53,119,21.12-53.08L281.47,829.8c-2.74,2.62-4.17,4.54-4.29,5.79-.15,1.69.62,3.42,2.29,5.17l1.5,1.57-1.21,1.16L264.95,828l1.21-1.16,1.5,1.57q2.7,2.83,5.56,2.38c1.16-.18,3-1.48,5.49-3.86l29.18-27.82a14.14,14.14,0,0,0,3.66-4.74,5.09,5.09,0,0,0,0-3.22,12.63,12.63,0,0,0-3.14-4.58l1.23-1.17L321.66,798l-19.5,49.52,50.14-17.39,12.06,12.64L363.14,844l-1.48-1.55q-2.73-2.87-5.57-2.42c-1.17.19-3,1.47-5.51,3.86L321.4,871.68c-2.74,2.62-4.15,4.56-4.25,5.83q-.22,2.53,2.28,5.16l1.48,1.55-1.21,1.16-18.09-19,1.21-1.16,1.51,1.58q2.73,2.87,5.56,2.38c1.16-.18,3-1.48,5.49-3.86l29.84-28.46-54,18.61Zm104.06,8.89a16.28,16.28,0,0,0-14.45-2.43q-9.45,2.79-17.78,15-8.54,12.48-7.8,22.84a16,16,0,0,0,7.32,12.52,17.9,17.9,0,0,0,15.68,2.5q8.5-2.4,16.75-14.45,8.93-13.06,8.18-23Q401.52,868.3,394.24,863.32Zm2.57-2.25q9.92,6.79,12,19.28t-5.59,23.76q-7.95,11.61-20.51,14.25a29.65,29.65,0,0,1-35.52-24q-2-12.37,6.08-24.24,8.3-12.13,21.8-14.14A29.55,29.55,0,0,1,396.82,861.07Zm75.72,42.71L411.74,940l23.06,10.41q5.31,2.4,9.19,1.35c2.6-.7,5.7-3.07,9.29-7.14l1.26.86-9.37,13.7-45.79-20.67.69-1.53,59.26-35.06-18-8.12q-4.48-2-6.93-2a7.61,7.61,0,0,0-4.35,1.44c-1.26.91-2.94,2.92-5,6l-1.57-.71L430.95,885Zm36.68,48.94L505,926l-16.38,21.64Zm.43,3.58-23.19-5.71L480.07,959a15.17,15.17,0,0,0-2.79,4.85,3.13,3.13,0,0,0,.71,2.72c.7.91,2.46,1.82,5.31,2.75l-.4,1.63L464,966.34l.4-1.63c2.61.16,4.37,0,5.28-.54,1.85-1,4.22-3.5,7.11-7.38L510,912.68l1.54.38,8.58,55q1,6.64,2.65,8.92a9.68,9.68,0,0,0,5.23,3.43l-.4,1.63L504,976.18l.4-1.63c2.41.47,4.13.46,5.14,0a3.13,3.13,0,0,0,1.88-2.16c.32-1.3.22-3.48-.27-6.58Zm150.24,20.81a45.74,45.74,0,0,0,10.47-.62c5.41-1,9.31-2.92,11.72-5.86a11.63,11.63,0,0,0,2.64-9.78,13.41,13.41,0,0,0-3.14-6.46,13.1,13.1,0,0,0-7.19-4,27.5,27.5,0,0,0-11.08,0c-1.85.33-3.43.64-4.74.93a24,24,0,0,0-3.12.89Zm-5.18-29a34.16,34.16,0,0,0,3.88-.2c1.44-.15,3-.38,4.71-.68,4.36-.78,7.56-1.82,9.58-3.16a10.64,10.64,0,0,0,4.27-5.23,12.29,12.29,0,0,0,.61-6.67,11.81,11.81,0,0,0-6-8.31q-5-3-13.35-1.5a31,31,0,0,0-7.9,2.42Zm23.9-1.76q6.57.2,10.23,2.61a13.59,13.59,0,0,1,6.14,9.3,15.28,15.28,0,0,1-1.33,9.18,16.58,16.58,0,0,1-6.78,7.44q-4.66,2.8-14.9,4.63L643.3,984.6l-.29-1.65,2.28-.41q3.81-.68,5-3.41c.5-1.16.46-3.44-.15-6.85l-7-39.25q-1-5.64-2.57-6.88a6.69,6.69,0,0,0-5.55-1l-2.28.41-.3-1.67,26.24-4.68a52.45,52.45,0,0,1,12-1q7,.41,11.28,3.87a14.25,14.25,0,0,1,5.22,8.8,13.3,13.3,0,0,1-1.31,8.67A16.63,16.63,0,0,1,678.61,946.31Zm64.72,11.84.54,1.59-25.06,8.45-.54-1.59,2.08-.7q3.62-1.22,4.54-3.89c.38-1.15,0-3.49-1.19-7L711,917.24a20.57,20.57,0,0,0-2.53-5.67,4.15,4.15,0,0,0-2.39-1.26,8.62,8.62,0,0,0-4.32.31l-2.07.7-.54-1.6,25.06-8.45.54,1.6-2.12.71c-2.38.8-3.88,2.1-4.5,3.86-.41,1.17,0,3.5,1.15,7L732,952.23a20.59,20.59,0,0,0,2.53,5.67,4.12,4.12,0,0,0,2.44,1.24,8.37,8.37,0,0,0,4.28-.28Zm20.44-72a16.67,16.67,0,0,0-9.1,11.39q-2.23,9.51,4.8,23.09,6.89,13.28,16.36,17.5a16.13,16.13,0,0,0,14.62-.55,17.11,17.11,0,0,0,9.37-11.89q2.07-9.37-4.55-22.13-5.1-9.82-11.56-15a19.08,19.08,0,0,0-10.08-4.45A17.59,17.59,0,0,0,763.78,886.13Zm34.56,50q7.81,5,14.33,5.84a24.22,24.22,0,0,0,12.87-1.81l.67,1.3a49.89,49.89,0,0,1-13.08,3.93,57.92,57.92,0,0,1-15,.58,66.41,66.41,0,0,1-13.78-2.61,43.73,43.73,0,0,1-11.78-.19A30.6,30.6,0,0,1,760,937.51a35,35,0,0,1-9.74-12.09q-6.37-12.28-2.63-24.53a29.31,29.31,0,0,1,15.07-18.11q10.73-5.57,22.82-1.51T804,897.73a32.66,32.66,0,0,1,3.56,20.55A31.1,31.1,0,0,1,798.34,936.13ZM865,808.46l18.46,15.93,8.86-10.27q3.45-4,3.41-6.37c0-2.11-1.31-4.37-3.86-6.82l1.1-1.27,16.27,14-1.1,1.27a23.62,23.62,0,0,0-5.21-2.81,5.71,5.71,0,0,0-3.65.4,13.69,13.69,0,0,0-4.44,3.74l-8.86,10.27,15.41,13.29a19.47,19.47,0,0,0,4,3,2.94,2.94,0,0,0,1.9,0,7.93,7.93,0,0,0,2.65-2.29l6.84-7.93a27.83,27.83,0,0,0,4.41-6.23A11.21,11.21,0,0,0,922,821a35.12,35.12,0,0,0-2.67-9.93l1.19-1.38,8.25,14.13-31.06,36-1.27-1.1,1.43-1.66a8.65,8.65,0,0,0,1.9-3.82,3.84,3.84,0,0,0-.35-2.93,21.93,21.93,0,0,0-4.18-4.28l-30.36-26.18c-3-2.56-5-3.83-6.25-3.83q-2.44,0-4.94,2.94l-1.43,1.66-1.28-1.11,31.06-36,10.68,8.31-1.17,1.35a21.16,21.16,0,0,0-6.44-2.76,7.26,7.26,0,0,0-4.35.78,20.74,20.74,0,0,0-4.71,4.41ZM577.71,986l-21.85-52.79-1.57,41.21c-.14,3.79.17,6.16,1,7.14,1.07,1.32,2.83,2,5.25,2.11l2.17.08-.06,1.68-21.45-.82.06-1.68,2.17.08c2.61.1,4.48-.62,5.65-2.16.7-.94,1.11-3.14,1.25-6.59L551.82,934a14.14,14.14,0,0,0-.68-5.95,5.09,5.09,0,0,0-2.26-2.29,12.63,12.63,0,0,0-5.44-1.09l.06-1.69,17.46.66,20.53,49.1,23.84-47.42,17.46.66-.06,1.69-2.14-.08c-2.64-.1-4.53.62-5.68,2.15-.7,1-1.13,3.14-1.26,6.6l-1.53,40.29c-.14,3.79.2,6.16,1,7.14q1.6,2,5.24,2.11l2.14.08-.06,1.68-26.2-1,.06-1.68,2.19.08c2.64.1,4.52-.62,5.65-2.16.7-.94,1.11-3.14,1.25-6.59L605,935.05l-25.75,51ZM828.5,839.75l-1.05-1.32,17.09-13.62,1.06,1.32-1.82,1.45a6.25,6.25,0,0,0-2.48,5.86c.09,1.14,1.19,3,3.33,5.73l15.59,19.57q5.79,7.27,7.54,12.4a18.1,18.1,0,0,1-.18,11.39q-1.95,6.23-9.2,12-7.91,6.3-14.18,6.81a18.92,18.92,0,0,1-11.67-2.74q-3.66-2.27-10.62-11l-15-18.86c-2.36-3-4.31-4.59-5.87-4.85s-3.24.32-5.06,1.77l-1.82,1.45-1.06-1.32,20.86-16.62,1.05,1.32L813.13,852c-2,1.59-2.93,3.35-2.78,5.29.08,1.32,1.21,3.34,3.36,6l16.76,21a59.8,59.8,0,0,0,5.64,6,17.73,17.73,0,0,0,6.38,4.17,12.93,12.93,0,0,0,6.56.23,17.09,17.09,0,0,0,7.3-3.65,22,22,0,0,0,6.82-8.81,14.12,14.12,0,0,0,.9-9.36q-1.2-4.31-7.32-12L841.2,841.43c-2.4-3-4.24-4.62-5.5-4.86a6.72,6.72,0,0,0-5.38,1.72ZM954.82,735.37l-11.12,10.8c3.82,5.74,4.21,4.28,10.71,1.78C957.29,740.6,958.92,740.15,954.82,735.37Zm-23.52,46.27-3.15-15.22,8.87,18.9,7.78,5-1-31.69,13.91,28.66L954,756.63l14.55,17.85L962,743.41l13.69,14.15L971,729.76c10.62,13.75,13.45,9.35,14.1,2.59a2.74,2.74,0,0,1-2,1.18c-2.32.23-5-2.35-5.92-5.76-.83-3.07.07-5.8,2-6.41a52.58,52.58,0,0,0-9.24-7.69c-7.07-23.3-14.85-43.34-24.1-57,8.94,21.84,12.8,35.33,16.13,55.46l-9.4,13.61c-2.33-4.09-10.79-14.65-18.43-18.88,4.3,5.57,9.81,20.16,11,28.94l-10.5,7.49c-7.43,5.51-14.9,11-22.31,16.51l-7.5-19.68c.64,8-1,15.61-.38,23.6l-.38.36Zm-670.54.1,3.15-15.23L255,785.42l-7.78,5,1-31.69L234.38,787.4l3.69-30.66-14.54,17.85,6.54-31.07-13.68,14.15,4.66-27.79c-10.62,13.76-13.44,9.35-14.1,2.59a2.74,2.74,0,0,0,2,1.18c2.32.22,5-2.35,5.92-5.76.83-3.07-.08-5.8-2-6.41a52.58,52.58,0,0,1,9.24-7.69c7.06-23.3,14.84-43.35,24.08-57-8.93,21.84-12.79,35.33-16.11,55.46l9.41,13.61c2.33-4.09,10.78-14.65,18.43-18.89-4.3,5.57-9.8,20.16-11,28.95l10.5,7.49c7.43,5.51,14.91,11,22.32,16.5l7.49-19.68c-.64,8,1,15.61.38,23.6l.38.36Zm84.9-561.8q-.52,21.14-11,32.53t-29.78,11.38q-22.52,0-34.64-14.44t-12.12-41.27q0-25.38,12.55-40.62t33.56-15.25a46.07,46.07,0,0,1,13.13,1.8,41,41,0,0,1,11.62,5.54l2.22-5.81h14.1v43.36H329.69q-2.27-15.18-7-22t-12.59-6.85q-9.17,0-13.35,9.39t-4.17,30.15q0,21.46,4.3,30.89t14,9.42q8.78,0,14.43-7.61t6.33-20.58Zm54.6-64.49V170.3h-1.45q-3.92,0-5.12,1.49c-.8,1-1.21,3.5-1.21,7.48v19h24.1v-19c0-4-.41-6.49-1.23-7.48s-2.55-1.49-5.16-1.49h-1.38V155.44H457V170.3h-4.43c-3,0-5,.47-5.85,1.41s-1.3,3.48-1.3,7.56v57.46c0,4.11.43,6.62,1.3,7.58s2.81,1.46,5.85,1.46H457v14.93H408.81V245.78h1.38c2.57,0,4.28-.52,5.12-1.54s1.27-3.5,1.27-7.51V213.14h-24.1v23.59c0,4,.41,6.49,1.23,7.51s2.53,1.54,5.1,1.54h1.45v14.93H352V245.78h4.36q4.37,0,5.77-1.26c.93-.86,1.38-3.45,1.38-7.79V179.27c0-4.13-.43-6.67-1.27-7.58s-2.79-1.39-5.87-1.39H352V155.44Zm152.27,0v39.23h-13.8a82.59,82.59,0,0,0-2.81-12,21.71,21.71,0,0,0-3.65-6.9,13.84,13.84,0,0,0-6-4.26q-3.56-1.26-11.47-1.26H501.06v28.9h3.35c3.93,0,6.7-1.15,8.27-3.45s2.38-6.38,2.38-12.27v-.92h10.89v48H515.05c-.17-7.35-1-12.13-2.38-14.33s-4.13-3.3-8.14-3.3h-3.48v32.8h15.38c6,0,10.07-.44,12.31-1.31A10,10,0,0,0,534,240a34,34,0,0,0,3.2-9.15,85.39,85.39,0,0,0,1.56-13.6H553v43.44H461.27V245.78h4.36c2.87,0,4.75-.42,5.66-1.23s1.36-3.16,1.36-7V179.27c0-4.08-.43-6.62-1.27-7.56s-2.79-1.41-5.87-1.41h-4.23V155.44Zm62,0V170.3h-4.95c-2.85,0-4.73.42-5.62,1.23s-1.34,3.14-1.34,7v67h5.83q8.1,0,11.4-1a10.3,10.3,0,0,0,5.29-3.64,22.69,22.69,0,0,0,3.74-8.74,91.09,91.09,0,0,0,1.71-15.25h13.48v43.88H562.2V245.78h4.36c3,0,5-.5,5.85-1.46s1.3-3.48,1.3-7.58V179.27c0-4.08-.43-6.62-1.27-7.56s-2.79-1.41-5.87-1.41H562.2V155.44Zm41.9,66.51H669q3.11,12.16,10.28,19a23.7,23.7,0,0,0,16.93,6.85c3.91,0,7.06-1,9.42-3a9.93,9.93,0,0,0,3.54-7.92q0-7.57-15.38-12.71c-3.33-1.07-5.94-2-7.84-2.69q-9.23-3.37-14.23-5.73a29.92,29.92,0,0,1-7.21-4.45,30.38,30.38,0,0,1-7.75-10.54,33,33,0,0,1-2.51-13.15q0-15.85,9.72-25.6t25.66-9.73a57.1,57.1,0,0,1,15.12,1.91,53,53,0,0,1,13.61,5.91l2.35-5.28h12.46v36.56H718.52c-1.43-7.48-4.13-13-8.1-16.69s-9.27-5.49-15.9-5.49a14.3,14.3,0,0,0-9.59,3.22,10,10,0,0,0-3.76,7.9q0,7.06,14.43,10.67c2.35.63,4.19,1.1,5.51,1.46q20.12,5.61,28.23,13.91t8.1,22.62q0,15.93-10,25.39t-26.87,9.47a52.22,52.22,0,0,1-14.88-2.12,59.3,59.3,0,0,1-14.17-6.38l-3.22,5.83h-11.9Zm177.69-66.51v39.23h-13.8a82.62,82.62,0,0,0-2.81-12,21.7,21.7,0,0,0-3.65-6.9,13.85,13.85,0,0,0-6-4.26q-3.56-1.26-11.47-1.26H782.67v28.9H786c3.93,0,6.7-1.15,8.27-3.45s2.38-6.38,2.38-12.27v-.92h10.89v48H796.66c-.17-7.35-1-12.13-2.38-14.33s-4.13-3.3-8.14-3.3h-3.48v32.8H798c6,0,10.07-.44,12.31-1.31a10,10,0,0,0,5.23-4.45,34,34,0,0,0,3.2-9.15,85.33,85.33,0,0,0,1.56-13.6h14.3v43.44H742.88V245.78h4.36c2.87,0,4.75-.42,5.66-1.23s1.36-3.16,1.36-7V179.27c0-4.08-.43-6.62-1.27-7.56s-2.79-1.41-5.87-1.41h-4.23V155.44Zm52,105.27V245.78h3.91c3.3,0,5.31-.21,6-.65a2.65,2.65,0,0,0,1.1-2.48,16.71,16.71,0,0,0-.15-2.35c-.11-.73-.24-1.46-.41-2.17l-3.11-11.27H870.12l-2.72,10a36.71,36.71,0,0,0-.93,3.61,12.13,12.13,0,0,0-.26,2.38,2.37,2.37,0,0,0,1.58,2.14,10.8,10.8,0,0,0,4.49.76h4.3v14.93H837.72V245.78h3.22a7.12,7.12,0,0,0,5.55-2.54c1.49-1.67,2.79-4.45,3.89-8.26l22.85-79.53h31.45L925,234.66c1.4,5.2,2.66,8.37,3.8,9.47s3,1.65,5.51,1.65h4.56v14.93Zm3.28-49-7.91-31.88-7.41,31.88ZM731,343.65c2.5,1.2,4.81,2.86,8.24,3.12,3.58.28,7.27-.6,6.67-4.77C744.84,334.63,732.77,341.15,731,343.65ZM695.5,373.27c2.69.32,3.42,2.11,8,2,3.21-.1,5.42-1.27,8.14-2.14,10.86-3.48,14.18,11.34,8.38,9.85-1.91-.49-4.12-4.59-11.1-4.29-3.12.13-6.29.88-9.28,0C697.52,378.09,695.18,376,695.5,373.27Zm69,241.84c-2.18,1.57-9.68,3.8-12.92,4.83-5.39,1.72-10.51,1.65-16.18,1,2.61,4.92-1.86,13.81-2.72,19.38-1.58,10.26,1.21,15.12-1.54,20.22-5.22,9.68-26.24,5.1-36.32,2.52-4.77-1.22-14.46-3.94-19.12-1.2-2.39,1.4-4.08,3.14-7.66,3.65-5.8.84-11.88-3.61-14.92-8l-5.31-6.19a13.11,13.11,0,0,0-7.27-4.18c-4.93-1-5.68.33-9.1,1.87.52-5.89,2.26-11.17,5.92-13.69,5.57-3.85,9.52-1.91,15.35-1-3.5-3.33-15.07-6-18.65,0l-1.67-2.17a3.39,3.39,0,0,0-2.31-1c-2.22-.21-3.95.82-5.51,1.39,1.49-7.84,10-11.74,19.2-9.81,7.93,1.67,11.61,3.48,17.21,8.34a41.71,41.71,0,0,0,23.07,9.57c9.56.58,11.84-1.47,18.08-3.89l5.27-1.82c-3.24-13.1-6.8-22.32-9.18-37.39-1-6.34-1.75-15-.69-21.37,1.19-7.12,5.34-9.52,11-11.59,12.67-4.66,24.92-1.48,36.81,3.36,4.09,1.67,4.07,1.94,6.75,4.73,4,4.14,9.8,17.59,10.14,24.13,1.25,2.92,1.58,5.53,2.05,8.93.23,1.62.32,3.36.64,4.93C765.27,612.5,766.26,614.55,764.49,615.11Zm2.49-20.9a96.93,96.93,0,0,0,3.14,17l1.74,10.91c1.36,12.33,10.85,28.84,17.4,38.08a76.38,76.38,0,0,0,6.13,7.36,104.26,104.26,0,0,0,14.68,13c11.83,8.85,12.72,7,16.38,25a104.72,104.72,0,0,1,1.77,12.25c.47,5.41,1.35,9.61-2.47,10.81-8.83,2.77-13.64,1.27-19.93,7.55-4.18,4.18-6.79,13.56-5.73,21.88.95-3,3.5-5.24,7.45-5.54.73-6,5-10.89,11.4-10.8-4,2.86-5.73,3.87-7.94,9.16-1.87,4.46-1.74,10.72-1.33,15.94,1.33-2.41,1.87-4.86,4.31-6.39s5.63-1.28,8.58-2c1.67-4.08,1.42-6.05,4.31-9.25,2-2.17,5.18-5,9-4.65-3.32,3.78-6.5,5.24-8.48,10.45A17.52,17.52,0,0,0,829,770.39c.65-1.43.76-3.39,1.73-5.05a5.91,5.91,0,0,1,3.87-2.83c6.75-2.1,16.34,1.12,20.22-6.46,4.05-7.92.56-15.51-.86-23.33-3.09-17,.07-29.73-1.77-39.33-2.76-14.35-17.4-14.7-19.27-34.54-1.23-13.09,2.33-24.69,4.23-37.19.71-4.66-.1-9,.27-13.09,1.1,4.25,11.09,12.83,15.17,14.85,22.44,11.14,51.68,2.83,68.48-11.85a68.52,68.52,0,0,0,10.53-12.09c5.54-7.61,9.41-17.19,11.45-27.28,5-25-1.28-54.54-15.49-74.07-9.64-13.25-21.77-21.45-38.72-21.88-8.76-.22-18.36,1.35-24.79,5.27s-11.74,8-15.64,14.85c-4.24,7.47-6.12,14.44-5.74,25.09a37.13,37.13,0,0,0,9.43,24.07c.74.87,1.26,1.22,1.9,2.05,2.43,3.19,9.95,9,13.1,10.23-3-7-4.59-12.68-3.3-20.83,1.1-6.95,4.36-10.92,8.19-16.1,4.22-5.7,7.29-7.67,8.74-15.54a15.83,15.83,0,0,0-1.52-10.25,11.37,11.37,0,0,0-2.65-3.32c-1.14-1-3-1.36-4-2.33,5-4.62,15-8.77,24.26-5.43A46.68,46.68,0,0,1,916,496.74c16.57,18.79,24.5,47.79,16.85,75-3.65,13-10.27,21.61-19.19,29.35-16,13.89-51.26,19.68-62.61-1.2-7.67-14.12-10.46-32.64-19.38-45.72-1.19-1.74-2.23-3.5-3.31-5a90.57,90.57,0,0,0-22.2-21.77A38.84,38.84,0,0,1,796,517c-7.4-11.14.33-22.53-8.21-40.75-2.61-5.56-9.79-16.46-13.92-18.75a22.71,22.71,0,0,1-10.66,14.08c-6.51,3.52-12.85,3.65-21,3.53,2.27-5.6,6.63-13.88,2.63-20.45-6.22-10.19-24.67-11.68-36.44-3.77-7,4.67-7.24,8.07-10.56,14.11l-.17.28-.18.27a2.93,2.93,0,0,1-.19.27c-.95-2.94-2.79-4.37-4-10a47.16,47.16,0,0,1-.65-13.1c-2.8.27-7.87,2.67-9.12,4.21-2.75-2.83-2.36-5-7.81-8.8-3.79-2.64-7.87-3-12.2-4.7A42.66,42.66,0,0,1,644,419.2c-1.94-2.51-2.43-2-2-5.77,1.27-11.69,1-25.3-9.86-31.58-4.15-2.4-8.54-3.18-14-3.33,1.42,2.56,4,3.49,4.27,6.7.28,3-1.64,5.5-1.67,9.3,2.48,1.84,5.07,3.28,6.62,6.41s1.72,8.31.6,12.07c-1.67-6.16-2.73-11-7.93-14.54a14.07,14.07,0,0,0-6.1-2c7,12.89-3.59,21.06-2.28,35.09,1.28,13.73,4,13.93,18.06,18.24,1.2.37,2.73,1.29,3.86,1.49l7.76,7A32.33,32.33,0,0,0,644,461l8.88,8A69.42,69.42,0,0,0,668,479.17c2.3,1.22,3.5,2,5.55,3.13,4.78,2.59,8.25,2.87,14.41,2.18,13.58-1.5,33.39-6.34,45-14.12a53,53,0,0,1,5.69-3.17c-1.15,2.51-7.83,7.55-10.35,9.23-11.15,7.44-31,12.57-44.46,14C682.4,501.79,689.83,516,696.33,524a107.17,107.17,0,0,0,11.18,11.82c4.81,3.95,10.13,8.91,15.67,12.78s21.88,13.24,24.76,15.48a71,71,0,0,1,6.37,5.09,43.94,43.94,0,0,1,5.21,6.3c3.06,4.15,5,10.23,6.86,16.05.13.58.25,1.36.4,1.88S767,594.06,767,594.21ZM623.72,494c-1.63-1.41-2.19-.77-3.67-1.71,2.89-3.06,13.11-2.74,18.62,2.36,5.85,5.42,8,9.37,7.17,17.85,5.35-.7,12.15-3.66,17-5.55,5.36-2.09,10.09-5.26,14.79-7.43.87,2.39,1.42,6.08,2.17,8.93,2.76,10.52,6.73,14.53,10.39,21.72-5.26,3-16.52,7.07-22.61,8.8a211,211,0,0,1-25.21,6c-10.65,1.69-16.57-4.49-16.35-15.12.15-7,2.24-15.25-3.41-19.72-1.43-1.13-3.54-1.48-4.85-2.41,3.84-1.5,10-2.38,13.49-.1,4.18,2.7,3.91,5.17,6.13,9.8.16-6-2.74-12.12-7.68-14.25-1.62-.7-4.67-.72-5.75-1.28C622.31,499.63,623.92,496.68,623.72,494Zm25.81,162.39c-2.85,2.84-4.21.76-7.69,1.74-2.26.64-2.17,3.3-3,5.46,0,.09-.14.39-.16.33s-.1.23-.17.33c-1-2.69-2.57-3.73-3-7.46-.61-4.82,1-5.47,2.24-8.11A13.49,13.49,0,0,1,649.53,656.43ZM461.7,343.65c-2.5,1.2-4.81,2.86-8.24,3.12-3.58.28-7.27-.6-6.67-4.77C447.87,334.63,459.93,341.15,461.7,343.65Zm35.51,29.62c-2.69.32-3.42,2.11-8,2-3.21-.1-5.42-1.27-8.14-2.14-10.86-3.48-14.18,11.34-8.38,9.85,1.91-.49,4.12-4.59,11.1-4.29,3.12.13,6.29.88,9.28,0C495.19,378.09,497.53,376,497.21,373.27Zm-69,241.84c2.18,1.57,9.68,3.8,12.92,4.83,5.39,1.72,10.51,1.65,16.18,1-2.61,4.92,1.86,13.81,2.72,19.38,1.58,10.26-1.21,15.12,1.54,20.22,5.22,9.68,26.24,5.1,36.32,2.52,4.77-1.22,14.46-3.94,19.12-1.2,2.39,1.4,4.08,3.14,7.66,3.65,5.8.84,11.88-3.61,14.92-8l5.31-6.19a13.11,13.11,0,0,1,7.27-4.18c4.93-1,5.68.33,9.1,1.87-.52-5.89-2.26-11.17-5.92-13.69-5.57-3.85-9.52-1.91-15.35-1,3.5-3.33,15.07-6,18.65,0l1.67-2.17a3.39,3.39,0,0,1,2.31-1c2.22-.21,3.94.82,5.51,1.39-1.49-7.84-10-11.74-19.2-9.81-7.93,1.67-11.61,3.48-17.21,8.34a41.72,41.72,0,0,1-23.07,9.57c-9.56.58-11.84-1.47-18.08-3.89L485.3,635c3.24-13.1,6.8-22.32,9.18-37.39,1-6.34,1.75-15,.69-21.37-1.19-7.12-5.34-9.52-11-11.59-12.67-4.66-24.92-1.48-36.81,3.36-4.09,1.67-4.07,1.94-6.75,4.73-4,4.14-9.8,17.59-10.14,24.13-1.25,2.92-1.58,5.53-2.05,8.93-.23,1.62-.32,3.36-.64,4.93C427.44,612.5,426.45,614.55,428.21,615.11Zm-2.49-20.9a96.91,96.91,0,0,1-3.14,17l-1.74,10.91c-1.36,12.33-10.85,28.84-17.4,38.08a76.4,76.4,0,0,1-6.13,7.36,104.24,104.24,0,0,1-14.68,13c-11.83,8.85-12.72,7-16.38,25a104.61,104.61,0,0,0-1.77,12.25c-.47,5.41-1.35,9.61,2.47,10.81,8.83,2.77,13.64,1.27,19.93,7.55,4.18,4.18,6.79,13.56,5.73,21.88-.95-3-3.5-5.24-7.45-5.54-.73-6-5-10.89-11.4-10.8,4,2.86,5.73,3.87,7.94,9.16,1.87,4.46,1.74,10.72,1.33,15.94-1.33-2.41-1.87-4.86-4.31-6.39s-5.63-1.28-8.58-2c-1.67-4.08-1.42-6.05-4.31-9.25-2-2.17-5.18-5-9-4.65,3.32,3.78,6.51,5.24,8.49,10.45a17.52,17.52,0,0,1-1.58,15.38c-.65-1.43-.76-3.39-1.73-5.05a5.91,5.91,0,0,0-3.87-2.83c-6.75-2.1-16.34,1.12-20.22-6.46-4.05-7.92-.56-15.51.86-23.33,3.09-17-.07-29.73,1.77-39.33,2.76-14.35,17.4-14.7,19.27-34.54,1.23-13.09-2.33-24.69-4.23-37.19-.71-4.66.1-9-.27-13.09-1.1,4.25-11.09,12.83-15.17,14.85-22.45,11.14-51.68,2.83-68.48-11.85a68.51,68.51,0,0,1-10.53-12.09c-5.54-7.61-9.41-17.19-11.45-27.28-5-25,1.28-54.54,15.49-74.07,9.64-13.25,21.77-21.45,38.72-21.88,8.76-.22,18.36,1.35,24.79,5.27s11.74,8,15.64,14.85c4.24,7.47,6.12,14.44,5.74,25.09a37.13,37.13,0,0,1-9.43,24.07c-.74.87-1.26,1.22-1.9,2.05-2.43,3.19-9.95,9-13.1,10.23,3-7,4.59-12.68,3.3-20.83-1.1-6.95-4.36-10.92-8.19-16.1-4.22-5.7-7.29-7.67-8.74-15.54a15.83,15.83,0,0,1,1.52-10.25,11.38,11.38,0,0,1,2.65-3.32c1.14-1,3-1.36,4-2.33-5-4.62-15-8.77-24.26-5.43a46.67,46.67,0,0,0-19.25,12.73c-16.57,18.79-24.5,47.79-16.85,75,3.65,13,10.27,21.61,19.19,29.35,16,13.89,51.26,19.68,62.61-1.2,7.67-14.12,10.46-32.64,19.38-45.72,1.19-1.74,2.23-3.5,3.31-5a90.57,90.57,0,0,1,22.2-21.77A38.84,38.84,0,0,0,396.76,517c7.4-11.14-.33-22.53,8.21-40.75,2.61-5.56,9.79-16.46,13.92-18.75a22.71,22.71,0,0,0,10.66,14.08c6.51,3.52,12.85,3.65,21,3.53-2.27-5.6-6.63-13.88-2.63-20.45,6.22-10.19,24.67-11.68,36.44-3.77,7,4.67,7.24,8.07,10.56,14.11l.17.28.18.27a2.66,2.66,0,0,0,.19.27c.95-2.94,2.79-4.37,4-10a47.17,47.17,0,0,0,.65-13.1c2.8.27,7.87,2.67,9.12,4.21,2.75-2.83,2.35-5,7.81-8.8,3.79-2.64,7.87-3,12.2-4.7a42.65,42.65,0,0,0,19.4-14.17c1.94-2.51,2.43-2,2-5.77-1.27-11.69-1-25.3,9.86-31.58,4.15-2.4,8.54-3.18,14-3.33-1.42,2.56-4,3.49-4.27,6.7-.28,3,1.64,5.5,1.67,9.3-2.48,1.84-5.07,3.28-6.62,6.41s-1.72,8.31-.6,12.07c1.67-6.16,2.73-11,7.93-14.54a14.06,14.06,0,0,1,6.1-2c-7,12.89,3.59,21.06,2.28,35.09-1.28,13.73-4,13.93-18.06,18.24-1.2.37-2.73,1.29-3.86,1.49l-7.76,7a32.31,32.31,0,0,1-2.61,2.68l-8.89,8a69.41,69.41,0,0,1-15.11,10.18c-2.3,1.22-3.5,2-5.55,3.13-4.78,2.59-8.25,2.87-14.41,2.18-13.57-1.5-33.39-6.34-45-14.12a52.9,52.9,0,0,0-5.69-3.17c1.15,2.51,7.83,7.55,10.35,9.23,11.15,7.44,31,12.57,44.46,14,1.38,11.37-6.06,25.56-12.55,33.62a107.19,107.19,0,0,1-11.18,11.82c-4.81,3.95-10.13,8.91-15.67,12.78s-21.88,13.24-24.76,15.48a70.85,70.85,0,0,0-6.37,5.09,43.87,43.87,0,0,0-5.21,6.3c-3.06,4.15-5,10.23-6.86,16.05-.13.58-.25,1.36-.41,1.88S425.76,594.06,425.73,594.21ZM569,494c1.63-1.41,2.19-.77,3.67-1.71-2.89-3.06-13.11-2.74-18.62,2.36-5.85,5.42-8,9.37-7.17,17.85-5.35-.7-12.15-3.66-17-5.55-5.36-2.09-10.09-5.26-14.79-7.43-.87,2.39-1.42,6.08-2.17,8.93-2.76,10.52-6.73,14.53-10.39,21.72,5.26,3,16.52,7.07,22.61,8.8a210.94,210.94,0,0,0,25.21,6c10.65,1.69,16.58-4.49,16.35-15.12-.15-7-2.24-15.25,3.41-19.72,1.43-1.13,3.54-1.48,4.85-2.41-3.84-1.5-10-2.38-13.49-.1-4.18,2.7-3.91,5.17-6.14,9.8-.16-6,2.74-12.12,7.68-14.25,1.62-.7,4.68-.72,5.75-1.28C570.39,499.63,568.78,496.68,569,494ZM543.17,656.43c2.86,2.84,4.21.76,7.69,1.74,2.26.64,2.17,3.3,3,5.46,0,.09.14.39.16.33s.1.23.17.33c1-2.69,2.57-3.73,3-7.46.61-4.82-1-5.47-2.24-8.11A13.49,13.49,0,0,0,543.17,656.43ZM405.83,308.78a28.32,28.32,0,0,0-7.14,2.52l-2.92,1.16c-2.76.71-7.4,3.65-10.1,5.06a47.65,47.65,0,0,0-4.79,3.11L376.74,324c-7.28,7-7.78,6.39-14.06,16.9-3.46,5.78-6.43,16.11-7.26,24-1.56,14.9,1.17,18,2.29,27.95.17-7.18-.55-8.83,1.87-15.56,1.35-3.76,5-8.64,7.61-10.22-1.19,9.53-1.65,14.48.08,24.18,1.28,7.16,3.62,13.8,5,21,2.79,14.12,2,26.72-3.21,40-.58,1.48-1.38,2.95-1.88,4.56,10.19-.33,19.28-5.15,24-14.05-.41,4.43-1.37,8.5-1.65,13.46a97.21,97.21,0,0,0,2.21,28c.94,3.77,1.91,8.7,5.51,9.76-.49-5.42-.21-10.34,1.49-14.89,4.29-11.5,9-16.36,16.26-24.31.6-.66,3.42-3.64,3.65-4.09a18.42,18.42,0,0,0,4.06-3.19c-.2,2.3-.89,6.8,0,8.71-.3,5.61,5.11,10.67,8.27,12.62a32.93,32.93,0,0,0,16.37,4.45,33,33,0,0,0-2.5-4.34c-2.73-4.78-4-10.91-1.53-15.83,3-6,9.87-9.23,16.16-10.67,15.7-3.62,27.34,1.69,35.41,15.44,3.86-15.87-2.19-30.9-10.36-38.29-4.77-4.31-10.31-5.81-18.21-6.93-7.51-1.07-13.67-2.56-14-11,2.65,1.91,2.23,3.13,6.53,4.63,8.75,3.06,20.47-6.09,25.23-4.77.88,2-.53,3.37-1.06,5.53,6.43-.86,14.84-14.86,10.39-22.17-2.15-3.52-8.47-4.43-12.93-2.28-4.69,2.26-8.43,7.46-10.48,6.4s-6-17.11,7.74-22.16c6.14-2.25,10.46.44,15.36-1s5.4-7.85,3.38-12.43c-2.17-4.91-.17-2,.11-6.6.19-3.11-.86-4.76-3-5.77a52.22,52.22,0,0,0-5.87-2.78c-8.61-3.08-25.39-9-33.51-9.59,1.46-7.48-.08-12-4.06-16-5.18-5.17-6.66-4.51-14.18-7.19l-3.35-.87c-7.52-1.39-19.29-4-25.56-8.91-1.41-1.11-1-1.49-2.54-2.38.07,4,.48,9,2.58,11.52a5.84,5.84,0,0,0,2.54,2.34C408.25,308.13,407,308.14,405.83,308.78Zm381.05,0A28.33,28.33,0,0,1,794,311.3l2.92,1.16c2.76.71,7.4,3.65,10.1,5.06a47.58,47.58,0,0,1,4.79,3.11L816,324c7.28,7,7.78,6.39,14.06,16.9,3.46,5.78,6.43,16.11,7.26,24,1.56,14.9-1.17,18-2.29,27.95-.17-7.18.55-8.83-1.87-15.56-1.35-3.76-5-8.64-7.61-10.22,1.19,9.53,1.65,14.48-.08,24.18-1.28,7.16-3.62,13.8-5,21-2.79,14.12-2,26.72,3.21,40,.59,1.48,1.38,2.95,1.88,4.56-10.19-.33-19.28-5.15-24-14.05.41,4.43,1.37,8.5,1.65,13.46a97.2,97.2,0,0,1-2.21,28C800,488,799,492.9,795.42,494c.49-5.42.21-10.34-1.49-14.89-4.29-11.5-9-16.36-16.26-24.31-.6-.66-3.42-3.64-3.65-4.09a18.42,18.42,0,0,1-4.06-3.19c.2,2.3.89,6.8,0,8.71.3,5.61-5.11,10.67-8.27,12.62a32.93,32.93,0,0,1-16.37,4.45,33,33,0,0,1,2.5-4.34c2.73-4.78,4-10.91,1.53-15.83-3-6-9.87-9.23-16.16-10.67-15.7-3.62-27.34,1.69-35.42,15.44C693.93,442,700,427,708.15,419.57c4.77-4.31,10.31-5.81,18.21-6.93,7.51-1.07,13.67-2.56,14-11-2.66,1.91-2.23,3.13-6.53,4.63-8.75,3.06-20.47-6.09-25.23-4.77-.88,2,.53,3.37,1.06,5.53-6.43-.86-14.84-14.86-10.39-22.17,2.15-3.52,8.47-4.43,12.93-2.28,4.69,2.26,8.43,7.46,10.48,6.4s6-17.11-7.74-22.16c-6.14-2.25-10.46.44-15.36-1s-5.4-7.85-3.38-12.43c2.17-4.91.17-2-.11-6.6-.19-3.11.86-4.76,3-5.77a52.23,52.23,0,0,1,5.87-2.78c8.61-3.08,25.39-9,33.51-9.59-1.46-7.48.08-12,4.06-16,5.18-5.17,6.66-4.51,14.18-7.19l3.35-.87c7.52-1.39,19.29-4,25.56-8.91,1.41-1.11,1-1.49,2.54-2.38-.07,4-.48,9-2.58,11.52a5.85,5.85,0,0,1-2.54,2.34C784.46,308.13,785.73,308.14,786.88,308.78ZM670,805.58h10.69q-1.21,16.63-10.24,25.71t-24.37,9.08a45.76,45.76,0,0,1-16.58-2.86,37.2,37.2,0,0,1-13.22-8.74,42.54,42.54,0,0,1-9.74-14.71,48,48,0,0,1-3.32-17.94,47.42,47.42,0,0,1,3.21-17.69,43.21,43.21,0,0,1,9.72-14.54A39.69,39.69,0,0,1,645,752a37.64,37.64,0,0,1,12.6,2.09,42.31,42.31,0,0,1,11.62,6.46l2.49-7.46h9v34.17h-9.59q-1.46-12-7.69-18.52t-16-6.55q-11.5,0-18,9.16t-6.53,25.38q0,15.42,6.49,23.83T647.65,829q9.17,0,14.88-6T670,805.58Zm-154.65,32.3v-9.47h4.85c3.69,0,6-.44,6.88-1.31s1.33-3,1.33-6.4V771.6c0-3.4-.44-5.53-1.33-6.4s-3.19-1.31-6.88-1.31h-4.85v-9.41H593V789h-9.59a62.69,62.69,0,0,0-.85-11.08,25.67,25.67,0,0,0-2.61-7.79,10.29,10.29,0,0,0-5.95-4.81q-4.13-1.46-12.43-1.45H546V789.5h2.13q7.8,0,10.26-2.69c1.62-1.8,2.61-5.95,3-12.41l9.47-.06v41.81l-9.47-.06q-.56-10.75-3-13.86t-10.17-3.13H546v21.61c0,3.36.46,5.49,1.37,6.38s3.23,1.33,7,1.33h5.82v9.47Zm81-736.61c-127.27,0-216.53,7.27-338.22-33.9L165.53,189.2s80.13,105.11,47.87,227.91-88.43,362,6.77,455.29C292.36,943.1,417.39,1010,507.82,1058.12c43.84,23.33,78.07,54.62,88.55,65.09,10.47-10.47,44.7-41.76,88.54-65.09,90.44-48.11,215.47-115,287.65-185.72,95.21-93.26,39-332.49,6.77-455.29s47.87-227.91,47.87-227.91L934.59,67.37C812.9,108.55,723.64,101.27,596.37,101.27Zm0-18.13c58.39,0,117.59,2.2,175.83-1.85,54.35-3.78,104.91-13.6,156.57-31.09l12.6-4.26L1050.59,189.6l-8.52,11.18c-13.49,17.82-26.07,43.79-33.91,64.42-18,47.26-23.77,98.33-10.81,147.67,32.65,124.3,91.91,371.84-11.72,473.35-17.45,17.1-38.18,32.91-57.87,47.34-27,19.79-55,38.48-83.29,56.36-48.83,30.84-99.88,58.09-150.84,85.2-29,15.4-60.84,38.52-84.19,61.86l-13.07,13.07L583.29,1137c-23.34-23.34-55.23-46.46-84.18-61.86-51-27.11-102-54.36-150.84-85.2C320,972,292,953.35,265,933.56c-19.69-14.43-40.41-30.24-57.87-47.34-103.63-101.51-44.38-349-11.72-473.35,13-49.34,7.15-100.41-10.81-147.67-7.84-20.63-20.42-46.61-33.91-64.42l-8.52-11.18L251.37,45.94,264,50.21c51.66,17.48,102.22,27.3,156.57,31.09C478.78,85.34,538,83.15,596.37,83.15Z"/></g></svg>