<svg xmlns="http://www.w3.org/2000/svg" viewBox="0 0 1200 1200"><defs><style>.cls-1,.cls-3{fill-rule:evenodd;}.cls-2{fill:none;stroke:#000;stroke-miterlimit:22.93;stroke-width:0.49px;}.cls-3{fill:#ff0;}</style></defs><title>CORUMAMA FC - WATERS 2 team colour</title><g id="CORUMAMA_FC_-_WATERS_2_team_colour" data-name="CORUMAMA FC - WATERS 2 team colour"><path class="cls-1" d="M62.59,500H192.82c44.46-182.47,208.95-317.93,405.1-317.93S958.58,317.52,1003,500h130.24a12.36,12.36,0,0,1,12.33,12.33V685.74a12.36,12.36,0,0,1-12.33,12.33H1003C958.57,880.54,794.08,1016,597.93,1016S237.28,880.54,192.83,698.07H62.59a12.36,12.36,0,0,1-12.33-12.33V512.32A12.36,12.36,0,0,1,62.59,500Z"/><path class="cls-2" d="M62.59,500H192.82c44.46-182.47,208.95-317.93,405.1-317.93S958.58,317.52,1003,500h130.24a12.36,12.36,0,0,1,12.33,12.33V685.74a12.36,12.36,0,0,1-12.33,12.33H1003C958.57,880.54,794.08,1016,597.93,1016S237.28,880.54,192.83,698.07H62.59a12.36,12.36,0,0,1-12.33-12.33V512.32A12.36,12.36,0,0,1,62.59,500Z"/><path class="cls-3" d="M62.59,500H192.82c44.46-182.47,208.95-317.93,405.1-317.93S958.57,317.52,1003,500h130.24a12.36,12.36,0,0,1,12.33,12.33V685.74a12.36,12.36,0,0,1-12.33,12.33H1003C958.57,880.54,794.08,1016,597.93,1016S237.28,880.54,192.82,698.07H62.59a12.36,12.36,0,0,1-12.33-12.33V512.32A12.36,12.36,0,0,1,62.59,500M166.72,606.3l-26.37-6.12c-4.82,11-2.31,10.24,7.5,17.42C161.38,614.87,163.58,616.84,166.72,606.3Zm862.41,0,26.37-6.12c4.82,11,2.31,10.24-7.5,17.42C1034.48,614.87,1032.27,616.84,1029.13,606.3Zm90.18,9.15-19.39-19,19.39,30.88v16.15L1073.75,612l29,47.51-41.54-34.4,12.48,38.23-39.45-39,7.85,33.47-36.41-33.12c10.17,28.59,1,28.58-9.52,23.16a4.79,4.79,0,0,0,3.64-1.85c2.52-3.19,1.26-9.53-2.86-14.14-3.72-4.11-8.59-5.37-11.34-3.06A91.84,91.84,0,0,1,983,608c-27.55-32.39-49.64-62.76-60.92-89.2,23.64,33.76,39.8,52.17,66.22,76.08l28.87-1c-3.81-7.29-11.32-29.68-10.32-44.91,4.12,11.58,20.35,33.45,32.14,43.47l20.92-8.35c15.11-5.71,30.21-11.52,45.32-17.18l-21.82-29.6c11.11,8.48,23.88,13.25,35,21.74l.89-.22Zm-1042.78,0,19.39-19L76.54,627.33v16.15L122.1,612l-29,47.51,41.54-34.4-12.48,38.23,39.45-39-7.85,33.47,36.41-33.12c-10.17,28.59-1,28.58,9.52,23.16a4.79,4.79,0,0,1-3.64-1.85c-2.52-3.19-1.26-9.53,2.86-14.14,3.72-4.11,8.59-5.37,11.34-3.06A91.84,91.84,0,0,0,212.86,608c27.55-32.39,49.64-62.76,60.92-89.2C250.14,552.57,234,571,207.56,594.88l-28.87-1C182.49,586.64,190,564.25,189,549c-4.12,11.58-20.35,33.45-32.14,43.47l-20.92-8.35c-15.11-5.71-30.21-11.52-45.32-17.18l21.82-29.6c-11.11,8.48-23.88,13.25-35,21.74l-.89-.22Zm883.2,36.44q-.92,6.23-2,12.41h.05q-1.42,7.83-3.18,15.56h0q-2,9-4.52,17.86l-.22.8-.17.6a364.38,364.38,0,0,1-22.35,58.61l0,0a364.65,364.65,0,0,1-24,42.15l3.09,2a367.18,367.18,0,0,0,46.7-101.64l.28-1,.13-.45a366.2,366.2,0,0,0,9.87-46.41ZM814.94,854.52l-1-1.24,16-12.71,1,1.24-1.7,1.36a5.84,5.84,0,0,0-2.31,5.47C827,849.7,828,851.48,830,854l14.55,18.27q5.41,6.79,7,11.58a16.89,16.89,0,0,1-.17,10.63q-1.82,5.81-8.58,11.21-7.38,5.88-13.23,6.35a17.66,17.66,0,0,1-10.89-2.55q-3.41-2.12-9.91-10.25l-14-17.61c-2.2-2.77-4-4.28-5.48-4.53s-3,.3-4.73,1.65l-1.7,1.35-1-1.24,19.47-15.51,1,1.24-1.72,1.37c-1.86,1.48-2.74,3.12-2.59,4.94.08,1.24,1.13,3.12,3.14,5.64l15.64,19.64a55.81,55.81,0,0,0,5.26,5.63,16.56,16.56,0,0,0,6,3.89,12.07,12.07,0,0,0,6.12.22,16,16,0,0,0,6.81-3.41,20.57,20.57,0,0,0,6.37-8.22,13.17,13.17,0,0,0,.84-8.73q-1.12-4-6.83-11.2l-14.53-18.24c-2.24-2.81-4-4.32-5.13-4.53a6.27,6.27,0,0,0-5,1.61ZM580.86,991l-20.4-49.27L559,980.19c-.13,3.53.16,5.75.89,6.66,1,1.23,2.64,1.88,4.9,2l2,.08-.06,1.56-20-.76.06-1.56,2,.08c2.43.09,4.19-.58,5.27-2,.66-.87,1-2.93,1.16-6.15l1.43-37.61a13.2,13.2,0,0,0-.63-5.55,4.74,4.74,0,0,0-2.11-2.14,11.79,11.79,0,0,0-5.08-1l.06-1.58,16.3.62,19.16,45.83,22.25-44.26,16.3.62-.06,1.58-2-.08c-2.46-.09-4.23.58-5.3,2-.66.89-1.05,2.93-1.18,6.16L613,982.25c-.13,3.53.19,5.75,1,6.67q1.5,1.84,4.89,2l2,.08-.06,1.56-24.45-.93.06-1.56,2,.08c2.46.09,4.21-.58,5.27-2,.66-.87,1-2.93,1.16-6.15l1.46-38.46-24,47.58ZM849,825.31l17.23,14.86,8.27-9.58q3.22-3.74,3.18-5.95c0-2-1.23-4.08-3.6-6.36l1-1.19,15.18,13.09-1,1.19a22,22,0,0,0-4.86-2.62,5.33,5.33,0,0,0-3.41.38,12.78,12.78,0,0,0-4.14,3.49l-8.27,9.58,14.38,12.4a18.21,18.21,0,0,0,3.74,2.79,2.74,2.74,0,0,0,1.78,0,7.4,7.4,0,0,0,2.47-2.14l6.38-7.4a26,26,0,0,0,4.11-5.81,10.47,10.47,0,0,0,.75-5,32.76,32.76,0,0,0-2.49-9.27l1.11-1.28,7.7,13.18-29,33.61-1.19-1,1.33-1.55a8.07,8.07,0,0,0,1.77-3.56,3.58,3.58,0,0,0-.33-2.73,20.48,20.48,0,0,0-3.9-4L848.86,836c-2.77-2.39-4.7-3.58-5.84-3.58q-2.28,0-4.61,2.75l-1.33,1.55-1.2-1,29-33.61,10,7.75-1.09,1.26a19.74,19.74,0,0,0-6-2.58,6.78,6.78,0,0,0-4.06.73,19.37,19.37,0,0,0-4.39,4.12Zm-94.45,72.5a15.56,15.56,0,0,0-8.5,10.63Q744,917.32,750.52,930q6.43,12.39,15.27,16.33a15.05,15.05,0,0,0,13.65-.52,16,16,0,0,0,8.74-11.1q1.93-8.74-4.25-20.66-4.76-9.17-10.79-14a17.81,17.81,0,0,0-9.41-4.15A16.42,16.42,0,0,0,754.53,897.82Zm32.26,46.66q7.29,4.65,13.38,5.45a22.6,22.6,0,0,0,12-1.69l.63,1.21a46.58,46.58,0,0,1-12.21,3.67,54.09,54.09,0,0,1-14,.55,62,62,0,0,1-12.86-2.44,40.81,40.81,0,0,1-11-.17A28.57,28.57,0,0,1,751,945.77a32.69,32.69,0,0,1-9.09-11.29q-5.95-11.47-2.46-22.9a27.36,27.36,0,0,1,14.06-16.9,26.27,26.27,0,0,1,21.3-1.41q11.27,3.78,17.28,15.37a30.49,30.49,0,0,1,3.32,19.18A29,29,0,0,1,786.79,944.48ZM735.45,965l.5,1.48-23.39,7.88-.5-1.48,1.94-.65q3.38-1.14,4.24-3.63c.36-1.07,0-3.25-1.11-6.52l-11.89-35.26a19.2,19.2,0,0,0-2.36-5.29,3.87,3.87,0,0,0-2.23-1.18,8,8,0,0,0-4,.29l-1.94.65-.5-1.5,23.39-7.88.5,1.5-2,.67c-2.23.75-3.62,2-4.2,3.6-.38,1.09,0,3.27,1.07,6.54l11.89,35.26a19.2,19.2,0,0,0,2.36,5.29,3.84,3.84,0,0,0,2.27,1.16,7.81,7.81,0,0,0,4-.26Zm-77.89,17.69a42.7,42.7,0,0,0,9.78-.58c5.05-.9,8.69-2.73,10.94-5.47a10.85,10.85,0,0,0,2.46-9.13,12.51,12.51,0,0,0-2.93-6,12.22,12.22,0,0,0-6.71-3.76,25.66,25.66,0,0,0-10.35,0c-1.73.31-3.21.6-4.43.86a22.47,22.47,0,0,0-2.91.83Zm-4.84-27.1a31.82,31.82,0,0,0,3.62-.19c1.35-.14,2.81-.35,4.39-.64,4.07-.73,7.06-1.7,8.94-3a9.94,9.94,0,0,0,4-4.88,11.47,11.47,0,0,0,.57-6.23,11,11,0,0,0-5.57-7.75q-4.69-2.79-12.46-1.4a28.9,28.9,0,0,0-7.37,2.26ZM675,954q6.13.19,9.55,2.43a12.68,12.68,0,0,1,5.73,8.68,14.26,14.26,0,0,1-1.24,8.57,15.47,15.47,0,0,1-6.33,6.95q-4.35,2.61-13.91,4.32l-26.76,4.78-.28-1.54,2.13-.38q3.55-.63,4.69-3.18c.47-1.08.43-3.21-.14-6.4l-6.54-36.63q-.94-5.27-2.4-6.42a6.25,6.25,0,0,0-5.18-1l-2.13.38L632,933l24.49-4.37a49,49,0,0,1,11.18-1q6.54.38,10.53,3.61a13.3,13.3,0,0,1,4.87,8.22,12.41,12.41,0,0,1-1.22,8.1A15.53,15.53,0,0,1,675,954Zm-158.11,6L513,935l-15.29,20.2Zm.4,3.34L495.68,958l-6,7.89a14.17,14.17,0,0,0-2.61,4.52,2.93,2.93,0,0,0,.66,2.54c.66.85,2.3,1.7,5,2.56l-.37,1.52-17.61-4.34.37-1.52c2.44.15,4.08,0,4.93-.5,1.73-1,3.94-3.27,6.64-6.89l31-41.17,1.44.35,8,51.3q1,6.19,2.47,8.33a9,9,0,0,0,4.88,3.2l-.37,1.52-22.07-5.44.37-1.52c2.25.44,3.85.43,4.8,0a2.92,2.92,0,0,0,1.75-2,17.79,17.79,0,0,0-.25-6.14Zm-34.64-49L425.95,948l21.52,9.72q5,2.24,8.58,1.26c2.43-.65,5.32-2.86,8.67-6.66l1.18.8-8.74,12.78-42.74-19.29.64-1.43,55.31-32.72-16.79-7.58a16.58,16.58,0,0,0-6.47-1.84,7.1,7.1,0,0,0-4.06,1.35,24.06,24.06,0,0,0-4.7,5.62l-1.47-.66,7-12.63Zm-73.08-37.77a15.2,15.2,0,0,0-13.48-2.27q-8.82,2.61-16.59,14-8,11.65-7.28,21.32a14.89,14.89,0,0,0,6.83,11.68,16.71,16.71,0,0,0,14.63,2.34q7.93-2.24,15.64-13.49,8.34-12.19,7.63-21.48Q416.41,881.17,409.62,876.52Zm2.4-2.1a26.1,26.1,0,0,1,11.24,18q2,11.68-5.22,22.18-7.42,10.84-19.15,13.3a27.67,27.67,0,0,1-33.16-22.42q-1.9-11.55,5.68-22.62,7.75-11.32,20.34-13.2A27.58,27.58,0,0,1,412,874.42Zm-99.53-6.2,19.71-49.55-27.85,26.56c-2.56,2.44-3.89,4.23-4,5.4-.14,1.58.58,3.19,2.14,4.83l1.4,1.47L302.76,858l-13.83-14.5,1.13-1.08,1.4,1.47q2.52,2.64,5.19,2.22c1.08-.17,2.79-1.38,5.12-3.6l27.23-26a13.2,13.2,0,0,0,3.42-4.42,4.75,4.75,0,0,0,0-3,11.79,11.79,0,0,0-2.93-4.27l1.14-1.09,11.25,11.8-18.2,46.22,46.8-16.23,11.25,11.8-1.14,1.09L379.2,857q-2.55-2.68-5.2-2.26c-1.09.18-2.8,1.37-5.14,3.6l-27.23,26c-2.56,2.44-3.87,4.26-4,5.44q-.21,2.36,2.13,4.82l1.38,1.45L340,897.12l-16.89-17.71,1.13-1.08,1.41,1.48q2.55,2.68,5.19,2.23c1.08-.17,2.79-1.38,5.12-3.6l27.85-26.56-50.4,17.37ZM939.76,482.1,958,464.64l-25.31-1Zm-2.51,2.24-8-20.81-9.88-.38a14.16,14.16,0,0,0-5.2.44,2.92,2.92,0,0,0-1.7,2c-.32,1-.08,2.86.72,5.53l-1.46.56-6.5-16.93,1.46-.56c1.27,2.09,2.34,3.34,3.23,3.76,1.78.87,4.93,1.37,9.45,1.51l51.5,1.94.53,1.38-37.53,35.88q-4.53,4.33-5.42,6.79a9,9,0,0,0,.16,5.84l-1.46.56L919,490.61l1.46-.56c.93,2.1,1.85,3.4,2.75,3.93a2.92,2.92,0,0,0,2.66.29,17.78,17.78,0,0,0,4.9-3.71ZM921.32,369.22l8,13.4L910.47,435l28.47-17.11c3-1.82,4.72-3.31,5.07-4.43q.71-2.28-1-5.18l-1-1.72,1.35-.81L953.62,423l-1.35.81L951.22,422q-1.88-3.13-4.55-3.3c-1.1-.06-3,.74-5.8,2.4l-41.6,25-.79-1.32,20.2-56.43-30.41,18.27c-3,1.82-4.73,3.28-5.09,4.39a6.39,6.39,0,0,0,1,5.18l1,1.74-1.34.81-10.32-17.17,1.34-.81,1,1.7c1.27,2.11,2.8,3.22,4.6,3.34,1.09.07,3-.74,5.78-2.39l34.33-20.63a26.52,26.52,0,0,0,1.36-5.25A12.11,12.11,0,0,0,920,370Zm-48.16-1.92,10.75-22.83-24,8.12Zm-1.54,3-14.92-16.57-9.36,3.18a14.17,14.17,0,0,0-4.7,2.28,2.92,2.92,0,0,0-.88,2.47c.07,1.07.95,2.7,2.66,4.9l-1.16,1-12.13-13.48,1.16-1c1.93,1.5,3.38,2.28,4.36,2.35,2,.18,5.1-.49,9.36-2l48.78-16.65,1,1.1-22.18,46.95q-2.68,5.66-2.63,8.28a9,9,0,0,0,2.24,5.39l-1.16,1-15.21-16.89,1.16-1q2.43,2.44,4,2.68a2.92,2.92,0,0,0,2.58-.69,17.77,17.77,0,0,0,3.24-5.22Zm-73.8-42.52,10.48-52.29-22.62,31.14c-2.08,2.86-3.07,4.87-3,6,.15,1.58,1.15,3,3,4.37l1.64,1.19-.92,1.27L770.19,307.7l.92-1.27,1.64,1.19q3,2.15,5.5,1.26c1-.36,2.5-1.86,4.39-4.46L804.77,274a13.19,13.19,0,0,0,2.57-5,4.75,4.75,0,0,0-.56-3,11.79,11.79,0,0,0-3.65-3.68l.93-1.28,13.19,9.59-9.59,48.74,43.12-24.38L864,304.64l-.93,1.28-1.62-1.18q-3-2.17-5.52-1.28c-1,.37-2.51,1.85-4.41,4.47l-22.12,30.45c-2.08,2.86-3,4.88-2.92,6.07q.22,2.36,3,4.36L831,350l-.92,1.27-19.8-14.38.92-1.27,1.65,1.2q3,2.17,5.5,1.26c1-.36,2.5-1.86,4.39-4.46l22.62-31.14-46.45,26.15ZM774.52,247l.69-1.42,18.33,8.94-.69,1.42-2-1a5.84,5.84,0,0,0-5.94.27c-.92.53-2.09,2.22-3.49,5.1l-10.24,21q-3.8,7.8-7.43,11.33a16.89,16.89,0,0,1-9.67,4.41q-6,.86-13.81-2.93-8.48-4.14-11.42-9.22A17.67,17.67,0,0,1,726.52,274c.3-2.66,2-7.11,5-13.35l9.87-20.23c1.55-3.18,2.14-5.47,1.73-6.9s-1.57-2.6-3.52-3.56l-2-1,.69-1.42,22.37,10.91-.69,1.42-2-1c-2.14-1-4-1.13-5.57-.22-1.08.6-2.33,2.36-3.74,5.26l-11,22.57a55.9,55.9,0,0,0-2.82,7.17,16.55,16.55,0,0,0-1,7.05,12.07,12.07,0,0,0,2.43,5.62,16,16,0,0,0,6,4.69,20.57,20.57,0,0,0,10.16,2.21,13.18,13.18,0,0,0,8.25-3q3.15-2.74,7.18-11l10.22-21c1.58-3.23,2.2-5.43,1.89-6.58a6.27,6.27,0,0,0-3.61-3.84Zm-94.31-5.6c.53.14,1,.26,1.35.38l.93.28q8,2.13,12.92-.23a11.4,11.4,0,0,0,6.4-7.7,11.88,11.88,0,0,0-1-9.35,12.1,12.1,0,0,0-7.77-5.58,37.85,37.85,0,0,0-6.65-.94Zm31.85,39.18-14.86-4-11.87-31c-1.4-.33-2.54-.61-3.42-.84l-1.14-.32-1.26-.4-4.33,16.16c-.94,3.5-1.13,5.78-.6,6.83a6.07,6.07,0,0,0,4.19,3.06l2.18.59-.41,1.51-23.83-6.39.41-1.51,2.09.56c2.35.63,4.24.31,5.66-.95.8-.7,1.64-2.64,2.49-5.8L677,222.08c.94-3.5,1.13-5.78.6-6.82a6.25,6.25,0,0,0-4.28-3.08l-2.09-.56.41-1.53,20.26,5.43q8.86,2.37,12.72,4.8a15.45,15.45,0,0,1,5.87,6.66,12.9,12.9,0,0,1,.71,9.06,13.42,13.42,0,0,1-5.73,8q-4.35,2.86-11.77,2.55l7.2,19c1.64,4.37,3.25,7.41,4.8,9.12a18,18,0,0,0,6.78,4.28ZM626.27,207.1a15.19,15.19,0,0,0-12.69,5.08q-6.17,6.82-6.9,20.56-.74,14.09,4.89,22a14.9,14.9,0,0,0,11.92,6.42,16.71,16.71,0,0,0,13.71-5.63q5.61-6,6.33-19.66.77-14.74-4.67-22.31Q634.49,207.53,626.27,207.1Zm1-3a26.1,26.1,0,0,1,19,9.52q7.76,8.94,7.1,21.65-.69,13.12-9.42,21.32a27.67,27.67,0,0,1-40-1.88q-7.64-8.87-6.93-22.27.72-13.7,10.49-21.86A27.58,27.58,0,0,1,627.23,204.06Zm-44.88-.74,3,19.38-1.31.12q-3.39-8.52-8.58-12a18.3,18.3,0,0,0-12-2.83,19,19,0,0,0-10.07,3.81q-4.36,3.31-6.44,9.88t-1.26,16A33.51,33.51,0,0,0,549.36,251a18.77,18.77,0,0,0,8.28,8.09,21.58,21.58,0,0,0,11.7,2,19.87,19.87,0,0,0,9.65-3.26q4.06-2.76,8.56-10.31l1.39.72q-3.64,8-9.08,12.1a25.61,25.61,0,0,1-13.37,4.75q-14.25,1.25-23-8.65a30.39,30.39,0,0,1-7.45-18,33.18,33.18,0,0,1,2.46-16.12,28.08,28.08,0,0,1,9.62-12.08,28.84,28.84,0,0,1,14.4-5.23,27.24,27.24,0,0,1,12.54,2,6.75,6.75,0,0,0,2.62.72,2.81,2.81,0,0,0,1.91-1,6.63,6.63,0,0,0,1.3-3.3ZM462.91,232.16l7.41,21.52,12-4.12Q487,248,488,246c1-1.71,1-4.14.09-7.31l1.48-.51,6.53,19-1.48.51a22,22,0,0,0-2.88-4.71,5.33,5.33,0,0,0-3.13-1.39,12.78,12.78,0,0,0-5.34.93l-12,4.12,6.18,18a18.19,18.19,0,0,0,1.83,4.29,2.74,2.74,0,0,0,1.55.86,7.41,7.41,0,0,0,3.21-.6l9.24-3.18a26,26,0,0,0,6.48-3,10.47,10.47,0,0,0,3.15-3.91,32.79,32.79,0,0,0,2.51-9.27l1.6-.55v15.27l-42,14.45-.51-1.48,1.93-.67a8.07,8.07,0,0,0,3.32-2.19,3.58,3.58,0,0,0,1.09-2.52,20.48,20.48,0,0,0-1.36-5.42l-12.18-35.38c-1.19-3.45-2.26-5.46-3.24-6q-2-1.11-5.36.05l-1.93.67-.51-1.49,42-14.45,4.71,11.72-1.58.54a19.73,19.73,0,0,0-3.89-5.25,6.78,6.78,0,0,0-3.87-1.41,19.37,19.37,0,0,0-5.87,1.35Zm-40.94,75a43.1,43.1,0,0,0,8.54-3.2,21.46,21.46,0,0,0,11.18-13.8q2.49-9.16-3.07-19.63T424.06,257q-9-3-18,1.75a35.87,35.87,0,0,0-7.11,5.18Zm-12.55,11.38-.73-1.38,1.91-1q3.23-1.71,3.47-4.5c.11-1.11-.59-3.12-2.11-6l-17.47-32.86c-1.69-3.17-3.1-5-4.21-5.39a6.25,6.25,0,0,0-5.23.66l-1.91,1-.74-1.4,20.7-11q11.38-6.05,18.72-6.64a23.5,23.5,0,0,1,14.15,3.54,30.23,30.23,0,0,1,11,12q5.64,10.62,3,21.17-3,11.8-17.83,19.67Zm-51.13,37.32a42.71,42.71,0,0,0,8.09-5.52c3.87-3.37,6.06-6.8,6.58-10.31a10.85,10.85,0,0,0-2.57-9.1,12.52,12.52,0,0,0-5.61-3.67,12.23,12.23,0,0,0-7.69.21,25.67,25.67,0,0,0-8.86,5.34c-1.32,1.15-2.44,2.16-3.35,3A22.46,22.46,0,0,0,342.8,338Zm-18.06-20.78a31.88,31.88,0,0,0,3-2q1.63-1.21,3.44-2.8c3.12-2.71,5.19-5.08,6.16-7.12a9.93,9.93,0,0,0,.92-6.23,11.47,11.47,0,0,0-2.71-5.64,11,11,0,0,0-8.76-3.8q-5.46,0-11.41,5.19a28.9,28.9,0,0,0-5.17,5.72Zm18.31-12.86q5.36-3,9.44-2.81a12.68,12.68,0,0,1,9.37,4.51,14.27,14.27,0,0,1,3.34,8,15.47,15.47,0,0,1-1.87,9.21q-2.39,4.47-9.72,10.85L348.6,369.8l-1-1.18,1.63-1.42q2.72-2.37,2.39-5.14c-.15-1.17-1.28-3-3.4-5.42l-24.41-28.08q-3.51-4-5.35-4.28a6.25,6.25,0,0,0-4.95,1.82l-1.63,1.42-1-1.19L329.58,310a49,49,0,0,1,9.11-6.56q5.81-3,10.89-2.3a13.3,13.3,0,0,1,8.4,4.55,12.41,12.41,0,0,1,3.11,7.57A15.52,15.52,0,0,1,358.54,322.22ZM290.16,355l-1.26-1,12.27-16.29,1.26,1-1.31,1.74a5.84,5.84,0,0,0-.87,5.88c.35,1,1.79,2.47,4.34,4.4l18.65,14.05q6.93,5.22,9.7,9.45a16.89,16.89,0,0,1,2.49,10.33q-.31,6.08-5.51,13-5.68,7.54-11.23,9.46a17.67,17.67,0,0,1-11.19.25q-3.83-1.2-12.15-7.45l-18-13.55c-2.83-2.13-5-3.14-6.44-3s-2.86,1-4.16,2.78l-1.31,1.74-1.26-1,15-19.88,1.26,1-1.33,1.76c-1.43,1.9-1.87,3.71-1.28,5.43.38,1.18,1.88,2.74,4.45,4.68l20.05,15.11a55.86,55.86,0,0,0,6.5,4.14,16.55,16.55,0,0,0,6.74,2.28,12.07,12.07,0,0,0,6-1.32,16,16,0,0,0,5.75-5,20.57,20.57,0,0,0,4.11-9.55,13.18,13.18,0,0,0-1.36-8.67q-2.09-3.62-9.41-9.14l-18.63-14c-2.87-2.16-4.91-3.19-6.1-3.11a6.27,6.27,0,0,0-4.46,2.81Zm4.6,62.58.91-1.11L307.36,428,287.12,467.7l-1.39-.71,1-1.94q1.66-3.26.25-5.73c-.54-.94-2.29-2.16-5.2-3.64L248.64,438.8q-4.81-2.45-6.55-2a6.21,6.21,0,0,0-3.9,3.53l-1,1.94-1.41-.72,11.84-23.24L249,419q-2.12,4.07-2.17,6.12a5.14,5.14,0,0,0,.87,3.27c.6.81,2.43,2,5.48,3.56l32.24,16.43a11.86,11.86,0,0,0,4.62,1.59,3,3,0,0,0,1.89-.8c.57-.51,1.7-2.41,3.38-5.71l1.91-3.75q3-5.91,3.36-8.73a12.22,12.22,0,0,0-.87-5.93A28.42,28.42,0,0,0,294.76,417.59Zm-67,39.66,19,4.79-.41,1.25q-9.17-.21-14.36,3.23a18.31,18.31,0,0,0-7.31,10,19.05,19.05,0,0,0-.43,10.76q1.34,5.31,6.58,9.79t14.25,7.42a33.52,33.52,0,0,0,13.67,1.8,18.77,18.77,0,0,0,10.68-4.45,21.58,21.58,0,0,0,6.46-10,19.88,19.88,0,0,0,.77-10.16q-1-4.81-6.15-11.9l1.21-1q6,6.49,7.59,13.09a25.61,25.61,0,0,1-.85,14.16q-4.42,13.61-17,17.8a30.39,30.39,0,0,1-19.5-.18,33.18,33.18,0,0,1-13.88-8.56,28.08,28.08,0,0,1-7.36-13.58,28.84,28.84,0,0,1,.81-15.3,27.24,27.24,0,0,1,6.7-10.78,6.74,6.74,0,0,0,1.68-2.14,2.81,2.81,0,0,0-.16-2.14,6.63,6.63,0,0,0-2.53-2.48ZM367.25,585.79l-17.48-47.72c18.42-35.94,37.07-71.53,55.26-107.47,32.67-6,65.57-6,98.47-9,9.62,37.48,23.63,72.95,38.35,108.53-22.52,33.24-45.38,67.06-59.34,105.33h-.68l-2.06,0c-47.23,0-63.84-30.11-82.86-40.56C388.08,590,381.7,586.33,367.25,585.79Zm304.82-55.67c13.44-33.45,25.14-67.49,36.15-101.89,31.4-3.56,61.87,0,93.15.83,22,35.35,42.52,71.76,59.9,109.6A414,414,0,0,1,849,588a61.71,61.71,0,0,0-17.45-2.26H829.8c-14.92.14-25,4.2-33.91,10.5a28.77,28.77,0,0,0-5.54,4.48c-9.1,9.54-27.83,22.47-41.05,28.2a76.11,76.11,0,0,1-15.13,4.51A625.19,625.19,0,0,0,672.07,530.12ZM488.72,635.22c14-37.14,36.28-70.27,58.47-102.73,40.08-.83,80.05-.47,120.14,1.19a603.58,603.58,0,0,1,61,100.74q-1.44.2-2.91.37a45.08,45.08,0,0,1-7.75.68l-2.25,0-2.06,0c-47.23,0-63.84-30.11-82.86-40.56-9.39-5.16-16-9-32.42-9.17h-1.77c-14.92.14-25,4.2-33.91,10.5a28.77,28.77,0,0,0-5.54,4.48c-9.1,9.54-27.83,22.47-41.05,28.2a86.94,86.94,0,0,1-23.93,5.87Q490.29,635.05,488.72,635.22ZM597.93,916.09c-175.11,0-317.06-142-317.06-317.06S422.82,282,597.93,282,915,423.92,915,599,773,916.09,597.93,916.09ZM236.11,651.89q.92,6.23,2,12.41h-.05q1.42,7.83,3.18,15.56h0q2,9,4.52,17.86l.22.8.17.6a364.34,364.34,0,0,0,22.36,58.61l0,0a364.66,364.66,0,0,0,24,42.15l-3.09,2A367.16,367.16,0,0,1,242.7,700.3l-.28-1-.13-.45a366.18,366.18,0,0,1-9.87-46.41Zm222,196a94.45,94.45,0,0,0,22,2.47l2.06,0,2.25,0a45.1,45.1,0,0,0,7.75-.68,87,87,0,0,0,23.93-5.87c13.23-5.73,32-18.66,41.05-28.2a28.8,28.8,0,0,1,5.54-4.48c8.93-6.31,19-10.36,33.91-10.5h1.77c16.42.14,23,4,32.42,9.17,19,10.46,35.63,40.56,82.86,40.56l2.06,0,2.25,0a45.1,45.1,0,0,0,7.75-.68,103.2,103.2,0,0,0,12.86-2.26A286.9,286.9,0,0,0,842,747a76.55,76.55,0,0,0-10.45-.74H829.8c-14.92.14-25,4.2-33.91,10.5a28.79,28.79,0,0,0-5.54,4.48c-9.1,9.54-27.83,22.47-41.05,28.2a87,87,0,0,1-23.93,5.87,45.08,45.08,0,0,1-7.75.68l-2.25,0-2.06,0c-47.23,0-63.84-30.11-82.86-40.56-9.39-5.16-16-9-32.42-9.17h-1.77c-14.92.14-25,4.2-33.91,10.5a28.79,28.79,0,0,0-5.54,4.48c-9.1,9.54-27.83,22.47-41.05,28.2a87,87,0,0,1-23.93,5.87,45.08,45.08,0,0,1-7.75.68l-2.25,0-2.06,0c-47.23,0-63.84-30.11-82.86-40.56-9.39-5.16-16-9-32.42-9.17h-1.77a72.56,72.56,0,0,0-9,.62A286.85,286.85,0,0,0,458.11,847.89Zm86.07,31.49a287.84,287.84,0,0,0,107.73,0h-.06l-.35-.29h0c-7.72-6.5-14.22-12.77-21-16.52-9.39-5.16-16-9-32.42-9.17h-1.77c-14.92.14-25,4.2-33.91,10.5a28.78,28.78,0,0,0-5.54,4.48,108.3,108.3,0,0,1-12.65,11ZM585,313.91l-4.11.22,21.9,13.51c-.46,10.68-.7,21.59-1.27,32.38-26.18,9.49-47.62,23.72-68,37.13-9.62,6.41-19.46,13.17-29.43,18.62-32.44,2.85-65,2.85-97.2,8.54.57-12.65-.21-25.18.55-37.82C406.53,387.31,478,318.68,585,313.91Zm6.14-.22-1.42,0Zm30.42.9-3-.23Zm183.52,88.12-.63-.66q-1.3-1.36-2.62-2.71c-.73,6.57-1.5,21.78-1.5,23.91-31-1.07-61.29-4.39-92.57-.83-30.24-25.74-65-45.43-100.44-62.39.35-10.68.58-21.23,1.16-31.91l20.81-12.79q-2.09-.23-4.2-.43a284.61,284.61,0,0,1,180,87.81ZM877.76,542.6q-.2-1-.41-2Q877.55,541.59,877.76,542.6Zm5.37,67.21c-6.9-5.91-12.89-11.47-19.14-14.91-3.38-1.86-6.4-3.55-9.64-5a408.18,408.18,0,0,0,12-47.73l11.4.38A286.72,286.72,0,0,1,883.35,599C883.35,602.64,883.26,606.23,883.12,609.81Zm-5.94,48.39.09-.43ZM864,702.56l0,.06h0l0-.07ZM318.44,657.09l.31,1.5c1.69-1.5,3.22-3,4.54-4.35a28.79,28.79,0,0,1,5.54-4.48c8.93-6.31,19-10.36,33.91-10.5h1.77c16.42.14,23,4,32.42,9.17,19,10.46,35.63,40.56,82.86,40.56l2.06,0,2.25,0a45.08,45.08,0,0,0,7.75-.68,87,87,0,0,0,23.93-5.87c13.23-5.73,32-18.66,41.05-28.2a28.78,28.78,0,0,1,5.54-4.48c8.93-6.31,19-10.36,33.91-10.5H598c16.42.14,23,4,32.42,9.17,19,10.46,35.63,40.56,82.86,40.56l2.06,0,2.25,0a45.08,45.08,0,0,0,7.75-.68,87,87,0,0,0,23.93-5.87c13.23-5.73,32-18.66,41.05-28.2a28.77,28.77,0,0,1,5.54-4.48c8.93-6.31,19-10.36,33.91-10.5h1.77c16.42.14,23,4,32.42,9.17,4.39,2.42,8.66,5.88,13.2,9.78A283.28,283.28,0,0,1,864,702.55h0c-9.2-5.06-15.85-8.83-32.06-9h-1.77c-14.91.14-25,4.2-33.91,10.5a28.79,28.79,0,0,0-5.54,4.48c-9.1,9.54-27.83,22.47-41.05,28.2a87,87,0,0,1-23.93,5.87,45.1,45.1,0,0,1-7.75.68l-2.25,0-2.06,0c-47.23,0-63.84-30.11-82.86-40.56-9.39-5.16-16-9-32.42-9.17h-1.77c-14.92.14-25,4.2-33.91,10.5a28.79,28.79,0,0,0-5.54,4.48c-9.1,9.54-27.83,22.47-41.05,28.2a87,87,0,0,1-23.93,5.87,45.1,45.1,0,0,1-7.75.68l-2.25,0-2.06,0c-47.23,0-63.84-30.11-82.86-40.56-9.39-5.16-16-9-32.42-9.17h-1.77c-13.48.13-23,3.46-31.3,8.75q.53,1.38,1.08,2.74a283.34,283.34,0,0,1-14.44-48Zm-.31-1.51.31,1.51h0l-.31-1.51ZM314,609.07a2.87,2.87,0,0,1-1.26,1.12c-.14-3.7-.24-7.42-.24-11.16a286.76,286.76,0,0,1,5.37-55.27h0l27.46-1.66,15.93,43.65c-14.13.38-23.84,4.38-32.47,10.48a28.79,28.79,0,0,0-5.54,4.48,96.37,96.37,0,0,1-9.29,8.35ZM597.93,891.2C436.57,891.2,305.76,760.39,305.76,599S436.57,306.86,597.93,306.86,890.09,437.67,890.09,599,759.28,891.2,597.93,891.2ZM735.5,849.15l-3,1.64ZM613.46,314l-1.55-.08ZM179.67,483C231.4,295.91,402.43,165.05,597.93,165.05S964.45,295.91,1016.18,483h117.09a29.38,29.38,0,0,1,29.34,29.34V685.74a29.38,29.38,0,0,1-29.34,29.34H1016.18C964.45,902.15,793.42,1033,597.93,1033S231.4,902.15,179.68,715.08H62.59a29.38,29.38,0,0,1-29.34-29.34V512.32A29.38,29.38,0,0,1,62.59,483Z"/></g></svg>