<svg xmlns="http://www.w3.org/2000/svg" viewBox="0 0 1200 1200"><defs><style>.cls-1{fill:#336;}.cls-1,.cls-3{fill-rule:evenodd;}.cls-2{fill:none;stroke-miterlimit:22.93;stroke-width:0.57px;}.cls-2,.cls-3{stroke:#336;}.cls-3{fill:#fc3;stroke-miterlimit:10;}</style></defs><title>DAKAR FC - ZEBRAS 4 club colour</title><g id="DAKAR_FC_-_ZEBRAS_4_club_colour" data-name="DAKAR FC - ZEBRAS 4 club colour"><path class="cls-1" d="M266.2,88,188.92,189.61c12.27,18.79,23.25,41.85,30.68,61.2,21,54.61,27.41,113.71,12.42,170.76C203.86,528.78,144.45,772,234.1,859.84c40.54,39.71,92.68,74,141.15,103.34,46.55,28.15,94.45,53.88,142.46,79.43A419.23,419.23,0,0,1,598,1099a419.24,419.24,0,0,1,80.29-56.4c48-25.54,95.9-51.28,142.46-79.43,48.47-29.3,100.61-63.62,141.15-103.34C1051.55,772,992.14,528.78,964,421.57c-15-57.06-8.57-116.16,12.43-170.77,7.43-19.34,18.41-42.4,30.68-61.19L929.8,88c-50.44,16-100.34,25.24-153.52,28.94-59.12,4.11-119,1.94-178.28,1.94S478.85,121,419.72,116.91C366.54,113.21,316.64,104,266.2,88Zm690.25,647.4-11.12,10.8c3.82,5.74,4.21,4.28,10.71,1.78C958.92,740.6,960.55,740.15,956.45,735.37Zm-191,150.76a16.67,16.67,0,0,0-9.1,11.39q-2.23,9.51,4.8,23.09,6.89,13.28,16.36,17.5a16.13,16.13,0,0,0,14.62-.55,17.11,17.11,0,0,0,9.37-11.89q2.07-9.37-4.55-22.13-5.1-9.82-11.56-15a19.08,19.08,0,0,0-10.08-4.45A17.59,17.59,0,0,0,765.41,886.13Zm-103.89,91a45.74,45.74,0,0,0,10.47-.62c5.41-1,9.31-2.92,11.72-5.86a11.63,11.63,0,0,0,2.64-9.78,13.41,13.41,0,0,0-3.14-6.46,13.1,13.1,0,0,0-7.19-4,27.5,27.5,0,0,0-11.08,0c-1.85.33-3.43.64-4.74.93a24,24,0,0,0-3.12.89Zm-5.18-29a34.16,34.16,0,0,0,3.88-.2c1.44-.15,3-.38,4.71-.68,4.36-.78,7.56-1.82,9.58-3.16a10.64,10.64,0,0,0,4.27-5.23,12.29,12.29,0,0,0,.61-6.67,11.81,11.81,0,0,0-6-8.31q-5-3-13.35-1.5a31,31,0,0,0-7.9,2.42Zm-145.49,4.65L506.64,926l-16.38,21.64Zm-115-89.41a16.28,16.28,0,0,0-14.45-2.43q-9.45,2.79-17.78,15-8.54,12.48-7.8,22.84a16,16,0,0,0,7.32,12.52,17.9,17.9,0,0,0,15.68,2.5q8.5-2.4,16.75-14.45,8.93-13.06,8.18-23Q403.15,868.3,395.87,863.32Zm-157-127.84L250,746.27c-3.82,5.74-4.21,4.28-10.71,1.79C236.38,740.7,234.74,740.25,238.85,735.48Zm23.54,46.26,3.15-15.23-8.86,18.9-7.78,5,1-31.69L236,787.4l3.69-30.66-14.54,17.85,6.54-31.07L218,757.67l4.66-27.79c-10.62,13.76-13.44,9.35-14.1,2.59a2.74,2.74,0,0,0,2,1.18c2.32.22,5-2.35,5.92-5.76.83-3.07-.08-5.8-2-6.41a52.58,52.58,0,0,1,9.24-7.69c7.06-23.3,14.84-43.35,24.08-57-8.93,21.84-12.79,35.33-16.11,55.46l9.41,13.61c2.33-4.09,10.78-14.65,18.43-18.89-4.3,5.57-9.8,20.16-11,28.95l10.5,7.49c7.43,5.51,14.91,11,22.32,16.5l7.49-19.68c-.64,8,1,15.61.38,23.6l.38.36Zm29.44,72.69,21.12-53.08L283.1,829.8c-2.74,2.62-4.17,4.54-4.29,5.79-.15,1.69.62,3.42,2.29,5.17l1.5,1.57-1.21,1.16L266.58,828l1.21-1.16,1.5,1.57q2.7,2.83,5.56,2.38c1.16-.18,3-1.48,5.49-3.86l29.18-27.82a14.14,14.14,0,0,0,3.66-4.74,5.09,5.09,0,0,0,0-3.22,12.63,12.63,0,0,0-3.14-4.58l1.23-1.17L323.29,798l-19.5,49.52,50.14-17.39L366,842.8,364.77,844l-1.48-1.55q-2.73-2.87-5.57-2.42c-1.17.19-3,1.47-5.51,3.86L323,871.68c-2.74,2.62-4.15,4.56-4.25,5.83q-.22,2.53,2.28,5.16l1.48,1.55-1.21,1.16-18.09-19,1.21-1.16,1.51,1.58q2.73,2.87,5.56,2.38c1.16-.18,3-1.48,5.49-3.86l29.84-28.46-54,18.61Zm106.63,6.64q9.92,6.79,12,19.28t-5.59,23.76q-7.95,11.61-20.51,14.25a29.65,29.65,0,0,1-35.52-24q-2-12.37,6.08-24.24,8.3-12.13,21.8-14.14A29.55,29.55,0,0,1,398.45,861.07Zm75.72,42.71L413.37,940l23.06,10.41q5.31,2.4,9.19,1.35c2.6-.7,5.7-3.07,9.29-7.14l1.26.86-9.37,13.7L401,938.46l.69-1.53L461,901.87l-18-8.12q-4.48-2-6.93-2a7.61,7.61,0,0,0-4.35,1.44c-1.26.91-2.94,2.92-5,6l-1.57-.71L432.58,885Zm37.11,52.52-23.19-5.71L481.7,959a15.17,15.17,0,0,0-2.79,4.85,3.13,3.13,0,0,0,.71,2.72c.7.91,2.46,1.82,5.31,2.75l-.4,1.63-18.87-4.65.4-1.63c2.61.16,4.37,0,5.28-.54,1.85-1,4.22-3.5,7.11-7.38l33.23-44.1,1.54.38,8.58,55q1,6.64,2.65,8.92a9.68,9.68,0,0,0,5.23,3.43l-.4,1.63-23.65-5.82.4-1.63c2.41.47,4.13.46,5.14,0a3.13,3.13,0,0,0,1.88-2.16c.32-1.3.22-3.48-.27-6.58ZM579.34,986l-21.85-52.79-1.57,41.21c-.14,3.79.17,6.16,1,7.14,1.07,1.32,2.83,2,5.25,2.11l2.17.08-.06,1.68-21.45-.82.06-1.68L545,983c2.61.1,4.48-.62,5.65-2.16.7-.94,1.11-3.14,1.25-6.59L553.45,934a14.14,14.14,0,0,0-.68-5.95,5.09,5.09,0,0,0-2.26-2.29,12.63,12.63,0,0,0-5.44-1.09l.06-1.69,17.46.66,20.53,49.1L607,925.28l17.46.66-.06,1.69-2.14-.08c-2.64-.1-4.53.62-5.68,2.15-.7,1-1.13,3.14-1.26,6.6l-1.53,40.29c-.14,3.79.2,6.16,1,7.14q1.6,2,5.24,2.11l2.14.08-.06,1.68-26.2-1,.06-1.68,2.19.08c2.64.1,4.52-.62,5.65-2.16.7-.94,1.11-3.14,1.25-6.59l1.57-41.21-25.75,51Zm100.9-39.66q6.57.2,10.23,2.61a13.59,13.59,0,0,1,6.14,9.3,15.28,15.28,0,0,1-1.33,9.18,16.58,16.58,0,0,1-6.78,7.44q-4.66,2.8-14.9,4.63l-28.67,5.12-.29-1.65,2.28-.41q3.81-.68,5-3.41c.5-1.16.46-3.44-.15-6.85l-7-39.25q-1-5.64-2.57-6.88a6.69,6.69,0,0,0-5.55-1l-2.28.41-.3-1.67,26.24-4.68a52.45,52.45,0,0,1,12-1q7,.41,11.28,3.87a14.25,14.25,0,0,1,5.22,8.8,13.3,13.3,0,0,1-1.31,8.67A16.63,16.63,0,0,1,680.24,946.31ZM745,958.15l.54,1.59-25.06,8.45-.54-1.59,2.08-.7q3.62-1.22,4.54-3.89c.38-1.15,0-3.49-1.19-7l-12.73-37.78a20.57,20.57,0,0,0-2.53-5.67,4.15,4.15,0,0,0-2.39-1.26,8.62,8.62,0,0,0-4.32.31l-2.07.7-.54-1.6,25.06-8.45.54,1.6-2.12.71c-2.38.8-3.88,2.1-4.5,3.86-.41,1.17,0,3.5,1.15,7l12.73,37.78a20.59,20.59,0,0,0,2.53,5.67,4.12,4.12,0,0,0,2.44,1.24,8.37,8.37,0,0,0,4.28-.28Zm55-22q7.81,5,14.33,5.84a24.22,24.22,0,0,0,12.87-1.81l.67,1.3a49.89,49.89,0,0,1-13.08,3.93,57.92,57.92,0,0,1-15,.58A66.41,66.41,0,0,1,786,943.36a43.73,43.73,0,0,1-11.78-.19,30.6,30.6,0,0,1-12.65-5.67,35,35,0,0,1-9.74-12.09q-6.37-12.28-2.63-24.53a29.31,29.31,0,0,1,15.07-18.11q10.73-5.57,22.82-1.51t18.52,16.46a32.66,32.66,0,0,1,3.56,20.55A31.1,31.1,0,0,1,800,936.13Zm30.16-96.38-1.05-1.32,17.09-13.62,1.06,1.32-1.82,1.45a6.25,6.25,0,0,0-2.48,5.86c.09,1.14,1.19,3,3.33,5.73l15.59,19.57q5.79,7.27,7.54,12.4a18.1,18.1,0,0,1-.18,11.39q-1.95,6.23-9.2,12-7.91,6.3-14.18,6.81a18.92,18.92,0,0,1-11.67-2.74q-3.66-2.27-10.62-11l-15-18.86c-2.36-3-4.31-4.59-5.87-4.85s-3.24.32-5.06,1.77l-1.82,1.45-1.06-1.32,20.86-16.62,1.05,1.32L814.76,852c-2,1.59-2.93,3.35-2.78,5.29.08,1.32,1.21,3.34,3.36,6l16.76,21a59.8,59.8,0,0,0,5.64,6,17.73,17.73,0,0,0,6.38,4.17,12.93,12.93,0,0,0,6.56.23,17.09,17.09,0,0,0,7.3-3.65,22,22,0,0,0,6.82-8.81,14.12,14.12,0,0,0,.9-9.36q-1.2-4.31-7.32-12l-15.57-19.55c-2.4-3-4.24-4.62-5.5-4.86A6.72,6.72,0,0,0,832,838.3Zm36.46-31.29,18.46,15.93,8.86-10.27q3.45-4,3.41-6.37c0-2.11-1.31-4.37-3.86-6.82l1.1-1.27,16.27,14-1.1,1.27a23.62,23.62,0,0,0-5.21-2.81,5.71,5.71,0,0,0-3.65.4,13.69,13.69,0,0,0-4.44,3.74l-8.86,10.27L903,839.84a19.47,19.47,0,0,0,4,3,2.94,2.94,0,0,0,1.9,0,7.93,7.93,0,0,0,2.65-2.29l6.84-7.93a27.83,27.83,0,0,0,4.41-6.23,11.21,11.21,0,0,0,.81-5.31,35.12,35.12,0,0,0-2.67-9.93l1.19-1.38,8.25,14.13-31.06,36-1.27-1.1,1.43-1.66a8.65,8.65,0,0,0,1.9-3.82,3.84,3.84,0,0,0-.35-2.93,21.93,21.93,0,0,0-4.18-4.28l-30.36-26.18c-3-2.56-5-3.83-6.25-3.83q-2.44,0-4.94,2.94l-1.43,1.66-1.28-1.11,31.06-36,10.68,8.31-1.17,1.35a21.16,21.16,0,0,0-6.44-2.76,7.26,7.26,0,0,0-4.35.78,20.74,20.74,0,0,0-4.71,4.41Zm66.33-26.82-3.15-15.22,8.87,18.9,7.78,5-1-31.69,13.91,28.66-3.7-30.66,14.55,17.85-6.55-31.07,13.69,14.15-4.67-27.79c10.62,13.75,13.45,9.35,14.1,2.59a2.74,2.74,0,0,1-2,1.18c-2.32.23-5-2.35-5.92-5.76-.83-3.07.07-5.8,2-6.41a52.58,52.58,0,0,0-9.24-7.69c-7.07-23.3-14.85-43.34-24.1-57,8.94,21.84,12.8,35.33,16.13,55.46l-9.4,13.61c-2.33-4.09-10.79-14.65-18.43-18.88,4.3,5.57,9.81,20.16,11,28.94l-10.5,7.49c-7.43,5.51-14.9,11-22.31,16.51l-7.5-19.68c.64,8-1,15.61-.38,23.6l-.38.36Zm-644.51-535H295q9.14,0,13.13-8.56t4-28.66q0-20.12-4-28.74T295,172.14h-6.62ZM295,157q25.3,0,37.54,12.92t12.23,39.54q0,26.66-12.28,39.62t-37.5,13H249.2v-14.9h4.23c2.79,0,4.61-.42,5.49-1.23s1.32-3.16,1.32-7V180.78c0-4.07-.42-6.6-1.24-7.54s-2.7-1.41-5.7-1.41H249.2V157Zm97.89,56.2-7.67-31.82-7.19,31.82Zm193.06,0-7.67-31.82-7.19,31.82Zm83.33-12.84h7.35c5.19,0,8.86-1,11-3.11s3.16-5.51,3.16-10.34c0-5.3-1-9-2.91-11.17s-5.36-3.21-10.29-3.21h-8.27Zm-27.67,37.77V180.78c0-4.07-.42-6.58-1.24-7.52s-2.7-1.41-5.7-1.41h-4.23V157h58q15.4,0,23,6.5t7.58,19.66c0,5.9-1.55,10.88-4.67,14.9a23.57,23.57,0,0,1-13.2,8.27q8.61,1.29,11.65,6.53t3,24c0,3.78.25,6.4.78,7.86s1.36,2.17,2.56,2.17,2-.89,2.54-2.69a28.75,28.75,0,0,0,.84-8.09c0-.37,0-.94-.06-1.78s-.06-1.41-.06-1.83H731c0,.47,0,1.15.06,2.11s.06,1.64.06,2.09q0,14.68-4.86,21.3t-15.65,6.63q-11.47,0-16.72-6t-5.26-19v-8.77c0-7-.75-11.51-2.24-13.42s-4.59-2.87-9.3-2.87h-7.54v23.54c0,4.07.42,6.6,1.26,7.57s2.7,1.46,5.61,1.46h4.78v14.9H582.81v-14.9h3.79c3.21,0,5.15-.21,5.87-.65a2.67,2.67,0,0,0,1.07-2.48,17.14,17.14,0,0,0-.15-2.35c-.1-.73-.23-1.46-.4-2.17l-3-11.25H567.27l-2.64,10c-.44,1.54-.75,2.74-.9,3.6a12.44,12.44,0,0,0-.25,2.38A2.36,2.36,0,0,0,565,246.4a10.21,10.21,0,0,0,4.36.76h4.17v14.9H492.1v-14.9h4a11.06,11.06,0,0,0,4.55-.68,2.34,2.34,0,0,0,1.36-2.22,7.86,7.86,0,0,0-.25-2,8.12,8.12,0,0,0-.73-1.8l-12.34-23.31L476,229.33v8.8c0,4,.42,6.55,1.26,7.54s2.68,1.49,5.51,1.49h2.74v14.9H389.75v-14.9h3.79c3.21,0,5.15-.21,5.87-.65a2.67,2.67,0,0,0,1.07-2.48,17.17,17.17,0,0,0-.15-2.35c-.1-.73-.23-1.46-.4-2.17l-3-11.25H374.2l-2.64,10c-.44,1.54-.75,2.74-.9,3.6a12.45,12.45,0,0,0-.25,2.38,2.36,2.36,0,0,0,1.53,2.14,10.21,10.21,0,0,0,4.36.76h4.17v14.9H342.78v-14.9h3.12a6.82,6.82,0,0,0,5.38-2.53c1.45-1.67,2.7-4.44,3.77-8.25L377.22,157h30.5l19.75,79.06c1.36,5.19,2.58,8.35,3.69,9.45s2.89,1.64,5.34,1.64h5.15c3,0,4.84-.5,5.68-1.46s1.26-3.47,1.26-7.57V180.78c0-4.07-.42-6.6-1.24-7.54s-2.7-1.41-5.7-1.41h-4.23V157h46.09v14.83h-.73c-2.7,0-4.48.44-5.34,1.31s-1.3,3.42-1.3,7.65v26l27.19-28a9.23,9.23,0,0,0,1.57-2.14,5.12,5.12,0,0,0,.52-2.14,2.14,2.14,0,0,0-1.22-2,7.93,7.93,0,0,0-3.71-.65h-7.06V157h47v14.83h-4.29a10.21,10.21,0,0,0-5.28,2,37.43,37.43,0,0,0-6.62,5.74l-17,18.11L530,240.11a16.8,16.8,0,0,0,4.11,5.43,8,8,0,0,0,4.89,1.62,6.82,6.82,0,0,0,5.33-2.53c1.45-1.67,2.7-4.44,3.77-8.25L570.28,157h30.5l19.75,79.06c1.36,5.19,2.58,8.35,3.69,9.45s2.89,1.64,5.34,1.64h5.15c3,0,4.84-.5,5.68-1.46S641.66,242.2,641.66,238.12ZM859.88,157v43H846.2a94.23,94.23,0,0,0-1.32-12.66,30.2,30.2,0,0,0-2.72-8.3,12.7,12.7,0,0,0-5.57-5.61q-3.39-1.64-13-1.64H812.74v28.84H816c3.81,0,6.47-1.15,8-3.45s2.3-6.37,2.3-12.24v-.91h10.56v48H826.3c-.17-7.33-.92-12.11-2.3-14.3s-4-3.29-7.88-3.29h-3.37v23.7c0,4.33.44,6.92,1.32,7.78s2.72,1.25,5.55,1.25h4.67v14.9H774.16v-14.9h4.23c2.79,0,4.61-.42,5.49-1.23s1.32-3.16,1.32-7V180.78c0-4.07-.42-6.6-1.24-7.54s-2.7-1.41-5.7-1.41h-4.11V157Zm92,64.37q-.5,21.1-10.7,32.47t-28.89,11.35q-21.84,0-33.6-14.41T866.94,209.6q0-25.33,12.17-40.54t32.55-15.22a43.51,43.51,0,0,1,12.74,1.8,39.26,39.26,0,0,1,11.27,5.53l2.16-5.79h13.68v43.28h-15.1q-2.2-15.15-6.75-22t-12.21-6.84q-8.89,0-12.95,9.37t-4,30.1q0,21.42,4.17,30.83t13.57,9.4q8.52,0,14-7.6t6.14-20.54ZM674.39,834.91c-.36.84-.77,1.86-1.23,3.08h0a11.77,11.77,0,0,0-.6,1.61l-.55,1.51c-3.69,10.14-9.37,15.8-10.88,20.84L659.9,863l-2.45,2.18-1.22,1.09c-6.23,8.28-11.55,14.28-20,20.38-9.78,7.11-25.77,9-38.27,7.6h0c-12.5,1.4-28.49-.49-38.27-7.6-8.4-6.11-13.73-12.1-20-20.38l-1.22-1.09L536.1,863,534.88,862c-1.51-5-7.19-10.7-10.88-20.84l-.55-1.51a11.85,11.85,0,0,0-.6-1.61h0c-.46-1.22-.87-2.24-1.23-3.08-2.84-8.27-2.26-16.91-1.48-22l.05,0c0-.44.1-.88.16-1.32.28-1.55.54-2.63.65-3.08l.06-.22h0c4.25-15.08,21.37-30.26,32.53-37.56,19.87-13,2.91-11.2,18.37-37.06,2.6-4.34,5.36-7.46,11.89-7.95l1.22-1.09c6.38,0,10.3-.1,12.92-.37,2.62.27,6.54.37,12.92.37l1.22,1.09c6.53.48,9.29,3.6,11.89,7.95,15.46,25.85-1.5,24.07,18.37,37.06,11.16,7.3,28.28,22.48,32.53,37.56h0l.06.22c.12.45.38,1.53.65,3.08.07.44.12.88.16,1.32l0,0C676.65,818,677.23,826.64,674.39,834.91Zm-23.06-31.82c0,4.95-14.69,23.67-14.69,33.79,0,14,22.32,3.3,27.67-8.09l2.83-5.75c1.29-3.9-3.45-1.12-5.08.37-4.28,3.9-4,11.29-18.07,11.29,5.44-20.79,13.47-19.94,13.47-30.52,0-2.58-4.31-6.25-7-6.85C643.36,795.76,651.33,800,651.33,803.09ZM456.51,409.61l1.22,1.09L480,423.58c15.15,8.9,18.52,5.92,25.21,0,9-8,30.7-26.13,39.46-31.36-3.2-5.93,1.56-5-4.92-16.33-2.69-4.72-3.08-13.61-8.76-24.9l-12-22c-11.15-17,.64-7.31-19.94-25.85a51.11,51.11,0,0,0-14-9.37c-18.89-8.46-25.38-13.51-38.58,15.48C434.3,336,423.55,390,456.51,409.61ZM471.2,611.26l1.22,1.09c0,9.72.44,10.42,4.9,16.35,11.32,0,26.88-.32,34.51,7.46l11.4,11.49a7.06,7.06,0,0,1,.76,1l1.16,2.07c.94,1.35,2.52,2.89,4.13,4.75,10.65,12.3,5.71,12.84-3.51,6.41-11-7.68-9.12-6.41-18.47-8.53-4.69-1.06-12.76-2.74-17.73-2.85a20.05,20.05,0,0,1-2.66,3.1c-.05.05-1.52,1.35-1.87,1.67s-1,.85-1.26,1.11c-5.44,6-2.31,23.3-1.67,29.11.71,6.5,1.4,14.16,2.21,19.83,2,13.72,8.09,36.2,19.61,45.76,3.2,2.66,13.8,8.91,9.8.25l-8.24-13.63-1.22-1.09c-2.3-3.88-4.1-7.4-6.55-11.61-1.51-2.61-2.26-3.71-2.9-6.14-1-3.85.29-2.79-1.57-6.23v-1.09c0-9.46.49-16.38,1.23-25.07.85-10,19.39-14.17,28.16-14.28,6.76-.08,7.71.26,11.94,2.56,6,3.27,9.84,10.2,16.22,11.72,1.11-4.64-.27-7.3-2.43-12a77.73,77.73,0,0,1-4.66-12.21c-2.19-7.48-7.53-15.32-12.16-20.78-13-15.27-10.53-20.47-26.06-41.11-9.25.69-6.38,2.32-17.24,1.22-13.21-1.33-8.42-2.86-15.83-3.4C472.43,604.55,471.2,605.79,471.2,611.26Zm85.72,41.42v-1.09l1.43.91-1.43.18c4.47,5.26,1.13,12.44,9.8,13.08-.37-14.76-8.48-33.66-16.44-46.4-7.13-11.41-14.1-19.84-18.25-26.26-2.83-4.36-3.84-7.35-6.92-11.28-18.88-24-10,23.14-6.56,28.73a49.93,49.93,0,0,0,5,6.45c2.75,3.35,6,9.42,8.09,13.51,5.92,11.48,11.9,20.41,18.3,34.94,2.51,5.69,4.7,8.9,7.17,14.33,4,8.72,4,9.89,9.62,11.05,0-9.11-5.6-19.23-8.41-26.31a17.8,17.8,0,0,0-3.22-5.91c-3-3.82-1.29-.38-2.35-3.74l-11.2-23.37c-7.38-11.06-15.18-20.77-16.45-34.4,1.05,1.08.12-.12,1.58,1.87l3.32,6.85,1.22,1.09c3.67,14,16.21,22.3,23.09,40.49a22.12,22.12,0,0,0,1.32,3.18Zm-82-128.62c8.48-5.53,6.54-22.44,24.13-35.2,4-2.88,11.77-12.29,12.5-17.21,3.74-24.92-3.87-10.74,16.69-27.65,11.64-9.57,1.1-7,32.19-28,16.62-11.23,26.39.71,30.81-16.18-12.58.93-49.59,19.44-61.55,30.23-14.46,13.06-9.31,5.78-21.21,23.63-2.26,3.38-3.42,6.21-5.45,9.32C492,479.86,474.88,500.56,474.88,524.06Zm58.55,216c4.09,1.13,7.85,4.15,12.48,4.15,3,0,11.16-19.1,3.67-24-4.23,1-3.77.59-4.9,4.36-29.75,0-22.89-16.2-40.41-8.72-.64,2.44-1.22,2.51-1.22,5.45,0,5.23,2.63,7.59,6.07,9.86C523,740.38,520.44,736.48,533.42,740.08ZM492,463c7.82-1.86,5.58-11.82,16.81-22.1,24.67-22.57,33.24-24.73,59.62-40.66,3.29-2,10.37-5.83,11.73-9.18-6.32-4.7-26.61,7.71-31.32,10.27-13.68,7.44-27.45,19.63-38.16,30.34-2.32,2.32-2.72,3.22-4.93,5.42C499.34,443.53,492.27,453.14,492,463ZM465.08,552.4c3.17-.23,15.42-7.15,15.07-.35,0,.71-8.45,7.69,4,15,9.36,5.52,10.59,5,20.15,5,2.94,0,3.6-1.77,6.12-3.27-2.3-8.8-21-27.25-29.39-27.25C473.33,541.5,467.3,543.91,465.08,552.4Zm38-38.15c37.18-17.51,19.88-15.56,34.56-31.36,6-6.43,15.45-13.76,25.76-23.94,3.14-3.1,5.85-5.6,7-10.09-6,1.42-28.94,25.22-35.2,30.79C517.64,495.26,518.07,497.88,507,509,504.08,511.9,504.23,510.3,503,514.25Zm12.25,182c1.17,2-.22,2.29,3.33,4.66,7,4.67,14.51-.45,18-1,4.79-.74,22,4.64,12.78-6.69-7.15-8.8-5.93-5.74-14.88-3.89C527.1,690.9,523.17,691.58,515.28,696.28Zm8.57,70.85c1.07,7.41,3.35,12.58,11,14.17,15.75-9.39,9-14.16,4.9-19.62C529.66,762.42,530,763.45,523.86,767.13Zm-29.39-227.8-1.22-1.09M739.49,409.61l-1.22,1.09L716,423.58c-15.15,8.9-18.52,5.92-25.21,0-9-8-30.7-26.13-39.46-31.36,3.2-5.93-1.56-5,4.92-16.32,2.69-4.72,3.08-13.61,8.76-24.9l12-22c11.15-17-.64-7.31,19.94-25.85a51.11,51.11,0,0,1,14-9.37c18.9-8.46,25.38-13.51,38.58,15.48C761.7,336,772.45,390,739.49,409.61ZM724.8,611.26l-1.22,1.09c0,9.72-.44,10.42-4.9,16.35-11.32,0-26.88-.32-34.51,7.46l-11.4,11.49a7.15,7.15,0,0,0-.76,1l-1.15,2.07c-.94,1.35-2.52,2.89-4.13,4.75-10.65,12.3-5.71,12.84,3.51,6.41,11-7.68,9.11-6.41,18.47-8.53,4.69-1.06,12.76-2.75,17.73-2.85a20,20,0,0,0,2.66,3.1c.05.05,1.52,1.35,1.87,1.66s1,.85,1.26,1.11c5.44,6,2.31,23.3,1.67,29.11-.71,6.5-1.4,14.16-2.21,19.83-2,13.71-8.09,36.2-19.61,45.76-3.2,2.66-13.8,8.91-9.8.25l8.24-13.63,1.22-1.09c2.3-3.88,4.1-7.39,6.55-11.61,1.51-2.61,2.26-3.71,2.9-6.14,1-3.85-.29-2.79,1.57-6.23v-1.09c0-9.46-.49-16.38-1.23-25.07-.85-10-19.39-14.17-28.16-14.28-6.76-.08-7.71.26-11.94,2.56-6,3.27-9.84,10.2-16.22,11.72-1.1-4.64.27-7.3,2.43-12a77.69,77.69,0,0,0,4.66-12.21c2.19-7.48,7.53-15.32,12.16-20.78,13-15.27,10.53-20.47,26.06-41.11,9.25.69,6.38,2.32,17.24,1.23,13.21-1.33,8.42-2.86,15.83-3.41C723.57,604.55,724.8,605.79,724.8,611.26Zm-85.72,41.42v-1.09l-1.43.91,1.43.18c-4.47,5.26-1.13,12.44-9.8,13.08.37-14.76,8.48-33.66,16.44-46.4,7.13-11.41,14.1-19.84,18.25-26.26,2.82-4.36,3.84-7.35,6.92-11.28,18.88-24,10,23.14,6.56,28.73a49.87,49.87,0,0,1-5,6.45c-2.75,3.35-6,9.42-8.09,13.51-5.92,11.48-11.9,20.41-18.3,34.94-2.51,5.69-4.7,8.9-7.17,14.33-4,8.72-4,9.89-9.63,11.05,0-9.11,5.6-19.23,8.41-26.31a17.81,17.81,0,0,1,3.22-5.91c3-3.82,1.29-.38,2.35-3.74l11.2-23.37c7.38-11.06,15.18-20.77,16.46-34.4-1.06,1.08-.12-.12-1.58,1.87L666,605.81l-1.23,1.09c-3.67,14-16.21,22.3-23.09,40.49a22.08,22.08,0,0,1-1.32,3.18Zm82-128.62c-8.48-5.53-6.54-22.44-24.13-35.2-4-2.88-11.77-12.29-12.5-17.21-3.74-24.92,3.87-10.74-16.69-27.65-11.64-9.57-1.1-7-32.19-28-16.62-11.23-26.39.71-30.81-16.18,12.58.93,49.59,19.44,61.55,30.23,14.46,13.06,9.31,5.78,21.21,23.63,2.26,3.38,3.42,6.21,5.45,9.32C704,479.86,721.12,500.56,721.12,524.06Zm-58.54,216c-4.09,1.13-7.85,4.15-12.48,4.15-3,0-11.16-19.1-3.67-24,4.23,1,3.77.59,4.9,4.36,29.75,0,22.89-16.2,40.41-8.72.64,2.44,1.22,2.51,1.22,5.45,0,5.23-2.63,7.59-6.07,9.86C673,740.38,675.56,736.49,662.58,740.08ZM704,463c-7.82-1.86-5.58-11.82-16.81-22.1-24.67-22.57-33.24-24.73-59.62-40.66-3.29-2-10.37-5.83-11.73-9.18,6.32-4.7,26.61,7.71,31.32,10.27,13.68,7.44,27.45,19.63,38.16,30.34,2.32,2.32,2.72,3.22,4.93,5.42C696.66,443.53,703.73,453.14,704,463Zm26.94,89.38c-3.17-.23-15.42-7.15-15.07-.35,0,.71,8.45,7.69-4,15-9.36,5.52-10.59,5-20.15,5-2.94,0-3.6-1.77-6.12-3.27,2.3-8.8,21-27.25,29.39-27.25C722.67,541.5,728.7,543.91,730.92,552.4Zm-38-38.15c-37.18-17.51-19.88-15.56-34.56-31.36-6-6.43-15.46-13.76-25.76-23.94-3.14-3.1-5.85-5.6-7-10.09,6,1.42,28.94,25.22,35.21,30.79C678.36,495.26,677.93,497.88,689,509,691.92,511.9,691.77,510.3,693,514.25Zm-12.25,182c-1.17,2,.22,2.29-3.33,4.66-7,4.67-14.51-.45-18-1-4.79-.74-22,4.64-12.78-6.69,7.15-8.8,5.93-5.73,14.88-3.89C668.89,690.9,672.83,691.58,680.72,696.28Zm-8.57,70.85c-1.07,7.41-3.35,12.58-11,14.17-15.75-9.38-9-14.16-4.9-19.62C666.34,762.42,666,763.45,672.14,767.13Zm30.61-228.89-1.22,1.09m-207.06,0c1.19,4,4.06,7.65,8.57,8.72,4.94-8.31-.11-7.22,8.86-15,4.85-4.21,8.64-6.83,13.48-10.89,2.84-2.38,4.17-2.79,7.06-4.62,22.51-14.25,20-28,25.25-36.38,2-3.23,3.13-3.37,5.52-6a61.09,61.09,0,0,1,6.25-6.43c4.92-4.33,20.39-18.59,28.54-18.15h0c8.16-.45,23.62,13.81,28.54,18.14a61.15,61.15,0,0,1,6.25,6.43c2.39,2.62,3.48,2.76,5.52,6,5.3,8.42,2.74,22.13,25.25,36.38,2.89,1.83,4.22,2.24,7.06,4.62,4.84,4.06,8.64,6.68,13.48,10.89,9,7.78,3.92,6.69,8.86,15,4.51-1.07,7.38-4.76,8.57-8.72l1.22-1.09c-3.77-14.4-17.34-20-26.78-26.3-18.07-12-19.5-24-37.83-41.54-5.88-5.62-14.17-14.76-20.46-19.94-9.21-7.59-14.47-12-19.69-11.66-5.23-.37-10.48,4.08-19.69,11.66-6.29,5.18-14.58,14.32-20.46,19.94-18.33,17.54-19.76,29.53-37.83,41.53-9.44,6.27-23,11.91-26.78,26.3ZM598,457.73c-3.94-.16-7.2,2.4-10.77,5-20.38,14.95-14.13,28.28-33.48,45.4L537,523.81c-5.24,4.71-18.9,17.59-19.39,24.27-.71,9.65,10.89,22.62,14.78,29.38A129.11,129.11,0,0,0,541,590.55c9.31,12.45,19.86,28,22,43.66l6.08,27.26c1.64,2.87,2.29,2.67,3.78,3.2a44.1,44.1,0,0,0-.66-23.5l-6-17.46c-4.36-10-20.2-47.25-24.78-55.33-2.59-4.57-8.42-11.93-7.37-17.68,1.57-8.62,10.46-26.42,16-30.55,2.54-1.89-.64-1.16,4.4-1.54-.3,12.08-15.93,21.12-4,46.1,3.43,7.19,5.31,13.38,8.57,20.71a191.21,191.21,0,0,1,8.15,21.09c15.19,50.24,13,47.82,13,102.85h3.67c1.1-11.82,3.6-13.5,3.68-34.88,0-12.36-2.84-22.75-3.14-32.51-.26-8.34-4.14-22.49-6.42-29.83-3.07-9.86-4-21.07-6.43-31.33-9.52-40.3-13.47-26.23-3.64-61.14,1.51-5.36,4-9.24,6.16-14.14,4.18-9.45,9.81-17.44,13.31-25.21,2.13-4.73,3.33-9.13,7.51-11.85a6.06,6.06,0,0,1,3.12.1h0a6.05,6.05,0,0,1,3.12-.1c4.18,2.72,5.38,7.12,7.51,11.85,3.5,7.77,9.13,15.76,13.31,25.21,2.17,4.89,4.65,8.77,6.16,14.14,9.84,34.91,5.89,20.83-3.64,61.14-2.43,10.26-3.36,21.47-6.43,31.33-2.29,7.34-6.17,21.49-6.42,29.83-.3,9.76-3.18,20.14-3.14,32.51.08,21.39,2.57,23.06,3.68,34.88h3.67c0-55-2.16-52.61,13-102.85A191.46,191.46,0,0,1,637,585.42c3.26-7.34,5.14-13.52,8.57-20.71,11.9-25-3.73-34-4-46.1,5,.37,1.86-.35,4.4,1.54,5.57,4.14,14.45,21.94,16,30.55,1,5.74-4.78,13.11-7.37,17.68-4.58,8.08-20.42,45.29-24.78,55.33l-6,17.46a44.11,44.11,0,0,0-.66,23.5c1.49-.53,2.14-.32,3.78-3.2L633,634.21c2.12-15.63,12.67-31.22,22-43.66a129.08,129.08,0,0,0,8.56-13.09c3.89-6.76,15.48-19.73,14.78-29.38-.49-6.68-14.14-19.56-19.39-24.27l-16.7-15.65c-19.36-17.13-13.1-30.46-33.48-45.4C605.2,460.13,601.94,457.58,598,457.73Zm0,182.19-.94-4c-1-13.42-1.32-19.4-3.91-35.13-1.52-9.23-3.66-18.46-5.27-26.92-.89-4.68-2.56-39.77-2.14-43.79,1.36-13.13,10.37-22.16,10.37-36.56h3.8c0,14.4,9,23.43,10.37,36.56.42,4-1.25,39.11-2.14,43.79-1.61,8.45-3.76,17.68-5.27,26.92-2.58,15.73-2.92,21.71-3.91,35.13Zm0-160.8c-5.57-1.24-7.43,6-9.6,10.83-15.21,34.1-18.11,63.31-10.16,99,7,31.64,12.94,56.62,13,88.74,0,18.52-2.77,14.17,1.22,29.43h3.67a88.51,88.51,0,0,0,1.9-11.92,88.52,88.52,0,0,0,1.9,11.92h3.67c4-15.26,1.21-10.91,1.22-29.43,0-32.12,5.92-57.1,13-88.74,7.95-35.74,5.05-64.95-10.16-99C605.43,485.11,603.57,477.89,598,479.12ZM487.12,523c9.59-2.28,30.05-41.69,49.27-57.51,12.44-10.24,4.73-1.43,18.24-17.55,16.65-19.88,27.15-11,34.12-11a33.83,33.83,0,0,0,9.25-1.32,33.81,33.81,0,0,0,9.25,1.32c7,0,17.47-8.83,34.12,11,13.51,16.13,5.8,7.31,18.24,17.56,19.22,15.82,39.68,55.23,49.27,57.51,0-9.09-4.31-13.4-7.17-19.78C698,495,695.4,494,689,488.37c-17.86-15.79-9.78-22.14-22-32.71a58.78,58.78,0,0,1-6.88-7c-1.36-1.51-5.29-5.76-6.84-7l-36.12-20.17c-13-6.95-16.35-6.74-19.11-3.85-2.77-2.89-6.09-3.1-19.11,3.85l-36.12,20.17c-1.55,1.24-5.47,5.48-6.84,7a58.81,58.81,0,0,1-6.88,7c-12.26,10.56-4.17,16.92-22,32.71C500.59,494,498,495,494.29,503.19,491.43,509.58,487.12,513.88,487.12,523Zm57.55,280.12c0,4.95,14.69,23.67,14.69,33.79,0,14-22.32,3.3-27.67-8.09L528.87,823c-1.29-3.89,3.45-1.12,5.08.37,4.28,3.9,4,11.29,18.07,11.29-5.44-20.79-13.47-19.94-13.47-30.52,0-2.58,4.31-6.25,7-6.85C552.64,795.76,544.67,800,544.67,803.09ZM598,101.27c-127.27,0-216.53,7.27-338.22-33.9L167.16,189.2S247.29,294.31,215,417.11s-88.43,362,6.77,455.29C294,943.1,419,1010,509.46,1058.12c43.84,23.33,78.07,54.62,88.55,65.09,10.47-10.47,44.7-41.76,88.54-65.09C777,1010,902,943.1,974.2,872.4c95.21-93.26,39-332.49,6.77-455.29s47.87-227.91,47.87-227.91L936.22,67.37C814.53,108.55,725.27,101.27,598,101.27Z"/><path class="cls-2" d="M266.2,88,188.92,189.61c12.27,18.79,23.25,41.85,30.68,61.2,21,54.61,27.41,113.71,12.42,170.76C203.86,528.78,144.45,772,234.1,859.84c40.54,39.71,92.68,74,141.15,103.34,46.55,28.15,94.45,53.88,142.46,79.43A419.23,419.23,0,0,1,598,1099a419.24,419.24,0,0,1,80.29-56.4c48-25.54,95.9-51.28,142.46-79.43,48.47-29.3,100.61-63.62,141.15-103.34C1051.55,772,992.14,528.78,964,421.57c-15-57.06-8.57-116.16,12.43-170.77,7.43-19.34,18.41-42.4,30.68-61.19L929.8,88c-50.44,16-100.34,25.24-153.52,28.94-59.12,4.11-119,1.94-178.28,1.94S478.85,121,419.72,116.91C366.54,113.21,316.64,104,266.2,88Zm690.25,647.4-11.12,10.8c3.82,5.74,4.21,4.28,10.71,1.78C958.92,740.6,960.55,740.15,956.45,735.37Zm-191,150.76a16.67,16.67,0,0,0-9.1,11.39q-2.23,9.51,4.8,23.09,6.89,13.28,16.36,17.5a16.13,16.13,0,0,0,14.62-.55,17.11,17.11,0,0,0,9.37-11.89q2.07-9.37-4.55-22.13-5.1-9.82-11.56-15a19.08,19.08,0,0,0-10.08-4.45A17.59,17.59,0,0,0,765.41,886.13Zm-103.89,91a45.74,45.74,0,0,0,10.47-.62c5.41-1,9.31-2.92,11.72-5.86a11.63,11.63,0,0,0,2.64-9.78,13.41,13.41,0,0,0-3.14-6.46,13.1,13.1,0,0,0-7.19-4,27.5,27.5,0,0,0-11.08,0c-1.85.33-3.43.64-4.74.93a24,24,0,0,0-3.12.89Zm-5.18-29a34.16,34.16,0,0,0,3.88-.2c1.44-.15,3-.38,4.71-.68,4.36-.78,7.56-1.82,9.58-3.16a10.64,10.64,0,0,0,4.27-5.23,12.29,12.29,0,0,0,.61-6.67,11.81,11.81,0,0,0-6-8.31q-5-3-13.35-1.5a31,31,0,0,0-7.9,2.42Zm-145.49,4.65L506.64,926l-16.38,21.64Zm-115-89.41a16.28,16.28,0,0,0-14.45-2.43q-9.45,2.79-17.78,15-8.54,12.48-7.8,22.84a16,16,0,0,0,7.32,12.52,17.9,17.9,0,0,0,15.68,2.5q8.5-2.4,16.75-14.45,8.93-13.06,8.18-23Q403.15,868.3,395.87,863.32Zm-157-127.84L250,746.27c-3.82,5.74-4.21,4.28-10.71,1.79C236.38,740.7,234.74,740.25,238.85,735.48Zm23.54,46.26,3.15-15.23-8.86,18.9-7.78,5,1-31.69L236,787.4l3.69-30.66-14.54,17.85,6.54-31.07L218,757.67l4.66-27.79c-10.62,13.76-13.44,9.35-14.1,2.59a2.74,2.74,0,0,0,2,1.18c2.32.22,5-2.35,5.92-5.76.83-3.07-.08-5.8-2-6.41a52.58,52.58,0,0,1,9.24-7.69c7.06-23.3,14.84-43.35,24.08-57-8.93,21.84-12.79,35.33-16.11,55.46l9.41,13.61c2.33-4.09,10.78-14.65,18.43-18.89-4.3,5.57-9.8,20.16-11,28.95l10.5,7.49c7.43,5.51,14.91,11,22.32,16.5l7.49-19.68c-.64,8,1,15.61.38,23.6l.38.36Zm29.44,72.69,21.12-53.08L283.1,829.8c-2.74,2.62-4.17,4.54-4.29,5.79-.15,1.69.62,3.42,2.29,5.17l1.5,1.57-1.21,1.16L266.58,828l1.21-1.16,1.5,1.57q2.7,2.83,5.56,2.38c1.16-.18,3-1.48,5.49-3.86l29.18-27.82a14.14,14.14,0,0,0,3.66-4.74,5.09,5.09,0,0,0,0-3.22,12.63,12.63,0,0,0-3.14-4.58l1.23-1.17L323.29,798l-19.5,49.52,50.14-17.39L366,842.8,364.77,844l-1.48-1.55q-2.73-2.87-5.57-2.42c-1.17.19-3,1.47-5.51,3.86L323,871.68c-2.74,2.62-4.15,4.56-4.25,5.83q-.22,2.53,2.28,5.16l1.48,1.55-1.21,1.16-18.09-19,1.21-1.16,1.51,1.58q2.73,2.87,5.56,2.38c1.16-.18,3-1.48,5.49-3.86l29.84-28.46-54,18.61Zm106.63,6.64q9.92,6.79,12,19.28t-5.59,23.76q-7.95,11.61-20.51,14.25a29.65,29.65,0,0,1-35.52-24q-2-12.37,6.08-24.24,8.3-12.13,21.8-14.14A29.55,29.55,0,0,1,398.45,861.07Zm75.72,42.71L413.37,940l23.06,10.41q5.31,2.4,9.19,1.35c2.6-.7,5.7-3.07,9.29-7.14l1.26.86-9.37,13.7L401,938.46l.69-1.53L461,901.87l-18-8.12q-4.48-2-6.93-2a7.61,7.61,0,0,0-4.35,1.44c-1.26.91-2.94,2.92-5,6l-1.57-.71L432.58,885Zm37.11,52.52-23.19-5.71L481.7,959a15.17,15.17,0,0,0-2.79,4.85,3.13,3.13,0,0,0,.71,2.72c.7.91,2.46,1.82,5.31,2.75l-.4,1.63-18.87-4.65.4-1.63c2.61.16,4.37,0,5.28-.54,1.85-1,4.22-3.5,7.11-7.38l33.23-44.1,1.54.38,8.58,55q1,6.64,2.65,8.92a9.68,9.68,0,0,0,5.23,3.43l-.4,1.63-23.65-5.82.4-1.63c2.41.47,4.13.46,5.14,0a3.13,3.13,0,0,0,1.88-2.16c.32-1.3.22-3.48-.27-6.58ZM579.34,986l-21.85-52.79-1.57,41.21c-.14,3.79.17,6.16,1,7.14,1.07,1.32,2.83,2,5.25,2.11l2.17.08-.06,1.68-21.45-.82.06-1.68L545,983c2.61.1,4.48-.62,5.65-2.16.7-.94,1.11-3.14,1.25-6.59L553.45,934a14.14,14.14,0,0,0-.68-5.95,5.09,5.09,0,0,0-2.26-2.29,12.63,12.63,0,0,0-5.44-1.09l.06-1.69,17.46.66,20.53,49.1L607,925.28l17.46.66-.06,1.69-2.14-.08c-2.64-.1-4.53.62-5.68,2.15-.7,1-1.13,3.14-1.26,6.6l-1.53,40.29c-.14,3.79.2,6.16,1,7.14q1.6,2,5.24,2.11l2.14.08-.06,1.68-26.2-1,.06-1.68,2.19.08c2.64.1,4.52-.62,5.65-2.16.7-.94,1.11-3.14,1.25-6.59l1.57-41.21-25.75,51Zm100.9-39.66q6.57.2,10.23,2.61a13.59,13.59,0,0,1,6.14,9.3,15.28,15.28,0,0,1-1.33,9.18,16.58,16.58,0,0,1-6.78,7.44q-4.66,2.8-14.9,4.63l-28.67,5.12-.29-1.65,2.28-.41q3.81-.68,5-3.41c.5-1.16.46-3.44-.15-6.85l-7-39.25q-1-5.64-2.57-6.88a6.69,6.69,0,0,0-5.55-1l-2.28.41-.3-1.67,26.24-4.68a52.45,52.45,0,0,1,12-1q7,.41,11.28,3.87a14.25,14.25,0,0,1,5.22,8.8,13.3,13.3,0,0,1-1.31,8.67A16.63,16.63,0,0,1,680.24,946.31ZM745,958.15l.54,1.59-25.06,8.45-.54-1.59,2.08-.7q3.62-1.22,4.54-3.89c.38-1.15,0-3.49-1.19-7l-12.73-37.78a20.57,20.57,0,0,0-2.53-5.67,4.15,4.15,0,0,0-2.39-1.26,8.62,8.62,0,0,0-4.32.31l-2.07.7-.54-1.6,25.06-8.45.54,1.6-2.12.71c-2.38.8-3.88,2.1-4.5,3.86-.41,1.17,0,3.5,1.15,7l12.73,37.78a20.59,20.59,0,0,0,2.53,5.67,4.12,4.12,0,0,0,2.44,1.24,8.37,8.37,0,0,0,4.28-.28Zm55-22q7.81,5,14.33,5.84a24.22,24.22,0,0,0,12.87-1.81l.67,1.3a49.89,49.89,0,0,1-13.08,3.93,57.92,57.92,0,0,1-15,.58A66.41,66.41,0,0,1,786,943.36a43.73,43.73,0,0,1-11.78-.19,30.6,30.6,0,0,1-12.65-5.67,35,35,0,0,1-9.74-12.09q-6.37-12.28-2.63-24.53a29.31,29.31,0,0,1,15.07-18.11q10.73-5.57,22.82-1.51t18.52,16.46a32.66,32.66,0,0,1,3.56,20.55A31.1,31.1,0,0,1,800,936.13Zm30.16-96.38-1.05-1.32,17.09-13.62,1.06,1.32-1.82,1.45a6.25,6.25,0,0,0-2.48,5.86c.09,1.14,1.19,3,3.33,5.73l15.59,19.57q5.79,7.27,7.54,12.4a18.1,18.1,0,0,1-.18,11.39q-1.95,6.23-9.2,12-7.91,6.3-14.18,6.81a18.92,18.92,0,0,1-11.67-2.74q-3.66-2.27-10.62-11l-15-18.86c-2.36-3-4.31-4.59-5.87-4.85s-3.24.32-5.06,1.77l-1.82,1.45-1.06-1.32,20.86-16.62,1.05,1.32L814.76,852c-2,1.59-2.93,3.35-2.78,5.29.08,1.32,1.21,3.34,3.36,6l16.76,21a59.8,59.8,0,0,0,5.64,6,17.73,17.73,0,0,0,6.38,4.17,12.93,12.93,0,0,0,6.56.23,17.09,17.09,0,0,0,7.3-3.65,22,22,0,0,0,6.82-8.81,14.12,14.12,0,0,0,.9-9.36q-1.2-4.31-7.32-12l-15.57-19.55c-2.4-3-4.24-4.62-5.5-4.86A6.72,6.72,0,0,0,832,838.3Zm36.46-31.29,18.46,15.93,8.86-10.27q3.45-4,3.41-6.37c0-2.11-1.31-4.37-3.86-6.82l1.1-1.27,16.27,14-1.1,1.27a23.62,23.62,0,0,0-5.21-2.81,5.71,5.71,0,0,0-3.65.4,13.69,13.69,0,0,0-4.44,3.74l-8.86,10.27L903,839.84a19.47,19.47,0,0,0,4,3,2.94,2.94,0,0,0,1.9,0,7.93,7.93,0,0,0,2.65-2.29l6.84-7.93a27.83,27.83,0,0,0,4.41-6.23,11.21,11.21,0,0,0,.81-5.31,35.12,35.12,0,0,0-2.67-9.93l1.19-1.38,8.25,14.13-31.06,36-1.27-1.1,1.43-1.66a8.65,8.65,0,0,0,1.9-3.82,3.84,3.84,0,0,0-.35-2.93,21.93,21.93,0,0,0-4.18-4.28l-30.36-26.18c-3-2.56-5-3.83-6.25-3.83q-2.44,0-4.94,2.94l-1.43,1.66-1.28-1.11,31.06-36,10.68,8.31-1.17,1.35a21.16,21.16,0,0,0-6.44-2.76,7.26,7.26,0,0,0-4.35.78,20.74,20.74,0,0,0-4.71,4.41Zm66.33-26.82-3.15-15.22,8.87,18.9,7.78,5-1-31.69,13.91,28.66-3.7-30.66,14.55,17.85-6.55-31.07,13.69,14.15-4.67-27.79c10.62,13.75,13.45,9.35,14.1,2.59a2.74,2.74,0,0,1-2,1.18c-2.32.23-5-2.35-5.92-5.76-.83-3.07.07-5.8,2-6.41a52.58,52.58,0,0,0-9.24-7.69c-7.07-23.3-14.85-43.34-24.1-57,8.94,21.84,12.8,35.33,16.13,55.46l-9.4,13.61c-2.33-4.09-10.79-14.65-18.43-18.88,4.3,5.57,9.81,20.16,11,28.94l-10.5,7.49c-7.43,5.51-14.9,11-22.31,16.51l-7.5-19.68c.64,8-1,15.61-.38,23.6l-.38.36Zm-644.51-535H295q9.14,0,13.13-8.56t4-28.66q0-20.12-4-28.74T295,172.14h-6.62ZM295,157q25.3,0,37.54,12.92t12.23,39.54q0,26.66-12.28,39.62t-37.5,13H249.2v-14.9h4.23c2.79,0,4.61-.42,5.49-1.23s1.32-3.16,1.32-7V180.78c0-4.07-.42-6.6-1.24-7.54s-2.7-1.41-5.7-1.41H249.2V157Zm97.89,56.2-7.67-31.82-7.19,31.82Zm193.06,0-7.67-31.82-7.19,31.82Zm83.33-12.84h7.35c5.19,0,8.86-1,11-3.11s3.16-5.51,3.16-10.34c0-5.3-1-9-2.91-11.17s-5.36-3.21-10.29-3.21h-8.27Zm-27.67,37.77V180.78c0-4.07-.42-6.58-1.24-7.52s-2.7-1.41-5.7-1.41h-4.23V157h58q15.4,0,23,6.5t7.58,19.66c0,5.9-1.55,10.88-4.67,14.9a23.57,23.57,0,0,1-13.2,8.27q8.61,1.29,11.65,6.53t3,24c0,3.78.25,6.4.78,7.86s1.36,2.17,2.56,2.17,2-.89,2.54-2.69a28.75,28.75,0,0,0,.84-8.09c0-.37,0-.94-.06-1.78s-.06-1.41-.06-1.83H731c0,.47,0,1.15.06,2.11s.06,1.64.06,2.09q0,14.68-4.86,21.3t-15.65,6.63q-11.47,0-16.72-6t-5.26-19v-8.77c0-7-.75-11.51-2.24-13.42s-4.59-2.87-9.3-2.87h-7.54v23.54c0,4.07.42,6.6,1.26,7.57s2.7,1.46,5.61,1.46h4.78v14.9H582.81v-14.9h3.79c3.21,0,5.15-.21,5.87-.65a2.67,2.67,0,0,0,1.07-2.48,17.14,17.14,0,0,0-.15-2.35c-.1-.73-.23-1.46-.4-2.17l-3-11.25H567.27l-2.64,10c-.44,1.54-.75,2.74-.9,3.6a12.44,12.44,0,0,0-.25,2.38A2.36,2.36,0,0,0,565,246.4a10.21,10.21,0,0,0,4.36.76h4.17v14.9H492.1v-14.9h4a11.06,11.06,0,0,0,4.55-.68,2.34,2.34,0,0,0,1.36-2.22,7.86,7.86,0,0,0-.25-2,8.12,8.12,0,0,0-.73-1.8l-12.34-23.31L476,229.33v8.8c0,4,.42,6.55,1.26,7.54s2.68,1.49,5.51,1.49h2.74v14.9H389.75v-14.9h3.79c3.21,0,5.15-.21,5.87-.65a2.67,2.67,0,0,0,1.07-2.48,17.17,17.17,0,0,0-.15-2.35c-.1-.73-.23-1.46-.4-2.17l-3-11.25H374.2l-2.64,10c-.44,1.54-.75,2.74-.9,3.6a12.45,12.45,0,0,0-.25,2.38,2.36,2.36,0,0,0,1.53,2.14,10.21,10.21,0,0,0,4.36.76h4.17v14.9H342.78v-14.9h3.12a6.82,6.82,0,0,0,5.38-2.53c1.45-1.67,2.7-4.44,3.77-8.25L377.22,157h30.5l19.75,79.06c1.36,5.19,2.58,8.35,3.69,9.45s2.89,1.64,5.34,1.64h5.15c3,0,4.84-.5,5.68-1.46s1.26-3.47,1.26-7.57V180.78c0-4.07-.42-6.6-1.24-7.54s-2.7-1.41-5.7-1.41h-4.23V157h46.09v14.83h-.73c-2.7,0-4.48.44-5.34,1.31s-1.3,3.42-1.3,7.65v26l27.19-28a9.23,9.23,0,0,0,1.57-2.14,5.12,5.12,0,0,0,.52-2.14,2.14,2.14,0,0,0-1.22-2,7.93,7.93,0,0,0-3.71-.65h-7.06V157h47v14.83h-4.29a10.21,10.21,0,0,0-5.28,2,37.43,37.43,0,0,0-6.62,5.74l-17,18.11L530,240.11a16.8,16.8,0,0,0,4.11,5.43,8,8,0,0,0,4.89,1.62,6.82,6.82,0,0,0,5.33-2.53c1.45-1.67,2.7-4.44,3.77-8.25L570.28,157h30.5l19.75,79.06c1.36,5.19,2.58,8.35,3.69,9.45s2.89,1.64,5.34,1.64h5.15c3,0,4.84-.5,5.68-1.46S641.66,242.2,641.66,238.12ZM859.88,157v43H846.2a94.23,94.23,0,0,0-1.32-12.66,30.2,30.2,0,0,0-2.72-8.3,12.7,12.7,0,0,0-5.57-5.61q-3.39-1.64-13-1.64H812.74v28.84H816c3.81,0,6.47-1.15,8-3.45s2.3-6.37,2.3-12.24v-.91h10.56v48H826.3c-.17-7.33-.92-12.11-2.3-14.3s-4-3.29-7.88-3.29h-3.37v23.7c0,4.33.44,6.92,1.32,7.78s2.72,1.25,5.55,1.25h4.67v14.9H774.16v-14.9h4.23c2.79,0,4.61-.42,5.49-1.23s1.32-3.16,1.32-7V180.78c0-4.07-.42-6.6-1.24-7.54s-2.7-1.41-5.7-1.41h-4.11V157Zm92,64.37q-.5,21.1-10.7,32.47t-28.89,11.35q-21.84,0-33.6-14.41T866.94,209.6q0-25.33,12.17-40.54t32.55-15.22a43.51,43.51,0,0,1,12.74,1.8,39.26,39.26,0,0,1,11.27,5.53l2.16-5.79h13.68v43.28h-15.1q-2.2-15.15-6.75-22t-12.21-6.84q-8.89,0-12.95,9.37t-4,30.1q0,21.42,4.17,30.83t13.57,9.4q8.52,0,14-7.6t6.14-20.54ZM674.39,834.91c-.36.84-.77,1.86-1.23,3.08h0a11.77,11.77,0,0,0-.6,1.61l-.55,1.51c-3.69,10.14-9.37,15.8-10.88,20.84L659.9,863l-2.45,2.18-1.22,1.09c-6.23,8.28-11.55,14.28-20,20.38-9.78,7.11-25.77,9-38.27,7.6h0c-12.5,1.4-28.49-.49-38.27-7.6-8.4-6.11-13.73-12.1-20-20.38l-1.22-1.09L536.1,863,534.88,862c-1.51-5-7.19-10.7-10.88-20.84l-.55-1.51a11.85,11.85,0,0,0-.6-1.61h0c-.46-1.22-.87-2.24-1.23-3.08-2.84-8.27-2.26-16.91-1.48-22l.05,0c0-.44.1-.88.16-1.32.28-1.55.54-2.63.65-3.08l.06-.22h0c4.25-15.08,21.37-30.26,32.53-37.56,19.87-13,2.91-11.2,18.37-37.06,2.6-4.34,5.36-7.46,11.89-7.95l1.22-1.09c6.38,0,10.3-.1,12.92-.37,2.62.27,6.54.37,12.92.37l1.22,1.09c6.53.48,9.29,3.6,11.89,7.95,15.46,25.85-1.5,24.07,18.37,37.06,11.16,7.3,28.28,22.48,32.53,37.56h0l.06.22c.12.45.38,1.53.65,3.08.07.44.12.88.16,1.32l0,0C676.65,818,677.23,826.64,674.39,834.91Zm-23.06-31.82c0,4.95-14.69,23.67-14.69,33.79,0,14,22.32,3.3,27.67-8.09l2.83-5.75c1.29-3.9-3.45-1.12-5.08.37-4.28,3.9-4,11.29-18.07,11.29,5.44-20.79,13.47-19.94,13.47-30.52,0-2.58-4.31-6.25-7-6.85C643.36,795.76,651.33,800,651.33,803.09ZM456.51,409.61l1.22,1.09L480,423.58c15.15,8.9,18.52,5.92,25.21,0,9-8,30.7-26.13,39.46-31.36-3.2-5.93,1.56-5-4.92-16.33-2.69-4.72-3.08-13.61-8.76-24.9l-12-22c-11.15-17,.64-7.31-19.94-25.85a51.11,51.11,0,0,0-14-9.37c-18.89-8.46-25.38-13.51-38.58,15.48C434.3,336,423.55,390,456.51,409.61ZM471.2,611.26l1.22,1.09c0,9.72.44,10.42,4.9,16.35,11.32,0,26.88-.32,34.51,7.46l11.4,11.49a7.06,7.06,0,0,1,.76,1l1.16,2.07c.94,1.35,2.52,2.89,4.13,4.75,10.65,12.3,5.71,12.84-3.51,6.41-11-7.68-9.12-6.41-18.47-8.53-4.69-1.06-12.76-2.74-17.73-2.85a20.05,20.05,0,0,1-2.66,3.1c-.05.05-1.52,1.35-1.87,1.67s-1,.85-1.26,1.11c-5.44,6-2.31,23.3-1.67,29.11.71,6.5,1.4,14.16,2.21,19.83,2,13.72,8.09,36.2,19.61,45.76,3.2,2.66,13.8,8.91,9.8.25l-8.24-13.63-1.22-1.09c-2.3-3.88-4.1-7.4-6.55-11.61-1.51-2.61-2.26-3.71-2.9-6.14-1-3.85.29-2.79-1.57-6.23v-1.09c0-9.46.49-16.38,1.23-25.07.85-10,19.39-14.17,28.16-14.28,6.76-.08,7.71.26,11.94,2.56,6,3.27,9.84,10.2,16.22,11.72,1.11-4.64-.27-7.3-2.43-12a77.73,77.73,0,0,1-4.66-12.21c-2.19-7.48-7.53-15.32-12.16-20.78-13-15.27-10.53-20.47-26.06-41.11-9.25.69-6.38,2.32-17.24,1.22-13.21-1.33-8.42-2.86-15.83-3.4C472.43,604.55,471.2,605.79,471.2,611.26Zm85.72,41.42v-1.09l1.43.91-1.43.18c4.47,5.26,1.13,12.44,9.8,13.08-.37-14.76-8.48-33.66-16.44-46.4-7.13-11.41-14.1-19.84-18.25-26.26-2.83-4.36-3.84-7.35-6.92-11.28-18.88-24-10,23.14-6.56,28.73a49.93,49.93,0,0,0,5,6.45c2.75,3.35,6,9.42,8.09,13.51,5.92,11.48,11.9,20.41,18.3,34.94,2.51,5.69,4.7,8.9,7.17,14.33,4,8.72,4,9.89,9.62,11.05,0-9.11-5.6-19.23-8.41-26.31a17.8,17.8,0,0,0-3.22-5.91c-3-3.82-1.29-.38-2.35-3.74l-11.2-23.37c-7.38-11.06-15.18-20.77-16.45-34.4,1.05,1.08.12-.12,1.58,1.87l3.32,6.85,1.22,1.09c3.67,14,16.21,22.3,23.09,40.49a22.12,22.12,0,0,0,1.32,3.18Zm-82-128.62c8.48-5.53,6.54-22.44,24.13-35.2,4-2.88,11.77-12.29,12.5-17.21,3.74-24.92-3.87-10.74,16.69-27.65,11.64-9.57,1.1-7,32.19-28,16.62-11.23,26.39.71,30.81-16.18-12.58.93-49.59,19.44-61.55,30.23-14.46,13.06-9.31,5.78-21.21,23.63-2.26,3.38-3.42,6.21-5.45,9.32C492,479.86,474.88,500.56,474.88,524.06Zm58.55,216c4.09,1.13,7.85,4.15,12.48,4.15,3,0,11.16-19.1,3.67-24-4.23,1-3.77.59-4.9,4.36-29.75,0-22.89-16.2-40.41-8.72-.64,2.44-1.22,2.51-1.22,5.45,0,5.23,2.63,7.59,6.07,9.86C523,740.38,520.44,736.48,533.42,740.08ZM492,463c7.82-1.86,5.58-11.82,16.81-22.1,24.67-22.57,33.24-24.73,59.62-40.66,3.29-2,10.37-5.83,11.73-9.18-6.32-4.7-26.61,7.71-31.32,10.27-13.68,7.44-27.45,19.63-38.16,30.34-2.32,2.32-2.72,3.22-4.93,5.42C499.34,443.53,492.27,453.14,492,463ZM465.08,552.4c3.17-.23,15.42-7.15,15.07-.35,0,.71-8.45,7.69,4,15,9.36,5.52,10.59,5,20.15,5,2.94,0,3.6-1.77,6.12-3.27-2.3-8.8-21-27.25-29.39-27.25C473.33,541.5,467.3,543.91,465.08,552.4Zm38-38.15c37.18-17.51,19.88-15.56,34.56-31.36,6-6.43,15.45-13.76,25.76-23.94,3.14-3.1,5.85-5.6,7-10.09-6,1.42-28.94,25.22-35.2,30.79C517.64,495.26,518.07,497.88,507,509,504.08,511.9,504.23,510.3,503,514.25Zm12.25,182c1.17,2-.22,2.29,3.33,4.66,7,4.67,14.51-.45,18-1,4.79-.74,22,4.64,12.78-6.69-7.15-8.8-5.93-5.74-14.88-3.89C527.1,690.9,523.17,691.58,515.28,696.28Zm8.57,70.85c1.07,7.41,3.35,12.58,11,14.17,15.75-9.39,9-14.16,4.9-19.62C529.66,762.42,530,763.45,523.86,767.13Zm-29.39-227.8-1.22-1.09M739.49,409.61l-1.22,1.09L716,423.58c-15.15,8.9-18.52,5.92-25.21,0-9-8-30.7-26.13-39.46-31.36,3.2-5.93-1.56-5,4.92-16.32,2.69-4.72,3.08-13.61,8.76-24.9l12-22c11.15-17-.64-7.31,19.94-25.85a51.11,51.11,0,0,1,14-9.37c18.9-8.46,25.38-13.51,38.58,15.48C761.7,336,772.45,390,739.49,409.61ZM724.8,611.26l-1.22,1.09c0,9.72-.44,10.42-4.9,16.35-11.32,0-26.88-.32-34.51,7.46l-11.4,11.49a7.15,7.15,0,0,0-.76,1l-1.15,2.07c-.94,1.35-2.52,2.89-4.13,4.75-10.65,12.3-5.71,12.84,3.51,6.41,11-7.68,9.11-6.41,18.47-8.53,4.69-1.06,12.76-2.75,17.73-2.85a20,20,0,0,0,2.66,3.1c.05.05,1.52,1.35,1.87,1.66s1,.85,1.26,1.11c5.44,6,2.31,23.3,1.67,29.11-.71,6.5-1.4,14.16-2.21,19.83-2,13.71-8.09,36.2-19.61,45.76-3.2,2.66-13.8,8.91-9.8.25l8.24-13.63,1.22-1.09c2.3-3.88,4.1-7.39,6.55-11.61,1.51-2.61,2.26-3.71,2.9-6.14,1-3.85-.29-2.79,1.57-6.23v-1.09c0-9.46-.49-16.38-1.23-25.07-.85-10-19.39-14.17-28.16-14.28-6.76-.08-7.71.26-11.94,2.56-6,3.27-9.84,10.2-16.22,11.72-1.1-4.64.27-7.3,2.43-12a77.69,77.69,0,0,0,4.66-12.21c2.19-7.48,7.53-15.32,12.16-20.78,13-15.27,10.53-20.47,26.06-41.11,9.25.69,6.38,2.32,17.24,1.23,13.21-1.33,8.42-2.86,15.83-3.41C723.57,604.55,724.8,605.79,724.8,611.26Zm-85.72,41.42v-1.09l-1.43.91,1.43.18c-4.47,5.26-1.13,12.44-9.8,13.08.37-14.76,8.48-33.66,16.44-46.4,7.13-11.41,14.1-19.84,18.25-26.26,2.82-4.36,3.84-7.35,6.92-11.28,18.88-24,10,23.14,6.56,28.73a49.87,49.87,0,0,1-5,6.45c-2.75,3.35-6,9.42-8.09,13.51-5.92,11.48-11.9,20.41-18.3,34.94-2.51,5.69-4.7,8.9-7.17,14.33-4,8.72-4,9.89-9.63,11.05,0-9.11,5.6-19.23,8.41-26.31a17.81,17.81,0,0,1,3.22-5.91c3-3.82,1.29-.38,2.35-3.74l11.2-23.37c7.38-11.06,15.18-20.77,16.46-34.4-1.06,1.08-.12-.12-1.58,1.87L666,605.81l-1.23,1.09c-3.67,14-16.21,22.3-23.09,40.49a22.08,22.08,0,0,1-1.32,3.18Zm82-128.62c-8.48-5.53-6.54-22.44-24.13-35.2-4-2.88-11.77-12.29-12.5-17.21-3.74-24.92,3.87-10.74-16.69-27.65-11.64-9.57-1.1-7-32.19-28-16.62-11.23-26.39.71-30.81-16.18,12.58.93,49.59,19.44,61.55,30.23,14.46,13.06,9.31,5.78,21.21,23.63,2.26,3.38,3.42,6.21,5.45,9.32C704,479.86,721.12,500.56,721.12,524.06Zm-58.54,216c-4.09,1.13-7.85,4.15-12.48,4.15-3,0-11.16-19.1-3.67-24,4.23,1,3.77.59,4.9,4.36,29.75,0,22.89-16.2,40.41-8.72.64,2.44,1.22,2.51,1.22,5.45,0,5.23-2.63,7.59-6.07,9.86C673,740.38,675.56,736.49,662.58,740.08ZM704,463c-7.82-1.86-5.58-11.82-16.81-22.1-24.67-22.57-33.24-24.73-59.62-40.66-3.29-2-10.37-5.83-11.73-9.18,6.32-4.7,26.61,7.71,31.32,10.27,13.68,7.44,27.45,19.63,38.16,30.34,2.32,2.32,2.72,3.22,4.93,5.42C696.66,443.53,703.73,453.14,704,463Zm26.94,89.38c-3.17-.23-15.42-7.15-15.07-.35,0,.71,8.45,7.69-4,15-9.36,5.52-10.59,5-20.15,5-2.94,0-3.6-1.77-6.12-3.27,2.3-8.8,21-27.25,29.39-27.25C722.67,541.5,728.7,543.91,730.92,552.4Zm-38-38.15c-37.18-17.51-19.88-15.56-34.56-31.36-6-6.43-15.46-13.76-25.76-23.94-3.14-3.1-5.85-5.6-7-10.09,6,1.42,28.94,25.22,35.21,30.79C678.36,495.26,677.93,497.88,689,509,691.92,511.9,691.77,510.3,693,514.25Zm-12.25,182c-1.17,2,.22,2.29-3.33,4.66-7,4.67-14.51-.45-18-1-4.79-.74-22,4.64-12.78-6.69,7.15-8.8,5.93-5.73,14.88-3.89C668.89,690.9,672.83,691.58,680.72,696.28Zm-8.57,70.85c-1.07,7.41-3.35,12.58-11,14.17-15.75-9.38-9-14.16-4.9-19.62C666.34,762.42,666,763.45,672.14,767.13Zm30.61-228.89-1.22,1.09m-207.06,0c1.19,4,4.06,7.65,8.57,8.72,4.94-8.31-.11-7.22,8.86-15,4.85-4.21,8.64-6.83,13.48-10.89,2.84-2.38,4.17-2.79,7.06-4.62,22.51-14.25,20-28,25.25-36.38,2-3.23,3.13-3.37,5.52-6a61.09,61.09,0,0,1,6.25-6.43c4.92-4.33,20.39-18.59,28.54-18.15h0c8.16-.45,23.62,13.81,28.54,18.14a61.15,61.15,0,0,1,6.25,6.43c2.39,2.62,3.48,2.76,5.52,6,5.3,8.42,2.74,22.13,25.25,36.38,2.89,1.83,4.22,2.24,7.06,4.62,4.84,4.06,8.64,6.68,13.48,10.89,9,7.78,3.92,6.69,8.86,15,4.51-1.07,7.38-4.76,8.57-8.72l1.22-1.09c-3.77-14.4-17.34-20-26.78-26.3-18.07-12-19.5-24-37.83-41.54-5.88-5.62-14.17-14.76-20.46-19.94-9.21-7.59-14.47-12-19.69-11.66-5.23-.37-10.48,4.08-19.69,11.66-6.29,5.18-14.58,14.32-20.46,19.94-18.33,17.54-19.76,29.53-37.83,41.53-9.44,6.27-23,11.91-26.78,26.3ZM598,457.73c-3.94-.16-7.2,2.4-10.77,5-20.38,14.95-14.13,28.28-33.48,45.4L537,523.81c-5.24,4.71-18.9,17.59-19.39,24.27-.71,9.65,10.89,22.62,14.78,29.38A129.11,129.11,0,0,0,541,590.55c9.31,12.45,19.86,28,22,43.66l6.08,27.26c1.64,2.87,2.29,2.67,3.78,3.2a44.1,44.1,0,0,0-.66-23.5l-6-17.46c-4.36-10-20.2-47.25-24.78-55.33-2.59-4.57-8.42-11.93-7.37-17.68,1.57-8.62,10.46-26.42,16-30.55,2.54-1.89-.64-1.16,4.4-1.54-.3,12.08-15.93,21.12-4,46.1,3.43,7.19,5.31,13.38,8.57,20.71a191.21,191.21,0,0,1,8.15,21.09c15.19,50.24,13,47.82,13,102.85h3.67c1.1-11.82,3.6-13.5,3.68-34.88,0-12.36-2.84-22.75-3.14-32.51-.26-8.34-4.14-22.49-6.42-29.83-3.07-9.86-4-21.07-6.43-31.33-9.52-40.3-13.47-26.23-3.64-61.14,1.51-5.36,4-9.24,6.16-14.14,4.18-9.45,9.81-17.44,13.31-25.21,2.13-4.73,3.33-9.13,7.51-11.85a6.06,6.06,0,0,1,3.12.1h0a6.05,6.05,0,0,1,3.12-.1c4.18,2.72,5.38,7.12,7.51,11.85,3.5,7.77,9.13,15.76,13.31,25.21,2.17,4.89,4.65,8.77,6.16,14.14,9.84,34.91,5.89,20.83-3.64,61.14-2.43,10.26-3.36,21.47-6.43,31.33-2.29,7.34-6.17,21.49-6.42,29.83-.3,9.76-3.18,20.14-3.14,32.51.08,21.39,2.57,23.06,3.68,34.88h3.67c0-55-2.16-52.61,13-102.85A191.46,191.46,0,0,1,637,585.42c3.26-7.34,5.14-13.52,8.57-20.71,11.9-25-3.73-34-4-46.1,5,.37,1.86-.35,4.4,1.54,5.57,4.14,14.45,21.94,16,30.55,1,5.74-4.78,13.11-7.37,17.68-4.58,8.08-20.42,45.29-24.78,55.33l-6,17.46a44.11,44.11,0,0,0-.66,23.5c1.49-.53,2.14-.32,3.78-3.2L633,634.21c2.12-15.63,12.67-31.22,22-43.66a129.08,129.08,0,0,0,8.56-13.09c3.89-6.76,15.48-19.73,14.78-29.38-.49-6.68-14.14-19.56-19.39-24.27l-16.7-15.65c-19.36-17.13-13.1-30.46-33.48-45.4C605.2,460.13,601.94,457.58,598,457.73Zm0,182.19-.94-4c-1-13.42-1.32-19.4-3.91-35.13-1.52-9.23-3.66-18.46-5.27-26.92-.89-4.68-2.56-39.77-2.14-43.79,1.36-13.13,10.37-22.16,10.37-36.56h3.8c0,14.4,9,23.43,10.37,36.56.42,4-1.25,39.11-2.14,43.79-1.61,8.45-3.76,17.68-5.27,26.92-2.58,15.73-2.92,21.71-3.91,35.13Zm0-160.8c-5.57-1.24-7.43,6-9.6,10.83-15.21,34.1-18.11,63.31-10.16,99,7,31.64,12.94,56.62,13,88.74,0,18.52-2.77,14.17,1.22,29.43h3.67a88.51,88.51,0,0,0,1.9-11.92,88.52,88.52,0,0,0,1.9,11.92h3.67c4-15.26,1.21-10.91,1.22-29.43,0-32.12,5.92-57.1,13-88.74,7.95-35.74,5.05-64.95-10.16-99C605.43,485.11,603.57,477.89,598,479.12ZM487.12,523c9.59-2.28,30.05-41.69,49.27-57.51,12.44-10.24,4.73-1.43,18.24-17.55,16.65-19.88,27.15-11,34.12-11a33.83,33.83,0,0,0,9.25-1.32,33.81,33.81,0,0,0,9.25,1.32c7,0,17.47-8.83,34.12,11,13.51,16.13,5.8,7.31,18.24,17.56,19.22,15.82,39.68,55.23,49.27,57.51,0-9.09-4.31-13.4-7.17-19.78C698,495,695.4,494,689,488.37c-17.86-15.79-9.78-22.14-22-32.71a58.78,58.78,0,0,1-6.88-7c-1.36-1.51-5.29-5.76-6.84-7l-36.12-20.17c-13-6.95-16.35-6.74-19.11-3.85-2.77-2.89-6.09-3.1-19.11,3.85l-36.12,20.17c-1.55,1.24-5.47,5.48-6.84,7a58.81,58.81,0,0,1-6.88,7c-12.26,10.56-4.17,16.92-22,32.71C500.59,494,498,495,494.29,503.19,491.43,509.58,487.12,513.88,487.12,523Zm57.55,280.12c0,4.95,14.69,23.67,14.69,33.79,0,14-22.32,3.3-27.67-8.09L528.87,823c-1.29-3.89,3.45-1.12,5.08.37,4.28,3.9,4,11.29,18.07,11.29-5.44-20.79-13.47-19.94-13.47-30.52,0-2.58,4.31-6.25,7-6.85C552.64,795.76,544.67,800,544.67,803.09ZM598,101.27c-127.27,0-216.53,7.27-338.22-33.9L167.16,189.2S247.29,294.31,215,417.11s-88.43,362,6.77,455.29C294,943.1,419,1010,509.46,1058.12c43.84,23.33,78.07,54.62,88.55,65.09,10.47-10.47,44.7-41.76,88.54-65.09C777,1010,902,943.1,974.2,872.4c95.21-93.26,39-332.49,6.77-455.29s47.87-227.91,47.87-227.91L936.22,67.37C814.53,108.55,725.27,101.27,598,101.27Z"/><path class="cls-3" d="M266.2,88,188.92,189.61c12.27,18.79,23.25,41.85,30.68,61.2,21,54.61,27.41,113.71,12.42,170.76C203.86,528.78,144.45,772,234.1,859.84c40.54,39.71,92.68,74,141.15,103.34,46.55,28.15,94.45,53.88,142.46,79.43A419.23,419.23,0,0,1,598,1099a419.24,419.24,0,0,1,80.29-56.4c48-25.54,95.9-51.28,142.46-79.43,48.47-29.3,100.61-63.62,141.15-103.34C1051.55,772,992.14,528.78,964,421.57c-15-57.06-8.57-116.16,12.43-170.77,7.43-19.34,18.41-42.4,30.68-61.19L929.8,88c-50.44,16-100.34,25.24-153.52,28.94-59.12,4.11-119,1.94-178.28,1.94S478.85,121,419.72,116.91C366.54,113.21,316.64,104,266.2,88m690.25,647.4-11.12,10.8c3.82,5.74,4.21,4.28,10.71,1.78C958.92,740.6,960.55,740.15,956.45,735.37Zm-191,150.76a16.67,16.67,0,0,0-9.1,11.39q-2.23,9.51,4.8,23.09,6.89,13.28,16.36,17.5a16.13,16.13,0,0,0,14.62-.55,17.11,17.11,0,0,0,9.37-11.89q2.07-9.37-4.55-22.13-5.1-9.82-11.56-15a19.08,19.08,0,0,0-10.08-4.45A17.59,17.59,0,0,0,765.41,886.13Zm-103.89,91a45.74,45.74,0,0,0,10.47-.62c5.41-1,9.31-2.92,11.72-5.86a11.63,11.63,0,0,0,2.64-9.78,13.41,13.41,0,0,0-3.14-6.46,13.1,13.1,0,0,0-7.19-4,27.5,27.5,0,0,0-11.08,0c-1.85.33-3.43.64-4.74.93a24,24,0,0,0-3.12.89Zm-5.18-29a34.16,34.16,0,0,0,3.88-.2c1.44-.15,3-.38,4.71-.68,4.36-.78,7.56-1.82,9.58-3.16a10.64,10.64,0,0,0,4.27-5.23,12.29,12.29,0,0,0,.61-6.67,11.81,11.81,0,0,0-6-8.31q-5-3-13.35-1.5a31,31,0,0,0-7.9,2.42Zm-145.49,4.65L506.64,926l-16.38,21.64Zm-115-89.41a16.28,16.28,0,0,0-14.45-2.43q-9.45,2.79-17.78,15-8.54,12.48-7.8,22.84a16,16,0,0,0,7.32,12.52,17.9,17.9,0,0,0,15.68,2.5q8.5-2.4,16.75-14.45,8.93-13.06,8.18-23Q403.15,868.3,395.87,863.32Zm-157-127.84L250,746.27c-3.82,5.74-4.21,4.28-10.71,1.79C236.38,740.7,234.74,740.25,238.85,735.48Zm23.54,46.26,3.15-15.23-8.86,18.9-7.78,5,1-31.69L236,787.4l3.69-30.66-14.54,17.85,6.54-31.07L218,757.67l4.66-27.79c-10.62,13.76-13.44,9.35-14.1,2.59a2.74,2.74,0,0,0,2,1.18c2.32.22,5-2.35,5.92-5.76.83-3.07-.08-5.8-2-6.41a52.58,52.58,0,0,1,9.24-7.69c7.06-23.3,14.84-43.35,24.08-57-8.93,21.84-12.79,35.33-16.11,55.46l9.41,13.61c2.33-4.09,10.78-14.65,18.43-18.89-4.3,5.57-9.8,20.16-11,28.95l10.5,7.49c7.43,5.51,14.91,11,22.32,16.5l7.49-19.68c-.64,8,1,15.61.38,23.6l.38.36Zm29.44,72.69,21.12-53.08L283.1,829.8c-2.74,2.62-4.17,4.54-4.29,5.79-.15,1.69.62,3.42,2.29,5.17l1.5,1.57-1.21,1.16L266.58,828l1.21-1.16,1.5,1.57q2.7,2.83,5.56,2.38c1.16-.18,3-1.48,5.49-3.86l29.18-27.82a14.14,14.14,0,0,0,3.66-4.74,5.09,5.09,0,0,0,0-3.22,12.63,12.63,0,0,0-3.14-4.58l1.23-1.17L323.29,798l-19.5,49.52,50.14-17.39L366,842.8,364.77,844l-1.48-1.55q-2.73-2.87-5.57-2.42c-1.17.19-3,1.47-5.51,3.86L323,871.68c-2.74,2.62-4.15,4.56-4.25,5.83q-.22,2.53,2.28,5.16l1.48,1.55-1.21,1.16-18.09-19,1.21-1.16,1.51,1.58q2.73,2.87,5.56,2.38c1.16-.18,3-1.48,5.49-3.86l29.84-28.46-54,18.61Zm106.63,6.64q9.92,6.79,12,19.28t-5.59,23.76q-7.95,11.61-20.51,14.25a29.65,29.65,0,0,1-35.52-24q-2-12.37,6.08-24.24,8.3-12.13,21.8-14.14A29.55,29.55,0,0,1,398.45,861.07Zm75.72,42.71L413.37,940l23.06,10.41q5.31,2.4,9.19,1.35c2.6-.7,5.7-3.07,9.29-7.14l1.26.86-9.37,13.7L401,938.46l.69-1.53L461,901.87l-18-8.12q-4.48-2-6.93-2a7.61,7.61,0,0,0-4.35,1.44c-1.26.91-2.94,2.92-5,6l-1.57-.71L432.58,885Zm37.11,52.52-23.19-5.71L481.7,959a15.17,15.17,0,0,0-2.79,4.85,3.13,3.13,0,0,0,.71,2.72c.7.91,2.46,1.82,5.31,2.75l-.4,1.63-18.87-4.65.4-1.63c2.61.16,4.37,0,5.28-.54,1.85-1,4.22-3.5,7.11-7.38l33.23-44.1,1.54.38,8.58,55q1,6.64,2.65,8.92a9.68,9.68,0,0,0,5.23,3.43l-.4,1.63-23.65-5.82.4-1.63c2.41.47,4.13.46,5.14,0a3.13,3.13,0,0,0,1.88-2.16c.32-1.3.22-3.48-.27-6.58ZM579.34,986l-21.85-52.79-1.57,41.21c-.14,3.79.17,6.16,1,7.14,1.07,1.32,2.83,2,5.25,2.11l2.17.08-.06,1.68-21.45-.82.06-1.68L545,983c2.61.1,4.48-.62,5.65-2.16.7-.94,1.11-3.14,1.25-6.59L553.45,934a14.14,14.14,0,0,0-.68-5.95,5.09,5.09,0,0,0-2.26-2.29,12.63,12.63,0,0,0-5.44-1.09l.06-1.69,17.46.66,20.53,49.1L607,925.28l17.46.66-.06,1.69-2.14-.08c-2.64-.1-4.53.62-5.68,2.15-.7,1-1.13,3.14-1.26,6.6l-1.53,40.29c-.14,3.79.2,6.16,1,7.14q1.6,2,5.24,2.11l2.14.08-.06,1.68-26.2-1,.06-1.68,2.19.08c2.64.1,4.52-.62,5.65-2.16.7-.94,1.11-3.14,1.25-6.59l1.57-41.21-25.75,51Zm100.9-39.66q6.57.2,10.23,2.61a13.59,13.59,0,0,1,6.14,9.3,15.28,15.28,0,0,1-1.33,9.18,16.58,16.58,0,0,1-6.78,7.44q-4.66,2.8-14.9,4.63l-28.67,5.12-.29-1.65,2.28-.41q3.81-.68,5-3.41c.5-1.16.46-3.44-.15-6.85l-7-39.25q-1-5.64-2.57-6.88a6.69,6.69,0,0,0-5.55-1l-2.28.41-.3-1.67,26.24-4.68a52.45,52.45,0,0,1,12-1q7,.41,11.28,3.87a14.25,14.25,0,0,1,5.22,8.8,13.3,13.3,0,0,1-1.31,8.67A16.63,16.63,0,0,1,680.24,946.31ZM745,958.15l.54,1.59-25.06,8.45-.54-1.59,2.08-.7q3.62-1.22,4.54-3.89c.38-1.15,0-3.49-1.19-7l-12.73-37.78a20.57,20.57,0,0,0-2.53-5.67,4.15,4.15,0,0,0-2.39-1.26,8.62,8.62,0,0,0-4.32.31l-2.07.7-.54-1.6,25.06-8.45.54,1.6-2.12.71c-2.38.8-3.88,2.1-4.5,3.86-.41,1.17,0,3.5,1.15,7l12.73,37.78a20.59,20.59,0,0,0,2.53,5.67,4.12,4.12,0,0,0,2.44,1.24,8.37,8.37,0,0,0,4.28-.28Zm55-22q7.81,5,14.33,5.84a24.22,24.22,0,0,0,12.87-1.81l.67,1.3a49.89,49.89,0,0,1-13.08,3.93,57.92,57.92,0,0,1-15,.58A66.41,66.41,0,0,1,786,943.36a43.73,43.73,0,0,1-11.78-.19,30.6,30.6,0,0,1-12.65-5.67,35,35,0,0,1-9.74-12.09q-6.37-12.28-2.63-24.53a29.31,29.31,0,0,1,15.07-18.11q10.73-5.57,22.82-1.51t18.52,16.46a32.66,32.66,0,0,1,3.56,20.55A31.1,31.1,0,0,1,800,936.13Zm30.16-96.38-1.05-1.32,17.09-13.62,1.06,1.32-1.82,1.45a6.25,6.25,0,0,0-2.48,5.86c.09,1.14,1.19,3,3.33,5.73l15.59,19.57q5.79,7.27,7.54,12.4a18.1,18.1,0,0,1-.18,11.39q-1.95,6.23-9.2,12-7.91,6.3-14.18,6.81a18.92,18.92,0,0,1-11.67-2.74q-3.66-2.27-10.62-11l-15-18.86c-2.36-3-4.31-4.59-5.87-4.85s-3.24.32-5.06,1.77l-1.82,1.45-1.06-1.32,20.86-16.62,1.05,1.32L814.76,852c-2,1.59-2.93,3.35-2.78,5.29.08,1.32,1.21,3.34,3.36,6l16.76,21a59.8,59.8,0,0,0,5.64,6,17.73,17.73,0,0,0,6.38,4.17,12.93,12.93,0,0,0,6.56.23,17.09,17.09,0,0,0,7.3-3.65,22,22,0,0,0,6.82-8.81,14.12,14.12,0,0,0,.9-9.36q-1.2-4.31-7.32-12l-15.57-19.55c-2.4-3-4.24-4.62-5.5-4.86A6.72,6.72,0,0,0,832,838.3Zm36.46-31.29,18.46,15.93,8.86-10.27q3.45-4,3.41-6.37c0-2.11-1.31-4.37-3.86-6.82l1.1-1.27,16.27,14-1.1,1.27a23.62,23.62,0,0,0-5.21-2.81,5.71,5.71,0,0,0-3.65.4,13.69,13.69,0,0,0-4.44,3.74l-8.86,10.27L903,839.84a19.47,19.47,0,0,0,4,3,2.94,2.94,0,0,0,1.9,0,7.93,7.93,0,0,0,2.65-2.29l6.84-7.93a27.83,27.83,0,0,0,4.41-6.23,11.21,11.21,0,0,0,.81-5.31,35.12,35.12,0,0,0-2.67-9.93l1.19-1.38,8.25,14.13-31.06,36-1.27-1.1,1.43-1.66a8.65,8.65,0,0,0,1.9-3.82,3.84,3.84,0,0,0-.35-2.93,21.93,21.93,0,0,0-4.18-4.28l-30.36-26.18c-3-2.56-5-3.83-6.25-3.83q-2.44,0-4.94,2.94l-1.43,1.66-1.28-1.11,31.06-36,10.68,8.31-1.17,1.35a21.16,21.16,0,0,0-6.44-2.76,7.26,7.26,0,0,0-4.35.78,20.74,20.74,0,0,0-4.71,4.41Zm66.33-26.82-3.15-15.22,8.87,18.9,7.78,5-1-31.69,13.91,28.66-3.7-30.66,14.55,17.85-6.55-31.07,13.69,14.15-4.67-27.79c10.62,13.75,13.45,9.35,14.1,2.59a2.74,2.74,0,0,1-2,1.18c-2.32.23-5-2.35-5.92-5.76-.83-3.07.07-5.8,2-6.41a52.58,52.58,0,0,0-9.24-7.69c-7.07-23.3-14.85-43.34-24.1-57,8.94,21.84,12.8,35.33,16.13,55.46l-9.4,13.61c-2.33-4.09-10.79-14.65-18.43-18.88,4.3,5.57,9.81,20.16,11,28.94l-10.5,7.49c-7.43,5.51-14.9,11-22.31,16.51l-7.5-19.68c.64,8-1,15.61-.38,23.6l-.38.36Zm-644.51-535H295q9.14,0,13.13-8.56t4-28.66q0-20.12-4-28.74T295,172.14h-6.62ZM295,157q25.3,0,37.54,12.92t12.23,39.54q0,26.66-12.28,39.62t-37.5,13H249.2v-14.9h4.23c2.79,0,4.61-.42,5.49-1.23s1.32-3.16,1.32-7V180.78c0-4.07-.42-6.6-1.24-7.54s-2.7-1.41-5.7-1.41H249.2V157Zm97.89,56.2-7.67-31.82-7.19,31.82Zm193.06,0-7.67-31.82-7.19,31.82Zm83.33-12.84h7.35c5.19,0,8.86-1,11-3.11s3.16-5.51,3.16-10.34c0-5.3-1-9-2.91-11.17s-5.36-3.21-10.29-3.21h-8.27Zm-27.67,37.77V180.78c0-4.07-.42-6.58-1.24-7.52s-2.7-1.41-5.7-1.41h-4.23V157h58q15.4,0,23,6.5t7.58,19.66c0,5.9-1.55,10.88-4.67,14.9a23.57,23.57,0,0,1-13.2,8.27q8.61,1.29,11.65,6.53t3,24c0,3.78.25,6.4.78,7.86s1.36,2.17,2.56,2.17,2-.89,2.54-2.69a28.75,28.75,0,0,0,.84-8.09c0-.37,0-.94-.06-1.78s-.06-1.41-.06-1.83H731c0,.47,0,1.15.06,2.11s.06,1.64.06,2.09q0,14.68-4.86,21.3t-15.65,6.63q-11.47,0-16.72-6t-5.26-19v-8.77c0-7-.75-11.51-2.24-13.42s-4.59-2.87-9.3-2.87h-7.54v23.54c0,4.07.42,6.6,1.26,7.57s2.7,1.46,5.61,1.46h4.78v14.9H582.81v-14.9h3.79c3.21,0,5.15-.21,5.87-.65a2.67,2.67,0,0,0,1.07-2.48,17.14,17.14,0,0,0-.15-2.35c-.1-.73-.23-1.46-.4-2.17l-3-11.25H567.27l-2.64,10c-.44,1.54-.75,2.74-.9,3.6a12.44,12.44,0,0,0-.25,2.38A2.36,2.36,0,0,0,565,246.4a10.21,10.21,0,0,0,4.36.76h4.17v14.9H492.1v-14.9h4a11.06,11.06,0,0,0,4.55-.68,2.34,2.34,0,0,0,1.36-2.22,7.86,7.86,0,0,0-.25-2,8.12,8.12,0,0,0-.73-1.8l-12.34-23.31L476,229.33v8.8c0,4,.42,6.55,1.26,7.54s2.68,1.49,5.51,1.49h2.74v14.9H389.75v-14.9h3.79c3.21,0,5.15-.21,5.87-.65a2.67,2.67,0,0,0,1.07-2.48,17.17,17.17,0,0,0-.15-2.35c-.1-.73-.23-1.46-.4-2.17l-3-11.25H374.2l-2.64,10c-.44,1.54-.75,2.74-.9,3.6a12.45,12.45,0,0,0-.25,2.38,2.36,2.36,0,0,0,1.53,2.14,10.21,10.21,0,0,0,4.36.76h4.17v14.9H342.78v-14.9h3.12a6.82,6.82,0,0,0,5.38-2.53c1.45-1.67,2.7-4.44,3.77-8.25L377.22,157h30.5l19.75,79.06c1.36,5.19,2.58,8.35,3.69,9.45s2.89,1.64,5.34,1.64h5.15c3,0,4.84-.5,5.68-1.46s1.26-3.47,1.26-7.57V180.78c0-4.07-.42-6.6-1.24-7.54s-2.7-1.41-5.7-1.41h-4.23V157h46.09v14.83h-.73c-2.7,0-4.48.44-5.34,1.31s-1.3,3.42-1.3,7.65v26l27.19-28a9.23,9.23,0,0,0,1.57-2.14,5.12,5.12,0,0,0,.52-2.14,2.14,2.14,0,0,0-1.22-2,7.93,7.93,0,0,0-3.71-.65h-7.06V157h47v14.83h-4.29a10.21,10.21,0,0,0-5.28,2,37.43,37.43,0,0,0-6.62,5.74l-17,18.11L530,240.11a16.8,16.8,0,0,0,4.11,5.43,8,8,0,0,0,4.89,1.62,6.82,6.82,0,0,0,5.33-2.53c1.45-1.67,2.7-4.44,3.77-8.25L570.28,157h30.5l19.75,79.06c1.36,5.19,2.58,8.35,3.69,9.45s2.89,1.64,5.34,1.64h5.15c3,0,4.84-.5,5.68-1.46S641.66,242.2,641.66,238.12ZM859.88,157v43H846.2a94.23,94.23,0,0,0-1.32-12.66,30.2,30.2,0,0,0-2.72-8.3,12.7,12.7,0,0,0-5.57-5.61q-3.39-1.64-13-1.64H812.74v28.84H816c3.81,0,6.47-1.15,8-3.45s2.3-6.37,2.3-12.24v-.91h10.56v48H826.3c-.17-7.33-.92-12.11-2.3-14.3s-4-3.29-7.88-3.29h-3.37v23.7c0,4.33.44,6.92,1.32,7.78s2.72,1.25,5.55,1.25h4.67v14.9H774.16v-14.9h4.23c2.79,0,4.61-.42,5.49-1.23s1.32-3.16,1.32-7V180.78c0-4.07-.42-6.6-1.24-7.54s-2.7-1.41-5.7-1.41h-4.11V157Zm92,64.37q-.5,21.1-10.7,32.47t-28.89,11.35q-21.84,0-33.6-14.41T866.94,209.6q0-25.33,12.17-40.54t32.55-15.22a43.51,43.51,0,0,1,12.74,1.8,39.26,39.26,0,0,1,11.27,5.53l2.16-5.79h13.68v43.28h-15.1q-2.2-15.15-6.75-22t-12.21-6.84q-8.89,0-12.95,9.37t-4,30.1q0,21.42,4.17,30.83t13.57,9.4q8.52,0,14-7.6t6.14-20.54ZM674.39,834.91c-.36.84-.77,1.86-1.23,3.08h0a11.77,11.77,0,0,0-.6,1.61l-.55,1.51c-3.69,10.14-9.37,15.8-10.88,20.84L659.9,863l-2.45,2.18-1.22,1.09c-6.23,8.28-11.55,14.28-20,20.38-9.78,7.11-25.77,9-38.27,7.6h0c-12.5,1.4-28.49-.49-38.27-7.6-8.4-6.11-13.73-12.1-20-20.38l-1.22-1.09L536.1,863,534.88,862c-1.51-5-7.19-10.7-10.88-20.84l-.55-1.51a11.85,11.85,0,0,0-.6-1.61h0c-.46-1.22-.87-2.24-1.23-3.08-2.84-8.27-2.26-16.91-1.48-22l.05,0c0-.44.1-.88.16-1.32.28-1.55.54-2.63.65-3.08l.06-.22h0c4.25-15.08,21.37-30.26,32.53-37.56,19.87-13,2.91-11.2,18.37-37.06,2.6-4.34,5.36-7.46,11.89-7.95l1.22-1.09c6.38,0,10.3-.1,12.92-.37,2.62.27,6.54.37,12.92.37l1.22,1.09c6.53.48,9.29,3.6,11.89,7.95,15.46,25.85-1.5,24.07,18.37,37.06,11.16,7.3,28.28,22.48,32.53,37.56h0l.06.22c.12.45.38,1.53.65,3.08.07.44.12.88.16,1.32l0,0C676.65,818,677.23,826.64,674.39,834.91Zm-23.06-31.82c0,4.95-14.69,23.67-14.69,33.79,0,14,22.32,3.3,27.67-8.09l2.83-5.75c1.29-3.9-3.45-1.12-5.08.37-4.28,3.9-4,11.29-18.07,11.29,5.44-20.79,13.47-19.94,13.47-30.52,0-2.58-4.31-6.25-7-6.85C643.36,795.76,651.33,800,651.33,803.09ZM456.51,409.61l1.22,1.09L480,423.58c15.15,8.9,18.52,5.92,25.21,0,9-8,30.7-26.13,39.46-31.36-3.2-5.93,1.56-5-4.92-16.33-2.69-4.72-3.08-13.61-8.76-24.9l-12-22c-11.15-17,.64-7.31-19.94-25.85a51.11,51.11,0,0,0-14-9.37c-18.89-8.46-25.38-13.51-38.58,15.48C434.3,336,423.55,390,456.51,409.61ZM471.2,611.26l1.22,1.09c0,9.72.44,10.42,4.9,16.35,11.32,0,26.88-.32,34.51,7.46l11.4,11.49a7.06,7.06,0,0,1,.76,1l1.16,2.07c.94,1.35,2.52,2.89,4.13,4.75,10.65,12.3,5.71,12.84-3.51,6.41-11-7.68-9.12-6.41-18.47-8.53-4.69-1.06-12.76-2.74-17.73-2.85a20.05,20.05,0,0,1-2.66,3.1c-.05.05-1.52,1.35-1.87,1.67s-1,.85-1.26,1.11c-5.44,6-2.31,23.3-1.67,29.11.71,6.5,1.4,14.16,2.21,19.83,2,13.72,8.09,36.2,19.61,45.76,3.2,2.66,13.8,8.91,9.8.25l-8.24-13.63-1.22-1.09c-2.3-3.88-4.1-7.4-6.55-11.61-1.51-2.61-2.26-3.71-2.9-6.14-1-3.85.29-2.79-1.57-6.23v-1.09c0-9.46.49-16.38,1.23-25.07.85-10,19.39-14.17,28.16-14.28,6.76-.08,7.71.26,11.94,2.56,6,3.27,9.84,10.2,16.22,11.72,1.11-4.64-.27-7.3-2.43-12a77.73,77.73,0,0,1-4.66-12.21c-2.19-7.48-7.53-15.32-12.16-20.78-13-15.27-10.53-20.47-26.06-41.11-9.25.69-6.38,2.32-17.24,1.22-13.21-1.33-8.42-2.86-15.83-3.4C472.43,604.55,471.2,605.79,471.2,611.26Zm3.67-87.2c8.48-5.53,6.54-22.44,24.13-35.2,4-2.88,11.77-12.29,12.5-17.21,3.74-24.92-3.87-10.74,16.69-27.65,11.64-9.57,1.1-7,32.19-28,16.62-11.23,26.39.71,30.81-16.18-12.58.93-49.59,19.44-61.55,30.23-14.46,13.06-9.31,5.78-21.21,23.63-2.26,3.38-3.42,6.21-5.45,9.32C492,479.86,474.88,500.56,474.88,524.06Zm58.55,216c4.09,1.13,7.85,4.15,12.48,4.15,3,0,11.16-19.1,3.67-24-4.23,1-3.77.59-4.9,4.36-29.75,0-22.89-16.2-40.41-8.72-.64,2.44-1.22,2.51-1.22,5.45,0,5.23,2.63,7.59,6.07,9.86C523,740.38,520.44,736.48,533.42,740.08ZM492,463c7.82-1.86,5.58-11.82,16.81-22.1,24.67-22.57,33.24-24.73,59.62-40.66,3.29-2,10.37-5.83,11.73-9.18-6.32-4.7-26.61,7.71-31.32,10.27-13.68,7.44-27.45,19.63-38.16,30.34-2.32,2.32-2.72,3.22-4.93,5.42C499.34,443.53,492.27,453.14,492,463ZM465.08,552.4c3.17-.23,15.42-7.15,15.07-.35,0,.71-8.45,7.69,4,15,9.36,5.52,10.59,5,20.15,5,2.94,0,3.6-1.77,6.12-3.27-2.3-8.8-21-27.25-29.39-27.25C473.33,541.5,467.3,543.91,465.08,552.4Zm38-38.15c37.18-17.51,19.88-15.56,34.56-31.36,6-6.43,15.45-13.76,25.76-23.94,3.14-3.1,5.85-5.6,7-10.09-6,1.42-28.94,25.22-35.2,30.79C517.64,495.26,518.07,497.88,507,509,504.08,511.9,504.23,510.3,503,514.25Zm12.25,182c1.17,2-.22,2.29,3.33,4.66,7,4.67,14.51-.45,18-1,4.79-.74,22,4.64,12.78-6.69-7.15-8.8-5.93-5.74-14.88-3.89C527.1,690.9,523.17,691.58,515.28,696.28Zm8.57,70.85c1.07,7.41,3.35,12.58,11,14.17,15.75-9.39,9-14.16,4.9-19.62C529.66,762.42,530,763.45,523.86,767.13ZM739.49,409.61l-1.22,1.09L716,423.58c-15.15,8.9-18.52,5.92-25.21,0-9-8-30.7-26.13-39.46-31.36,3.2-5.93-1.56-5,4.92-16.32,2.69-4.72,3.08-13.61,8.76-24.9l12-22c11.15-17-.64-7.31,19.94-25.85a51.11,51.11,0,0,1,14-9.37c18.9-8.46,25.38-13.51,38.58,15.48C761.7,336,772.45,390,739.49,409.61ZM724.8,611.26l-1.22,1.09c0,9.72-.44,10.42-4.9,16.35-11.32,0-26.88-.32-34.51,7.46l-11.4,11.49a7.15,7.15,0,0,0-.76,1l-1.15,2.07c-.94,1.35-2.52,2.89-4.13,4.75-10.65,12.3-5.71,12.84,3.51,6.41,11-7.68,9.11-6.41,18.47-8.53,4.69-1.06,12.76-2.75,17.73-2.85a20,20,0,0,0,2.66,3.1c.05.05,1.52,1.35,1.87,1.66s1,.85,1.26,1.11c5.44,6,2.31,23.3,1.67,29.11-.71,6.5-1.4,14.16-2.21,19.83-2,13.71-8.09,36.2-19.61,45.76-3.2,2.66-13.8,8.91-9.8.25l8.24-13.63,1.22-1.09c2.3-3.88,4.1-7.39,6.55-11.61,1.51-2.61,2.26-3.71,2.9-6.14,1-3.85-.29-2.79,1.57-6.23v-1.09c0-9.46-.49-16.38-1.23-25.07-.85-10-19.39-14.17-28.16-14.28-6.76-.08-7.71.26-11.94,2.56-6,3.27-9.84,10.2-16.22,11.72-1.1-4.64.27-7.3,2.43-12a77.69,77.69,0,0,0,4.66-12.21c2.19-7.48,7.53-15.32,12.16-20.78,13-15.27,10.53-20.47,26.06-41.11,9.25.69,6.38,2.32,17.24,1.23,13.21-1.33,8.42-2.86,15.83-3.41C723.57,604.55,724.8,605.79,724.8,611.26Zm-85.72,41.42h0l1.3-2.11a22,22,0,0,0,1.32-3.18c6.87-18.19,19.42-26.48,23.09-40.49l1.23-1.09,3.32-6.85c1.46-2,.52-.79,1.58-1.87-1.28,13.63-9.08,23.34-16.46,34.4l-11.2,23.37c-1.05,3.37.64-.08-2.35,3.74a17.8,17.8,0,0,0-3.22,5.91c-2.81,7.07-8.41,17.2-8.41,26.31,5.6-1.16,5.67-2.34,9.63-11.05,2.46-5.43,4.65-8.64,7.17-14.33,6.41-14.52,12.38-23.46,18.3-34.94,2.11-4.09,5.34-10.16,8.09-13.51a49.81,49.81,0,0,0,5-6.45c3.41-5.59,12.31-52.73-6.56-28.73-3.09,3.92-4.1,6.91-6.92,11.28-4.16,6.42-11.12,14.86-18.25,26.26-8,12.74-16.08,31.64-16.45,46.4,8.59-.64,5.48-8,9.8-13.08h0Zm82-128.62c-8.48-5.53-6.54-22.44-24.13-35.2-4-2.88-11.77-12.29-12.5-17.21-3.74-24.92,3.87-10.74-16.69-27.65-11.64-9.57-1.1-7-32.19-28-16.62-11.23-26.39.71-30.81-16.18,12.58.93,49.59,19.44,61.55,30.23,14.46,13.06,9.31,5.78,21.21,23.63,2.26,3.38,3.42,6.21,5.45,9.32C704,479.86,721.12,500.56,721.12,524.06Zm-58.54,216c-4.09,1.13-7.85,4.15-12.48,4.15-3,0-11.16-19.1-3.67-24,4.23,1,3.77.59,4.9,4.36,29.75,0,22.89-16.2,40.41-8.72.64,2.44,1.22,2.51,1.22,5.45,0,5.23-2.63,7.59-6.07,9.86C673,740.38,675.56,736.49,662.58,740.08ZM704,463c-7.82-1.86-5.58-11.82-16.81-22.1-24.67-22.57-33.24-24.73-59.62-40.66-3.29-2-10.37-5.83-11.73-9.18,6.32-4.7,26.61,7.71,31.32,10.27,13.68,7.44,27.45,19.63,38.16,30.34,2.32,2.32,2.72,3.22,4.93,5.42C696.66,443.53,703.73,453.14,704,463Zm26.94,89.38c-3.17-.23-15.42-7.15-15.07-.35,0,.71,8.45,7.69-4,15-9.36,5.52-10.59,5-20.15,5-2.94,0-3.6-1.77-6.12-3.27,2.3-8.8,21-27.25,29.39-27.25C722.67,541.5,728.7,543.91,730.92,552.4Zm-38-38.15c-37.18-17.51-19.88-15.56-34.56-31.36-6-6.43-15.46-13.76-25.76-23.94-3.14-3.1-5.85-5.6-7-10.09,6,1.42,28.94,25.22,35.21,30.79C678.36,495.26,677.93,497.88,689,509,691.92,511.9,691.77,510.3,693,514.25Zm-12.25,182c-1.17,2,.22,2.29-3.33,4.66-7,4.67-14.51-.45-18-1-4.79-.74-22,4.64-12.78-6.69,7.15-8.8,5.93-5.73,14.88-3.89C668.89,690.9,672.83,691.58,680.72,696.28Zm-8.57,70.85c-1.07,7.41-3.35,12.58-11,14.17-15.75-9.38-9-14.16-4.9-19.62C666.34,762.42,666,763.45,672.14,767.13ZM494.47,539.32c1.19,4,4.06,7.65,8.57,8.72,4.94-8.31-.11-7.22,8.86-15,4.85-4.21,8.64-6.83,13.48-10.89,2.84-2.38,4.17-2.79,7.06-4.62,22.51-14.25,20-28,25.25-36.38,2-3.23,3.13-3.37,5.52-6a61.09,61.09,0,0,1,6.25-6.43c4.92-4.33,20.39-18.59,28.54-18.15h0c8.16-.45,23.62,13.81,28.54,18.14a61.15,61.15,0,0,1,6.25,6.43c2.39,2.62,3.48,2.76,5.52,6,5.3,8.42,2.74,22.13,25.25,36.38,2.89,1.83,4.22,2.24,7.06,4.62,4.84,4.06,8.64,6.68,13.48,10.89,9,7.78,3.92,6.69,8.86,15,4.51-1.07,7.38-4.76,8.57-8.72l1.22-1.09c-3.77-14.4-17.34-20-26.78-26.3-18.07-12-19.5-24-37.83-41.54-5.88-5.62-14.17-14.76-20.46-19.94-9.21-7.59-14.47-12-19.69-11.66-5.23-.37-10.48,4.08-19.69,11.66-6.29,5.18-14.58,14.32-20.46,19.94-18.33,17.54-19.76,29.53-37.83,41.53-9.44,6.27-23,11.91-26.78,26.3ZM598,457.73c-3.94-.16-7.2,2.4-10.77,5-20.38,14.95-14.13,28.28-33.48,45.4L537,523.81c-5.24,4.71-18.9,17.59-19.39,24.27-.71,9.65,10.89,22.62,14.78,29.38A129.11,129.11,0,0,0,541,590.55c9.31,12.45,19.86,28,22,43.66l6.08,27.26c1.64,2.87,2.29,2.67,3.78,3.2a44.1,44.1,0,0,0-.66-23.5l-6-17.46c-4.36-10-20.2-47.25-24.78-55.33-2.59-4.57-8.42-11.93-7.37-17.68,1.57-8.62,10.46-26.42,16-30.55,2.54-1.89-.64-1.16,4.4-1.54-.3,12.08-15.93,21.12-4,46.1,3.43,7.19,5.31,13.38,8.57,20.71a191.21,191.21,0,0,1,8.15,21.09c15.19,50.24,13,47.82,13,102.85h3.67c1.1-11.82,3.6-13.5,3.68-34.88,0-12.36-2.84-22.75-3.14-32.51-.26-8.34-4.14-22.49-6.42-29.83-3.07-9.86-4-21.07-6.43-31.33-9.52-40.3-13.47-26.23-3.64-61.14,1.51-5.36,4-9.24,6.16-14.14,4.18-9.45,9.81-17.44,13.31-25.21,2.13-4.73,3.33-9.13,7.51-11.85a6.06,6.06,0,0,1,3.12.1h0a6.05,6.05,0,0,1,3.12-.1c4.18,2.72,5.38,7.12,7.51,11.85,3.5,7.77,9.13,15.76,13.31,25.21,2.17,4.89,4.65,8.77,6.16,14.14,9.84,34.91,5.89,20.83-3.64,61.14-2.43,10.26-3.36,21.47-6.43,31.33-2.29,7.34-6.17,21.49-6.42,29.83-.3,9.76-3.18,20.14-3.14,32.51.08,21.39,2.57,23.06,3.68,34.88h3.67c0-55-2.16-52.61,13-102.85A191.46,191.46,0,0,1,637,585.42c3.26-7.34,5.14-13.52,8.57-20.71,11.9-25-3.73-34-4-46.1,5,.37,1.86-.35,4.4,1.54,5.57,4.14,14.45,21.94,16,30.55,1,5.74-4.78,13.11-7.37,17.68-4.58,8.08-20.42,45.29-24.78,55.33l-6,17.46a44.11,44.11,0,0,0-.66,23.5c1.49-.53,2.14-.32,3.78-3.2L633,634.21c2.12-15.63,12.67-31.22,22-43.66a129.08,129.08,0,0,0,8.56-13.09c3.89-6.76,15.48-19.73,14.78-29.38-.49-6.68-14.14-19.56-19.39-24.27l-16.7-15.65c-19.36-17.13-13.1-30.46-33.48-45.4C605.2,460.13,601.94,457.58,598,457.73Zm0,182.19-.94-4c-1-13.42-1.32-19.4-3.91-35.13-1.52-9.23-3.66-18.46-5.27-26.92-.89-4.68-2.56-39.77-2.14-43.79,1.36-13.13,10.37-22.16,10.37-36.56h3.8c0,14.4,9,23.43,10.37,36.56.42,4-1.25,39.11-2.14,43.79-1.61,8.45-3.76,17.68-5.27,26.92-2.58,15.73-2.92,21.71-3.91,35.13Zm0-160.8c-5.57-1.24-7.43,6-9.6,10.83-15.21,34.1-18.11,63.31-10.16,99,7,31.64,12.94,56.62,13,88.74,0,18.52-2.77,14.17,1.22,29.43h3.67a88.51,88.51,0,0,0,1.9-11.92,88.52,88.52,0,0,0,1.9,11.92h3.67c4-15.26,1.21-10.91,1.22-29.43,0-32.12,5.92-57.1,13-88.74,7.95-35.74,5.05-64.95-10.16-99C605.43,485.11,603.57,477.89,598,479.12ZM487.12,523c9.59-2.28,30.05-41.69,49.27-57.51,12.44-10.24,4.73-1.43,18.24-17.55,16.65-19.88,27.15-11,34.12-11a33.83,33.83,0,0,0,9.25-1.32,33.81,33.81,0,0,0,9.25,1.32c7,0,17.47-8.83,34.12,11,13.51,16.13,5.8,7.31,18.24,17.56,19.22,15.82,39.68,55.23,49.27,57.51,0-9.09-4.31-13.4-7.17-19.78C698,495,695.4,494,689,488.37c-17.86-15.79-9.78-22.14-22-32.71a58.78,58.78,0,0,1-6.88-7c-1.36-1.51-5.29-5.76-6.84-7l-36.12-20.17c-13-6.95-16.35-6.74-19.11-3.85-2.77-2.89-6.09-3.1-19.11,3.85l-36.12,20.17c-1.55,1.24-5.47,5.48-6.84,7a58.81,58.81,0,0,1-6.88,7c-12.26,10.56-4.17,16.92-22,32.71C500.59,494,498,495,494.29,503.19,491.43,509.58,487.12,513.88,487.12,523Zm57.55,280.12c0,4.95,14.69,23.67,14.69,33.79,0,14-22.32,3.3-27.67-8.09L528.87,823c-1.29-3.89,3.45-1.12,5.08.37,4.28,3.9,4,11.29,18.07,11.29-5.44-20.79-13.47-19.94-13.47-30.52,0-2.58,4.31-6.25,7-6.85C552.64,795.76,544.67,800,544.67,803.09ZM598,101.27c-127.27,0-216.53,7.27-338.22-33.9L167.16,189.2S247.29,294.31,215,417.11s-88.43,362,6.77,455.29C294,943.1,419,1010,509.46,1058.12c43.84,23.33,78.07,54.62,88.55,65.09,10.47-10.47,44.7-41.76,88.54-65.09C777,1010,902,943.1,974.2,872.4c95.21-93.26,39-332.49,6.77-455.29s47.87-227.91,47.87-227.91L936.22,67.37C814.53,108.55,725.27,101.27,598,101.27Zm-41.08,551.4c4.31,5.07,1.2,12.44,9.8,13.08-.37-14.76-8.48-33.66-16.44-46.4C543.13,608,536.17,599.51,532,593.1c-2.83-4.36-3.84-7.35-6.92-11.28-18.88-24-10,23.14-6.57,28.73a49.93,49.93,0,0,0,5,6.45c2.75,3.35,6,9.42,8.09,13.51,5.93,11.48,11.9,20.41,18.3,34.94,2.51,5.69,4.7,8.9,7.17,14.33,4,8.72,4,9.89,9.62,11.05,0-9.11-5.6-19.23-8.41-26.31a17.79,17.79,0,0,0-3.22-5.91c-3-3.82-1.29-.38-2.35-3.74l-11.2-23.37c-7.38-11.06-15.18-20.77-16.45-34.4,1.05,1.08.12-.12,1.58,1.87l3.32,6.85,1.22,1.09c3.67,14,16.21,22.3,23.09,40.49a22.17,22.17,0,0,0,1.32,3.18ZM598,83.15c58.39,0,117.59,2.2,175.83-1.85,54.35-3.78,104.91-13.6,156.57-31.09L943,45.94,1052.22,189.6l-8.52,11.18c-13.49,17.82-26.07,43.79-33.91,64.42-18,47.26-23.77,98.33-10.81,147.67,32.65,124.3,91.91,371.84-11.72,473.35-17.45,17.1-38.18,32.91-57.87,47.34-27,19.79-55,38.48-83.29,56.36-48.83,30.84-99.88,58.09-150.84,85.2-29,15.4-60.84,38.52-84.19,61.86L598,1150.05,584.93,1137c-23.34-23.34-55.23-46.46-84.18-61.86-51-27.11-102-54.36-150.84-85.2-28.31-17.88-56.29-36.57-83.29-56.36-19.69-14.43-40.41-30.24-57.87-47.34-103.63-101.51-44.38-349-11.72-473.35,13-49.34,7.15-100.41-10.81-147.67-7.84-20.63-20.42-46.61-33.91-64.42l-8.52-11.18L253,45.94l12.6,4.26c51.66,17.48,102.22,27.3,156.57,31.09C480.41,85.34,539.61,83.15,598,83.15Z"/></g></svg>