<svg xmlns="http://www.w3.org/2000/svg" viewBox="0 0 1200 1200"><defs><style>.cls-1{fill:#fff;}.cls-1,.cls-2{fill-rule:evenodd;}.cls-2{fill:#093;}</style></defs><title>ESTRELA DE MAHUNGO FC - CROCODILES 2 team colour</title><g id="ESTRELA_DE_MAHUNGO_FC_-_CROCODILES_2_team_colour" data-name="ESTRELA DE MAHUNGO FC - CROCODILES 2 team colour"><path class="cls-1" d="M265.2,87.9,187.92,189.54c12.27,18.79,23.25,41.85,30.68,61.2C239.59,305.34,246,364.44,231,421.5c-28.16,107.21-87.58,350.45,2.07,438.27,40.54,39.71,92.68,74,141.15,103.34,46.55,28.15,94.45,53.88,142.46,79.43a419.23,419.23,0,0,1,80.29,56.4,419.24,419.24,0,0,1,80.29-56.4c48-25.54,95.9-51.28,142.46-79.43,48.47-29.3,100.61-63.62,141.15-103.34,89.65-87.82,30.24-331.06,2.07-438.27-15-57.06-8.57-116.16,12.43-170.77,7.43-19.34,18.41-42.4,30.68-61.19L928.8,87.9c-50.44,16-100.34,25.24-153.52,28.94-59.12,4.11-119,1.94-178.28,1.94s-119.16,2.17-178.28-1.94c-53.18-3.7-103.09-12.92-153.53-28.94m690.25,647.4-11.12,10.8c3.82,5.74,4.21,4.28,10.71,1.78C957.92,740.52,959.55,740.07,955.45,735.29Zm-191,150.76a16.67,16.67,0,0,0-9.1,11.39q-2.23,9.51,4.8,23.09Q767,933.81,776.46,938a16.13,16.13,0,0,0,14.62-.55,17.11,17.11,0,0,0,9.37-11.89q2.07-9.37-4.55-22.13-5.1-9.82-11.56-15A19.08,19.08,0,0,0,774.26,884,17.59,17.59,0,0,0,764.41,886.06ZM660.52,977a45.74,45.74,0,0,0,10.47-.62c5.41-1,9.31-2.92,11.72-5.86a11.63,11.63,0,0,0,2.64-9.78,13.41,13.41,0,0,0-3.14-6.46,13.1,13.1,0,0,0-7.19-4,27.5,27.5,0,0,0-11.08,0c-1.85.33-3.43.64-4.74.93a24,24,0,0,0-3.12.89Zm-5.18-29a34.16,34.16,0,0,0,3.88-.2c1.44-.15,3-.38,4.71-.68,4.36-.78,7.56-1.82,9.58-3.16a10.64,10.64,0,0,0,4.27-5.23,12.29,12.29,0,0,0,.61-6.67,11.81,11.81,0,0,0-6-8.31q-5-3-13.35-1.5a31,31,0,0,0-7.9,2.42Zm-145.49,4.65-4.2-26.71-16.38,21.64Zm-115-89.41a16.28,16.28,0,0,0-14.45-2.43q-9.45,2.79-17.78,15-8.54,12.48-7.8,22.84a16,16,0,0,0,7.32,12.52,17.9,17.9,0,0,0,15.68,2.5q8.5-2.4,16.75-14.45,8.93-13.06,8.18-23Q402.15,868.22,394.87,863.24Zm-157-127.84L249,746.2c-3.82,5.74-4.21,4.28-10.71,1.79C235.38,740.63,233.74,740.17,237.85,735.4Zm23.54,46.26,3.15-15.23-8.86,18.9-7.78,5,1-31.69L235,787.32l3.69-30.66-14.54,17.85,6.54-31.07L217,757.59l4.66-27.79c-10.62,13.76-13.44,9.35-14.1,2.59a2.74,2.74,0,0,0,2,1.18c2.32.22,5-2.35,5.92-5.76.83-3.07-.08-5.8-2-6.41a52.58,52.58,0,0,1,9.24-7.69c7.06-23.3,14.84-43.35,24.08-57-8.93,21.84-12.79,35.33-16.11,55.46l9.41,13.61c2.33-4.09,10.78-14.65,18.43-18.89-4.3,5.57-9.8,20.16-11,28.95l10.5,7.49c7.43,5.51,14.91,11,22.32,16.5l7.49-19.68c-.64,8,1,15.61.38,23.6l.38.36Zm29.44,72.69,21.12-53.08L282.1,829.72c-2.74,2.62-4.17,4.54-4.29,5.79-.15,1.69.62,3.42,2.29,5.17l1.5,1.57-1.21,1.16-14.81-15.53,1.21-1.16,1.5,1.57q2.7,2.83,5.56,2.38c1.16-.18,3-1.48,5.49-3.86L308.51,799a14.14,14.14,0,0,0,3.66-4.74,5.09,5.09,0,0,0,0-3.22,12.63,12.63,0,0,0-3.14-4.58l1.23-1.17,12.06,12.64-19.5,49.52,50.14-17.39L365,842.72l-1.23,1.17-1.48-1.55q-2.73-2.87-5.57-2.42c-1.17.19-3,1.47-5.51,3.86L322,871.6c-2.74,2.62-4.15,4.56-4.25,5.83q-.22,2.53,2.28,5.16l1.48,1.55-1.21,1.16-18.09-19,1.21-1.16,1.51,1.58q2.73,2.87,5.56,2.38c1.16-.18,3-1.48,5.49-3.86l29.84-28.46-54,18.61ZM397.45,861q9.92,6.79,12,19.28T403.9,904q-7.95,11.61-20.51,14.25a29.65,29.65,0,0,1-35.52-24q-2-12.37,6.08-24.24,8.3-12.13,21.8-14.14A29.55,29.55,0,0,1,397.45,861Zm75.72,42.71-60.8,36.17,23.06,10.41q5.31,2.4,9.19,1.35c2.6-.7,5.7-3.07,9.29-7.14l1.26.86-9.37,13.7L400,938.38l.69-1.53L460,901.8l-18-8.12q-4.48-2-6.93-2a7.61,7.61,0,0,0-4.35,1.44c-1.26.91-2.94,2.92-5,6l-1.57-.71,7.51-13.53Zm37.11,52.52-23.19-5.71L480.7,959a15.17,15.17,0,0,0-2.79,4.85,3.13,3.13,0,0,0,.71,2.72c.7.91,2.46,1.82,5.31,2.75l-.4,1.63-18.87-4.65.4-1.63c2.61.16,4.37,0,5.28-.54,1.85-1,4.22-3.5,7.11-7.38l33.23-44.1,1.54.38,8.58,55q1,6.64,2.65,8.92a9.68,9.68,0,0,0,5.23,3.43l-.4,1.63-23.65-5.82.4-1.63c2.41.47,4.13.46,5.14,0A3.13,3.13,0,0,0,512,972.3c.32-1.3.22-3.48-.27-6.58Zm68.06,29.67-21.85-52.79-1.57,41.21c-.14,3.79.17,6.16,1,7.14,1.07,1.32,2.83,2,5.25,2.11l2.17.08-.06,1.68-21.45-.82.06-1.68,2.17.08c2.61.1,4.48-.62,5.65-2.16.7-.94,1.11-3.14,1.25-6.59l1.53-40.29a14.14,14.14,0,0,0-.68-5.95,5.09,5.09,0,0,0-2.26-2.29,12.63,12.63,0,0,0-5.44-1.09l.06-1.69,17.46.66,20.53,49.1L606,925.2l17.46.66-.06,1.69-2.14-.08c-2.64-.1-4.53.62-5.68,2.15-.7,1-1.13,3.14-1.26,6.6l-1.53,40.29c-.14,3.79.2,6.16,1,7.14q1.6,2,5.24,2.11l2.14.08-.06,1.68-26.2-1,.06-1.68,2.19.08c2.64.1,4.52-.62,5.65-2.16.7-.94,1.11-3.14,1.25-6.59L605.59,935l-25.75,51Zm100.9-39.66q6.57.2,10.23,2.61a13.59,13.59,0,0,1,6.14,9.3,15.28,15.28,0,0,1-1.33,9.18,16.58,16.58,0,0,1-6.78,7.44q-4.66,2.8-14.9,4.63l-28.67,5.12-.29-1.65,2.28-.41q3.81-.68,5-3.41c.5-1.16.46-3.44-.15-6.85l-7-39.25q-1-5.64-2.57-6.88a6.69,6.69,0,0,0-5.55-1l-2.28.41-.3-1.67,26.24-4.68a52.45,52.45,0,0,1,12-1q7,.41,11.28,3.87a14.25,14.25,0,0,1,5.22,8.8,13.3,13.3,0,0,1-1.31,8.67A16.63,16.63,0,0,1,679.24,946.24ZM744,958.08l.54,1.59-25.06,8.45-.54-1.59,2.08-.7q3.62-1.22,4.54-3.89c.38-1.15,0-3.49-1.19-7l-12.73-37.78a20.57,20.57,0,0,0-2.53-5.67,4.15,4.15,0,0,0-2.39-1.26,8.62,8.62,0,0,0-4.32.31l-2.07.7-.54-1.6,25.06-8.45.54,1.6-2.12.71c-2.38.8-3.88,2.1-4.5,3.86-.41,1.17,0,3.5,1.15,7l12.73,37.78a20.59,20.59,0,0,0,2.53,5.67,4.12,4.12,0,0,0,2.44,1.24,8.37,8.37,0,0,0,4.28-.28Zm55-22q7.81,5,14.33,5.84a24.22,24.22,0,0,0,12.87-1.81l.67,1.3a49.89,49.89,0,0,1-13.08,3.93,57.92,57.92,0,0,1-15,.58A66.41,66.41,0,0,1,785,943.28a43.73,43.73,0,0,1-11.78-.19,30.6,30.6,0,0,1-12.65-5.67,35,35,0,0,1-9.74-12.09q-6.37-12.28-2.63-24.53a29.31,29.31,0,0,1,15.07-18.11q10.73-5.57,22.82-1.51t18.52,16.46a32.66,32.66,0,0,1,3.56,20.55A31.1,31.1,0,0,1,799,936Zm30.16-96.38-1.05-1.32,17.09-13.62,1.06,1.32-1.82,1.45a6.25,6.25,0,0,0-2.48,5.86c.09,1.14,1.19,3,3.33,5.73l15.59,19.57q5.79,7.27,7.54,12.4a18.1,18.1,0,0,1-.18,11.39q-1.95,6.23-9.2,12-7.91,6.3-14.18,6.81a18.92,18.92,0,0,1-11.67-2.74q-3.66-2.27-10.62-11l-15-18.86c-2.36-3-4.31-4.59-5.87-4.85s-3.24.32-5.06,1.77l-1.82,1.45-1.06-1.32,20.86-16.62,1.05,1.32-1.85,1.47c-2,1.59-2.93,3.35-2.78,5.29.08,1.32,1.21,3.34,3.36,6l16.76,21a59.8,59.8,0,0,0,5.64,6,17.73,17.73,0,0,0,6.38,4.17,12.93,12.93,0,0,0,6.56.23,17.09,17.09,0,0,0,7.3-3.65,22,22,0,0,0,6.82-8.81,14.12,14.12,0,0,0,.9-9.36q-1.2-4.31-7.32-12l-15.57-19.55c-2.4-3-4.24-4.62-5.5-4.86a6.72,6.72,0,0,0-5.38,1.72Zm36.46-31.29,18.46,15.93L892.91,814q3.45-4,3.41-6.37c0-2.11-1.31-4.37-3.86-6.82l1.1-1.27,16.27,14-1.1,1.27a23.62,23.62,0,0,0-5.21-2.81,5.71,5.71,0,0,0-3.65.4,13.69,13.69,0,0,0-4.44,3.74l-8.86,10.27L902,839.76a19.47,19.47,0,0,0,4,3,2.94,2.94,0,0,0,1.9,0,7.93,7.93,0,0,0,2.65-2.29l6.84-7.93a27.83,27.83,0,0,0,4.41-6.23,11.21,11.21,0,0,0,.81-5.31,35.12,35.12,0,0,0-2.67-9.93l1.19-1.38,8.25,14.13-31.06,36-1.27-1.1,1.43-1.66a8.65,8.65,0,0,0,1.9-3.82,3.84,3.84,0,0,0-.35-2.93,21.93,21.93,0,0,0-4.18-4.28l-30.36-26.18c-3-2.56-5-3.83-6.25-3.83q-2.44,0-4.94,2.94l-1.43,1.66-1.28-1.11,31.06-36,10.68,8.31-1.17,1.35a21.16,21.16,0,0,0-6.44-2.76,7.26,7.26,0,0,0-4.35.78,20.74,20.74,0,0,0-4.71,4.41Zm66.33-26.82-3.15-15.22,8.87,18.9,7.78,5-1-31.69,13.91,28.66-3.7-30.66,14.55,17.85-6.55-31.07,13.69,14.15-4.67-27.79c10.62,13.75,13.45,9.35,14.1,2.59a2.74,2.74,0,0,1-2,1.18c-2.32.23-5-2.35-5.92-5.76-.83-3.07.07-5.8,2-6.41a52.58,52.58,0,0,0-9.24-7.69c-7.07-23.3-14.85-43.34-24.1-57,8.94,21.84,12.8,35.33,16.13,55.46l-9.4,13.61c-2.33-4.09-10.79-14.65-18.43-18.88,4.3,5.57,9.81,20.16,11,28.94l-10.5,7.49c-7.43,5.51-14.9,11-22.31,16.51l-7.5-19.68c.64,8-1,15.61-.38,23.6l-.38.36Zm-576-627.51V181.5H342.58a45,45,0,0,0-2.72-8.36,14.52,14.52,0,0,0-3.53-4.83,14.17,14.17,0,0,0-5.81-3,49.67,49.67,0,0,0-11.09-.88H306.15v20.22h3.24c3.8,0,6.48-.81,8-2.42s2.3-4.47,2.3-8.58V173h10.53v33.62H319.68c-.17-5.14-.92-8.49-2.3-10s-4-2.31-7.88-2.31h-3.36v22.95H321q8.65,0,11.91-.92a9.47,9.47,0,0,0,5.05-3.11,20,20,0,0,0,3.09-6.41,44.06,44.06,0,0,0,1.5-9.52h13.83v30.4H267.67V217.26h4.22c2.78,0,4.6-.29,5.47-.86s1.32-2.21,1.32-4.92V170.72c0-2.85-.42-4.63-1.23-5.29s-2.69-1-5.68-1h-4.09V154.05Zm14,46.54h12.12A26.35,26.35,0,0,0,392,213.91a28.08,28.08,0,0,0,16.38,4.79,17.19,17.19,0,0,0,9.11-2.12,6.34,6.34,0,0,0,3.43-5.54q0-5.3-14.87-8.89c-3.22-.75-5.74-1.37-7.58-1.89q-8.93-2.36-13.77-4a32.18,32.18,0,0,1-7-3.11,23.26,23.26,0,0,1-7.5-7.38,17.66,17.66,0,0,1-2.42-9.21q0-11.09,9.4-17.92T402,151.84a75.3,75.3,0,0,1,14.62,1.34,62.8,62.8,0,0,1,13.16,4.14l2.28-3.7h12.05v25.58H430c-1.38-5.23-4-9.11-7.83-11.68s-9-3.84-15.37-3.84a17.46,17.46,0,0,0-9.27,2.25c-2.42,1.5-3.63,3.35-3.63,5.53q0,4.94,14,7.47c2.28.44,4.05.77,5.33,1q19.46,3.93,27.3,9.74a18.67,18.67,0,0,1,7.83,15.83q0,11.14-9.63,17.77t-26,6.62a68.64,68.64,0,0,1-14.39-1.48,69.86,69.86,0,0,1-13.7-4.47L381.45,228H369.94Zm110.63-35q-6.89,0-10.57,4.1t-3.68,11.93v.31H453.9V154.05h88.49v27.87h-12.3v-.31q0-7.77-3.7-11.9c-2.47-2.76-6-4.14-10.67-4.14H512v45.35c0,2.84.44,4.59,1.3,5.29s2.76,1,5.74,1h7v10.45H470.77V217.26h6.56q4.23,0,5.58-.88c.9-.6,1.34-2.42,1.34-5.45V165.58Zm105.09,18.87H593c5.18,0,8.84-.73,10.92-2.18s3.15-3.86,3.15-7.25c0-3.72-1-6.33-2.9-7.83s-5.35-2.25-10.26-2.25h-8.25Zm-27.59,26.48V170.72c0-2.85-.42-4.61-1.23-5.27s-2.69-1-5.68-1h-4.22V154.05h57.88q15.35,0,22.92,4.56t7.56,13.78a13.54,13.54,0,0,1-4.66,10.45q-4.64,4.23-13.16,5.8,8.59.91,11.61,4.58t3,16.8c0,2.65.25,4.48.77,5.51a2.64,2.64,0,0,0,2.55,1.52,2.68,2.68,0,0,0,2.53-1.89,14.51,14.51,0,0,0,.84-5.67c0-.26,0-.66-.06-1.24s-.06-1-.06-1.28h8.5c0,.33,0,.81.06,1.48s.06,1.15.06,1.46q0,10.29-4.85,14.93t-15.6,4.65q-11.44,0-16.67-4.19T604.94,212v-6.15c0-4.94-.75-8.07-2.24-9.41s-4.57-2-9.27-2h-7.52v16.51c0,2.85.42,4.63,1.25,5.31s2.69,1,5.6,1h4.76v10.45H546.93V217.26h4.22c2.95,0,4.83-.35,5.66-1S558.07,213.78,558.07,210.93Zm179.75-56.88V181.5H724.47a45,45,0,0,0-2.72-8.36,14.52,14.52,0,0,0-3.53-4.83,14.17,14.17,0,0,0-5.81-3,49.66,49.66,0,0,0-11.09-.88H688v20.22h3.24c3.8,0,6.48-.81,8-2.42s2.3-4.47,2.3-8.58V173H712.1v33.62H701.57c-.17-5.14-.92-8.49-2.3-10s-4-2.31-7.88-2.31H688v22.95h14.87q8.65,0,11.91-.92a9.47,9.47,0,0,0,5.06-3.11,20,20,0,0,0,3.09-6.41,44.06,44.06,0,0,0,1.5-9.52H738.3v30.4H649.56V217.26h4.22c2.78,0,4.6-.29,5.47-.86s1.32-2.21,1.32-4.92V170.72c0-2.85-.42-4.63-1.23-5.29s-2.69-1-5.68-1h-4.09V154.05Zm60,0v10.39H793c-2.76,0-4.57.29-5.43.86s-1.3,2.2-1.3,4.89V217h5.64a57.94,57.94,0,0,0,11-.71,10.63,10.63,0,0,0,5.12-2.54,14.13,14.13,0,0,0,3.61-6.11A47,47,0,0,0,813.33,197h13v30.71H747.17V217.26h4.22c2.95,0,4.83-.35,5.66-1s1.25-2.43,1.25-5.31V170.72c0-2.85-.42-4.63-1.23-5.29s-2.69-1-5.68-1h-4.22V154.05Zm76.81,73.66V217.26h3.78c3.2,0,5.14-.15,5.85-.46a1.72,1.72,0,0,0,1.07-1.74,8.5,8.5,0,0,0-.15-1.65,12.53,12.53,0,0,0-.4-1.52l-3-7.89H859.1l-2.63,7a20.18,20.18,0,0,0-.9,2.53,6.25,6.25,0,0,0-.25,1.67c0,.64.5,1.13,1.53,1.5a14,14,0,0,0,4.34.53h4.16v10.45H827.76V217.26h3.11a8.2,8.2,0,0,0,5.37-1.78A14,14,0,0,0,840,209.7l22.1-55.65h30.41l19.7,55.43c1.36,3.64,2.57,5.86,3.68,6.62s2.88,1.15,5.33,1.15h4.41v10.45Zm3.18-34.26-7.64-22.31L863,193.45ZM554.92,293h4.8q6.63,0,9.52-4.72t2.88-15.82q0-11.11-2.88-15.86t-9.52-4.74h-4.8Zm4.8-49.5q18.33,0,27.21,7.13t8.87,21.82q0,14.72-8.9,21.87t-27.18,7.16H526.5v-8.23h3.07c2,0,3.34-.23,4-.68s1-1.74,1-3.88V256.61c0-2.25-.3-3.64-.9-4.16s-2-.78-4.13-.78h-3v-8.18Zm104.63,0V265.1h-9.7a37.46,37.46,0,0,0-2-6.58,11.4,11.4,0,0,0-2.57-3.8,10.05,10.05,0,0,0-4.22-2.35,33.42,33.42,0,0,0-8.06-.69h-9.66v15.92h2.35c2.76,0,4.71-.63,5.82-1.9s1.67-3.51,1.67-6.76v-.5h7.65v26.46H638c-.12-4-.67-6.68-1.67-7.89s-2.9-1.82-5.72-1.82h-2.44v18.06H639a34.79,34.79,0,0,0,8.66-.72,6.84,6.84,0,0,0,3.67-2.45,16.29,16.29,0,0,0,2.25-5,37.36,37.36,0,0,0,1.09-7.49H664.7v23.93H600.2v-8.23h3.07c2,0,3.34-.23,4-.68s1-1.74,1-3.88V256.61c0-2.25-.3-3.64-.9-4.16s-2-.78-4.13-.78h-3v-8.18ZM424.17,356.66l-6.92-22.31-6.49,22.31Zm82.4-39.4v10.39H505.3q-3.43,0-4.48,1c-.7.7-1.06,2.45-1.06,5.23v13.3h21.11v-13.3c0-2.78-.36-4.54-1.08-5.23s-2.23-1-4.52-1h-1.21V317.26h42.22v10.39H552.4c-2.67,0-4.37.33-5.13,1s-1.13,2.43-1.13,5.29v40.21c0,2.87.38,4.63,1.13,5.31s2.46,1,5.13,1h3.88v10.45H514.06V380.47h1.21c2.25,0,3.75-.37,4.48-1.08s1.12-2.45,1.12-5.25V357.63H499.76v16.51c0,2.8.36,4.54,1.08,5.25s2.21,1.08,4.46,1.08h1.27v10.45H421.3V380.47h3.42c2.89,0,4.65-.15,5.3-.46a1.74,1.74,0,0,0,1-1.74,9.33,9.33,0,0,0-.13-1.65,13.63,13.63,0,0,0-.36-1.52l-2.72-7.89h-20.5l-2.38,7a21.66,21.66,0,0,0-.81,2.53,6.85,6.85,0,0,0-.23,1.67c0,.64.45,1.13,1.38,1.5a11.58,11.58,0,0,0,3.93.53h3.76v10.45H338.67V380.47h2.82q3.83,0,5.05-.88c.81-.6,1.21-2.42,1.21-5.45V329.32l-19.5,61.6H310.39l-18.5-61.49v44.71c0,2.87.38,4.63,1.13,5.31s2.46,1,5.13,1H301v10.45H266.83V380.47h3.5c2.65,0,4.37-.35,5.13-1s1.13-2.43,1.13-5.31V333.93c0-2.85-.38-4.63-1.12-5.29s-2.46-1-5.14-1h-3.5V317.26h42.67l12.92,43.9,14-43.9h44v10.39h-3.76c-2.63,0-4.31.31-5.07.93s-1.13,2.42-1.13,5.34v40.21c0,3,.38,4.78,1.15,5.4s2.46.93,5.05.93h5a7,7,0,0,0,4.86-1.78,14.22,14.22,0,0,0,3.41-5.78l20-55.65h27.54l17.84,55.43c1.23,3.64,2.33,5.86,3.33,6.62a8,8,0,0,0,4.82,1.15h4.65q3.83,0,5.05-.88c.81-.6,1.21-2.42,1.21-5.45V333.93c0-2.89-.38-4.67-1.12-5.31s-2.44-1-5.14-1h-3.82V317.26Zm87.56,49.16c0,5.69.91,9.66,2.74,11.95s4.92,3.44,9.29,3.44q7.77,0,11.14-3.39t3.39-11.09v-33.4c0-2.89-.38-4.67-1.12-5.31s-2.42-1-5.09-1h-3.88V317.26h35.3v10.39h-3.5c-2.65,0-4.37.33-5.13,1s-1.13,2.32-1.13,5v35.56q0,11.78-8.81,17.93t-25.82,6.13q-15.46,0-23.95-6.06t-8.47-17.11V333.93c0-2.8-.4-4.54-1.17-5.23s-2.5-1-5.2-1h-3.88V317.26h45.89v10.39h-4.22c-2.72,0-4.48.35-5.24,1s-1.13,2.43-1.13,5.23Zm92.33-49.16,28.05,49.59V333.93c0-3-.4-4.76-1.19-5.36s-2.48-.92-5.07-.92h-4.33V317.26H737.4v10.39h-2.72c-2.65,0-4.37.33-5.13,1s-1.14,2.43-1.14,5.29v57h-26.1l-29.6-52.81v36c0,2.87.38,4.63,1.13,5.31s2.48,1,5.13,1h3.39v10.45H648.78V380.47h3.71q4.06,0,5.22-1c.78-.7,1.15-2.45,1.15-5.29V333.93c0-2.8-.38-4.54-1.13-5.23s-2.5-1-5.24-1h-3.71V317.26Zm100.29,44.85V351.72h42.13v10.39h-2.72c-2.61,0-4.31.31-5.09.92s-1.17,2.4-1.17,5.36v23.28H806l-2.5-4.5a51.67,51.67,0,0,1-11.29,4.65A43.61,43.61,0,0,1,781,393.33q-17.68,0-27.84-10.45T743,354.14q0-17.62,10.92-28.4T782.78,315A45.16,45.16,0,0,1,794,316.24a31.74,31.74,0,0,1,9.23,4l1.84-4.08h12.12v30.34h-13.3c-1.25-7.08-3.22-12.21-5.88-15.41a13.29,13.29,0,0,0-10.8-4.79q-7.75,0-11.24,6.52t-3.5,21.16q0,14.8,3.48,21.39a11.74,11.74,0,0,0,11.14,6.59q5,0,6.75-1.48c1.19-1,1.78-3.11,1.78-6.41v-5.64c0-2.78-.38-4.54-1.13-5.23s-2.5-1-5.24-1Zm49.65-8q0-18.28,11.75-28.7T880.63,315q20.6,0,32.33,10.39t11.73,28.7q0,18.28-11.75,28.64t-32.54,10.34q-20.54,0-32.27-10.39T836.41,354.14Zm44.23-27.89q-7.69,0-11.22,6.57t-3.52,21.1q0,14.8,3.48,21.41a11.74,11.74,0,0,0,11.14,6.59c5.16,0,8.93-2.18,11.26-6.55s3.48-11.4,3.48-21.12-1.15-16.91-3.48-21.36A11.73,11.73,0,0,0,880.63,326.25ZM653.68,840.5h8.55q-1,13.3-8.19,20.57t-19.49,7.26A36.61,36.61,0,0,1,621.3,866a29.76,29.76,0,0,1-10.58-7,34,34,0,0,1-7.79-11.77,38.43,38.43,0,0,1-2.65-14.35,37.94,37.94,0,0,1,2.57-14.16,34.57,34.57,0,0,1,7.77-11.64,31.75,31.75,0,0,1,23.06-9.51,30.11,30.11,0,0,1,10.08,1.67,33.84,33.84,0,0,1,9.3,5.17l2-6h7.19v27.33h-7.67q-1.17-9.57-6.15-14.82a16.88,16.88,0,0,0-12.83-5.24,16.7,16.7,0,0,0-14.4,7.33Q616,820.43,616,833.4q0,12.33,5.19,19.06t14.62,6.73a15.68,15.68,0,0,0,11.9-4.79Q652.22,849.63,653.68,840.5ZM530,866.34v-7.57h3.88c3,0,4.79-.35,5.5-1s1.06-2.4,1.06-5.12V813.31c0-2.72-.35-4.43-1.06-5.12s-2.55-1-5.5-1H530v-7.53H592v27.63h-7.67a50.1,50.1,0,0,0-.68-8.87,20.54,20.54,0,0,0-2.09-6.23,8.24,8.24,0,0,0-4.76-3.85q-3.31-1.17-9.95-1.16H554.45v20.49h1.71q6.24,0,8.21-2.15c1.29-1.44,2.09-4.76,2.42-9.93l7.57,0V849l-7.57,0q-.45-8.6-2.4-11.09t-8.14-2.5h-1.79V852.6c0,2.69.36,4.39,1.09,5.11s2.59,1.06,5.57,1.06h4.66v7.57ZM593.24,461.9C594.69,451.58,605,441,612,436c8.9-6.43,20.81-8.28,30.38-13.47a168.5,168.5,0,0,0-34.29,0c-25.09,2.83-58.66,20.84-61.94,44.1-5.72,40.62,22.57,38.06,48.7,53.63-.86,3.53-2,3.9-2.51,7.84-.94,6.68,1.21,10.18.51,16.35-14-1.71-19.87,3.88-25.52,12.1-3.12,4.55-.91,5.15-7.8,4.79-1.65-12.1-20.92-11.18-34.83-12.39-5.32-.47-16.72-.71-20.48.39-4.58,1.34-7.64,8.21-9.42,12.28-6.94-8.6-20.16-9.43-32.22-10.9-6.23-10.24-5.19-13.43-24.5-15.78.91-8-6.13-28.67-14.1-29.64-6.09-.74-10.2.07-15.53.44-7.61-5.58-3.42-10.81-17.3-8.15l-6.61.9c-14,1.18-23.46,6.7-34.22,13.29-6.37,3.9-15,4.08-16.09,11.69-.65,4.63,3,9,2.86,9.66-1.27,9-16.72,23-9.37,38.67l15-8.9c-.91,8,2.92,20.31,7.84,24.23.75-3,2.53-5.64,4.51-8.32,2.62-3.55,3.31-3.78,7.26-5.37-2.36,16.74-.62,8.34,1.41,20,6.84-2.74,11-8.43,19.59-9.25-1.4,10-1.74,13.76-.46,23.22,6.57-2.64,10.19-6.34,19.26-7-6.1,7.86-.86,19.06,3.37,26,4.61-.44,6.47-1.87,10-3.72,4-2.11,5-2,9.24-3.24-.14,3.6.64,10.27,1.88,13.4,1.58,4,3.73,7.31,7.66,8.7a15,15,0,0,1,12.51-9c2.89,7.06-.7,12.5,7.26,18.34,4.28-1.91,5-4.5,10.81-6.83,3.9,9.51,2.59,21.55,1.18,31.56-5.84-1.89-8.36-4.62-13-7.4-1.66,6.81-4.07,8.94-5.34,18-7.17-2.54-4.34-5.26-9.93-9.35-.92,6.5-4.17,10.78-5.18,16.82-5.16-3.78-6.12-7.59-9.77-10.5-3.24,7.4-6.84,8.64-8.27,18.78-3.51-2.58-6.25-5.84-7-10.16l-2.77-.34c-3.61,8.24-5.42,8.53-7,20.09-4.85-3.55-7.75-8.31-11-12.87l-1.08-1.4c-3.54,8.1-4.14,9.39-5.67,20.26a18.34,18.34,0,0,1-5.64-5.81l-3.81-7c-2.59,5.92-7.21,12.63-8.43,19.92-3.77-3-2.44-5.44-4.24-9.83-8.31,3.33-11.52,10.88-13.81,18.1-2.56,8.07-9.62,8.41-11.19,19.59-1.64,11.62,28,26.68,43.79,28.6,27,3.28,69.2-3.31,89.51-10.53a369.77,369.77,0,0,0,49.62-21.77c5.47-2.87,10.39-5.69,15.65-8.21,11.32-5.41,21.22-10.22,34.73-12.74,27.58-5.15,59.85-3.65,88.41-5.13,15.29-.79,32.4-8.44,38.26.27-9.46.91-17,12.47-18.59,22.17,8.72,1.06,20.54,4.21,29.2,2.39-2.52,10.31-8.68,13.21-2,24.19,9.68-.67,14.53-5,28.62-3.5-1.41,10-2.2,23.33,1.18,31.56,10-.69,28.49-8.37,35.89-12.81,21.23-12.75,41.15-5,66.14-30.37,7-7.07,4-5.88,13.45-10.58,26.34-13.09-1.54-42.31-1.34-58l-.21-25.71c1-6.25,8-14.73,9.81-22,3.14,2.3,5.91,4.73,8.87,6.9,3.27-3.86,5.72-7.69,3.32-13.56,8.37,1,12.26,3.74,17.33,6.76,1.79-10.66,4.48-7.23-1.41-20,7.33.89,8.17.94,14,.54-1.66-9.5-13.77-17-26.78-19.55,3.06-3.94,7.77-25.21,8.82-32.67,2.06-14.65,3.27-27.29-10-36.39-36.39-24.9-57.74-8.46-65.71-8.31-8.94.16-9-10.75-21.67-12.53l-1.29,9.15c-3.29-4.08-6.43-9.61-10.75-13-20.19-15.86-9.79,8.09-18.24,2.36-7.32-5-9-13.76-20.81-15.2-5.26-.64-2.92,9.33-3,11.27-10.38-3.67-10.42-17-27.26-16.12l-1.13,8c-8.11-5.95-16.67-16.91-28.64-16.29.44,3.25,1,6.24,1.48,9.49-10.55-3.41-19-11.63-30.51-13l-1,6.86c-3.44-2.05-7-4.07-10.6-5.81-3.29-1.59-8.94-3.08-11.78-5.06-4.61,2.06-2.13-1-3.41,4.24-5.37-1.9-6.57-5.45-13.18-6.26-2.65-.32-3.09,2.26-6,2.76C594.92,469.89,592.35,468.22,593.24,461.9Zm-19.93-8.24c.73-5.18,10.1-11.29,14.82-14.37,6.59-4.3-1.46-.28,8.94-4.89,3.52-1.56,5.48-3,10.36-3.36-3.91,3.4-1.91.56-5.58,3.23-2.76,2-1.91,2-4.29,4.61-6.47,7-10.21,9.87-12.59,22s-1.79,5.84-4.57,12.21l-5.69-4.74C570.46,464.49,572.2,461.47,573.31,453.66Zm68.94,50.22,3.74,2.84c-6-.73-9.73-2.32-15.51-3.75-28.6-7-42.1-4.93-66.62-18.34-6-3.29-4.16-2.34-9.35-8.68l-2-2.89c-.91-2.12-.89-3.28-.79-5.75,7.85,6.25-3,4.87,14.25,12.88C594.4,493.44,628.66,495.41,642.25,503.88Zm85.64,10.48c10.27,1.25,46.85,8.5,52.47,16.86-7.25-1-7.14-2.56-12.14-4.83a91.86,91.86,0,0,0-12.37-4.69c-10-2.9-16.45-4.78-28.12-6.2Zm-124.32,14a15.91,15.91,0,0,1,6.9-11c7.88-5.63,19.69-4.81,29.45-1.53,7.86,2.65,7.5,3.21,10.89,6.67-7-1.35-8.41-2.6-11.88-4-4.67-1.94-15.07-1.09-19-.11C609.9,520.83,606.28,529,605,537.81,602.71,534.14,603,532.34,603.57,528.32Zm62.43,46c7.11,2.17,29.19-3.28,37.82-5.47l2.87-.87c5.86-2,16.81-7.53,22.15-10.45,28-15.3,17-20.67,16.32-25.94,6.63,1.28,9.14,5.69,8.23,11.48-1.65,10.5-27.51,22.39-38.39,27.25l-8.3,2.93a114.63,114.63,0,0,1-15.47,3.13c-9.29,1.16-23.85,2.76-35.54,1.34C660.59,575.87,663.32,578.32,666,574.32Zm114.78-8.4c6.81-4.91,7.36-10.09,8.38-17.34s-4.64-5.24-3.6-14.4l4.71,3.27c11.89,10.24,7.07,23.09-3.1,31.39l-6.94,4.4c-10.4,6.55-32.38,13.15-44.05,11.95,2.6-1.41,11.87-3.22,16.6-4.56C768.72,576.15,770.13,573.6,780.78,565.92ZM666,574.32c-4.1-1.45-2.16-1-5.52-2.76-2.09-1.07-2.47-1.17-4.61-2.3l-4.23-2.57c-.92-.59.4-.18-2.54-1.61-9.2-4.49-9.48,2.54-21.65,3.38,10.17-9.65,13.76-14.88,28.7-6.68l4.44,2.41c3.7,1.79-2.09.55,5.16,1.95,15.58-18.41,4.92-5.73,16.41-16.62,5.86,3.22,11.32,5.66,17,9.05,1.24-5.08,6.8-11.77,11.94-14.84,5.53,1.79,8,4.08,13.34,5.11-1.65-4-1.1-4.84,1-8.05l1.13-1.49c3.31-4.72,1.71-4.56,7.22-6.77a26.55,26.55,0,0,1,4.58,5.44c1.88,3.61,1.45,1.67.72,6.84-3.23-2.37-7.87-14-11.29,10.26-5.95-1.92-9.12-4.47-16.11-5.45L702,563c-2.76,3.8-.53-.53-2.61,3.78l-18.23-10.36c-1,4.21-13.06,20.54-14.25,17.62C666.84,573.78,666.3,574.2,666,574.32Zm-323.31-51c5.54-5.26,6.31-3.46,12.42-6.41,3.9-1.88,3.41-3,6.27-5.12.3-.22,1.21-.8,1.52-1a37.12,37.12,0,0,1,21-5.32c4.23.15,4.4-1.15,9.69-1.82l4.54,5.47c-2.45,5.07-8.65,5.79-11.61,12.55,3.75-1.5,5.1-2.33,9.78-4a76.25,76.25,0,0,1,10.5-3.23c11.1-2.47,13.77-2.57,17.41,6.32,3.81,9.31,9.19,30.47,8.79,40.3,1.12-1.12,0,.54,1.65-2.18,3.78-6.23-1.49-19.42,10.65-14.13,12.42,5.41,15.18,30.31,16.6,40.77,4-3.7,3.34-8.61,3.52-14.74.14-5,2.12-9.68-1-12.89,33.88,4.12,25.4,31.35,35.26,39.2.83-5.88,1.32-9.82.35-14.81L496.44,570a118.58,118.58,0,0,1,17.42,4.62,16.3,16.3,0,0,1,9.33,8.69c9.25,18.38,1.43,19.91,7.29,24.57A194,194,0,0,0,532.16,586c4.88,1.58,9.8,3.68,11.64,7.23,4.07,7.89,6.65,13.45,12,21.61,8.65,13.24,17.45,6.59,30.59,5.68-2.11-3.32-1.48-3-5.25-1.89-4,1.16-9.19.67-12.57-1.42-5.7-3.53-12.56-10.63-11.56-17.72.8-5.68,12,2.29,14.44,3.38,9.62,4.37,19.91,8.63,28,14.59-.92-6.76,2.19-10.24,1.14-17.32-.68-4.6-1-7-2.8-10.81,5.21,1.84,5.7,5.65,8.55,9.19.9-6.4,1.58-9.11-2.95-12.73L601,584.17c-.22-.11-2.91-1.22-3-1.24-9.89-3.25-22.54-1.64-32.12-.29-10,1.41-16.22,4-24.91.9,1.22-5,2.5-3.53,6.27-7.76,2.29-2.57,3.67-4.73,5.67-7.08,24,2.93,32.16,1.36,56.37,9.19,1.72,12.66,6,17.47,3.94,31.9,4.37-1.95,1.94.5,4.2-4.71,1.72-4,1.92-8.72,2.53-13.09,16.15,2,36.83,4,46.94,14.1,4.79,4.77,7.59,10.63,10.11,16.54,1.63,3.84,1.54,1.75,1,6.67l2.76.34c2-14.24,9.82-23,17.12-31.66,12.67,2.44,18.86,13.71,29.87,17.6.78-5.51,3-9.45,5.59-13.76,2.87-4.86,5.84-6.89,7.8-11.38,12.73,1.79,16.49,12.63,25.88,15.95.72-5.13,2.24-9.14,4-14.17,1.82-5.26,4.35-8.22,5.42-12.62,9,2.9,13.61,8.09,21,10.7,4.58-5.9,7-24.7,15.25-28.4.57,4.2,3,8.51,2.54,11.95-1.58,11.2-5.62,18.76-14.43,26.65l-1.38,1.15c-.19.18-.48.43-.65.62-2.29,2.47-.4-.68-2,3.07,20-5.95,26.44-17.94,29.79-41.76,5.32,3.9,13.67,17.9,16.31,24.08,3.39,8,8.57,19,7,30-3.85,27.34-5.57,20.33-9.15,35l-2.76-.34c.16-4.14.28-1.62-.84-3.72-3.34-6.31,4,4-1-1.36l-3.77-2.35c-2.41-1.54-.49-.26-2.49-2-4.51-3.83-6.84-5.07-13.44-7.2l4.87,6.3c10.49,11.57,15.13,21.47,12.83,37.74-5.24-3.84-8.38-6.31-15.79-7.74,2.87,4.72,7.15,8.34,11.24,12.7,6,6.37,8.79,13,12.67,20.16,1.64,3,1.58,4.89,2.14,7.12,3.49,13.94,3.18,12.21-.19,26-3-4.71.91-6.05-4.24-9.83-1.18,4.81-.87,2-2.94,6.06-2.73,5.38-5.33,10.22-9.36,15-10.56,12.42-26,16.79-42.86,21.13-11,2.82-12.56,5-22.35,8.92-3.83-6.3-7.59-10.06-16.68-11.34,2.92,4.8,7.77,8.76,5.82,14.2-1.6,4.47-9.25,7.64-14.58,8,1.63-11.54,3.11-21.24.69-30.66-1.2-4.68-4.1-7.57-8.09-10.41-2-1.4-1.07-.74-2.75-1.41l-2.4-.8c-5-1.56,0-1.27-6.53-.93,3.16,5.19,6.9,8.71,7.74,14.91-7.7-.4-10.15,2.1-18.46,1.25,3.12-4,4.54-14.73,4.23-18.24a19.1,19.1,0,0,0-2.3-8c-1.81-3.89-1.27-4-5.88-5.66a32.85,32.85,0,0,1-2.83,10.13c-6-.62-7.7.23-15.37-.71,6.9-15.77,24.44-13.68,39.6-19.37,17.05-6.4,26-12.22,47.46-9.6-6.88-6.44-14.1-3.39-16.4-7.35-1.16-2-.54-.41-.44-2.84,6.89-.66,3.91-2.88,11-4,4.43-.69,10.39,0,13.62-1.17-9.9-3.2-12.55-4.73-22.76-2.06-9,2.37-10.41,5.92-17.57,8.79L738,699.41c-.1-.14-.37-.44-.48-.59l-1.88-2.66c-3-7.5,4.58-24.8,6.14-31.16-3.9,1.74-8.69,6.35-11.32,9.51a44.25,44.25,0,0,0-5.89,12.83c-1.52-1.21-1.43-1.36-2.5-2.27-13.92-11.83.62-33.18,3.58-45.31-4.47,1.33-5.27,1.89-8.32,5.55-11.06,13.29.86,6.71-11.77,11.78-3.29,1.32-4.11,3.11-8.34,4.81,0-.08-1-2.08-1.06-2.1s-.2-.49-.26-.63L693,654.24c-2.14-2.9-3.28-5.13-5.84-7.86l-15.26-14.32c-5.75-.7-2.3.51-6.82-.13-8.13-1.16-14.48-3.73-21.63,2.49,18.19,2.21,24.26,3.65,33.09,12.43,7.16,7.11,10.84,15.15,9.08,27.61-2.67-2-1.56-1.61-3.13-3.12-1.77-1.7-.49-1-2.21-1.69a37,37,0,0,0-10.25-1.5c-5.36.21-12.46,3.07-17.24,5.29-7.61,3.53-15.09,7.86-20.68,13.35-1.13,1.11-1.39,1.49-2.5,2.58-2.05,2-.61.88-2.68,2.39-.68-5-3.23-10.49-5.4-15.34s1.2-.91-3.08-4.31c-2.27,16.13-1.65,28.67-19.25,31.56L573,709.07c-10.39,2.17-9.34-.34-4.34-5.65l.47-.52.41-.51c3.54-4.51,8.22-8.91,13.86-11.28-7.76-1.49-1.43-1.75-7.76-.45-15.88,3.24-28.28,12.94-38.73,23l-18.34,18.5a78.37,78.37,0,0,1-15.8,10.69c-2.31,1.15-3.88,1.7-6,2.76-14.12,7-6.2,4.06-22.9,11l-14.38,5.63c-2.15.81-4,1.37-6.42,2.32a56.81,56.81,0,0,1-6.39,2.36l-14.76,3.9c-10.3,1.71-19.57,4.83-30.4,4.22-15.83-.9-31.05-2.78-45.84-8.65-4-1.58-3.62-1.34-6-3.53,39.09,4.76,53.25,2.9,81.31-4.85,21.67-6,44.28-12.44,62.34-23.91,11.45-7.28,15.65-10.21,24.63-19.64,7.45-7.84,13-14.66,21.08-22.14,9.76-9,43.1-23.47,57-11.16,7.94,7-1.25,11.79-7.74,15.31,4.25.22,11.51-.11,15.24-2.24,9.88-5.64,7.94-16,8.31-25.15l-4.15-.51c.8,5.91-.89,8-3.32,13.56-1.38-1.71-.57-.44-1.91-3-.19-.35-.95-2.1-1.1-2.43-7.82-17.64-23.56-29.26-45.11-36.1-5.1-1.62-11.58-3.46-16.14-4.47-4.4-1-12.25-.86-17.18-.71-16.12.5-12,4.05-24.4-6.27l-6.39-5.34-.78-.55c-18.81-13.66-23.82-17.28-50.47-24.38-17.17-4.57-8.51-5.44-19.89-20.78-12.61-17-24.2-33.11-44.87-44.59-4.06-2.25-2.51-1-7.06-2.83C359.14,526.67,353.76,522.58,342.69,523.34ZM575.55,557.5c1.87-4.27,2.19-5.52,6.81-7.17,9.08-3.23,24.55-1.3,33.93,7.47C588.14,554.37,599.13,550.48,575.55,557.5Zm-71.48-1.72c9.13-2.38,33.26-.59,42.25,2.47,3.41,1.16,3.91,1.33,6.14,3.42-20.88-2.54-39.27-8.27-41.39,4.27-4-1.28-4.06-1.66-9.52-2.32C502.19,559.1,502.64,559,504.07,555.78Zm-18.43,90.85c-5.72,1.7-8,1.71-9.59,8.14l-2.77-.34c-1.08-7.95-5.21-12.93-3.85-22.58l-2.77-.34c-1.39,2.88-9.22,8.71-12.67,10.09.78-6.84-1.38-10.14-.19-18.64-12.73.88-12.18,4.48-20.81,7.94.23-5.87-2.14-13-3-19-14.17-.74-15.94,5.74-23.41,6.46.82-5.8-.5-6.4.39-12.75.81-5.75,2-5,2.83-10.13-12.42-1.28-15.54.79-21.55,3.2.74-18.66-1.55-2.39,2.9-20.59-8.15-.84-13.92.54-19.26,4.33l-4.31,3.27c1-8.52-1.9-10.39,3.06-21.74-12.72.88-14.82,7.7-21.13,10.23,1.07-7.63-1.66-8.2.3-22.07-15.06,4.48-8.54,4.11-16.5,7.3,1.6-11.37,8.09-28.11,20.37-26.26,9.64,1.46,23.88,14.07,30,19.41,4.65,4,7.24,7.56,12.37,12,4.74,4.08,28.62,33.61,29.5,38.67,43.92,5.34,57.75,27.61,71.36,39.33,4.65,4,13.44.08,29.69,2.06-2.76,6.31-3.82,7.13-5,15.68-7.79-2.52-10.41-8.8-18.07-11.51-3.17,3-4.83,5.44-5.76,10.94C491.51,655.1,491.19,650.7,485.64,646.63Zm71.09-55.35c11.36.6,5.63-4,29.68-1,3,4.9,4.93,9.9,4.66,16.86a43.89,43.89,0,0,0-10.58-4.78c2.19-1.91,2.28-1.41,3.76-2.55a11.82,11.82,0,0,0,2.58-2.5c-5.92-1.14-3.4.85-4.77-3a4.23,4.23,0,0,1,0-2.15l0-1.2c-7.83,2.33-6.5,1.27-5.44,8.65C573.48,599.08,558.94,594.57,556.72,591.28Zm137.46,92.36c-1.37-4.06,2.25-6,3.32-13.56,6.91-.66,1.87-1.76,8.78-2.42-1.72,2.22-3.06,6.54-4.45,9.71C699.47,682.75,701.46,684,694.19,683.64ZM558,671.73c-4.5-11,4.5-3.24-6.78-21.77a9,9,0,0,1,3.45.94c.33.12.68.27,1,.4,12.14,4.79,17.4,8.93,26.62,17.56C565.89,666.87,569.21,668.41,558,671.73Zm136.14,11.91c-1.6,2.56.62,1.6-3.09,2C692.66,682.34,690,684,694.19,683.64Zm-10.8,10.79c3-3.13,4.35-3.71,6.36-8l3.64,2.94c-6.57,6.24-10.17,12.33-17.31,13ZM671.12,707.6c.56-3.18.78-2.06,3.25-3.1C672.87,707.62,674.42,706.21,671.12,707.6Zm-283.61-173C404.38,544.67,415,539,417.42,522c.45-3.22-.3-2.19-2.28-3.77-1.69,12-2.4,6.23-14.25,7.08C393.22,525.83,389.93,529.09,387.51,534.62ZM363,518.83c6.34.77,9.37,1.16,15.42-1.87,4.47-2.24,4.9-2.63,5.71-8.36-8.36,1.43,6-1.41-2.79.82-2.57.65-2.73,1.32-5.5-1.82C373.71,516.34,365.1,510.29,363,518.83ZM511.38,683.51c5.34,3.91,7.8,6.35,15.62,8.88-20.32,24-24.22,34.7-65,48.75-31.9,11-60.63,19.75-102.88,14.61-19.42-2.36-6.28-26.22-5.49-30.92,4.47,3.56.86,3,7.13,13.21,2.88,4.7,4.55,8.76,9,12,.93-6.57,2.48-8.59,3.32-13.56,8.57,3-1.25,5,17.42,16.08,1-7.37,2.84-10.14,4-18.14,8.27,2.93,5.41,8.8,19.61,10.53,1-7.23.65-10,5-15.68,6.85,5,7.06,8.12,19.61,10.53-.49-3.59-1.76-18.69,3.1-19.74,2.12-.46,4.94,4.22,6.88,6.13a21.38,21.38,0,0,0,9.45,5.5c-3.06-7.46.07-11.76,1.2-18.47,5.87,4.3,7.3,9,18.23,10.36.25-6.35-1.92-6.34-.67-15.21,6.95,2.46,2.75,5,13.18,6.26,5.91.72,3.92-2.72,3.32-6.09a56.43,56.43,0,0,1-.9-11.07c5.6,1.08,4.34,1.85,8.38,3,3.76,1.11,8.06,1.29,12,1.77C511.94,694.9,510,693,511.38,683.51Zm70.25-158C569,519.55,554.39,515.38,545,505.61c-10.68-11.1-11.79-25.93-9.73-40.48,4.25-30.18,43.77-50,71.23-53.13a174.54,174.54,0,0,1,36.56-.06l34,3.5L647,431.76a109.08,109.08,0,0,1-15.53,6.43c-4.56,1.63-9.74,3.45-13.69,6.31-4.76,3.44-12.35,11-14.18,17.35a24.27,24.27,0,0,1,8.56,3q.54-.15,1.1-.24l.22-.09,5.46-2.44,4.89,3.41a23.66,23.66,0,0,0,3.78,1.6c1.39.52,2.8,1,4.18,1.58l.32-2.24,10.3,1.25A44.77,44.77,0,0,1,655,471.3c1.1.48,2.2,1,3.29,1.58l-.15-1.09,11.47-.6a30.06,30.06,0,0,1,11.5,1.68,44.07,44.07,0,0,1,12.25,6.91l6-.31c7.7-.4,14.68,1.33,20.72,6.26.53.43,1,.87,1.5,1.32a13.18,13.18,0,0,1,9.87-2.67c8.12,1,13.76,4.35,19,10.1,8.27-6.63,18.3-.56,25.26,4.91q.55.43,1.06.87l5.93.83a28.18,28.18,0,0,1,15.91,7.63c1.13,1.06,3.16,3.52,4.48,4.68,2-.46,4.82-1.57,6.59-2.11a70.79,70.79,0,0,1,16-3.09c17.88-1.21,34.34,5.53,48.88,15.48,17.33,11.86,17.15,28,14.53,46.59a195.15,195.15,0,0,1-5.37,24.41c11,4.59,21.21,12.72,23.27,24.52l2,11.56-11.71.81-.56,0q0,.54-.09,1.09c-.36,3.13-1.69,6.27-2.23,9.5l-2.57,15.24-13.28-7.92-2.85-1.7a34.81,34.81,0,0,1-4.31,6.25l-6.37,7.53-6.78-5a31.15,31.15,0,0,0-3,5.93l.21,25.45c0,3.93,5.44,15,7.09,18.93,3.91,9.32,7.36,19.74,4.71,29.88-2.28,8.72-8.42,14.79-16.33,18.72a41.44,41.44,0,0,0-5.3,2.81,15.93,15.93,0,0,0-1.17,1.28c-1.35,1.52-2.72,3-4.15,4.45A81.14,81.14,0,0,1,813,782.87c-7.71,3.15-15.33,4.71-23.36,6.66-6.21,1.51-12,3.23-17.49,6.55-9.81,5.89-29.27,13.51-40.6,14.29l-7.62.53-2.9-7.07c-2.9-7.08-3.48-16.1-3.07-24.68-1.76.33-3.6.78-5.74,1.32a58.12,58.12,0,0,1-10.48,1.83l-6.42.44-3.34-5.5c-3.58-5.88-5.53-12.06-4-18.95L688,758c-5.16-.69-10.31-1.75-15.45-2.37l-11-1.34,1.84-10.92a43.06,43.06,0,0,1,3.87-11.78c-1.47.28-2.67.5-3.38.62a87,87,0,0,1-9.18,1c-28.54,1.48-59-.27-87,5-11.84,2.21-21.39,6.76-32.11,11.89-5.19,2.48-10.2,5.35-15.29,8a388,388,0,0,1-51,22.38c-24.94,8.86-68,14.27-94.33,11.06-17.33-2.11-56-19-53-40.57,1.17-8.3,4.11-12.55,9.58-18.43a7.82,7.82,0,0,0,2-2.88c3.46-10.91,8.65-20.18,20-24.71l5.95-2.39q.49-1,1-2.13l8.64-19.74,6.58,12,7-16.11,10.5,13.59c.5-1,1-2,1.45-3.06l3.15-7.21,13.48,1.64a24.61,24.61,0,0,0,1.41-2.71l5.51-12.6,8.93,7.11,2.2-15.57L442,667.11c.14-.46.27-.92.38-1.4l2.13-8.73a23,23,0,0,1-3.79-4.66l-1.06,2.43-9.27-3.28c-7.08-2.51-11.3-8-14-14.8a25.27,25.27,0,0,1-.8-2.4,25.81,25.81,0,0,1-9.49,2.61l-6.6.64L396,631.86a55.14,55.14,0,0,1-6.84-16c-.91.44-1.84.87-2.82,1.27l-12.59,5L372,608.75c-.37-2.74-.61-5.17-.73-7.48a35.46,35.46,0,0,1-4,1.91L355.16,608l-.7-4-10.9-8.68c-4.25-3.39-7.48-9.12-9.5-15.32l-11.39,6.75-5-10.53a31.66,31.66,0,0,1-1.88-21.77c.28-1.1.6-2.18,1-3.25a82.34,82.34,0,0,1,6.3-13.32c.48-.87,1.48-2.59,2.22-4.12a20.1,20.1,0,0,1-2-11.85A18.62,18.62,0,0,1,328,511.88c4.6-5.06,9.46-5.81,15.13-8.49a13.1,13.1,0,0,0,1.24-.66C356.93,495,367.92,490,382.69,488l6.61-.9c6.92-.94,14-1.21,19.54,3.88a29,29,0,0,1,3.14,3.83,59.88,59.88,0,0,1,12.85,0c10.36,1.26,16.52,12.19,19.81,21a65.08,65.08,0,0,1,2.85,9.94c6,1.23,11.8,3.35,16.12,7.89a36.11,36.11,0,0,1,5.05,7.21c7.67.93,15.5,2.11,22.36,5.27a19.47,19.47,0,0,1,9.8-6.92c5.91-1.72,18-1.33,24.37-.77,3.44.3,6.9.46,10.34.7,8.68.61,18.94,2,26,7.06,5.61-6.77,11.82-10.78,19.72-12.12a34.57,34.57,0,0,1,.24-7.43Q581.53,526,581.63,525.46ZM597,101.2c-127.27,0-216.53,7.27-338.22-33.9L166.16,189.12S246.29,294.23,214,417s-88.43,362,6.77,455.29C293,943,418,1009.93,508.46,1058c43.84,23.33,78.07,54.62,88.55,65.09,10.47-10.47,44.7-41.76,88.54-65.09C776,1009.93,901,943,973.2,872.32c95.21-93.26,39-332.49,6.77-455.29s47.87-227.91,47.87-227.91L935.22,67.3C813.53,108.47,724.27,101.2,597,101.2Z"/><path class="cls-2" d="M265.2,87.9,187.92,189.54c12.27,18.79,23.25,41.85,30.68,61.2C239.59,305.34,246,364.44,231,421.5c-28.16,107.21-87.58,350.45,2.07,438.27,40.54,39.71,92.68,74,141.15,103.34,46.55,28.15,94.45,53.88,142.46,79.43a419.23,419.23,0,0,1,80.29,56.4,419.24,419.24,0,0,1,80.29-56.4c48-25.54,95.9-51.28,142.46-79.43,48.47-29.3,100.61-63.62,141.15-103.34,89.65-87.82,30.24-331.06,2.07-438.27-15-57.06-8.57-116.16,12.43-170.77,7.43-19.34,18.41-42.4,30.68-61.19L928.8,87.9c-50.44,16-100.34,25.24-153.52,28.94-59.12,4.11-119,1.94-178.28,1.94s-119.16,2.17-178.28-1.94c-53.18-3.7-103.09-12.92-153.53-28.94m690.25,647.4-11.12,10.8c3.82,5.74,4.21,4.28,10.71,1.78C957.92,740.52,959.55,740.07,955.45,735.29Zm-191,150.76a16.67,16.67,0,0,0-9.1,11.39q-2.23,9.51,4.8,23.09Q767,933.81,776.46,938a16.13,16.13,0,0,0,14.62-.55,17.11,17.11,0,0,0,9.37-11.89q2.07-9.37-4.55-22.13-5.1-9.82-11.56-15A19.08,19.08,0,0,0,774.26,884,17.59,17.59,0,0,0,764.41,886.06ZM660.52,977a45.74,45.74,0,0,0,10.47-.62c5.41-1,9.31-2.92,11.72-5.86a11.63,11.63,0,0,0,2.64-9.78,13.41,13.41,0,0,0-3.14-6.46,13.1,13.1,0,0,0-7.19-4,27.5,27.5,0,0,0-11.08,0c-1.85.33-3.43.64-4.74.93a24,24,0,0,0-3.12.89Zm-5.18-29a34.16,34.16,0,0,0,3.88-.2c1.44-.15,3-.38,4.71-.68,4.36-.78,7.56-1.82,9.58-3.16a10.64,10.64,0,0,0,4.27-5.23,12.29,12.29,0,0,0,.61-6.67,11.81,11.81,0,0,0-6-8.31q-5-3-13.35-1.5a31,31,0,0,0-7.9,2.42Zm-145.49,4.65-4.2-26.71-16.38,21.64Zm-115-89.41a16.28,16.28,0,0,0-14.45-2.43q-9.45,2.79-17.78,15-8.54,12.48-7.8,22.84a16,16,0,0,0,7.32,12.52,17.9,17.9,0,0,0,15.68,2.5q8.5-2.4,16.75-14.45,8.93-13.06,8.18-23Q402.15,868.22,394.87,863.24Zm-157-127.84L249,746.2c-3.82,5.74-4.21,4.28-10.71,1.79C235.38,740.63,233.74,740.17,237.85,735.4Zm23.54,46.26,3.15-15.23-8.86,18.9-7.78,5,1-31.69L235,787.32l3.69-30.66-14.54,17.85,6.54-31.07L217,757.59l4.66-27.79c-10.62,13.76-13.44,9.35-14.1,2.59a2.74,2.74,0,0,0,2,1.18c2.32.22,5-2.35,5.92-5.76.83-3.07-.08-5.8-2-6.41a52.58,52.58,0,0,1,9.24-7.69c7.06-23.3,14.84-43.35,24.08-57-8.93,21.84-12.79,35.33-16.11,55.46l9.41,13.61c2.33-4.09,10.78-14.65,18.43-18.89-4.3,5.57-9.8,20.16-11,28.95l10.5,7.49c7.43,5.51,14.91,11,22.32,16.5l7.49-19.68c-.64,8,1,15.61.38,23.6l.38.36Zm29.44,72.69,21.12-53.08L282.1,829.72c-2.74,2.62-4.17,4.54-4.29,5.79-.15,1.69.62,3.42,2.29,5.17l1.5,1.57-1.21,1.16-14.81-15.53,1.21-1.16,1.5,1.57q2.7,2.83,5.56,2.38c1.16-.18,3-1.48,5.49-3.86L308.51,799a14.14,14.14,0,0,0,3.66-4.74,5.09,5.09,0,0,0,0-3.22,12.63,12.63,0,0,0-3.14-4.58l1.23-1.17,12.06,12.64-19.5,49.52,50.14-17.39L365,842.72l-1.23,1.17-1.48-1.55q-2.73-2.87-5.57-2.42c-1.17.19-3,1.47-5.51,3.86L322,871.6c-2.74,2.62-4.15,4.56-4.25,5.83q-.22,2.53,2.28,5.16l1.48,1.55-1.21,1.16-18.09-19,1.21-1.16,1.51,1.58q2.73,2.87,5.56,2.38c1.16-.18,3-1.48,5.49-3.86l29.84-28.46-54,18.61ZM397.45,861q9.92,6.79,12,19.28T403.9,904q-7.95,11.61-20.51,14.25a29.65,29.65,0,0,1-35.52-24q-2-12.37,6.08-24.24,8.3-12.13,21.8-14.14A29.55,29.55,0,0,1,397.45,861Zm75.72,42.71-60.8,36.17,23.06,10.41q5.31,2.4,9.19,1.35c2.6-.7,5.7-3.07,9.29-7.14l1.26.86-9.37,13.7L400,938.38l.69-1.53L460,901.8l-18-8.12q-4.48-2-6.93-2a7.61,7.61,0,0,0-4.35,1.44c-1.26.91-2.94,2.92-5,6l-1.57-.71,7.51-13.53Zm37.11,52.52-23.19-5.71L480.7,959a15.17,15.17,0,0,0-2.79,4.85,3.13,3.13,0,0,0,.71,2.72c.7.91,2.46,1.82,5.31,2.75l-.4,1.63-18.87-4.65.4-1.63c2.61.16,4.37,0,5.28-.54,1.85-1,4.22-3.5,7.11-7.38l33.23-44.1,1.54.38,8.58,55q1,6.64,2.65,8.92a9.68,9.68,0,0,0,5.23,3.43l-.4,1.63-23.65-5.82.4-1.63c2.41.47,4.13.46,5.14,0A3.13,3.13,0,0,0,512,972.3c.32-1.3.22-3.48-.27-6.58Zm68.06,29.67-21.85-52.79-1.57,41.21c-.14,3.79.17,6.16,1,7.14,1.07,1.32,2.83,2,5.25,2.11l2.17.08-.06,1.68-21.45-.82.06-1.68,2.17.08c2.61.1,4.48-.62,5.65-2.16.7-.94,1.11-3.14,1.25-6.59l1.53-40.29a14.14,14.14,0,0,0-.68-5.95,5.09,5.09,0,0,0-2.26-2.29,12.63,12.63,0,0,0-5.44-1.09l.06-1.69,17.46.66,20.53,49.1L606,925.2l17.46.66-.06,1.69-2.14-.08c-2.64-.1-4.53.62-5.68,2.15-.7,1-1.13,3.14-1.26,6.6l-1.53,40.29c-.14,3.79.2,6.16,1,7.14q1.6,2,5.24,2.11l2.14.08-.06,1.68-26.2-1,.06-1.68,2.19.08c2.64.1,4.52-.62,5.65-2.16.7-.94,1.11-3.14,1.25-6.59L605.59,935l-25.75,51Zm100.9-39.66q6.57.2,10.23,2.61a13.59,13.59,0,0,1,6.14,9.3,15.28,15.28,0,0,1-1.33,9.18,16.58,16.58,0,0,1-6.78,7.44q-4.66,2.8-14.9,4.63l-28.67,5.12-.29-1.65,2.28-.41q3.81-.68,5-3.41c.5-1.16.46-3.44-.15-6.85l-7-39.25q-1-5.64-2.57-6.88a6.69,6.69,0,0,0-5.55-1l-2.28.41-.3-1.67,26.24-4.68a52.45,52.45,0,0,1,12-1q7,.41,11.28,3.87a14.25,14.25,0,0,1,5.22,8.8,13.3,13.3,0,0,1-1.31,8.67A16.63,16.63,0,0,1,679.24,946.24ZM744,958.08l.54,1.59-25.06,8.45-.54-1.59,2.08-.7q3.62-1.22,4.54-3.89c.38-1.15,0-3.49-1.19-7l-12.73-37.78a20.57,20.57,0,0,0-2.53-5.67,4.15,4.15,0,0,0-2.39-1.26,8.62,8.62,0,0,0-4.32.31l-2.07.7-.54-1.6,25.06-8.45.54,1.6-2.12.71c-2.38.8-3.88,2.1-4.5,3.86-.41,1.17,0,3.5,1.15,7l12.73,37.78a20.59,20.59,0,0,0,2.53,5.67,4.12,4.12,0,0,0,2.44,1.24,8.37,8.37,0,0,0,4.28-.28Zm55-22q7.81,5,14.33,5.84a24.22,24.22,0,0,0,12.87-1.81l.67,1.3a49.89,49.89,0,0,1-13.08,3.93,57.92,57.92,0,0,1-15,.58A66.41,66.41,0,0,1,785,943.28a43.73,43.73,0,0,1-11.78-.19,30.6,30.6,0,0,1-12.65-5.67,35,35,0,0,1-9.74-12.09q-6.37-12.28-2.63-24.53a29.31,29.31,0,0,1,15.07-18.11q10.73-5.57,22.82-1.51t18.52,16.46a32.66,32.66,0,0,1,3.56,20.55A31.1,31.1,0,0,1,799,936Zm30.16-96.38-1.05-1.32,17.09-13.62,1.06,1.32-1.82,1.45a6.25,6.25,0,0,0-2.48,5.86c.09,1.14,1.19,3,3.33,5.73l15.59,19.57q5.79,7.27,7.54,12.4a18.1,18.1,0,0,1-.18,11.39q-1.95,6.23-9.2,12-7.91,6.3-14.18,6.81a18.92,18.92,0,0,1-11.67-2.74q-3.66-2.27-10.62-11l-15-18.86c-2.36-3-4.31-4.59-5.87-4.85s-3.24.32-5.06,1.77l-1.82,1.45-1.06-1.32,20.86-16.62,1.05,1.32-1.85,1.47c-2,1.59-2.93,3.35-2.78,5.29.08,1.32,1.21,3.34,3.36,6l16.76,21a59.8,59.8,0,0,0,5.64,6,17.73,17.73,0,0,0,6.38,4.17,12.93,12.93,0,0,0,6.56.23,17.09,17.09,0,0,0,7.3-3.65,22,22,0,0,0,6.82-8.81,14.12,14.12,0,0,0,.9-9.36q-1.2-4.31-7.32-12l-15.57-19.55c-2.4-3-4.24-4.62-5.5-4.86a6.72,6.72,0,0,0-5.38,1.72Zm36.46-31.29,18.46,15.93L892.91,814q3.45-4,3.41-6.37c0-2.11-1.31-4.37-3.86-6.82l1.1-1.27,16.27,14-1.1,1.27a23.62,23.62,0,0,0-5.21-2.81,5.71,5.71,0,0,0-3.65.4,13.69,13.69,0,0,0-4.44,3.74l-8.86,10.27L902,839.76a19.47,19.47,0,0,0,4,3,2.94,2.94,0,0,0,1.9,0,7.93,7.93,0,0,0,2.65-2.29l6.84-7.93a27.83,27.83,0,0,0,4.41-6.23,11.21,11.21,0,0,0,.81-5.31,35.12,35.12,0,0,0-2.67-9.93l1.19-1.38,8.25,14.13-31.06,36-1.27-1.1,1.43-1.66a8.65,8.65,0,0,0,1.9-3.82,3.84,3.84,0,0,0-.35-2.93,21.93,21.93,0,0,0-4.18-4.28l-30.36-26.18c-3-2.56-5-3.83-6.25-3.83q-2.44,0-4.94,2.94l-1.43,1.66-1.28-1.11,31.06-36,10.68,8.31-1.17,1.35a21.16,21.16,0,0,0-6.44-2.76,7.26,7.26,0,0,0-4.35.78,20.74,20.74,0,0,0-4.71,4.41Zm66.33-26.82-3.15-15.22,8.87,18.9,7.78,5-1-31.69,13.91,28.66-3.7-30.66,14.55,17.85-6.55-31.07,13.69,14.15-4.67-27.79c10.62,13.75,13.45,9.35,14.1,2.59a2.74,2.74,0,0,1-2,1.18c-2.32.23-5-2.35-5.92-5.76-.83-3.07.07-5.8,2-6.41a52.58,52.58,0,0,0-9.24-7.69c-7.07-23.3-14.85-43.34-24.1-57,8.94,21.84,12.8,35.33,16.13,55.46l-9.4,13.61c-2.33-4.09-10.79-14.65-18.43-18.88,4.3,5.57,9.81,20.16,11,28.94l-10.5,7.49c-7.43,5.51-14.9,11-22.31,16.51l-7.5-19.68c.64,8-1,15.61-.38,23.6l-.38.36Zm-576-627.51V181.5H342.58a45,45,0,0,0-2.72-8.36,14.52,14.52,0,0,0-3.53-4.83,14.17,14.17,0,0,0-5.81-3,49.67,49.67,0,0,0-11.09-.88H306.15v20.22h3.24c3.8,0,6.48-.81,8-2.42s2.3-4.47,2.3-8.58V173h10.53v33.62H319.68c-.17-5.14-.92-8.49-2.3-10s-4-2.31-7.88-2.31h-3.36v22.95H321q8.65,0,11.91-.92a9.47,9.47,0,0,0,5.05-3.11,20,20,0,0,0,3.09-6.41,44.06,44.06,0,0,0,1.5-9.52h13.83v30.4H267.67V217.26h4.22c2.78,0,4.6-.29,5.47-.86s1.32-2.21,1.32-4.92V170.72c0-2.85-.42-4.63-1.23-5.29s-2.69-1-5.68-1h-4.09V154.05Zm14,46.54h12.12A26.35,26.35,0,0,0,392,213.91a28.08,28.08,0,0,0,16.38,4.79,17.19,17.19,0,0,0,9.11-2.12,6.34,6.34,0,0,0,3.43-5.54q0-5.3-14.87-8.89c-3.22-.75-5.74-1.37-7.58-1.89q-8.93-2.36-13.77-4a32.18,32.18,0,0,1-7-3.11,23.26,23.26,0,0,1-7.5-7.38,17.66,17.66,0,0,1-2.42-9.21q0-11.09,9.4-17.92T402,151.84a75.3,75.3,0,0,1,14.62,1.34,62.8,62.8,0,0,1,13.16,4.14l2.28-3.7h12.05v25.58H430c-1.38-5.23-4-9.11-7.83-11.68s-9-3.84-15.37-3.84a17.46,17.46,0,0,0-9.27,2.25c-2.42,1.5-3.63,3.35-3.63,5.53q0,4.94,14,7.47c2.28.44,4.05.77,5.33,1q19.46,3.93,27.3,9.74a18.67,18.67,0,0,1,7.83,15.83q0,11.14-9.63,17.77t-26,6.62a68.64,68.64,0,0,1-14.39-1.48,69.86,69.86,0,0,1-13.7-4.47L381.45,228H369.94Zm110.63-35q-6.89,0-10.57,4.1t-3.68,11.93v.31H453.9V154.05h88.49v27.87h-12.3v-.31q0-7.77-3.7-11.9c-2.47-2.76-6-4.14-10.67-4.14H512v45.35c0,2.84.44,4.59,1.3,5.29s2.76,1,5.74,1h7v10.45H470.77V217.26h6.56q4.23,0,5.58-.88c.9-.6,1.34-2.42,1.34-5.45V165.58Zm105.09,18.87H593c5.18,0,8.84-.73,10.92-2.18s3.15-3.86,3.15-7.25c0-3.72-1-6.33-2.9-7.83s-5.35-2.25-10.26-2.25h-8.25Zm-27.59,26.48V170.72c0-2.85-.42-4.61-1.23-5.27s-2.69-1-5.68-1h-4.22V154.05h57.88q15.35,0,22.92,4.56t7.56,13.78a13.54,13.54,0,0,1-4.66,10.45q-4.64,4.23-13.16,5.8,8.59.91,11.61,4.58t3,16.8c0,2.65.25,4.48.77,5.51a2.64,2.64,0,0,0,2.55,1.52,2.68,2.68,0,0,0,2.53-1.89,14.51,14.51,0,0,0,.84-5.67c0-.26,0-.66-.06-1.24s-.06-1-.06-1.28h8.5c0,.33,0,.81.06,1.48s.06,1.15.06,1.46q0,10.29-4.85,14.93t-15.6,4.65q-11.44,0-16.67-4.19T604.94,212v-6.15c0-4.94-.75-8.07-2.24-9.41s-4.57-2-9.27-2h-7.52v16.51c0,2.85.42,4.63,1.25,5.31s2.69,1,5.6,1h4.76v10.45H546.93V217.26h4.22c2.95,0,4.83-.35,5.66-1S558.07,213.78,558.07,210.93Zm179.75-56.88V181.5H724.47a45,45,0,0,0-2.72-8.36,14.52,14.52,0,0,0-3.53-4.83,14.17,14.17,0,0,0-5.81-3,49.66,49.66,0,0,0-11.09-.88H688v20.22h3.24c3.8,0,6.48-.81,8-2.42s2.3-4.47,2.3-8.58V173H712.1v33.62H701.57c-.17-5.14-.92-8.49-2.3-10s-4-2.31-7.88-2.31H688v22.95h14.87q8.65,0,11.91-.92a9.47,9.47,0,0,0,5.06-3.11,20,20,0,0,0,3.09-6.41,44.06,44.06,0,0,0,1.5-9.52H738.3v30.4H649.56V217.26h4.22c2.78,0,4.6-.29,5.47-.86s1.32-2.21,1.32-4.92V170.72c0-2.85-.42-4.63-1.23-5.29s-2.69-1-5.68-1h-4.09V154.05Zm60,0v10.39H793c-2.76,0-4.57.29-5.43.86s-1.3,2.2-1.3,4.89V217h5.64a57.94,57.94,0,0,0,11-.71,10.63,10.63,0,0,0,5.12-2.54,14.13,14.13,0,0,0,3.61-6.11A47,47,0,0,0,813.33,197h13v30.71H747.17V217.26h4.22c2.95,0,4.83-.35,5.66-1s1.25-2.43,1.25-5.31V170.72c0-2.85-.42-4.63-1.23-5.29s-2.69-1-5.68-1h-4.22V154.05Zm76.81,73.66V217.26h3.78c3.2,0,5.14-.15,5.85-.46a1.72,1.72,0,0,0,1.07-1.74,8.5,8.5,0,0,0-.15-1.65,12.53,12.53,0,0,0-.4-1.52l-3-7.89H859.1l-2.63,7a20.18,20.18,0,0,0-.9,2.53,6.25,6.25,0,0,0-.25,1.67c0,.64.5,1.13,1.53,1.5a14,14,0,0,0,4.34.53h4.16v10.45H827.76V217.26h3.11a8.2,8.2,0,0,0,5.37-1.78A14,14,0,0,0,840,209.7l22.1-55.65h30.41l19.7,55.43c1.36,3.64,2.57,5.86,3.68,6.62s2.88,1.15,5.33,1.15h4.41v10.45Zm3.18-34.26-7.64-22.31L863,193.45ZM554.92,293h4.8q6.63,0,9.52-4.72t2.88-15.82q0-11.11-2.88-15.86t-9.52-4.74h-4.8Zm4.8-49.5q18.33,0,27.21,7.13t8.87,21.82q0,14.72-8.9,21.87t-27.18,7.16H526.5v-8.23h3.07c2,0,3.34-.23,4-.68s1-1.74,1-3.88V256.61c0-2.25-.3-3.64-.9-4.16s-2-.78-4.13-.78h-3v-8.18Zm104.63,0V265.1h-9.7a37.46,37.46,0,0,0-2-6.58,11.4,11.4,0,0,0-2.57-3.8,10.05,10.05,0,0,0-4.22-2.35,33.42,33.42,0,0,0-8.06-.69h-9.66v15.92h2.35c2.76,0,4.71-.63,5.82-1.9s1.67-3.51,1.67-6.76v-.5h7.65v26.46H638c-.12-4-.67-6.68-1.67-7.89s-2.9-1.82-5.72-1.82h-2.44v18.06H639a34.79,34.79,0,0,0,8.66-.72,6.84,6.84,0,0,0,3.67-2.45,16.29,16.29,0,0,0,2.25-5,37.36,37.36,0,0,0,1.09-7.49H664.7v23.93H600.2v-8.23h3.07c2,0,3.34-.23,4-.68s1-1.74,1-3.88V256.61c0-2.25-.3-3.64-.9-4.16s-2-.78-4.13-.78h-3v-8.18ZM424.17,356.66l-6.92-22.31-6.49,22.31Zm82.4-39.4v10.39H505.3q-3.43,0-4.48,1c-.7.7-1.06,2.45-1.06,5.23v13.3h21.11v-13.3c0-2.78-.36-4.54-1.08-5.23s-2.23-1-4.52-1h-1.21V317.26h42.22v10.39H552.4c-2.67,0-4.37.33-5.13,1s-1.13,2.43-1.13,5.29v40.21c0,2.87.38,4.63,1.13,5.31s2.46,1,5.13,1h3.88v10.45H514.06V380.47h1.21c2.25,0,3.75-.37,4.48-1.08s1.12-2.45,1.12-5.25V357.63H499.76v16.51c0,2.8.36,4.54,1.08,5.25s2.21,1.08,4.46,1.08h1.27v10.45H421.3V380.47h3.42c2.89,0,4.65-.15,5.3-.46a1.74,1.74,0,0,0,1-1.74,9.33,9.33,0,0,0-.13-1.65,13.63,13.63,0,0,0-.36-1.52l-2.72-7.89h-20.5l-2.38,7a21.66,21.66,0,0,0-.81,2.53,6.85,6.85,0,0,0-.23,1.67c0,.64.45,1.13,1.38,1.5a11.58,11.58,0,0,0,3.93.53h3.76v10.45H338.67V380.47h2.82q3.83,0,5.05-.88c.81-.6,1.21-2.42,1.21-5.45V329.32l-19.5,61.6H310.39l-18.5-61.49v44.71c0,2.87.38,4.63,1.13,5.31s2.46,1,5.13,1H301v10.45H266.83V380.47h3.5c2.65,0,4.37-.35,5.13-1s1.13-2.43,1.13-5.31V333.93c0-2.85-.38-4.63-1.12-5.29s-2.46-1-5.14-1h-3.5V317.26h42.67l12.92,43.9,14-43.9h44v10.39h-3.76c-2.63,0-4.31.31-5.07.93s-1.13,2.42-1.13,5.34v40.21c0,3,.38,4.78,1.15,5.4s2.46.93,5.05.93h5a7,7,0,0,0,4.86-1.78,14.22,14.22,0,0,0,3.41-5.78l20-55.65h27.54l17.84,55.43c1.23,3.64,2.33,5.86,3.33,6.62a8,8,0,0,0,4.82,1.15h4.65q3.83,0,5.05-.88c.81-.6,1.21-2.42,1.21-5.45V333.93c0-2.89-.38-4.67-1.12-5.31s-2.44-1-5.14-1h-3.82V317.26Zm87.56,49.16c0,5.69.91,9.66,2.74,11.95s4.92,3.44,9.29,3.44q7.77,0,11.14-3.39t3.39-11.09v-33.4c0-2.89-.38-4.67-1.12-5.31s-2.42-1-5.09-1h-3.88V317.26h35.3v10.39h-3.5c-2.65,0-4.37.33-5.13,1s-1.13,2.32-1.13,5v35.56q0,11.78-8.81,17.93t-25.82,6.13q-15.46,0-23.95-6.06t-8.47-17.11V333.93c0-2.8-.4-4.54-1.17-5.23s-2.5-1-5.2-1h-3.88V317.26h45.89v10.39h-4.22c-2.72,0-4.48.35-5.24,1s-1.13,2.43-1.13,5.23Zm92.33-49.16,28.05,49.59V333.93c0-3-.4-4.76-1.19-5.36s-2.48-.92-5.07-.92h-4.33V317.26H737.4v10.39h-2.72c-2.65,0-4.37.33-5.13,1s-1.14,2.43-1.14,5.29v57h-26.1l-29.6-52.81v36c0,2.87.38,4.63,1.13,5.31s2.48,1,5.13,1h3.39v10.45H648.78V380.47h3.71q4.06,0,5.22-1c.78-.7,1.15-2.45,1.15-5.29V333.93c0-2.8-.38-4.54-1.13-5.23s-2.5-1-5.24-1h-3.71V317.26Zm100.29,44.85V351.72h42.13v10.39h-2.72c-2.61,0-4.31.31-5.09.92s-1.17,2.4-1.17,5.36v23.28H806l-2.5-4.5a51.67,51.67,0,0,1-11.29,4.65A43.61,43.61,0,0,1,781,393.33q-17.68,0-27.84-10.45T743,354.14q0-17.62,10.92-28.4T782.78,315A45.16,45.16,0,0,1,794,316.24a31.74,31.74,0,0,1,9.23,4l1.84-4.08h12.12v30.34h-13.3c-1.25-7.08-3.22-12.21-5.88-15.41a13.29,13.29,0,0,0-10.8-4.79q-7.75,0-11.24,6.52t-3.5,21.16q0,14.8,3.48,21.39a11.74,11.74,0,0,0,11.14,6.59q5,0,6.75-1.48c1.19-1,1.78-3.11,1.78-6.41v-5.64c0-2.78-.38-4.54-1.13-5.23s-2.5-1-5.24-1Zm49.65-8q0-18.28,11.75-28.7T880.63,315q20.6,0,32.33,10.39t11.73,28.7q0,18.28-11.75,28.64t-32.54,10.34q-20.54,0-32.27-10.39T836.41,354.14Zm44.23-27.89q-7.69,0-11.22,6.57t-3.52,21.1q0,14.8,3.48,21.41a11.74,11.74,0,0,0,11.14,6.59c5.16,0,8.93-2.18,11.26-6.55s3.48-11.4,3.48-21.12-1.15-16.91-3.48-21.36A11.73,11.73,0,0,0,880.63,326.25ZM653.68,840.5h8.55q-1,13.3-8.19,20.57t-19.49,7.26A36.61,36.61,0,0,1,621.3,866a29.76,29.76,0,0,1-10.58-7,34,34,0,0,1-7.79-11.77,38.43,38.43,0,0,1-2.65-14.35,37.94,37.94,0,0,1,2.57-14.16,34.57,34.57,0,0,1,7.77-11.64,31.75,31.75,0,0,1,23.06-9.51,30.11,30.11,0,0,1,10.08,1.67,33.84,33.84,0,0,1,9.3,5.17l2-6h7.19v27.33h-7.67q-1.17-9.57-6.15-14.82a16.88,16.88,0,0,0-12.83-5.24,16.7,16.7,0,0,0-14.4,7.33Q616,820.43,616,833.4q0,12.33,5.19,19.06t14.62,6.73a15.68,15.68,0,0,0,11.9-4.79Q652.22,849.63,653.68,840.5ZM530,866.34v-7.57h3.88c3,0,4.79-.35,5.5-1s1.06-2.4,1.06-5.12V813.31c0-2.72-.35-4.43-1.06-5.12s-2.55-1-5.5-1H530v-7.53H592v27.63h-7.67a50.1,50.1,0,0,0-.68-8.87,20.54,20.54,0,0,0-2.09-6.23,8.24,8.24,0,0,0-4.76-3.85q-3.31-1.17-9.95-1.16H554.45v20.49h1.71q6.24,0,8.21-2.15c1.29-1.44,2.09-4.76,2.42-9.93l7.57,0V849l-7.57,0q-.45-8.6-2.4-11.09t-8.14-2.5h-1.79V852.6c0,2.69.36,4.39,1.09,5.11s2.59,1.06,5.57,1.06h4.66v7.57ZM593.24,461.9C594.69,451.58,605,441,612,436c8.9-6.43,20.81-8.28,30.38-13.47a168.5,168.5,0,0,0-34.29,0c-25.09,2.83-58.66,20.84-61.94,44.1-5.72,40.62,22.57,38.06,48.7,53.63-.86,3.53-2,3.9-2.51,7.84-.94,6.68,1.21,10.18.51,16.35-14-1.71-19.87,3.88-25.52,12.1-3.12,4.55-.91,5.15-7.8,4.79-1.65-12.1-20.92-11.18-34.83-12.39-5.32-.47-16.72-.71-20.48.39-4.58,1.34-7.64,8.21-9.42,12.28-6.94-8.6-20.16-9.43-32.22-10.9-6.23-10.24-5.19-13.43-24.5-15.78.91-8-6.13-28.67-14.1-29.64-6.09-.74-10.2.07-15.53.44-7.61-5.58-3.42-10.81-17.3-8.15l-6.61.9c-14,1.18-23.46,6.7-34.22,13.29-6.37,3.9-15,4.08-16.09,11.69-.65,4.63,3,9,2.86,9.66-1.27,9-16.72,23-9.37,38.67l15-8.9c-.91,8,2.92,20.31,7.84,24.23.75-3,2.53-5.64,4.51-8.32,2.62-3.55,3.31-3.78,7.26-5.37-2.36,16.74-.62,8.34,1.41,20,6.84-2.74,11-8.43,19.59-9.25-1.4,10-1.74,13.76-.46,23.22,6.57-2.64,10.19-6.34,19.26-7-6.1,7.86-.86,19.06,3.37,26,4.61-.44,6.47-1.87,10-3.72,4-2.11,5-2,9.24-3.24-.14,3.6.64,10.27,1.88,13.4,1.58,4,3.73,7.31,7.66,8.7a15,15,0,0,1,12.51-9c2.89,7.06-.7,12.5,7.26,18.34,4.28-1.91,5-4.5,10.81-6.83,3.9,9.51,2.59,21.55,1.18,31.56-5.84-1.89-8.36-4.62-13-7.4-1.66,6.81-4.07,8.94-5.34,18-7.17-2.54-4.34-5.26-9.93-9.35-.92,6.5-4.17,10.78-5.18,16.82-5.16-3.78-6.12-7.59-9.77-10.5-3.24,7.4-6.84,8.64-8.27,18.78-3.51-2.58-6.25-5.84-7-10.16l-2.77-.34c-3.61,8.24-5.42,8.53-7,20.09-4.85-3.55-7.75-8.31-11-12.87l-1.08-1.4c-3.54,8.1-4.14,9.39-5.67,20.26a18.34,18.34,0,0,1-5.64-5.81l-3.81-7c-2.59,5.92-7.21,12.63-8.43,19.92-3.77-3-2.44-5.44-4.24-9.83-8.31,3.33-11.52,10.88-13.81,18.1-2.56,8.07-9.62,8.41-11.19,19.59-1.64,11.62,28,26.68,43.79,28.6,27,3.28,69.2-3.31,89.51-10.53a369.77,369.77,0,0,0,49.62-21.77c5.47-2.87,10.39-5.69,15.65-8.21,11.32-5.41,21.22-10.22,34.73-12.74,27.58-5.15,59.85-3.65,88.41-5.13,15.29-.79,32.4-8.44,38.26.27-9.46.91-17,12.47-18.59,22.17,8.72,1.06,20.54,4.21,29.2,2.39-2.52,10.31-8.68,13.21-2,24.19,9.68-.67,14.53-5,28.62-3.5-1.41,10-2.2,23.33,1.18,31.56,10-.69,28.49-8.37,35.89-12.81,21.23-12.75,41.15-5,66.14-30.37,7-7.07,4-5.88,13.45-10.58,26.34-13.09-1.54-42.31-1.34-58l-.21-25.71c1-6.25,8-14.73,9.81-22,3.14,2.3,5.91,4.73,8.87,6.9,3.27-3.86,5.72-7.69,3.32-13.56,8.37,1,12.26,3.74,17.33,6.76,1.79-10.66,4.48-7.23-1.41-20,7.33.89,8.17.94,14,.54-1.66-9.5-13.77-17-26.78-19.55,3.06-3.94,7.77-25.21,8.82-32.67,2.06-14.65,3.27-27.29-10-36.39-36.39-24.9-57.74-8.46-65.71-8.31-8.94.16-9-10.75-21.67-12.53l-1.29,9.15c-3.29-4.08-6.43-9.61-10.75-13-20.19-15.86-9.79,8.09-18.24,2.36-7.32-5-9-13.76-20.81-15.2-5.26-.64-2.92,9.33-3,11.27-10.38-3.67-10.42-17-27.26-16.12l-1.13,8c-8.11-5.95-16.67-16.91-28.64-16.29.44,3.25,1,6.24,1.48,9.49-10.55-3.41-19-11.63-30.51-13l-1,6.86c-3.44-2.05-7-4.07-10.6-5.81-3.29-1.59-8.94-3.08-11.78-5.06-4.61,2.06-2.13-1-3.41,4.24-5.37-1.9-6.57-5.45-13.18-6.26-2.65-.32-3.09,2.26-6,2.76C594.92,469.89,592.35,468.22,593.24,461.9Zm-19.93-8.24c.73-5.18,10.1-11.29,14.82-14.37,6.59-4.3-1.46-.28,8.94-4.89,3.52-1.56,5.48-3,10.36-3.36-3.91,3.4-1.91.56-5.58,3.23-2.76,2-1.91,2-4.29,4.61-6.47,7-10.21,9.87-12.59,22s-1.79,5.84-4.57,12.21l-5.69-4.74C570.46,464.49,572.2,461.47,573.31,453.66Zm68.94,50.22,3.74,2.84c-6-.73-9.73-2.32-15.51-3.75-28.6-7-42.1-4.93-66.62-18.34-6-3.29-4.16-2.34-9.35-8.68l-2-2.89c-.91-2.12-.89-3.28-.79-5.75,7.85,6.25-3,4.87,14.25,12.88C594.4,493.44,628.66,495.41,642.25,503.88Zm85.64,10.48c10.27,1.25,46.85,8.5,52.47,16.86-7.25-1-7.14-2.56-12.14-4.83a91.86,91.86,0,0,0-12.37-4.69c-10-2.9-16.45-4.78-28.12-6.2Zm-124.32,14a15.91,15.91,0,0,1,6.9-11c7.88-5.63,19.69-4.81,29.45-1.53,7.86,2.65,7.5,3.21,10.89,6.67-7-1.35-8.41-2.6-11.88-4-4.67-1.94-15.07-1.09-19-.11C609.9,520.83,606.28,529,605,537.81,602.71,534.14,603,532.34,603.57,528.32Zm62.43,46c7.11,2.17,29.19-3.28,37.82-5.47l2.87-.87c5.86-2,16.81-7.53,22.15-10.45,28-15.3,17-20.67,16.32-25.94,6.63,1.28,9.14,5.69,8.23,11.48-1.65,10.5-27.51,22.39-38.39,27.25l-8.3,2.93a114.63,114.63,0,0,1-15.47,3.13c-9.29,1.16-23.85,2.76-35.54,1.34C660.59,575.87,663.32,578.32,666,574.32Zm114.78-8.4c6.81-4.91,7.36-10.09,8.38-17.34s-4.64-5.24-3.6-14.4l4.71,3.27c11.89,10.24,7.07,23.09-3.1,31.39l-6.94,4.4c-10.4,6.55-32.38,13.15-44.05,11.95,2.6-1.41,11.87-3.22,16.6-4.56C768.72,576.15,770.13,573.6,780.78,565.92ZM666,574.32c-4.1-1.45-2.16-1-5.52-2.76-2.09-1.07-2.47-1.17-4.61-2.3l-4.23-2.57c-.92-.59.4-.18-2.54-1.61-9.2-4.49-9.48,2.54-21.65,3.38,10.17-9.65,13.76-14.88,28.7-6.68l4.44,2.41c3.7,1.79-2.09.55,5.16,1.95,15.58-18.41,4.92-5.73,16.41-16.62,5.86,3.22,11.32,5.66,17,9.05,1.24-5.08,6.8-11.77,11.94-14.84,5.53,1.79,8,4.08,13.34,5.11-1.65-4-1.1-4.84,1-8.05l1.13-1.49c3.31-4.72,1.71-4.56,7.22-6.77a26.55,26.55,0,0,1,4.58,5.44c1.88,3.61,1.45,1.67.72,6.84-3.23-2.37-7.87-14-11.29,10.26-5.95-1.92-9.12-4.47-16.11-5.45L702,563c-2.76,3.8-.53-.53-2.61,3.78l-18.23-10.36c-1,4.21-13.06,20.54-14.25,17.62C666.84,573.78,666.3,574.2,666,574.32Zm-323.31-51c5.54-5.26,6.31-3.46,12.42-6.41,3.9-1.88,3.41-3,6.27-5.12.3-.22,1.21-.8,1.52-1a37.12,37.12,0,0,1,21-5.32c4.23.15,4.4-1.15,9.69-1.82l4.54,5.47c-2.45,5.07-8.65,5.79-11.61,12.55,3.75-1.5,5.1-2.33,9.78-4a76.25,76.25,0,0,1,10.5-3.23c11.1-2.47,13.77-2.57,17.41,6.32,3.81,9.31,9.19,30.47,8.79,40.3,1.12-1.12,0,.54,1.65-2.18,3.78-6.23-1.49-19.42,10.65-14.13,12.42,5.41,15.18,30.31,16.6,40.77,4-3.7,3.34-8.61,3.52-14.74.14-5,2.12-9.68-1-12.89,33.88,4.12,25.4,31.35,35.26,39.2.83-5.88,1.32-9.82.35-14.81L496.44,570a118.58,118.58,0,0,1,17.42,4.62,16.3,16.3,0,0,1,9.33,8.69c9.25,18.38,1.43,19.91,7.29,24.57A194,194,0,0,0,532.16,586c4.88,1.58,9.8,3.68,11.64,7.23,4.07,7.89,6.65,13.45,12,21.61,8.65,13.24,17.45,6.59,30.59,5.68-2.11-3.32-1.48-3-5.25-1.89-4,1.16-9.19.67-12.57-1.42-5.7-3.53-12.56-10.63-11.56-17.72.8-5.68,12,2.29,14.44,3.38,9.62,4.37,19.91,8.63,28,14.59-.92-6.76,2.19-10.24,1.14-17.32-.68-4.6-1-7-2.8-10.81,5.21,1.84,5.7,5.65,8.55,9.19.9-6.4,1.58-9.11-2.95-12.73L601,584.17c-.22-.11-2.91-1.22-3-1.24-9.89-3.25-22.54-1.64-32.12-.29-10,1.41-16.22,4-24.91.9,1.22-5,2.5-3.53,6.27-7.76,2.29-2.57,3.67-4.73,5.67-7.08,24,2.93,32.16,1.36,56.37,9.19,1.72,12.66,6,17.47,3.94,31.9,4.37-1.95,1.94.5,4.2-4.71,1.72-4,1.92-8.72,2.53-13.09,16.15,2,36.83,4,46.94,14.1,4.79,4.77,7.59,10.63,10.11,16.54,1.63,3.84,1.54,1.75,1,6.67l2.76.34c2-14.24,9.82-23,17.12-31.66,12.67,2.44,18.86,13.71,29.87,17.6.78-5.51,3-9.45,5.59-13.76,2.87-4.86,5.84-6.89,7.8-11.38,12.73,1.79,16.49,12.63,25.88,15.95.72-5.13,2.24-9.14,4-14.17,1.82-5.26,4.35-8.22,5.42-12.62,9,2.9,13.61,8.09,21,10.7,4.58-5.9,7-24.7,15.25-28.4.57,4.2,3,8.51,2.54,11.95-1.58,11.2-5.62,18.76-14.43,26.65l-1.38,1.15c-.19.18-.48.43-.65.62-2.29,2.47-.4-.68-2,3.07,20-5.95,26.44-17.94,29.79-41.76,5.32,3.9,13.67,17.9,16.31,24.08,3.39,8,8.57,19,7,30-3.85,27.34-5.57,20.33-9.15,35l-2.76-.34c.16-4.14.28-1.62-.84-3.72-3.34-6.31,4,4-1-1.36l-3.77-2.35c-2.41-1.54-.49-.26-2.49-2-4.51-3.83-6.84-5.07-13.44-7.2l4.87,6.3c10.49,11.57,15.13,21.47,12.83,37.74-5.24-3.84-8.38-6.31-15.79-7.74,2.87,4.72,7.15,8.34,11.24,12.7,6,6.37,8.79,13,12.67,20.16,1.64,3,1.58,4.89,2.14,7.12,3.49,13.94,3.18,12.21-.19,26-3-4.71.91-6.05-4.24-9.83-1.18,4.81-.87,2-2.94,6.06-2.73,5.38-5.33,10.22-9.36,15-10.56,12.42-26,16.79-42.86,21.13-11,2.82-12.56,5-22.35,8.92-3.83-6.3-7.59-10.06-16.68-11.34,2.92,4.8,7.77,8.76,5.82,14.2-1.6,4.47-9.25,7.64-14.58,8,1.63-11.54,3.11-21.24.69-30.66-1.2-4.68-4.1-7.57-8.09-10.41-2-1.4-1.07-.74-2.75-1.41l-2.4-.8c-5-1.56,0-1.27-6.53-.93,3.16,5.19,6.9,8.71,7.74,14.91-7.7-.4-10.15,2.1-18.46,1.25,3.12-4,4.54-14.73,4.23-18.24a19.1,19.1,0,0,0-2.3-8c-1.81-3.89-1.27-4-5.88-5.66a32.85,32.85,0,0,1-2.83,10.13c-6-.62-7.7.23-15.37-.71,6.9-15.77,24.44-13.68,39.6-19.37,17.05-6.4,26-12.22,47.46-9.6-6.88-6.44-14.1-3.39-16.4-7.35-1.16-2-.54-.41-.44-2.84,6.89-.66,3.91-2.88,11-4,4.43-.69,10.39,0,13.62-1.17-9.9-3.2-12.55-4.73-22.76-2.06-9,2.37-10.41,5.92-17.57,8.79L738,699.41c-.1-.14-.37-.44-.48-.59l-1.88-2.66c-3-7.5,4.58-24.8,6.14-31.16-3.9,1.74-8.69,6.35-11.32,9.51a44.25,44.25,0,0,0-5.89,12.83c-1.52-1.21-1.43-1.36-2.5-2.27-13.92-11.83.62-33.18,3.58-45.31-4.47,1.33-5.27,1.89-8.32,5.55-11.06,13.29.86,6.71-11.77,11.78-3.29,1.32-4.11,3.11-8.34,4.81,0-.08-1-2.08-1.06-2.1s-.2-.49-.26-.63L693,654.24c-2.14-2.9-3.28-5.13-5.84-7.86l-15.26-14.32c-5.75-.7-2.3.51-6.82-.13-8.13-1.16-14.48-3.73-21.63,2.49,18.19,2.21,24.26,3.65,33.09,12.43,7.16,7.11,10.84,15.15,9.08,27.61-2.67-2-1.56-1.61-3.13-3.12-1.77-1.7-.49-1-2.21-1.69a37,37,0,0,0-10.25-1.5c-5.36.21-12.46,3.07-17.24,5.29-7.61,3.53-15.09,7.86-20.68,13.35-1.13,1.11-1.39,1.49-2.5,2.58-2.05,2-.61.88-2.68,2.39-.68-5-3.23-10.49-5.4-15.34s1.2-.91-3.08-4.31c-2.27,16.13-1.65,28.67-19.25,31.56L573,709.07c-10.39,2.17-9.34-.34-4.34-5.65l.47-.52.41-.51c3.54-4.51,8.22-8.91,13.86-11.28-7.76-1.49-1.43-1.75-7.76-.45-15.88,3.24-28.28,12.94-38.73,23l-18.34,18.5a78.37,78.37,0,0,1-15.8,10.69c-2.31,1.15-3.88,1.7-6,2.76-14.12,7-6.2,4.06-22.9,11l-14.38,5.63c-2.15.81-4,1.37-6.42,2.32a56.81,56.81,0,0,1-6.39,2.36l-14.76,3.9c-10.3,1.71-19.57,4.83-30.4,4.22-15.83-.9-31.05-2.78-45.84-8.65-4-1.58-3.62-1.34-6-3.53,39.09,4.76,53.25,2.9,81.31-4.85,21.67-6,44.28-12.44,62.34-23.91,11.45-7.28,15.65-10.21,24.63-19.64,7.45-7.84,13-14.66,21.08-22.14,9.76-9,43.1-23.47,57-11.16,7.94,7-1.25,11.79-7.74,15.31,4.25.22,11.51-.11,15.24-2.24,9.88-5.64,7.94-16,8.31-25.15l-4.15-.51c.8,5.91-.89,8-3.32,13.56-1.38-1.71-.57-.44-1.91-3-.19-.35-.95-2.1-1.1-2.43-7.82-17.64-23.56-29.26-45.11-36.1-5.1-1.62-11.58-3.46-16.14-4.47-4.4-1-12.25-.86-17.18-.71-16.12.5-12,4.05-24.4-6.27l-6.39-5.34-.78-.55c-18.81-13.66-23.82-17.28-50.47-24.38-17.17-4.57-8.51-5.44-19.89-20.78-12.61-17-24.2-33.11-44.87-44.59-4.06-2.25-2.51-1-7.06-2.83C359.14,526.67,353.76,522.58,342.69,523.34ZM575.55,557.5c1.87-4.27,2.19-5.52,6.81-7.17,9.08-3.23,24.55-1.3,33.93,7.47C588.14,554.37,599.13,550.48,575.55,557.5Zm-71.48-1.72c9.13-2.38,33.26-.59,42.25,2.47,3.41,1.16,3.91,1.33,6.14,3.42-20.88-2.54-39.27-8.27-41.39,4.27-4-1.28-4.06-1.66-9.52-2.32C502.19,559.1,502.64,559,504.07,555.78Zm-18.43,90.85c-5.72,1.7-8,1.71-9.59,8.14l-2.77-.34c-1.08-7.95-5.21-12.93-3.85-22.58l-2.77-.34c-1.39,2.88-9.22,8.71-12.67,10.09.78-6.84-1.38-10.14-.19-18.64-12.73.88-12.18,4.48-20.81,7.94.23-5.87-2.14-13-3-19-14.17-.74-15.94,5.74-23.41,6.46.82-5.8-.5-6.4.39-12.75.81-5.75,2-5,2.83-10.13-12.42-1.28-15.54.79-21.55,3.2.74-18.66-1.55-2.39,2.9-20.59-8.15-.84-13.92.54-19.26,4.33l-4.31,3.27c1-8.52-1.9-10.39,3.06-21.74-12.72.88-14.82,7.7-21.13,10.23,1.07-7.63-1.66-8.2.3-22.07-15.06,4.48-8.54,4.11-16.5,7.3,1.6-11.37,8.09-28.11,20.37-26.26,9.64,1.46,23.88,14.07,30,19.41,4.65,4,7.24,7.56,12.37,12,4.74,4.08,28.62,33.61,29.5,38.67,43.92,5.34,57.75,27.61,71.36,39.33,4.65,4,13.44.08,29.69,2.06-2.76,6.31-3.82,7.13-5,15.68-7.79-2.52-10.41-8.8-18.07-11.51-3.17,3-4.83,5.44-5.76,10.94C491.51,655.1,491.19,650.7,485.64,646.63Zm71.09-55.35c11.36.6,5.63-4,29.68-1,3,4.9,4.93,9.9,4.66,16.86a43.89,43.89,0,0,0-10.58-4.78c2.19-1.91,2.28-1.41,3.76-2.55a11.82,11.82,0,0,0,2.58-2.5c-5.92-1.14-3.4.85-4.77-3a4.23,4.23,0,0,1,0-2.15l0-1.2c-7.83,2.33-6.5,1.27-5.44,8.65C573.48,599.08,558.94,594.57,556.72,591.28Zm137.46,92.36c-1.37-4.06,2.25-6,3.32-13.56,6.91-.66,1.87-1.76,8.78-2.42-1.72,2.22-3.06,6.54-4.45,9.71C699.47,682.75,701.46,684,694.19,683.64ZM558,671.73c-4.5-11,4.5-3.24-6.78-21.77a9,9,0,0,1,3.45.94c.33.12.68.27,1,.4,12.14,4.79,17.4,8.93,26.62,17.56C565.89,666.87,569.21,668.41,558,671.73Zm136.14,11.91c-1.6,2.56.62,1.6-3.09,2C692.66,682.34,690,684,694.19,683.64Zm-10.8,10.79c3-3.13,4.35-3.71,6.36-8l3.64,2.94c-6.57,6.24-10.17,12.33-17.31,13ZM671.12,707.6c.56-3.18.78-2.06,3.25-3.1C672.87,707.62,674.42,706.21,671.12,707.6Zm-283.61-173C404.38,544.67,415,539,417.42,522c.45-3.22-.3-2.19-2.28-3.77-1.69,12-2.4,6.23-14.25,7.08C393.22,525.83,389.93,529.09,387.51,534.62ZM363,518.83c6.34.77,9.37,1.16,15.42-1.87,4.47-2.24,4.9-2.63,5.71-8.36-8.36,1.43,6-1.41-2.79.82-2.57.65-2.73,1.32-5.5-1.82C373.71,516.34,365.1,510.29,363,518.83ZM511.38,683.51c5.34,3.91,7.8,6.35,15.62,8.88-20.32,24-24.22,34.7-65,48.75-31.9,11-60.63,19.75-102.88,14.61-19.42-2.36-6.28-26.22-5.49-30.92,4.47,3.56.86,3,7.13,13.21,2.88,4.7,4.55,8.76,9,12,.93-6.57,2.48-8.59,3.32-13.56,8.57,3-1.25,5,17.42,16.08,1-7.37,2.84-10.14,4-18.14,8.27,2.93,5.41,8.8,19.61,10.53,1-7.23.65-10,5-15.68,6.85,5,7.06,8.12,19.61,10.53-.49-3.59-1.76-18.69,3.1-19.74,2.12-.46,4.94,4.22,6.88,6.13a21.38,21.38,0,0,0,9.45,5.5c-3.06-7.46.07-11.76,1.2-18.47,5.87,4.3,7.3,9,18.23,10.36.25-6.35-1.92-6.34-.67-15.21,6.95,2.46,2.75,5,13.18,6.26,5.91.72,3.92-2.72,3.32-6.09a56.43,56.43,0,0,1-.9-11.07c5.6,1.08,4.34,1.85,8.38,3,3.76,1.11,8.06,1.29,12,1.77C511.94,694.9,510,693,511.38,683.51Zm70.25-158C569,519.55,554.39,515.38,545,505.61c-10.68-11.1-11.79-25.93-9.73-40.48,4.25-30.18,43.77-50,71.23-53.13a174.54,174.54,0,0,1,36.56-.06l34,3.5L647,431.76a109.08,109.08,0,0,1-15.53,6.43c-4.56,1.63-9.74,3.45-13.69,6.31-4.76,3.44-12.35,11-14.18,17.35a24.27,24.27,0,0,1,8.56,3q.54-.15,1.1-.24l.22-.09,5.46-2.44,4.89,3.41a23.66,23.66,0,0,0,3.78,1.6c1.39.52,2.8,1,4.18,1.58l.32-2.24,10.3,1.25A44.77,44.77,0,0,1,655,471.3c1.1.48,2.2,1,3.29,1.58l-.15-1.09,11.47-.6a30.06,30.06,0,0,1,11.5,1.68,44.07,44.07,0,0,1,12.25,6.91l6-.31c7.7-.4,14.68,1.33,20.72,6.26.53.43,1,.87,1.5,1.32a13.18,13.18,0,0,1,9.87-2.67c8.12,1,13.76,4.35,19,10.1,8.27-6.63,18.3-.56,25.26,4.91q.55.43,1.06.87l5.93.83a28.18,28.18,0,0,1,15.91,7.63c1.13,1.06,3.16,3.52,4.48,4.68,2-.46,4.82-1.57,6.59-2.11a70.79,70.79,0,0,1,16-3.09c17.88-1.21,34.34,5.53,48.88,15.48,17.33,11.86,17.15,28,14.53,46.59a195.15,195.15,0,0,1-5.37,24.41c11,4.59,21.21,12.72,23.27,24.52l2,11.56-11.71.81-.56,0q0,.54-.09,1.09c-.36,3.13-1.69,6.27-2.23,9.5l-2.57,15.24-13.28-7.92-2.85-1.7a34.81,34.81,0,0,1-4.31,6.25l-6.37,7.53-6.78-5a31.15,31.15,0,0,0-3,5.93l.21,25.45c0,3.93,5.44,15,7.09,18.93,3.91,9.32,7.36,19.74,4.71,29.88-2.28,8.72-8.42,14.79-16.33,18.72a41.44,41.44,0,0,0-5.3,2.81,15.93,15.93,0,0,0-1.17,1.28c-1.35,1.52-2.72,3-4.15,4.45A81.14,81.14,0,0,1,813,782.87c-7.71,3.15-15.33,4.71-23.36,6.66-6.21,1.51-12,3.23-17.49,6.55-9.81,5.89-29.27,13.51-40.6,14.29l-7.62.53-2.9-7.07c-2.9-7.08-3.48-16.1-3.07-24.68-1.76.33-3.6.78-5.74,1.32a58.12,58.12,0,0,1-10.48,1.83l-6.42.44-3.34-5.5c-3.58-5.88-5.53-12.06-4-18.95L688,758c-5.16-.69-10.31-1.75-15.45-2.37l-11-1.34,1.84-10.92a43.06,43.06,0,0,1,3.87-11.78c-1.47.28-2.67.5-3.38.62a87,87,0,0,1-9.18,1c-28.54,1.48-59-.27-87,5-11.84,2.21-21.39,6.76-32.11,11.89-5.19,2.48-10.2,5.35-15.29,8a388,388,0,0,1-51,22.38c-24.94,8.86-68,14.27-94.33,11.06-17.33-2.11-56-19-53-40.57,1.17-8.3,4.11-12.55,9.58-18.43a7.82,7.82,0,0,0,2-2.88c3.46-10.91,8.65-20.18,20-24.71l5.95-2.39q.49-1,1-2.13l8.64-19.74,6.58,12,7-16.11,10.5,13.59c.5-1,1-2,1.45-3.06l3.15-7.21,13.48,1.64a24.61,24.61,0,0,0,1.41-2.71l5.51-12.6,8.93,7.11,2.2-15.57L442,667.11c.14-.46.27-.92.38-1.4l2.13-8.73a23,23,0,0,1-3.79-4.66l-1.06,2.43-9.27-3.28c-7.08-2.51-11.3-8-14-14.8a25.27,25.27,0,0,1-.8-2.4,25.81,25.81,0,0,1-9.49,2.61l-6.6.64L396,631.86a55.14,55.14,0,0,1-6.84-16c-.91.44-1.84.87-2.82,1.27l-12.59,5L372,608.75c-.37-2.74-.61-5.17-.73-7.48a35.46,35.46,0,0,1-4,1.91L355.16,608l-.7-4-10.9-8.68c-4.25-3.39-7.48-9.12-9.5-15.32l-11.39,6.75-5-10.53a31.66,31.66,0,0,1-1.88-21.77c.28-1.1.6-2.18,1-3.25a82.34,82.34,0,0,1,6.3-13.32c.48-.87,1.48-2.59,2.22-4.12a20.1,20.1,0,0,1-2-11.85A18.62,18.62,0,0,1,328,511.88c4.6-5.06,9.46-5.81,15.13-8.49a13.1,13.1,0,0,0,1.24-.66C356.93,495,367.92,490,382.69,488l6.61-.9c6.92-.94,14-1.21,19.54,3.88a29,29,0,0,1,3.14,3.83,59.88,59.88,0,0,1,12.85,0c10.36,1.26,16.52,12.19,19.81,21a65.08,65.08,0,0,1,2.85,9.94c6,1.23,11.8,3.35,16.12,7.89a36.11,36.11,0,0,1,5.05,7.21c7.67.93,15.5,2.11,22.36,5.27a19.47,19.47,0,0,1,9.8-6.92c5.91-1.72,18-1.33,24.37-.77,3.44.3,6.9.46,10.34.7,8.68.61,18.94,2,26,7.06,5.61-6.77,11.82-10.78,19.72-12.12a34.57,34.57,0,0,1,.24-7.43Q581.53,526,581.63,525.46ZM597,101.2c-127.27,0-216.53,7.27-338.22-33.9L166.16,189.12S246.29,294.23,214,417s-88.43,362,6.77,455.29C293,943,418,1009.93,508.46,1058c43.84,23.33,78.07,54.62,88.55,65.09,10.47-10.47,44.7-41.76,88.54-65.09C776,1009.93,901,943,973.2,872.32c95.21-93.26,39-332.49,6.77-455.29s47.87-227.91,47.87-227.91L935.22,67.3C813.53,108.47,724.27,101.2,597,101.2Zm0-18.13c58.39,0,117.59,2.2,175.83-1.85,54.35-3.78,104.91-13.6,156.57-31.09L942,45.87l109.22,143.66-8.52,11.18c-13.49,17.82-26.07,43.79-33.91,64.42C990.83,312.39,985,363.45,998,412.8c32.65,124.3,91.91,371.84-11.72,473.35-17.45,17.1-38.18,32.91-57.87,47.34-27,19.79-55,38.48-83.29,56.36-48.83,30.84-99.88,58.09-150.84,85.2-29,15.4-60.84,38.52-84.19,61.86L597,1150l-13.07-13.07c-23.34-23.34-55.23-46.46-84.18-61.86-51-27.11-102-54.36-150.84-85.2-28.31-17.88-56.29-36.57-83.29-56.36-19.69-14.43-40.41-30.24-57.87-47.34C104.11,784.64,163.36,537.1,196,412.8c13-49.34,7.15-100.41-10.81-147.67-7.84-20.63-20.42-46.61-33.91-64.42l-8.52-11.18L252,45.87l12.6,4.26c51.66,17.48,102.22,27.3,156.57,31.09C479.41,85.27,538.61,83.07,597,83.07Z"/></g></svg>