<svg xmlns="http://www.w3.org/2000/svg" viewBox="0 0 1200 1200"><defs><style>.cls-1{fill:#fff;}.cls-1,.cls-2{fill-rule:evenodd;}.cls-2{fill:#069;}</style></defs><title>FREITAS FC - TIGERS 2 team colour</title><g id="FREITAS_FC_-_TIGERS_2_team_colour" data-name="FREITAS FC - TIGERS 2 team colour"><path class="cls-1" d="M266.2,99.4,188.92,201c12.27,18.79,23.25,41.85,30.68,61.2C240.59,316.85,247,375.94,232,433c-28.16,107.21-87.58,350.45,2.07,438.27,40.54,39.71,92.68,74,141.15,103.34,46.55,28.15,94.45,53.88,142.46,79.43a419.22,419.22,0,0,1,80.29,56.4,419.24,419.24,0,0,1,80.29-56.4c48-25.54,95.9-51.28,142.46-79.43C869.21,945.3,921.36,911,961.9,871.27,1051.55,783.45,992.14,540.2,964,433c-15-57.06-8.57-116.16,12.43-170.77,7.43-19.34,18.41-42.4,30.68-61.19L929.8,99.4c-50.44,16-100.34,25.24-153.52,28.94-59.12,4.11-119,1.94-178.28,1.94s-119.16,2.17-178.28-1.94c-53.18-3.7-103.09-12.92-153.53-28.94M956.45,746.8l-11.12,10.8c3.82,5.74,4.21,4.28,10.71,1.78C958.92,752,960.55,751.57,956.45,746.8Zm-191,150.76a16.67,16.67,0,0,0-9.1,11.39q-2.23,9.51,4.8,23.09,6.89,13.28,16.36,17.5a16.13,16.13,0,0,0,14.62-.55,17.11,17.11,0,0,0,9.37-11.89q2.07-9.37-4.55-22.13-5.1-9.82-11.56-15a19.08,19.08,0,0,0-10.08-4.45A17.59,17.59,0,0,0,765.41,897.56Zm-103.89,91a45.74,45.74,0,0,0,10.47-.62c5.41-1,9.31-2.92,11.72-5.86a11.63,11.63,0,0,0,2.64-9.78,13.41,13.41,0,0,0-3.14-6.46,13.1,13.1,0,0,0-7.19-4,27.5,27.5,0,0,0-11.08,0c-1.85.33-3.43.64-4.74.93a24.07,24.07,0,0,0-3.12.89Zm-5.18-29a34.13,34.13,0,0,0,3.88-.2c1.44-.15,3-.38,4.71-.68,4.36-.78,7.56-1.82,9.58-3.16a10.64,10.64,0,0,0,4.27-5.23,12.29,12.29,0,0,0,.61-6.67,11.81,11.81,0,0,0-6-8.31q-5-3-13.35-1.5a31,31,0,0,0-7.9,2.42Zm-145.49,4.65-4.2-26.71-16.38,21.64Zm-115-89.41a16.28,16.28,0,0,0-14.45-2.43q-9.45,2.79-17.78,15-8.54,12.48-7.8,22.84a16,16,0,0,0,7.32,12.52,17.9,17.9,0,0,0,15.68,2.5q8.5-2.4,16.75-14.45,8.93-13.06,8.18-23Q403.15,879.72,395.87,874.74Zm-157-127.84L250,757.7c-3.82,5.74-4.21,4.28-10.71,1.79C236.38,752.13,234.74,751.68,238.85,746.9Zm23.54,46.26,3.15-15.23-8.86,18.9-7.78,5,1-31.69L236,798.82l3.69-30.66L225.16,786l6.54-31.07L218,769.09l4.66-27.79c-10.62,13.76-13.44,9.35-14.1,2.59a2.74,2.74,0,0,0,2,1.18c2.32.22,5-2.35,5.92-5.76.83-3.07-.08-5.8-2-6.41a52.59,52.59,0,0,1,9.24-7.69c7.06-23.3,14.84-43.35,24.08-57-8.93,21.84-12.79,35.33-16.11,55.46l9.41,13.61c2.33-4.09,10.78-14.65,18.43-18.89-4.3,5.57-9.8,20.16-11,28.95l10.5,7.49c7.43,5.51,14.91,11,22.32,16.5l7.49-19.68c-.64,8,1,15.61.38,23.6l.38.36Zm29.44,72.69,21.12-53.08L283.1,841.23c-2.74,2.62-4.17,4.54-4.29,5.79-.15,1.69.62,3.42,2.29,5.17l1.5,1.57-1.21,1.16-14.81-15.53,1.21-1.16,1.5,1.57q2.7,2.83,5.56,2.38c1.16-.18,3-1.48,5.49-3.86l29.18-27.82a14.14,14.14,0,0,0,3.66-4.74,5.08,5.08,0,0,0,0-3.22A12.63,12.63,0,0,0,310,798l1.23-1.17,12.06,12.64L303.79,859l50.14-17.39L366,854.22l-1.23,1.17-1.48-1.55q-2.73-2.87-5.57-2.42c-1.17.19-3,1.47-5.51,3.86L323,883.11c-2.74,2.62-4.15,4.56-4.25,5.83q-.22,2.53,2.28,5.16l1.48,1.55-1.21,1.16-18.09-19,1.21-1.16,1.51,1.58q2.73,2.87,5.56,2.38c1.16-.18,3-1.48,5.49-3.86l29.84-28.46-54,18.61Zm106.63,6.64q9.92,6.79,12,19.28t-5.59,23.76q-7.95,11.61-20.51,14.25a29.65,29.65,0,0,1-35.52-24q-2-12.37,6.08-24.24,8.3-12.13,21.8-14.14A29.55,29.55,0,0,1,398.45,872.5Zm75.72,42.71-60.8,36.17,23.06,10.41q5.31,2.4,9.19,1.35c2.6-.7,5.7-3.07,9.29-7.14l1.26.86-9.37,13.7L401,949.89l.69-1.53L461,913.3l-18-8.12q-4.48-2-6.93-2a7.61,7.61,0,0,0-4.35,1.44c-1.26.91-2.94,2.92-5,6l-1.57-.71,7.51-13.53Zm37.11,52.52L488.08,962l-6.39,8.46a15.17,15.17,0,0,0-2.79,4.85,3.13,3.13,0,0,0,.71,2.72c.7.91,2.46,1.82,5.31,2.75l-.4,1.63-18.87-4.65.4-1.63c2.61.16,4.37,0,5.28-.54,1.85-1,4.22-3.5,7.11-7.38l33.23-44.1,1.54.38,8.58,55q1,6.64,2.65,8.92a9.67,9.67,0,0,0,5.23,3.43l-.4,1.63-23.65-5.82L506,986c2.41.47,4.13.46,5.14,0a3.13,3.13,0,0,0,1.88-2.16c.32-1.3.22-3.48-.27-6.58Zm68.06,29.67-21.85-52.79-1.57,41.21c-.14,3.79.17,6.16,1,7.14,1.07,1.31,2.83,2,5.25,2.11l2.17.08-.06,1.68L542.79,996l.06-1.68,2.17.08c2.61.1,4.48-.62,5.65-2.16.7-.94,1.11-3.14,1.25-6.59l1.53-40.29a14.14,14.14,0,0,0-.68-5.95,5.09,5.09,0,0,0-2.26-2.29,12.64,12.64,0,0,0-5.44-1.09l.06-1.69,17.46.66,20.53,49.1L607,936.7l17.46.66-.06,1.69-2.14-.08c-2.64-.1-4.53.62-5.68,2.15-.7,1-1.13,3.14-1.26,6.6L613.75,988c-.14,3.79.2,6.16,1,7.14q1.6,2,5.24,2.11l2.14.08-.06,1.68-26.2-1,.06-1.68,2.19.08c2.64.1,4.52-.62,5.65-2.16.7-.94,1.11-3.14,1.25-6.59l1.57-41.21-25.75,51Zm100.9-39.66q6.57.2,10.23,2.61a13.59,13.59,0,0,1,6.14,9.3,15.28,15.28,0,0,1-1.33,9.18,16.58,16.58,0,0,1-6.78,7.44q-4.66,2.8-14.9,4.63L644.93,996l-.29-1.65,2.28-.41q3.81-.68,5-3.41c.5-1.16.46-3.44-.15-6.85l-7-39.25q-1-5.64-2.57-6.88a6.69,6.69,0,0,0-5.55-1l-2.28.41-.3-1.67,26.24-4.68a52.45,52.45,0,0,1,12-1q7,.41,11.28,3.87a14.25,14.25,0,0,1,5.22,8.8,13.3,13.3,0,0,1-1.31,8.67A16.64,16.64,0,0,1,680.24,957.74ZM745,969.58l.54,1.59-25.06,8.45L719.9,978l2.08-.7q3.62-1.22,4.54-3.89c.38-1.15,0-3.49-1.19-7l-12.73-37.78a20.57,20.57,0,0,0-2.53-5.67,4.15,4.15,0,0,0-2.39-1.26,8.61,8.61,0,0,0-4.32.31l-2.08.7-.54-1.6,25.06-8.45.54,1.6-2.12.71c-2.38.8-3.88,2.1-4.5,3.86-.41,1.17,0,3.5,1.15,7l12.73,37.78a20.58,20.58,0,0,0,2.53,5.67,4.12,4.12,0,0,0,2.44,1.24,8.37,8.37,0,0,0,4.28-.28Zm55-22q7.81,5,14.33,5.84a24.22,24.22,0,0,0,12.87-1.81l.67,1.3a49.88,49.88,0,0,1-13.08,3.93,57.93,57.93,0,0,1-15,.58A66.4,66.4,0,0,1,786,954.78a43.73,43.73,0,0,1-11.78-.19,30.6,30.6,0,0,1-12.65-5.67,35,35,0,0,1-9.74-12.09q-6.37-12.28-2.63-24.53a29.31,29.31,0,0,1,15.07-18.11q10.73-5.57,22.82-1.51t18.52,16.46a32.67,32.67,0,0,1,3.56,20.55A31.1,31.1,0,0,1,800,947.55Zm30.16-96.38-1.05-1.32,17.09-13.62,1.06,1.32L845.4,839a6.25,6.25,0,0,0-2.48,5.86c.09,1.14,1.19,3,3.33,5.73l15.59,19.57q5.79,7.27,7.54,12.4A18.1,18.1,0,0,1,869.2,894q-1.95,6.23-9.2,12-7.91,6.3-14.18,6.81A18.92,18.92,0,0,1,834.15,910q-3.66-2.27-10.62-11l-15-18.86c-2.36-3-4.31-4.59-5.87-4.85s-3.24.32-5.06,1.77l-1.82,1.45-1.06-1.32,20.86-16.62,1.05,1.32-1.85,1.47c-2,1.59-2.93,3.35-2.78,5.29.08,1.32,1.21,3.34,3.36,6l16.76,21a59.81,59.81,0,0,0,5.64,6,17.73,17.73,0,0,0,6.38,4.17,12.93,12.93,0,0,0,6.56.23,17.09,17.09,0,0,0,7.3-3.65,22,22,0,0,0,6.82-8.81,14.12,14.12,0,0,0,.9-9.36q-1.2-4.31-7.32-12l-15.57-19.55c-2.4-3-4.24-4.62-5.5-4.86a6.72,6.72,0,0,0-5.38,1.72Zm36.46-31.29,18.46,15.93,8.86-10.27q3.45-4,3.41-6.37c0-2.11-1.31-4.37-3.86-6.82l1.1-1.27,16.27,14-1.1,1.27a23.61,23.61,0,0,0-5.21-2.81,5.71,5.71,0,0,0-3.65.4,13.69,13.69,0,0,0-4.44,3.74L887.57,838,903,851.27a19.47,19.47,0,0,0,4,3,2.94,2.94,0,0,0,1.9,0,7.93,7.93,0,0,0,2.65-2.29l6.84-7.93a27.82,27.82,0,0,0,4.41-6.23,11.21,11.21,0,0,0,.81-5.31,35.12,35.12,0,0,0-2.67-9.93l1.19-1.38,8.25,14.13-31.06,36-1.27-1.1,1.43-1.66a8.64,8.64,0,0,0,1.9-3.82,3.84,3.84,0,0,0-.35-2.93,21.94,21.94,0,0,0-4.18-4.28l-30.36-26.18c-3-2.56-5-3.83-6.25-3.83q-2.44,0-4.94,2.94l-1.43,1.66L852.57,831l31.06-36,10.68,8.31-1.17,1.35a21.15,21.15,0,0,0-6.44-2.76,7.26,7.26,0,0,0-4.35.78,20.75,20.75,0,0,0-4.71,4.41Zm66.33-26.82-3.15-15.22,8.87,18.9,7.78,5-1-31.69,13.91,28.66-3.7-30.66,14.55,17.85-6.55-31.07L977.27,769l-4.67-27.79c10.62,13.75,13.45,9.35,14.1,2.59a2.74,2.74,0,0,1-2,1.18c-2.32.23-5-2.35-5.92-5.76-.83-3.07.07-5.8,2-6.41a52.57,52.57,0,0,0-9.25-7.69c-7.07-23.3-14.85-43.34-24.1-57,8.94,21.84,12.8,35.33,16.13,55.46l-9.4,13.61c-2.33-4.09-10.79-14.65-18.43-18.88,4.3,5.57,9.81,20.16,11,28.94l-10.5,7.49c-7.43,5.51-14.9,11-22.31,16.51l-7.5-19.68c.64,8-1,15.61-.38,23.6l-.38.36ZM318.05,166.6v43.1H306.43A110.68,110.68,0,0,0,305.31,197a34.1,34.1,0,0,0-2.31-8.31,11.93,11.93,0,0,0-4.73-5.62q-2.88-1.65-11.07-1.65H278v28.88h2.76c3.24,0,5.5-1.15,6.8-3.45s2-6.38,2-12.26v-.91h9v48h-9c-.14-7.34-.78-12.13-2-14.32s-3.38-3.29-6.69-3.29H278v23.73c0,4.34.37,6.93,1.12,7.79s2.31,1.25,4.72,1.25h4V271.8H245.23V256.88h3.6c2.37,0,3.92-.42,4.66-1.23s1.12-3.16,1.12-7V190.41c0-4.08-.36-6.61-1.05-7.55s-2.3-1.41-4.84-1.41h-3.49V166.6ZM355.34,210h6.25c4.41,0,7.53-1,9.31-3.11s2.69-5.52,2.69-10.35c0-5.31-.82-9-2.47-11.19s-4.56-3.22-8.74-3.22h-7Zm-23.51,37.82V190.41c0-4.08-.36-6.59-1.05-7.53s-2.3-1.41-4.84-1.41h-3.59V166.6h49.31q13.08,0,19.52,6.51t6.44,19.68c0,5.91-1.32,10.9-4,14.93A20,20,0,0,1,382.44,216q7.31,1.29,9.9,6.53t2.58,24a31.2,31.2,0,0,0,.66,7.87c.43,1.44,1.16,2.17,2.17,2.17s1.69-.89,2.15-2.69a33.73,33.73,0,0,0,.71-8.1c0-.37,0-.94-.05-1.78s-.05-1.41-.05-1.83h7.24c0,.47,0,1.15.05,2.12s.05,1.65.05,2.09q0,14.7-4.13,21.33t-13.29,6.64q-9.74,0-14.2-6t-4.47-19v-8.78c0-7.06-.64-11.53-1.9-13.44s-3.9-2.88-7.9-2.88h-6.41v23.58c0,4.08.36,6.61,1.07,7.58s2.3,1.46,4.77,1.46h4.06V271.8h-43.1V256.88h3.59c2.51,0,4.11-.5,4.82-1.46S331.83,251.91,331.83,247.84ZM485,166.6v39.21H473.59a97.5,97.5,0,0,0-2.31-11.95,23.5,23.5,0,0,0-3-6.9,11.73,11.73,0,0,0-4.95-4.26q-2.94-1.25-9.45-1.25H442.56v28.88h2.76c3.24,0,5.52-1.15,6.82-3.45s2-6.38,2-12.26v-.91h9v48h-9c-.14-7.34-.78-12.13-2-14.32s-3.4-3.29-6.71-3.29h-2.87v32.78h12.67c4.91,0,8.29-.44,10.14-1.31a8.89,8.89,0,0,0,4.31-4.44,39,39,0,0,0,2.63-9.15,102.78,102.78,0,0,0,1.28-13.59h11.78V271.8h-75.6V256.88h3.59c2.37,0,3.92-.42,4.66-1.23s1.12-3.16,1.12-7V190.41c0-4.08-.36-6.61-1-7.55s-2.3-1.41-4.84-1.41h-3.49V166.6Zm51,0v14.85h-3.49c-2.58,0-4.22.5-4.93,1.49s-1.07,3.48-1.07,7.48v57.43c0,4.05.37,6.56,1.1,7.55s2.35,1.49,4.89,1.49h3.49V271.8H493.35V256.88h3.54q3.76,0,4.86-1.49c.73-1,1.09-3.5,1.09-7.55V190.41c0-4-.36-6.48-1.07-7.48s-2.33-1.49-4.88-1.49h-3.54V166.6Zm26.91,16.47c-3.92,0-6.92,2-9,5.86s-3.13,9.59-3.13,17v.44H540.12V166.6h75.39v39.81H605V206q0-11.1-3.15-17c-2.1-3.95-5.14-5.91-9.09-5.91h-3.13v64.77c0,4.05.37,6.56,1.1,7.55s2.35,1.49,4.89,1.49h6V271.8H554.5V256.88h5.59q3.6,0,4.75-1.25c.77-.86,1.14-3.45,1.14-7.79V183.06Zm85.58,88.74V256.88h3.22c2.72,0,4.38-.21,5-.65a2.88,2.88,0,0,0,.91-2.48,20.17,20.17,0,0,0-.12-2.35c-.09-.73-.2-1.46-.34-2.17L654.52,238H635.22L633,248c-.37,1.54-.64,2.74-.77,3.61A14.57,14.57,0,0,0,632,254a2.38,2.38,0,0,0,1.3,2.14,7.53,7.53,0,0,0,3.7.76h3.54V271.8h-32V256.88h2.65a5.49,5.49,0,0,0,4.57-2.54c1.23-1.67,2.3-4.44,3.2-8.26l18.83-79.49H663.7l16.78,79.17c1.16,5.2,2.19,8.36,3.13,9.46s2.46,1.65,4.54,1.65h3.76V271.8Zm2.71-48.93L644.62,191l-6.1,31.86Zm41.77,10.19h10.32q2.56,12.15,8.47,19t14,6.85a10.31,10.31,0,0,0,7.76-3,10.94,10.94,0,0,0,2.92-7.92q0-7.57-12.67-12.7c-2.74-1.07-4.89-2-6.46-2.69q-7.61-3.37-11.73-5.72a24.51,24.51,0,0,1-5.94-4.44,30.76,30.76,0,0,1-6.39-10.53,39.15,39.15,0,0,1-2.06-13.15q0-15.84,8-25.59t21.14-9.72a39.31,39.31,0,0,1,12.46,1.91,40.12,40.12,0,0,1,11.21,5.91l1.94-5.28H756.1v36.54h-12c-1.17-7.48-3.4-13-6.67-16.68s-7.63-5.49-13.1-5.49a10.55,10.55,0,0,0-7.9,3.21,11,11,0,0,0-3.1,7.89q0,7.06,11.89,10.66c1.94.63,3.45,1.1,4.54,1.46q16.58,5.61,23.26,13.91t6.67,22.61q0,15.92-8.2,25.38t-22.14,9.46A36.06,36.06,0,0,1,717,272.82a45.23,45.23,0,0,1-11.67-6.38l-2.65,5.83H692.9ZM871.57,166.6v43.1H859.94A110.68,110.68,0,0,0,858.82,197a34.13,34.13,0,0,0-2.31-8.31,11.93,11.93,0,0,0-4.73-5.62q-2.88-1.65-11.07-1.65h-9.18v28.88h2.76c3.24,0,5.5-1.15,6.8-3.45s2-6.38,2-12.26v-.91h9v48h-9c-.14-7.34-.78-12.13-2-14.32s-3.38-3.29-6.69-3.29h-2.87v23.73c0,4.34.37,6.93,1.12,7.79s2.31,1.25,4.72,1.25h4V271.8H798.74V256.88h3.59c2.37,0,3.92-.42,4.66-1.23s1.12-3.16,1.12-7V190.41c0-4.08-.36-6.61-1-7.55s-2.3-1.41-4.84-1.41h-3.49V166.6Zm78.16,64.46q-.43,21.13-9.09,32.52t-24.54,11.37q-18.55,0-28.55-14.43t-10-41.25q0-25.37,10.34-40.59t27.66-15.24a30.81,30.81,0,0,1,20.4,7.34l1.83-5.8h11.62v43.34H936.58q-1.87-15.17-5.73-22t-10.38-6.85q-7.55,0-11,9.38T906,219q0,21.45,3.54,30.87t11.53,9.41q7.23,0,11.89-7.61t5.21-20.57ZM722.92,793.35c35.66-19.42,34.78-19.18,56.48-48.81l-3.09,40.34c42.25-16.52,41.46-79.44,49.2-96.47l15.56,38.69c17.28-23.91,14.78-78.06,6.07-109.28,13.94,6.41,11.92,13.23,21.89,24.47,2.34-34.89-10-62.24-17.81-91.82,10.17,7.93,19,22.15,26.66,36.57,16.65-40.5-29.26-118.31-43.5-138.92,14.88-15.26,45.32-56.43,44.65-92.79-.89-48.86-42.53-53.51-78.39-33.59-34.31,19.05-45.78,41.75-93.66,25.44-92-31.34-133.74-33-227.37-.54-51.63,17.92-55.49-3.93-93.5-24.94-37.74-20.86-77.91-18.67-79.39,33.63-1.24,43.85,27.68,68.33,44.22,92.8-25.59,36.48-46.39,78.11-44.85,139.33l27.09-35.37c-6.24,33.63-16.46,48.41-17.78,88.17l21.92-23.67c-5.87,57.7-5.22,57.34,3.6,112.06,9.9-10.15,4.73-5.39,11.5-20.86,7.36-16.82,5.65-11.93,10.83-17.48,1.22,44.44,17.45,81.92,45.72,94l-1.34-39.85c22.46,30.1,22,29.84,56.06,48.93,27.83,15.6,3.8,23.95,41.3,66.33,1-3.33,1.61-8.44,2.65-11.45,2.69-7.78,1.7-5.87,5-10.62,6.08,22.15,17.64,30.2,26.55,46.17,10.32-11,4.62-7.54,9.55-20.95L589,907.62c23.46-7.79,34.61-23.08,47.85-46.06l5.12,24.21c12.62-16.71,22.83-24.91,35.43-50.31l4.2,24.27C722.2,805.23,693.27,809.49,722.92,793.35Zm-99.24-438-14.94-4.38,8.21,9c99.42,5.6,98.75,37,145.75,52.7-4.67-15.29-43.63-37.51-62.57-45.89-15.07-6.67-25.61-11-40.18-17.25-12.18-5.19-29.88-9.11-40.45-17,41.59,1.63,115.22,28.89,142.76,54.17,9.69,8.9,18.94,23.48,30.44,30.5,10.67-20.52,5-27.27,3.61-31.53L794,379.49c-.19-1.67-1.06-2.09-1.24-3.23,7.72-6.81,8.88-6.75,19.93-13.38.2-4.45-22.79-10.39,13.62-12.49l-.29-13h0l.27,11.52c.87-.58,2.13-2.58,2.61-1.75L840,342.57l1.58.58,17.08,6.19c9.5,45.56-15.1,64.22-30.07,95.22L802.24,429c22.35,35,57.31,69,57.83,113.9l-23.79-13.55,18.55,70.44-14.12,4.24-2.84,80.25c-13.81-11-7.78-12.77-22-21.77-5,34.56-8.61,67.75-26.7,89.56l-2.06-34.5c-17.27,8.1-20.86,23.68-35.08,38.34-18.08,18.64-22.9,13.27-45.14,25l-18.62,50.16-9.56-16.37c-10.28,18.05-21,32.36-29.87,46.15l-6.68-19.52c-18.25,15.58-31.37,34-51.48,43.1-18.43-15.49-27.89-28.38-46-43.18-8.69,10.47-3.29,8.06-8.12,17.87-11.37-11.68-23.33-28.68-27.35-46.39l-12.43,18.07c-5.37-13.2-9.11-27.35-14.35-40.09-9.06-22-10.56-8.59-31.81-21.63-23.62-14.51-34.37-41.65-52.52-52.63l-2.13,36.93c-5.48-18.78-11.79-7.48-22.67-68.61a75.51,75.51,0,0,0-3.39-13.61c-3.33-8.49-.41-3.1-5.1-8.7l-19.16,22L346.79,604l-4.7-.38-2.27,0c-.45,0-1.75.1-2.19.11-10.41.23-.52,4-8.68-.07l20.37-75.42L324.83,542.5c11.1-69.47,47.36-87.82,57.05-111.29-11.22,4.66-14.09,8.18-25.22,12.78-5.08-9.71-60.83-86.63-14.89-101.76,18.25-6,13.24,1.2,17.52,3.68,39.25,22.75,12.59,2.42,14.82,17.71,9,4.75,13.48,9.3,18.59,14.46,7.85,18.91-11.11-14-1.51,39.46,23.63-14.91,24.28-25.42,41.21-39.42,27.31-22.59,106.66-46.15,152.75-47.91,11.35-.43,16.79-.38,27.73,2.53l6.77,2.85c-57.54-2.23-69.19,2.74-116,23.59-27.64,12.33-71,29.66-80.17,53.4,26.48-10.68,43.59-28,67-37.48,22.51-9.15,72.61-12.51,84.26-21.7l-38.2.57c29.73-14.21,81.8-12.74,112.71,0ZM586.77,553.91a2.22,2.22,0,0,0,.21-.32c2.6-4.85,2.27-17.36,2-27.82-.31-10.14-.48-12.61,1-22.23.37-2.34.57-3.86,1.89-5.52,3,5,6.1,9.71,9.25,15.06,5.72,9.69,15.18,30,19.33,41a43.32,43.32,0,0,1,1.5,4.56c.16.6.34,1.65.51,2.18l.88,2c.05-.09.19.35.31.5.48-20.36-10-42.32-17.63-57.83-10.24-20.69-13.17-34.73-14.52-60.36-2.07,18.48-4,37.82-5.55,56.51-.82,10-3.49,17.71-4.39,27.25C581,535.1,584.69,549.13,586.77,553.91Zm161.57-18.08c4.2,4.81,4.8,3.48,7.36,10.49a21.93,21.93,0,0,1,.6,14.66c-3.16,9.49-4.22,19-11,24.37-4.45,3.52-8.47,2.45-14.88,2.81-10.73.6-13.11,11.93-25.67,8a50.71,50.71,0,0,1-6.37-2.47c-1.75-.82-4.81-2.1-5.95-3.64,8.65.27,13.52-2.53,17.83-7.12,6.76-7.18,2.71-10.79,1.38-19.27,15.87,1.53,26-1.55,33.68-14.81C748.64,543.11,747.61,542.76,748.34,535.83ZM688,515.21c14.14-.42,27,4.65,42,1.58,4.18-.86,7.77-2.42,11.5-3.17-2.8,6.83-6.63,6.82-14.32,8.68-7.89,1.91-9.14,3.43-12.16,10.5-5.49,12.87-7.58,19.78-19.09,25.73-6.85,3.54-15.06,1.9-18.7,4-5,2.86-5.42,9.55-5.27,17,.14,7-.69,14.47-.95,21.55q0,.53,0,1c43.16,2.86,77.71,23.22,88.43,56.49-17.91-12.61-18.21-24.35-49.17-30,6.59,26,11.16,37.75,9.32,67.61-.67-1-1.65-3.62-1.91-3l-4.25-9.35c-1-3.27-1.79-9-2.66-13.12-2-9.38-4.57-19.16-8.59-27.91-10.74-23.38-19-27.25-31.2-39.82,0,7.14,1,11.36-1.76,18.58-3.35-6.18-2.38-20.37-8.35-29.71-4.79-7.5-12.18-15.13-9.82-27.4,2-10.47,7.36-18.25,11.38-26.76,3.25-6.87,11.3-18.67,18.14-20.3a6.94,6.94,0,0,1,3.39-1.34C685.36,515.82,686.46,515.53,688,515.21Zm-1.34,14.13a64.12,64.12,0,0,1,9.09-2.87c1.46,6.25-3.26,10.23-8.3,11.5-7.35,1.86-10.85-2.55-10.83-9.26l-1.74-.07c-.52,2.2-4.38,2.63-4.93,10-.35,4.66.94,9.62,3.67,11.77,8,6.33,31.42-.78,35.19-21.51,2.2-12.11-8.07-11.62-17.11-8.94-3.37,1.16-1.25-.25-2,1.79a4,4,0,0,1,3.27,1c.8.7.28.18.77.95-1.5,1.33-5.82,4.3-7.44,4.6ZM798.89,643.47c.29-1.41,1.39-1.52,2.1-2.28-2.08,35.87-33.64,81.58-58.3,89.61l9.22-18.18-40.25,30c17.52-24.06,26-33.21,26.42-73.59,1,.73,2.26,1.71,3,2.31,2,1.77,1.09,14.36,3.87,22.16a16.51,16.51,0,0,0,9.11,9.73c17.76-4.62,33.77-44.84,42.84-57.46C797.24,645.23,798.61,644.86,798.89,643.47Zm5.92-25.18c-1.9-35-.6-32.79-11.66-62.27-5,8.65-10.54,23.14-15.1,34.61-10.34-16.83,17.28-46.73,4.12-90.65-1.29-4.32-12.05,14.39-13.67,10.37-10.69-26.49-28.65-46.25-35.61-63.26C779.36,461.49,848.21,549.17,804.82,618.29ZM679.77,664.62c9.46,12.8,19.41,29.45,18.38,54-18,17.83-32.51,25.34-40.19,35.63l31.71-9.56c-5.16,27.61-26,21.94-50.14,24.07l25.61,9c.86.31,2.72,2.61,3.34,1.46s2.28.84,3.3,1.54c-25.28,9.91-23.58,4-47.88,5.91l20.87,10.08c-26.83,8.33-41.24-2.27-46.29-25.75-9.15,0,1.4-14.87,7.58-18.89a19.8,19.8,0,0,0,4.88-4.55c2.65-3.85,2.45-8.36,6.55-13.26,2.77-3.32,6.85-5.75,10.61-8.54,4.65-3.44,6.16-5,9.24-10.15,13.28-22.06,4.47-43.12-1.95-43.93-2.54,6.54,3.66,8.37,5.11,14.9,3.05,13.78-9.23,19.79-18.65,21.73-9,1.85-8.32-1.22-17,8.51-11.89,13.37-25.54-.16-35.79-8-6.39-4.88-8.81-1.63-15.76-3.8l-1-.84-.26-.21c-.45-.37-.71-.59-1.13-.95-2.58-5.21-3.47-7.57-2.21-15.32.93-5.67,3.34-8.31,2.8-15.17-2.1,0-3.88,3.49-4.48,5.8-.78,3-.46,6.88-1.33,9.58-1.4,4.36-5,5.77-2.22,17a26.58,26.58,0,0,0,1.6,3.89l1.77,3.23c.83,2.77,8.94,13.5,10.54,15,4.13,3.79,10.69,6.29,14.17,10.42,3.66,4.34,5.66,12.73,10.15,15.57,1.83,1.16,2.16.94,3.36,3.06,1.34,2.37,7.4,14.89,2.15,14.89-5.12,22.76-21.84,31.56-46.14,26.37l19.08-12.1c-25.26,3.63-24.75,6.37-47.32-6.38L538,769.39c-27.37-2.71-33.77,1.71-42.89-23l33.06,6c-26.38-27.23-63.7-24.41-24.51-83.89-49.79,39.55-18,114.14,31.8,136.87,24.11,11,34.49-2.21,58-1.93,17.4.21,63.47,24.34,98.23-36.65C729.53,700.32,692,683.46,679.77,664.62ZM559.63,714.84c5.84-2.71,13.06,1.21,17.74,3.9,5.85,3.36,9.55,7.4,17.77,6.33,11.27-1.47,20.81-16.63,28.93-10,1.35,1.09,2.15,2.28,1.77,4.91-4.24,2.86-6.73.53-11.46,4.73l-8.12,8.66c-5.55,6.55-1.13,7-4.05,13.4-3.09,6.77-10-.16-10.27-.17-1.42,0-1.76,2.84-5.93,1.67-6.2-1.73-1.45-11.08-9.13-16.84-2.15-1.61-2.79-1.63-4.48-3.6-1.36-1.59-2.25-3.41-3.73-5C565.52,719.53,559.33,720.83,559.63,714.84ZM439,535.83c-4.2,4.81-4.8,3.48-7.36,10.49A21.93,21.93,0,0,0,431,561c3.16,9.49,4.22,19,11,24.37,4.45,3.52,8.47,2.45,14.88,2.81,10.73.6,13.11,11.93,25.67,8a50.72,50.72,0,0,0,6.37-2.47c1.75-.82,4.81-2.1,5.95-3.64-8.65.27-13.52-2.53-17.83-7.12-6.76-7.18-2.71-10.79-1.38-19.27-15.87,1.53-26-1.55-33.68-14.81C438.66,543.11,439.7,542.76,439,535.83Zm60.36-20.62c-14.14-.42-27,4.65-42,1.59-4.18-.86-7.77-2.42-11.5-3.17,2.8,6.83,6.63,6.82,14.32,8.68,7.89,1.91,9.14,3.43,12.16,10.5,5.49,12.87,7.58,19.78,19.09,25.73,6.85,3.54,15.06,1.9,18.7,4,5,2.86,5.42,9.55,5.27,17-.14,7,.69,14.47.95,21.55.31,8.38-1.21,12.69,1.8,20.54,3.35-6.18,2.38-20.37,8.35-29.71,4.79-7.5,12.18-15.13,9.82-27.4-2-10.47-7.36-18.25-11.38-26.76-3.25-6.87-11.3-18.67-18.14-20.3a6.93,6.93,0,0,0-3.39-1.34C501.95,515.82,500.84,515.53,499.33,515.21Zm1.34,14.13a64.11,64.11,0,0,0-9.09-2.87c-1.46,6.25,3.26,10.23,8.3,11.5,7.34,1.86,10.85-2.55,10.83-9.26l1.74-.07c.52,2.2,4.38,2.63,4.93,10,.35,4.66-.94,9.62-3.67,11.77-8,6.33-31.42-.78-35.19-21.51-2.2-12.11,8.07-11.62,17.11-8.94,3.37,1.16,1.25-.25,2,1.79a4,4,0,0,0-3.27,1c-.8.7-.28.18-.77.95,1.5,1.33,5.82,4.3,7.44,4.6ZM414.55,641c10.33-7.09,11.33-11.22,18.87-21.07,8.83-11.54,12.08-11.61,19-22.21C430.39,605.48,421,615.67,414.55,641Zm318.2-42.93c6.67,11.4,11.28,11.69,19.73,22.89,11.17,14.81,4.71,12.81,19.27,20.19C763.54,620.08,754.88,603.64,732.75,598.11ZM507.41,440.19c23.17-10.21,34.07-15.61,42.15-41.45l-21.23,19.7C514.43,430.41,516,419.93,507.41,440.19ZM640.32,495c-1.82-5.56-25.15-46.52-29.86-51.4C610.1,469.65,626.48,489.23,640.32,495Zm-93.54,2.66c6.67-10,38.17-28.81,26.44-53.52-5.72,9.14-7,16.94-13.28,26.41C552.54,481.62,546.65,480.91,546.78,497.61Zm132.08-56.83c-7.22-18-4.56-8.42-20.62-22-9.28-7.85-11.17-15.79-22.66-19.12C643.31,422.71,655.41,431.05,678.86,440.79Zm-22,37.84c-3.61-28.54-12-24.12-24.15-38.36-13.63-16-5-31.61-22.21-41.71C604.91,443.25,637.92,455.66,656.87,478.63Zm-127.8-.79c14.46-10.65,59.09-49.28,44-78.48-16.93,13.1-4.51,23.26-20.18,39.9C539.28,453.73,532.46,449,529.07,477.84Zm-72.63-55.09c16,11.82,41.42-9.57,54.91-17,12.85-7.11,52.8-20.8,56.15-23.57-26.91-19.15-72,22.79-83,29.12C474.94,416.78,465.83,418.19,456.44,422.75ZM618,382.14c7.17,5.29,44.23,16.78,56.92,24.09,13.08,7.53,38,28.51,55.13,16.67-58.39-23.19-47.26-34.2-79-41.79C638.45,378.09,627.09,376.27,618,382.14ZM430.58,515.08c16.82-4.93,33.61-17.67,53.49-19.38,22.61-1.94,39.86,16.83,54.3,23.83C529,488,486.43,480.44,453,493.7c4.29-15.64,16.37-16,21.11-40.59C461.67,476.53,439.15,481.14,430.58,515.08Zm36.93,179.27c1.41-2.2,1.32-.5,3.85-8,10.25-30.59,2.22-45.76,44.14-83.95-38.06,1.28-80.64,20.46-88.85,55.13,13.41-10.66,22.16-26,48.64-28.22C470.94,646.94,460.13,674.59,467.51,694.35Zm-117.28-199c10.24-9.83,20.91-24.31,32-30.71C374,487.36,361,504.18,369.71,521.55c6.39-18,18.51-48.39,29.24-61.74a117.71,117.71,0,0,1,22.58-22.12C434.69,427.58,438,427.47,443.14,413,396.49,434.94,365.17,442.71,350.23,495.32ZM819.72,524c0-23.48-9.87-43.39-17.46-59.67,17.8,9.44,18.16,18.66,31.61,28.21-6.25-24.55-17.11-40.08-32.75-50.16C785,432,759.88,420.05,742,413.38c14.22,29.41,30.85,21.27,46.88,49.37C800,482.28,809.26,508.71,819.72,524ZM388.41,643.47c-.29-1.41-1.39-1.52-2.1-2.28,2.08,35.87,33.64,81.58,58.3,89.61l-9.22-18.18,40.25,30c-17.52-24.06-26-33.21-26.42-73.59-1,.73-2.26,1.71-3,2.31-2.05,1.77-1.09,14.36-3.87,22.16a16.51,16.51,0,0,1-9.11,9.73c-17.76-4.62-33.77-44.84-42.84-57.46C390.06,645.23,388.69,644.86,388.41,643.47Zm-5.92-25.18c1.9-35,.6-32.79,11.66-62.27,5,8.65,10.54,23.14,15.1,34.61,10.34-16.83-17.28-46.73-4.12-90.65,1.3-4.32,12.05,14.39,13.67,10.37,10.69-26.49,28.65-46.25,35.61-63.26C407.94,461.49,339.09,549.17,382.49,618.29ZM361,727.17c-2.05,3.46-5.17,6.47-7.92,9.29l-15.39,15.78-3.51-21.76c-2.9-18-6.61-37.14-7.4-55.33a236.37,236.37,0,0,1,.58-26.85l-19.82,21.4,1-29.74a203,203,0,0,1,4.79-38.13l-13.32,17.39-.79-31.42c-1.35-53.79,13.34-96.15,42.4-139.49-3-4-6.18-8-9.27-11.94A249.06,249.06,0,0,1,317,414.93c-11.53-18.49-17.74-37.9-17.12-59.85.56-19.94,6.63-40.65,25.23-50.9,22-12.1,50.21-3.41,70.61,7.87a245.91,245.91,0,0,1,25.51,16.72c5.27,3.82,11,8.13,17,10.73,13.31,5.76,29,1.23,42-3.27,95-33,139.93-31.75,234.59.52,42.31,14.42,50.58-5.69,84.69-24.63,20.77-11.53,49.27-18.42,71-5.41C887.78,317,894,336,894.39,355.2c.28,15.22-4.07,30.53-10.13,44.37a206.23,206.23,0,0,1-31.57,49.72c4.21,6.6,8.18,13.44,11.91,20.21A350.64,350.64,0,0,1,884.27,511c9.17,23.49,18.19,55.84,8.14,80.3l-9,21.8-.34-.63a143.72,143.72,0,0,1,1.26,30.61l-1.78,26.44-14-15.77c2.22,28.93-.71,61.13-14.27,79.89L842.54,750l-9.93-24.71a172.9,172.9,0,0,1-8.16,27c-7.77,19.13-20.07,35.24-39.83,43l-16.45,6.43,1.71-22.24-.82.76c-10.1,9.19-24.6,16.42-36.56,22.94-1.63.89-9.21,5-10,6.91a28.64,28.64,0,0,0-1,4.49,80.49,80.49,0,0,1-3.05,11.26c-5.08,14.3-14.7,28.54-23.7,40.61l-15.43,20.69-3.55-20.51c-2.57,3.53-5.32,7-8.28,10.61-4.2,5.07-8.44,10-12.41,15.3L640.38,912l-4.61-21.8c-9.74,12.54-21.39,22.2-39,28.06l-6.89,2.29-32.38-36a65.19,65.19,0,0,1-5.94,7l-10.39,11.08-7.4-13.26a133.47,133.47,0,0,0-9.86-14.49c-1.92-2.58-3.7-5.07-5.34-7.53L514,881.89l-13-14.75c-9.51-10.74-18.44-22.87-23.42-36.44a98.24,98.24,0,0,1-3.45-12,46.8,46.8,0,0,0-1.84-6.79c-1.63-4-6.09-6.71-9.7-8.74-11.41-6.4-24.89-13.34-34.69-22-1.27-1.13-2.51-2.32-3.73-3.55l.8,23.91-16-6.87C382.09,783.12,367.68,755.62,361,727.17ZM598,112.7c-127.27,0-216.53,7.27-338.22-33.9L167.16,200.62S247.29,305.73,215,428.53s-88.43,362,6.77,455.29C294,954.53,419,1021.43,509.46,1069.55c43.84,23.33,78.07,54.62,88.55,65.09,10.47-10.47,44.7-41.76,88.54-65.09C777,1021.43,902,954.53,974.2,883.82c95.21-93.26,39-332.49,6.77-455.29s47.87-227.91,47.87-227.91L936.22,78.8C814.53,120,725.27,112.7,598,112.7Z"/><path class="cls-2" d="M266.2,99.4,188.92,201c12.27,18.79,23.25,41.85,30.68,61.2C240.59,316.85,247,375.94,232,433c-28.16,107.21-87.58,350.45,2.07,438.27,40.54,39.71,92.68,74,141.15,103.34,46.55,28.15,94.45,53.88,142.46,79.43a419.22,419.22,0,0,1,80.29,56.4,419.24,419.24,0,0,1,80.29-56.4c48-25.54,95.9-51.28,142.46-79.43C869.21,945.3,921.36,911,961.9,871.27,1051.55,783.45,992.14,540.2,964,433c-15-57.06-8.57-116.16,12.43-170.77,7.43-19.34,18.41-42.4,30.68-61.19L929.8,99.4c-50.44,16-100.34,25.24-153.52,28.94-59.12,4.11-119,1.94-178.28,1.94s-119.16,2.17-178.28-1.94c-53.18-3.7-103.09-12.92-153.53-28.94M956.45,746.8l-11.12,10.8c3.82,5.74,4.21,4.28,10.71,1.78C958.92,752,960.55,751.57,956.45,746.8Zm-191,150.76a16.67,16.67,0,0,0-9.1,11.39q-2.23,9.51,4.8,23.09,6.89,13.28,16.36,17.5a16.13,16.13,0,0,0,14.62-.55,17.11,17.11,0,0,0,9.37-11.89q2.07-9.37-4.55-22.13-5.1-9.82-11.56-15a19.08,19.08,0,0,0-10.08-4.45A17.59,17.59,0,0,0,765.41,897.56Zm-103.89,91a45.74,45.74,0,0,0,10.47-.62c5.41-1,9.31-2.92,11.72-5.86a11.63,11.63,0,0,0,2.64-9.78,13.41,13.41,0,0,0-3.14-6.46,13.1,13.1,0,0,0-7.19-4,27.5,27.5,0,0,0-11.08,0c-1.85.33-3.43.64-4.74.93a24.07,24.07,0,0,0-3.12.89Zm-5.18-29a34.13,34.13,0,0,0,3.88-.2c1.44-.15,3-.38,4.71-.68,4.36-.78,7.56-1.82,9.58-3.16a10.64,10.64,0,0,0,4.27-5.23,12.29,12.29,0,0,0,.61-6.67,11.81,11.81,0,0,0-6-8.31q-5-3-13.35-1.5a31,31,0,0,0-7.9,2.42Zm-145.49,4.65-4.2-26.71-16.38,21.64Zm-115-89.41a16.28,16.28,0,0,0-14.45-2.43q-9.45,2.79-17.78,15-8.54,12.48-7.8,22.84a16,16,0,0,0,7.32,12.52,17.9,17.9,0,0,0,15.68,2.5q8.5-2.4,16.75-14.45,8.93-13.06,8.18-23Q403.15,879.72,395.87,874.74Zm-157-127.84L250,757.7c-3.82,5.74-4.21,4.28-10.71,1.79C236.38,752.13,234.74,751.68,238.85,746.9Zm23.54,46.26,3.15-15.23-8.86,18.9-7.78,5,1-31.69L236,798.82l3.69-30.66L225.16,786l6.54-31.07L218,769.09l4.66-27.79c-10.62,13.76-13.44,9.35-14.1,2.59a2.74,2.74,0,0,0,2,1.18c2.32.22,5-2.35,5.92-5.76.83-3.07-.08-5.8-2-6.41a52.59,52.59,0,0,1,9.24-7.69c7.06-23.3,14.84-43.35,24.08-57-8.93,21.84-12.79,35.33-16.11,55.46l9.41,13.61c2.33-4.09,10.78-14.65,18.43-18.89-4.3,5.57-9.8,20.16-11,28.95l10.5,7.49c7.43,5.51,14.91,11,22.32,16.5l7.49-19.68c-.64,8,1,15.61.38,23.6l.38.36Zm29.44,72.69,21.12-53.08L283.1,841.23c-2.74,2.62-4.17,4.54-4.29,5.79-.15,1.69.62,3.42,2.29,5.17l1.5,1.57-1.21,1.16-14.81-15.53,1.21-1.16,1.5,1.57q2.7,2.83,5.56,2.38c1.16-.18,3-1.48,5.49-3.86l29.18-27.82a14.14,14.14,0,0,0,3.66-4.74,5.08,5.08,0,0,0,0-3.22A12.63,12.63,0,0,0,310,798l1.23-1.17,12.06,12.64L303.79,859l50.14-17.39L366,854.22l-1.23,1.17-1.48-1.55q-2.73-2.87-5.57-2.42c-1.17.19-3,1.47-5.51,3.86L323,883.11c-2.74,2.62-4.15,4.56-4.25,5.83q-.22,2.53,2.28,5.16l1.48,1.55-1.21,1.16-18.09-19,1.21-1.16,1.51,1.58q2.73,2.87,5.56,2.38c1.16-.18,3-1.48,5.49-3.86l29.84-28.46-54,18.61Zm106.63,6.64q9.92,6.79,12,19.28t-5.59,23.76q-7.95,11.61-20.51,14.25a29.65,29.65,0,0,1-35.52-24q-2-12.37,6.08-24.24,8.3-12.13,21.8-14.14A29.55,29.55,0,0,1,398.45,872.5Zm75.72,42.71-60.8,36.17,23.06,10.41q5.31,2.4,9.19,1.35c2.6-.7,5.7-3.07,9.29-7.14l1.26.86-9.37,13.7L401,949.89l.69-1.53L461,913.3l-18-8.12q-4.48-2-6.93-2a7.61,7.61,0,0,0-4.35,1.44c-1.26.91-2.94,2.92-5,6l-1.57-.71,7.51-13.53Zm37.11,52.52L488.08,962l-6.39,8.46a15.17,15.17,0,0,0-2.79,4.85,3.13,3.13,0,0,0,.71,2.72c.7.91,2.46,1.82,5.31,2.75l-.4,1.63-18.87-4.65.4-1.63c2.61.16,4.37,0,5.28-.54,1.85-1,4.22-3.5,7.11-7.38l33.23-44.1,1.54.38,8.58,55q1,6.64,2.65,8.92a9.67,9.67,0,0,0,5.23,3.43l-.4,1.63-23.65-5.82L506,986c2.41.47,4.13.46,5.14,0a3.13,3.13,0,0,0,1.88-2.16c.32-1.3.22-3.48-.27-6.58Zm68.06,29.67-21.85-52.79-1.57,41.21c-.14,3.79.17,6.16,1,7.14,1.07,1.31,2.83,2,5.25,2.11l2.17.08-.06,1.68L542.79,996l.06-1.68,2.17.08c2.61.1,4.48-.62,5.65-2.16.7-.94,1.11-3.14,1.25-6.59l1.53-40.29a14.14,14.14,0,0,0-.68-5.95,5.09,5.09,0,0,0-2.26-2.29,12.64,12.64,0,0,0-5.44-1.09l.06-1.69,17.46.66,20.53,49.1L607,936.7l17.46.66-.06,1.69-2.14-.08c-2.64-.1-4.53.62-5.68,2.15-.7,1-1.13,3.14-1.26,6.6L613.75,988c-.14,3.79.2,6.16,1,7.14q1.6,2,5.24,2.11l2.14.08-.06,1.68-26.2-1,.06-1.68,2.19.08c2.64.1,4.52-.62,5.65-2.16.7-.94,1.11-3.14,1.25-6.59l1.57-41.21-25.75,51Zm100.9-39.66q6.57.2,10.23,2.61a13.59,13.59,0,0,1,6.14,9.3,15.28,15.28,0,0,1-1.33,9.18,16.58,16.58,0,0,1-6.78,7.44q-4.66,2.8-14.9,4.63L644.93,996l-.29-1.65,2.28-.41q3.81-.68,5-3.41c.5-1.16.46-3.44-.15-6.85l-7-39.25q-1-5.64-2.57-6.88a6.69,6.69,0,0,0-5.55-1l-2.28.41-.3-1.67,26.24-4.68a52.45,52.45,0,0,1,12-1q7,.41,11.28,3.87a14.25,14.25,0,0,1,5.22,8.8,13.3,13.3,0,0,1-1.31,8.67A16.64,16.64,0,0,1,680.24,957.74ZM745,969.58l.54,1.59-25.06,8.45L719.9,978l2.08-.7q3.62-1.22,4.54-3.89c.38-1.15,0-3.49-1.19-7l-12.73-37.78a20.57,20.57,0,0,0-2.53-5.67,4.15,4.15,0,0,0-2.39-1.26,8.61,8.61,0,0,0-4.32.31l-2.08.7-.54-1.6,25.06-8.45.54,1.6-2.12.71c-2.38.8-3.88,2.1-4.5,3.86-.41,1.17,0,3.5,1.15,7l12.73,37.78a20.58,20.58,0,0,0,2.53,5.67,4.12,4.12,0,0,0,2.44,1.24,8.37,8.37,0,0,0,4.28-.28Zm55-22q7.81,5,14.33,5.84a24.22,24.22,0,0,0,12.87-1.81l.67,1.3a49.88,49.88,0,0,1-13.08,3.93,57.93,57.93,0,0,1-15,.58A66.4,66.4,0,0,1,786,954.78a43.73,43.73,0,0,1-11.78-.19,30.6,30.6,0,0,1-12.65-5.67,35,35,0,0,1-9.74-12.09q-6.37-12.28-2.63-24.53a29.31,29.31,0,0,1,15.07-18.11q10.73-5.57,22.82-1.51t18.52,16.46a32.67,32.67,0,0,1,3.56,20.55A31.1,31.1,0,0,1,800,947.55Zm30.16-96.38-1.05-1.32,17.09-13.62,1.06,1.32L845.4,839a6.25,6.25,0,0,0-2.48,5.86c.09,1.14,1.19,3,3.33,5.73l15.59,19.57q5.79,7.27,7.54,12.4A18.1,18.1,0,0,1,869.2,894q-1.95,6.23-9.2,12-7.91,6.3-14.18,6.81A18.92,18.92,0,0,1,834.15,910q-3.66-2.27-10.62-11l-15-18.86c-2.36-3-4.31-4.59-5.87-4.85s-3.24.32-5.06,1.77l-1.82,1.45-1.06-1.32,20.86-16.62,1.05,1.32-1.85,1.47c-2,1.59-2.93,3.35-2.78,5.29.08,1.32,1.21,3.34,3.36,6l16.76,21a59.81,59.81,0,0,0,5.64,6,17.73,17.73,0,0,0,6.38,4.17,12.93,12.93,0,0,0,6.56.23,17.09,17.09,0,0,0,7.3-3.65,22,22,0,0,0,6.82-8.81,14.12,14.12,0,0,0,.9-9.36q-1.2-4.31-7.32-12l-15.57-19.55c-2.4-3-4.24-4.62-5.5-4.86a6.72,6.72,0,0,0-5.38,1.72Zm36.46-31.29,18.46,15.93,8.86-10.27q3.45-4,3.41-6.37c0-2.11-1.31-4.37-3.86-6.82l1.1-1.27,16.27,14-1.1,1.27a23.61,23.61,0,0,0-5.21-2.81,5.71,5.71,0,0,0-3.65.4,13.69,13.69,0,0,0-4.44,3.74L887.57,838,903,851.27a19.47,19.47,0,0,0,4,3,2.94,2.94,0,0,0,1.9,0,7.93,7.93,0,0,0,2.65-2.29l6.84-7.93a27.82,27.82,0,0,0,4.41-6.23,11.21,11.21,0,0,0,.81-5.31,35.12,35.12,0,0,0-2.67-9.93l1.19-1.38,8.25,14.13-31.06,36-1.27-1.1,1.43-1.66a8.64,8.64,0,0,0,1.9-3.82,3.84,3.84,0,0,0-.35-2.93,21.94,21.94,0,0,0-4.18-4.28l-30.36-26.18c-3-2.56-5-3.83-6.25-3.83q-2.44,0-4.94,2.94l-1.43,1.66L852.57,831l31.06-36,10.68,8.31-1.17,1.35a21.15,21.15,0,0,0-6.44-2.76,7.26,7.26,0,0,0-4.35.78,20.75,20.75,0,0,0-4.71,4.41Zm66.33-26.82-3.15-15.22,8.87,18.9,7.78,5-1-31.69,13.91,28.66-3.7-30.66,14.55,17.85-6.55-31.07L977.27,769l-4.67-27.79c10.62,13.75,13.45,9.35,14.1,2.59a2.74,2.74,0,0,1-2,1.18c-2.32.23-5-2.35-5.92-5.76-.83-3.07.07-5.8,2-6.41a52.57,52.57,0,0,0-9.25-7.69c-7.07-23.3-14.85-43.34-24.1-57,8.94,21.84,12.8,35.33,16.13,55.46l-9.4,13.61c-2.33-4.09-10.79-14.65-18.43-18.88,4.3,5.57,9.81,20.16,11,28.94l-10.5,7.49c-7.43,5.51-14.9,11-22.31,16.51l-7.5-19.68c.64,8-1,15.61-.38,23.6l-.38.36ZM318.05,166.6v43.1H306.43A110.68,110.68,0,0,0,305.31,197a34.1,34.1,0,0,0-2.31-8.31,11.93,11.93,0,0,0-4.73-5.62q-2.88-1.65-11.07-1.65H278v28.88h2.76c3.24,0,5.5-1.15,6.8-3.45s2-6.38,2-12.26v-.91h9v48h-9c-.14-7.34-.78-12.13-2-14.32s-3.38-3.29-6.69-3.29H278v23.73c0,4.34.37,6.93,1.12,7.79s2.31,1.25,4.72,1.25h4V271.8H245.23V256.88h3.6c2.37,0,3.92-.42,4.66-1.23s1.12-3.16,1.12-7V190.41c0-4.08-.36-6.61-1.05-7.55s-2.3-1.41-4.84-1.41h-3.49V166.6ZM355.34,210h6.25c4.41,0,7.53-1,9.31-3.11s2.69-5.52,2.69-10.35c0-5.31-.82-9-2.47-11.19s-4.56-3.22-8.74-3.22h-7Zm-23.51,37.82V190.41c0-4.08-.36-6.59-1.05-7.53s-2.3-1.41-4.84-1.41h-3.59V166.6h49.31q13.08,0,19.52,6.51t6.44,19.68c0,5.91-1.32,10.9-4,14.93A20,20,0,0,1,382.44,216q7.31,1.29,9.9,6.53t2.58,24a31.2,31.2,0,0,0,.66,7.87c.43,1.44,1.16,2.17,2.17,2.17s1.69-.89,2.15-2.69a33.73,33.73,0,0,0,.71-8.1c0-.37,0-.94-.05-1.78s-.05-1.41-.05-1.83h7.24c0,.47,0,1.15.05,2.12s.05,1.65.05,2.09q0,14.7-4.13,21.33t-13.29,6.64q-9.74,0-14.2-6t-4.47-19v-8.78c0-7.06-.64-11.53-1.9-13.44s-3.9-2.88-7.9-2.88h-6.41v23.58c0,4.08.36,6.61,1.07,7.58s2.3,1.46,4.77,1.46h4.06V271.8h-43.1V256.88h3.59c2.51,0,4.11-.5,4.82-1.46S331.83,251.91,331.83,247.84ZM485,166.6v39.21H473.59a97.5,97.5,0,0,0-2.31-11.95,23.5,23.5,0,0,0-3-6.9,11.73,11.73,0,0,0-4.95-4.26q-2.94-1.25-9.45-1.25H442.56v28.88h2.76c3.24,0,5.52-1.15,6.82-3.45s2-6.38,2-12.26v-.91h9v48h-9c-.14-7.34-.78-12.13-2-14.32s-3.4-3.29-6.71-3.29h-2.87v32.78h12.67c4.91,0,8.29-.44,10.14-1.31a8.89,8.89,0,0,0,4.31-4.44,39,39,0,0,0,2.63-9.15,102.78,102.78,0,0,0,1.28-13.59h11.78V271.8h-75.6V256.88h3.59c2.37,0,3.92-.42,4.66-1.23s1.12-3.16,1.12-7V190.41c0-4.08-.36-6.61-1-7.55s-2.3-1.41-4.84-1.41h-3.49V166.6Zm51,0v14.85h-3.49c-2.58,0-4.22.5-4.93,1.49s-1.07,3.48-1.07,7.48v57.43c0,4.05.37,6.56,1.1,7.55s2.35,1.49,4.89,1.49h3.49V271.8H493.35V256.88h3.54q3.76,0,4.86-1.49c.73-1,1.09-3.5,1.09-7.55V190.41c0-4-.36-6.48-1.07-7.48s-2.33-1.49-4.88-1.49h-3.54V166.6Zm26.91,16.47c-3.92,0-6.92,2-9,5.86s-3.13,9.59-3.13,17v.44H540.12V166.6h75.39v39.81H605V206q0-11.1-3.15-17c-2.1-3.95-5.14-5.91-9.09-5.91h-3.13v64.77c0,4.05.37,6.56,1.1,7.55s2.35,1.49,4.89,1.49h6V271.8H554.5V256.88h5.59q3.6,0,4.75-1.25c.77-.86,1.14-3.45,1.14-7.79V183.06Zm85.58,88.74V256.88h3.22c2.72,0,4.38-.21,5-.65a2.88,2.88,0,0,0,.91-2.48,20.17,20.17,0,0,0-.12-2.35c-.09-.73-.2-1.46-.34-2.17L654.52,238H635.22L633,248c-.37,1.54-.64,2.74-.77,3.61A14.57,14.57,0,0,0,632,254a2.38,2.38,0,0,0,1.3,2.14,7.53,7.53,0,0,0,3.7.76h3.54V271.8h-32V256.88h2.65a5.49,5.49,0,0,0,4.57-2.54c1.23-1.67,2.3-4.44,3.2-8.26l18.83-79.49H663.7l16.78,79.17c1.16,5.2,2.19,8.36,3.13,9.46s2.46,1.65,4.54,1.65h3.76V271.8Zm2.71-48.93L644.62,191l-6.1,31.86Zm41.77,10.19h10.32q2.56,12.15,8.47,19t14,6.85a10.31,10.31,0,0,0,7.76-3,10.94,10.94,0,0,0,2.92-7.92q0-7.57-12.67-12.7c-2.74-1.07-4.89-2-6.46-2.69q-7.61-3.37-11.73-5.72a24.51,24.51,0,0,1-5.94-4.44,30.76,30.76,0,0,1-6.39-10.53,39.15,39.15,0,0,1-2.06-13.15q0-15.84,8-25.59t21.14-9.72a39.31,39.31,0,0,1,12.46,1.91,40.12,40.12,0,0,1,11.21,5.91l1.94-5.28H756.1v36.54h-12c-1.17-7.48-3.4-13-6.67-16.68s-7.63-5.49-13.1-5.49a10.55,10.55,0,0,0-7.9,3.21,11,11,0,0,0-3.1,7.89q0,7.06,11.89,10.66c1.94.63,3.45,1.1,4.54,1.46q16.58,5.61,23.26,13.91t6.67,22.61q0,15.92-8.2,25.38t-22.14,9.46A36.06,36.06,0,0,1,717,272.82a45.23,45.23,0,0,1-11.67-6.38l-2.65,5.83H692.9ZM871.57,166.6v43.1H859.94A110.68,110.68,0,0,0,858.82,197a34.13,34.13,0,0,0-2.31-8.31,11.93,11.93,0,0,0-4.73-5.62q-2.88-1.65-11.07-1.65h-9.18v28.88h2.76c3.24,0,5.5-1.15,6.8-3.45s2-6.38,2-12.26v-.91h9v48h-9c-.14-7.34-.78-12.13-2-14.32s-3.38-3.29-6.69-3.29h-2.87v23.73c0,4.34.37,6.93,1.12,7.79s2.31,1.25,4.72,1.25h4V271.8H798.74V256.88h3.59c2.37,0,3.92-.42,4.66-1.23s1.12-3.16,1.12-7V190.41c0-4.08-.36-6.61-1-7.55s-2.3-1.41-4.84-1.41h-3.49V166.6Zm78.16,64.46q-.43,21.13-9.09,32.52t-24.54,11.37q-18.55,0-28.55-14.43t-10-41.25q0-25.37,10.34-40.59t27.66-15.24a30.81,30.81,0,0,1,20.4,7.34l1.83-5.8h11.62v43.34H936.58q-1.87-15.17-5.73-22t-10.38-6.85q-7.55,0-11,9.38T906,219q0,21.45,3.54,30.87t11.53,9.41q7.23,0,11.89-7.61t5.21-20.57ZM722.92,793.35c35.66-19.42,34.78-19.18,56.48-48.81l-3.09,40.34c42.25-16.52,41.46-79.44,49.2-96.47l15.56,38.69c17.28-23.91,14.78-78.06,6.07-109.28,13.94,6.41,11.92,13.23,21.89,24.47,2.34-34.89-10-62.24-17.81-91.82,10.17,7.93,19,22.15,26.66,36.57,16.65-40.5-29.26-118.31-43.5-138.92,14.88-15.26,45.32-56.43,44.65-92.79-.89-48.86-42.53-53.51-78.39-33.59-34.31,19.05-45.78,41.75-93.66,25.44-92-31.34-133.74-33-227.37-.54-51.63,17.92-55.49-3.93-93.5-24.94-37.74-20.86-77.91-18.67-79.39,33.63-1.24,43.85,27.68,68.33,44.22,92.8-25.59,36.48-46.39,78.11-44.85,139.33l27.09-35.37c-6.24,33.63-16.46,48.41-17.78,88.17l21.92-23.67c-5.87,57.7-5.22,57.34,3.6,112.06,9.9-10.15,4.73-5.39,11.5-20.86,7.36-16.82,5.65-11.93,10.83-17.48,1.22,44.44,17.45,81.92,45.72,94l-1.34-39.85c22.46,30.1,22,29.84,56.06,48.93,27.83,15.6,3.8,23.95,41.3,66.33,1-3.33,1.61-8.44,2.65-11.45,2.69-7.78,1.7-5.87,5-10.62,6.08,22.15,17.64,30.2,26.55,46.17,10.32-11,4.62-7.54,9.55-20.95L589,907.62c23.46-7.79,34.61-23.08,47.85-46.06l5.12,24.21c12.62-16.71,22.83-24.91,35.43-50.31l4.2,24.27C722.2,805.23,693.27,809.49,722.92,793.35Zm-99.24-438-14.94-4.38,8.21,9c99.42,5.6,98.75,37,145.75,52.7-4.67-15.29-43.63-37.51-62.57-45.89-15.07-6.67-25.61-11-40.18-17.25-12.18-5.19-29.88-9.11-40.45-17,41.59,1.63,115.22,28.89,142.76,54.17,9.69,8.9,18.94,23.48,30.44,30.5,10.67-20.52,5-27.27,3.61-31.53L794,379.49c-.19-1.67-1.06-2.09-1.24-3.23,7.72-6.81,8.88-6.75,19.93-13.38.2-4.45-22.79-10.39,13.62-12.49l-.29-13h0l.27,11.52c.87-.58,2.13-2.58,2.61-1.75L840,342.57l1.58.58,17.08,6.19c9.5,45.56-15.1,64.22-30.07,95.22L802.24,429c22.35,35,57.31,69,57.83,113.9l-23.79-13.55,18.55,70.44-14.12,4.24-2.84,80.25c-13.81-11-7.78-12.77-22-21.77-5,34.56-8.61,67.75-26.7,89.56l-2.06-34.5c-17.27,8.1-20.86,23.68-35.08,38.34-18.08,18.64-22.9,13.27-45.14,25l-18.62,50.16-9.56-16.37c-10.28,18.05-21,32.36-29.87,46.15l-6.68-19.52c-18.25,15.58-31.37,34-51.48,43.1-18.43-15.49-27.89-28.38-46-43.18-8.69,10.47-3.29,8.06-8.12,17.87-11.37-11.68-23.33-28.68-27.35-46.39l-12.43,18.07c-5.37-13.2-9.11-27.35-14.35-40.09-9.06-22-10.56-8.59-31.81-21.63-23.62-14.51-34.37-41.65-52.52-52.63l-2.13,36.93c-5.48-18.78-11.79-7.48-22.67-68.61a75.51,75.51,0,0,0-3.39-13.61c-3.33-8.49-.41-3.1-5.1-8.7l-19.16,22L346.79,604l-4.7-.38-2.27,0c-.45,0-1.75.1-2.19.11-10.41.23-.52,4-8.68-.07l20.37-75.42L324.83,542.5c11.1-69.47,47.36-87.82,57.05-111.29-11.22,4.66-14.09,8.18-25.22,12.78-5.08-9.71-60.83-86.63-14.89-101.76,18.25-6,13.24,1.2,17.52,3.68,39.25,22.75,12.59,2.42,14.82,17.71,9,4.75,13.48,9.3,18.59,14.46,7.85,18.91-11.11-14-1.51,39.46,23.63-14.91,24.28-25.42,41.21-39.42,27.31-22.59,106.66-46.15,152.75-47.91,11.35-.43,16.79-.38,27.73,2.53l6.77,2.85c-57.54-2.23-69.19,2.74-116,23.59-27.64,12.33-71,29.66-80.17,53.4,26.48-10.68,43.59-28,67-37.48,22.51-9.15,72.61-12.51,84.26-21.7l-38.2.57c29.73-14.21,81.8-12.74,112.71,0ZM586.77,553.91a2.22,2.22,0,0,0,.21-.32c2.6-4.85,2.27-17.36,2-27.82-.31-10.14-.48-12.61,1-22.23.37-2.34.57-3.86,1.89-5.52,3,5,6.1,9.71,9.25,15.06,5.72,9.69,15.18,30,19.33,41a43.32,43.32,0,0,1,1.5,4.56c.16.6.34,1.65.51,2.18l.88,2c.05-.09.19.35.31.5.48-20.36-10-42.32-17.63-57.83-10.24-20.69-13.17-34.73-14.52-60.36-2.07,18.48-4,37.82-5.55,56.51-.82,10-3.49,17.71-4.39,27.25C581,535.1,584.69,549.13,586.77,553.91Zm161.57-18.08c4.2,4.81,4.8,3.48,7.36,10.49a21.93,21.93,0,0,1,.6,14.66c-3.16,9.49-4.22,19-11,24.37-4.45,3.52-8.47,2.45-14.88,2.81-10.73.6-13.11,11.93-25.67,8a50.71,50.71,0,0,1-6.37-2.47c-1.75-.82-4.81-2.1-5.95-3.64,8.65.27,13.52-2.53,17.83-7.12,6.76-7.18,2.71-10.79,1.38-19.27,15.87,1.53,26-1.55,33.68-14.81C748.64,543.11,747.61,542.76,748.34,535.83ZM688,515.21c14.14-.42,27,4.65,42,1.58,4.18-.86,7.77-2.42,11.5-3.17-2.8,6.83-6.63,6.82-14.32,8.68-7.89,1.91-9.14,3.43-12.16,10.5-5.49,12.87-7.58,19.78-19.09,25.73-6.85,3.54-15.06,1.9-18.7,4-5,2.86-5.42,9.55-5.27,17,.14,7-.69,14.47-.95,21.55q0,.53,0,1c43.16,2.86,77.71,23.22,88.43,56.49-17.91-12.61-18.21-24.35-49.17-30,6.59,26,11.16,37.75,9.32,67.61-.67-1-1.65-3.62-1.91-3l-4.25-9.35c-1-3.27-1.79-9-2.66-13.12-2-9.38-4.57-19.16-8.59-27.91-10.74-23.38-19-27.25-31.2-39.82,0,7.14,1,11.36-1.76,18.58-3.35-6.18-2.38-20.37-8.35-29.71-4.79-7.5-12.18-15.13-9.82-27.4,2-10.47,7.36-18.25,11.38-26.76,3.25-6.87,11.3-18.67,18.14-20.3a6.94,6.94,0,0,1,3.39-1.34C685.36,515.82,686.46,515.53,688,515.21Zm-1.34,14.13a64.12,64.12,0,0,1,9.09-2.87c1.46,6.25-3.26,10.23-8.3,11.5-7.35,1.86-10.85-2.55-10.83-9.26l-1.74-.07c-.52,2.2-4.38,2.63-4.93,10-.35,4.66.94,9.62,3.67,11.77,8,6.33,31.42-.78,35.19-21.51,2.2-12.11-8.07-11.62-17.11-8.94-3.37,1.16-1.25-.25-2,1.79a4,4,0,0,1,3.27,1c.8.7.28.18.77.95-1.5,1.33-5.82,4.3-7.44,4.6ZM798.89,643.47c.29-1.41,1.39-1.52,2.1-2.28-2.08,35.87-33.64,81.58-58.3,89.61l9.22-18.18-40.25,30c17.52-24.06,26-33.21,26.42-73.59,1,.73,2.26,1.71,3,2.31,2,1.77,1.09,14.36,3.87,22.16a16.51,16.51,0,0,0,9.11,9.73c17.76-4.62,33.77-44.84,42.84-57.46C797.24,645.23,798.61,644.86,798.89,643.47Zm5.92-25.18c-1.9-35-.6-32.79-11.66-62.27-5,8.65-10.54,23.14-15.1,34.61-10.34-16.83,17.28-46.73,4.12-90.65-1.29-4.32-12.05,14.39-13.67,10.37-10.69-26.49-28.65-46.25-35.61-63.26C779.36,461.49,848.21,549.17,804.82,618.29ZM679.77,664.62c9.46,12.8,19.41,29.45,18.38,54-18,17.83-32.51,25.34-40.19,35.63l31.71-9.56c-5.16,27.61-26,21.94-50.14,24.07l25.61,9c.86.31,2.72,2.61,3.34,1.46s2.28.84,3.3,1.54c-25.28,9.91-23.58,4-47.88,5.91l20.87,10.08c-26.83,8.33-41.24-2.27-46.29-25.75-9.15,0,1.4-14.87,7.58-18.89a19.8,19.8,0,0,0,4.88-4.55c2.65-3.85,2.45-8.36,6.55-13.26,2.77-3.32,6.85-5.75,10.61-8.54,4.65-3.44,6.16-5,9.24-10.15,13.28-22.06,4.47-43.12-1.95-43.93-2.54,6.54,3.66,8.37,5.11,14.9,3.05,13.78-9.23,19.79-18.65,21.73-9,1.85-8.32-1.22-17,8.51-11.89,13.37-25.54-.16-35.79-8-6.39-4.88-8.81-1.63-15.76-3.8l-1-.84-.26-.21c-.45-.37-.71-.59-1.13-.95-2.58-5.21-3.47-7.57-2.21-15.32.93-5.67,3.34-8.31,2.8-15.17-2.1,0-3.88,3.49-4.48,5.8-.78,3-.46,6.88-1.33,9.58-1.4,4.36-5,5.77-2.22,17a26.58,26.58,0,0,0,1.6,3.89l1.77,3.23c.83,2.77,8.94,13.5,10.54,15,4.13,3.79,10.69,6.29,14.17,10.42,3.66,4.34,5.66,12.73,10.15,15.57,1.83,1.16,2.16.94,3.36,3.06,1.34,2.37,7.4,14.89,2.15,14.89-5.12,22.76-21.84,31.56-46.14,26.37l19.08-12.1c-25.26,3.63-24.75,6.37-47.32-6.38L538,769.39c-27.37-2.71-33.77,1.71-42.89-23l33.06,6c-26.38-27.23-63.7-24.41-24.51-83.89-49.79,39.55-18,114.14,31.8,136.87,24.11,11,34.49-2.21,58-1.93,17.4.21,63.47,24.34,98.23-36.65C729.53,700.32,692,683.46,679.77,664.62ZM559.63,714.84c5.84-2.71,13.06,1.21,17.74,3.9,5.85,3.36,9.55,7.4,17.77,6.33,11.27-1.47,20.81-16.63,28.93-10,1.35,1.09,2.15,2.28,1.77,4.91-4.24,2.86-6.73.53-11.46,4.73l-8.12,8.66c-5.55,6.55-1.13,7-4.05,13.4-3.09,6.77-10-.16-10.27-.17-1.42,0-1.76,2.84-5.93,1.67-6.2-1.73-1.45-11.08-9.13-16.84-2.15-1.61-2.79-1.63-4.48-3.6-1.36-1.59-2.25-3.41-3.73-5C565.52,719.53,559.33,720.83,559.63,714.84ZM439,535.83c-4.2,4.81-4.8,3.48-7.36,10.49A21.93,21.93,0,0,0,431,561c3.16,9.49,4.22,19,11,24.37,4.45,3.52,8.47,2.45,14.88,2.81,10.73.6,13.11,11.93,25.67,8a50.72,50.72,0,0,0,6.37-2.47c1.75-.82,4.81-2.1,5.95-3.64-8.65.27-13.52-2.53-17.83-7.12-6.76-7.18-2.71-10.79-1.38-19.27-15.87,1.53-26-1.55-33.68-14.81C438.66,543.11,439.7,542.76,439,535.83Zm60.36-20.62c-14.14-.42-27,4.65-42,1.59-4.18-.86-7.77-2.42-11.5-3.17,2.8,6.83,6.63,6.82,14.32,8.68,7.89,1.91,9.14,3.43,12.16,10.5,5.49,12.87,7.58,19.78,19.09,25.73,6.85,3.54,15.06,1.9,18.7,4,5,2.86,5.42,9.55,5.27,17-.14,7,.69,14.47.95,21.55.31,8.38-1.21,12.69,1.8,20.54,3.35-6.18,2.38-20.37,8.35-29.71,4.79-7.5,12.18-15.13,9.82-27.4-2-10.47-7.36-18.25-11.38-26.76-3.25-6.87-11.3-18.67-18.14-20.3a6.93,6.93,0,0,0-3.39-1.34C501.95,515.82,500.84,515.53,499.33,515.21Zm1.34,14.13a64.11,64.11,0,0,0-9.09-2.87c-1.46,6.25,3.26,10.23,8.3,11.5,7.34,1.86,10.85-2.55,10.83-9.26l1.74-.07c.52,2.2,4.38,2.63,4.93,10,.35,4.66-.94,9.62-3.67,11.77-8,6.33-31.42-.78-35.19-21.51-2.2-12.11,8.07-11.62,17.11-8.94,3.37,1.16,1.25-.25,2,1.79a4,4,0,0,0-3.27,1c-.8.7-.28.18-.77.95,1.5,1.33,5.82,4.3,7.44,4.6ZM414.55,641c10.33-7.09,11.33-11.22,18.87-21.07,8.83-11.54,12.08-11.61,19-22.21C430.39,605.48,421,615.67,414.55,641Zm318.2-42.93c6.67,11.4,11.28,11.69,19.73,22.89,11.17,14.81,4.71,12.81,19.27,20.19C763.54,620.08,754.88,603.64,732.75,598.11ZM507.41,440.19c23.17-10.21,34.07-15.61,42.15-41.45l-21.23,19.7C514.43,430.41,516,419.93,507.41,440.19ZM640.32,495c-1.82-5.56-25.15-46.52-29.86-51.4C610.1,469.65,626.48,489.23,640.32,495Zm-93.54,2.66c6.67-10,38.17-28.81,26.44-53.52-5.72,9.14-7,16.94-13.28,26.41C552.54,481.62,546.65,480.91,546.78,497.61Zm132.08-56.83c-7.22-18-4.56-8.42-20.62-22-9.28-7.85-11.17-15.79-22.66-19.12C643.31,422.71,655.41,431.05,678.86,440.79Zm-22,37.84c-3.61-28.54-12-24.12-24.15-38.36-13.63-16-5-31.61-22.21-41.71C604.91,443.25,637.92,455.66,656.87,478.63Zm-127.8-.79c14.46-10.65,59.09-49.28,44-78.48-16.93,13.1-4.51,23.26-20.18,39.9C539.28,453.73,532.46,449,529.07,477.84Zm-72.63-55.09c16,11.82,41.42-9.57,54.91-17,12.85-7.11,52.8-20.8,56.15-23.57-26.91-19.15-72,22.79-83,29.12C474.94,416.78,465.83,418.19,456.44,422.75ZM618,382.14c7.17,5.29,44.23,16.78,56.92,24.09,13.08,7.53,38,28.51,55.13,16.67-58.39-23.19-47.26-34.2-79-41.79C638.45,378.09,627.09,376.27,618,382.14ZM430.58,515.08c16.82-4.93,33.61-17.67,53.49-19.38,22.61-1.94,39.86,16.83,54.3,23.83C529,488,486.43,480.44,453,493.7c4.29-15.64,16.37-16,21.11-40.59C461.67,476.53,439.15,481.14,430.58,515.08Zm36.93,179.27c1.41-2.2,1.32-.5,3.85-8,10.25-30.59,2.22-45.76,44.14-83.95-38.06,1.28-80.64,20.46-88.85,55.13,13.41-10.66,22.16-26,48.64-28.22C470.94,646.94,460.13,674.59,467.51,694.35Zm-117.28-199c10.24-9.83,20.91-24.31,32-30.71C374,487.36,361,504.18,369.71,521.55c6.39-18,18.51-48.39,29.24-61.74a117.71,117.71,0,0,1,22.58-22.12C434.69,427.58,438,427.47,443.14,413,396.49,434.94,365.17,442.71,350.23,495.32ZM819.72,524c0-23.48-9.87-43.39-17.46-59.67,17.8,9.44,18.16,18.66,31.61,28.21-6.25-24.55-17.11-40.08-32.75-50.16C785,432,759.88,420.05,742,413.38c14.22,29.41,30.85,21.27,46.88,49.37C800,482.28,809.26,508.71,819.72,524ZM388.41,643.47c-.29-1.41-1.39-1.52-2.1-2.28,2.08,35.87,33.64,81.58,58.3,89.61l-9.22-18.18,40.25,30c-17.52-24.06-26-33.21-26.42-73.59-1,.73-2.26,1.71-3,2.31-2.05,1.77-1.09,14.36-3.87,22.16a16.51,16.51,0,0,1-9.11,9.73c-17.76-4.62-33.77-44.84-42.84-57.46C390.06,645.23,388.69,644.86,388.41,643.47Zm-5.92-25.18c1.9-35,.6-32.79,11.66-62.27,5,8.65,10.54,23.14,15.1,34.61,10.34-16.83-17.28-46.73-4.12-90.65,1.3-4.32,12.05,14.39,13.67,10.37,10.69-26.49,28.65-46.25,35.61-63.26C407.94,461.49,339.09,549.17,382.49,618.29ZM361,727.17c-2.05,3.46-5.17,6.47-7.92,9.29l-15.39,15.78-3.51-21.76c-2.9-18-6.61-37.14-7.4-55.33a236.37,236.37,0,0,1,.58-26.85l-19.82,21.4,1-29.74a203,203,0,0,1,4.79-38.13l-13.32,17.39-.79-31.42c-1.35-53.79,13.34-96.15,42.4-139.49-3-4-6.18-8-9.27-11.94A249.06,249.06,0,0,1,317,414.93c-11.53-18.49-17.74-37.9-17.12-59.85.56-19.94,6.63-40.65,25.23-50.9,22-12.1,50.21-3.41,70.61,7.87a245.91,245.91,0,0,1,25.51,16.72c5.27,3.82,11,8.13,17,10.73,13.31,5.76,29,1.23,42-3.27,95-33,139.93-31.75,234.59.52,42.31,14.42,50.58-5.69,84.69-24.63,20.77-11.53,49.27-18.42,71-5.41C887.78,317,894,336,894.39,355.2c.28,15.22-4.07,30.53-10.13,44.37a206.23,206.23,0,0,1-31.57,49.72c4.21,6.6,8.18,13.44,11.91,20.21A350.64,350.64,0,0,1,884.27,511c9.17,23.49,18.19,55.84,8.14,80.3l-9,21.8-.34-.63a143.72,143.72,0,0,1,1.26,30.61l-1.78,26.44-14-15.77c2.22,28.93-.71,61.13-14.27,79.89L842.54,750l-9.93-24.71a172.9,172.9,0,0,1-8.16,27c-7.77,19.13-20.07,35.24-39.83,43l-16.45,6.43,1.71-22.24-.82.76c-10.1,9.19-24.6,16.42-36.56,22.94-1.63.89-9.21,5-10,6.91a28.64,28.64,0,0,0-1,4.49,80.49,80.49,0,0,1-3.05,11.26c-5.08,14.3-14.7,28.54-23.7,40.61l-15.43,20.69-3.55-20.51c-2.57,3.53-5.32,7-8.28,10.61-4.2,5.07-8.44,10-12.41,15.3L640.38,912l-4.61-21.8c-9.74,12.54-21.39,22.2-39,28.06l-6.89,2.29-32.38-36a65.19,65.19,0,0,1-5.94,7l-10.39,11.08-7.4-13.26a133.47,133.47,0,0,0-9.86-14.49c-1.92-2.58-3.7-5.07-5.34-7.53L514,881.89l-13-14.75c-9.51-10.74-18.44-22.87-23.42-36.44a98.24,98.24,0,0,1-3.45-12,46.8,46.8,0,0,0-1.84-6.79c-1.63-4-6.09-6.71-9.7-8.74-11.41-6.4-24.89-13.34-34.69-22-1.27-1.13-2.51-2.32-3.73-3.55l.8,23.91-16-6.87C382.09,783.12,367.68,755.62,361,727.17ZM598,112.7c-127.27,0-216.53,7.27-338.22-33.9L167.16,200.62S247.29,305.73,215,428.53s-88.43,362,6.77,455.29C294,954.53,419,1021.43,509.46,1069.55c43.84,23.33,78.07,54.62,88.55,65.09,10.47-10.47,44.7-41.76,88.54-65.09C777,1021.43,902,954.53,974.2,883.82c95.21-93.26,39-332.49,6.77-455.29s47.87-227.91,47.87-227.91L936.22,78.8C814.53,120,725.27,112.7,598,112.7Zm0-18.13c58.39,0,117.59,2.2,175.83-1.85,54.35-3.78,104.91-13.6,156.57-31.09L943,57.37,1052.22,201l-8.52,11.18c-13.49,17.82-26.07,43.79-33.91,64.42C991.83,323.89,986,375,999,424.3c32.65,124.3,91.91,371.84-11.72,473.35-17.45,17.1-38.18,32.91-57.87,47.34-27,19.79-55,38.48-83.29,56.36-48.83,30.84-99.88,58.09-150.84,85.2-29,15.4-60.84,38.52-84.19,61.86L598,1161.48l-13.07-13.07c-23.34-23.34-55.23-46.46-84.18-61.86-51-27.11-102-54.36-150.84-85.2-28.31-17.88-56.29-36.57-83.29-56.36-19.69-14.43-40.41-30.24-57.87-47.34C105.11,796.14,164.36,548.6,197,424.3c13-49.34,7.15-100.41-10.81-147.67C178.37,256,165.79,230,152.3,212.21L143.78,201,253,57.37l12.6,4.26c51.66,17.48,102.22,27.3,156.57,31.09C480.41,96.77,539.61,94.57,598,94.57Z"/></g></svg>