<svg xmlns="http://www.w3.org/2000/svg" viewBox="0 0 1200 1200"><defs><style>.cls-1{fill:#fc0;}.cls-1,.cls-3{fill-rule:evenodd;}.cls-2{fill:none;stroke:#fc0;stroke-miterlimit:22.93;stroke-width:0.57px;}.cls-3{fill:#039;}</style></defs><title>MAVUNGWANA FC - ELEPHANTS 2 team colur</title><g id="MAVUNGWANA_FC_-_ELEPHANTS_2_team_colur" data-name="MAVUNGWANA FC - ELEPHANTS 2 team colur"><path class="cls-1" d="M262.56,89,185.29,190.61c12.27,18.79,23.25,41.85,30.68,61.2,21,54.61,27.41,113.71,12.42,170.76C200.23,529.78,140.82,773,230.47,860.84c40.54,39.71,92.68,74,141.15,103.34,46.55,28.15,94.45,53.88,142.46,79.43a419.22,419.22,0,0,1,80.29,56.4,419.24,419.24,0,0,1,80.29-56.4c48-25.54,95.9-51.28,142.46-79.43,48.47-29.3,100.61-63.62,141.15-103.34,89.65-87.82,30.24-331.06,2.07-438.27-15-57.06-8.57-116.16,12.43-170.77,7.43-19.34,18.41-42.4,30.68-61.19L926.17,89c-50.44,16-100.34,25.24-153.52,28.94-59.12,4.11-119,1.94-178.28,1.94S475.21,122,416.09,117.91C362.91,114.21,313,105,262.56,89Zm690.25,647.4-11.12,10.8c3.82,5.74,4.21,4.28,10.71,1.78C955.28,741.6,956.92,741.15,952.81,736.37Zm-191,150.76a16.67,16.67,0,0,0-9.1,11.39q-2.23,9.51,4.8,23.09,6.89,13.28,16.36,17.5a16.13,16.13,0,0,0,14.62-.55,17.11,17.11,0,0,0,9.37-11.89q2.07-9.37-4.55-22.13-5.1-9.82-11.56-15a19.08,19.08,0,0,0-10.08-4.45A17.59,17.59,0,0,0,761.77,887.14Zm-103.89,91a45.74,45.74,0,0,0,10.47-.62c5.41-1,9.31-2.92,11.72-5.86a11.63,11.63,0,0,0,2.64-9.78,13.41,13.41,0,0,0-3.14-6.46,13.1,13.1,0,0,0-7.19-4,27.5,27.5,0,0,0-11.08,0c-1.85.33-3.43.64-4.74.93a24.07,24.07,0,0,0-3.12.89Zm-5.18-29a34.13,34.13,0,0,0,3.88-.2c1.44-.15,3-.38,4.71-.68,4.36-.78,7.56-1.82,9.58-3.16a10.64,10.64,0,0,0,4.27-5.23,12.29,12.29,0,0,0,.61-6.67,11.81,11.81,0,0,0-6-8.31q-5-3-13.35-1.5a31,31,0,0,0-7.9,2.42Zm-145.49,4.65L503,927l-16.38,21.64Zm-115-89.41a16.28,16.28,0,0,0-14.45-2.43q-9.45,2.79-17.78,15-8.54,12.48-7.8,22.84a16,16,0,0,0,7.32,12.52,17.9,17.9,0,0,0,15.68,2.5q8.5-2.4,16.75-14.45,8.93-13.06,8.18-23Q399.51,869.3,392.24,864.32Zm-157-127.84,11.12,10.8c-3.82,5.74-4.21,4.28-10.71,1.79C232.74,741.7,231.11,741.25,235.21,736.48Zm23.54,46.26,3.15-15.23L253,786.42l-7.78,5,1-31.69L232.38,788.4l3.69-30.66-14.54,17.85,6.54-31.07-13.68,14.15,4.66-27.79c-10.62,13.76-13.44,9.35-14.1,2.59a2.74,2.74,0,0,0,2,1.18c2.32.22,5-2.35,5.92-5.76.83-3.07-.08-5.8-2-6.41a52.59,52.59,0,0,1,9.24-7.69c7.06-23.3,14.84-43.35,24.08-57-8.93,21.84-12.79,35.33-16.11,55.46l9.41,13.61c2.33-4.09,10.78-14.65,18.43-18.89-4.3,5.57-9.8,20.16-11,28.95l10.5,7.49c7.43,5.51,14.91,11,22.32,16.5l7.49-19.68c-.64,8,1,15.61.38,23.6l.38.36Zm29.44,72.69,21.12-53.08L279.47,830.8c-2.74,2.62-4.17,4.54-4.29,5.79-.15,1.69.62,3.42,2.29,5.17l1.5,1.57-1.21,1.16L262.94,829l1.21-1.16,1.5,1.57q2.7,2.83,5.56,2.38c1.16-.18,3-1.48,5.49-3.86l29.18-27.82a14.14,14.14,0,0,0,3.66-4.74,5.08,5.08,0,0,0,0-3.22,12.63,12.63,0,0,0-3.14-4.58l1.23-1.17L319.66,799l-19.5,49.52,50.14-17.39,12.06,12.64L361.13,845l-1.48-1.55q-2.73-2.87-5.57-2.42c-1.17.19-3,1.47-5.51,3.86L319.4,872.68c-2.74,2.62-4.15,4.56-4.25,5.83q-.22,2.53,2.28,5.16l1.48,1.55-1.21,1.16-18.09-19,1.21-1.16,1.51,1.58q2.73,2.87,5.56,2.38c1.16-.18,3-1.48,5.49-3.86l29.84-28.46-54,18.61Zm106.63,6.64q9.92,6.79,12,19.28t-5.59,23.76q-7.95,11.61-20.51,14.25a29.65,29.65,0,0,1-35.52-24q-2-12.37,6.08-24.24,8.3-12.13,21.8-14.14A29.55,29.55,0,0,1,394.81,862.07Zm75.72,42.71L409.73,941l23.06,10.41q5.31,2.4,9.19,1.35c2.6-.7,5.7-3.07,9.29-7.14l1.26.86-9.37,13.7-45.79-20.67.69-1.53,59.26-35.06-18-8.12q-4.48-2-6.93-2a7.61,7.61,0,0,0-4.35,1.44c-1.26.91-2.94,2.92-5,6l-1.57-.71L428.94,886Zm37.11,52.52-23.19-5.71L478.06,960a15.17,15.17,0,0,0-2.79,4.85,3.13,3.13,0,0,0,.71,2.72c.7.91,2.46,1.82,5.31,2.75l-.4,1.63L462,967.34l.4-1.63c2.61.16,4.37,0,5.28-.54,1.85-1,4.22-3.5,7.11-7.38L508,913.68l1.54.38,8.58,55q1,6.64,2.65,8.92a9.67,9.67,0,0,0,5.23,3.43l-.4,1.63L502,977.18l.4-1.63c2.41.47,4.13.46,5.14,0a3.13,3.13,0,0,0,1.88-2.16c.32-1.3.22-3.48-.27-6.58ZM575.71,987l-21.85-52.79-1.57,41.21c-.14,3.79.17,6.16,1,7.14,1.07,1.31,2.83,2,5.25,2.11l2.17.08-.06,1.68-21.45-.81.06-1.68,2.17.08c2.61.1,4.48-.62,5.65-2.16.7-.94,1.11-3.14,1.25-6.59L549.82,935a14.14,14.14,0,0,0-.68-5.95,5.09,5.09,0,0,0-2.26-2.29,12.64,12.64,0,0,0-5.44-1.09l.06-1.69,17.46.66,20.53,49.1,23.84-47.42,17.46.66-.06,1.69-2.14-.08c-2.64-.1-4.53.62-5.68,2.15-.7,1-1.13,3.14-1.26,6.6l-1.53,40.29c-.14,3.79.2,6.16,1,7.14q1.6,2,5.24,2.11l2.14.08-.06,1.68-26.2-1,.06-1.68,2.19.08c2.64.1,4.52-.62,5.65-2.16.7-.94,1.11-3.14,1.25-6.59L603,936.05l-25.75,51Zm100.9-39.66q6.57.2,10.23,2.61a13.59,13.59,0,0,1,6.14,9.3,15.28,15.28,0,0,1-1.33,9.18,16.58,16.58,0,0,1-6.78,7.44q-4.66,2.8-14.9,4.63L641.3,985.6l-.29-1.65,2.28-.41q3.81-.68,5-3.41c.5-1.16.46-3.44-.15-6.85l-7-39.25q-1-5.64-2.57-6.88a6.69,6.69,0,0,0-5.55-1l-2.28.41-.3-1.67,26.24-4.68a52.45,52.45,0,0,1,12-1q7,.41,11.28,3.87a14.25,14.25,0,0,1,5.22,8.8,13.3,13.3,0,0,1-1.31,8.67A16.64,16.64,0,0,1,676.6,947.31Zm64.72,11.84.54,1.59-25.06,8.45-.54-1.59,2.08-.7q3.62-1.22,4.54-3.89c.38-1.15,0-3.49-1.19-7L709,918.24a20.57,20.57,0,0,0-2.53-5.67,4.15,4.15,0,0,0-2.39-1.26,8.61,8.61,0,0,0-4.32.31l-2.08.7-.54-1.6,25.06-8.45.54,1.6-2.12.71c-2.38.8-3.88,2.1-4.5,3.86-.41,1.17,0,3.5,1.15,7L730,953.23a20.58,20.58,0,0,0,2.53,5.67,4.12,4.12,0,0,0,2.44,1.24,8.37,8.37,0,0,0,4.28-.28Zm55-22q7.81,5,14.33,5.84a24.22,24.22,0,0,0,12.87-1.81l.67,1.3a49.88,49.88,0,0,1-13.08,3.93,57.93,57.93,0,0,1-15,.58,66.4,66.4,0,0,1-13.78-2.61,43.73,43.73,0,0,1-11.78-.19A30.6,30.6,0,0,1,758,938.51a35,35,0,0,1-9.74-12.09q-6.37-12.28-2.63-24.53a29.31,29.31,0,0,1,15.07-18.11q10.73-5.57,22.82-1.51T802,898.73a32.67,32.67,0,0,1,3.56,20.55A31.1,31.1,0,0,1,796.33,937.13Zm30.16-96.38-1.05-1.32,17.09-13.62,1.06,1.32-1.82,1.45a6.25,6.25,0,0,0-2.48,5.86c.09,1.14,1.19,3,3.33,5.73l15.59,19.57q5.79,7.27,7.54,12.4a18.1,18.1,0,0,1-.18,11.39q-1.95,6.23-9.2,12-7.91,6.3-14.18,6.81a18.92,18.92,0,0,1-11.67-2.74q-3.66-2.27-10.62-11l-15-18.86c-2.36-3-4.31-4.59-5.87-4.85s-3.24.32-5.06,1.77l-1.82,1.45-1.06-1.32,20.86-16.62,1.05,1.32L811.13,853c-2,1.59-2.93,3.35-2.78,5.29.08,1.32,1.21,3.34,3.36,6l16.76,21a59.81,59.81,0,0,0,5.64,6,17.73,17.73,0,0,0,6.38,4.17,12.93,12.93,0,0,0,6.56.23,17.09,17.09,0,0,0,7.3-3.65,22,22,0,0,0,6.82-8.81,14.12,14.12,0,0,0,.9-9.36q-1.2-4.31-7.32-12l-15.57-19.55c-2.4-3-4.24-4.62-5.5-4.86a6.72,6.72,0,0,0-5.38,1.72ZM863,809.46l18.46,15.93,8.86-10.27q3.45-4,3.41-6.37c0-2.11-1.31-4.37-3.86-6.82l1.1-1.27,16.27,14-1.1,1.27a23.61,23.61,0,0,0-5.21-2.81,5.71,5.71,0,0,0-3.65.4,13.69,13.69,0,0,0-4.44,3.74l-8.86,10.27,15.41,13.29a19.47,19.47,0,0,0,4,3,2.94,2.94,0,0,0,1.9,0,7.93,7.93,0,0,0,2.65-2.29l6.84-7.93a27.82,27.82,0,0,0,4.41-6.23A11.21,11.21,0,0,0,920,822a35.12,35.12,0,0,0-2.67-9.93l1.19-1.38,8.25,14.13-31.06,36-1.27-1.1,1.43-1.66a8.64,8.64,0,0,0,1.9-3.82,3.84,3.84,0,0,0-.35-2.93,21.94,21.94,0,0,0-4.18-4.28L862.83,820.9c-3-2.56-5-3.83-6.25-3.83q-2.44,0-4.94,2.94l-1.43,1.66-1.28-1.11,31.06-36,10.68,8.31-1.17,1.35a21.15,21.15,0,0,0-6.44-2.76,7.26,7.26,0,0,0-4.35.78,20.75,20.75,0,0,0-4.71,4.41Zm66.33-26.82-3.15-15.22,8.87,18.9,7.78,5-1-31.69,13.91,28.66L952,757.63l14.55,17.85L960,744.41l13.69,14.15L969,730.76c10.62,13.75,13.45,9.35,14.1,2.59a2.74,2.74,0,0,1-2,1.18c-2.32.23-5-2.35-5.92-5.76-.83-3.07.07-5.8,2-6.41a52.57,52.57,0,0,0-9.25-7.69c-7.07-23.3-14.85-43.34-24.1-57,8.94,21.84,12.8,35.33,16.13,55.46l-9.4,13.61c-2.33-4.09-10.79-14.65-18.43-18.88,4.3,5.57,9.81,20.16,11,28.94l-10.5,7.49c-7.43,5.51-14.9,11-22.31,16.51l-7.5-19.68c.64,8-1,15.61-.38,23.6l-.38.36ZM529.37,899.09v-7.58h3.88c3,0,4.79-.35,5.5-1s1.06-2.4,1.06-5.12V846.07c0-2.72-.35-4.43-1.06-5.12s-2.55-1-5.5-1h-3.88v-7.53h62.06V860h-7.67a50.14,50.14,0,0,0-.68-8.87,20.54,20.54,0,0,0-2.09-6.23,8.24,8.24,0,0,0-4.76-3.85q-3.31-1.17-9.95-1.16H553.85v20.49h1.71q6.24,0,8.21-2.16c1.29-1.44,2.09-4.76,2.42-9.93l7.58,0v33.45l-7.58,0q-.45-8.6-2.4-11.09t-8.14-2.5h-1.79v17.29c0,2.69.36,4.39,1.09,5.11s2.59,1.06,5.57,1.06h4.66v7.58Zm123.72-25.84h8.55q-1,13.3-8.19,20.57T634,901.08a36.61,36.61,0,0,1-13.26-2.29,29.76,29.76,0,0,1-10.58-7A34,34,0,0,1,602.34,880a38.43,38.43,0,0,1-2.65-14.35,37.94,37.94,0,0,1,2.57-14.16A34.57,34.57,0,0,1,610,839.88a31.75,31.75,0,0,1,23.06-9.51A30.11,30.11,0,0,1,643.16,832a33.85,33.85,0,0,1,9.3,5.17l2-6h7.19v27.33H654q-1.17-9.57-6.15-14.82A16.88,16.88,0,0,0,635,838.53a16.7,16.7,0,0,0-14.4,7.33q-5.22,7.33-5.22,20.31,0,12.33,5.19,19.06t14.62,6.73a15.68,15.68,0,0,0,11.9-4.79Q651.63,882.38,653.09,873.25ZM370.51,261.38V246.45h2.59c2.19,0,3.52-.21,4-.65a3.28,3.28,0,0,0,.73-2.48c0-.81,0-1.59-.1-2.35s-.16-1.46-.27-2.17l-2.06-11.27H359.9l-1.8,10c-.3,1.54-.51,2.74-.61,3.61a18.14,18.14,0,0,0-.17,2.38,2.51,2.51,0,0,0,1,2.14,5.08,5.08,0,0,0,3,.76h2.85v14.93H308.05V246.45h2.13q2.89,0,3.82-1.25c.61-.86.92-3.45.92-7.79v-64l-14.74,88h-13.5l-14-87.83v63.86c0,4.1.29,6.61.86,7.58s1.86,1.46,3.87,1.46h2.13v14.93H253.75V246.45h2.64c2,0,3.3-.5,3.87-1.46s.86-3.48.86-7.58V180c0-4.08-.29-6.61-.84-7.55S258.43,171,256.4,171h-2.64V156.17H286l9.77,62.71,10.57-62.71h33.29V171h-2.85c-2,0-3.26.44-3.83,1.33s-.86,3.45-.86,7.63v57.43c0,4.23.29,6.82.87,7.71s1.86,1.33,3.82,1.33h3.8c1.46,0,2.67-.84,3.67-2.54a27.59,27.59,0,0,0,2.57-8.26L362,156.17h20.82l13.48,79.17c.93,5.2,1.76,8.36,2.52,9.46a4.11,4.11,0,0,0,3.65,1.65h3v14.93Zm2.17-48.93-5.23-31.86-4.9,31.86Zm113.17,13.93c0,8.13.69,13.8,2.07,17.07s3.72,4.91,7,4.91c3.92,0,6.72-1.62,8.42-4.84s2.56-8.5,2.56-15.84V180c0-4.13-.29-6.67-.84-7.58s-1.83-1.39-3.85-1.39H498.3V156.17H525V171h-2.64c-2,0-3.3.47-3.87,1.41s-.86,3.32-.86,7.08V230.3q0,16.82-6.66,25.62t-19.52,8.76q-11.69,0-18.1-8.65c-4.27-5.78-6.41-13.91-6.41-24.44V180c0-4-.3-6.48-.89-7.48S464.14,171,462.1,171h-3.55a4.68,4.68,0,0,0-4.12,2.12c-.94,1.39-1.77,4.08-2.46,8.08l-14.5,80.17H417.83l-13.33-77.5a33.31,33.31,0,0,0-2.86-9.75c-1.13-2.06-2.56-3.11-4.26-3.11h-2.72V156.17h34.47V171H426c-1.64,0-2.76.29-3.33.89a4.37,4.37,0,0,0-.86,3.08,34.8,34.8,0,0,0,.26,3.92v.16l9.09,53.74,9.55-54c.13-.86.24-1.62.31-2.27s.1-1.15.1-1.57a4.43,4.43,0,0,0-.86-3.14c-.57-.55-1.73-.84-3.46-.84h-2.89V156.17h60V171h-3.19c-2.06,0-3.39.5-4,1.49s-.86,3.48-.86,7.48Zm69.79-70.21L576.84,227V180c0-4.23-.3-6.8-.9-7.66S574.06,171,572.1,171h-3.27V156.17h25.31V171h-2.06c-2,0-3.3.47-3.87,1.41s-.86,3.48-.86,7.55v81.4H567.61l-22.38-75.44v51.47c0,4.1.29,6.61.86,7.58s1.87,1.46,3.87,1.46h2.56v14.93H527.15V246.45H530q3.07,0,3.95-1.49c.59-1,.87-3.5.87-7.55V180c0-4-.29-6.48-.86-7.48S532,171,530,171h-2.8V156.17Zm75.81,64.07V205.39h31.84v14.85h-2.06c-2,0-3.26.44-3.85,1.31s-.89,3.42-.89,7.66v33.25H646L644.13,256a33.24,33.24,0,0,1-8.54,6.64,18.83,18.83,0,0,1-8.51,2.17q-13.36,0-21-14.93t-7.69-41.06q0-25.17,8.25-40.57t21.83-15.4a19.17,19.17,0,0,1,8.48,1.83,21.14,21.14,0,0,1,7,5.67l1.39-5.83h9.17v43.34H644.39c-.94-10.12-2.43-17.43-4.45-22s-4.73-6.85-8.16-6.85q-5.86,0-8.49,9.31t-2.64,30.22q0,21.13,2.63,30.56t8.42,9.41q3.77,0,5.1-2.12c.9-1.39,1.34-4.44,1.34-9.15V229.2c0-4-.29-6.48-.86-7.48s-1.89-1.49-4-1.49ZM688,156.17V171a3.62,3.62,0,0,0-2.79.91,4.63,4.63,0,0,0-.82,3.06q0,1.1.09,2.12t.26,2l8.16,53.3,6.66-49.72c-.41-4.55-1.12-7.58-2.09-9.15s-2.66-2.38-5-2.48V156.17h28.4V171H719c-1.7,0-2.85.29-3.42.89a4.37,4.37,0,0,0-.86,3.08c0,.58,0,1.15.07,1.73s.13,1.39.27,2.35l7.12,53.3,7.38-53.45c.1-.78.19-1.49.24-2.14s.09-1.25.09-1.78a4.28,4.28,0,0,0-.9-3.14c-.6-.55-1.89-.84-3.87-.84V156.17H747V171a4.62,4.62,0,0,0-4.15,2.25c-.94,1.52-1.72,4.16-2.3,7.95l-12,80.17h-18.3l-5.66-42.82-5.82,42.82H680.41L668.55,184q-1.09-6.9-2.76-9.88a5.41,5.41,0,0,0-4.45-3.14V156.17Zm85.33,56.28-5.23-31.86-4.9,31.86Zm58.85-56.28L853.41,227V180c0-4.23-.3-6.8-.9-7.66s-1.87-1.31-3.83-1.31H845.4V156.17h25.31V171h-2.06c-2,0-3.3.47-3.87,1.41s-.86,3.48-.86,7.55v81.4H844.19l-22.38-75.44v51.47c0,4.1.29,6.61.86,7.58s1.87,1.46,3.87,1.46h2.56v14.93H771.18V246.45h2.59c2.19,0,3.52-.21,4-.65a3.28,3.28,0,0,0,.73-2.48c0-.81,0-1.59-.1-2.35s-.16-1.46-.27-2.17l-2.06-11.27h-15.5l-1.8,10c-.3,1.54-.51,2.74-.61,3.61a18.12,18.12,0,0,0-.17,2.38,2.51,2.51,0,0,0,1,2.14,5.08,5.08,0,0,0,3,.76h2.85v14.93H739.13V246.45h2.13c1.46,0,2.67-.84,3.67-2.54a27.61,27.61,0,0,0,2.57-8.26l15.13-79.49h20.82l13.48,79.17c.93,5.2,1.76,8.36,2.52,9.46a4.11,4.11,0,0,0,3.65,1.65h3.43q3.07,0,3.95-1.49c.59-1,.87-3.5.87-7.55V180c0-4-.29-6.48-.86-7.48s-1.89-1.49-4-1.49h-2.8V156.17Zm69.37,105.21V246.45h2.59c2.19,0,3.52-.21,4-.65a3.28,3.28,0,0,0,.73-2.48c0-.81,0-1.59-.1-2.35s-.16-1.46-.27-2.17l-2.06-11.27H891l-1.8,10c-.3,1.54-.51,2.74-.61,3.61a18.11,18.11,0,0,0-.17,2.38,2.51,2.51,0,0,0,1,2.14,5.08,5.08,0,0,0,3,.76h2.85v14.93H869.52V246.45h2.13c1.46,0,2.67-.84,3.67-2.54a27.6,27.6,0,0,0,2.57-8.26L893,156.17h20.82l13.48,79.17c.93,5.2,1.76,8.36,2.52,9.46a4.11,4.11,0,0,0,3.65,1.65h3v14.93Zm2.17-48.93-5.23-31.86-4.9,31.86ZM609.85,772.58c-.1.1.29.29.31.31ZM522.11,439.15l9.54-11.64c-3.87,11.38-4.08,17.27-1.49,29.25L543.44,448c-7.4,10-12.26,12.44-8.07,28.89-5-3.28-2.68-4.19-7.15-3.93-6.07,8-3.67,9.88-7.19,18.29-5.49-20.16,2.08-13.19,1.34-27.52-4.18-1.65,1,1.49-6,.21-5.78-9.21-.89-7.52-6.72-9.9,1.32-12.2,4.06-3.81,4.45-12.8-10.72-.74-6.63,4.8-10.31,12.86-1.37-8.69,3.45-21,6-30.71,24.6-14.24-17.3,16.14,12.85-9.32C520.2,425.37,518.9,427.28,522.11,439.15Zm1.84,128.19.89-5.14-5.42-.59c-5.15,4.52-2.55,12.55.34,18.2ZM548.4,430.79c5.28-9.94,8.7-9.34,15.12-17.46.5-14.47-8.62-19,5.63-28.81-7.77,18.16,7.26,18.44,2.63,29.47C570,418.14,553.18,427,548.4,430.79Zm-34.26-55.52c-4.25-24.17,9.71-40.58,26.64-46.36C530.45,337.15,515.6,354.41,514.14,375.27Zm12.14,141.27c.46,10.9-.75,15.66-7.74,23,1.78-10.7.12-13-.19-23.77l1.31-19.49,3.08,10.11c3.58-6.35,5.91-9.09,11.43-13C529.58,503.11,528.08,503,526.28,516.54Zm2.61-105.17c-2.9-15.87,9.92-19.45,22.91-23.56-4.29,5.45-6.84,6.45-12.89,10.73C531.66,403.65,533.28,403.37,528.89,411.37Zm-8.25-25.26c-4.32-10.29.35-27.7,4.37-36.62,2.88,10.48-3.09,27.5-4.37,36.62,20.13-7.19,16.8-35.32,41.2-42.31-21,21.31-12.5,23.05-20.09,34.35-4.64,6.91-24.63,10.4-25.66,28.39C515.55,397.3,518.73,393.35,520.65,386.11ZM504.19,668.29l13.63-51.18C520.94,637.85,507.55,653.2,504.19,668.29Zm10.87-184.67c-2.95-5-5.07-12.44-3-19C517.92,471.83,516.23,473.82,515.06,483.62Zm50.76,63.57c-6.5,4.42-15.36,7.8-22.47,12.12,2.12-3.16.39-1.35,3-3.91l7.06-4.61C557.84,548.6,560.29,548,565.82,547.19ZM422.25,713.28c2.22-2.18.6.08,1.48-4.45-7.26-9.06-10-18.92-15.77-27.7-2,8,4,19.09,5.62,27.29C419.42,710.61,416.39,710.3,422.25,713.28Zm7.25,7.37c-3.82-2.16-1.2.09-4-2.83a13.85,13.85,0,0,1-1.23-1.54,17.42,17.42,0,0,0,.44,3.07c13.06,12.2,25.89,16.31,44.48,3.81l5-5.51C456.44,726,451.4,733.35,429.5,720.65ZM509,553.6,507.87,555c.73,4.72-.74,1.74,1.79,4.38,2.37-2.62,2.52.29,5.48-6.32ZM478.47,711.12c2.91-5.16,3.09-5.31,7.81-8.71-1.12,2.27-.05,1.4-1.9,3.92-4.06,5.55-1.19,1.84-4.71,4.76a10.4,10.4,0,0,0-2.46,2.16c-3.74,4.39-1.44,1.32-3,4.4l4.51,1.49c2.3-3.44,5.32-5.81,8.29-9.95,18.64-26,40.86-70.57,32-102.06L515.47,605c-3.2,27.26-24.35,73.55-38.78,94.83,3.38-9.58,30.74-77.88,31.05-89,.08-2.87-.54-3.34-.65-3.61-7.91,24.25-23.1,70.12-36.16,91.8-9,15-8.48,11.89-19.68,22C465.5,721.54,469.84,715,478.47,711.12Zm60.78-182.06c-.39-.54-1.21-1.12-1.38-1.45s-.62-1.15-.73-1.41l1-2.66Zm127.37-89.91-9.54-11.64c3.87,11.38,4.08,17.27,1.49,29.25L645.29,448c7.4,10,12.26,12.44,8.08,28.89,5-3.28,2.68-4.19,7.15-3.93,6.07,8,3.67,9.88,7.19,18.29,5.49-20.16-2.08-13.19-1.34-27.52,4.18-1.65-1,1.49,6,.21,5.78-9.21.89-7.52,6.72-9.9-1.32-12.2-4.06-3.81-4.45-12.8,10.72-.74,6.63,4.8,10.31,12.86,1.37-8.69-3.45-21-6-30.71-24.6-14.24,17.3,16.14-12.85-9.32C668.53,425.37,669.83,427.28,666.62,439.15Zm-1.84,128.19-.89-5.14,5.42-.59c5.15,4.52,2.55,12.55-.34,18.2ZM640.33,430.79c-5.28-9.94-8.7-9.34-15.12-17.46-.5-14.47,8.62-19-5.63-28.81,7.77,18.16-7.26,18.44-2.63,29.47C618.69,418.14,635.54,427,640.33,430.79Zm-46,105.44c21.75-2.25,26.07,2.43,43.86,8.21-2.48-4.54-1.3-4.9-8.28-8-23.52-10.38-19.59-4.29-35.58-5.31-16,1-12.06-5.07-35.58,5.31-7,3.08-5.8,3.44-8.28,8C568.3,538.66,572.62,534,594.36,536.23Zm0,67.35c24.51-2.1,32.69,5.52,50.55,13.57-3.74-5.74-10.38-11.06-19.13-14.2-15.09-5.42-15.85-2.78-31.42-4.08-15.56,1.3-16.33-1.34-31.42,4.08-8.75,3.14-15.39,8.46-19.13,14.2C561.67,609.1,569.85,601.48,594.36,603.58Zm0-144.21c27,.73,37.25,5.58,50,19.36-8-17.67-23.49-23.71-50-23.84-26.5.13-42,6.17-50,23.84C557.12,464.95,567.32,460.1,594.36,459.37Zm0,45.82c6.14-.44,10.84-1.72,16.3.28.46.17.9.48,1.35.67l32.8,14.35c-2.5-3.19.8.21-2.93-3.48-.4-.39-1.62-1.47-2.06-1.83-12.22-9.91-28.83-14.64-45.45-14.83-16.63.19-33.23,4.92-45.45,14.83-.44.36-1.67,1.44-2.06,1.83-3.73,3.7-.43.29-2.93,3.48l32.8-14.35c.45-.19.88-.5,1.35-.67C583.53,503.47,588.22,504.76,594.36,505.2Zm80.22-129.92c4.25-24.17-9.71-40.58-26.64-46.36C658.28,337.15,673.13,354.41,674.59,375.27ZM594.36,488.56c24,.19,23,2.36,40.38,10.06-9.6-12.06-20.16-14.69-40.38-15-20.22.33-30.78,3-40.38,15C571.4,490.92,570.4,488.75,594.36,488.56Zm0,226.31c15.53-.06,27.33,0,38.16-7.73l-38.16,3-38.16-3C567,714.84,578.84,714.82,594.36,714.87Zm0-73.95,43.73,2c-4.52-.46-13-4.11-20-5.45-7.74-1.46-15.51-1.41-23.68-1.42s-15.94,0-23.68,1.42c-7.08,1.34-15.53,5-20,5.45Zm0-270.61c17.47.35,24.55,2,38.48,7.63C622,368,613.58,365.86,594.36,365.47c-19.22.39-27.64,2.54-38.48,12.48C569.82,372.29,576.9,370.67,594.36,370.32Zm0,61.83c16.11.63,21.59,3,35.33,6.37-2.36-2.4-2.41-3-6.9-5.2a60.3,60.3,0,0,0-8.4-3.17,72.87,72.87,0,0,0-40.06,0,60.3,60.3,0,0,0-8.4,3.17c-4.49,2.24-4.53,2.8-6.9,5.2C572.77,435.13,578.25,432.78,594.36,432.15Zm0-80.87,32.86,4.36c-10.2-7.68-16.62-8.39-32.86-8.89-16.24.51-22.66,1.21-32.86,8.89Zm0,312.66,35.84-.9c-7.65-5.5-26.64-3.83-35.84-3.84s-28.18-1.66-35.84,3.84Zm0,36.47c14.28-.44,22.42-.34,31.56-7.52l-31.56,2.88-31.56-2.88C571.95,700.07,580.09,700,594.36,700.41Zm68.08-183.87c-.46,10.9.75,15.66,7.74,23-1.78-10.7-.12-13,.19-23.77l-1.31-19.49L666,506.4c-3.58-6.35-5.91-9.09-11.43-13C659.15,503.11,660.65,503,662.45,516.54Zm-2.61-105.17c2.9-15.87-9.92-19.45-22.91-23.56,4.29,5.45,6.84,6.45,12.89,10.73C657.06,403.65,655.45,403.37,659.84,411.37Zm8.25-25.26c4.32-10.29-.35-27.7-4.37-36.62-2.88,10.48,3.09,27.5,4.37,36.62-20.13-7.19-16.8-35.32-41.2-42.31,21,21.31,12.5,23.05,20.09,34.35,4.64,6.91,24.63,10.4,25.66,28.39C673.17,397.3,670,393.35,668.08,386.11Zm16.46,282.18-13.63-51.18C667.79,637.85,681.18,653.2,684.54,668.29ZM594.36,331.4c6.95.26,16.65,2.6,21.3.91-8.45-3.5-10.71-5-21.3-5.63-10.59.59-12.85,2.13-21.3,5.63C577.71,334,587.42,331.66,594.36,331.4Zm79.3,152.21c2.95-5,5.07-12.44,3-19C670.81,471.83,672.5,473.82,673.67,483.62Zm-50.76,63.57c6.5,4.42,15.36,7.8,22.47,12.12-2.12-3.16-.39-1.35-3-3.91l-7.06-4.61C630.89,548.6,628.44,548,622.91,547.19ZM766.48,713.28c-2.22-2.18-.6.08-1.48-4.45,7.26-9.06,10-18.92,15.77-27.7,2,8-4,19.09-5.62,27.29C769.31,710.61,772.34,710.3,766.48,713.28Zm-7.25,7.37c3.82-2.16,1.2.09,4-2.83a13.89,13.89,0,0,0,1.23-1.54,17.42,17.42,0,0,1-.44,3.07c-13.06,12.2-25.89,16.31-44.48,3.81l-5-5.51C732.29,726,737.33,733.35,759.23,720.65Zm-79.53-167,1.16,1.41c-.73,4.72.74,1.74-1.79,4.38-2.37-2.62-2.52.29-5.48-6.32ZM594.36,445l13.42-2.18c-5.4-2.91-7.56-2.43-13.42-2.74-5.86.31-8-.17-13.42,2.74ZM710.26,711.12c-2.91-5.16-3.09-5.31-7.81-8.71,1.12,2.27.05,1.4,1.9,3.92,4.06,5.55,1.19,1.84,4.71,4.76a10.4,10.4,0,0,1,2.46,2.16c3.74,4.39,1.44,1.32,3,4.4L710,719.15c-2.3-3.44-5.32-5.81-8.29-9.95-18.64-26-40.86-70.57-32-102.06l3.48-2.19c3.2,27.26,24.35,73.55,38.78,94.83-3.38-9.58-30.74-77.88-31.05-89-.08-2.87.54-3.34.65-3.61,7.91,24.25,23.1,70.12,36.16,91.8,9,15,8.48,11.89,19.68,22C723.22,721.54,718.89,715,710.26,711.12ZM649.48,529.06c.39-.54,1.21-1.12,1.37-1.45s.62-1.15.73-1.41l-1-2.66Zm-55.11,39a84.37,84.37,0,0,0-16,1.85c-9.12,1.86-5.22,1.28-12.87,4.66-10,4.42-14.37,4.83-22.21,11.45-2.7,6.28-.25,1.07-4,5.14-3.06,3.29-1.71-.44-3.14,4.39,3.17,2.85-.83,1.07,3.83.81,4-6.3,6.82-9,13.06-12.13-13.9,14.78-10.61,15.22-17.21,38.47-4.11-6.25-3.74-9.56-5.08-17.46.22-.13.67-.47.74-.24s2.85,0,4.85-3a43,43,0,0,0-4.07-8.86l-5.54,3.45c-22.53-12.18-12.31-1.64-26.7-1.5-2-8.72,2.38-9.29,7.27-12.58.56-7,1.68-15-2.35-20,1.59,21.19-7,18-8.69,30l3.16,7c9-1.18,8.92-6.94,16.69-5.17,5.54,1.27,8.67,6.42,10.92,13l2.85,27.25c9.94-4.54,10.62-11.29,22.16-15.81-5.15,5.76-9.48,7.4-12.5,17.76l12.13-3.62c-4.83,4-9.67,6.2-10.85,13.11,4.94,3.24,3.25,1.81,10.3,1.39-.38.5-1,1.08-1.2,1.44s-.83,1-1.06,1.4-.64.94-.79,1.29c-1.19,2.79-4.82,1.46,5,5.27-6.83,1.81-5.2.41-8.66,4.51l9.51,6c-1.71.85-2.59,1-4,1.73-4.53,2.28-1.48.49-3.64,2.18l4.55,3.5a7.19,7.19,0,0,1,1.28-.6c.23,0,1-.18,1.27-.2l.28,0,.21,0h.2a2.71,2.71,0,0,1,1,.09c-.09.27.1.63.8,1.11,1.08.21,1.83.33,2.32.4v.21c13.42,3.45,20.35,4.27,36.24,4.57,15.89-.3,22.81-1.11,36.24-4.57v-.21c.5-.07,1.24-.19,2.32-.4.7-.48.89-.84.8-1.11a2.71,2.71,0,0,1,1-.09h.2l.21,0,.28,0c.23,0,1,.17,1.27.2a7.19,7.19,0,0,1,1.28.6l4.55-3.5c-2.16-1.69.89.1-3.64-2.18-1.41-.71-2.29-.89-4-1.73l9.51-6c-3.46-4.1-1.83-2.7-8.66-4.51,9.83-3.81,6.19-2.48,5-5.27-.15-.35-.6-.95-.79-1.29s-.83-1.06-1.06-1.4-.83-.94-1.2-1.44c7,.42,5.36,1.85,10.3-1.39-1.19-6.91-6-9.09-10.86-13.11l12.13,3.62c-3-10.36-7.36-12-12.5-17.76C648.28,623.24,649,630,658.9,634.52l2.85-27.25c2.25-6.55,5.38-11.7,10.92-13,7.77-1.78,7.66,4,16.69,5.17l3.16-7c-1.69-11.94-10.28-8.78-8.69-30-4,5-2.91,13-2.35,20,4.89,3.29,9.26,3.86,7.27,12.58-14.4-.14-4.17-10.68-26.7,1.5l-5.54-3.45a43,43,0,0,0-4.07,8.86c2,3,4.77,3.32,4.85,3s.51.11.74.24c-1.35,7.9-1,11.21-5.08,17.46-6.6-23.25-3.31-23.69-17.21-38.47,6.24,3.11,9,5.83,13.06,12.13,4.66.26.66,2,3.84-.81-1.42-4.83-.07-1.1-3.14-4.39-3.79-4.07-1.33,1.14-4-5.14-7.84-6.63-12.2-7-22.21-11.45-7.65-3.38-3.75-2.8-12.87-4.66A84.37,84.37,0,0,0,594.36,568.07Zm0-246.76C570.9,323.16,563,341.05,545,340.54c7.55-1.44,18.16-11.9,21.79-16.24-25.28-7.66-26,6.89-39.86-.49-19.68-10.47-21.63-36.9-63.3-8.25-12.28,8.45-20.73,6.93-36.89,9.68-58.13,9.91-59.22,40.87-78.48,65-9.22,11.53-17.31,9-31.42,14.86-9.43,36.8,6.34,40.43,37.55,35.5-10.76,9.93-21.4,15-28.49,28.06-5.11,9.42-6.54,56.43,27.68,34.85C322,544,377.73,556.4,389.46,553.53c13.25-3.24,16.63-12.6,21.56-16.52l2.54-14.2c1.86-8,3.63-11.57,8.14-18.51,5.91-9.08,5-11.57,10.14-16.35l1.83-2.9-.89-8.71c-14.06-.71-23.84,10.57-29.5,18.06,13-36,87.51-59.67,66.7-80.6-3.93-3.48,1.23-2.14-7.43-2.56-4.35-.21-15.47,3.41-26.35,4,2-1.35-.61.12,4.14-2.46,63.5-34.46-33.51-49.88-44.67-48.58,27-4.79,34.62,3,57.38,6.17-.38-7.8-2.51-7.41-6.34-13.14,10.68,5.38,12.08,12.22,29.87,13.39,8.88-24.89,3.16-8.88,12.41-25.8,2.45,3.54.84,7.64,3.27,11.34,5.79-9.72,18.39-13.09,28.09-21.2-6.33,17.17-33.47,16.67-25.62,50.19a135.43,135.43,0,0,1,6.18-12.77c-.21,6.55-2.35,15.22.39,20.69,6.68-4.8,4.07-9.42,7.07-19.19,2-6.36.9-3.13,2.5-5.66.55,43.15,1.25,42.16-15.21,74.54-8.42,16.55,2.53,8.48,8.42,32,5.12,20.4,9.71,1.53,7,31.45,1.19,8.88,4.59,12.94,5.05,19.94.53,8.07-2.23,12.36-2.47,18.83,3,2.91,2.1.88,3.12,5.49a81.36,81.36,0,0,0,7.39-7.21l-1.6,7.25c4.7,3.37,4.58-1.14,10.71,3.73l-12.48,3.63c8.18,2.07,7.58,1.41,13.4,6.74-8.45,3.78-4.62,11.41-2.36,19.4,6.58-1.27,2.87-.48,4.32-3.87,14.12,0,3.9-.92,7.07,3.88,14.56-11.66,25.55-19.22,51.09-18.41,25.54-.81,36.53,6.75,51.09,18.41,3.17-4.8-7.05-3.88,7.06-3.88,1.45,3.39-2.25,2.6,4.32,3.87,2.25-8,6.08-15.62-2.36-19.4,5.82-5.33,5.22-4.66,13.4-6.74l-12.48-3.63c6.13-4.87,6-.37,10.71-3.73l-1.6-7.25a81.37,81.37,0,0,0,7.39,7.21c1-4.61.09-2.58,3.12-5.49-.24-6.47-3-10.77-2.47-18.83.46-7,3.86-11.06,5.05-19.94-2.66-29.92,1.93-11,7-31.45,5.89-23.47,16.83-15.4,8.42-32-16.46-32.37-15.77-31.38-15.21-74.54,1.59,2.53.54-.7,2.5,5.66,3,9.77.39,14.39,7.07,19.19,2.74-5.47.61-14.14.39-20.69A135.51,135.51,0,0,1,694,385.14c7.86-33.53-19.28-33-25.62-50.19,9.7,8.11,22.31,11.48,28.09,21.2,2.43-3.7.82-7.8,3.27-11.34,9.25,16.92,3.53.9,12.41,25.8,17.79-1.17,19.18-8,29.87-13.39-3.84,5.73-6,5.34-6.34,13.14,22.76-3.2,30.34-11,57.38-6.17-11.16-1.3-108.17,14.12-44.67,48.58,4.75,2.58,2.19,1.11,4.14,2.46-10.88-.56-22-4.19-26.35-4-8.66.43-3.5-.92-7.43,2.56-20.8,20.93,53.71,44.6,66.7,80.6-5.66-7.5-15.44-18.77-29.5-18.06l-.89,8.71,1.83,2.9c5.1,4.77,4.22,7.26,10.14,16.35,4.52,6.94,6.29,10.48,8.14,18.51l2.54,14.2c4.93,3.92,8.32,13.28,21.56,16.52,11.73,2.87,67.46-9.51,35.88-50.05,34.21,21.59,32.78-25.42,27.68-34.85-7.1-13.09-17.73-18.13-28.49-28.06,31.22,4.93,47,1.3,37.55-35.5-14.11-5.88-22.2-3.33-31.42-14.86-19.26-24.09-20.35-55.05-78.48-65-16.16-2.75-24.6-1.24-36.89-9.68-41.67-28.65-43.62-2.22-63.3,8.25-13.87,7.38-14.58-7.18-39.86.49,3.62,4.34,14.24,14.8,21.79,16.24C625.72,341.05,617.83,323.16,594.36,321.32Zm0,467.38c-12.23-1.39-19.67-5.45-25.56-12.51s-4.29-3.24-7.17-12c-3.28-9.92-1.93-4.78-8.11-11.62-1.1-10.14,2.57-7-1.47-15.79s-4.86-.09-3.52-14.46c1.18-12.64,1.14-3.28-3-12.25-4.62-10.11-.82-7.27,1.18-15,2.76-10.61-.15-3.22-2.68-12.73-2.93-11-6.48-25.14-12.7-35.05-4.06-6.48,2.86-1.84-4.88-5.47-8.6,6.15-17.69,71.4-62.23,95.06-25.05,13.31-42.81-2.6-51.87-19.49-7.73-14.43-16.54-46-13.29-65.17,17.86,9.4,33.89,127.37,79.5,17.57,8.05-19.38,16.85-42.32,22.28-62.43-12.62-3.09-18.55-3.53-32-2.47-8.41.93-15.52,1-22-1.62-2.08-5-2-9.6-1.84-16.56-16.49,3.29-38.2,7.64-41.75-8.43-5.32-4.31-5.81-8.15-8.65-12-20.51,4.22-27.34.25-40-10.17-9.85-8.1-20-16.85-20.08-36.16-8.14-3.42-10.63-1.57-15.06-8.24-3.14-4.72-4.74-14.2-5-20.76-.71-16.56,2.83-30.27,11.49-37.74-13-6.86-23.53-14.18-21.44-40,1.57-19.48,22.16-19.86,33.92-30.9,14.51-13.62,18.77-49.55,63.94-62,16.62-4.58,37.73-4.21,52.46-9.67,12.84-4.77,30.65-19.07,46.41-13.6,16.82,5.84,18.11,29.28,37.34,23.84,15-4.24,9.8-3.19,26.74-3.44,15-.22,11.55-6,29-5.74,17.46-.23,14.06,5.52,29,5.74,16.93.25,11.75-.8,26.74,3.44,19.23,5.44,20.52-18,37.34-23.84,15.76-5.47,33.57,8.84,46.41,13.6,14.72,5.46,35.83,5.09,52.46,9.67,45.17,12.46,49.43,48.39,63.94,62,11.76,11,32.34,11.42,33.92,30.9,2.09,25.81-8.42,33.13-21.44,40,8.65,7.47,12.2,21.18,11.49,37.74-.28,6.57-1.88,16-5,20.76-4.43,6.67-6.92,4.81-15.06,8.24-.08,19.31-10.22,28.06-20.08,36.16-12.67,10.42-19.5,14.39-40,10.17-2.85,3.86-3.33,7.71-8.65,12-3.55,16.07-25.26,11.72-41.75,8.43.2,7,.25,11.58-1.84,16.56-6.43,2.59-13.54,2.55-22,1.62-13.48-1.06-19.4-.62-32,2.47,5.43,20.12,14.23,43.05,22.28,62.43,45.61,109.8,61.64-8.16,79.5-17.57,3.25,19.21-5.56,50.74-13.29,65.17-9.05,16.89-26.81,32.8-51.87,19.49-44.53-23.66-53.63-88.91-62.23-95.06-7.74,3.63-.82-1-4.88,5.47-6.22,9.92-9.77,24-12.7,35.05-2.53,9.5-5.44,2.11-2.68,12.73,2,7.73,5.8,4.88,1.18,15-4.09,9-4.13-.39-3,12.25,1.34,14.36.54,5.55-3.52,14.46s-.37,5.65-1.47,15.79c-6.18,6.84-4.84,1.7-8.11,11.62-2.88,8.72-1.33,5-7.17,12S606.59,787.3,594.36,788.7Zm0-65.87-22.1-1.1,6.92,2.61-8.38.72c1.3.78-.64,1.18,5.59,2.31.65.12,4.18.14,4.68.16q6.64.18,13.28.38,6.66-.21,13.28-.38c.5,0,4,0,4.68-.16,6.23-1.13,4.29-1.53,5.59-2.31l-8.38-.72,6.92-2.61Zm-40.73-41.14,3,2.49,2.89,2.38,1.16,1-6.41,2.17c4.14,6.6.87,3.9,7,6.62h0c-.73.2-1.83.53-3.44,1.05-3.59,1.16-1.63.16-3.07,1.53a14.14,14.14,0,0,0-.9,1.28l-3,4.33c4.32,5.91,6.8,6.76,13.71,10.13-13.85,6.36-3.17,4,4.49,4.18,8.44.19,16.45.93,25.28,1s16.84-.76,25.28-1c7.66-.17,18.34,2.18,4.49-4.18,6.92-3.36,9.39-4.22,13.71-10.13l-3-4.33a14.14,14.14,0,0,0-.9-1.28c-1.44-1.37.52-.37-3.07-1.53-1.61-.52-2.71-.86-3.44-1.05h0c6.18-2.72,2.91,0,7-6.62L628,687.52l1.16-1,2.89-2.38,3-2.49-3-2-1.48-1-.38-.26c-14.12,6.23-19.07,6-35.85,6.28-16.78-.25-21.73,0-35.85-6.28l-.38.26-1.48,1Zm40.73,118.45v.14l-1.19-.14c-13.17-1.5-23.86-5.95-32.43-16.22-1.66-2-3.94-4.12-5.35-6.21-1.81-2.68-2.72-6.13-3.73-9.19-.32-1-.69-2.21-1.09-3.29a40.31,40.31,0,0,1-4.84-4.58l-2.28-2.53-.37-3.38a34.06,34.06,0,0,1,.32-10.46c-.25-.71-.64-1.52-.9-2.1-.15-.32-.34-.75-.54-1.1-6-5.11-4.53-11.68-3.88-18.69.08-.86.18-1.73.28-2.6a31,31,0,0,1-2.33-4.31c-1.64-3.6-3.08-7.24-3.14-11l-13.81-9.81L535.49,696a9.9,9.9,0,0,0,1.12-2.49l.13-.5a24.69,24.69,0,0,1-2.8-6.88l-.52-2-5-3.92,4,.37c-.59-2.2-1.2-4.47-1.87-6.74l-3.6-.09,2.94-2.11c-.7-2.29-1.45-4.56-2.27-6.77-3.3,8.91-6.65,17.72-10.65,26.36-10.51,22.69-25.24,44-47.84,56-27.65,14.69-52.46,1.54-66-23.81-9.71-18.11-17.84-51.49-14.39-71.88l2.42-14.29L404,644c6.26,3.3,10.4,10.72,13.46,16.85,3.49,7,6.47,14.27,9.7,21.38,2.81,6.18,6,12.95,9.89,18.5,1,1.47,4.34,5.76,6.3,6.08,1.7.28,5.86-4.2,6.74-5.24,7.75-9.13,14.28-23.79,18.84-34.76,6.77-16.29,13.47-33.33,18.73-50.39a71.9,71.9,0,0,0-17.79,0c-9.15.87-18.18,1.17-26.87-2.33l-4.07-1.64-1.69-4a33.45,33.45,0,0,1-2.24-8.1c-11.26,1.71-24.76,2.41-34-5.26a23.11,23.11,0,0,1-6.91-9.85,31.06,31.06,0,0,1-4.82-6.27c-17,2.3-26.6-1.55-41.3-13.64-13.07-10.75-21.39-20.64-23.42-36.51a30.46,30.46,0,0,1-4.35-1.56,22.83,22.83,0,0,1-9.44-8.63c-4.51-6.79-6.41-18-6.76-26.12-.5-11.7.85-24.76,6.53-35.31-1.22-.9-2.39-1.85-3.53-2.88-11.9-10.78-14.17-25.5-12.94-40.84a30.82,30.82,0,0,1,8.49-19.4c5.81-6.08,13-9.11,20.32-12.87a37.05,37.05,0,0,0,8.39-5.45c3.06-2.87,5.76-7.64,7.84-11.26,3.62-6.3,7-12.55,11.2-18.53C362.78,328,378.58,317,399.63,311.2a165.17,165.17,0,0,1,23.21-4.15c9-1.13,19.92-2.11,28.38-5.25,6.38-2.37,13-6.46,19.23-9.37,10.82-5,22.55-8.37,34.27-4.31,8.07,2.8,13.51,8.12,18.69,14.65,1.85,2.33,5.55,7.6,8.11,9a3.36,3.36,0,0,0,1,.35l11.33-9.47-2.8,7.59a58.28,58.28,0,0,1,8.67-2c4.8-.6,10.62-.26,15.51-.34a18.36,18.36,0,0,0,8.76-1.82A40.29,40.29,0,0,1,589,302.32l5.33-1.82v.1l-2,1.61h2v-.14h2l-2-1.61v-.1l5.33,1.82A40.31,40.31,0,0,1,614.77,306a18.36,18.36,0,0,0,8.75,1.82c4.89.07,10.71-.26,15.51.34a58.29,58.29,0,0,1,8.67,2l-2.8-7.59L656.24,312a3.36,3.36,0,0,0,1-.35c2.57-1.4,6.26-6.67,8.11-9C670.5,296.12,675.93,290.8,684,288c11.72-4.06,23.45-.71,34.27,4.31,6.28,2.91,12.86,7,19.23,9.37,8.46,3.14,19.42,4.11,28.38,5.25a165.24,165.24,0,0,1,23.21,4.15c21,5.81,36.85,16.83,49.29,34.69,4.16,6,7.58,12.23,11.2,18.53,2.08,3.62,4.78,8.39,7.84,11.26a37.06,37.06,0,0,0,8.39,5.45c7.29,3.76,14.51,6.79,20.32,12.87a30.82,30.82,0,0,1,8.49,19.4c1.24,15.34-1,30.06-12.94,40.84-1.13,1-2.31,2-3.53,2.88,5.68,10.56,7,23.61,6.53,35.31-.35,8.13-2.25,19.33-6.76,26.12a22.83,22.83,0,0,1-9.44,8.63,30.45,30.45,0,0,1-4.35,1.56c-2,15.87-10.36,25.77-23.42,36.51-14.71,12.09-24.32,15.95-41.3,13.64A31.06,31.06,0,0,1,794.6,585a23.11,23.11,0,0,1-6.91,9.85c-9.21,7.67-22.71,7-34,5.26a33.46,33.46,0,0,1-2.24,8.1l-1.69,4-4.07,1.64c-8.69,3.5-17.72,3.2-26.87,2.33a71.9,71.9,0,0,0-17.79,0c5.26,17.06,12,34.1,18.73,50.39,4.56,11,11.08,25.63,18.84,34.76.88,1,5,5.52,6.74,5.24,2-.32,5.26-4.61,6.3-6.08,3.92-5.56,7.09-12.32,9.89-18.5,3.23-7.11,6.21-14.4,9.69-21.38,3.06-6.13,7.19-13.56,13.46-16.85l12.82-6.75L800,651.38c3.45,20.39-4.68,53.76-14.39,71.88-13.58,25.34-38.4,38.49-66,23.81-22.6-12-37.33-33.29-47.84-56-4-8.64-7.34-17.44-10.65-26.36-.82,2.21-1.58,4.49-2.27,6.77l2.94,2.11-3.6.09c-.66,2.28-1.28,4.54-1.87,6.74l4-.37-5,3.92-.52,2a24.69,24.69,0,0,1-2.8,6.88l.13.5a9.9,9.9,0,0,0,1.12,2.49l16.41-1.31-13.81,9.81c-.06,3.77-1.5,7.4-3.14,11a31,31,0,0,1-2.33,4.31c.1.87.2,1.75.28,2.6.66,7,2.13,13.58-3.88,18.69-.2.35-.4.78-.54,1.1-.26.58-.65,1.39-.9,2.1a34.07,34.07,0,0,1,.32,10.46l-.37,3.38L643,760.52a40.32,40.32,0,0,1-4.84,4.58c-.4,1.08-.77,2.31-1.09,3.29-1,3.06-1.92,6.51-3.73,9.19-1.41,2.09-3.68,4.21-5.35,6.21-8.57,10.27-19.26,14.72-32.43,16.22Zm0-697.86c-127.27,0-216.53,7.27-338.22-33.9L163.52,190.2s80.13,105.11,47.87,227.91-88.43,362,6.77,455.29C290.35,944.1,415.39,1011,505.82,1059.12c43.84,23.33,78.07,54.62,88.55,65.09,10.47-10.47,44.7-41.76,88.54-65.09,90.44-48.11,215.47-115,287.65-185.72,95.21-93.26,39-332.49,6.77-455.29s47.87-227.91,47.87-227.91L932.58,68.37C810.9,109.55,721.63,102.27,594.37,102.27Z"/><path class="cls-2" d="M262.56,89,185.29,190.61c12.27,18.79,23.25,41.85,30.68,61.2,21,54.61,27.41,113.71,12.42,170.76C200.23,529.78,140.82,773,230.47,860.84c40.54,39.71,92.68,74,141.15,103.34,46.55,28.15,94.45,53.88,142.46,79.43a419.22,419.22,0,0,1,80.29,56.4,419.24,419.24,0,0,1,80.29-56.4c48-25.54,95.9-51.28,142.46-79.43,48.47-29.3,100.61-63.62,141.15-103.34,89.65-87.82,30.24-331.06,2.07-438.27-15-57.06-8.57-116.16,12.43-170.77,7.43-19.34,18.41-42.4,30.68-61.19L926.17,89c-50.44,16-100.34,25.24-153.52,28.94-59.12,4.11-119,1.94-178.28,1.94S475.21,122,416.09,117.91C362.91,114.21,313,105,262.56,89Zm690.25,647.4-11.12,10.8c3.82,5.74,4.21,4.28,10.71,1.78C955.28,741.6,956.92,741.15,952.81,736.37Zm-191,150.76a16.67,16.67,0,0,0-9.1,11.39q-2.23,9.51,4.8,23.09,6.89,13.28,16.36,17.5a16.13,16.13,0,0,0,14.62-.55,17.11,17.11,0,0,0,9.37-11.89q2.07-9.37-4.55-22.13-5.1-9.82-11.56-15a19.08,19.08,0,0,0-10.08-4.45A17.59,17.59,0,0,0,761.77,887.14Zm-103.89,91a45.74,45.74,0,0,0,10.47-.62c5.41-1,9.31-2.92,11.72-5.86a11.63,11.63,0,0,0,2.64-9.78,13.41,13.41,0,0,0-3.14-6.46,13.1,13.1,0,0,0-7.19-4,27.5,27.5,0,0,0-11.08,0c-1.85.33-3.43.64-4.74.93a24.07,24.07,0,0,0-3.12.89Zm-5.18-29a34.13,34.13,0,0,0,3.88-.2c1.44-.15,3-.38,4.71-.68,4.36-.78,7.56-1.82,9.58-3.16a10.64,10.64,0,0,0,4.27-5.23,12.29,12.29,0,0,0,.61-6.67,11.81,11.81,0,0,0-6-8.31q-5-3-13.35-1.5a31,31,0,0,0-7.9,2.42Zm-145.49,4.65L503,927l-16.38,21.64Zm-115-89.41a16.28,16.28,0,0,0-14.45-2.43q-9.45,2.79-17.78,15-8.54,12.48-7.8,22.84a16,16,0,0,0,7.32,12.52,17.9,17.9,0,0,0,15.68,2.5q8.5-2.4,16.75-14.45,8.93-13.06,8.18-23Q399.51,869.3,392.24,864.32Zm-157-127.84,11.12,10.8c-3.82,5.74-4.21,4.28-10.71,1.79C232.74,741.7,231.11,741.25,235.21,736.48Zm23.54,46.26,3.15-15.23L253,786.42l-7.78,5,1-31.69L232.38,788.4l3.69-30.66-14.54,17.85,6.54-31.07-13.68,14.15,4.66-27.79c-10.62,13.76-13.44,9.35-14.1,2.59a2.74,2.74,0,0,0,2,1.18c2.32.22,5-2.35,5.92-5.76.83-3.07-.08-5.8-2-6.41a52.59,52.59,0,0,1,9.24-7.69c7.06-23.3,14.84-43.35,24.08-57-8.93,21.84-12.79,35.33-16.11,55.46l9.41,13.61c2.33-4.09,10.78-14.65,18.43-18.89-4.3,5.57-9.8,20.16-11,28.95l10.5,7.49c7.43,5.51,14.91,11,22.32,16.5l7.49-19.68c-.64,8,1,15.61.38,23.6l.38.36Zm29.44,72.69,21.12-53.08L279.47,830.8c-2.74,2.62-4.17,4.54-4.29,5.79-.15,1.69.62,3.42,2.29,5.17l1.5,1.57-1.21,1.16L262.94,829l1.21-1.16,1.5,1.57q2.7,2.83,5.56,2.38c1.16-.18,3-1.48,5.49-3.86l29.18-27.82a14.14,14.14,0,0,0,3.66-4.74,5.08,5.08,0,0,0,0-3.22,12.63,12.63,0,0,0-3.14-4.58l1.23-1.17L319.66,799l-19.5,49.52,50.14-17.39,12.06,12.64L361.13,845l-1.48-1.55q-2.73-2.87-5.57-2.42c-1.17.19-3,1.47-5.51,3.86L319.4,872.68c-2.74,2.62-4.15,4.56-4.25,5.83q-.22,2.53,2.28,5.16l1.48,1.55-1.21,1.16-18.09-19,1.21-1.16,1.51,1.58q2.73,2.87,5.56,2.38c1.16-.18,3-1.48,5.49-3.86l29.84-28.46-54,18.61Zm106.63,6.64q9.92,6.79,12,19.28t-5.59,23.76q-7.95,11.61-20.51,14.25a29.65,29.65,0,0,1-35.52-24q-2-12.37,6.08-24.24,8.3-12.13,21.8-14.14A29.55,29.55,0,0,1,394.81,862.07Zm75.72,42.71L409.73,941l23.06,10.41q5.31,2.4,9.19,1.35c2.6-.7,5.7-3.07,9.29-7.14l1.26.86-9.37,13.7-45.79-20.67.69-1.53,59.26-35.06-18-8.12q-4.48-2-6.93-2a7.61,7.61,0,0,0-4.35,1.44c-1.26.91-2.94,2.92-5,6l-1.57-.71L428.94,886Zm37.11,52.52-23.19-5.71L478.06,960a15.17,15.17,0,0,0-2.79,4.85,3.13,3.13,0,0,0,.71,2.72c.7.91,2.46,1.82,5.31,2.75l-.4,1.63L462,967.34l.4-1.63c2.61.16,4.37,0,5.28-.54,1.85-1,4.22-3.5,7.11-7.38L508,913.68l1.54.38,8.58,55q1,6.64,2.65,8.92a9.67,9.67,0,0,0,5.23,3.43l-.4,1.63L502,977.18l.4-1.63c2.41.47,4.13.46,5.14,0a3.13,3.13,0,0,0,1.88-2.16c.32-1.3.22-3.48-.27-6.58ZM575.71,987l-21.85-52.79-1.57,41.21c-.14,3.79.17,6.16,1,7.14,1.07,1.31,2.83,2,5.25,2.11l2.17.08-.06,1.68-21.45-.81.06-1.68,2.17.08c2.61.1,4.48-.62,5.65-2.16.7-.94,1.11-3.14,1.25-6.59L549.82,935a14.14,14.14,0,0,0-.68-5.95,5.09,5.09,0,0,0-2.26-2.29,12.64,12.64,0,0,0-5.44-1.09l.06-1.69,17.46.66,20.53,49.1,23.84-47.42,17.46.66-.06,1.69-2.14-.08c-2.64-.1-4.53.62-5.68,2.15-.7,1-1.13,3.14-1.26,6.6l-1.53,40.29c-.14,3.79.2,6.16,1,7.14q1.6,2,5.24,2.11l2.14.08-.06,1.68-26.2-1,.06-1.68,2.19.08c2.64.1,4.52-.62,5.65-2.16.7-.94,1.11-3.14,1.25-6.59L603,936.05l-25.75,51Zm100.9-39.66q6.57.2,10.23,2.61a13.59,13.59,0,0,1,6.14,9.3,15.28,15.28,0,0,1-1.33,9.18,16.58,16.58,0,0,1-6.78,7.44q-4.66,2.8-14.9,4.63L641.3,985.6l-.29-1.65,2.28-.41q3.81-.68,5-3.41c.5-1.16.46-3.44-.15-6.85l-7-39.25q-1-5.64-2.57-6.88a6.69,6.69,0,0,0-5.55-1l-2.28.41-.3-1.67,26.24-4.68a52.45,52.45,0,0,1,12-1q7,.41,11.28,3.87a14.25,14.25,0,0,1,5.22,8.8,13.3,13.3,0,0,1-1.31,8.67A16.64,16.64,0,0,1,676.6,947.31Zm64.72,11.84.54,1.59-25.06,8.45-.54-1.59,2.08-.7q3.62-1.22,4.54-3.89c.38-1.15,0-3.49-1.19-7L709,918.24a20.57,20.57,0,0,0-2.53-5.67,4.15,4.15,0,0,0-2.39-1.26,8.61,8.61,0,0,0-4.32.31l-2.08.7-.54-1.6,25.06-8.45.54,1.6-2.12.71c-2.38.8-3.88,2.1-4.5,3.86-.41,1.17,0,3.5,1.15,7L730,953.23a20.58,20.58,0,0,0,2.53,5.67,4.12,4.12,0,0,0,2.44,1.24,8.37,8.37,0,0,0,4.28-.28Zm55-22q7.81,5,14.33,5.84a24.22,24.22,0,0,0,12.87-1.81l.67,1.3a49.88,49.88,0,0,1-13.08,3.93,57.93,57.93,0,0,1-15,.58,66.4,66.4,0,0,1-13.78-2.61,43.73,43.73,0,0,1-11.78-.19A30.6,30.6,0,0,1,758,938.51a35,35,0,0,1-9.74-12.09q-6.37-12.28-2.63-24.53a29.31,29.31,0,0,1,15.07-18.11q10.73-5.57,22.82-1.51T802,898.73a32.67,32.67,0,0,1,3.56,20.55A31.1,31.1,0,0,1,796.33,937.13Zm30.16-96.38-1.05-1.32,17.09-13.62,1.06,1.32-1.82,1.45a6.25,6.25,0,0,0-2.48,5.86c.09,1.14,1.19,3,3.33,5.73l15.59,19.57q5.79,7.27,7.54,12.4a18.1,18.1,0,0,1-.18,11.39q-1.95,6.23-9.2,12-7.91,6.3-14.18,6.81a18.92,18.92,0,0,1-11.67-2.74q-3.66-2.27-10.62-11l-15-18.86c-2.36-3-4.31-4.59-5.87-4.85s-3.24.32-5.06,1.77l-1.82,1.45-1.06-1.32,20.86-16.62,1.05,1.32L811.13,853c-2,1.59-2.93,3.35-2.78,5.29.08,1.32,1.21,3.34,3.36,6l16.76,21a59.81,59.81,0,0,0,5.64,6,17.73,17.73,0,0,0,6.38,4.17,12.93,12.93,0,0,0,6.56.23,17.09,17.09,0,0,0,7.3-3.65,22,22,0,0,0,6.82-8.81,14.12,14.12,0,0,0,.9-9.36q-1.2-4.31-7.32-12l-15.57-19.55c-2.4-3-4.24-4.62-5.5-4.86a6.72,6.72,0,0,0-5.38,1.72ZM863,809.46l18.46,15.93,8.86-10.27q3.45-4,3.41-6.37c0-2.11-1.31-4.37-3.86-6.82l1.1-1.27,16.27,14-1.1,1.27a23.61,23.61,0,0,0-5.21-2.81,5.71,5.71,0,0,0-3.65.4,13.69,13.69,0,0,0-4.44,3.74l-8.86,10.27,15.41,13.29a19.47,19.47,0,0,0,4,3,2.94,2.94,0,0,0,1.9,0,7.93,7.93,0,0,0,2.65-2.29l6.84-7.93a27.82,27.82,0,0,0,4.41-6.23A11.21,11.21,0,0,0,920,822a35.12,35.12,0,0,0-2.67-9.93l1.19-1.38,8.25,14.13-31.06,36-1.27-1.1,1.43-1.66a8.64,8.64,0,0,0,1.9-3.82,3.84,3.84,0,0,0-.35-2.93,21.94,21.94,0,0,0-4.18-4.28L862.83,820.9c-3-2.56-5-3.83-6.25-3.83q-2.44,0-4.94,2.94l-1.43,1.66-1.28-1.11,31.06-36,10.68,8.31-1.17,1.35a21.15,21.15,0,0,0-6.44-2.76,7.26,7.26,0,0,0-4.35.78,20.75,20.75,0,0,0-4.71,4.41Zm66.33-26.82-3.15-15.22,8.87,18.9,7.78,5-1-31.69,13.91,28.66L952,757.63l14.55,17.85L960,744.41l13.69,14.15L969,730.76c10.62,13.75,13.45,9.35,14.1,2.59a2.74,2.74,0,0,1-2,1.18c-2.32.23-5-2.35-5.92-5.76-.83-3.07.07-5.8,2-6.41a52.57,52.57,0,0,0-9.25-7.69c-7.07-23.3-14.85-43.34-24.1-57,8.94,21.84,12.8,35.33,16.13,55.46l-9.4,13.61c-2.33-4.09-10.79-14.65-18.43-18.88,4.3,5.57,9.81,20.16,11,28.94l-10.5,7.49c-7.43,5.51-14.9,11-22.31,16.51l-7.5-19.68c.64,8-1,15.61-.38,23.6l-.38.36ZM529.37,899.09v-7.58h3.88c3,0,4.79-.35,5.5-1s1.06-2.4,1.06-5.12V846.07c0-2.72-.35-4.43-1.06-5.12s-2.55-1-5.5-1h-3.88v-7.53h62.06V860h-7.67a50.14,50.14,0,0,0-.68-8.87,20.54,20.54,0,0,0-2.09-6.23,8.24,8.24,0,0,0-4.76-3.85q-3.31-1.17-9.95-1.16H553.85v20.49h1.71q6.24,0,8.21-2.16c1.29-1.44,2.09-4.76,2.42-9.93l7.58,0v33.45l-7.58,0q-.45-8.6-2.4-11.09t-8.14-2.5h-1.79v17.29c0,2.69.36,4.39,1.09,5.11s2.59,1.06,5.57,1.06h4.66v7.58Zm123.72-25.84h8.55q-1,13.3-8.19,20.57T634,901.08a36.61,36.61,0,0,1-13.26-2.29,29.76,29.76,0,0,1-10.58-7A34,34,0,0,1,602.34,880a38.43,38.43,0,0,1-2.65-14.35,37.94,37.94,0,0,1,2.57-14.16A34.57,34.57,0,0,1,610,839.88a31.75,31.75,0,0,1,23.06-9.51A30.11,30.11,0,0,1,643.16,832a33.85,33.85,0,0,1,9.3,5.17l2-6h7.19v27.33H654q-1.17-9.57-6.15-14.82A16.88,16.88,0,0,0,635,838.53a16.7,16.7,0,0,0-14.4,7.33q-5.22,7.33-5.22,20.31,0,12.33,5.19,19.06t14.62,6.73a15.68,15.68,0,0,0,11.9-4.79Q651.63,882.38,653.09,873.25ZM370.51,261.38V246.45h2.59c2.19,0,3.52-.21,4-.65a3.28,3.28,0,0,0,.73-2.48c0-.81,0-1.59-.1-2.35s-.16-1.46-.27-2.17l-2.06-11.27H359.9l-1.8,10c-.3,1.54-.51,2.74-.61,3.61a18.14,18.14,0,0,0-.17,2.38,2.51,2.51,0,0,0,1,2.14,5.08,5.08,0,0,0,3,.76h2.85v14.93H308.05V246.45h2.13q2.89,0,3.82-1.25c.61-.86.92-3.45.92-7.79v-64l-14.74,88h-13.5l-14-87.83v63.86c0,4.1.29,6.61.86,7.58s1.86,1.46,3.87,1.46h2.13v14.93H253.75V246.45h2.64c2,0,3.3-.5,3.87-1.46s.86-3.48.86-7.58V180c0-4.08-.29-6.61-.84-7.55S258.43,171,256.4,171h-2.64V156.17H286l9.77,62.71,10.57-62.71h33.29V171h-2.85c-2,0-3.26.44-3.83,1.33s-.86,3.45-.86,7.63v57.43c0,4.23.29,6.82.87,7.71s1.86,1.33,3.82,1.33h3.8c1.46,0,2.67-.84,3.67-2.54a27.59,27.59,0,0,0,2.57-8.26L362,156.17h20.82l13.48,79.17c.93,5.2,1.76,8.36,2.52,9.46a4.11,4.11,0,0,0,3.65,1.65h3v14.93Zm2.17-48.93-5.23-31.86-4.9,31.86Zm113.17,13.93c0,8.13.69,13.8,2.07,17.07s3.72,4.91,7,4.91c3.92,0,6.72-1.62,8.42-4.84s2.56-8.5,2.56-15.84V180c0-4.13-.29-6.67-.84-7.58s-1.83-1.39-3.85-1.39H498.3V156.17H525V171h-2.64c-2,0-3.3.47-3.87,1.41s-.86,3.32-.86,7.08V230.3q0,16.82-6.66,25.62t-19.52,8.76q-11.69,0-18.1-8.65c-4.27-5.78-6.41-13.91-6.41-24.44V180c0-4-.3-6.48-.89-7.48S464.14,171,462.1,171h-3.55a4.68,4.68,0,0,0-4.12,2.12c-.94,1.39-1.77,4.08-2.46,8.08l-14.5,80.17H417.83l-13.33-77.5a33.31,33.31,0,0,0-2.86-9.75c-1.13-2.06-2.56-3.11-4.26-3.11h-2.72V156.17h34.47V171H426c-1.64,0-2.76.29-3.33.89a4.37,4.37,0,0,0-.86,3.08,34.8,34.8,0,0,0,.26,3.92v.16l9.09,53.74,9.55-54c.13-.86.24-1.62.31-2.27s.1-1.15.1-1.57a4.43,4.43,0,0,0-.86-3.14c-.57-.55-1.73-.84-3.46-.84h-2.89V156.17h60V171h-3.19c-2.06,0-3.39.5-4,1.49s-.86,3.48-.86,7.48Zm69.79-70.21L576.84,227V180c0-4.23-.3-6.8-.9-7.66S574.06,171,572.1,171h-3.27V156.17h25.31V171h-2.06c-2,0-3.3.47-3.87,1.41s-.86,3.48-.86,7.55v81.4H567.61l-22.38-75.44v51.47c0,4.1.29,6.61.86,7.58s1.87,1.46,3.87,1.46h2.56v14.93H527.15V246.45H530q3.07,0,3.95-1.49c.59-1,.87-3.5.87-7.55V180c0-4-.29-6.48-.86-7.48S532,171,530,171h-2.8V156.17Zm75.81,64.07V205.39h31.84v14.85h-2.06c-2,0-3.26.44-3.85,1.31s-.89,3.42-.89,7.66v33.25H646L644.13,256a33.24,33.24,0,0,1-8.54,6.64,18.83,18.83,0,0,1-8.51,2.17q-13.36,0-21-14.93t-7.69-41.06q0-25.17,8.25-40.57t21.83-15.4a19.17,19.17,0,0,1,8.48,1.83,21.14,21.14,0,0,1,7,5.67l1.39-5.83h9.17v43.34H644.39c-.94-10.12-2.43-17.43-4.45-22s-4.73-6.85-8.16-6.85q-5.86,0-8.49,9.31t-2.64,30.22q0,21.13,2.63,30.56t8.42,9.41q3.77,0,5.1-2.12c.9-1.39,1.34-4.44,1.34-9.15V229.2c0-4-.29-6.48-.86-7.48s-1.89-1.49-4-1.49ZM688,156.17V171a3.62,3.62,0,0,0-2.79.91,4.63,4.63,0,0,0-.82,3.06q0,1.1.09,2.12t.26,2l8.16,53.3,6.66-49.72c-.41-4.55-1.12-7.58-2.09-9.15s-2.66-2.38-5-2.48V156.17h28.4V171H719c-1.7,0-2.85.29-3.42.89a4.37,4.37,0,0,0-.86,3.08c0,.58,0,1.15.07,1.73s.13,1.39.27,2.35l7.12,53.3,7.38-53.45c.1-.78.19-1.49.24-2.14s.09-1.25.09-1.78a4.28,4.28,0,0,0-.9-3.14c-.6-.55-1.89-.84-3.87-.84V156.17H747V171a4.62,4.62,0,0,0-4.15,2.25c-.94,1.52-1.72,4.16-2.3,7.95l-12,80.17h-18.3l-5.66-42.82-5.82,42.82H680.41L668.55,184q-1.09-6.9-2.76-9.88a5.41,5.41,0,0,0-4.45-3.14V156.17Zm85.33,56.28-5.23-31.86-4.9,31.86Zm58.85-56.28L853.41,227V180c0-4.23-.3-6.8-.9-7.66s-1.87-1.31-3.83-1.31H845.4V156.17h25.31V171h-2.06c-2,0-3.3.47-3.87,1.41s-.86,3.48-.86,7.55v81.4H844.19l-22.38-75.44v51.47c0,4.1.29,6.61.86,7.58s1.87,1.46,3.87,1.46h2.56v14.93H771.18V246.45h2.59c2.19,0,3.52-.21,4-.65a3.28,3.28,0,0,0,.73-2.48c0-.81,0-1.59-.1-2.35s-.16-1.46-.27-2.17l-2.06-11.27h-15.5l-1.8,10c-.3,1.54-.51,2.74-.61,3.61a18.12,18.12,0,0,0-.17,2.38,2.51,2.51,0,0,0,1,2.14,5.08,5.08,0,0,0,3,.76h2.85v14.93H739.13V246.45h2.13c1.46,0,2.67-.84,3.67-2.54a27.61,27.61,0,0,0,2.57-8.26l15.13-79.49h20.82l13.48,79.17c.93,5.2,1.76,8.36,2.52,9.46a4.11,4.11,0,0,0,3.65,1.65h3.43q3.07,0,3.95-1.49c.59-1,.87-3.5.87-7.55V180c0-4-.29-6.48-.86-7.48s-1.89-1.49-4-1.49h-2.8V156.17Zm69.37,105.21V246.45h2.59c2.19,0,3.52-.21,4-.65a3.28,3.28,0,0,0,.73-2.48c0-.81,0-1.59-.1-2.35s-.16-1.46-.27-2.17l-2.06-11.27H891l-1.8,10c-.3,1.54-.51,2.74-.61,3.61a18.11,18.11,0,0,0-.17,2.38,2.51,2.51,0,0,0,1,2.14,5.08,5.08,0,0,0,3,.76h2.85v14.93H869.52V246.45h2.13c1.46,0,2.67-.84,3.67-2.54a27.6,27.6,0,0,0,2.57-8.26L893,156.17h20.82l13.48,79.17c.93,5.2,1.76,8.36,2.52,9.46a4.11,4.11,0,0,0,3.65,1.65h3v14.93Zm2.17-48.93-5.23-31.86-4.9,31.86ZM609.85,772.58c-.1.1.29.29.31.31ZM522.11,439.15l9.54-11.64c-3.87,11.38-4.08,17.27-1.49,29.25L543.44,448c-7.4,10-12.26,12.44-8.07,28.89-5-3.28-2.68-4.19-7.15-3.93-6.07,8-3.67,9.88-7.19,18.29-5.49-20.16,2.08-13.19,1.34-27.52-4.18-1.65,1,1.49-6,.21-5.78-9.21-.89-7.52-6.72-9.9,1.32-12.2,4.06-3.81,4.45-12.8-10.72-.74-6.63,4.8-10.31,12.86-1.37-8.69,3.45-21,6-30.71,24.6-14.24-17.3,16.14,12.85-9.32C520.2,425.37,518.9,427.28,522.11,439.15Zm1.84,128.19.89-5.14-5.42-.59c-5.15,4.52-2.55,12.55.34,18.2ZM548.4,430.79c5.28-9.94,8.7-9.34,15.12-17.46.5-14.47-8.62-19,5.63-28.81-7.77,18.16,7.26,18.44,2.63,29.47C570,418.14,553.18,427,548.4,430.79Zm-34.26-55.52c-4.25-24.17,9.71-40.58,26.64-46.36C530.45,337.15,515.6,354.41,514.14,375.27Zm12.14,141.27c.46,10.9-.75,15.66-7.74,23,1.78-10.7.12-13-.19-23.77l1.31-19.49,3.08,10.11c3.58-6.35,5.91-9.09,11.43-13C529.58,503.11,528.08,503,526.28,516.54Zm2.61-105.17c-2.9-15.87,9.92-19.45,22.91-23.56-4.29,5.45-6.84,6.45-12.89,10.73C531.66,403.65,533.28,403.37,528.89,411.37Zm-8.25-25.26c-4.32-10.29.35-27.7,4.37-36.62,2.88,10.48-3.09,27.5-4.37,36.62,20.13-7.19,16.8-35.32,41.2-42.31-21,21.31-12.5,23.05-20.09,34.35-4.64,6.91-24.63,10.4-25.66,28.39C515.55,397.3,518.73,393.35,520.65,386.11ZM504.19,668.29l13.63-51.18C520.94,637.85,507.55,653.2,504.19,668.29Zm10.87-184.67c-2.95-5-5.07-12.44-3-19C517.92,471.83,516.23,473.82,515.06,483.62Zm50.76,63.57c-6.5,4.42-15.36,7.8-22.47,12.12,2.12-3.16.39-1.35,3-3.91l7.06-4.61C557.84,548.6,560.29,548,565.82,547.19ZM422.25,713.28c2.22-2.18.6.08,1.48-4.45-7.26-9.06-10-18.92-15.77-27.7-2,8,4,19.09,5.62,27.29C419.42,710.61,416.39,710.3,422.25,713.28Zm7.25,7.37c-3.82-2.16-1.2.09-4-2.83a13.85,13.85,0,0,1-1.23-1.54,17.42,17.42,0,0,0,.44,3.07c13.06,12.2,25.89,16.31,44.48,3.81l5-5.51C456.44,726,451.4,733.35,429.5,720.65ZM509,553.6,507.87,555c.73,4.72-.74,1.74,1.79,4.38,2.37-2.62,2.52.29,5.48-6.32ZM478.47,711.12c2.91-5.16,3.09-5.31,7.81-8.71-1.12,2.27-.05,1.4-1.9,3.92-4.06,5.55-1.19,1.84-4.71,4.76a10.4,10.4,0,0,0-2.46,2.16c-3.74,4.39-1.44,1.32-3,4.4l4.51,1.49c2.3-3.44,5.32-5.81,8.29-9.95,18.64-26,40.86-70.57,32-102.06L515.47,605c-3.2,27.26-24.35,73.55-38.78,94.83,3.38-9.58,30.74-77.88,31.05-89,.08-2.87-.54-3.34-.65-3.61-7.91,24.25-23.1,70.12-36.16,91.8-9,15-8.48,11.89-19.68,22C465.5,721.54,469.84,715,478.47,711.12Zm60.78-182.06c-.39-.54-1.21-1.12-1.38-1.45s-.62-1.15-.73-1.41l1-2.66Zm127.37-89.91-9.54-11.64c3.87,11.38,4.08,17.27,1.49,29.25L645.29,448c7.4,10,12.26,12.44,8.08,28.89,5-3.28,2.68-4.19,7.15-3.93,6.07,8,3.67,9.88,7.19,18.29,5.49-20.16-2.08-13.19-1.34-27.52,4.18-1.65-1,1.49,6,.21,5.78-9.21.89-7.52,6.72-9.9-1.32-12.2-4.06-3.81-4.45-12.8,10.72-.74,6.63,4.8,10.31,12.86,1.37-8.69-3.45-21-6-30.71-24.6-14.24,17.3,16.14-12.85-9.32C668.53,425.37,669.83,427.28,666.62,439.15Zm-1.84,128.19-.89-5.14,5.42-.59c5.15,4.52,2.55,12.55-.34,18.2ZM640.33,430.79c-5.28-9.94-8.7-9.34-15.12-17.46-.5-14.47,8.62-19-5.63-28.81,7.77,18.16-7.26,18.44-2.63,29.47C618.69,418.14,635.54,427,640.33,430.79Zm-46,105.44c21.75-2.25,26.07,2.43,43.86,8.21-2.48-4.54-1.3-4.9-8.28-8-23.52-10.38-19.59-4.29-35.58-5.31-16,1-12.06-5.07-35.58,5.31-7,3.08-5.8,3.44-8.28,8C568.3,538.66,572.62,534,594.36,536.23Zm0,67.35c24.51-2.1,32.69,5.52,50.55,13.57-3.74-5.74-10.38-11.06-19.13-14.2-15.09-5.42-15.85-2.78-31.42-4.08-15.56,1.3-16.33-1.34-31.42,4.08-8.75,3.14-15.39,8.46-19.13,14.2C561.67,609.1,569.85,601.48,594.36,603.58Zm0-144.21c27,.73,37.25,5.58,50,19.36-8-17.67-23.49-23.71-50-23.84-26.5.13-42,6.17-50,23.84C557.12,464.95,567.32,460.1,594.36,459.37Zm0,45.82c6.14-.44,10.84-1.72,16.3.28.46.17.9.48,1.35.67l32.8,14.35c-2.5-3.19.8.21-2.93-3.48-.4-.39-1.62-1.47-2.06-1.83-12.22-9.91-28.83-14.64-45.45-14.83-16.63.19-33.23,4.92-45.45,14.83-.44.36-1.67,1.44-2.06,1.83-3.73,3.7-.43.29-2.93,3.48l32.8-14.35c.45-.19.88-.5,1.35-.67C583.53,503.47,588.22,504.76,594.36,505.2Zm80.22-129.92c4.25-24.17-9.71-40.58-26.64-46.36C658.28,337.15,673.13,354.41,674.59,375.27ZM594.36,488.56c24,.19,23,2.36,40.38,10.06-9.6-12.06-20.16-14.69-40.38-15-20.22.33-30.78,3-40.38,15C571.4,490.92,570.4,488.75,594.36,488.56Zm0,226.31c15.53-.06,27.33,0,38.16-7.73l-38.16,3-38.16-3C567,714.84,578.84,714.82,594.36,714.87Zm0-73.95,43.73,2c-4.52-.46-13-4.11-20-5.45-7.74-1.46-15.51-1.41-23.68-1.42s-15.94,0-23.68,1.42c-7.08,1.34-15.53,5-20,5.45Zm0-270.61c17.47.35,24.55,2,38.48,7.63C622,368,613.58,365.86,594.36,365.47c-19.22.39-27.64,2.54-38.48,12.48C569.82,372.29,576.9,370.67,594.36,370.32Zm0,61.83c16.11.63,21.59,3,35.33,6.37-2.36-2.4-2.41-3-6.9-5.2a60.3,60.3,0,0,0-8.4-3.17,72.87,72.87,0,0,0-40.06,0,60.3,60.3,0,0,0-8.4,3.17c-4.49,2.24-4.53,2.8-6.9,5.2C572.77,435.13,578.25,432.78,594.36,432.15Zm0-80.87,32.86,4.36c-10.2-7.68-16.62-8.39-32.86-8.89-16.24.51-22.66,1.21-32.86,8.89Zm0,312.66,35.84-.9c-7.65-5.5-26.64-3.83-35.84-3.84s-28.18-1.66-35.84,3.84Zm0,36.47c14.28-.44,22.42-.34,31.56-7.52l-31.56,2.88-31.56-2.88C571.95,700.07,580.09,700,594.36,700.41Zm68.08-183.87c-.46,10.9.75,15.66,7.74,23-1.78-10.7-.12-13,.19-23.77l-1.31-19.49L666,506.4c-3.58-6.35-5.91-9.09-11.43-13C659.15,503.11,660.65,503,662.45,516.54Zm-2.61-105.17c2.9-15.87-9.92-19.45-22.91-23.56,4.29,5.45,6.84,6.45,12.89,10.73C657.06,403.65,655.45,403.37,659.84,411.37Zm8.25-25.26c4.32-10.29-.35-27.7-4.37-36.62-2.88,10.48,3.09,27.5,4.37,36.62-20.13-7.19-16.8-35.32-41.2-42.31,21,21.31,12.5,23.05,20.09,34.35,4.64,6.91,24.63,10.4,25.66,28.39C673.17,397.3,670,393.35,668.08,386.11Zm16.46,282.18-13.63-51.18C667.79,637.85,681.18,653.2,684.54,668.29ZM594.36,331.4c6.95.26,16.65,2.6,21.3.91-8.45-3.5-10.71-5-21.3-5.63-10.59.59-12.85,2.13-21.3,5.63C577.71,334,587.42,331.66,594.36,331.4Zm79.3,152.21c2.95-5,5.07-12.44,3-19C670.81,471.83,672.5,473.82,673.67,483.62Zm-50.76,63.57c6.5,4.42,15.36,7.8,22.47,12.12-2.12-3.16-.39-1.35-3-3.91l-7.06-4.61C630.89,548.6,628.44,548,622.91,547.19ZM766.48,713.28c-2.22-2.18-.6.08-1.48-4.45,7.26-9.06,10-18.92,15.77-27.7,2,8-4,19.09-5.62,27.29C769.31,710.61,772.34,710.3,766.48,713.28Zm-7.25,7.37c3.82-2.16,1.2.09,4-2.83a13.89,13.89,0,0,0,1.23-1.54,17.42,17.42,0,0,1-.44,3.07c-13.06,12.2-25.89,16.31-44.48,3.81l-5-5.51C732.29,726,737.33,733.35,759.23,720.65Zm-79.53-167,1.16,1.41c-.73,4.72.74,1.74-1.79,4.38-2.37-2.62-2.52.29-5.48-6.32ZM594.36,445l13.42-2.18c-5.4-2.91-7.56-2.43-13.42-2.74-5.86.31-8-.17-13.42,2.74ZM710.26,711.12c-2.91-5.16-3.09-5.31-7.81-8.71,1.12,2.27.05,1.4,1.9,3.92,4.06,5.55,1.19,1.84,4.71,4.76a10.4,10.4,0,0,1,2.46,2.16c3.74,4.39,1.44,1.32,3,4.4L710,719.15c-2.3-3.44-5.32-5.81-8.29-9.95-18.64-26-40.86-70.57-32-102.06l3.48-2.19c3.2,27.26,24.35,73.55,38.78,94.83-3.38-9.58-30.74-77.88-31.05-89-.08-2.87.54-3.34.65-3.61,7.91,24.25,23.1,70.12,36.16,91.8,9,15,8.48,11.89,19.68,22C723.22,721.54,718.89,715,710.26,711.12ZM649.48,529.06c.39-.54,1.21-1.12,1.37-1.45s.62-1.15.73-1.41l-1-2.66Zm-55.11,39a84.37,84.37,0,0,0-16,1.85c-9.12,1.86-5.22,1.28-12.87,4.66-10,4.42-14.37,4.83-22.21,11.45-2.7,6.28-.25,1.07-4,5.14-3.06,3.29-1.71-.44-3.14,4.39,3.17,2.85-.83,1.07,3.83.81,4-6.3,6.82-9,13.06-12.13-13.9,14.78-10.61,15.22-17.21,38.47-4.11-6.25-3.74-9.56-5.08-17.46.22-.13.67-.47.74-.24s2.85,0,4.85-3a43,43,0,0,0-4.07-8.86l-5.54,3.45c-22.53-12.18-12.31-1.64-26.7-1.5-2-8.72,2.38-9.29,7.27-12.58.56-7,1.68-15-2.35-20,1.59,21.19-7,18-8.69,30l3.16,7c9-1.18,8.92-6.94,16.69-5.17,5.54,1.27,8.67,6.42,10.92,13l2.85,27.25c9.94-4.54,10.62-11.29,22.16-15.81-5.15,5.76-9.48,7.4-12.5,17.76l12.13-3.62c-4.83,4-9.67,6.2-10.85,13.11,4.94,3.24,3.25,1.81,10.3,1.39-.38.5-1,1.08-1.2,1.44s-.83,1-1.06,1.4-.64.94-.79,1.29c-1.19,2.79-4.82,1.46,5,5.27-6.83,1.81-5.2.41-8.66,4.51l9.51,6c-1.71.85-2.59,1-4,1.73-4.53,2.28-1.48.49-3.64,2.18l4.55,3.5a7.19,7.19,0,0,1,1.28-.6c.23,0,1-.18,1.27-.2l.28,0,.21,0h.2a2.71,2.71,0,0,1,1,.09c-.09.27.1.63.8,1.11,1.08.21,1.83.33,2.32.4v.21c13.42,3.45,20.35,4.27,36.24,4.57,15.89-.3,22.81-1.11,36.24-4.57v-.21c.5-.07,1.24-.19,2.32-.4.7-.48.89-.84.8-1.11a2.71,2.71,0,0,1,1-.09h.2l.21,0,.28,0c.23,0,1,.17,1.27.2a7.19,7.19,0,0,1,1.28.6l4.55-3.5c-2.16-1.69.89.1-3.64-2.18-1.41-.71-2.29-.89-4-1.73l9.51-6c-3.46-4.1-1.83-2.7-8.66-4.51,9.83-3.81,6.19-2.48,5-5.27-.15-.35-.6-.95-.79-1.29s-.83-1.06-1.06-1.4-.83-.94-1.2-1.44c7,.42,5.36,1.85,10.3-1.39-1.19-6.91-6-9.09-10.86-13.11l12.13,3.62c-3-10.36-7.36-12-12.5-17.76C648.28,623.24,649,630,658.9,634.52l2.85-27.25c2.25-6.55,5.38-11.7,10.92-13,7.77-1.78,7.66,4,16.69,5.17l3.16-7c-1.69-11.94-10.28-8.78-8.69-30-4,5-2.91,13-2.35,20,4.89,3.29,9.26,3.86,7.27,12.58-14.4-.14-4.17-10.68-26.7,1.5l-5.54-3.45a43,43,0,0,0-4.07,8.86c2,3,4.77,3.32,4.85,3s.51.11.74.24c-1.35,7.9-1,11.21-5.08,17.46-6.6-23.25-3.31-23.69-17.21-38.47,6.24,3.11,9,5.83,13.06,12.13,4.66.26.66,2,3.84-.81-1.42-4.83-.07-1.1-3.14-4.39-3.79-4.07-1.33,1.14-4-5.14-7.84-6.63-12.2-7-22.21-11.45-7.65-3.38-3.75-2.8-12.87-4.66A84.37,84.37,0,0,0,594.36,568.07Zm0-246.76C570.9,323.16,563,341.05,545,340.54c7.55-1.44,18.16-11.9,21.79-16.24-25.28-7.66-26,6.89-39.86-.49-19.68-10.47-21.63-36.9-63.3-8.25-12.28,8.45-20.73,6.93-36.89,9.68-58.13,9.91-59.22,40.87-78.48,65-9.22,11.53-17.31,9-31.42,14.86-9.43,36.8,6.34,40.43,37.55,35.5-10.76,9.93-21.4,15-28.49,28.06-5.11,9.42-6.54,56.43,27.68,34.85C322,544,377.73,556.4,389.46,553.53c13.25-3.24,16.63-12.6,21.56-16.52l2.54-14.2c1.86-8,3.63-11.57,8.14-18.51,5.91-9.08,5-11.57,10.14-16.35l1.83-2.9-.89-8.71c-14.06-.71-23.84,10.57-29.5,18.06,13-36,87.51-59.67,66.7-80.6-3.93-3.48,1.23-2.14-7.43-2.56-4.35-.21-15.47,3.41-26.35,4,2-1.35-.61.12,4.14-2.46,63.5-34.46-33.51-49.88-44.67-48.58,27-4.79,34.62,3,57.38,6.17-.38-7.8-2.51-7.41-6.34-13.14,10.68,5.38,12.08,12.22,29.87,13.39,8.88-24.89,3.16-8.88,12.41-25.8,2.45,3.54.84,7.64,3.27,11.34,5.79-9.72,18.39-13.09,28.09-21.2-6.33,17.17-33.47,16.67-25.62,50.19a135.43,135.43,0,0,1,6.18-12.77c-.21,6.55-2.35,15.22.39,20.69,6.68-4.8,4.07-9.42,7.07-19.19,2-6.36.9-3.13,2.5-5.66.55,43.15,1.25,42.16-15.21,74.54-8.42,16.55,2.53,8.48,8.42,32,5.12,20.4,9.71,1.53,7,31.45,1.19,8.88,4.59,12.94,5.05,19.94.53,8.07-2.23,12.36-2.47,18.83,3,2.91,2.1.88,3.12,5.49a81.36,81.36,0,0,0,7.39-7.21l-1.6,7.25c4.7,3.37,4.58-1.14,10.71,3.73l-12.48,3.63c8.18,2.07,7.58,1.41,13.4,6.74-8.45,3.78-4.62,11.41-2.36,19.4,6.58-1.27,2.87-.48,4.32-3.87,14.12,0,3.9-.92,7.07,3.88,14.56-11.66,25.55-19.22,51.09-18.41,25.54-.81,36.53,6.75,51.09,18.41,3.17-4.8-7.05-3.88,7.06-3.88,1.45,3.39-2.25,2.6,4.32,3.87,2.25-8,6.08-15.62-2.36-19.4,5.82-5.33,5.22-4.66,13.4-6.74l-12.48-3.63c6.13-4.87,6-.37,10.71-3.73l-1.6-7.25a81.37,81.37,0,0,0,7.39,7.21c1-4.61.09-2.58,3.12-5.49-.24-6.47-3-10.77-2.47-18.83.46-7,3.86-11.06,5.05-19.94-2.66-29.92,1.93-11,7-31.45,5.89-23.47,16.83-15.4,8.42-32-16.46-32.37-15.77-31.38-15.21-74.54,1.59,2.53.54-.7,2.5,5.66,3,9.77.39,14.39,7.07,19.19,2.74-5.47.61-14.14.39-20.69A135.51,135.51,0,0,1,694,385.14c7.86-33.53-19.28-33-25.62-50.19,9.7,8.11,22.31,11.48,28.09,21.2,2.43-3.7.82-7.8,3.27-11.34,9.25,16.92,3.53.9,12.41,25.8,17.79-1.17,19.18-8,29.87-13.39-3.84,5.73-6,5.34-6.34,13.14,22.76-3.2,30.34-11,57.38-6.17-11.16-1.3-108.17,14.12-44.67,48.58,4.75,2.58,2.19,1.11,4.14,2.46-10.88-.56-22-4.19-26.35-4-8.66.43-3.5-.92-7.43,2.56-20.8,20.93,53.71,44.6,66.7,80.6-5.66-7.5-15.44-18.77-29.5-18.06l-.89,8.71,1.83,2.9c5.1,4.77,4.22,7.26,10.14,16.35,4.52,6.94,6.29,10.48,8.14,18.51l2.54,14.2c4.93,3.92,8.32,13.28,21.56,16.52,11.73,2.87,67.46-9.51,35.88-50.05,34.21,21.59,32.78-25.42,27.68-34.85-7.1-13.09-17.73-18.13-28.49-28.06,31.22,4.93,47,1.3,37.55-35.5-14.11-5.88-22.2-3.33-31.42-14.86-19.26-24.09-20.35-55.05-78.48-65-16.16-2.75-24.6-1.24-36.89-9.68-41.67-28.65-43.62-2.22-63.3,8.25-13.87,7.38-14.58-7.18-39.86.49,3.62,4.34,14.24,14.8,21.79,16.24C625.72,341.05,617.83,323.16,594.36,321.32Zm0,467.38c-12.23-1.39-19.67-5.45-25.56-12.51s-4.29-3.24-7.17-12c-3.28-9.92-1.93-4.78-8.11-11.62-1.1-10.14,2.57-7-1.47-15.79s-4.86-.09-3.52-14.46c1.18-12.64,1.14-3.28-3-12.25-4.62-10.11-.82-7.27,1.18-15,2.76-10.61-.15-3.22-2.68-12.73-2.93-11-6.48-25.14-12.7-35.05-4.06-6.48,2.86-1.84-4.88-5.47-8.6,6.15-17.69,71.4-62.23,95.06-25.05,13.31-42.81-2.6-51.87-19.49-7.73-14.43-16.54-46-13.29-65.17,17.86,9.4,33.89,127.37,79.5,17.57,8.05-19.38,16.85-42.32,22.28-62.43-12.62-3.09-18.55-3.53-32-2.47-8.41.93-15.52,1-22-1.62-2.08-5-2-9.6-1.84-16.56-16.49,3.29-38.2,7.64-41.75-8.43-5.32-4.31-5.81-8.15-8.65-12-20.51,4.22-27.34.25-40-10.17-9.85-8.1-20-16.85-20.08-36.16-8.14-3.42-10.63-1.57-15.06-8.24-3.14-4.72-4.74-14.2-5-20.76-.71-16.56,2.83-30.27,11.49-37.74-13-6.86-23.53-14.18-21.44-40,1.57-19.48,22.16-19.86,33.92-30.9,14.51-13.62,18.77-49.55,63.94-62,16.62-4.58,37.73-4.21,52.46-9.67,12.84-4.77,30.65-19.07,46.41-13.6,16.82,5.84,18.11,29.28,37.34,23.84,15-4.24,9.8-3.19,26.74-3.44,15-.22,11.55-6,29-5.74,17.46-.23,14.06,5.52,29,5.74,16.93.25,11.75-.8,26.74,3.44,19.23,5.44,20.52-18,37.34-23.84,15.76-5.47,33.57,8.84,46.41,13.6,14.72,5.46,35.83,5.09,52.46,9.67,45.17,12.46,49.43,48.39,63.94,62,11.76,11,32.34,11.42,33.92,30.9,2.09,25.81-8.42,33.13-21.44,40,8.65,7.47,12.2,21.18,11.49,37.74-.28,6.57-1.88,16-5,20.76-4.43,6.67-6.92,4.81-15.06,8.24-.08,19.31-10.22,28.06-20.08,36.16-12.67,10.42-19.5,14.39-40,10.17-2.85,3.86-3.33,7.71-8.65,12-3.55,16.07-25.26,11.72-41.75,8.43.2,7,.25,11.58-1.84,16.56-6.43,2.59-13.54,2.55-22,1.62-13.48-1.06-19.4-.62-32,2.47,5.43,20.12,14.23,43.05,22.28,62.43,45.61,109.8,61.64-8.16,79.5-17.57,3.25,19.21-5.56,50.74-13.29,65.17-9.05,16.89-26.81,32.8-51.87,19.49-44.53-23.66-53.63-88.91-62.23-95.06-7.74,3.63-.82-1-4.88,5.47-6.22,9.92-9.77,24-12.7,35.05-2.53,9.5-5.44,2.11-2.68,12.73,2,7.73,5.8,4.88,1.18,15-4.09,9-4.13-.39-3,12.25,1.34,14.36.54,5.55-3.52,14.46s-.37,5.65-1.47,15.79c-6.18,6.84-4.84,1.7-8.11,11.62-2.88,8.72-1.33,5-7.17,12S606.59,787.3,594.36,788.7Zm0-65.87-22.1-1.1,6.92,2.61-8.38.72c1.3.78-.64,1.18,5.59,2.31.65.12,4.18.14,4.68.16q6.64.18,13.28.38,6.66-.21,13.28-.38c.5,0,4,0,4.68-.16,6.23-1.13,4.29-1.53,5.59-2.31l-8.38-.72,6.92-2.61Zm-40.73-41.14,3,2.49,2.89,2.38,1.16,1-6.41,2.17c4.14,6.6.87,3.9,7,6.62h0c-.73.2-1.83.53-3.44,1.05-3.59,1.16-1.63.16-3.07,1.53a14.14,14.14,0,0,0-.9,1.28l-3,4.33c4.32,5.91,6.8,6.76,13.71,10.13-13.85,6.36-3.17,4,4.49,4.18,8.44.19,16.45.93,25.28,1s16.84-.76,25.28-1c7.66-.17,18.34,2.18,4.49-4.18,6.92-3.36,9.39-4.22,13.71-10.13l-3-4.33a14.14,14.14,0,0,0-.9-1.28c-1.44-1.37.52-.37-3.07-1.53-1.61-.52-2.71-.86-3.44-1.05h0c6.18-2.72,2.91,0,7-6.62L628,687.52l1.16-1,2.89-2.38,3-2.49-3-2-1.48-1-.38-.26c-14.12,6.23-19.07,6-35.85,6.28-16.78-.25-21.73,0-35.85-6.28l-.38.26-1.48,1Zm40.73,118.45v.14l-1.19-.14c-13.17-1.5-23.86-5.95-32.43-16.22-1.66-2-3.94-4.12-5.35-6.21-1.81-2.68-2.72-6.13-3.73-9.19-.32-1-.69-2.21-1.09-3.29a40.31,40.31,0,0,1-4.84-4.58l-2.28-2.53-.37-3.38a34.06,34.06,0,0,1,.32-10.46c-.25-.71-.64-1.52-.9-2.1-.15-.32-.34-.75-.54-1.1-6-5.11-4.53-11.68-3.88-18.69.08-.86.18-1.73.28-2.6a31,31,0,0,1-2.33-4.31c-1.64-3.6-3.08-7.24-3.14-11l-13.81-9.81L535.49,696a9.9,9.9,0,0,0,1.12-2.49l.13-.5a24.69,24.69,0,0,1-2.8-6.88l-.52-2-5-3.92,4,.37c-.59-2.2-1.2-4.47-1.87-6.74l-3.6-.09,2.94-2.11c-.7-2.29-1.45-4.56-2.27-6.77-3.3,8.91-6.65,17.72-10.65,26.36-10.51,22.69-25.24,44-47.84,56-27.65,14.69-52.46,1.54-66-23.81-9.71-18.11-17.84-51.49-14.39-71.88l2.42-14.29L404,644c6.26,3.3,10.4,10.72,13.46,16.85,3.49,7,6.47,14.27,9.7,21.38,2.81,6.18,6,12.95,9.89,18.5,1,1.47,4.34,5.76,6.3,6.08,1.7.28,5.86-4.2,6.74-5.24,7.75-9.13,14.28-23.79,18.84-34.76,6.77-16.29,13.47-33.33,18.73-50.39a71.9,71.9,0,0,0-17.79,0c-9.15.87-18.18,1.17-26.87-2.33l-4.07-1.64-1.69-4a33.45,33.45,0,0,1-2.24-8.1c-11.26,1.71-24.76,2.41-34-5.26a23.11,23.11,0,0,1-6.91-9.85,31.06,31.06,0,0,1-4.82-6.27c-17,2.3-26.6-1.55-41.3-13.64-13.07-10.75-21.39-20.64-23.42-36.51a30.46,30.46,0,0,1-4.35-1.56,22.83,22.83,0,0,1-9.44-8.63c-4.51-6.79-6.41-18-6.76-26.12-.5-11.7.85-24.76,6.53-35.31-1.22-.9-2.39-1.85-3.53-2.88-11.9-10.78-14.17-25.5-12.94-40.84a30.82,30.82,0,0,1,8.49-19.4c5.81-6.08,13-9.11,20.32-12.87a37.05,37.05,0,0,0,8.39-5.45c3.06-2.87,5.76-7.64,7.84-11.26,3.62-6.3,7-12.55,11.2-18.53C362.78,328,378.58,317,399.63,311.2a165.17,165.17,0,0,1,23.21-4.15c9-1.13,19.92-2.11,28.38-5.25,6.38-2.37,13-6.46,19.23-9.37,10.82-5,22.55-8.37,34.27-4.31,8.07,2.8,13.51,8.12,18.69,14.65,1.85,2.33,5.55,7.6,8.11,9a3.36,3.36,0,0,0,1,.35l11.33-9.47-2.8,7.59a58.28,58.28,0,0,1,8.67-2c4.8-.6,10.62-.26,15.51-.34a18.36,18.36,0,0,0,8.76-1.82A40.29,40.29,0,0,1,589,302.32l5.33-1.82v.1l-2,1.61h2v-.14h2l-2-1.61v-.1l5.33,1.82A40.31,40.31,0,0,1,614.77,306a18.36,18.36,0,0,0,8.75,1.82c4.89.07,10.71-.26,15.51.34a58.29,58.29,0,0,1,8.67,2l-2.8-7.59L656.24,312a3.36,3.36,0,0,0,1-.35c2.57-1.4,6.26-6.67,8.11-9C670.5,296.12,675.93,290.8,684,288c11.72-4.06,23.45-.71,34.27,4.31,6.28,2.91,12.86,7,19.23,9.37,8.46,3.14,19.42,4.11,28.38,5.25a165.24,165.24,0,0,1,23.21,4.15c21,5.81,36.85,16.83,49.29,34.69,4.16,6,7.58,12.23,11.2,18.53,2.08,3.62,4.78,8.39,7.84,11.26a37.06,37.06,0,0,0,8.39,5.45c7.29,3.76,14.51,6.79,20.32,12.87a30.82,30.82,0,0,1,8.49,19.4c1.24,15.34-1,30.06-12.94,40.84-1.13,1-2.31,2-3.53,2.88,5.68,10.56,7,23.61,6.53,35.31-.35,8.13-2.25,19.33-6.76,26.12a22.83,22.83,0,0,1-9.44,8.63,30.45,30.45,0,0,1-4.35,1.56c-2,15.87-10.36,25.77-23.42,36.51-14.71,12.09-24.32,15.95-41.3,13.64A31.06,31.06,0,0,1,794.6,585a23.11,23.11,0,0,1-6.91,9.85c-9.21,7.67-22.71,7-34,5.26a33.46,33.46,0,0,1-2.24,8.1l-1.69,4-4.07,1.64c-8.69,3.5-17.72,3.2-26.87,2.33a71.9,71.9,0,0,0-17.79,0c5.26,17.06,12,34.1,18.73,50.39,4.56,11,11.08,25.63,18.84,34.76.88,1,5,5.52,6.74,5.24,2-.32,5.26-4.61,6.3-6.08,3.92-5.56,7.09-12.32,9.89-18.5,3.23-7.11,6.21-14.4,9.69-21.38,3.06-6.13,7.19-13.56,13.46-16.85l12.82-6.75L800,651.38c3.45,20.39-4.68,53.76-14.39,71.88-13.58,25.34-38.4,38.49-66,23.81-22.6-12-37.33-33.29-47.84-56-4-8.64-7.34-17.44-10.65-26.36-.82,2.21-1.58,4.49-2.27,6.77l2.94,2.11-3.6.09c-.66,2.28-1.28,4.54-1.87,6.74l4-.37-5,3.92-.52,2a24.69,24.69,0,0,1-2.8,6.88l.13.5a9.9,9.9,0,0,0,1.12,2.49l16.41-1.31-13.81,9.81c-.06,3.77-1.5,7.4-3.14,11a31,31,0,0,1-2.33,4.31c.1.87.2,1.75.28,2.6.66,7,2.13,13.58-3.88,18.69-.2.35-.4.78-.54,1.1-.26.58-.65,1.39-.9,2.1a34.07,34.07,0,0,1,.32,10.46l-.37,3.38L643,760.52a40.32,40.32,0,0,1-4.84,4.58c-.4,1.08-.77,2.31-1.09,3.29-1,3.06-1.92,6.51-3.73,9.19-1.41,2.09-3.68,4.21-5.35,6.21-8.57,10.27-19.26,14.72-32.43,16.22Zm0-697.86c-127.27,0-216.53,7.27-338.22-33.9L163.52,190.2s80.13,105.11,47.87,227.91-88.43,362,6.77,455.29C290.35,944.1,415.39,1011,505.82,1059.12c43.84,23.33,78.07,54.62,88.55,65.09,10.47-10.47,44.7-41.76,88.54-65.09,90.44-48.11,215.47-115,287.65-185.72,95.21-93.26,39-332.49,6.77-455.29s47.87-227.91,47.87-227.91L932.58,68.37C810.9,109.55,721.63,102.27,594.37,102.27Z"/><path class="cls-3" d="M262.56,89,185.29,190.61c12.27,18.79,23.25,41.85,30.68,61.2,21,54.61,27.41,113.71,12.42,170.76C200.23,529.78,140.82,773,230.47,860.84c40.54,39.71,92.68,74,141.15,103.34,46.55,28.15,94.45,53.88,142.46,79.43a419.22,419.22,0,0,1,80.29,56.4,419.24,419.24,0,0,1,80.29-56.4c48-25.54,95.9-51.28,142.46-79.43,48.47-29.3,100.61-63.62,141.15-103.34,89.65-87.82,30.24-331.06,2.07-438.27-15-57.06-8.57-116.16,12.43-170.77,7.43-19.34,18.41-42.4,30.68-61.19L926.17,89c-50.44,16-100.34,25.24-153.52,28.94-59.12,4.11-119,1.94-178.28,1.94S475.21,122,416.09,117.91C362.91,114.21,313,105,262.56,89m690.25,647.4-11.12,10.8c3.82,5.74,4.21,4.28,10.71,1.78C955.28,741.6,956.92,741.15,952.81,736.37Zm-191,150.76a16.67,16.67,0,0,0-9.1,11.39q-2.23,9.51,4.8,23.09,6.89,13.28,16.36,17.5a16.13,16.13,0,0,0,14.62-.55,17.11,17.11,0,0,0,9.37-11.89q2.07-9.37-4.55-22.13-5.1-9.82-11.56-15a19.08,19.08,0,0,0-10.08-4.45A17.59,17.59,0,0,0,761.77,887.14Zm-103.89,91a45.74,45.74,0,0,0,10.47-.62c5.41-1,9.31-2.92,11.72-5.86a11.63,11.63,0,0,0,2.64-9.78,13.41,13.41,0,0,0-3.14-6.46,13.1,13.1,0,0,0-7.19-4,27.5,27.5,0,0,0-11.08,0c-1.85.33-3.43.64-4.74.93a24.07,24.07,0,0,0-3.12.89Zm-5.18-29a34.13,34.13,0,0,0,3.88-.2c1.44-.15,3-.38,4.71-.68,4.36-.78,7.56-1.82,9.58-3.16a10.64,10.64,0,0,0,4.27-5.23,12.29,12.29,0,0,0,.61-6.67,11.81,11.81,0,0,0-6-8.31q-5-3-13.35-1.5a31,31,0,0,0-7.9,2.42Zm-145.49,4.65L503,927l-16.38,21.64Zm-115-89.41a16.28,16.28,0,0,0-14.45-2.43q-9.45,2.79-17.78,15-8.54,12.48-7.8,22.84a16,16,0,0,0,7.32,12.52,17.9,17.9,0,0,0,15.68,2.5q8.5-2.4,16.75-14.45,8.93-13.06,8.18-23Q399.51,869.3,392.24,864.32Zm-157-127.84,11.12,10.8c-3.82,5.74-4.21,4.28-10.71,1.79C232.74,741.7,231.11,741.25,235.21,736.48Zm23.54,46.26,3.15-15.23L253,786.42l-7.78,5,1-31.69L232.38,788.4l3.69-30.66-14.54,17.85,6.54-31.07-13.68,14.15,4.66-27.79c-10.62,13.76-13.44,9.35-14.1,2.59a2.74,2.74,0,0,0,2,1.18c2.32.22,5-2.35,5.92-5.76.83-3.07-.08-5.8-2-6.41a52.59,52.59,0,0,1,9.24-7.69c7.06-23.3,14.84-43.35,24.08-57-8.93,21.84-12.79,35.33-16.11,55.46l9.41,13.61c2.33-4.09,10.78-14.65,18.43-18.89-4.3,5.57-9.8,20.16-11,28.95l10.5,7.49c7.43,5.51,14.91,11,22.32,16.5l7.49-19.68c-.64,8,1,15.61.38,23.6l.38.36Zm29.44,72.69,21.12-53.08L279.47,830.8c-2.74,2.62-4.17,4.54-4.29,5.79-.15,1.69.62,3.42,2.29,5.17l1.5,1.57-1.21,1.16L262.94,829l1.21-1.16,1.5,1.57q2.7,2.83,5.56,2.38c1.16-.18,3-1.48,5.49-3.86l29.18-27.82a14.14,14.14,0,0,0,3.66-4.74,5.08,5.08,0,0,0,0-3.22,12.63,12.63,0,0,0-3.14-4.58l1.23-1.17L319.66,799l-19.5,49.52,50.14-17.39,12.06,12.64L361.13,845l-1.48-1.55q-2.73-2.87-5.57-2.42c-1.17.19-3,1.47-5.51,3.86L319.4,872.68c-2.74,2.62-4.15,4.56-4.25,5.83q-.22,2.53,2.28,5.16l1.48,1.55-1.21,1.16-18.09-19,1.21-1.16,1.51,1.58q2.73,2.87,5.56,2.38c1.16-.18,3-1.48,5.49-3.86l29.84-28.46-54,18.61Zm106.63,6.64q9.92,6.79,12,19.28t-5.59,23.76q-7.95,11.61-20.51,14.25a29.65,29.65,0,0,1-35.52-24q-2-12.37,6.08-24.24,8.3-12.13,21.8-14.14A29.55,29.55,0,0,1,394.81,862.07Zm75.72,42.71L409.73,941l23.06,10.41q5.31,2.4,9.19,1.35c2.6-.7,5.7-3.07,9.29-7.14l1.26.86-9.37,13.7-45.79-20.67.69-1.53,59.26-35.06-18-8.12q-4.48-2-6.93-2a7.61,7.61,0,0,0-4.35,1.44c-1.26.91-2.94,2.92-5,6l-1.57-.71L428.94,886Zm37.11,52.52-23.19-5.71L478.06,960a15.17,15.17,0,0,0-2.79,4.85,3.13,3.13,0,0,0,.71,2.72c.7.91,2.46,1.82,5.31,2.75l-.4,1.63L462,967.34l.4-1.63c2.61.16,4.37,0,5.28-.54,1.85-1,4.22-3.5,7.11-7.38L508,913.68l1.54.38,8.58,55q1,6.64,2.65,8.92a9.67,9.67,0,0,0,5.23,3.43l-.4,1.63L502,977.18l.4-1.63c2.41.47,4.13.46,5.14,0a3.13,3.13,0,0,0,1.88-2.16c.32-1.3.22-3.48-.27-6.58ZM575.71,987l-21.85-52.79-1.57,41.21c-.14,3.79.17,6.16,1,7.14,1.07,1.31,2.83,2,5.25,2.11l2.17.08-.06,1.68-21.45-.81.06-1.68,2.17.08c2.61.1,4.48-.62,5.65-2.16.7-.94,1.11-3.14,1.25-6.59L549.82,935a14.14,14.14,0,0,0-.68-5.95,5.09,5.09,0,0,0-2.26-2.29,12.64,12.64,0,0,0-5.44-1.09l.06-1.69,17.46.66,20.53,49.1,23.84-47.42,17.46.66-.06,1.69-2.14-.08c-2.64-.1-4.53.62-5.68,2.15-.7,1-1.13,3.14-1.26,6.6l-1.53,40.29c-.14,3.79.2,6.16,1,7.14q1.6,2,5.24,2.11l2.14.08-.06,1.68-26.2-1,.06-1.68,2.19.08c2.64.1,4.52-.62,5.65-2.16.7-.94,1.11-3.14,1.25-6.59L603,936.05l-25.75,51Zm100.9-39.66q6.57.2,10.23,2.61a13.59,13.59,0,0,1,6.14,9.3,15.28,15.28,0,0,1-1.33,9.18,16.58,16.58,0,0,1-6.78,7.44q-4.66,2.8-14.9,4.63L641.3,985.6l-.29-1.65,2.28-.41q3.81-.68,5-3.41c.5-1.16.46-3.44-.15-6.85l-7-39.25q-1-5.64-2.57-6.88a6.69,6.69,0,0,0-5.55-1l-2.28.41-.3-1.67,26.24-4.68a52.45,52.45,0,0,1,12-1q7,.41,11.28,3.87a14.25,14.25,0,0,1,5.22,8.8,13.3,13.3,0,0,1-1.31,8.67A16.64,16.64,0,0,1,676.6,947.31Zm64.72,11.84.54,1.59-25.06,8.45-.54-1.59,2.08-.7q3.62-1.22,4.54-3.89c.38-1.15,0-3.49-1.19-7L709,918.24a20.57,20.57,0,0,0-2.53-5.67,4.15,4.15,0,0,0-2.39-1.26,8.61,8.61,0,0,0-4.32.31l-2.08.7-.54-1.6,25.06-8.45.54,1.6-2.12.71c-2.38.8-3.88,2.1-4.5,3.86-.41,1.17,0,3.5,1.15,7L730,953.23a20.58,20.58,0,0,0,2.53,5.67,4.12,4.12,0,0,0,2.44,1.24,8.37,8.37,0,0,0,4.28-.28Zm55-22q7.81,5,14.33,5.84a24.22,24.22,0,0,0,12.87-1.81l.67,1.3a49.88,49.88,0,0,1-13.08,3.93,57.93,57.93,0,0,1-15,.58,66.4,66.4,0,0,1-13.78-2.61,43.73,43.73,0,0,1-11.78-.19A30.6,30.6,0,0,1,758,938.51a35,35,0,0,1-9.74-12.09q-6.37-12.28-2.63-24.53a29.31,29.31,0,0,1,15.07-18.11q10.73-5.57,22.82-1.51T802,898.73a32.67,32.67,0,0,1,3.56,20.55A31.1,31.1,0,0,1,796.33,937.13Zm30.16-96.38-1.05-1.32,17.09-13.62,1.06,1.32-1.82,1.45a6.25,6.25,0,0,0-2.48,5.86c.09,1.14,1.19,3,3.33,5.73l15.59,19.57q5.79,7.27,7.54,12.4a18.1,18.1,0,0,1-.18,11.39q-1.95,6.23-9.2,12-7.91,6.3-14.18,6.81a18.92,18.92,0,0,1-11.67-2.74q-3.66-2.27-10.62-11l-15-18.86c-2.36-3-4.31-4.59-5.87-4.85s-3.24.32-5.06,1.77l-1.82,1.45-1.06-1.32,20.86-16.62,1.05,1.32L811.13,853c-2,1.59-2.93,3.35-2.78,5.29.08,1.32,1.21,3.34,3.36,6l16.76,21a59.81,59.81,0,0,0,5.64,6,17.73,17.73,0,0,0,6.38,4.17,12.93,12.93,0,0,0,6.56.23,17.09,17.09,0,0,0,7.3-3.65,22,22,0,0,0,6.82-8.81,14.12,14.12,0,0,0,.9-9.36q-1.2-4.31-7.32-12l-15.57-19.55c-2.4-3-4.24-4.62-5.5-4.86a6.72,6.72,0,0,0-5.38,1.72ZM863,809.46l18.46,15.93,8.86-10.27q3.45-4,3.41-6.37c0-2.11-1.31-4.37-3.86-6.82l1.1-1.27,16.27,14-1.1,1.27a23.61,23.61,0,0,0-5.21-2.81,5.71,5.71,0,0,0-3.65.4,13.69,13.69,0,0,0-4.44,3.74l-8.86,10.27,15.41,13.29a19.47,19.47,0,0,0,4,3,2.94,2.94,0,0,0,1.9,0,7.93,7.93,0,0,0,2.65-2.29l6.84-7.93a27.82,27.82,0,0,0,4.41-6.23A11.21,11.21,0,0,0,920,822a35.12,35.12,0,0,0-2.67-9.93l1.19-1.38,8.25,14.13-31.06,36-1.27-1.1,1.43-1.66a8.64,8.64,0,0,0,1.9-3.82,3.84,3.84,0,0,0-.35-2.93,21.94,21.94,0,0,0-4.18-4.28L862.83,820.9c-3-2.56-5-3.83-6.25-3.83q-2.44,0-4.94,2.94l-1.43,1.66-1.28-1.11,31.06-36,10.68,8.31-1.17,1.35a21.15,21.15,0,0,0-6.44-2.76,7.26,7.26,0,0,0-4.35.78,20.75,20.75,0,0,0-4.71,4.41Zm66.33-26.82-3.15-15.22,8.87,18.9,7.78,5-1-31.69,13.91,28.66L952,757.63l14.55,17.85L960,744.41l13.69,14.15L969,730.76c10.62,13.75,13.45,9.35,14.1,2.59a2.74,2.74,0,0,1-2,1.18c-2.32.23-5-2.35-5.92-5.76-.83-3.07.07-5.8,2-6.41a52.57,52.57,0,0,0-9.25-7.69c-7.07-23.3-14.85-43.34-24.1-57,8.94,21.84,12.8,35.33,16.13,55.46l-9.4,13.61c-2.33-4.09-10.79-14.65-18.43-18.88,4.3,5.57,9.81,20.16,11,28.94l-10.5,7.49c-7.43,5.51-14.9,11-22.31,16.51l-7.5-19.68c.64,8-1,15.61-.38,23.6l-.38.36ZM529.37,899.09v-7.58h3.88c3,0,4.79-.35,5.5-1s1.06-2.4,1.06-5.12V846.07c0-2.72-.35-4.43-1.06-5.12s-2.55-1-5.5-1h-3.88v-7.53h62.06V860h-7.67a50.14,50.14,0,0,0-.68-8.87,20.54,20.54,0,0,0-2.09-6.23,8.24,8.24,0,0,0-4.76-3.85q-3.31-1.17-9.95-1.16H553.85v20.49h1.71q6.24,0,8.21-2.16c1.29-1.44,2.09-4.76,2.42-9.93l7.58,0v33.45l-7.58,0q-.45-8.6-2.4-11.09t-8.14-2.5h-1.79v17.29c0,2.69.36,4.39,1.09,5.11s2.59,1.06,5.57,1.06h4.66v7.58Zm123.72-25.84h8.55q-1,13.3-8.19,20.57T634,901.08a36.61,36.61,0,0,1-13.26-2.29,29.76,29.76,0,0,1-10.58-7A34,34,0,0,1,602.34,880a38.43,38.43,0,0,1-2.65-14.35,37.94,37.94,0,0,1,2.57-14.16A34.57,34.57,0,0,1,610,839.88a31.75,31.75,0,0,1,23.06-9.51A30.11,30.11,0,0,1,643.16,832a33.85,33.85,0,0,1,9.3,5.17l2-6h7.19v27.33H654q-1.17-9.57-6.15-14.82A16.88,16.88,0,0,0,635,838.53a16.7,16.7,0,0,0-14.4,7.33q-5.22,7.33-5.22,20.31,0,12.33,5.19,19.06t14.62,6.73a15.68,15.68,0,0,0,11.9-4.79Q651.63,882.38,653.09,873.25ZM370.51,261.38V246.45h2.59c2.19,0,3.52-.21,4-.65a3.28,3.28,0,0,0,.73-2.48c0-.81,0-1.59-.1-2.35s-.16-1.46-.27-2.17l-2.06-11.27H359.9l-1.8,10c-.3,1.54-.51,2.74-.61,3.61a18.14,18.14,0,0,0-.17,2.38,2.51,2.51,0,0,0,1,2.14,5.08,5.08,0,0,0,3,.76h2.85v14.93H308.05V246.45h2.13q2.89,0,3.82-1.25c.61-.86.92-3.45.92-7.79v-64l-14.74,88h-13.5l-14-87.83v63.86c0,4.1.29,6.61.86,7.58s1.86,1.46,3.87,1.46h2.13v14.93H253.75V246.45h2.64c2,0,3.3-.5,3.87-1.46s.86-3.48.86-7.58V180c0-4.08-.29-6.61-.84-7.55S258.43,171,256.4,171h-2.64V156.17H286l9.77,62.71,10.57-62.71h33.29V171h-2.85c-2,0-3.26.44-3.83,1.33s-.86,3.45-.86,7.63v57.43c0,4.23.29,6.82.87,7.71s1.86,1.33,3.82,1.33h3.8c1.46,0,2.67-.84,3.67-2.54a27.59,27.59,0,0,0,2.57-8.26L362,156.17h20.82l13.48,79.17c.93,5.2,1.76,8.36,2.52,9.46a4.11,4.11,0,0,0,3.65,1.65h3v14.93Zm2.17-48.93-5.23-31.86-4.9,31.86Zm113.17,13.93c0,8.13.69,13.8,2.07,17.07s3.72,4.91,7,4.91c3.92,0,6.72-1.62,8.42-4.84s2.56-8.5,2.56-15.84V180c0-4.13-.29-6.67-.84-7.58s-1.83-1.39-3.85-1.39H498.3V156.17H525V171h-2.64c-2,0-3.3.47-3.87,1.41s-.86,3.32-.86,7.08V230.3q0,16.82-6.66,25.62t-19.52,8.76q-11.69,0-18.1-8.65c-4.27-5.78-6.41-13.91-6.41-24.44V180c0-4-.3-6.48-.89-7.48S464.14,171,462.1,171h-3.55a4.68,4.68,0,0,0-4.12,2.12c-.94,1.39-1.77,4.08-2.46,8.08l-14.5,80.17H417.83l-13.33-77.5a33.31,33.31,0,0,0-2.86-9.75c-1.13-2.06-2.56-3.11-4.26-3.11h-2.72V156.17h34.47V171H426c-1.64,0-2.76.29-3.33.89a4.37,4.37,0,0,0-.86,3.08,34.8,34.8,0,0,0,.26,3.92v.16l9.09,53.74,9.55-54c.13-.86.24-1.62.31-2.27s.1-1.15.1-1.57a4.43,4.43,0,0,0-.86-3.14c-.57-.55-1.73-.84-3.46-.84h-2.89V156.17h60V171h-3.19c-2.06,0-3.39.5-4,1.49s-.86,3.48-.86,7.48Zm69.79-70.21L576.84,227V180c0-4.23-.3-6.8-.9-7.66S574.06,171,572.1,171h-3.27V156.17h25.31V171h-2.06c-2,0-3.3.47-3.87,1.41s-.86,3.48-.86,7.55v81.4H567.61l-22.38-75.44v51.47c0,4.1.29,6.61.86,7.58s1.87,1.46,3.87,1.46h2.56v14.93H527.15V246.45H530q3.07,0,3.95-1.49c.59-1,.87-3.5.87-7.55V180c0-4-.29-6.48-.86-7.48S532,171,530,171h-2.8V156.17Zm75.81,64.07V205.39h31.84v14.85h-2.06c-2,0-3.26.44-3.85,1.31s-.89,3.42-.89,7.66v33.25H646L644.13,256a33.24,33.24,0,0,1-8.54,6.64,18.83,18.83,0,0,1-8.51,2.17q-13.36,0-21-14.93t-7.69-41.06q0-25.17,8.25-40.57t21.83-15.4a19.17,19.17,0,0,1,8.48,1.83,21.14,21.14,0,0,1,7,5.67l1.39-5.83h9.17v43.34H644.39c-.94-10.12-2.43-17.43-4.45-22s-4.73-6.85-8.16-6.85q-5.86,0-8.49,9.31t-2.64,30.22q0,21.13,2.63,30.56t8.42,9.41q3.77,0,5.1-2.12c.9-1.39,1.34-4.44,1.34-9.15V229.2c0-4-.29-6.48-.86-7.48s-1.89-1.49-4-1.49ZM688,156.17V171a3.62,3.62,0,0,0-2.79.91,4.63,4.63,0,0,0-.82,3.06q0,1.1.09,2.12t.26,2l8.16,53.3,6.66-49.72c-.41-4.55-1.12-7.58-2.09-9.15s-2.66-2.38-5-2.48V156.17h28.4V171H719c-1.7,0-2.85.29-3.42.89a4.37,4.37,0,0,0-.86,3.08c0,.58,0,1.15.07,1.73s.13,1.39.27,2.35l7.12,53.3,7.38-53.45c.1-.78.19-1.49.24-2.14s.09-1.25.09-1.78a4.28,4.28,0,0,0-.9-3.14c-.6-.55-1.89-.84-3.87-.84V156.17H747V171a4.62,4.62,0,0,0-4.15,2.25c-.94,1.52-1.72,4.16-2.3,7.95l-12,80.17h-18.3l-5.66-42.82-5.82,42.82H680.41L668.55,184q-1.09-6.9-2.76-9.88a5.41,5.41,0,0,0-4.45-3.14V156.17Zm85.33,56.28-5.23-31.86-4.9,31.86Zm58.85-56.28L853.41,227V180c0-4.23-.3-6.8-.9-7.66s-1.87-1.31-3.83-1.31H845.4V156.17h25.31V171h-2.06c-2,0-3.3.47-3.87,1.41s-.86,3.48-.86,7.55v81.4H844.19l-22.38-75.44v51.47c0,4.1.29,6.61.86,7.58s1.87,1.46,3.87,1.46h2.56v14.93H771.18V246.45h2.59c2.19,0,3.52-.21,4-.65a3.28,3.28,0,0,0,.73-2.48c0-.81,0-1.59-.1-2.35s-.16-1.46-.27-2.17l-2.06-11.27h-15.5l-1.8,10c-.3,1.54-.51,2.74-.61,3.61a18.12,18.12,0,0,0-.17,2.38,2.51,2.51,0,0,0,1,2.14,5.08,5.08,0,0,0,3,.76h2.85v14.93H739.13V246.45h2.13c1.46,0,2.67-.84,3.67-2.54a27.61,27.61,0,0,0,2.57-8.26l15.13-79.49h20.82l13.48,79.17c.93,5.2,1.76,8.36,2.52,9.46a4.11,4.11,0,0,0,3.65,1.65h3.43q3.07,0,3.95-1.49c.59-1,.87-3.5.87-7.55V180c0-4-.29-6.48-.86-7.48s-1.89-1.49-4-1.49h-2.8V156.17Zm69.37,105.21V246.45h2.59c2.19,0,3.52-.21,4-.65a3.28,3.28,0,0,0,.73-2.48c0-.81,0-1.59-.1-2.35s-.16-1.46-.27-2.17l-2.06-11.27H891l-1.8,10c-.3,1.54-.51,2.74-.61,3.61a18.11,18.11,0,0,0-.17,2.38,2.51,2.51,0,0,0,1,2.14,5.08,5.08,0,0,0,3,.76h2.85v14.93H869.52V246.45h2.13c1.46,0,2.67-.84,3.67-2.54a27.6,27.6,0,0,0,2.57-8.26L893,156.17h20.82l13.48,79.17c.93,5.2,1.76,8.36,2.52,9.46a4.11,4.11,0,0,0,3.65,1.65h3v14.93Zm2.17-48.93-5.23-31.86-4.9,31.86ZM609.85,772.58c-.1.1.29.29.31.31ZM522.11,439.15l9.54-11.64c-3.87,11.38-4.08,17.27-1.49,29.25L543.44,448c-7.4,10-12.26,12.44-8.07,28.89-5-3.28-2.68-4.19-7.15-3.93-6.07,8-3.67,9.88-7.19,18.29-5.49-20.16,2.08-13.19,1.34-27.52-4.18-1.65,1,1.49-6,.21-5.78-9.21-.89-7.52-6.72-9.9,1.32-12.2,4.06-3.81,4.45-12.8-10.72-.74-6.63,4.8-10.31,12.86-1.37-8.69,3.45-21,6-30.71,24.6-14.24-17.3,16.14,12.85-9.32C520.2,425.37,518.9,427.28,522.11,439.15Zm1.84,128.19.89-5.14-5.42-.59c-5.15,4.52-2.55,12.55.34,18.2ZM548.4,430.79c5.28-9.94,8.7-9.34,15.12-17.46.5-14.47-8.62-19,5.63-28.81-7.77,18.16,7.26,18.44,2.63,29.47C570,418.14,553.18,427,548.4,430.79Zm-34.26-55.52c-4.25-24.17,9.71-40.58,26.64-46.36C530.45,337.15,515.6,354.41,514.14,375.27Zm12.14,141.27c.46,10.9-.75,15.66-7.74,23,1.78-10.7.12-13-.19-23.77l1.31-19.49,3.08,10.11c3.58-6.35,5.91-9.09,11.43-13C529.58,503.11,528.08,503,526.28,516.54Zm2.61-105.17c-2.9-15.87,9.92-19.45,22.91-23.56-4.29,5.45-6.84,6.45-12.89,10.73C531.66,403.65,533.28,403.37,528.89,411.37Zm-8.25-25.26c-4.32-10.29.35-27.7,4.37-36.62,2.88,10.48-3.09,27.5-4.37,36.62,20.13-7.19,16.8-35.32,41.2-42.31-21,21.31-12.5,23.05-20.09,34.35-4.64,6.91-24.63,10.4-25.66,28.39C515.55,397.3,518.73,393.35,520.65,386.11ZM504.19,668.29l13.63-51.18C520.94,637.85,507.55,653.2,504.19,668.29Zm10.87-184.67c-2.95-5-5.07-12.44-3-19C517.92,471.83,516.23,473.82,515.06,483.62Zm50.76,63.57c-6.5,4.42-15.36,7.8-22.47,12.12,2.12-3.16.39-1.35,3-3.91l7.06-4.61C557.84,548.6,560.29,548,565.82,547.19ZM422.25,713.28c2.22-2.18.6.08,1.48-4.45-7.26-9.06-10-18.92-15.77-27.7-2,8,4,19.09,5.62,27.29C419.42,710.61,416.39,710.3,422.25,713.28Zm7.25,7.37c-3.82-2.16-1.2.09-4-2.83a13.85,13.85,0,0,1-1.23-1.54,17.42,17.42,0,0,0,.44,3.07c13.06,12.2,25.89,16.31,44.48,3.81l5-5.51C456.44,726,451.4,733.35,429.5,720.65ZM509,553.6,507.87,555c.73,4.72-.74,1.74,1.79,4.38,2.37-2.62,2.52.29,5.48-6.32ZM478.47,711.12c2.91-5.16,3.09-5.31,7.81-8.71-1.12,2.27-.05,1.4-1.9,3.92-4.06,5.55-1.19,1.84-4.71,4.76a10.4,10.4,0,0,0-2.46,2.16c-3.74,4.39-1.44,1.32-3,4.4l4.51,1.49c2.3-3.44,5.32-5.81,8.29-9.95,18.64-26,40.86-70.57,32-102.06L515.47,605c-3.2,27.26-24.35,73.55-38.78,94.83,3.38-9.58,30.74-77.88,31.05-89,.08-2.87-.54-3.34-.65-3.61-7.91,24.25-23.1,70.12-36.16,91.8-9,15-8.48,11.89-19.68,22C465.5,721.54,469.84,715,478.47,711.12Zm60.78-182.06c-.39-.54-1.21-1.12-1.38-1.45s-.62-1.15-.73-1.41l1-2.66Zm127.37-89.91-9.54-11.64c3.87,11.38,4.08,17.27,1.49,29.25L645.29,448c7.4,10,12.26,12.44,8.08,28.89,5-3.28,2.68-4.19,7.15-3.93,6.07,8,3.67,9.88,7.19,18.29,5.49-20.16-2.08-13.19-1.34-27.52,4.18-1.65-1,1.49,6,.21,5.78-9.21.89-7.52,6.72-9.9-1.32-12.2-4.06-3.81-4.45-12.8,10.72-.74,6.63,4.8,10.31,12.86,1.37-8.69-3.45-21-6-30.71-24.6-14.24,17.3,16.14-12.85-9.32C668.53,425.37,669.83,427.28,666.62,439.15Zm-1.84,128.19-.89-5.14,5.42-.59c5.15,4.52,2.55,12.55-.34,18.2ZM640.33,430.79c-5.28-9.94-8.7-9.34-15.12-17.46-.5-14.47,8.62-19-5.63-28.81,7.77,18.16-7.26,18.44-2.63,29.47C618.69,418.14,635.54,427,640.33,430.79Zm-46,105.44c21.75-2.25,26.07,2.43,43.86,8.21-2.48-4.54-1.3-4.9-8.28-8-23.52-10.38-19.59-4.29-35.58-5.31-16,1-12.06-5.07-35.58,5.31-7,3.08-5.8,3.44-8.28,8C568.3,538.66,572.62,534,594.36,536.23Zm0,67.35c24.51-2.1,32.69,5.52,50.55,13.57-3.74-5.74-10.38-11.06-19.13-14.2-15.09-5.42-15.85-2.78-31.42-4.08-15.56,1.3-16.33-1.34-31.42,4.08-8.75,3.14-15.39,8.46-19.13,14.2C561.67,609.1,569.85,601.48,594.36,603.58Zm0-144.21c27,.73,37.25,5.58,50,19.36-8-17.67-23.49-23.71-50-23.84-26.5.13-42,6.17-50,23.84C557.12,464.95,567.32,460.1,594.36,459.37Zm0,45.82c6.14-.44,10.84-1.72,16.3.28.46.17.9.48,1.35.67l32.8,14.35c-2.5-3.19.8.21-2.93-3.48-.4-.39-1.62-1.47-2.06-1.83-12.22-9.91-28.83-14.64-45.45-14.83-16.63.19-33.23,4.92-45.45,14.83-.44.36-1.67,1.44-2.06,1.83-3.73,3.7-.43.29-2.93,3.48l32.8-14.35c.45-.19.88-.5,1.35-.67C583.53,503.47,588.22,504.76,594.36,505.2Zm80.22-129.92c4.25-24.17-9.71-40.58-26.64-46.36C658.28,337.15,673.13,354.41,674.59,375.27ZM594.36,488.56c24,.19,23,2.36,40.38,10.06-9.6-12.06-20.16-14.69-40.38-15-20.22.33-30.78,3-40.38,15C571.4,490.92,570.4,488.75,594.36,488.56Zm0,226.31c15.53-.06,27.33,0,38.16-7.73l-38.16,3-38.16-3C567,714.84,578.84,714.82,594.36,714.87Zm0-73.95,43.73,2c-4.52-.46-13-4.11-20-5.45-7.74-1.46-15.51-1.41-23.68-1.42s-15.94,0-23.68,1.42c-7.08,1.34-15.53,5-20,5.45Zm0-270.61c17.47.35,24.55,2,38.48,7.63C622,368,613.58,365.86,594.36,365.47c-19.22.39-27.64,2.54-38.48,12.48C569.82,372.29,576.9,370.67,594.36,370.32Zm0,61.83c16.11.63,21.59,3,35.33,6.37-2.36-2.4-2.41-3-6.9-5.2a60.3,60.3,0,0,0-8.4-3.17,72.87,72.87,0,0,0-40.06,0,60.3,60.3,0,0,0-8.4,3.17c-4.49,2.24-4.53,2.8-6.9,5.2C572.77,435.13,578.25,432.78,594.36,432.15Zm0-80.87,32.86,4.36c-10.2-7.68-16.62-8.39-32.86-8.89-16.24.51-22.66,1.21-32.86,8.89Zm0,312.66,35.84-.9c-7.65-5.5-26.64-3.83-35.84-3.84s-28.18-1.66-35.84,3.84Zm0,36.47c14.28-.44,22.42-.34,31.56-7.52l-31.56,2.88-31.56-2.88C571.95,700.07,580.09,700,594.36,700.41Zm68.08-183.87c-.46,10.9.75,15.66,7.74,23-1.78-10.7-.12-13,.19-23.77l-1.31-19.49L666,506.4c-3.58-6.35-5.91-9.09-11.43-13C659.15,503.11,660.65,503,662.45,516.54Zm-2.61-105.17c2.9-15.87-9.92-19.45-22.91-23.56,4.29,5.45,6.84,6.45,12.89,10.73C657.06,403.65,655.45,403.37,659.84,411.37Zm8.25-25.26c4.32-10.29-.35-27.7-4.37-36.62-2.88,10.48,3.09,27.5,4.37,36.62-20.13-7.19-16.8-35.32-41.2-42.31,21,21.31,12.5,23.05,20.09,34.35,4.64,6.91,24.63,10.4,25.66,28.39C673.17,397.3,670,393.35,668.08,386.11Zm16.46,282.18-13.63-51.18C667.79,637.85,681.18,653.2,684.54,668.29ZM594.36,331.4c6.95.26,16.65,2.6,21.3.91-8.45-3.5-10.71-5-21.3-5.63-10.59.59-12.85,2.13-21.3,5.63C577.71,334,587.42,331.66,594.36,331.4Zm79.3,152.21c2.95-5,5.07-12.44,3-19C670.81,471.83,672.5,473.82,673.67,483.62Zm-50.76,63.57c6.5,4.42,15.36,7.8,22.47,12.12-2.12-3.16-.39-1.35-3-3.91l-7.06-4.61C630.89,548.6,628.44,548,622.91,547.19ZM766.48,713.28c-2.22-2.18-.6.08-1.48-4.45,7.26-9.06,10-18.92,15.77-27.7,2,8-4,19.09-5.62,27.29C769.31,710.61,772.34,710.3,766.48,713.28Zm-7.25,7.37c3.82-2.16,1.2.09,4-2.83a13.89,13.89,0,0,0,1.23-1.54,17.42,17.42,0,0,1-.44,3.07c-13.06,12.2-25.89,16.31-44.48,3.81l-5-5.51C732.29,726,737.33,733.35,759.23,720.65Zm-79.53-167,1.16,1.41c-.73,4.72.74,1.74-1.79,4.38-2.37-2.62-2.52.29-5.48-6.32ZM594.36,445l13.42-2.18c-5.4-2.91-7.56-2.43-13.42-2.74-5.86.31-8-.17-13.42,2.74ZM710.26,711.12c-2.91-5.16-3.09-5.31-7.81-8.71,1.12,2.27.05,1.4,1.9,3.92,4.06,5.55,1.19,1.84,4.71,4.76a10.4,10.4,0,0,1,2.46,2.16c3.74,4.39,1.44,1.32,3,4.4L710,719.15c-2.3-3.44-5.32-5.81-8.29-9.95-18.64-26-40.86-70.57-32-102.06l3.48-2.19c3.2,27.26,24.35,73.55,38.78,94.83-3.38-9.58-30.74-77.88-31.05-89-.08-2.87.54-3.34.65-3.61,7.91,24.25,23.1,70.12,36.16,91.8,9,15,8.48,11.89,19.68,22C723.22,721.54,718.89,715,710.26,711.12ZM649.48,529.06c.39-.54,1.21-1.12,1.37-1.45s.62-1.15.73-1.41l-1-2.66Zm-55.11,39a84.37,84.37,0,0,0-16,1.85c-9.12,1.86-5.22,1.28-12.87,4.66-10,4.42-14.37,4.83-22.21,11.45-2.7,6.28-.25,1.07-4,5.14-3.06,3.29-1.71-.44-3.14,4.39,3.17,2.85-.83,1.07,3.83.81,4-6.3,6.82-9,13.06-12.13-13.9,14.78-10.61,15.22-17.21,38.47-4.11-6.25-3.74-9.56-5.08-17.46.22-.13.67-.47.74-.24s2.85,0,4.85-3a43,43,0,0,0-4.07-8.86l-5.54,3.45c-22.53-12.18-12.31-1.64-26.7-1.5-2-8.72,2.38-9.29,7.27-12.58.56-7,1.68-15-2.35-20,1.59,21.19-7,18-8.69,30l3.16,7c9-1.18,8.92-6.94,16.69-5.17,5.54,1.27,8.67,6.42,10.92,13l2.85,27.25c9.94-4.54,10.62-11.29,22.16-15.81-5.15,5.76-9.48,7.4-12.5,17.76l12.13-3.62c-4.83,4-9.67,6.2-10.85,13.11,4.94,3.24,3.25,1.81,10.3,1.39-.38.5-1,1.08-1.2,1.44s-.83,1-1.06,1.4-.64.94-.79,1.29c-1.19,2.79-4.82,1.46,5,5.27-6.83,1.81-5.2.41-8.66,4.51l9.51,6c-1.71.85-2.59,1-4,1.73-4.53,2.28-1.48.49-3.64,2.18l4.55,3.5a7.19,7.19,0,0,1,1.28-.6c.23,0,1-.18,1.27-.2l.28,0,.21,0h.2a2.71,2.71,0,0,1,1,.09c-.09.27.1.63.8,1.11,1.08.21,1.83.33,2.32.4v.21c13.42,3.45,20.35,4.27,36.24,4.57,15.89-.3,22.81-1.11,36.24-4.57v-.21c.5-.07,1.24-.19,2.32-.4.7-.48.89-.84.8-1.11a2.71,2.71,0,0,1,1-.09h.2l.21,0,.28,0c.23,0,1,.17,1.27.2a7.19,7.19,0,0,1,1.28.6l4.55-3.5c-2.16-1.69.89.1-3.64-2.18-1.41-.71-2.29-.89-4-1.73l9.51-6c-3.46-4.1-1.83-2.7-8.66-4.51,9.83-3.81,6.19-2.48,5-5.27-.15-.35-.6-.95-.79-1.29s-.83-1.06-1.06-1.4-.83-.94-1.2-1.44c7,.42,5.36,1.85,10.3-1.39-1.19-6.91-6-9.09-10.86-13.11l12.13,3.62c-3-10.36-7.36-12-12.5-17.76C648.28,623.24,649,630,658.9,634.52l2.85-27.25c2.25-6.55,5.38-11.7,10.92-13,7.77-1.78,7.66,4,16.69,5.17l3.16-7c-1.69-11.94-10.28-8.78-8.69-30-4,5-2.91,13-2.35,20,4.89,3.29,9.26,3.86,7.27,12.58-14.4-.14-4.17-10.68-26.7,1.5l-5.54-3.45a43,43,0,0,0-4.07,8.86c2,3,4.77,3.32,4.85,3s.51.11.74.24c-1.35,7.9-1,11.21-5.08,17.46-6.6-23.25-3.31-23.69-17.21-38.47,6.24,3.11,9,5.83,13.06,12.13,4.66.26.66,2,3.84-.81-1.42-4.83-.07-1.1-3.14-4.39-3.79-4.07-1.33,1.14-4-5.14-7.84-6.63-12.2-7-22.21-11.45-7.65-3.38-3.75-2.8-12.87-4.66A84.37,84.37,0,0,0,594.36,568.07Zm0-246.76C570.9,323.16,563,341.05,545,340.54c7.55-1.44,18.16-11.9,21.79-16.24-25.28-7.66-26,6.89-39.86-.49-19.68-10.47-21.63-36.9-63.3-8.25-12.28,8.45-20.73,6.93-36.89,9.68-58.13,9.91-59.22,40.87-78.48,65-9.22,11.53-17.31,9-31.42,14.86-9.43,36.8,6.34,40.43,37.55,35.5-10.76,9.93-21.4,15-28.49,28.06-5.11,9.42-6.54,56.43,27.68,34.85C322,544,377.73,556.4,389.46,553.53c13.25-3.24,16.63-12.6,21.56-16.52l2.54-14.2c1.86-8,3.63-11.57,8.14-18.51,5.91-9.08,5-11.57,10.14-16.35l1.83-2.9-.89-8.71c-14.06-.71-23.84,10.57-29.5,18.06,13-36,87.51-59.67,66.7-80.6-3.93-3.48,1.23-2.14-7.43-2.56-4.35-.21-15.47,3.41-26.35,4,2-1.35-.61.12,4.14-2.46,63.5-34.46-33.51-49.88-44.67-48.58,27-4.79,34.62,3,57.38,6.17-.38-7.8-2.51-7.41-6.34-13.14,10.68,5.38,12.08,12.22,29.87,13.39,8.88-24.89,3.16-8.88,12.41-25.8,2.45,3.54.84,7.64,3.27,11.34,5.79-9.72,18.39-13.09,28.09-21.2-6.33,17.17-33.47,16.67-25.62,50.19a135.43,135.43,0,0,1,6.18-12.77c-.21,6.55-2.35,15.22.39,20.69,6.68-4.8,4.07-9.42,7.07-19.19,2-6.36.9-3.13,2.5-5.66.55,43.15,1.25,42.16-15.21,74.54-8.42,16.55,2.53,8.48,8.42,32,5.12,20.4,9.71,1.53,7,31.45,1.19,8.88,4.59,12.94,5.05,19.94.53,8.07-2.23,12.36-2.47,18.83,3,2.91,2.1.88,3.12,5.49a81.36,81.36,0,0,0,7.39-7.21l-1.6,7.25c4.7,3.37,4.58-1.14,10.71,3.73l-12.48,3.63c8.18,2.07,7.58,1.41,13.4,6.74-8.45,3.78-4.62,11.41-2.36,19.4,6.58-1.27,2.87-.48,4.32-3.87,14.12,0,3.9-.92,7.07,3.88,14.56-11.66,25.55-19.22,51.09-18.41,25.54-.81,36.53,6.75,51.09,18.41,3.17-4.8-7.05-3.88,7.06-3.88,1.45,3.39-2.25,2.6,4.32,3.87,2.25-8,6.08-15.62-2.36-19.4,5.82-5.33,5.22-4.66,13.4-6.74l-12.48-3.63c6.13-4.87,6-.37,10.71-3.73l-1.6-7.25a81.37,81.37,0,0,0,7.39,7.21c1-4.61.09-2.58,3.12-5.49-.24-6.47-3-10.77-2.47-18.83.46-7,3.86-11.06,5.05-19.94-2.66-29.92,1.93-11,7-31.45,5.89-23.47,16.83-15.4,8.42-32-16.46-32.37-15.77-31.38-15.21-74.54,1.59,2.53.54-.7,2.5,5.66,3,9.77.39,14.39,7.07,19.19,2.74-5.47.61-14.14.39-20.69A135.51,135.51,0,0,1,694,385.14c7.86-33.53-19.28-33-25.62-50.19,9.7,8.11,22.31,11.48,28.09,21.2,2.43-3.7.82-7.8,3.27-11.34,9.25,16.92,3.53.9,12.41,25.8,17.79-1.17,19.18-8,29.87-13.39-3.84,5.73-6,5.34-6.34,13.14,22.76-3.2,30.34-11,57.38-6.17-11.16-1.3-108.17,14.12-44.67,48.58,4.75,2.58,2.19,1.11,4.14,2.46-10.88-.56-22-4.19-26.35-4-8.66.43-3.5-.92-7.43,2.56-20.8,20.93,53.71,44.6,66.7,80.6-5.66-7.5-15.44-18.77-29.5-18.06l-.89,8.71,1.83,2.9c5.1,4.77,4.22,7.26,10.14,16.35,4.52,6.94,6.29,10.48,8.14,18.51l2.54,14.2c4.93,3.92,8.32,13.28,21.56,16.52,11.73,2.87,67.46-9.51,35.88-50.05,34.21,21.59,32.78-25.42,27.68-34.85-7.1-13.09-17.73-18.13-28.49-28.06,31.22,4.93,47,1.3,37.55-35.5-14.11-5.88-22.2-3.33-31.42-14.86-19.26-24.09-20.35-55.05-78.48-65-16.16-2.75-24.6-1.24-36.89-9.68-41.67-28.65-43.62-2.22-63.3,8.25-13.87,7.38-14.58-7.18-39.86.49,3.62,4.34,14.24,14.8,21.79,16.24C625.72,341.05,617.83,323.16,594.36,321.32Zm0,467.38c-12.23-1.39-19.67-5.45-25.56-12.51s-4.29-3.24-7.17-12c-3.28-9.92-1.93-4.78-8.11-11.62-1.1-10.14,2.57-7-1.47-15.79s-4.86-.09-3.52-14.46c1.18-12.64,1.14-3.28-3-12.25-4.62-10.11-.82-7.27,1.18-15,2.76-10.61-.15-3.22-2.68-12.73-2.93-11-6.48-25.14-12.7-35.05-4.06-6.48,2.86-1.84-4.88-5.47-8.6,6.15-17.69,71.4-62.23,95.06-25.05,13.31-42.81-2.6-51.87-19.49-7.73-14.43-16.54-46-13.29-65.17,17.86,9.4,33.89,127.37,79.5,17.57,8.05-19.38,16.85-42.32,22.28-62.43-12.62-3.09-18.55-3.53-32-2.47-8.41.93-15.52,1-22-1.62-2.08-5-2-9.6-1.84-16.56-16.49,3.29-38.2,7.64-41.75-8.43-5.32-4.31-5.81-8.15-8.65-12-20.51,4.22-27.34.25-40-10.17-9.85-8.1-20-16.85-20.08-36.16-8.14-3.42-10.63-1.57-15.06-8.24-3.14-4.72-4.74-14.2-5-20.76-.71-16.56,2.83-30.27,11.49-37.74-13-6.86-23.53-14.18-21.44-40,1.57-19.48,22.16-19.86,33.92-30.9,14.51-13.62,18.77-49.55,63.94-62,16.62-4.58,37.73-4.21,52.46-9.67,12.84-4.77,30.65-19.07,46.41-13.6,16.82,5.84,18.11,29.28,37.34,23.84,15-4.24,9.8-3.19,26.74-3.44,15-.22,11.55-6,29-5.74,17.46-.23,14.06,5.52,29,5.74,16.93.25,11.75-.8,26.74,3.44,19.23,5.44,20.52-18,37.34-23.84,15.76-5.47,33.57,8.84,46.41,13.6,14.72,5.46,35.83,5.09,52.46,9.67,45.17,12.46,49.43,48.39,63.94,62,11.76,11,32.34,11.42,33.92,30.9,2.09,25.81-8.42,33.13-21.44,40,8.65,7.47,12.2,21.18,11.49,37.74-.28,6.57-1.88,16-5,20.76-4.43,6.67-6.92,4.81-15.06,8.24-.08,19.31-10.22,28.06-20.08,36.16-12.67,10.42-19.5,14.39-40,10.17-2.85,3.86-3.33,7.71-8.65,12-3.55,16.07-25.26,11.72-41.75,8.43.2,7,.25,11.58-1.84,16.56-6.43,2.59-13.54,2.55-22,1.62-13.48-1.06-19.4-.62-32,2.47,5.43,20.12,14.23,43.05,22.28,62.43,45.61,109.8,61.64-8.16,79.5-17.57,3.25,19.21-5.56,50.74-13.29,65.17-9.05,16.89-26.81,32.8-51.87,19.49-44.53-23.66-53.63-88.91-62.23-95.06-7.74,3.63-.82-1-4.88,5.47-6.22,9.92-9.77,24-12.7,35.05-2.53,9.5-5.44,2.11-2.68,12.73,2,7.73,5.8,4.88,1.18,15-4.09,9-4.13-.39-3,12.25,1.34,14.36.54,5.55-3.52,14.46s-.37,5.65-1.47,15.79c-6.18,6.84-4.84,1.7-8.11,11.62-2.88,8.72-1.33,5-7.17,12S606.59,787.3,594.36,788.7Zm0-65.87-22.1-1.1,6.92,2.61-8.38.72c1.3.78-.64,1.18,5.59,2.31.65.12,4.18.14,4.68.16q6.64.18,13.28.38,6.66-.21,13.28-.38c.5,0,4,0,4.68-.16,6.23-1.13,4.29-1.53,5.59-2.31l-8.38-.72,6.92-2.61Zm-40.73-41.14,3,2.49,2.89,2.38,1.16,1-6.41,2.17c4.14,6.6.87,3.9,7,6.62h0c-.73.2-1.83.53-3.44,1.05-3.59,1.16-1.63.16-3.07,1.53a14.14,14.14,0,0,0-.9,1.28l-3,4.33c4.32,5.91,6.8,6.76,13.71,10.13-13.85,6.36-3.17,4,4.49,4.18,8.44.19,16.45.93,25.28,1s16.84-.76,25.28-1c7.66-.17,18.34,2.18,4.49-4.18,6.92-3.36,9.39-4.22,13.71-10.13l-3-4.33a14.14,14.14,0,0,0-.9-1.28c-1.44-1.37.52-.37-3.07-1.53-1.61-.52-2.71-.86-3.44-1.05h0c6.18-2.72,2.91,0,7-6.62L628,687.52l1.16-1,2.89-2.38,3-2.49-3-2-1.48-1-.38-.26c-14.12,6.23-19.07,6-35.85,6.28-16.78-.25-21.73,0-35.85-6.28l-.38.26-1.48,1Zm40.73,118.45v.14l-1.19-.14c-13.17-1.5-23.86-5.95-32.43-16.22-1.66-2-3.94-4.12-5.35-6.21-1.81-2.68-2.72-6.13-3.73-9.19-.32-1-.69-2.21-1.09-3.29a40.31,40.31,0,0,1-4.84-4.58l-2.28-2.53-.37-3.38a34.06,34.06,0,0,1,.32-10.46c-.25-.71-.64-1.52-.9-2.1-.15-.32-.34-.75-.54-1.1-6-5.11-4.53-11.68-3.88-18.69.08-.86.18-1.73.28-2.6a31,31,0,0,1-2.33-4.31c-1.64-3.6-3.08-7.24-3.14-11l-13.81-9.81L535.49,696a9.9,9.9,0,0,0,1.12-2.49l.13-.5a24.69,24.69,0,0,1-2.8-6.88l-.52-2-5-3.92,4,.37c-.59-2.2-1.2-4.47-1.87-6.74l-3.6-.09,2.94-2.11c-.7-2.29-1.45-4.56-2.27-6.77-3.3,8.91-6.65,17.72-10.65,26.36-10.51,22.69-25.24,44-47.84,56-27.65,14.69-52.46,1.54-66-23.81-9.71-18.11-17.84-51.49-14.39-71.88l2.42-14.29L404,644c6.26,3.3,10.4,10.72,13.46,16.85,3.49,7,6.47,14.27,9.7,21.38,2.81,6.18,6,12.95,9.89,18.5,1,1.47,4.34,5.76,6.3,6.08,1.7.28,5.86-4.2,6.74-5.24,7.75-9.13,14.28-23.79,18.84-34.76,6.77-16.29,13.47-33.33,18.73-50.39a71.9,71.9,0,0,0-17.79,0c-9.15.87-18.18,1.17-26.87-2.33l-4.07-1.64-1.69-4a33.45,33.45,0,0,1-2.24-8.1c-11.26,1.71-24.76,2.41-34-5.26a23.11,23.11,0,0,1-6.91-9.85,31.06,31.06,0,0,1-4.82-6.27c-17,2.3-26.6-1.55-41.3-13.64-13.07-10.75-21.39-20.64-23.42-36.51a30.46,30.46,0,0,1-4.35-1.56,22.83,22.83,0,0,1-9.44-8.63c-4.51-6.79-6.41-18-6.76-26.12-.5-11.7.85-24.76,6.53-35.31-1.22-.9-2.39-1.85-3.53-2.88-11.9-10.78-14.17-25.5-12.94-40.84a30.82,30.82,0,0,1,8.49-19.4c5.81-6.08,13-9.11,20.32-12.87a37.05,37.05,0,0,0,8.39-5.45c3.06-2.87,5.76-7.64,7.84-11.26,3.62-6.3,7-12.55,11.2-18.53C362.78,328,378.58,317,399.63,311.2a165.17,165.17,0,0,1,23.21-4.15c9-1.13,19.92-2.11,28.38-5.25,6.38-2.37,13-6.46,19.23-9.37,10.82-5,22.55-8.37,34.27-4.31,8.07,2.8,13.51,8.12,18.69,14.65,1.85,2.33,5.55,7.6,8.11,9a3.36,3.36,0,0,0,1,.35l11.33-9.47-2.8,7.59a58.28,58.28,0,0,1,8.67-2c4.8-.6,10.62-.26,15.51-.34a18.36,18.36,0,0,0,8.76-1.82A40.29,40.29,0,0,1,589,302.32l5.33-1.82v.1l-2,1.61h2v-.14h2l-2-1.61v-.1l5.33,1.82A40.31,40.31,0,0,1,614.77,306a18.36,18.36,0,0,0,8.75,1.82c4.89.07,10.71-.26,15.51.34a58.29,58.29,0,0,1,8.67,2l-2.8-7.59L656.24,312a3.36,3.36,0,0,0,1-.35c2.57-1.4,6.26-6.67,8.11-9C670.5,296.12,675.93,290.8,684,288c11.72-4.06,23.45-.71,34.27,4.31,6.28,2.91,12.86,7,19.23,9.37,8.46,3.14,19.42,4.11,28.38,5.25a165.24,165.24,0,0,1,23.21,4.15c21,5.81,36.85,16.83,49.29,34.69,4.16,6,7.58,12.23,11.2,18.53,2.08,3.62,4.78,8.39,7.84,11.26a37.06,37.06,0,0,0,8.39,5.45c7.29,3.76,14.51,6.79,20.32,12.87a30.82,30.82,0,0,1,8.49,19.4c1.24,15.34-1,30.06-12.94,40.84-1.13,1-2.31,2-3.53,2.88,5.68,10.56,7,23.61,6.53,35.31-.35,8.13-2.25,19.33-6.76,26.12a22.83,22.83,0,0,1-9.44,8.63,30.45,30.45,0,0,1-4.35,1.56c-2,15.87-10.36,25.77-23.42,36.51-14.71,12.09-24.32,15.95-41.3,13.64A31.06,31.06,0,0,1,794.6,585a23.11,23.11,0,0,1-6.91,9.85c-9.21,7.67-22.71,7-34,5.26a33.46,33.46,0,0,1-2.24,8.1l-1.69,4-4.07,1.64c-8.69,3.5-17.72,3.2-26.87,2.33a71.9,71.9,0,0,0-17.79,0c5.26,17.06,12,34.1,18.73,50.39,4.56,11,11.08,25.63,18.84,34.76.88,1,5,5.52,6.74,5.24,2-.32,5.26-4.61,6.3-6.08,3.92-5.56,7.09-12.32,9.89-18.5,3.23-7.11,6.21-14.4,9.69-21.38,3.06-6.13,7.19-13.56,13.46-16.85l12.82-6.75L800,651.38c3.45,20.39-4.68,53.76-14.39,71.88-13.58,25.34-38.4,38.49-66,23.81-22.6-12-37.33-33.29-47.84-56-4-8.64-7.34-17.44-10.65-26.36-.82,2.21-1.58,4.49-2.27,6.77l2.94,2.11-3.6.09c-.66,2.28-1.28,4.54-1.87,6.74l4-.37-5,3.92-.52,2a24.69,24.69,0,0,1-2.8,6.88l.13.5a9.9,9.9,0,0,0,1.12,2.49l16.41-1.31-13.81,9.81c-.06,3.77-1.5,7.4-3.14,11a31,31,0,0,1-2.33,4.31c.1.87.2,1.75.28,2.6.66,7,2.13,13.58-3.88,18.69-.2.35-.4.78-.54,1.1-.26.58-.65,1.39-.9,2.1a34.07,34.07,0,0,1,.32,10.46l-.37,3.38L643,760.52a40.32,40.32,0,0,1-4.84,4.58c-.4,1.08-.77,2.31-1.09,3.29-1,3.06-1.92,6.51-3.73,9.19-1.41,2.09-3.68,4.21-5.35,6.21-8.57,10.27-19.26,14.72-32.43,16.22Zm0-697.86c-127.27,0-216.53,7.27-338.22-33.9L163.52,190.2s80.13,105.11,47.87,227.91-88.43,362,6.77,455.29C290.35,944.1,415.39,1011,505.82,1059.12c43.84,23.33,78.07,54.62,88.55,65.09,10.47-10.47,44.7-41.76,88.54-65.09,90.44-48.11,215.47-115,287.65-185.72,95.21-93.26,39-332.49,6.77-455.29s47.87-227.91,47.87-227.91L932.58,68.37C810.9,109.55,721.63,102.27,594.37,102.27Zm0-18.13c58.39,0,117.59,2.2,175.83-1.85,54.35-3.78,104.91-13.6,156.57-31.09l12.6-4.26L1048.59,190.6l-8.52,11.18c-13.49,17.82-26.07,43.79-33.91,64.42-18,47.26-23.77,98.33-10.81,147.67,32.65,124.3,91.91,371.84-11.72,473.35-17.45,17.1-38.18,32.91-57.87,47.34-27,19.79-55,38.48-83.29,56.36-48.83,30.84-99.88,58.09-150.84,85.2-29,15.4-60.84,38.52-84.19,61.86l-13.07,13.07L581.29,1138c-23.34-23.34-55.23-46.46-84.18-61.86-51-27.11-102-54.36-150.84-85.2C318,973,290,954.35,263,934.56c-19.69-14.43-40.41-30.24-57.87-47.34-103.63-101.51-44.38-349-11.72-473.35,13-49.34,7.15-100.41-10.81-147.67-7.84-20.63-20.42-46.61-33.91-64.42l-8.52-11.18L249.37,46.95,262,51.21c51.66,17.48,102.22,27.3,156.57,31.09C476.78,86.34,536,84.15,594.37,84.15Z"/></g></svg>