<svg xmlns="http://www.w3.org/2000/svg" viewBox="0 0 1200 1200"><defs><style>.cls-1{fill:#039;}.cls-1,.cls-2{fill-rule:evenodd;}.cls-2{fill:#fc0;}</style></defs><title>MUKAKAZA FC - BUFALLOS 3 team colour 2</title><g id="MUKAKAZA_FC_-_BUFALLOS_3_team_colour_2" data-name="MUKAKAZA FC - BUFALLOS 3 team colour 2"><path class="cls-1" d="M265.57,89,188.29,190.61c12.27,18.79,23.25,41.85,30.68,61.2,21,54.61,27.41,113.71,12.42,170.76C203.23,529.78,143.82,773,233.47,860.84c40.54,39.71,92.68,74,141.15,103.34,46.55,28.15,94.45,53.88,142.46,79.43a419.23,419.23,0,0,1,80.29,56.4,419.24,419.24,0,0,1,80.29-56.4c48-25.54,95.9-51.28,142.46-79.43,48.47-29.3,100.61-63.62,141.15-103.34,89.65-87.82,30.24-331.06,2.07-438.27-15-57.06-8.57-116.16,12.43-170.77,7.43-19.34,18.41-42.4,30.68-61.19L929.17,89c-50.44,16-100.34,25.24-153.52,28.94-59.12,4.11-119,1.94-178.28,1.94S478.21,122,419.09,117.91C365.91,114.21,316,105,265.57,89m-27.35,647.5,11.12,10.8c-3.82,5.74-4.21,4.28-10.71,1.79C235.75,741.7,234.11,741.25,238.22,736.48Zm53,119,21.12-53.08L282.47,830.8c-2.74,2.62-4.17,4.54-4.29,5.79-.15,1.69.62,3.42,2.29,5.17l1.5,1.57-1.21,1.16L265.95,829l1.21-1.16,1.5,1.57q2.7,2.83,5.56,2.38c1.16-.18,3-1.48,5.49-3.86l29.18-27.82a14.14,14.14,0,0,0,3.66-4.74,5.09,5.09,0,0,0,0-3.22,12.63,12.63,0,0,0-3.14-4.58l1.23-1.17L322.66,799l-19.5,49.52,50.14-17.39,12.06,12.64L364.14,845l-1.48-1.55q-2.73-2.87-5.57-2.42c-1.17.19-3,1.47-5.51,3.86L322.4,872.68c-2.74,2.62-4.15,4.56-4.25,5.83q-.22,2.53,2.28,5.16l1.48,1.55-1.21,1.16-18.09-19,1.21-1.16,1.51,1.58q2.73,2.87,5.56,2.38c1.16-.18,3-1.48,5.49-3.86l29.84-28.46-54,18.61Zm104.06,8.89a16.28,16.28,0,0,0-14.45-2.43q-9.45,2.79-17.78,15-8.54,12.48-7.8,22.84a16,16,0,0,0,7.32,12.52,17.9,17.9,0,0,0,15.68,2.5q8.5-2.4,16.75-14.45,8.93-13.06,8.18-23Q402.52,869.3,395.24,864.32Zm2.57-2.25q9.92,6.79,12,19.28t-5.59,23.76q-7.95,11.61-20.51,14.25a29.65,29.65,0,0,1-35.52-24q-2-12.37,6.08-24.24,8.3-12.13,21.8-14.14A29.55,29.55,0,0,1,397.82,862.07Zm75.72,42.71L412.74,941l23.06,10.41q5.31,2.4,9.19,1.35c2.6-.7,5.7-3.07,9.29-7.14l1.26.86-9.37,13.7-45.79-20.67.69-1.53,59.26-35.06-18-8.12q-4.48-2-6.93-2a7.61,7.61,0,0,0-4.35,1.44c-1.26.91-2.94,2.92-5,6l-1.57-.71L431.95,886Zm36.68,48.94L506,927l-16.38,21.64Zm.43,3.58-23.19-5.71L481.07,960a15.17,15.17,0,0,0-2.79,4.85,3.13,3.13,0,0,0,.71,2.72c.7.91,2.46,1.82,5.31,2.75l-.4,1.63L465,967.34l.4-1.63c2.61.16,4.37,0,5.28-.54,1.85-1,4.22-3.5,7.11-7.38L511,913.68l1.54.38,8.58,55q1,6.64,2.65,8.92a9.68,9.68,0,0,0,5.23,3.43l-.4,1.63L505,977.18l.4-1.63c2.41.47,4.13.46,5.14,0a3.13,3.13,0,0,0,1.88-2.16c.32-1.3.22-3.48-.27-6.58Zm150.24,20.81a45.74,45.74,0,0,0,10.47-.62c5.41-1,9.31-2.92,11.72-5.86a11.63,11.63,0,0,0,2.64-9.78,13.41,13.41,0,0,0-3.14-6.46,13.1,13.1,0,0,0-7.19-4,27.5,27.5,0,0,0-11.08,0c-1.85.33-3.43.64-4.74.93a24,24,0,0,0-3.12.89Zm-5.18-29a34.16,34.16,0,0,0,3.88-.2c1.44-.15,3-.38,4.71-.68,4.36-.78,7.56-1.82,9.58-3.16a10.64,10.64,0,0,0,4.27-5.23,12.29,12.29,0,0,0,.61-6.67,11.81,11.81,0,0,0-6-8.31q-5-3-13.35-1.5a31,31,0,0,0-7.9,2.42Zm23.9-1.76q6.57.2,10.23,2.61a13.59,13.59,0,0,1,6.14,9.3,15.28,15.28,0,0,1-1.33,9.18,16.58,16.58,0,0,1-6.78,7.44q-4.66,2.8-14.9,4.63L644.3,985.6l-.29-1.65,2.28-.41q3.81-.68,5-3.41c.5-1.16.46-3.44-.15-6.85l-7-39.25q-1-5.64-2.57-6.88a6.69,6.69,0,0,0-5.55-1l-2.28.41-.3-1.67,26.24-4.68a52.45,52.45,0,0,1,12-1q7,.41,11.28,3.87a14.25,14.25,0,0,1,5.22,8.8,13.3,13.3,0,0,1-1.31,8.67A16.63,16.63,0,0,1,679.61,947.31Zm64.72,11.84.54,1.59-25.06,8.45-.54-1.59,2.08-.7q3.62-1.22,4.54-3.89c.38-1.15,0-3.49-1.19-7L712,918.24a20.57,20.57,0,0,0-2.53-5.67,4.15,4.15,0,0,0-2.39-1.26,8.62,8.62,0,0,0-4.32.31l-2.07.7-.54-1.6,25.06-8.45.54,1.6-2.12.71c-2.38.8-3.88,2.1-4.5,3.86-.41,1.17,0,3.5,1.15,7L733,953.23a20.59,20.59,0,0,0,2.53,5.67,4.12,4.12,0,0,0,2.44,1.24,8.37,8.37,0,0,0,4.28-.28Zm20.44-72a16.67,16.67,0,0,0-9.1,11.39q-2.23,9.51,4.8,23.09,6.89,13.28,16.36,17.5a16.13,16.13,0,0,0,14.62-.55,17.11,17.11,0,0,0,9.37-11.89q2.07-9.37-4.55-22.13-5.1-9.82-11.56-15a19.08,19.08,0,0,0-10.08-4.45A17.59,17.59,0,0,0,764.78,887.13Zm34.56,50q7.81,5,14.33,5.84a24.22,24.22,0,0,0,12.87-1.81l.67,1.3a49.89,49.89,0,0,1-13.08,3.93,57.92,57.92,0,0,1-15,.58,66.41,66.41,0,0,1-13.78-2.61,43.73,43.73,0,0,1-11.78-.19A30.6,30.6,0,0,1,761,938.51a35,35,0,0,1-9.74-12.09q-6.37-12.28-2.63-24.53a29.31,29.31,0,0,1,15.07-18.11q10.73-5.57,22.82-1.51T805,898.73a32.66,32.66,0,0,1,3.56,20.55A31.1,31.1,0,0,1,799.34,937.13ZM866,809.46l18.46,15.93,8.86-10.27q3.45-4,3.41-6.37c0-2.11-1.31-4.37-3.86-6.82l1.1-1.27,16.27,14-1.1,1.27a23.62,23.62,0,0,0-5.21-2.81,5.71,5.71,0,0,0-3.65.4,13.69,13.69,0,0,0-4.44,3.74l-8.86,10.27,15.41,13.29a19.47,19.47,0,0,0,4,3,2.94,2.94,0,0,0,1.9,0,7.93,7.93,0,0,0,2.65-2.29l6.84-7.93a27.83,27.83,0,0,0,4.41-6.23A11.21,11.21,0,0,0,923,822a35.12,35.12,0,0,0-2.67-9.93l1.19-1.38,8.25,14.13-31.06,36-1.27-1.1,1.43-1.66a8.65,8.65,0,0,0,1.9-3.82,3.84,3.84,0,0,0-.35-2.93,21.93,21.93,0,0,0-4.18-4.28l-30.36-26.18c-3-2.56-5-3.83-6.25-3.83q-2.44,0-4.94,2.94l-1.43,1.66-1.28-1.11,31.06-36,10.68,8.31-1.17,1.35a21.16,21.16,0,0,0-6.44-2.76,7.26,7.26,0,0,0-4.35.78,20.74,20.74,0,0,0-4.71,4.41ZM578.71,987l-21.85-52.79-1.57,41.21c-.14,3.79.17,6.16,1,7.14,1.07,1.32,2.83,2,5.25,2.11l2.17.08-.06,1.68-21.45-.82.06-1.68,2.17.08c2.61.1,4.48-.62,5.65-2.16.7-.94,1.11-3.14,1.25-6.59L552.82,935a14.14,14.14,0,0,0-.68-5.95,5.09,5.09,0,0,0-2.26-2.29,12.63,12.63,0,0,0-5.44-1.09l.06-1.69,17.46.66,20.53,49.1,23.84-47.42,17.46.66-.06,1.69-2.14-.08c-2.64-.1-4.53.62-5.68,2.15-.7,1-1.13,3.14-1.26,6.6l-1.53,40.29c-.14,3.79.2,6.16,1,7.14q1.6,2,5.24,2.11l2.14.08-.06,1.68-26.2-1,.06-1.68,2.19.08c2.64.1,4.52-.62,5.65-2.16.7-.94,1.11-3.14,1.25-6.59L606,936.05l-25.75,51ZM829.5,840.75l-1.05-1.32,17.09-13.62,1.06,1.32-1.82,1.45a6.25,6.25,0,0,0-2.48,5.86c.09,1.14,1.19,3,3.33,5.73l15.59,19.57q5.79,7.27,7.54,12.4a18.1,18.1,0,0,1-.18,11.39q-1.95,6.23-9.2,12-7.91,6.3-14.18,6.81a18.92,18.92,0,0,1-11.67-2.74q-3.66-2.27-10.62-11l-15-18.86c-2.36-3-4.31-4.59-5.87-4.85s-3.24.32-5.06,1.77l-1.82,1.45-1.06-1.32,20.86-16.62,1.05,1.32L814.13,853c-2,1.59-2.93,3.35-2.78,5.29.08,1.32,1.21,3.34,3.36,6l16.76,21a59.8,59.8,0,0,0,5.64,6,17.73,17.73,0,0,0,6.38,4.17,12.93,12.93,0,0,0,6.56.23,17.09,17.09,0,0,0,7.3-3.65,22,22,0,0,0,6.82-8.81,14.12,14.12,0,0,0,.9-9.36q-1.2-4.31-7.32-12L842.2,842.43c-2.4-3-4.24-4.62-5.5-4.86a6.72,6.72,0,0,0-5.38,1.72ZM955.82,736.37l-11.12,10.8c3.82,5.74,4.21,4.28,10.71,1.78C958.29,741.6,959.92,741.15,955.82,736.37Zm-23.52,46.27-3.15-15.22,8.87,18.9,7.78,5-1-31.69,13.91,28.66L955,757.63l14.55,17.85L963,744.41l13.69,14.15L972,730.76c10.62,13.75,13.45,9.35,14.1,2.59a2.74,2.74,0,0,1-2,1.18c-2.32.23-5-2.35-5.92-5.76-.83-3.07.07-5.8,2-6.41a52.58,52.58,0,0,0-9.24-7.69c-7.07-23.3-14.85-43.34-24.1-57,8.94,21.84,12.8,35.33,16.13,55.46l-9.4,13.61c-2.33-4.09-10.79-14.65-18.43-18.88,4.3,5.57,9.81,20.16,11,28.94l-10.5,7.49c-7.43,5.51-14.9,11-22.31,16.51l-7.5-19.68c.64,8-1,15.61-.38,23.6l-.38.36Zm-670.54.1,3.15-15.23L256,786.42l-7.78,5,1-31.69L235.38,788.4l3.69-30.66-14.54,17.85,6.54-31.07-13.68,14.15,4.66-27.79c-10.62,13.76-13.44,9.35-14.1,2.59a2.74,2.74,0,0,0,2,1.18c2.32.22,5-2.35,5.92-5.76.83-3.07-.08-5.8-2-6.41a52.58,52.58,0,0,1,9.24-7.69c7.06-23.3,14.84-43.35,24.08-57-8.93,21.84-12.79,35.33-16.11,55.46l9.41,13.61c2.33-4.09,10.78-14.65,18.43-18.89-4.3,5.57-9.8,20.16-11,28.95l10.5,7.49c7.43,5.51,14.91,11,22.32,16.5l7.49-19.68c-.64,8,1,15.61.38,23.6l.38.36Zm114.4-627.41v15h-3.59c-2.51,0-4.12.45-4.84,1.35s-1.08,3.48-1.08,7.7v58c0,4.27.36,6.89,1.1,7.78s2.35,1.35,4.82,1.35h3.59v15.06H336.3V246.46H339q3.65,0,4.82-1.27c.78-.87,1.16-3.48,1.16-7.86V172.71l-18.61,88.81h-17l-17.65-88.65v64.45c0,4.14.36,6.67,1.08,7.65s2.35,1.48,4.89,1.48h2.69v15.06H267.75V246.46h3.34c2.53,0,4.17-.5,4.89-1.48s1.08-3.51,1.08-7.65v-58c0-4.12-.36-6.67-1.07-7.62s-2.35-1.42-4.91-1.42h-3.34v-15h40.72l12.33,63.29,13.34-63.29Zm36.17,70.86c0,8.21.87,13.93,2.62,17.23s4.69,5,8.86,5c4.95,0,8.48-1.64,10.63-4.88s3.23-8.57,3.23-16V179.36c0-4.17-.36-6.73-1.07-7.65s-2.31-1.4-4.86-1.4H428v-15h33.68v15h-3.34c-2.53,0-4.17.47-4.89,1.42s-1.08,3.35-1.08,7.15v51.26q0,17-8.41,25.86t-24.64,8.84q-14.76,0-22.85-8.73t-8.09-24.67V179.36c0-4-.38-6.54-1.12-7.55s-2.38-1.5-5-1.5h-3.7v-15h43.79v15h-4c-2.6,0-4.28.5-5,1.5s-1.08,3.51-1.08,7.55Zm127.06-5.8q-.43,21.33-9.22,32.82t-24.89,11.48q-18.82,0-28.95-14.56T466.2,208.49q0-25.6,10.49-41t28-15.38a31.34,31.34,0,0,1,20.68,7.41l1.86-5.86h11.79v43.74H526q-1.89-15.32-5.81-22.24t-10.52-6.91q-7.66,0-11.15,9.47t-3.48,30.42q0,21.65,3.59,31.16t11.7,9.5q7.34,0,12.06-7.68t5.29-20.76Zm38.82,41.13V246.46h3.27c2.76,0,4.44-.21,5.05-.66a2.9,2.9,0,0,0,.92-2.51,20.23,20.23,0,0,0-.13-2.37c-.09-.74-.2-1.48-.34-2.19l-2.6-11.37H564.81l-2.27,10.13c-.38,1.56-.65,2.77-.78,3.64a14.64,14.64,0,0,0-.22,2.4,2.4,2.4,0,0,0,1.32,2.16,7.66,7.66,0,0,0,3.75.77h3.59v15.06H537.74V246.46h2.69a5.58,5.58,0,0,0,4.64-2.56c1.25-1.69,2.33-4.49,3.25-8.34l19.1-80.23h26.28l17,79.91c1.17,5.25,2.22,8.44,3.18,9.55s2.49,1.66,4.6,1.66h3.81v15.06Zm2.74-49.39L574.34,180l-6.19,32.16Zm113.26,8.26q-.43,21.33-9.22,32.82t-24.89,11.48q-18.82,0-28.95-14.56T621,208.49q0-25.6,10.49-41t28-15.38a31.34,31.34,0,0,1,20.68,7.41l1.86-5.86h11.79v43.74h-13q-1.9-15.32-5.81-22.24t-10.52-6.91q-7.66,0-11.15,9.47t-3.48,30.42q0,21.65,3.59,31.16t11.7,9.5q7.34,0,12.06-7.68t5.29-20.76Zm41.57-8.26L729.17,180,723,212.13Zm146.9,49.39V246.46h3.27c2.76,0,4.44-.21,5.05-.66a2.9,2.9,0,0,0,.92-2.51,20.21,20.21,0,0,0-.13-2.37c-.09-.74-.2-1.48-.34-2.19l-2.6-11.37H869.28L867,237.48c-.38,1.56-.65,2.77-.78,3.64a14.64,14.64,0,0,0-.22,2.4,2.4,2.4,0,0,0,1.32,2.16,7.66,7.66,0,0,0,3.75.77h3.59v15.06H733V246.46h3.27c2.76,0,4.44-.21,5.05-.66a2.9,2.9,0,0,0,.92-2.51,20.29,20.29,0,0,0-.13-2.37c-.09-.74-.2-1.48-.34-2.19l-2.6-11.37H719.64l-2.27,10.13c-.38,1.56-.65,2.77-.78,3.64a14.66,14.66,0,0,0-.22,2.4,2.4,2.4,0,0,0,1.32,2.16,7.66,7.66,0,0,0,3.75.77H725v15.06H692.56V246.46h2.69a5.58,5.58,0,0,0,4.64-2.56c1.25-1.69,2.33-4.49,3.25-8.34l19.1-80.23h26.28l17,79.91c1.17,5.25,2.22,8.44,3.18,9.55s2.49,1.66,4.6,1.66h.9l40.29-76.14h-9.67c-5.85,0-9.93,1.71-12.2,5.17s-3.68,9.92-4.13,19.42H776.07V155.33h66.56v15l-40.09,76.14h9.89c6.28,0,10.61-2,13-5.83s3.84-11.13,4.26-21.69h12.9v27.52h2.26a5.58,5.58,0,0,0,4.64-2.56c1.25-1.69,2.33-4.49,3.25-8.34l19.1-80.23h26.28l17,79.91c1.17,5.25,2.22,8.44,3.18,9.55s2.49,1.66,4.6,1.66h3.81v15.06Zm2.74-49.39L878.81,180l-6.19,32.16ZM769.56,808.66h10.67Q779,825.24,770,834.3t-24.31,9.05a45.65,45.65,0,0,1-16.53-2.85A37.11,37.11,0,0,1,716,831.78a42.44,42.44,0,0,1-9.71-14.67,47.93,47.93,0,0,1-3.31-17.9,47.31,47.31,0,0,1,3.2-17.65A43.1,43.1,0,0,1,715.86,767a39.59,39.59,0,0,1,28.75-11.86,37.54,37.54,0,0,1,12.57,2.09,42.22,42.22,0,0,1,11.6,6.45l2.48-7.44h9v34.08h-9.57q-1.46-11.94-7.67-18.48t-16-6.53q-11.47,0-18,9.14t-6.51,25.32q0,15.38,6.47,23.77T747.22,832q9.15,0,14.84-6T769.56,808.66ZM415,843.36v-9.45h4.84c3.68,0,6-.43,6.86-1.3s1.32-3,1.32-6.39v-49c0-3.39-.43-5.52-1.32-6.39s-3.18-1.3-6.86-1.3H415v-9.38h77.38v34.45h-9.57a62.51,62.51,0,0,0-.85-11.06,25.6,25.6,0,0,0-2.6-7.77,10.27,10.27,0,0,0-5.93-4.8q-4.12-1.46-12.4-1.45H445.5V795.1h2.13q7.78,0,10.23-2.69c1.61-1.8,2.6-5.93,3-12.38l9.45-.06v41.71l-9.45-.06q-.56-10.73-3-13.83t-10.15-3.12H445.5v21.56c0,3.35.45,5.48,1.36,6.37s3.22,1.32,6.94,1.32h5.81v9.45Zm182.4-462.17a8.36,8.36,0,0,1-2.35-.8c-21.94-10.45-51.11-4.5-70.27,9.38l-17.31,12.54-35.9,33.07-3.59,3c-.45.37-.85.76-1.27,1.17-14.18,13.91-29.69,25.33-48.49,32.26-18,6.65-57.71,12.68-71.32-5.3-1.29-1.7-2.72-3.31-4-5-16.34-22.58-14.57-66.41-3.63-91,5-11.24,11.25-22.81,19.17-32.27a12.56,12.56,0,0,0,1.69-2.19l3.93-6.55c.81-1.36,3.4-3.54,4.59-4.67a46,46,0,0,0,4.09-4.33c3.33-4.12,7.68-7.86,11.65-11.35l.57-.49c6.23-5.4,13.45-9,18.13-16.24L415,274.08l-21.68,1.84c-3.87.33-7.23.29-10,3.24l-18.39,9.22a127.43,127.43,0,0,0-30.55,21.32l-13.7,13a78.91,78.91,0,0,0-8,9.21c-.53.67-1.54,1.47-2.17,2.12-9.16,9.42-19.22,28.51-24.22,40.82-5.36,13.17-9.84,25.17-11.76,39.45-1.27,9.5-2.39,18.8-1.37,28.37a129.91,129.91,0,0,1,.88,14.07,14.94,14.94,0,0,0,.33,7.53l3.4,12.49a51.69,51.69,0,0,0,1.92,5.32l7.3,18.79a12.27,12.27,0,0,0,1.18,2.52l10.83,17.27,1.5,1.13a31.1,31.1,0,0,1,2.75,3.66,41.11,41.11,0,0,0,7.13,8l6.35,5.25A90.51,90.51,0,0,0,340,553.22c24.25,10.32,48.26,12.06,71,7.06a124.66,124.66,0,0,0-12.42,6.17C360,588.12,351.17,625.53,355.33,667l1.49,14.9,13.58-6.32c13.63-6.34,25.11-14.24,39.7-18.79a46.37,46.37,0,0,1,8-1.26c4.81-.51,9.63-.9,14.44-1.43,12.58-1.39,25.15-3.62,36.93-8.37a83.36,83.36,0,0,0,9.07-4.3L475,656.28a68,68,0,0,0-1.93,16.12,118.65,118.65,0,0,0,5,30.55c3.13,9.43,6.5,18.3,12.36,26.42,2.88,4,6.15,7.75,9.17,11.66,7.67,9.92,21.4,19.68,32,26.49,7.14,4.59,14.22,9.33,21.07,14.35,6.13,4.5,14.65,10.88,19.36,16.83a55.9,55.9,0,0,1,7.31,11l.81,1.52c.09.18.2.37.28.56,1.63,4.06,3.19,4.69,6.41,6.89l10.58,7.21L608,818.7c3.23-2.2,4.78-2.84,6.41-6.89.08-.18.19-.38.28-.56l.81-1.52a55.9,55.9,0,0,1,7.31-11c4.71-6,13.22-12.34,19.36-16.83,6.85-5,13.93-9.76,21.07-14.35,10.58-6.81,24.32-16.57,32-26.49,3-3.9,6.29-7.66,9.17-11.66,5.86-8.11,9.23-17,12.36-26.42a118.65,118.65,0,0,0,5-30.55,68,68,0,0,0-1.93-16.12l-3.59-14.82a83.35,83.35,0,0,0,9.07,4.3c11.79,4.75,24.36,7,36.93,8.37,4.81.53,9.63.92,14.44,1.43a46.36,46.36,0,0,1,8,1.26c14.59,4.55,26.08,12.45,39.7,18.79l13.58,6.32,1.49-14.9c4.16-41.5-4.68-78.91-43.24-100.57a124.68,124.68,0,0,0-12.42-6.17c22.77,5,46.78,3.27,71-7.06a90.51,90.51,0,0,0,23.27-14.52l6.35-5.25a41.11,41.11,0,0,0,7.13-8,31.11,31.11,0,0,1,2.75-3.66l1.5-1.13,10.83-17.27a12.27,12.27,0,0,0,1.18-2.52l7.3-18.79a51.67,51.67,0,0,0,1.92-5.32l3.4-12.49a14.94,14.94,0,0,0,.33-7.53,129.91,129.91,0,0,1,.88-14.07c1-9.57-.1-18.87-1.37-28.37-1.92-14.28-6.4-26.28-11.76-39.45-5-12.31-15.07-31.4-24.22-40.82-.63-.64-1.64-1.45-2.17-2.12a78.91,78.91,0,0,0-8-9.21l-13.7-13a127.43,127.43,0,0,0-30.55-21.32l-18.39-9.22c-2.74-2.95-6.1-2.91-10-3.24l-21.68-1.84,11.87,18.24c4.69,7.2,11.9,10.84,18.13,16.24l.57.49c4,3.49,8.32,7.24,11.65,11.35a46,46,0,0,0,4.09,4.33c1.19,1.13,3.77,3.31,4.59,4.67l3.93,6.55a12.56,12.56,0,0,0,1.69,2.19c7.92,9.46,14.18,21,19.17,32.27,10.93,24.64,12.71,68.47-3.63,91-1.24,1.72-2.67,3.33-4,5-13.61,18-53.28,12-71.32,5.3-18.8-6.94-34.31-18.36-48.49-32.26-.41-.41-.82-.8-1.27-1.17l-3.59-3-35.9-33.07L670,389.78c-19.16-13.88-48.33-19.84-70.27-9.38A8.37,8.37,0,0,1,597.37,381.19Zm0-278.92c-127.27,0-216.53,7.27-338.22-33.9L166.53,190.2s80.13,105.11,47.87,227.91-88.43,362,6.77,455.29C293.36,944.1,418.39,1011,508.82,1059.12c43.84,23.33,78.07,54.62,88.55,65.09,10.47-10.47,44.7-41.76,88.54-65.09,90.44-48.11,215.47-115,287.65-185.72,95.21-93.26,39-332.49,6.77-455.29s47.87-227.91,47.87-227.91L935.59,68.37C813.9,109.55,724.64,102.27,597.37,102.27ZM828.83,666c-14.25-6.63-24-14-41-19.3-19.53-6.09-104.9,5.57-95.61-84.63,10.89,35.54,26.58,32.83,66.55,35.68C754,566.37,710.65,568.91,696,537.39c56.9,36.69,58.2,17.65,95,38.33C820.29,592.2,833.4,620.28,828.83,666ZM306.91,513.36c3.27,2.46,5.74,7.86,10.2,11.89l6.35,5.25c6.77,5.23,12.27,9.36,20.66,12.93,45.06,19.18,88.71,5.89,124.57-25.47l.62-.54.63-.53L484,503.09c8.29-7.89,1.89-2.76,12.78-13.95,5.39-5.54,7-9.93,10.82-13.6l12.33-13.23c9-7.72,8.22-8.15,18.64-15,6.39-4.2,3.15-2.55,10.33-5.88,9.82-4.56,19.87-8.47,33.55-8.05,7.25.22,8.7,2.07,14.26,3.17l.64.11.64-.11c5.57-1.1,7-2.95,14.26-3.17,13.68-.42,23.74,3.49,33.55,8.05,7.17,3.33,3.94,1.68,10.33,5.88,10.43,6.85,9.67,7.28,18.64,15l12.33,13.23c3.84,3.67,5.43,8.06,10.82,13.6,10.89,11.19,4.49,6.06,12.78,13.95l14.07,13.8.63.53.62.54c35.86,31.36,79.51,44.65,124.57,25.47,8.39-3.57,13.89-7.71,20.66-12.93l6.35-5.25c4.46-4,6.92-9.43,10.2-11.89l9.78-15.6c.05-.13.17-.46.23-.59l7.35-18.92c.33-1.19.88-2.49,1.57-4.26l3.4-12.49c.34-3,0-1.53,0-2.59-.34-20.92,3.35-15.14-.41-43.17-1.91-14.21-6.33-25.21-11.07-36.86-4.17-10.24-14.2-29.39-22-37.42a36.12,36.12,0,0,1-2.88-2.93c-3-3.82-3.49-5-7-8.1l-13.7-13a171.56,171.56,0,0,0-28-19.53l-19.26-9.66c-4.22-2,.82-1.2-5.23-1.71,3.34,5.13,11.11,9.61,16.18,14l.62.54c4.45,3.9,9.29,8.19,12.9,12.65,3,3.66,7,6.71,9.53,10.23l3.93,6.55c.15.19.39.44.54.62,8.57,10.16,15.46,22.72,20.92,35,13.13,29.58,13.21,76.79-4.74,101.59-1.42,2-2.33,2.88-4.1,5.21-17.72,23.42-62.58,16.57-83.48,8.86s-37.43-20.11-52.26-34.65l-.6-.57-3.81-3.15-35.65-32.84-16.81-12.18c-16.7-11.13-41.33-17-59.46-8.4a13.72,13.72,0,0,1-13.85,0c-18.13-8.64-42.76-2.73-59.46,8.4l-16.81,12.18-35.65,32.84-3.81,3.15-.6.57c-14.83,14.53-31.46,27-52.26,34.65s-65.75,14.56-83.48-8.86c-1.76-2.33-2.68-3.25-4.1-5.21-18-24.81-17.87-72-4.74-101.59,5.45-12.28,12.35-24.84,20.92-35,.15-.18.39-.43.54-.62l3.93-6.55c2.52-3.51,6.57-6.56,9.53-10.23,3.61-4.46,8.45-8.75,12.9-12.65l.62-.54c5.07-4.39,12.84-8.87,16.18-14-6,.51-1-.33-5.23,1.71l-19.26,9.66a171.56,171.56,0,0,0-28,19.53l-13.7,13c-3.53,3.1-4,4.27-7,8.1a36.11,36.11,0,0,1-2.88,2.93c-7.8,8-17.83,27.18-22,37.42-4.74,11.64-9.16,22.64-11.07,36.86-3.76,28-.08,22.26-.41,43.17,0,1.06-.37-.4,0,2.59L288,474c.69,1.78,1.24,3.07,1.57,4.26l7.35,18.92c.06.14.18.46.23.59ZM520.47,483c15.15-1.84,27.09-3,40.5,6.48.2.14.46.36.66.5s.45.37.64.52l9.77,10c9.59,12.15,11,29.66,7,44.61-1.9,7-2.61,7.94-5.77,14.08l24.12-3.53,24.12,3.53c-3.16-6.14-3.87-7.07-5.77-14.08-4.06-14.95-2.6-32.46,7-44.61l9.77-10c.19-.15.44-.38.64-.52s.46-.36.66-.5c13.41-9.47,25.35-8.32,40.5-6.48-8.17-12.81-34.68-24.91-48.19-24.91-6,0-28.7-1.45-28.7,5.88,0-7.33-22.73-5.88-28.71-5.88C555.15,458.12,528.64,470.21,520.47,483Zm165.86,26.37c-2.83,7.26.44,7.07-8.44,11.87-5.43,2.93-11,2.47-16.85,3-6.14,13.53-5.28,18.44-5.76,33.67C650.13,533.19,653.09,500.32,686.33,509.39Zm-177.92,0c2.83,7.26-.44,7.07,8.44,11.87,5.42,2.93,11,2.47,16.85,3,6.14,13.53,5.28,18.44,5.76,33.67C544.61,533.19,541.65,500.32,508.41,509.39ZM653.62,578c2.94,5.72,4.95,12.89,2.07,20.93-2.78,7.76-6.57,7.28-17,7.28-2.45-3.75-4.27-5.59-3.4-12.78.79-6.52,4.27-7.44,4.47-12,.36-8.08-10.12-13-18.44-13.87-7.72-.81-23.45.78-29.36,2.58-7,2.13-12,3.58-16.41,7.88-2.31,2.25-1.88,1.6-3.47,4.69,8.6,0,13.56,5,14.74,12,1.83,10.92-2.63,14.82-10.39,16-20.3,3-21.18-18-18.11-31.51-7.23,4.93-13,21.28-7.23,34.44,5.86,13.4.85,7.52-1.56,17.72-2.11,9,1.49,13.45,5.34,17.19,5.15-.12,9.58-2.55,12.68-4.65a27.58,27.58,0,0,0,2.65-2c17.49-14.1,45.89-15.17,65.68-8.12a102.11,102.11,0,0,1,11.75,5.6c4.9,3,4,4.46,11.72,4.46,2.94-4.49,5.8-7.14,2.74-13.3-1.34-2.7-6.83-9.18-9.63-10.22v-5.87c8.57-2.34,15.79-16.39,8.31-29.67C658.49,580.69,658.56,579.17,653.62,578Zm-36.74,87c3.81,0,13.17-3,16.43-4.34,19.77-8.39,7-15.79-4.25-17.54-30.77-4.76-44.2,9.52-51.22,10.12v2.36C588,658,587.26,665,616.88,665Zm-10.8,131.51c2.23-10,1.32-12.11,8.88-25,5.19-8.84,3.46-7.18,10.57-16.21l3.17-3.81c16.12-18.23,20.68-19,34.8-32.54l18.38-17.61.58-.58c.25-.26,1.08-1,1.76-1.72a44.2,44.2,0,0,0,3.43-4.71l7.55-9.9c6.36-10.33,11.23-24,11.23-37.87l3,12.25c.71,4.82,1.63,9.14,1.63,13.61,0,7.67-2.55,21.56-4.42,27.21-7,21.06-10.55,22.88-19.85,34.92-6.63,8.58-20.24,18.21-29.32,24-12.31,7.92-34.5,22.78-43,33.53-5.12,6.47-4.44,5.7-8.35,12.61l-.81,1.52c-2,3.23.11,1.35-3.3,3.68C602.59,802.16,605,801.47,606.08,796.49Zm-1.15-57.16c3.26-6.15-.68-8.47,15-26.93l27.92-25.48c4.52-3.61,5.12-4.41,8.55-8.88,3.85-5,2.25-1.91,5.58-8.39l.4-.76,2-3.81c6.81-13,1.7-9.88,6.43-13.41,0,17.06,0,25-5.7,36.48-7.31,14.62-22.9,27.24-37,35-4.4,2.43-6.27,4.72-11.27,8.44-11.24,8.36-9.18,11.34-14.94,15.27C602.39,741.55,603.06,742.86,604.93,739.33Zm-15.12,0c-3.26-6.15.68-8.47-15-26.93l-27.92-25.48c-4.52-3.61-5.12-4.41-8.55-8.88-3.85-5-2.25-1.91-5.58-8.39l-.4-.76-2-3.81c-6.81-13-1.7-9.88-6.43-13.41,0,17.06,0,25,5.7,36.48,7.31,14.62,22.9,27.24,37,35,4.4,2.43,6.27,4.72,11.27,8.44,11.24,8.36,9.18,11.34,14.94,15.27C592.34,741.55,591.68,742.86,589.81,739.33Zm-1.15,57.16c-2.23-10-1.32-12.11-8.88-25-5.19-8.84-3.46-7.18-10.57-16.21L566,751.48c-16.12-18.23-20.68-19-34.8-32.54l-18.38-17.61-.58-.58c-.25-.26-1.08-1-1.76-1.72a44.2,44.2,0,0,1-3.43-4.71l-7.55-9.9c-6.36-10.33-11.23-24-11.23-37.87l-3,12.25c-.71,4.82-1.63,9.14-1.63,13.61,0,7.67,2.55,21.56,4.42,27.21,7,21.06,10.55,22.88,19.85,34.92,6.63,8.58,20.24,18.21,29.32,24,12.31,7.92,34.5,22.78,43,33.53,5.12,6.47,4.44,5.7,8.35,12.61l.81,1.52c2,3.23-.11,1.35,3.3,3.68C592.15,802.16,589.78,801.47,588.66,796.49ZM618,737.84l-1.35.19,1.35,1ZM365.91,666c14.25-6.63,24-14,41-19.3,19.53-6.09,104.9,5.57,95.61-84.63C491.66,597.57,476,594.86,436,597.71c4.71-31.34,48.09-28.79,62.77-60.31-56.9,36.69-58.2,17.65-95,38.33C374.45,592.2,361.33,620.28,365.91,666ZM597.37,84.15c58.39,0,117.59,2.2,175.83-1.85,54.35-3.78,104.91-13.6,156.57-31.09l12.6-4.26L1051.59,190.6l-8.52,11.18c-13.49,17.82-26.07,43.79-33.91,64.42-18,47.26-23.77,98.33-10.81,147.67,32.65,124.3,91.91,371.84-11.72,473.35-17.45,17.1-38.18,32.91-57.87,47.34-27,19.79-55,38.48-83.29,56.36-48.83,30.84-99.88,58.09-150.84,85.2-29,15.4-60.84,38.52-84.19,61.86l-13.07,13.07L584.29,1138c-23.34-23.34-55.23-46.46-84.18-61.86-51-27.11-102-54.36-150.84-85.2C321,973,293,954.35,266,934.56c-19.69-14.43-40.41-30.24-57.87-47.34-103.63-101.51-44.38-349-11.72-473.35,13-49.34,7.15-100.41-10.81-147.67-7.84-20.63-20.42-46.61-33.91-64.42l-8.52-11.18L252.37,46.94,265,51.21c51.66,17.48,102.22,27.3,156.57,31.09C479.78,86.34,539,84.15,597.37,84.15Z"/><path class="cls-2" d="M265.57,89,188.29,190.61c12.27,18.79,23.25,41.85,30.68,61.2,21,54.61,27.41,113.71,12.42,170.76C203.23,529.78,143.82,773,233.47,860.84c40.54,39.71,92.68,74,141.15,103.34,46.55,28.15,94.45,53.88,142.46,79.43a419.23,419.23,0,0,1,80.29,56.4,419.24,419.24,0,0,1,80.29-56.4c48-25.54,95.9-51.28,142.46-79.43,48.47-29.3,100.61-63.62,141.15-103.34,89.65-87.82,30.24-331.06,2.07-438.27-15-57.06-8.57-116.16,12.43-170.77,7.43-19.34,18.41-42.4,30.68-61.19L929.17,89c-50.44,16-100.34,25.24-153.52,28.94-59.12,4.11-119,1.94-178.28,1.94S478.21,122,419.09,117.91C365.91,114.21,316,105,265.57,89m-27.35,647.5,11.12,10.8c-3.82,5.74-4.21,4.28-10.71,1.79C235.75,741.7,234.11,741.25,238.22,736.48Zm53,119,21.12-53.08L282.47,830.8c-2.74,2.62-4.17,4.54-4.29,5.79-.15,1.69.62,3.42,2.29,5.17l1.5,1.57-1.21,1.16L265.95,829l1.21-1.16,1.5,1.57q2.7,2.83,5.56,2.38c1.16-.18,3-1.48,5.49-3.86l29.18-27.82a14.14,14.14,0,0,0,3.66-4.74,5.09,5.09,0,0,0,0-3.22,12.63,12.63,0,0,0-3.14-4.58l1.23-1.17L322.66,799l-19.5,49.52,50.14-17.39,12.06,12.64L364.14,845l-1.48-1.55q-2.73-2.87-5.57-2.42c-1.17.19-3,1.47-5.51,3.86L322.4,872.68c-2.74,2.62-4.15,4.56-4.25,5.83q-.22,2.53,2.28,5.16l1.48,1.55-1.21,1.16-18.09-19,1.21-1.16,1.51,1.58q2.73,2.87,5.56,2.38c1.16-.18,3-1.48,5.49-3.86l29.84-28.46-54,18.61Zm104.06,8.89a16.28,16.28,0,0,0-14.45-2.43q-9.45,2.79-17.78,15-8.54,12.48-7.8,22.84a16,16,0,0,0,7.32,12.52,17.9,17.9,0,0,0,15.68,2.5q8.5-2.4,16.75-14.45,8.93-13.06,8.18-23Q402.52,869.3,395.24,864.32Zm2.57-2.25q9.92,6.79,12,19.28t-5.59,23.76q-7.95,11.61-20.51,14.25a29.65,29.65,0,0,1-35.52-24q-2-12.37,6.08-24.24,8.3-12.13,21.8-14.14A29.55,29.55,0,0,1,397.82,862.07Zm75.72,42.71L412.74,941l23.06,10.41q5.31,2.4,9.19,1.35c2.6-.7,5.7-3.07,9.29-7.14l1.26.86-9.37,13.7-45.79-20.67.69-1.53,59.26-35.06-18-8.12q-4.48-2-6.93-2a7.61,7.61,0,0,0-4.35,1.44c-1.26.91-2.94,2.92-5,6l-1.57-.71L431.95,886Zm36.68,48.94L506,927l-16.38,21.64Zm.43,3.58-23.19-5.71L481.07,960a15.17,15.17,0,0,0-2.79,4.85,3.13,3.13,0,0,0,.71,2.72c.7.91,2.46,1.82,5.31,2.75l-.4,1.63L465,967.34l.4-1.63c2.61.16,4.37,0,5.28-.54,1.85-1,4.22-3.5,7.11-7.38L511,913.68l1.54.38,8.58,55q1,6.64,2.65,8.92a9.68,9.68,0,0,0,5.23,3.43l-.4,1.63L505,977.18l.4-1.63c2.41.47,4.13.46,5.14,0a3.13,3.13,0,0,0,1.88-2.16c.32-1.3.22-3.48-.27-6.58Zm150.24,20.81a45.74,45.74,0,0,0,10.47-.62c5.41-1,9.31-2.92,11.72-5.86a11.63,11.63,0,0,0,2.64-9.78,13.41,13.41,0,0,0-3.14-6.46,13.1,13.1,0,0,0-7.19-4,27.5,27.5,0,0,0-11.08,0c-1.85.33-3.43.64-4.74.93a24,24,0,0,0-3.12.89Zm-5.18-29a34.16,34.16,0,0,0,3.88-.2c1.44-.15,3-.38,4.71-.68,4.36-.78,7.56-1.82,9.58-3.16a10.64,10.64,0,0,0,4.27-5.23,12.29,12.29,0,0,0,.61-6.67,11.81,11.81,0,0,0-6-8.31q-5-3-13.35-1.5a31,31,0,0,0-7.9,2.42Zm23.9-1.76q6.57.2,10.23,2.61a13.59,13.59,0,0,1,6.14,9.3,15.28,15.28,0,0,1-1.33,9.18,16.58,16.58,0,0,1-6.78,7.44q-4.66,2.8-14.9,4.63L644.3,985.6l-.29-1.65,2.28-.41q3.81-.68,5-3.41c.5-1.16.46-3.44-.15-6.85l-7-39.25q-1-5.64-2.57-6.88a6.69,6.69,0,0,0-5.55-1l-2.28.41-.3-1.67,26.24-4.68a52.45,52.45,0,0,1,12-1q7,.41,11.28,3.87a14.25,14.25,0,0,1,5.22,8.8,13.3,13.3,0,0,1-1.31,8.67A16.63,16.63,0,0,1,679.61,947.31Zm64.72,11.84.54,1.59-25.06,8.45-.54-1.59,2.08-.7q3.62-1.22,4.54-3.89c.38-1.15,0-3.49-1.19-7L712,918.24a20.57,20.57,0,0,0-2.53-5.67,4.15,4.15,0,0,0-2.39-1.26,8.62,8.62,0,0,0-4.32.31l-2.07.7-.54-1.6,25.06-8.45.54,1.6-2.12.71c-2.38.8-3.88,2.1-4.5,3.86-.41,1.17,0,3.5,1.15,7L733,953.23a20.59,20.59,0,0,0,2.53,5.67,4.12,4.12,0,0,0,2.44,1.24,8.37,8.37,0,0,0,4.28-.28Zm20.44-72a16.67,16.67,0,0,0-9.1,11.39q-2.23,9.51,4.8,23.09,6.89,13.28,16.36,17.5a16.13,16.13,0,0,0,14.62-.55,17.11,17.11,0,0,0,9.37-11.89q2.07-9.37-4.55-22.13-5.1-9.82-11.56-15a19.08,19.08,0,0,0-10.08-4.45A17.59,17.59,0,0,0,764.78,887.13Zm34.56,50q7.81,5,14.33,5.84a24.22,24.22,0,0,0,12.87-1.81l.67,1.3a49.89,49.89,0,0,1-13.08,3.93,57.92,57.92,0,0,1-15,.58,66.41,66.41,0,0,1-13.78-2.61,43.73,43.73,0,0,1-11.78-.19A30.6,30.6,0,0,1,761,938.51a35,35,0,0,1-9.74-12.09q-6.37-12.28-2.63-24.53a29.31,29.31,0,0,1,15.07-18.11q10.73-5.57,22.82-1.51T805,898.73a32.66,32.66,0,0,1,3.56,20.55A31.1,31.1,0,0,1,799.34,937.13ZM866,809.46l18.46,15.93,8.86-10.27q3.45-4,3.41-6.37c0-2.11-1.31-4.37-3.86-6.82l1.1-1.27,16.27,14-1.1,1.27a23.62,23.62,0,0,0-5.21-2.81,5.71,5.71,0,0,0-3.65.4,13.69,13.69,0,0,0-4.44,3.74l-8.86,10.27,15.41,13.29a19.47,19.47,0,0,0,4,3,2.94,2.94,0,0,0,1.9,0,7.93,7.93,0,0,0,2.65-2.29l6.84-7.93a27.83,27.83,0,0,0,4.41-6.23A11.21,11.21,0,0,0,923,822a35.12,35.12,0,0,0-2.67-9.93l1.19-1.38,8.25,14.13-31.06,36-1.27-1.1,1.43-1.66a8.65,8.65,0,0,0,1.9-3.82,3.84,3.84,0,0,0-.35-2.93,21.93,21.93,0,0,0-4.18-4.28l-30.36-26.18c-3-2.56-5-3.83-6.25-3.83q-2.44,0-4.94,2.94l-1.43,1.66-1.28-1.11,31.06-36,10.68,8.31-1.17,1.35a21.16,21.16,0,0,0-6.44-2.76,7.26,7.26,0,0,0-4.35.78,20.74,20.74,0,0,0-4.71,4.41ZM578.71,987l-21.85-52.79-1.57,41.21c-.14,3.79.17,6.16,1,7.14,1.07,1.32,2.83,2,5.25,2.11l2.17.08-.06,1.68-21.45-.82.06-1.68,2.17.08c2.61.1,4.48-.62,5.65-2.16.7-.94,1.11-3.14,1.25-6.59L552.82,935a14.14,14.14,0,0,0-.68-5.95,5.09,5.09,0,0,0-2.26-2.29,12.63,12.63,0,0,0-5.44-1.09l.06-1.69,17.46.66,20.53,49.1,23.84-47.42,17.46.66-.06,1.69-2.14-.08c-2.64-.1-4.53.62-5.68,2.15-.7,1-1.13,3.14-1.26,6.6l-1.53,40.29c-.14,3.79.2,6.16,1,7.14q1.6,2,5.24,2.11l2.14.08-.06,1.68-26.2-1,.06-1.68,2.19.08c2.64.1,4.52-.62,5.65-2.16.7-.94,1.11-3.14,1.25-6.59L606,936.05l-25.75,51ZM829.5,840.75l-1.05-1.32,17.09-13.62,1.06,1.32-1.82,1.45a6.25,6.25,0,0,0-2.48,5.86c.09,1.14,1.19,3,3.33,5.73l15.59,19.57q5.79,7.27,7.54,12.4a18.1,18.1,0,0,1-.18,11.39q-1.95,6.23-9.2,12-7.91,6.3-14.18,6.81a18.92,18.92,0,0,1-11.67-2.74q-3.66-2.27-10.62-11l-15-18.86c-2.36-3-4.31-4.59-5.87-4.85s-3.24.32-5.06,1.77l-1.82,1.45-1.06-1.32,20.86-16.62,1.05,1.32L814.13,853c-2,1.59-2.93,3.35-2.78,5.29.08,1.32,1.21,3.34,3.36,6l16.76,21a59.8,59.8,0,0,0,5.64,6,17.73,17.73,0,0,0,6.38,4.17,12.93,12.93,0,0,0,6.56.23,17.09,17.09,0,0,0,7.3-3.65,22,22,0,0,0,6.82-8.81,14.12,14.12,0,0,0,.9-9.36q-1.2-4.31-7.32-12L842.2,842.43c-2.4-3-4.24-4.62-5.5-4.86a6.72,6.72,0,0,0-5.38,1.72ZM955.82,736.37l-11.12,10.8c3.82,5.74,4.21,4.28,10.71,1.78C958.29,741.6,959.92,741.15,955.82,736.37Zm-23.52,46.27-3.15-15.22,8.87,18.9,7.78,5-1-31.69,13.91,28.66L955,757.63l14.55,17.85L963,744.41l13.69,14.15L972,730.76c10.62,13.75,13.45,9.35,14.1,2.59a2.74,2.74,0,0,1-2,1.18c-2.32.23-5-2.35-5.92-5.76-.83-3.07.07-5.8,2-6.41a52.58,52.58,0,0,0-9.24-7.69c-7.07-23.3-14.85-43.34-24.1-57,8.94,21.84,12.8,35.33,16.13,55.46l-9.4,13.61c-2.33-4.09-10.79-14.65-18.43-18.88,4.3,5.57,9.81,20.16,11,28.94l-10.5,7.49c-7.43,5.51-14.9,11-22.31,16.51l-7.5-19.68c.64,8-1,15.61-.38,23.6l-.38.36Zm-670.54.1,3.15-15.23L256,786.42l-7.78,5,1-31.69L235.38,788.4l3.69-30.66-14.54,17.85,6.54-31.07-13.68,14.15,4.66-27.79c-10.62,13.76-13.44,9.35-14.1,2.59a2.74,2.74,0,0,0,2,1.18c2.32.22,5-2.35,5.92-5.76.83-3.07-.08-5.8-2-6.41a52.58,52.58,0,0,1,9.24-7.69c7.06-23.3,14.84-43.35,24.08-57-8.93,21.84-12.79,35.33-16.11,55.46l9.41,13.61c2.33-4.09,10.78-14.65,18.43-18.89-4.3,5.57-9.8,20.16-11,28.95l10.5,7.49c7.43,5.51,14.91,11,22.32,16.5l7.49-19.68c-.64,8,1,15.61.38,23.6l.38.36Zm114.4-627.41v15h-3.59c-2.51,0-4.12.45-4.84,1.35s-1.08,3.48-1.08,7.7v58c0,4.27.36,6.89,1.1,7.78s2.35,1.35,4.82,1.35h3.59v15.06H336.3V246.46H339q3.65,0,4.82-1.27c.78-.87,1.16-3.48,1.16-7.86V172.71l-18.61,88.81h-17l-17.65-88.65v64.45c0,4.14.36,6.67,1.08,7.65s2.35,1.48,4.89,1.48h2.69v15.06H267.75V246.46h3.34c2.53,0,4.17-.5,4.89-1.48s1.08-3.51,1.08-7.65v-58c0-4.12-.36-6.67-1.07-7.62s-2.35-1.42-4.91-1.42h-3.34v-15h40.72l12.33,63.29,13.34-63.29Zm36.17,70.86c0,8.21.87,13.93,2.62,17.23s4.69,5,8.86,5c4.95,0,8.48-1.64,10.63-4.88s3.23-8.57,3.23-16V179.36c0-4.17-.36-6.73-1.07-7.65s-2.31-1.4-4.86-1.4H428v-15h33.68v15h-3.34c-2.53,0-4.17.47-4.89,1.42s-1.08,3.35-1.08,7.15v51.26q0,17-8.41,25.86t-24.64,8.84q-14.76,0-22.85-8.73t-8.09-24.67V179.36c0-4-.38-6.54-1.12-7.55s-2.38-1.5-5-1.5h-3.7v-15h43.79v15h-4c-2.6,0-4.28.5-5,1.5s-1.08,3.51-1.08,7.55Zm127.06-5.8q-.43,21.33-9.22,32.82t-24.89,11.48q-18.82,0-28.95-14.56T466.2,208.49q0-25.6,10.49-41t28-15.38a31.34,31.34,0,0,1,20.68,7.41l1.86-5.86h11.79v43.74H526q-1.89-15.32-5.81-22.24t-10.52-6.91q-7.66,0-11.15,9.47t-3.48,30.42q0,21.65,3.59,31.16t11.7,9.5q7.34,0,12.06-7.68t5.29-20.76Zm38.82,41.13V246.46h3.27c2.76,0,4.44-.21,5.05-.66a2.9,2.9,0,0,0,.92-2.51,20.23,20.23,0,0,0-.13-2.37c-.09-.74-.2-1.48-.34-2.19l-2.6-11.37H564.81l-2.27,10.13c-.38,1.56-.65,2.77-.78,3.64a14.64,14.64,0,0,0-.22,2.4,2.4,2.4,0,0,0,1.32,2.16,7.66,7.66,0,0,0,3.75.77h3.59v15.06H537.74V246.46h2.69a5.58,5.58,0,0,0,4.64-2.56c1.25-1.69,2.33-4.49,3.25-8.34l19.1-80.23h26.28l17,79.91c1.17,5.25,2.22,8.44,3.18,9.55s2.49,1.66,4.6,1.66h3.81v15.06Zm2.74-49.39L574.34,180l-6.19,32.16Zm113.26,8.26q-.43,21.33-9.22,32.82t-24.89,11.48q-18.82,0-28.95-14.56T621,208.49q0-25.6,10.49-41t28-15.38a31.34,31.34,0,0,1,20.68,7.41l1.86-5.86h11.79v43.74h-13q-1.9-15.32-5.81-22.24t-10.52-6.91q-7.66,0-11.15,9.47t-3.48,30.42q0,21.65,3.59,31.16t11.7,9.5q7.34,0,12.06-7.68t5.29-20.76Zm41.57-8.26L729.17,180,723,212.13Zm146.9,49.39V246.46h3.27c2.76,0,4.44-.21,5.05-.66a2.9,2.9,0,0,0,.92-2.51,20.21,20.21,0,0,0-.13-2.37c-.09-.74-.2-1.48-.34-2.19l-2.6-11.37H869.28L867,237.48c-.38,1.56-.65,2.77-.78,3.64a14.64,14.64,0,0,0-.22,2.4,2.4,2.4,0,0,0,1.32,2.16,7.66,7.66,0,0,0,3.75.77h3.59v15.06H733V246.46h3.27c2.76,0,4.44-.21,5.05-.66a2.9,2.9,0,0,0,.92-2.51,20.29,20.29,0,0,0-.13-2.37c-.09-.74-.2-1.48-.34-2.19l-2.6-11.37H719.64l-2.27,10.13c-.38,1.56-.65,2.77-.78,3.64a14.66,14.66,0,0,0-.22,2.4,2.4,2.4,0,0,0,1.32,2.16,7.66,7.66,0,0,0,3.75.77H725v15.06H692.56V246.46h2.69a5.58,5.58,0,0,0,4.64-2.56c1.25-1.69,2.33-4.49,3.25-8.34l19.1-80.23h26.28l17,79.91c1.17,5.25,2.22,8.44,3.18,9.55s2.49,1.66,4.6,1.66h.9l40.29-76.14h-9.67c-5.85,0-9.93,1.71-12.2,5.17s-3.68,9.92-4.13,19.42H776.07V155.33h66.56v15l-40.09,76.14h9.89c6.28,0,10.61-2,13-5.83s3.84-11.13,4.26-21.69h12.9v27.52h2.26a5.58,5.58,0,0,0,4.64-2.56c1.25-1.69,2.33-4.49,3.25-8.34l19.1-80.23h26.28l17,79.91c1.17,5.25,2.22,8.44,3.18,9.55s2.49,1.66,4.6,1.66h3.81v15.06Zm2.74-49.39L878.81,180l-6.19,32.16ZM769.56,808.66h10.67Q779,825.24,770,834.3t-24.31,9.05a45.65,45.65,0,0,1-16.53-2.85A37.11,37.11,0,0,1,716,831.78a42.44,42.44,0,0,1-9.71-14.67,47.93,47.93,0,0,1-3.31-17.9,47.31,47.31,0,0,1,3.2-17.65A43.1,43.1,0,0,1,715.86,767a39.59,39.59,0,0,1,28.75-11.86,37.54,37.54,0,0,1,12.57,2.09,42.22,42.22,0,0,1,11.6,6.45l2.48-7.44h9v34.08h-9.57q-1.46-11.94-7.67-18.48t-16-6.53q-11.47,0-18,9.14t-6.51,25.32q0,15.38,6.47,23.77T747.22,832q9.15,0,14.84-6T769.56,808.66ZM415,843.36v-9.45h4.84c3.68,0,6-.43,6.86-1.3s1.32-3,1.32-6.39v-49c0-3.39-.43-5.52-1.32-6.39s-3.18-1.3-6.86-1.3H415v-9.38h77.38v34.45h-9.57a62.51,62.51,0,0,0-.85-11.06,25.6,25.6,0,0,0-2.6-7.77,10.27,10.27,0,0,0-5.93-4.8q-4.12-1.46-12.4-1.45H445.5V795.1h2.13q7.78,0,10.23-2.69c1.61-1.8,2.6-5.93,3-12.38l9.45-.06v41.71l-9.45-.06q-.56-10.73-3-13.83t-10.15-3.12H445.5v21.56c0,3.35.45,5.48,1.36,6.37s3.22,1.32,6.94,1.32h5.81v9.45Zm182.4-462.17a8.36,8.36,0,0,1-2.35-.8c-21.94-10.45-51.11-4.5-70.27,9.38l-17.31,12.54-35.9,33.07-3.59,3c-.45.37-.85.76-1.27,1.17-14.18,13.91-29.69,25.33-48.49,32.26-18,6.65-57.71,12.68-71.32-5.3-1.29-1.7-2.72-3.31-4-5-16.34-22.58-14.57-66.41-3.63-91,5-11.24,11.25-22.81,19.17-32.27a12.56,12.56,0,0,0,1.69-2.19l3.93-6.55c.81-1.36,3.4-3.54,4.59-4.67a46,46,0,0,0,4.09-4.33c3.33-4.12,7.68-7.86,11.65-11.35l.57-.49c6.23-5.4,13.45-9,18.13-16.24L415,274.08l-21.68,1.84c-3.87.33-7.23.29-10,3.24l-18.39,9.22a127.43,127.43,0,0,0-30.55,21.32l-13.7,13a78.91,78.91,0,0,0-8,9.21c-.53.67-1.54,1.47-2.17,2.12-9.16,9.42-19.22,28.51-24.22,40.82-5.36,13.17-9.84,25.17-11.76,39.45-1.27,9.5-2.39,18.8-1.37,28.37a129.91,129.91,0,0,1,.88,14.07,14.94,14.94,0,0,0,.33,7.53l3.4,12.49a51.69,51.69,0,0,0,1.92,5.32l7.3,18.79a12.27,12.27,0,0,0,1.18,2.52l10.83,17.27,1.5,1.13a31.1,31.1,0,0,1,2.75,3.66,41.11,41.11,0,0,0,7.13,8l6.35,5.25A90.51,90.51,0,0,0,340,553.22c24.25,10.32,48.26,12.06,71,7.06a124.66,124.66,0,0,0-12.42,6.17C360,588.12,351.17,625.53,355.33,667l1.49,14.9,13.58-6.32c13.63-6.34,25.11-14.24,39.7-18.79a46.37,46.37,0,0,1,8-1.26c4.81-.51,9.63-.9,14.44-1.43,12.58-1.39,25.15-3.62,36.93-8.37a83.36,83.36,0,0,0,9.07-4.3L475,656.28a68,68,0,0,0-1.93,16.12,118.65,118.65,0,0,0,5,30.55c3.13,9.43,6.5,18.3,12.36,26.42,2.88,4,6.15,7.75,9.17,11.66,7.67,9.92,21.4,19.68,32,26.49,7.14,4.59,14.22,9.33,21.07,14.35,6.13,4.5,14.65,10.88,19.36,16.83a55.9,55.9,0,0,1,7.31,11l.81,1.52c.09.18.2.37.28.56,1.63,4.06,3.19,4.69,6.41,6.89l10.58,7.21L608,818.7c3.23-2.2,4.78-2.84,6.41-6.89.08-.18.19-.38.28-.56l.81-1.52a55.9,55.9,0,0,1,7.31-11c4.71-6,13.22-12.34,19.36-16.83,6.85-5,13.93-9.76,21.07-14.35,10.58-6.81,24.32-16.57,32-26.49,3-3.9,6.29-7.66,9.17-11.66,5.86-8.11,9.23-17,12.36-26.42a118.65,118.65,0,0,0,5-30.55,68,68,0,0,0-1.93-16.12l-3.59-14.82a83.35,83.35,0,0,0,9.07,4.3c11.79,4.75,24.36,7,36.93,8.37,4.81.53,9.63.92,14.44,1.43a46.36,46.36,0,0,1,8,1.26c14.59,4.55,26.08,12.45,39.7,18.79l13.58,6.32,1.49-14.9c4.16-41.5-4.68-78.91-43.24-100.57a124.68,124.68,0,0,0-12.42-6.17c22.77,5,46.78,3.27,71-7.06a90.51,90.51,0,0,0,23.27-14.52l6.35-5.25a41.11,41.11,0,0,0,7.13-8,31.11,31.11,0,0,1,2.75-3.66l1.5-1.13,10.83-17.27a12.27,12.27,0,0,0,1.18-2.52l7.3-18.79a51.67,51.67,0,0,0,1.92-5.32l3.4-12.49a14.94,14.94,0,0,0,.33-7.53,129.91,129.91,0,0,1,.88-14.07c1-9.57-.1-18.87-1.37-28.37-1.92-14.28-6.4-26.28-11.76-39.45-5-12.31-15.07-31.4-24.22-40.82-.63-.64-1.64-1.45-2.17-2.12a78.91,78.91,0,0,0-8-9.21l-13.7-13a127.43,127.43,0,0,0-30.55-21.32l-18.39-9.22c-2.74-2.95-6.1-2.91-10-3.24l-21.68-1.84,11.87,18.24c4.69,7.2,11.9,10.84,18.13,16.24l.57.49c4,3.49,8.32,7.24,11.65,11.35a46,46,0,0,0,4.09,4.33c1.19,1.13,3.77,3.31,4.59,4.67l3.93,6.55a12.56,12.56,0,0,0,1.69,2.19c7.92,9.46,14.18,21,19.17,32.27,10.93,24.64,12.71,68.47-3.63,91-1.24,1.72-2.67,3.33-4,5-13.61,18-53.28,12-71.32,5.3-18.8-6.94-34.31-18.36-48.49-32.26-.41-.41-.82-.8-1.27-1.17l-3.59-3-35.9-33.07L670,389.78c-19.16-13.88-48.33-19.84-70.27-9.38A8.37,8.37,0,0,1,597.37,381.19ZM828.83,666c-14.25-6.63-24-14-41-19.3-19.53-6.09-104.9,5.57-95.61-84.63,10.89,35.54,26.58,32.83,66.55,35.68C754,566.37,710.65,568.91,696,537.39c56.9,36.69,58.2,17.65,95,38.33C820.29,592.2,833.4,620.28,828.83,666ZM306.91,513.36c3.27,2.46,5.74,7.86,10.2,11.89l6.35,5.25c6.77,5.23,12.27,9.36,20.66,12.93,45.06,19.18,88.71,5.89,124.57-25.47l.62-.54.63-.53L484,503.09c8.29-7.89,1.89-2.76,12.78-13.95,5.39-5.54,7-9.93,10.82-13.6L520,462.32c9-7.72,8.22-8.15,18.64-15,6.39-4.2,3.15-2.55,10.33-5.88,9.82-4.56,19.87-8.47,33.55-8.05,7.25.22,8.7,2.07,14.26,3.17l.64.11.64-.11c5.57-1.1,7-2.95,14.26-3.17,13.68-.42,23.74,3.49,33.55,8.05,7.17,3.33,3.94,1.68,10.33,5.88,10.43,6.85,9.67,7.28,18.64,15l12.33,13.23c3.84,3.67,5.43,8.06,10.82,13.6,10.89,11.19,4.49,6.06,12.78,13.95l14.07,13.8.63.53.62.54c35.86,31.36,79.51,44.65,124.57,25.47,8.39-3.57,13.89-7.71,20.66-12.93l6.35-5.25c4.46-4,6.92-9.43,10.2-11.89l9.78-15.6c.05-.13.17-.46.23-.59l7.35-18.92c.33-1.19.88-2.49,1.57-4.26l3.4-12.49c.34-3,0-1.53,0-2.59-.34-20.92,3.35-15.14-.41-43.17-1.91-14.21-6.33-25.21-11.07-36.86-4.17-10.24-14.2-29.39-22-37.42a36.13,36.13,0,0,1-2.88-2.93c-3-3.82-3.49-5-7-8.1l-13.7-13a171.55,171.55,0,0,0-28-19.53l-19.26-9.66c-4.22-2,.82-1.2-5.23-1.71,3.34,5.13,11.11,9.61,16.18,14l.62.54c4.45,3.9,9.29,8.19,12.9,12.65,3,3.66,7,6.71,9.53,10.23l3.93,6.55c.15.19.39.44.54.62,8.57,10.16,15.47,22.72,20.92,35,13.13,29.58,13.21,76.79-4.74,101.59-1.42,2-2.33,2.88-4.1,5.21-17.72,23.42-62.58,16.57-83.48,8.86s-37.43-20.11-52.26-34.65l-.6-.57-3.81-3.15-35.65-32.84-16.81-12.18c-16.7-11.13-41.33-17-59.46-8.4a13.72,13.72,0,0,1-13.85,0c-18.13-8.64-42.76-2.73-59.46,8.4l-16.81,12.18-35.65,32.84-3.81,3.15-.6.57c-14.83,14.53-31.46,27-52.26,34.65s-65.75,14.56-83.48-8.86c-1.76-2.33-2.68-3.25-4.1-5.21-18-24.81-17.87-72-4.74-101.59,5.45-12.28,12.35-24.84,20.92-35,.15-.18.39-.43.54-.62l3.93-6.55c2.52-3.51,6.56-6.56,9.53-10.23,3.61-4.46,8.45-8.75,12.9-12.65l.62-.54c5.07-4.39,12.84-8.87,16.18-14-6,.51-1-.33-5.23,1.71l-19.26,9.66a171.56,171.56,0,0,0-28,19.53l-13.7,13c-3.53,3.1-4,4.27-7,8.1a36.11,36.11,0,0,1-2.88,2.93c-7.8,8-17.83,27.18-22,37.42-4.74,11.64-9.16,22.64-11.07,36.86-3.76,28-.08,22.26-.41,43.17,0,1.06-.37-.4,0,2.59L288,474c.69,1.78,1.24,3.07,1.57,4.26l7.35,18.92c.06.14.18.46.23.59ZM520.47,483c15.15-1.84,27.09-3,40.5,6.48.2.14.46.36.66.5s.45.37.64.52l9.77,10c9.59,12.15,11,29.66,7,44.61-1.9,7-2.61,7.94-5.77,14.08l24.12-3.53,24.12,3.53c-3.16-6.14-3.87-7.07-5.77-14.08-4.06-14.95-2.6-32.46,7-44.61l9.77-10c.19-.15.44-.38.64-.52s.46-.36.66-.5c13.41-9.47,25.35-8.32,40.5-6.48-8.17-12.81-34.68-24.91-48.19-24.91-6,0-28.7-1.45-28.7,5.88,0-7.33-22.73-5.88-28.71-5.88C555.15,458.12,528.64,470.21,520.47,483Zm165.86,26.37c-2.83,7.26.44,7.07-8.44,11.87-5.42,2.93-11,2.47-16.85,3-6.14,13.53-5.28,18.44-5.76,33.67C650.13,533.19,653.09,500.32,686.33,509.39Zm-177.92,0c2.83,7.26-.44,7.07,8.44,11.87,5.42,2.93,11,2.47,16.85,3,6.14,13.53,5.28,18.44,5.76,33.67C544.61,533.19,541.65,500.32,508.41,509.39ZM653.62,578c2.94,5.72,4.95,12.89,2.07,20.93-2.78,7.76-6.57,7.28-17,7.28-2.45-3.75-4.27-5.59-3.4-12.78.79-6.52,4.27-7.44,4.47-12,.36-8.08-10.12-13-18.44-13.87-7.72-.81-23.45.78-29.36,2.58-7,2.13-12,3.58-16.41,7.88-2.31,2.25-1.88,1.6-3.47,4.69,8.6,0,13.56,5,14.74,12,1.83,10.92-2.63,14.82-10.39,16-20.3,3-21.18-18-18.11-31.51-7.23,4.93-13,21.28-7.23,34.44,5.86,13.4.85,7.52-1.56,17.72-2.11,9,1.49,13.45,5.34,17.19,5.15-.12,9.58-2.55,12.68-4.65a27.59,27.59,0,0,0,2.65-2c17.49-14.1,45.89-15.17,65.68-8.12a102.11,102.11,0,0,1,11.75,5.6c4.9,3,4,4.46,11.72,4.46,2.94-4.49,5.8-7.14,2.74-13.3-1.34-2.7-6.83-9.18-9.63-10.22v-5.87c8.57-2.34,15.79-16.39,8.31-29.67C658.49,580.69,658.56,579.17,653.62,578Zm-36.74,87c3.81,0,13.17-3,16.43-4.34,19.77-8.39,7-15.79-4.25-17.54-30.77-4.76-44.2,9.52-51.22,10.12v2.36C588.05,658,587.26,665,616.88,665Zm-10.8,131.51c2.23-10,1.32-12.11,8.88-25,5.19-8.84,3.46-7.18,10.57-16.21l3.17-3.81c16.12-18.23,20.68-19,34.8-32.54l18.38-17.61.58-.58c.25-.26,1.08-1,1.76-1.72a44.22,44.22,0,0,0,3.43-4.71l7.55-9.9c6.36-10.33,11.23-24,11.23-37.87l3,12.25c.71,4.82,1.63,9.14,1.63,13.61,0,7.67-2.55,21.56-4.42,27.21-7,21.06-10.55,22.88-19.85,34.92-6.63,8.58-20.24,18.21-29.32,24-12.31,7.92-34.5,22.78-43,33.53-5.12,6.47-4.44,5.7-8.35,12.61l-.81,1.52c-2,3.23.11,1.35-3.3,3.68C602.59,802.16,605,801.47,606.08,796.49Zm-1.15-57.16c3.26-6.15-.68-8.47,15-26.93l27.92-25.48c4.52-3.61,5.12-4.41,8.55-8.88,3.85-5,2.25-1.91,5.58-8.39l.4-.76,2-3.81c6.81-13,1.7-9.88,6.43-13.41,0,17.06,0,25-5.7,36.48-7.31,14.62-22.9,27.24-37,35-4.4,2.43-6.27,4.72-11.27,8.44-11.24,8.36-9.18,11.34-14.94,15.27C602.39,741.55,603.06,742.86,604.93,739.33Zm-15.12,0c-3.26-6.15.68-8.47-15-26.93l-27.92-25.48c-4.52-3.61-5.12-4.41-8.55-8.88-3.85-5-2.25-1.91-5.58-8.39l-.4-.76-2-3.81c-6.81-13-1.7-9.88-6.43-13.41,0,17.06,0,25,5.7,36.48,7.31,14.62,22.9,27.24,37,35,4.4,2.43,6.27,4.72,11.27,8.44,11.24,8.36,9.18,11.34,14.94,15.27C592.35,741.55,591.68,742.86,589.81,739.33Zm-1.15,57.16c-2.23-10-1.32-12.11-8.88-25-5.19-8.84-3.46-7.18-10.57-16.21L566,751.48c-16.12-18.23-20.68-19-34.8-32.54l-18.38-17.61-.58-.58c-.25-.26-1.08-1-1.76-1.72a44.2,44.2,0,0,1-3.43-4.71l-7.55-9.9c-6.36-10.33-11.23-24-11.23-37.87l-3,12.25c-.71,4.82-1.63,9.14-1.63,13.61,0,7.67,2.55,21.56,4.42,27.21,7,21.06,10.55,22.88,19.85,34.92,6.63,8.58,20.24,18.21,29.32,24,12.31,7.92,34.5,22.78,43,33.53,5.12,6.47,4.44,5.7,8.35,12.61l.81,1.52c2,3.23-.11,1.35,3.3,3.68C592.15,802.16,589.78,801.47,588.66,796.49ZM618,737.84l-1.35.19,1.35,1ZM365.91,666c14.25-6.63,24-14,41-19.3,19.53-6.09,104.9,5.57,95.61-84.63C491.66,597.57,476,594.86,436,597.71c4.71-31.34,48.09-28.79,62.77-60.31-56.9,36.69-58.2,17.65-95,38.33C374.45,592.2,361.33,620.28,365.91,666ZM597.37,102.27c-127.27,0-216.53,7.27-338.22-33.9L166.53,190.2s80.13,105.11,47.87,227.91-88.43,362,6.77,455.29C293.36,944.1,418.39,1011,508.82,1059.12c43.84,23.33,78.07,54.62,88.55,65.09,10.47-10.47,44.7-41.76,88.54-65.09,90.44-48.11,215.47-115,287.65-185.72,95.21-93.26,39-332.49,6.77-455.29s47.87-227.91,47.87-227.91L935.59,68.37C813.9,109.55,724.64,102.27,597.37,102.27Z"/></g></svg>