<svg xmlns="http://www.w3.org/2000/svg" viewBox="0 0 1200 1200"><defs><style>.cls-1{fill:#c00;}.cls-1,.cls-2,.cls-3{fill-rule:evenodd;}.cls-2{fill:#fff;}.cls-2,.cls-3{stroke:#fff;stroke-miterlimit:10;}.cls-3{fill:none;}</style></defs><title>SABIE FC - EAGLES 3 team colour 1</title><g id="SABIE_FC_-_EAGLES_3_team_colour_1" data-name="SABIE FC - EAGLES 3 team colour 1"><path class="cls-1" d="M265.57,87,188.29,188.61c12.27,18.79,23.25,41.85,30.68,61.2,21,54.61,27.41,113.71,12.42,170.76C203.23,527.78,143.82,771,233.47,858.84c40.54,39.71,92.68,74,141.15,103.34,46.55,28.15,94.45,53.88,142.46,79.43a419.22,419.22,0,0,1,80.29,56.4,419.24,419.24,0,0,1,80.29-56.4c48-25.54,95.9-51.28,142.46-79.43,48.47-29.3,100.61-63.62,141.15-103.34,89.65-87.82,30.24-331.06,2.07-438.27-15-57.06-8.57-116.16,12.43-170.77,7.43-19.34,18.41-42.4,30.68-61.19L929.17,87c-50.44,16-100.34,25.24-153.52,28.94-59.12,4.11-119,1.94-178.28,1.94S478.21,120,419.09,115.91C365.91,112.21,316,103,265.57,87M669.76,481.2l7.07-3.55c27.08,19.37,5.72-7.78,32-19.91a49.43,49.43,0,0,1,.32,22.19c-1.46,6.21-4.74,12.77-10.65,15.81a14.88,14.88,0,0,1-1.87.81,14.5,14.5,0,0,1-3.7.78c-6.13.47-11.89-2.9-16.16-7A41.71,41.71,0,0,1,669.76,481.2ZM525,481.2l-7.07-3.55c-27.08,19.37-5.72-7.78-32-19.91a49.44,49.44,0,0,0-.32,22.19c1.46,6.21,4.74,12.77,10.65,15.81a14.89,14.89,0,0,0,1.87.81,14.51,14.51,0,0,0,3.7.78c6.13.47,11.89-2.9,16.16-7A41.72,41.72,0,0,0,525,481.2Zm72.4-29.25c-62.69-.95-25.81,99.34-86,82.44h-7.78c-1.71.18-3.53.06-4.11,3.17l-.09.46,0,.11v0l0,.12h0l0,.12h0l0,.11v0l0,.1v0l0,.09v.35l0,.08v0l0,.09v0l0,.1h0l0,.11h0l0,.1v0l0,.09v0l0,.08v.41l0,.08v0l0,.09h0l0,.09h0l0,.09h0l0,.08v.57h0l0,.07h0l0,.07h0v.07h0v.43h0v.05h0v.05h0v0h0v0h0v.19h0v0h0v0h0v0h0v0h0v0h0v0h0v0h0c4.88,4.12,7.55,6.55,9.38,8.14l.54.45v0c4.31,3.71,3.84,2.45,22.16,11.41,64.82,31.69,54.74,89.27,63.49,93.91a6.15,6.15,0,0,0,6.77,0c8.75-4.64-1.33-62.22,63.49-93.91,18.32-9,17.85-7.7,22.16-11.41v0l.54-.45c1.82-1.59,4.5-4,9.38-8.14h0v0h0v0h0v0h0v0h0v0h0v0h0v0h0V542h0v0h0v0h0v-.05h0v-.05h0v-.43h0v-.07h0l0-.07h0l0-.07h0v-.57l0-.08h0l0-.09h0l0-.09h0l0-.09v0l0-.08v-.41l0-.08v0l0-.09v0l0-.1h0l0-.11h0l0-.1v0l0-.09v0l0-.08v-.35l0-.09v0l0-.1v0l0-.11h0l0-.12h0l0-.12v0l0-.11-.09-.46c-.58-3.12-2.4-3-4.11-3.17h-7.77C623.17,551.28,660.05,451,597.36,451.95Zm0,236.91c-10.7-9.7-11.87-28-12.7-45.6-11.8,12.43-12.86,12.52-17.13,34.1-2.93,14.8-7.11,31.19-8.4,46.22-2.29,5.5-2.18,2.9-3.64,9.87-15,8.07-24.28,22.71-33.38,39.83-2.76-41.76,2.21-44,11-75.85-8.17,5.75-22.62,23.41-30.37,25.47-3.55-25.63-4.86-34.09-1.84-59.65-15.77,18.74-43.15,52.39-61.2,64.27,7.79-19.24,4.55-28.5,17.43-47.94,11.29-17,19.68-21.91,34.25-33.69-11.81,1.77-31.31,21.11-41.3,29.07-13.61,10.85-28.24,18.49-40.26,28.15l15.85-42.32L386.95,674l8.52-15.78c3.32-2.32,1.83-1,4.74-4,.41-.43.9-1,1.29-1.42s.78-1,1.12-1.46c4.48-6,20.86-46.3,30.74-51-8.16-.44-14.12.72-22,2.09-22.26,3.85-16.56,5.54-19.85.52,8.51-7,22.08-17.07,34.4-17.67,22.62-5.19,38.43-4.44,66.16-25.55-13.83-8.21-50.33-13.56-69.86-14.45h.17l.52-.25h.5l.3-.14h.09l.13-.06h.29l0,0h.37l.15-.07h.11L425,544l0,0,0,0,0,0,0,0,0,0,0,0,0,0,0,0,0,0,.23-.1,0,0,0,0,0,0,0,0,0,0,0,0,0,0,0,0,0,0,0,0,0,0,0,0,0,0,0,0,0,0,.26-.11,0,0,0,0,0,0,0,0,0,0,0,0,0,0,0,0,0,0,0,0,0,0,0,0,0,0,0,0,.26-.11,0,0,0,0,0,0,0,0,0,0,0,0,.28-.12h.15l.12,0h.2l.07,0h0l.07,0h.29l.07,0h.1l.21-.08h.35l.2-.08h.25l.15-.06H430l.08,0h.18l.11,0h.05l.11,0h0l.05,0h.19l.16-.06h.25l.2-.07h.17l.08,0h.23l.4-.14h.18l.24-.08h.33l.21-.07h.37l.21-.07h.2l.27-.09h0l.06,0h.14l.14,0h.17l.27-.09h.39l.38-.12h.23l.15,0h.36l.28-.08h.29l.2-.06h.24l.24-.07h.22l.15,0h.1l.28-.07h.15l.12,0h.2l.39-.1h.07l.23-.06h.31l.32-.08h.19l.23-.05h.06l.09,0h.62l.09,0h.06l.31-.06h.14l.1,0h.2l.35-.07H443l.17,0h.4l.19,0H444l.24,0h.67l.15,0h.07l.27,0h.12l.21,0h.47l.29,0h.7l.35,0h.81l.29,0h1l.29,0h.46l.33,0H451l.32,0h.16l.4,0,.52,0h.08l.41,0h0l.64,0h3.58l.57,0h.14l.43,0,.41,0h0l.71,0h0l.43,0h0l.48,0h.07l.23,0h.9l.28,0h.92l.26,0h.07l.51,0h.08l.27,0H465l.6.07.66.08h0c-23.29-11.35-41.32-6.62-31.77-9.43s47.59-2.72,47.59-2.72h0l-.58-.22-.58-.22,0,0-.08,0-.08,0-.08,0-.08,0-.08,0-.08,0-.06,0h0l-.08,0-.08,0-.08,0-.08,0-.08,0-.08,0-.08,0h0l-.07,0-.08,0-.08,0-.08,0-.08,0-.08,0-.08,0h0l0,0-.08,0-.08,0-.08,0-.08,0-.08,0-.08,0-.06,0h0l-.08,0-.08,0-.08,0-.08,0-.08,0-.08,0-.08,0h0l-.07,0-.08,0-.08,0-.08,0-.08,0-.08,0-.08,0h0l-.13-.05-.08,0-.08,0-.08,0-.08,0-.08,0-.06,0h0l-.08,0-.08,0-.08,0-.24-.1-.08,0h0l-.07,0-.08,0-.08,0-.08,0-.08,0-.08,0-.11,0h-.22l0,0h-.18l0,0h0l-.07,0h-.07l0,0h-.15l0,0h-.19l0,0h-.15l0,0h-.11l0,0h-.15l0,0h-.15l-.08,0h-.08l0,0,0,0h-.08l0,0h-.08l0,0,0,0h0l0,0h0l-.05,0-.05,0-.05,0-.05,0-.05,0-.05,0-.05,0-.05,0-.05,0-.05,0-.05,0h-.05l-.05,0-.05,0-.05,0-.05,0-.05,0-.05,0-.05,0-.05,0-.05,0-.05,0-.06,0,0,0-.05,0-.05,0-.05,0-.05,0-.05,0-.05,0-.05,0-.05,0-.05,0-.05,0,0,0h0l-.05,0-.05,0-.05,0-.05,0-.05,0-.05,0-.06,0-.05,0-.05,0-.06,0-.06,0h-.06l-.06,0-.06,0-.11,0-.06,0-.06,0-.06,0-.06,0-.06,0-.06,0-.06,0h0l-.05,0-.06,0-.06,0-.06,0-.06,0-.06,0-.11,0h-.19l-.05,0H468l-.19-.07-.71-.26-.15-.06-.14,0-.71-.25-.15-.05-.15-.05h0l-.7-.24h0l-.19-.06-1-.33h-.68l0,0h0l-.07,0h-.25l-.06,0,0,0-.89-.29-.15,0-.16-.05h-.22l-.31-.1h-.64l-.06,0h-.81l-.24-.07-.9-.27-.11,0-.1,0h0l-.12,0-.1,0-.9-.27h0l-.3-.09h-.05l-.89-.26-.11,0-.13,0h-.66l-.08,0h-.48l-.35-.1-.06,0-.88-.24-.34-.09h-.2l-.1,0H452l-.08,0h0l-.28-.07h0l-.14,0H451l-.08,0h-.06l-.08,0h-.44l-.15,0H450l-.36-.09-1.14-.29h0l-.23-.06h-.35l-.09,0h0l-.55-.13h-.4l-.39-.09-1-.25h0l-.54-.13h-.51l-.07,0h0l-.68-.16h-.36l-.19,0h0l-.42-.09h-.37l-.07,0h-.27l-.38-.08h-.06l-1.36-.3-.27-.06h-.56l-.1,0H439l-.18,0h-.05l-.21,0h-.49l-.45-.09-1.27-.26-.6-.12-1.37-.28-.35-.07h0l-.2,0h-.28l-.1,0h-.15l-.08,0h-1l-.42-.08-1.85-.35h-.78l-.19,0h0l-.12,0h0l-.12,0h-.78l-.6-.11-1.46-.27-.09,0-.51-.09h-.82l-1-.18h-.27c9.41-11.27,30.32-14.52,46.07-14.25-6.23-7.29-27.14-10.81-32.27-17.88,10.77-7.29,24.2-5.9,34.72-9.74L447.24,450.4c10.71-7.91,29.66-6.23,43-4.88-7.8-13.16-15-16.51-22.24-28.76,13.31.31,27.12.87,37.29,6.33-7-17.21-23.86-28.44-30.84-43.16l23.17,2.44C491,374.83,482.48,366,478.4,357.09L501.72,360l-9.12-13.87a142.16,142.16,0,0,1,56.56,19.06l-5.5-17.29c12.09,3.54,10.87,4.71,19.1,9.62L560,318.49c10.75,3,19.48,9.77,27.38,15.31,2.69-3.8,4.5-5.34,7.1-9.45l2.91-.07,2.91.07c2.6,4.1,4.4,5.64,7.1,9.45,7.9-5.54,16.62-12.26,27.38-15.31l-2.8,39.05c8.24-4.9,7-6.07,19.1-9.62l-5.5,17.29a142.17,142.17,0,0,1,56.56-19.06L693,360l23.33-2.94c-4.08,8.93-12.55,17.74-19.16,25.27l23.17-2.44c-7,14.73-23.81,26-30.84,43.16,10.17-5.46,24-6,37.29-6.33-7.25,12.26-14.44,15.61-22.24,28.76,13.3-1.35,32.24-3,43,4.88l-24.38,16.54c10.52,3.84,23.95,2.45,34.72,9.74-5.13,7.07-26,10.59-32.27,17.88,15.74-.27,36.66,3,46.07,14.25h-.27l-1,.18h-.82l-.51.09-.09,0-1.46.27-.6.11h-.78l-.12,0h0l-.12,0h0l-.19,0h-.78l-1.85.35-.42.08h-1l-.08,0h-.15l-.1,0h-.28l-.2,0h0l-.35.07-1.37.28-.6.12-1.27.26-.45.09h-.49l-.21,0h-.05l-.18,0h-.05l-.1,0H755l-.27.06-1.36.3h-.06l-.38.08h-.27l-.07,0h-.37l-.42.09h0l-.19,0h-.36l-.68.16h0l-.07,0h-.51l-.54.13h0l-1,.25-.39.09h-.4l-.55.13h0l-.09,0h-.35l-.23.06h0l-1.14.29-.36.09h-.21l-.15,0h-.44l-.08,0h-.06l-.08,0h-.43l-.14,0h0l-.28.07h0l-.08,0h-.32l-.1,0h-.2l-.34.09-.88.24-.06,0-.35.1H740l-.08,0h-.66l-.13,0-.11,0-.89.26h-.05l-.3.09h0l-.9.27-.1,0-.12,0h0l-.1,0-.11,0-.9.27-.24.07h-.81l-.06,0h-.64l-.31.1h-.22l-.16.05-.15,0-.89.29,0,0-.06,0h-.25l-.07,0h0l-.05,0h-.68l-1,.33-.19.06h0l-.7.24h0l-.15.05-.15.05-.71.25-.14,0-.15.06-.71.26-.19.07h-1.52l-.05,0H725l-.11,0-.06,0-.06,0-.06,0-.06,0-.06,0-.05,0h0l-.06,0-.06,0-.06,0-.06,0-.06,0-.06,0-.06,0-.11,0-.06,0-.06,0h-.06l-.06,0-.06,0-.05,0-.05,0-.06,0-.05,0-.06,0-.05,0-.05,0-.05,0-.05,0h0l0,0-.05,0-.05,0-.05,0-.05,0-.05,0-.05,0-.05,0-.05,0-.05,0-.05,0,0,0-.06,0-.05,0-.05,0-.05,0-.05,0-.05,0-.05,0-.05,0-.05,0-.05,0-.05,0H722l-.05,0-.05,0-.05,0-.05,0-.05,0-.05,0-.05,0-.05,0-.05,0-.05,0-.05,0h0l0,0h0l0,0,0,0h-.08l0,0H721l0,0,0,0h-.08l-.08,0h-.15l0,0h-.15l0,0h-.11l0,0h-.15l0,0h-.19l0,0h-.15l0,0h-.07l-.07,0h0l0,0h-.18l0,0H719l-.11,0-.08,0-.08,0-.08,0-.08,0-.08,0-.07,0h0l-.08,0-.24.1-.08,0-.08,0-.08,0h0l-.06,0-.08,0-.08,0-.08,0-.08,0-.08,0-.13.05h0l-.08,0-.08,0-.08,0-.08,0-.08,0-.08,0-.07,0h0l-.08,0-.08,0-.08,0-.08,0-.08,0-.08,0-.08,0h0l-.06,0-.08,0-.08,0-.08,0-.08,0-.08,0-.08,0,0,0h0l-.08,0-.08,0-.08,0-.08,0-.08,0-.08,0-.07,0h0l-.08,0-.08,0-.08,0-.08,0-.08,0-.08,0-.08,0h0l-.06,0-.08,0-.08,0-.08,0-.08,0-.08,0-.08,0,0,0-.58.22-.58.22h0s38-.09,47.59,2.72-8.48-1.92-31.77,9.43h0l.66-.08.6-.07h1.09l.27,0h.08l.51,0h.07l.26,0h.92l.28,0h.9l.23,0h.07l.48,0h0l.43,0h0l.71,0h0l.41,0,.43,0H737l.57,0h3.58l.64,0h0l.41,0h.08l.52,0,.4,0h.16l.32,0H744l.33,0h.46l.29,0h1l.29,0h.81l.35,0h.7l.29,0H749l.21,0h.12l.27,0h.07l.15,0h.67l.24,0H751l.19,0h.4l.17,0h.11l.35.07h.2l.1,0h.14l.31.06H753l.08,0h.62l.09,0h.06l.23.05h.19l.32.08h.31l.23.06h.07l.39.1h.2l.12,0h.15l.28.07h.1l.15,0h.22l.24.07h.24l.2.06h.29l.28.08h.36l.15,0h.23l.38.12h.39l.27.09H760l.14,0h.14l.06,0h0l.27.09h.2l.21.07h.37l.21.07H762l.24.08h.18l.4.14H763l.08,0h.17l.2.07h.24l.16.06h.19l.05,0h0l.11,0h.05l.11,0h.18l.08,0h.12l.15.06h.25l.2.08h.35l.21.08h.1l.07,0h.29l.07,0h0l.07,0h.2l.12,0h.15l.28.12,0,0,0,0,0,0,0,0,0,0,0,0,.26.11,0,0,0,0,0,0,0,0,0,0,0,0,0,0,0,0,0,0,0,0,0,0,0,0,0,0,0,0,.26.11,0,0,0,0,0,0,0,0,0,0,0,0,0,0,0,0,0,0,0,0,0,0,0,0,0,0,0,0,0,0,.23.1,0,0,0,0,0,0,0,0,0,0,0,0,0,0,0,0,0,0,.14.06H770l.15.07h.37l0,0h.29l.13.06H771l.3.14h.5l.52.25h.17c-19.53.9-56,6.24-69.86,14.45,27.74,21.11,43.55,20.36,66.16,25.55,12.32.6,25.89,10.71,34.4,17.67-3.29,5,2.41,3.33-19.85-.52-7.89-1.36-13.85-2.52-22-2.09,9.89,4.66,26.26,44.92,30.74,51,.34.45.75,1,1.12,1.46s.88,1,1.29,1.42c2.91,3.06,1.42,1.73,4.74,4L807.78,674,769,660.79l15.85,42.32c-12-9.66-26.65-17.3-40.26-28.15-10-8-29.49-27.3-41.3-29.07,14.57,11.77,23,16.65,34.25,33.69,12.88,19.44,9.64,28.7,17.43,47.94-18-11.88-45.43-45.53-61.2-64.27,3,25.55,1.71,34-1.84,59.65-7.76-2.06-22.21-19.72-30.37-25.47,8.79,31.87,13.77,34.1,11,75.85-9.11-17.12-18.42-31.75-33.38-39.83-1.46-7-1.35-4.37-3.64-9.87-1.3-15-5.48-31.42-8.4-46.22-4.27-21.58-5.33-21.67-17.13-34.1C609.24,660.82,608.06,679.15,597.36,688.85Zm-67-204.93-4.48-2.25c-7.25,12.51-18.46,19.3-28.2,15.88-11.78-4.14-17.2-21.74-12.83-40.25-1-.43-2-.83-3.17-1.21C468.22,505,518.11,517.63,530.4,483.92ZM602,610.53c1.18-2.64,4.58-9.27,11.31-19.93,5.57-8.82,13.54-19.75,22.91-28.24a73.74,73.74,0,0,1,31.11-15.93c8-1.72,13.51-2.82,17.28-2.72h0c9.7-.87,2.61-2.22,2.61-2.22-3.36-.55-16.22,1.13-19.6,2.06-36.65,10.07-50.09,34-67.6,66.59C600,610.13,597.93,616.93,602,610.53Zm-9.23,0c-1.18-2.64-4.58-9.27-11.31-19.93-5.57-8.82-13.54-19.75-22.91-28.24a73.74,73.74,0,0,0-31.11-15.93c-8-1.72-13.51-2.82-17.28-2.72h0c-9.7-.87-2.61-2.22-2.61-2.22,3.36-.55,16.22,1.13,19.6,2.06,36.65,10.07,50.09,34,67.6,66.59C594.72,610.13,596.8,616.93,592.75,610.53ZM582,493.92c-2-.48-5.5,2.54-7.86,6.76s-2.65,8-.67,8.5,5.5-2.54,7.86-6.76S584,494.4,582,493.92Zm30.65,0c2-.48,5.5,2.54,7.86,6.76s2.65,8,.67,8.5-5.5-2.54-7.86-6.76S610.7,494.4,612.69,493.92Zm-50.13-177a64.72,64.72,0,0,0-2.45-15.43c-.5-1.85-1-3.68-1.51-5.53,11.18,5.37,23.2,20.88,32.85,28.83-1.46,2-3.06,3.92-4.59,5.9C579.11,325.25,571.66,319.93,562.56,316.94Zm-17.11,29.18c-.41-10.35-3.93-16.55-9.66-24.81a53.89,53.89,0,0,1-6.6-11.51,44.55,44.55,0,0,1,10.75,3.67c6.38,2.92,11.16,5,17.87,5.8l2.43,34c-1.2-.81-2.38-1.64-3.62-2.43A42.81,42.81,0,0,0,545.45,346.12ZM492,343.84c-.72-2.73-1.67-5.62-3.49-7.67-.64-.72-1.36-1.38-2-2.1l0,0c10.1.67,19.71,3.52,29.29,6.9,4.84,1.7,9.65,3.54,14.53,5.1a55.26,55.26,0,0,0,11.29,2.57l3.76,11.84a145,145,0,0,0-52.45-16.51Zm-15.28,10.79a14.05,14.05,0,0,0-2.71-6c-.34-.39-.71-.75-1.08-1.12,1.09.22,2.18.41,3.27.56a104.73,104.73,0,0,0,14.12.57h1.24l5.66,8.61Zm-2.59,23c-.1-.87-.19-1.75-.26-2.62-.07-1,.09-2.13-.9-2.91a2.17,2.17,0,0,0-2.25-.29c-.31-.31-.62-.67-.78-.85a30,30,0,0,0-5-4.27c-2-1.49-4.08-3-6-4.57-.49-.41-1-.84-1.47-1.29H477.8c3.65,6.65,9.1,12.89,14.27,18.68Zm-6,36.88a18.55,18.55,0,0,0-.82-1.94c-3.87-7.87-13.19-12.89-20.61-16.89-4.87-2.62-11.89-6.09-16.45-10.4,5.48-.15,10.9-.54,16.4-1,8.61-.75,16.95-1.37,25.61-1.37h1.16c3.79,7,9.51,13.19,14.71,19.13,4.55,5.19,9.1,10.55,12.48,16.59C490.5,415.09,478.43,414.77,468.13,414.53Zm35.72,310.35c5.52-1.82,13.17-9.5,17.17-13.39,2.43-2.37,4.84-4.76,7.31-7.08l.63-.59c-1.05,3.56-2.15,7.1-3.26,10.65-1.41,4.5-2.82,9-3.92,13.61-3.55,14.85-2.9,30.22-1.9,45.33l.52,7.82,3.68-6.92c7.1-13.35,15.33-27.49,28-36.2-6.1,24.27-19.53,53.51-37.59,70.75.46-4,1-8.06,1.35-12.1a114.06,114.06,0,0,0-.92-30.22c-.41-2.52-.6-5.25-.87-7.81-.44-4.16-.94-8.32-1.6-12.45a73.91,73.91,0,0,0-3.38-14.14C508.11,729.54,506.5,726.23,503.85,724.88Zm-62.74,4.37a118.76,118.76,0,0,0,16.52-13.93c6.28-6.11,12.26-12.58,18.09-19.12,7.57-8.5,14.87-17.21,22.18-25.92a160.91,160.91,0,0,0-.78,22.57c.45,10.1,2,20.32,3.41,30.33l.16,1.15c-2.94.49-6.24,3.62-8.12,5.46a128.53,128.53,0,0,0-10.21,11.62c-3,3.78-5.93,7.65-8.76,11.57-1.72,2.39-3.53,4.88-5.09,7.38-4.58,7.34-9.06,14.15-12.69,22.06-1.86,4-3.29,8.15-5,12.23-.44,1-.9,2.06-1.4,3ZM408.56,707l2.67-2.14c6.12-4.92,12.78-9.21,19.35-13.5,7.14-4.65,14.23-9.33,20.9-14.64,3.84-3.06,9.57-8.27,15.74-13.42a103.4,103.4,0,0,0-11.94,15.06,75.27,75.27,0,0,0-11.21,25.9c-.84,3.48-1.57,7-2.48,10.46a97.18,97.18,0,0,1-3.95,12l-.85,2.11c-10.82,2.77-20.12,12.18-29.35,18a118.08,118.08,0,0,1-25.27,12.19c1.52-2.15,3.1-4.25,4.66-6.35,3.25-4.38,6.48-8.75,9.44-13.33C402.63,729.4,407.59,718.81,408.56,707Zm-22.22-30.43,35.59-12.14-14.7,39.25-1,.09c-9.07.78-19.3,5.35-27.74,8.73-8,3.22-16.32,6.39-24.88,8,.87-.76,1.77-1.5,2.71-2.25,2.21-1.74,4.43-3.4,6.54-5.26a57.18,57.18,0,0,0,7.44-8c3.28-4.25,7.17-8,10.28-12.39a29.48,29.48,0,0,0,5.74-15.34Zm31-129.28,4.74.22a270.34,270.34,0,0,1,32.32,3.66,210,210,0,0,1,21.11,4.57A81,81,0,0,1,487.9,560a114.25,114.25,0,0,1-21.37,12.57,103.63,103.63,0,0,1-20.4,6.31c-6.83,1.45-13.72,2.57-20.53,4.13-12.61.71-26,10.43-35.51,18.16l-1.56,1.27,1.1,1.68c.74,1.14,1.21,2.84,2.29,3.59,1.58,1.09,4,.2,5.72-.22,4.67-1.15,9.34-2.09,14.08-2.91a123.91,123.91,0,0,1,15.65-2.08c-5.28,6-10.56,16.25-13.08,21.11-2.84,5.47-5.53,11-8.25,16.54-1,2.08-2.06,4.17-3.15,6.23a28.94,28.94,0,0,1-2.07,3.54c-.33.45-.67.92-1,1.35s-.8.89-1.2,1.32a28.24,28.24,0,0,1-2,2.13c-.66.54-1.65,1.12-2.37,1.62l-.43.3-9.82,18.18c-13,.47-28,11.19-39.29,20.17l10.23-30.45,6.92-11.35.08-.32C364.2,644,369,637.56,374,630.06c5.7-8.67,13.26-12.14,14.6-23.54l.28-2.41L386.4,604a35.67,35.67,0,0,0-16.92,3.08c-2.06.9-3.95,1.78-5.91,2.56,4.2-9,13.57-22.88,19.46-26.49l.72-.44.25-.81c2.31-7.69,9.84-13.39,15.55-18.62a60.36,60.36,0,0,1,8.52-6.52,36.08,36.08,0,0,0,5.92-4.17A14.29,14.29,0,0,0,417.36,547.28Zm2.76-36.72,2.6.45,2.1.37.51.09,2.15.39,2,.36h.07l1.85.35.42.08,1.64.32.43.09,1.48.3.6.12,1.73.36,1.63.35,1.68.37.38.08,1.56.35,1.43.33.53.13,1.45.34,1.39.34.23.06,1.16.29.36.09,1.32.34,1.28.34.33.09.94.25.35.1,1.19.33.12,0,1,.3.29.09,1.21.36,1.25.38,2,.63.15,0,1.13.37c.37.12.73.26,1.11.37l1.09.37,1.05.36.84.3.15.05.9.32,1.74.64.11,0c.5.18,1,.38,1.47.58q-6.75.12-13.48.39c-4.46.18-8.94.41-13.39.82a54.31,54.31,0,0,0-9.8,1.51c-1.64.48-4.51,1-4.19,3.38s3.13,2.14,4.83,2.24c2.42.15,4.81.37,7.21.71a79.14,79.14,0,0,1,10.88,2.35h-.23l-.57,0-.4,0-.81.05-.33,0-.84.07h-.19l-.82.08-.29,0-.85.1-.35,0-.71.09-.33,0-.83.12-.27,0-.94.16-.24,0-.84.16-.17,0-1,.19-.31.06-1,.21-.23.05-.84.2-.23.06-1,.25-.28.07-1,.28-.2.06-.95.28-.15,0-1,.32-.27.09-1,.34-.21.07-.92.32-.24.08-1.1.4-.2.07-1.16.44-.08,0-1.09.43-.21.08-1.11.46-.28.12q-1.22.51-2.43,1.06L424,542l-1.2.55-.3.14-1.21.57-3.08,1.48c.2-.75.37-1.51.53-2.27l.55-2.68H416.5c-4.4,0-8.75.21-13.13.61-3.53.32-7,.77-10.57,1.14-1.82.19-3.64.35-5.45.46,4.83-5.22,9.58-10.51,14.79-15.35a44.68,44.68,0,0,1,9.24-6.85c1.76-.94,4-1.77,5.51-3.05C418.59,515.28,419.53,512.95,420.12,510.56Zm14.78-32.84.2.27c3.35,4.61,12.35,7.87,17.56,10a91.34,91.34,0,0,1,10,4.46c-14.51.64-32.36,4.31-41.25,15l-.8,1c.15-.85.28-1.67.4-2.43l.41-2.58h-22c2.35-1.94,5-3.79,7.1-5.2,3.12-2.14,6.3-4.17,9.45-6.27a58,58,0,0,1,6.53-3.75c1.51-.75,3-1.5,4.4-2.36a21.28,21.28,0,0,1,4.9-2.32c1-.28,1.9-.11,2.7-1.06s.54-2,.47-3.07C434.89,478.8,434.88,478.26,434.9,477.73Zm12.45-24.55,19.12,13c-4.1,1-8.44,1.48-12.49,2.18-6.53,1.13-12.75,2.75-18.32,6.52l-.58.39c0-.34.07-.68.11-1l.28-2.3-2.31-.19c-7.19-.59-14.07-2.77-21.15-4.05l4-2.7c3.06-2,6.22-3.13,9.58-4.55a122.48,122.48,0,0,1,20-6.48l1.73-.4Zm150,241.64c.24,0,3.1-.36,4.4,4.33,2.27.49-.38,51.3,1.07,55.23,8.67,23.51,11.42,38.71,14.48,48.77,6,7.43,7.64-88.51,15.61-83.67-1.64-14-5.21-27.9-7.93-41.67-.89-4.48-1.78-9.12-3.06-13.51a30.54,30.54,0,0,0-3.16-7.58,51.58,51.58,0,0,0-6.74-8.18c-.73,14-5,36.41-14.68,46.29-.24,0-3.1-.36-4.4,4.33-2.27.49.38,51.3-1.07,55.23-8.67,23.51-11.42,38.71-14.48,48.77-6,7.43-7.64-88.51-15.61-83.67,1.64-14,5.21-27.9,7.93-41.67.89-4.48,1.78-9.12,3.06-13.51a30.54,30.54,0,0,1,3.16-7.58,51.56,51.56,0,0,1,6.74-8.18C583.42,662.49,587.65,684.93,597.36,694.81Zm34.81-377.87a64.72,64.72,0,0,1,2.45-15.43c.5-1.85,1-3.68,1.51-5.53-11.18,5.37-23.2,20.88-32.85,28.83,1.46,2,3.06,3.92,4.58,5.9C615.61,325.25,623.06,319.93,632.17,316.94Zm17.11,29.18c.41-10.35,3.93-16.55,9.67-24.81a53.88,53.88,0,0,0,6.6-11.51,44.55,44.55,0,0,0-10.75,3.67c-6.38,2.92-11.16,5-17.87,5.8l-2.43,34c1.2-.81,2.38-1.64,3.62-2.43A42.81,42.81,0,0,1,649.28,346.12Zm53.48-2.28c.72-2.73,1.67-5.62,3.49-7.67.64-.72,1.36-1.38,2-2.1l0,0c-10.1.67-19.71,3.52-29.29,6.9-4.84,1.7-9.65,3.54-14.53,5.1a55.27,55.27,0,0,1-11.29,2.57l-3.76,11.84a145,145,0,0,1,52.45-16.51ZM718,354.63a14.05,14.05,0,0,1,2.71-6c.34-.39.71-.75,1.08-1.12-1.09.22-2.18.41-3.27.56a104.73,104.73,0,0,1-14.12.57h-1.24l-5.66,8.61Zm2.59,23c.1-.87.19-1.75.26-2.62.07-1-.09-2.13.9-2.91a2.17,2.17,0,0,1,2.25-.29c.31-.31.62-.67.78-.85a30,30,0,0,1,5-4.27c2-1.49,4.08-3,6-4.57.49-.41,1-.84,1.47-1.29H716.93c-3.65,6.65-9.1,12.89-14.27,18.68Zm6,36.88a18.65,18.65,0,0,1,.82-1.94c3.87-7.87,13.19-12.89,20.61-16.89,4.87-2.62,11.89-6.09,16.45-10.4-5.48-.15-10.9-.54-16.4-1-8.61-.75-16.95-1.37-25.61-1.37h-1.16c-3.79,7-9.51,13.19-14.71,19.13-4.55,5.19-9.1,10.55-12.48,16.59C704.23,415.09,716.3,414.77,726.6,414.53ZM690.88,724.88c-5.52-1.82-13.17-9.5-17.17-13.39-2.43-2.37-4.84-4.76-7.31-7.08l-.63-.59c1.05,3.56,2.15,7.1,3.26,10.65,1.41,4.5,2.82,9,3.92,13.61,3.55,14.85,2.9,30.22,1.9,45.33l-.52,7.82-3.68-6.92c-7.1-13.35-15.33-27.49-28-36.2,6.1,24.27,19.53,53.51,37.59,70.75-.46-4-1-8.06-1.35-12.1a114,114,0,0,1,.92-30.22c.41-2.52.59-5.25.87-7.81.44-4.16.94-8.32,1.6-12.45a73.93,73.93,0,0,1,3.38-14.14C686.62,729.54,688.23,726.23,690.88,724.88Zm62.74,4.37a118.78,118.78,0,0,1-16.52-13.93c-6.28-6.11-12.26-12.58-18.09-19.12-7.57-8.5-14.87-17.21-22.18-25.92a160.91,160.91,0,0,1,.78,22.57c-.45,10.1-2,20.32-3.41,30.33l-.16,1.15c2.94.49,6.24,3.62,8.12,5.46a128.55,128.55,0,0,1,10.21,11.62c3,3.78,5.93,7.65,8.76,11.57,1.72,2.39,3.53,4.88,5.09,7.38,4.58,7.34,9.06,14.15,12.69,22.06,1.86,4,3.29,8.15,5,12.23.44,1,.9,2.06,1.4,3ZM786.17,707l-2.67-2.14c-6.12-4.92-12.78-9.21-19.35-13.5-7.14-4.65-14.23-9.33-20.9-14.64-3.84-3.06-9.57-8.27-15.74-13.42a103.39,103.39,0,0,1,11.94,15.06,75.27,75.27,0,0,1,11.21,25.9c.84,3.48,1.57,7,2.48,10.46a97.31,97.31,0,0,0,3.95,12l.85,2.11c10.82,2.77,20.12,12.18,29.35,18a118.08,118.08,0,0,0,25.27,12.19c-1.52-2.15-3.1-4.25-4.66-6.35-3.25-4.38-6.48-8.75-9.44-13.33C792.1,729.4,787.14,718.81,786.17,707Zm22.22-30.43-35.59-12.14,14.7,39.25,1,.09c9.07.78,19.3,5.35,27.74,8.73,8,3.22,16.32,6.39,24.88,8-.87-.76-1.77-1.5-2.71-2.25-2.21-1.74-4.43-3.4-6.54-5.26a57.18,57.18,0,0,1-7.44-8c-3.28-4.25-7.17-8-10.28-12.39a29.48,29.48,0,0,1-5.74-15.34Zm-31-129.28-4.74.22a270.32,270.32,0,0,0-32.32,3.66,209.91,209.91,0,0,0-21.11,4.57A80.94,80.94,0,0,0,706.83,560a114.25,114.25,0,0,0,21.37,12.57,103.63,103.63,0,0,0,20.4,6.31c6.83,1.45,13.72,2.57,20.53,4.13,12.61.71,26,10.43,35.51,18.16l1.56,1.27-1.1,1.68c-.74,1.14-1.21,2.84-2.29,3.59-1.58,1.09-4,.2-5.72-.22-4.67-1.15-9.34-2.09-14.08-2.91a123.91,123.91,0,0,0-15.65-2.08c5.28,6,10.56,16.25,13.08,21.11,2.84,5.47,5.53,11,8.25,16.54,1,2.08,2.06,4.17,3.15,6.23A28.93,28.93,0,0,0,793.9,650c.33.45.67.92,1,1.35s.8.89,1.2,1.32a28.31,28.31,0,0,0,2,2.13c.66.54,1.65,1.12,2.37,1.62l.43.3,9.82,18.18c13,.47,28,11.19,39.29,20.17l-10.23-30.45-6.92-11.35-.08-.32c-2.32-8.88-7.13-15.36-12.07-22.86-5.7-8.67-13.26-12.14-14.6-23.54l-.28-2.41,2.43-.08a35.67,35.67,0,0,1,16.92,3.08c2.06.9,3.95,1.78,5.91,2.56-4.2-9-13.57-22.88-19.46-26.49l-.72-.44-.25-.81c-2.31-7.69-9.84-13.39-15.55-18.62a60.4,60.4,0,0,0-8.52-6.52,36.09,36.09,0,0,1-5.92-4.17A14.29,14.29,0,0,1,777.37,547.28Zm-2.76-36.72L772,511l-2.1.37-.5.09-2.15.39-2,.36h-.07l-1.85.35-.42.08-1.64.32-.43.09-1.48.3-.6.12-1.73.36-1.63.35-1.68.37-.38.08-1.56.35-1.43.33-.53.13-1.45.34-1.39.34-.23.06-1.16.29-.36.09-1.32.34-1.28.34-.33.09-.94.25-.35.1-1.19.33-.12,0-1,.3-.29.09-1.21.36-1.25.38-2,.63-.15,0-1.13.37c-.37.12-.73.26-1.11.37l-1.09.37-1.05.36-.84.3-.15.05-.9.32-1.74.64-.11,0c-.5.18-1,.38-1.47.58,4.5.08,9,.21,13.48.39s8.95.41,13.39.82a54.31,54.31,0,0,1,9.8,1.51c1.64.48,4.51,1,4.19,3.38s-3.13,2.14-4.83,2.24c-2.42.15-4.81.37-7.21.71a79.13,79.13,0,0,0-10.88,2.35h.23l.57,0,.4,0,.81.05.33,0,.84.07h.19l.82.08.29,0,.85.1.35,0,.71.09.33,0,.83.12.27,0,.94.16.24,0,.84.16.17,0,1,.19.31.06,1,.21.23.05.84.2.23.06,1,.25.28.07,1,.28.2.06.95.28.15,0,1,.32.27.09,1,.34.21.07.92.32.24.08,1.1.4.2.07,1.16.44.08,0,1.09.43.21.08,1.11.46.28.12q1.22.51,2.43,1.06l.14.06,1.2.55.3.14,1.21.57,3.08,1.48c-.2-.75-.37-1.51-.53-2.27l-.56-2.68h2.74c4.4,0,8.76.21,13.13.61,3.53.32,7,.77,10.57,1.14,1.82.19,3.64.35,5.45.46-4.83-5.22-9.58-10.51-14.79-15.35a44.68,44.68,0,0,0-9.24-6.85c-1.76-.94-4-1.77-5.51-3.05C776.13,515.28,775.2,512.95,774.61,510.56Zm-14.78-32.84-.2.27c-3.35,4.61-12.35,7.87-17.56,10a91.31,91.31,0,0,0-10,4.46c14.51.64,32.36,4.31,41.25,15l.8,1c-.15-.85-.28-1.67-.4-2.43l-.41-2.58h22c-2.35-1.94-5-3.79-7.1-5.2-3.12-2.14-6.3-4.17-9.45-6.27a58,58,0,0,0-6.53-3.75c-1.51-.75-3-1.5-4.4-2.36a21.29,21.29,0,0,0-4.9-2.32c-1-.28-1.9-.11-2.7-1.06s-.54-2-.47-3.07C759.84,478.8,759.84,478.26,759.83,477.73Zm-12.45-24.55-19.12,13c4.1,1,8.44,1.48,12.49,2.18,6.53,1.13,12.75,2.75,18.32,6.52l.58.39c0-.34-.07-.68-.11-1l-.28-2.3,2.31-.19c7.19-.59,14.07-2.77,21.15-4.05l-4-2.7c-3.06-2-6.22-3.13-9.58-4.55a122.48,122.48,0,0,0-20-6.48l-1.72-.4Zm-38.5-10.31c12.45-1.13,28.22-1.73,38.51,4.78v-4.83l1.72-.4a71.59,71.59,0,0,0,9.07-2.74c3-1.12,5.89-2.35,8.87-3.46,2.29-.85,4.57-1.54,6.93-2.18a20.84,20.84,0,0,0,3.81-1.26,7.91,7.91,0,0,0,1.86-1.34A66.05,66.05,0,0,1,773,430c-5.94-1.59-11.65-3.65-17.68-5a122.65,122.65,0,0,0-27.59-2.82H726a93.35,93.35,0,0,1-7.65,9.31A105.11,105.11,0,0,0,708.89,442.86Zm-223,0c-12.45-1.13-28.22-1.73-38.51,4.78v-4.83l-1.72-.4a71.6,71.6,0,0,1-9.07-2.74c-3-1.12-5.89-2.35-8.87-3.46-2.29-.85-4.57-1.54-6.93-2.18a20.86,20.86,0,0,1-3.81-1.26,7.91,7.91,0,0,1-1.86-1.34,66,66,0,0,0,6.62-1.44c5.94-1.59,11.65-3.65,17.68-5A122.65,122.65,0,0,1,467,422.13h1.82a93.39,93.39,0,0,0,7.65,9.31A105.15,105.15,0,0,1,485.84,442.86Zm178.49,41.06,4.48-2.25c7.25,12.51,18.46,19.3,28.2,15.88,11.78-4.14,17.2-21.74,12.83-40.25,1-.43,2-.83,3.17-1.21C726.51,505,676.62,517.63,664.33,483.92ZM550.81,302.85q-.31-1.35-.68-2.72c-.49-1.85-1-3.68-1.51-5.53l-5.82-21.74,20.28,9.75c13.69,6.58,23,20.06,34.29,29.62,11.33-9.56,20.6-23,34.29-29.62l20.28-9.75-5.82,21.74c-.49,1.85-1,3.68-1.51,5.53q-.37,1.37-.68,2.72c2.18-.82,4.32-1.8,6.58-2.84a55.22,55.22,0,0,1,13.18-4.43l18.08-3.32-6.56,17.17a63.88,63.88,0,0,1-7.77,13.71,60.17,60.17,0,0,0-5.35,8.75c4.53-1.47,9-3.17,13.48-4.76,10.44-3.68,20.93-6.72,32-7.46L732,318l-13.13,15.41.91-.17,34-6.74-20.38,19.93h30.27L744.29,364.4q-.9.83-1.84,1.62c-1.3,1.08-2.63,2.1-4,3.1,3.51.23,7,.52,10.52.82,5.26.46,10.52.83,15.8,1l25,.69-18.16,17.15c-5.42,5.12-12.15,8.48-18.65,12-3.28,1.77-8.34,4.41-12.08,7.52a118.59,118.59,0,0,1,16.83,2.57c6.12,1.41,12,3.5,18,5.12a55.83,55.83,0,0,0,5.59,1.22L802,420.5l-15.21,14.38a18.19,18.19,0,0,1-4.31,3.06,29.31,29.31,0,0,1-5.75,2c-2,.55-4.06,1.16-6,1.89-1.75.65-3.49,1.35-5.23,2l2.53.91,1.42-2,.06,2.52q1.85.72,3.69,1.49c4,1.7,7.61,3,11.3,5.48l25.29,16.91-25.16,4.55c-2.33.42-4.61.92-6.87,1.43a69.07,69.07,0,0,1,6.83,4c3.19,2.12,6.41,4.18,9.57,6.35,2.68,1.84,5.34,3.69,7.85,5.76l22.14,18.3h-31a63.77,63.77,0,0,1,6.57,5.4C805,520,810,525.52,815,530.93l17.5,18.91-25.72-1.58c-2-.12-3.93-.29-5.89-.5l-3.87-.43q2.67,2,5.16,4.29c6.84,6.26,13.93,11.82,17.5,20.52,8.12,6.59,16.93,20.69,20.87,29.09l11,23.54-24.18-9.54c-1-.39-2-.82-3-1.25a54.88,54.88,0,0,1,5,6.35c5.44,8.27,10.37,15.14,13.1,24.73l6.76,11.08L871,720.73l-27.31-21.65a146.91,146.91,0,0,0-17.9-12.5c2.28,2.68,4.73,5.28,6.88,8.06a47.14,47.14,0,0,0,6.1,6.56c1.94,1.72,4,3.28,6.08,4.88,1.07.84,2.13,1.71,3.15,2.61l28.31,24.95-37.07-7c-9.28-1.76-18.06-5.07-26.79-8.57-4.07-1.63-8.91-3.74-13.75-5.41a75.05,75.05,0,0,0,8.49,17c2.83,4.39,5.95,8.59,9.06,12.78,1.61,2.17,3.23,4.33,4.79,6.53l18.26,25.77-30-10a128.26,128.26,0,0,1-27.5-13.24c-5.46-3.43-12.61-9.64-19.3-13.56L751.43,829l-15.36-30.74q-.9-1.8-1.67-3.65c-1.67-4-3.09-8-4.88-11.94-3.36-7.32-7.8-14.07-12.06-20.89-1.46-2.34-3.1-4.58-4.71-6.81q-4.09-5.68-8.45-11.17a117.24,117.24,0,0,0-9.37-10.68l-.08-.08a70.48,70.48,0,0,0-2.39,10.82c-.63,4-1.1,7.93-1.53,11.91-.3,2.8-.49,5.59-.94,8.37a105.66,105.66,0,0,0-.84,27.59c.38,4,.87,7.94,1.33,11.91L693.71,832l-20.63-19.69c-16.89-16.12-29.82-41.21-37.28-64.53-.37,3.51-.71,7-1,10.53-.94,9.75-1.78,19.58-3,29.29-1.07,8.18-2.22,21.79-13.29,22.24a11.18,11.18,0,0,1-9.15-4.27L608,804l-.58-1.9c-2-6.45-3.47-13.14-5.23-19.66q-2.22-8.25-4.84-16.34-2.62,8.1-4.84,16.34c-1.76,6.53-3.27,13.21-5.23,19.66l-.58,1.9-1.24,1.55a11.18,11.18,0,0,1-9.15,4.27c-11.08-.45-12.22-14.06-13.29-22.24-1.27-9.71-2.1-19.54-3-29.29-.34-3.5-.68-7-1-10.53-7.46,23.32-20.39,48.41-37.28,64.53L501,832l3.23-28.34c.45-4,.95-7.93,1.33-11.91a105.66,105.66,0,0,0-.84-27.59c-.45-2.78-.65-5.57-.94-8.37-.42-4-.89-8-1.53-11.91a70.48,70.48,0,0,0-2.39-10.82l-.08.08a117.24,117.24,0,0,0-9.37,10.68Q486.07,749.29,482,755c-1.61,2.23-3.25,4.47-4.71,6.81-4.26,6.82-8.7,13.57-12.06,20.89-1.79,3.9-3.21,8-4.88,11.94q-.78,1.85-1.67,3.65L443.3,829l-11.06-91.12c-6.69,3.92-13.85,10.13-19.3,13.56a128.26,128.26,0,0,1-27.5,13.24l-30,10,18.26-25.77c1.56-2.2,3.18-4.37,4.79-6.53,3.11-4.19,6.22-8.39,9.06-12.78a75,75,0,0,0,8.49-17c-4.84,1.66-9.69,3.77-13.75,5.41-8.73,3.5-17.52,6.81-26.79,8.57l-37.07,7,28.31-24.95c1-.9,2.08-1.77,3.15-2.61,2-1.6,4.14-3.16,6.08-4.88a47.14,47.14,0,0,0,6.1-6.56c2.14-2.78,4.59-5.37,6.88-8.06a146.94,146.94,0,0,0-17.9,12.5l-27.31,21.65,21.7-64.59,6.76-11.08c2.74-9.58,7.67-16.46,13.1-24.73a54.87,54.87,0,0,1,5-6.35c-1,.43-2,.85-3,1.25l-24.18,9.54,11-23.54c3.94-8.4,12.75-22.5,20.87-29.09,3.57-8.7,10.66-14.26,17.5-20.52q2.49-2.28,5.16-4.29l-3.87.43c-2,.21-3.93.38-5.89.5l-25.72,1.58,17.5-18.91c5-5.41,9.93-10.88,15.34-15.91a63.79,63.79,0,0,1,6.57-5.4h-31l22.14-18.3c2.5-2.07,5.17-3.93,7.85-5.76,3.16-2.16,6.38-4.23,9.57-6.35a69,69,0,0,1,6.83-4c-2.27-.51-4.55-1-6.87-1.43L385,469.24l25.29-16.91c3.69-2.47,7.28-3.78,11.3-5.48q1.84-.78,3.69-1.49l.06-2.52,1.42,2,2.53-.91c-1.74-.69-3.48-1.39-5.23-2-2-.74-4-1.34-6-1.89a29.31,29.31,0,0,1-5.75-2,18.19,18.19,0,0,1-4.31-3.06L392.76,420.5l20.67-3.33A55.84,55.84,0,0,0,419,416c6-1.62,11.92-3.71,18-5.12a118.59,118.59,0,0,1,16.83-2.57c-3.74-3.11-8.8-5.75-12.08-7.52-6.5-3.5-13.23-6.86-18.65-12L405,371.61l25-.69c5.27-.15,10.54-.52,15.8-1,3.51-.3,7-.59,10.52-.82-1.35-1-2.69-2-4-3.1q-.94-.79-1.84-1.62L431,346.46h30.27l-20.38-19.93,34,6.74.91.17L462.7,318l24.44,1.63c11.1.74,21.59,3.78,32,7.46,4.49,1.58,9,3.29,13.48,4.76a60.18,60.18,0,0,0-5.35-8.75,63.87,63.87,0,0,1-7.77-13.71L513,292.26,531,295.58A55.22,55.22,0,0,1,544.23,300C546.5,301.05,548.64,302,550.81,302.85Zm405,431.52-11.12,10.8c3.82,5.74,4.21,4.28,10.71,1.78C958.28,739.6,959.92,739.15,955.81,734.37Zm-191,150.76a16.67,16.67,0,0,0-9.1,11.39q-2.23,9.51,4.8,23.09,6.89,13.28,16.36,17.5a16.13,16.13,0,0,0,14.62-.55,17.11,17.11,0,0,0,9.37-11.89q2.07-9.37-4.55-22.13-5.1-9.82-11.56-15a19.08,19.08,0,0,0-10.08-4.45A17.59,17.59,0,0,0,764.77,885.13Zm-103.89,91a45.74,45.74,0,0,0,10.47-.62c5.41-1,9.31-2.92,11.72-5.86a11.63,11.63,0,0,0,2.64-9.78,13.41,13.41,0,0,0-3.14-6.46,13.1,13.1,0,0,0-7.19-4,27.5,27.5,0,0,0-11.08,0c-1.85.33-3.43.64-4.74.93a24.07,24.07,0,0,0-3.12.89Zm-5.18-29a34.13,34.13,0,0,0,3.88-.2c1.44-.15,3-.38,4.71-.68,4.36-.78,7.56-1.82,9.58-3.16a10.64,10.64,0,0,0,4.27-5.23,12.29,12.29,0,0,0,.61-6.67,11.81,11.81,0,0,0-6-8.31q-5-3-13.35-1.5a31,31,0,0,0-7.9,2.42Zm-145.49,4.65L506,925l-16.38,21.64Zm-115-89.41a16.28,16.28,0,0,0-14.45-2.43q-9.45,2.79-17.78,15-8.54,12.48-7.8,22.84a16,16,0,0,0,7.32,12.52,17.9,17.9,0,0,0,15.68,2.5q8.5-2.4,16.75-14.45,8.93-13.06,8.18-23Q402.52,867.3,395.24,862.32Zm-157-127.84,11.12,10.8c-3.82,5.74-4.21,4.28-10.71,1.79C235.75,739.7,234.11,739.25,238.21,734.48Zm23.54,46.26,3.15-15.23L256,784.42l-7.78,5,1-31.69L235.38,786.4l3.69-30.66-14.54,17.85,6.54-31.07-13.68,14.15,4.66-27.79c-10.62,13.76-13.44,9.35-14.1,2.59a2.74,2.74,0,0,0,2,1.18c2.32.22,5-2.35,5.92-5.76.83-3.07-.08-5.8-2-6.41a52.59,52.59,0,0,1,9.24-7.69c7.06-23.3,14.84-43.35,24.08-57-8.93,21.84-12.79,35.33-16.11,55.46l9.41,13.61c2.33-4.09,10.78-14.65,18.43-18.89-4.3,5.57-9.8,20.16-11,28.95l10.5,7.49c7.43,5.51,14.91,11,22.32,16.5l7.49-19.68c-.64,8,1,15.61.38,23.6l.38.36Zm29.44,72.69,21.12-53.08L282.47,828.8c-2.74,2.62-4.17,4.54-4.29,5.79-.15,1.69.62,3.42,2.29,5.17l1.5,1.57-1.21,1.16L265.94,827l1.21-1.16,1.5,1.57q2.7,2.83,5.56,2.38c1.16-.18,3-1.48,5.49-3.86l29.18-27.82a14.14,14.14,0,0,0,3.66-4.74,5.08,5.08,0,0,0,0-3.22,12.63,12.63,0,0,0-3.14-4.58l1.23-1.17L322.66,797l-19.5,49.52,50.14-17.39,12.06,12.64L364.13,843l-1.48-1.55q-2.73-2.87-5.57-2.42c-1.17.19-3,1.47-5.51,3.86L322.4,870.68c-2.74,2.62-4.15,4.56-4.25,5.83q-.22,2.53,2.28,5.16l1.48,1.55-1.21,1.16-18.09-19,1.21-1.16,1.51,1.58q2.73,2.87,5.56,2.38c1.16-.18,3-1.48,5.49-3.86l29.84-28.46-54,18.61Zm106.63,6.64q9.92,6.79,12,19.28t-5.59,23.76q-7.95,11.61-20.51,14.25a29.65,29.65,0,0,1-35.52-24q-2-12.37,6.08-24.24,8.3-12.13,21.8-14.14A29.55,29.55,0,0,1,397.81,860.07Zm75.72,42.71L412.73,939l23.06,10.41q5.31,2.4,9.19,1.35c2.6-.7,5.7-3.07,9.29-7.14l1.26.86-9.37,13.7-45.79-20.67.69-1.53,59.26-35.06-18-8.12q-4.48-2-6.93-2a7.61,7.61,0,0,0-4.35,1.44c-1.26.91-2.94,2.92-5,6l-1.57-.71L431.94,884Zm37.11,52.52-23.19-5.71L481.06,958a15.17,15.17,0,0,0-2.79,4.85,3.13,3.13,0,0,0,.71,2.72c.7.91,2.46,1.82,5.31,2.75l-.4,1.63L465,965.34l.4-1.63c2.61.16,4.37,0,5.28-.54,1.85-1,4.22-3.5,7.11-7.38L511,911.68l1.54.38,8.58,55q1,6.64,2.65,8.92a9.67,9.67,0,0,0,5.23,3.43l-.4,1.63L505,975.18l.4-1.63c2.41.47,4.13.46,5.14,0a3.13,3.13,0,0,0,1.88-2.16c.32-1.3.22-3.48-.27-6.58ZM578.71,985l-21.85-52.79-1.57,41.2c-.14,3.79.17,6.16,1,7.14,1.07,1.31,2.83,2,5.25,2.11l2.17.08-.06,1.68-21.45-.81.06-1.68,2.17.08c2.61.1,4.48-.62,5.65-2.16.7-.94,1.11-3.14,1.25-6.59L552.82,933a14.14,14.14,0,0,0-.68-5.95,5.09,5.09,0,0,0-2.26-2.29,12.64,12.64,0,0,0-5.44-1.09l.06-1.69,17.46.66,20.53,49.1,23.84-47.42,17.46.66-.06,1.69-2.14-.08c-2.64-.1-4.53.62-5.68,2.15-.7,1-1.13,3.14-1.26,6.6l-1.53,40.29c-.14,3.79.2,6.16,1,7.14q1.6,2,5.24,2.11l2.14.08-.06,1.68-26.2-1,.06-1.68,2.19.08c2.64.1,4.52-.62,5.65-2.16.7-.94,1.11-3.14,1.25-6.59l1.57-41.2-25.75,51Zm100.9-39.66q6.57.2,10.23,2.61a13.59,13.59,0,0,1,6.14,9.3,15.28,15.28,0,0,1-1.33,9.18,16.58,16.58,0,0,1-6.78,7.44q-4.66,2.8-14.9,4.63L644.3,983.6l-.29-1.65,2.28-.41q3.81-.68,5-3.41c.5-1.16.46-3.44-.15-6.85l-7-39.25q-1-5.64-2.57-6.88a6.69,6.69,0,0,0-5.55-1l-2.28.41-.3-1.67,26.24-4.68a52.45,52.45,0,0,1,12-1q7,.41,11.28,3.87a14.25,14.25,0,0,1,5.22,8.8,13.3,13.3,0,0,1-1.31,8.67A16.64,16.64,0,0,1,679.6,945.31Zm64.72,11.84.54,1.59-25.06,8.45-.54-1.59,2.08-.7q3.62-1.22,4.54-3.89c.38-1.15,0-3.49-1.19-7L712,916.24a20.57,20.57,0,0,0-2.53-5.67,4.15,4.15,0,0,0-2.39-1.26,8.61,8.61,0,0,0-4.32.31l-2.08.7-.54-1.6,25.06-8.45.54,1.6-2.12.71c-2.38.8-3.88,2.1-4.5,3.86-.41,1.17,0,3.5,1.15,7L733,951.23a20.58,20.58,0,0,0,2.53,5.67,4.12,4.12,0,0,0,2.44,1.24,8.37,8.37,0,0,0,4.28-.28Zm55-22q7.81,5,14.33,5.84a24.22,24.22,0,0,0,12.87-1.81l.67,1.3a49.88,49.88,0,0,1-13.08,3.93,57.93,57.93,0,0,1-15,.58,66.4,66.4,0,0,1-13.78-2.61,43.73,43.73,0,0,1-11.78-.19A30.6,30.6,0,0,1,761,936.51a35,35,0,0,1-9.74-12.09q-6.37-12.28-2.63-24.53a29.31,29.31,0,0,1,15.07-18.11q10.73-5.57,22.82-1.51T805,896.73a32.67,32.67,0,0,1,3.56,20.55A31.1,31.1,0,0,1,799.33,935.13Zm30.16-96.38-1.05-1.32,17.09-13.62,1.06,1.32-1.82,1.45a6.25,6.25,0,0,0-2.48,5.86c.09,1.14,1.19,3,3.33,5.73l15.59,19.57q5.79,7.27,7.54,12.4a18.1,18.1,0,0,1-.18,11.39q-1.95,6.23-9.2,12-7.91,6.3-14.18,6.81a18.92,18.92,0,0,1-11.67-2.74q-3.66-2.27-10.62-11l-15-18.86c-2.36-3-4.31-4.59-5.87-4.85s-3.24.32-5.06,1.77l-1.82,1.45-1.06-1.32,20.86-16.62,1.05,1.32L814.13,851c-2,1.59-2.93,3.35-2.78,5.29.08,1.32,1.21,3.34,3.36,6l16.76,21a59.81,59.81,0,0,0,5.64,6,17.73,17.73,0,0,0,6.38,4.17,12.93,12.93,0,0,0,6.56.23,17.09,17.09,0,0,0,7.3-3.65,22,22,0,0,0,6.82-8.81,14.12,14.12,0,0,0,.9-9.36q-1.2-4.31-7.32-12l-15.57-19.55c-2.4-3-4.24-4.62-5.5-4.86a6.72,6.72,0,0,0-5.38,1.72ZM866,807.46l18.46,15.93,8.86-10.27q3.45-4,3.41-6.37c0-2.11-1.31-4.37-3.86-6.82l1.1-1.27,16.27,14-1.1,1.27a23.61,23.61,0,0,0-5.21-2.81,5.71,5.71,0,0,0-3.65.4,13.69,13.69,0,0,0-4.44,3.74l-8.86,10.27,15.41,13.29a19.47,19.47,0,0,0,4,3,2.94,2.94,0,0,0,1.9,0,7.93,7.93,0,0,0,2.65-2.29l6.84-7.93a27.82,27.82,0,0,0,4.41-6.23A11.21,11.21,0,0,0,923,820a35.12,35.12,0,0,0-2.67-9.93l1.19-1.38,8.25,14.13-31.06,36-1.27-1.1,1.43-1.66a8.64,8.64,0,0,0,1.9-3.82,3.84,3.84,0,0,0-.35-2.93,21.94,21.94,0,0,0-4.18-4.28l-30.36-26.18c-3-2.56-5-3.83-6.25-3.83q-2.44,0-4.94,2.94l-1.43,1.66-1.28-1.11,31.06-36,10.68,8.31-1.17,1.35a21.15,21.15,0,0,0-6.44-2.76,7.26,7.26,0,0,0-4.35.78,20.75,20.75,0,0,0-4.71,4.41Zm66.33-26.82-3.15-15.22,8.87,18.9,7.78,5-1-31.69,13.91,28.66L955,755.63l14.55,17.85L963,742.41l13.69,14.15L972,728.76c10.62,13.75,13.45,9.35,14.1,2.59a2.74,2.74,0,0,1-2,1.18c-2.32.23-5-2.35-5.92-5.76-.83-3.07.07-5.8,2-6.41a52.57,52.57,0,0,0-9.25-7.69c-7.07-23.3-14.85-43.34-24.1-57,8.94,21.84,12.8,35.33,16.13,55.46l-9.4,13.61c-2.33-4.09-10.79-14.65-18.43-18.88,4.3,5.57,9.81,20.16,11,28.94l-10.5,7.49c-7.43,5.51-14.9,11-22.31,16.51l-7.5-19.68c.64,8-1,15.61-.38,23.6l-.38.36Zm-320.87-8.57c-.09.09.26.26.28.28ZM269.49,219.63h12.63q3.14,12.11,10.36,19a24,24,0,0,0,17.07,6.83c3.94,0,7.12-1,9.49-3a9.84,9.84,0,0,0,3.57-7.89q0-7.54-15.5-12.66c-3.35-1.07-6-2-7.9-2.68q-9.31-3.36-14.35-5.7a28.34,28.34,0,0,1-15.09-14.93,32.49,32.49,0,0,1-2.53-13.1q0-15.79,9.8-25.5t25.87-9.69a58.22,58.22,0,0,1,15.24,1.9A53.72,53.72,0,0,1,331.87,158l2.37-5.26h12.56v36.42H332.07c-1.44-7.45-4.16-13-8.17-16.62s-9.34-5.47-16-5.47a14.53,14.53,0,0,0-9.67,3.2,9.94,9.94,0,0,0-3.79,7.87q0,7,14.55,10.63c2.37.63,4.22,1.09,5.55,1.46Q334.8,195.83,343,204.1t8.17,22.53q0,15.86-10,25.29T314,261.36a53.23,53.23,0,0,1-15-2.11,60.14,60.14,0,0,1-14.28-6.36l-3.24,5.81h-12Zm133.13-10.16-8-31.75-7.47,31.75Zm86.62-12.95H494c4.64,0,8-1.15,10.15-3.46s3.18-6,3.18-10.89-1-8.39-3-10.52-5.29-3.15-9.93-3.15h-5.23Zm0,47h5.62c5.31,0,9.12-1.33,11.43-4s3.44-7,3.44-13.05q0-8.32-3.64-12.3c-2.44-2.63-6.23-4-11.37-4h-5.49Zm-36.73-.16h.76c2.9,0,4.79-.39,5.7-1.22s1.37-3.15,1.37-7v-58c0-4.06-.44-6.59-1.28-7.53s-2.81-1.41-5.92-1.41h-4.27v-14.8H501.6q17.18,0,25.17,6t8,18.7a24.64,24.64,0,0,1-4.66,15q-4.64,6.33-13.46,9.69,11.43,3,17,9.53t5.57,17.17q0,15.4-9,22.09t-30.07,6.67H399.3V243.36h3.94c3.33,0,5.36-.21,6.1-.65a2.62,2.62,0,0,0,1.11-2.47,16.47,16.47,0,0,0-.15-2.34c-.11-.73-.24-1.46-.41-2.16l-3.14-11.23h-23.6l-2.74,10a36.26,36.26,0,0,0-.94,3.59,11.91,11.91,0,0,0-.26,2.37,2.36,2.36,0,0,0,1.59,2.14,11,11,0,0,0,4.53.76h4.33v14.87H350.49V243.36h3.24a7.21,7.21,0,0,0,5.6-2.53c1.5-1.67,2.81-4.43,3.92-8.23l23-79.22H418l20.53,78.91c1.42,5.18,2.68,8.34,3.83,9.43s3,1.64,5.55,1.64h4.59Zm146.69-90v14.8h-4.27c-3.16,0-5.16.5-6,1.48s-1.31,3.46-1.31,7.45v57.23c0,4,.46,6.54,1.35,7.53s2.87,1.48,6,1.48h4.27v14.87h-52.1V243.36h4.33q4.61,0,5.94-1.48c.89-1,1.33-3.49,1.33-7.53V177.11c0-4-.44-6.46-1.31-7.45s-2.85-1.48-6-1.48h-4.33v-14.8Zm96.74,0v39.08H682a81.41,81.41,0,0,0-2.83-11.9,21.54,21.54,0,0,0-3.68-6.88,14,14,0,0,0-6.05-4.25q-3.59-1.25-11.56-1.25H644V197h3.37c4,0,6.75-1.15,8.34-3.44s2.4-6.36,2.4-12.22v-.91h11v47.85h-11c-.17-7.32-1-12.09-2.4-14.28s-4.16-3.28-8.21-3.28H644v32.67h15.5c6,0,10.15-.44,12.41-1.3a10,10,0,0,0,5.27-4.43,33.62,33.62,0,0,0,3.22-9.12A84,84,0,0,0,682,215h14.41v43.27h-92.5V243.36h4.4c2.9,0,4.79-.42,5.7-1.22s1.37-3.15,1.37-7v-58c0-4.06-.44-6.59-1.28-7.53s-2.81-1.41-5.92-1.41h-4.27v-14.8Zm141.2,0v43H822.91a90.5,90.5,0,0,0-1.37-12.63,29.3,29.3,0,0,0-2.83-8.28,13,13,0,0,0-5.79-5.6q-3.53-1.64-13.54-1.64H788.14V197h3.37c4,0,6.73-1.15,8.32-3.44s2.4-6.36,2.4-12.22v-.91h11v47.85h-11c-.17-7.32-1-12.09-2.4-14.28s-4.14-3.28-8.19-3.28h-3.51v23.65c0,4.32.46,6.9,1.37,7.76s2.83,1.25,5.77,1.25h4.86v14.87H748V243.36h4.4c2.9,0,4.79-.42,5.7-1.22s1.37-3.15,1.37-7v-58c0-4.06-.44-6.59-1.28-7.53s-2.81-1.41-5.92-1.41H748v-14.8Zm95.63,64.24q-.52,21.06-11.13,32.41t-30,11.33q-22.7,0-34.93-14.38t-12.22-41.11q0-25.28,12.65-40.46T891,150.23a47,47,0,0,1,13.24,1.8,41.52,41.52,0,0,1,11.71,5.52l2.24-5.78h14.22V195h-15.7q-2.29-15.12-7-22A14.69,14.69,0,0,0,897,166.17q-9.24,0-13.46,9.35t-4.2,30q0,21.37,4.33,30.77t14.11,9.38q8.85,0,14.54-7.58t6.38-20.5ZM597.37,100.28c-127.27,0-216.53,7.27-338.22-33.9L166.52,188.2s80.13,105.11,47.87,227.91-88.43,362,6.77,455.29C293.35,942.1,418.39,1009,508.82,1057.12c43.84,23.33,78.07,54.62,88.54,65.09,10.47-10.47,44.7-41.76,88.54-65.09,90.44-48.11,215.47-115,287.65-185.72,95.21-93.26,39-332.49,6.77-455.29s47.87-227.91,47.87-227.91L935.58,66.37C813.9,107.55,724.63,100.28,597.37,100.28Zm0-18.13c58.39,0,117.59,2.2,175.83-1.85,54.35-3.78,104.91-13.6,156.57-31.09l12.6-4.26L1051.59,188.6l-8.52,11.18c-13.49,17.82-26.07,43.79-33.91,64.42-18,47.26-23.77,98.33-10.81,147.67,32.65,124.3,91.91,371.84-11.72,473.35-17.45,17.1-38.18,32.91-57.87,47.34-27,19.79-55,38.48-83.29,56.36-48.83,30.84-99.88,58.09-150.84,85.2-29,15.4-60.84,38.52-84.19,61.86l-13.07,13.07L584.29,1136c-23.34-23.34-55.23-46.46-84.18-61.86-51-27.11-102-54.36-150.84-85.2C321,971,293,952.35,266,932.56c-19.69-14.43-40.41-30.24-57.87-47.34-103.63-101.51-44.38-349-11.72-473.35,13-49.34,7.15-100.41-10.81-147.67-7.84-20.63-20.42-46.61-33.91-64.42l-8.52-11.18L252.37,44.95,265,49.21c51.66,17.48,102.22,27.3,156.57,31.09C479.78,84.34,539,82.15,597.37,82.15Z"/><path class="cls-2" d="M265.57,87,188.29,188.61c12.27,18.79,23.25,41.85,30.68,61.2,21,54.61,27.41,113.71,12.42,170.76C203.23,527.78,143.82,771,233.47,858.84c40.54,39.71,92.68,74,141.15,103.34,46.55,28.15,94.45,53.88,142.46,79.43a419.22,419.22,0,0,1,80.29,56.4,419.24,419.24,0,0,1,80.29-56.4c48-25.54,95.9-51.28,142.46-79.43,48.47-29.3,100.61-63.62,141.15-103.34,89.65-87.82,30.24-331.06,2.07-438.27-15-57.06-8.57-116.16,12.43-170.77,7.43-19.34,18.41-42.4,30.68-61.19L929.17,87c-50.44,16-100.34,25.24-153.52,28.94-59.12,4.11-119,1.94-178.28,1.94S478.21,120,419.09,115.91C365.91,112.21,316,103,265.57,87M669.76,481.2l7.07-3.55c27.08,19.37,5.72-7.78,32-19.91a49.43,49.43,0,0,1,.32,22.19c-1.46,6.21-4.74,12.77-10.65,15.81a14.88,14.88,0,0,1-1.87.81,14.5,14.5,0,0,1-3.7.78c-6.13.47-11.89-2.9-16.16-7A41.71,41.71,0,0,1,669.76,481.2ZM525,481.2l-7.07-3.55c-27.08,19.37-5.72-7.78-32-19.91a49.44,49.44,0,0,0-.32,22.19c1.46,6.21,4.74,12.77,10.65,15.81a14.89,14.89,0,0,0,1.87.81,14.51,14.51,0,0,0,3.7.78c6.13.47,11.89-2.9,16.16-7A41.72,41.72,0,0,0,525,481.2Zm72.4-29.25c-62.69-.95-25.81,99.34-86,82.44h-7.78c-1.71.18-3.53.06-4.11,3.17l-.09.46,0,.11v0l0,.12h0l0,.12h0l0,.11v0l0,.1v0l0,.09v.35l0,.08v0l0,.09v0l0,.1h0l0,.11h0l0,.1v0l0,.09v0l0,.08v.41l0,.08v0l0,.09h0l0,.09h0l0,.09h0l0,.08v.57h0l0,.07h0l0,.07h0v.07h0v.43h0v.05h0v.05h0v0h0v0h0v.19h0v0h0v0h0v0h0v0h0v0h0v0h0v0h0c4.88,4.12,7.55,6.55,9.38,8.14l.54.45v0c4.31,3.71,3.84,2.45,22.16,11.41,64.82,31.69,54.74,89.27,63.49,93.91a6.15,6.15,0,0,0,6.77,0c8.75-4.64-1.33-62.22,63.49-93.91,18.32-9,17.85-7.7,22.16-11.41v0l.54-.45c1.82-1.59,4.5-4,9.38-8.14h0v0h0v0h0v0h0v0h0v0h0v0h0v0h0V542h0v0h0v0h0v-.05h0v-.05h0v-.43h0v-.07h0l0-.07h0l0-.07h0v-.57l0-.08h0l0-.09h0l0-.09h0l0-.09v0l0-.08v-.41l0-.08v0l0-.09v0l0-.1h0l0-.11h0l0-.1v0l0-.09v0l0-.08v-.35l0-.09v0l0-.1v0l0-.11h0l0-.12h0l0-.12v0l0-.11-.09-.46c-.58-3.12-2.4-3-4.11-3.17h-7.77C623.17,551.28,660.05,451,597.36,451.95Zm0,236.91c-10.7-9.7-11.87-28-12.7-45.6-11.8,12.43-12.86,12.52-17.13,34.1-2.93,14.8-7.11,31.19-8.4,46.22-2.29,5.5-2.18,2.9-3.64,9.87-15,8.07-24.28,22.71-33.38,39.83-2.76-41.76,2.21-44,11-75.85-8.17,5.75-22.62,23.41-30.37,25.47-3.55-25.63-4.86-34.09-1.84-59.65-15.77,18.74-43.15,52.39-61.2,64.27,7.79-19.24,4.55-28.5,17.43-47.94,11.29-17,19.68-21.91,34.25-33.69-11.81,1.77-31.31,21.11-41.3,29.07-13.61,10.85-28.24,18.49-40.26,28.15l15.85-42.32L386.95,674l8.52-15.78c3.32-2.32,1.83-1,4.74-4,.41-.43.9-1,1.29-1.42s.78-1,1.12-1.46c4.48-6,20.86-46.3,30.74-51-8.16-.44-14.12.72-22,2.09-22.26,3.85-16.56,5.54-19.85.52,8.51-7,22.08-17.07,34.4-17.67,22.62-5.19,38.43-4.44,66.16-25.55-13.83-8.21-50.33-13.56-69.86-14.45h.17l.52-.25h.5l.3-.14h.09l.13-.06h.29l0,0h.37l.15-.07h.11L425,544l0,0,0,0,0,0,0,0,0,0,0,0,0,0,0,0,0,0,.23-.1,0,0,0,0,0,0,0,0,0,0,0,0,0,0,0,0,0,0,0,0,0,0,0,0,0,0,0,0,0,0,.26-.11,0,0,0,0,0,0,0,0,0,0,0,0,0,0,0,0,0,0,0,0,0,0,0,0,0,0,0,0,.26-.11,0,0,0,0,0,0,0,0,0,0,0,0,.28-.12h.15l.12,0h.2l.07,0h0l.07,0h.29l.07,0h.1l.21-.08h.35l.2-.08h.25l.15-.06H430l.08,0h.18l.11,0h.05l.11,0h0l.05,0h.19l.16-.06h.25l.2-.07h.17l.08,0h.23l.4-.14h.18l.24-.08h.33l.21-.07h.37l.21-.07h.2l.27-.09h0l.06,0h.14l.14,0h.17l.27-.09h.39l.38-.12h.23l.15,0h.36l.28-.08h.29l.2-.06h.24l.24-.07h.22l.15,0h.1l.28-.07h.15l.12,0h.2l.39-.1h.07l.23-.06h.31l.32-.08h.19l.23-.05h.06l.09,0h.62l.09,0h.06l.31-.06h.14l.1,0h.2l.35-.07H443l.17,0h.4l.19,0H444l.24,0h.67l.15,0h.07l.27,0h.12l.21,0h.47l.29,0h.7l.35,0h.81l.29,0h1l.29,0h.46l.33,0H451l.32,0h.16l.4,0,.52,0h.08l.41,0h0l.64,0h3.58l.57,0h.14l.43,0,.41,0h0l.71,0h0l.43,0h0l.48,0h.07l.23,0h.9l.28,0h.92l.26,0h.07l.51,0h.08l.27,0H465l.6.07.66.08h0c-23.29-11.35-41.32-6.62-31.77-9.43s47.59-2.72,47.59-2.72h0l-.58-.22-.58-.22,0,0-.08,0-.08,0-.08,0-.08,0-.08,0-.08,0-.06,0h0l-.08,0-.08,0-.08,0-.08,0-.08,0-.08,0-.08,0h0l-.07,0-.08,0-.08,0-.08,0-.08,0-.08,0-.08,0h0l0,0-.08,0-.08,0-.08,0-.08,0-.08,0-.08,0-.06,0h0l-.08,0-.08,0-.08,0-.08,0-.08,0-.08,0-.08,0h0l-.07,0-.08,0-.08,0-.08,0-.08,0-.08,0-.08,0h0l-.13-.05-.08,0-.08,0-.08,0-.08,0-.08,0-.06,0h0l-.08,0-.08,0-.08,0-.24-.1-.08,0h0l-.07,0-.08,0-.08,0-.08,0-.08,0-.08,0-.11,0h-.22l0,0h-.18l0,0h0l-.07,0h-.07l0,0h-.15l0,0h-.19l0,0h-.15l0,0h-.11l0,0h-.15l0,0h-.15l-.08,0h-.08l0,0,0,0h-.08l0,0h-.08l0,0,0,0h0l0,0h0l-.05,0-.05,0-.05,0-.05,0-.05,0-.05,0-.05,0-.05,0-.05,0-.05,0-.05,0h-.05l-.05,0-.05,0-.05,0-.05,0-.05,0-.05,0-.05,0-.05,0-.05,0-.05,0-.06,0,0,0-.05,0-.05,0-.05,0-.05,0-.05,0-.05,0-.05,0-.05,0-.05,0-.05,0,0,0h0l-.05,0-.05,0-.05,0-.05,0-.05,0-.05,0-.06,0-.05,0-.05,0-.06,0-.06,0h-.06l-.06,0-.06,0-.11,0-.06,0-.06,0-.06,0-.06,0-.06,0-.06,0-.06,0h0l-.05,0-.06,0-.06,0-.06,0-.06,0-.06,0-.11,0h-.19l-.05,0H468l-.19-.07-.71-.26-.15-.06-.14,0-.71-.25-.15-.05-.15-.05h0l-.7-.24h0l-.19-.06-1-.33h-.68l0,0h0l-.07,0h-.25l-.06,0,0,0-.89-.29-.15,0-.16-.05h-.22l-.31-.1h-.64l-.06,0h-.81l-.24-.07-.9-.27-.11,0-.1,0h0l-.12,0-.1,0-.9-.27h0l-.3-.09h-.05l-.89-.26-.11,0-.13,0h-.66l-.08,0h-.48l-.35-.1-.06,0-.88-.24-.34-.09h-.2l-.1,0H452l-.08,0h0l-.28-.07h0l-.14,0H451l-.08,0h-.06l-.08,0h-.44l-.15,0H450l-.36-.09-1.14-.29h0l-.23-.06h-.35l-.09,0h0l-.55-.13h-.4l-.39-.09-1-.25h0l-.54-.13h-.51l-.07,0h0l-.68-.16h-.36l-.19,0h0l-.42-.09h-.37l-.07,0h-.27l-.38-.08h-.06l-1.36-.3-.27-.06h-.56l-.1,0H439l-.18,0h-.05l-.21,0h-.49l-.45-.09-1.27-.26-.6-.12-1.37-.28-.35-.07h0l-.2,0h-.28l-.1,0h-.15l-.08,0h-1l-.42-.08-1.85-.35h-.78l-.19,0h0l-.12,0h0l-.12,0h-.78l-.6-.11-1.46-.27-.09,0-.51-.09h-.82l-1-.18h-.27c9.41-11.27,30.32-14.52,46.07-14.25-6.23-7.29-27.14-10.81-32.27-17.88,10.77-7.29,24.2-5.9,34.72-9.74L447.24,450.4c10.71-7.91,29.66-6.23,43-4.88-7.8-13.16-15-16.51-22.24-28.76,13.31.31,27.12.87,37.29,6.33-7-17.21-23.86-28.44-30.84-43.16l23.17,2.44C491,374.83,482.48,366,478.4,357.09L501.72,360l-9.12-13.87a142.16,142.16,0,0,1,56.56,19.06l-5.5-17.29c12.09,3.54,10.87,4.71,19.1,9.62L560,318.49c10.75,3,19.48,9.77,27.38,15.31,2.69-3.8,4.5-5.34,7.1-9.45l2.91-.07,2.91.07c2.6,4.1,4.4,5.64,7.1,9.45,7.9-5.54,16.62-12.26,27.38-15.31l-2.8,39.05c8.24-4.9,7-6.07,19.1-9.62l-5.5,17.29a142.17,142.17,0,0,1,56.56-19.06L693,360l23.33-2.94c-4.08,8.93-12.55,17.74-19.16,25.27l23.17-2.44c-7,14.73-23.81,26-30.84,43.16,10.17-5.46,24-6,37.29-6.33-7.25,12.26-14.44,15.61-22.24,28.76,13.3-1.35,32.24-3,43,4.88l-24.38,16.54c10.52,3.84,23.95,2.45,34.72,9.74-5.13,7.07-26,10.59-32.27,17.88,15.74-.27,36.66,3,46.07,14.25h-.27l-1,.18h-.82l-.51.09-.09,0-1.46.27-.6.11h-.78l-.12,0h0l-.12,0h0l-.19,0h-.78l-1.85.35-.42.08h-1l-.08,0h-.15l-.1,0h-.28l-.2,0h0l-.35.07-1.37.28-.6.12-1.27.26-.45.09h-.49l-.21,0h-.05l-.18,0h-.05l-.1,0H755l-.27.06-1.36.3h-.06l-.38.08h-.27l-.07,0h-.37l-.42.09h0l-.19,0h-.36l-.68.16h0l-.07,0h-.51l-.54.13h0l-1,.25-.39.09h-.4l-.55.13h0l-.09,0h-.35l-.23.06h0l-1.14.29-.36.09h-.21l-.15,0h-.44l-.08,0h-.06l-.08,0h-.43l-.14,0h0l-.28.07h0l-.08,0h-.32l-.1,0h-.2l-.34.09-.88.24-.06,0-.35.1H740l-.08,0h-.66l-.13,0-.11,0-.89.26h-.05l-.3.09h0l-.9.27-.1,0-.12,0h0l-.1,0-.11,0-.9.27-.24.07h-.81l-.06,0h-.64l-.31.1h-.22l-.16.05-.15,0-.89.29,0,0-.06,0h-.25l-.07,0h0l-.05,0h-.68l-1,.33-.19.06h0l-.7.24h0l-.15.05-.15.05-.71.25-.14,0-.15.06-.71.26-.19.07h-1.52l-.05,0H725l-.11,0-.06,0-.06,0-.06,0-.06,0-.06,0-.05,0h0l-.06,0-.06,0-.06,0-.06,0-.06,0-.06,0-.06,0-.11,0-.06,0-.06,0h-.06l-.06,0-.06,0-.05,0-.05,0-.06,0-.05,0-.06,0-.05,0-.05,0-.05,0-.05,0h0l0,0-.05,0-.05,0-.05,0-.05,0-.05,0-.05,0-.05,0-.05,0-.05,0-.05,0,0,0-.06,0-.05,0-.05,0-.05,0-.05,0-.05,0-.05,0-.05,0-.05,0-.05,0-.05,0H722l-.05,0-.05,0-.05,0-.05,0-.05,0-.05,0-.05,0-.05,0-.05,0-.05,0-.05,0h0l0,0h0l0,0,0,0h-.08l0,0H721l0,0,0,0h-.08l-.08,0h-.15l0,0h-.15l0,0h-.11l0,0h-.15l0,0h-.19l0,0h-.15l0,0h-.07l-.07,0h0l0,0h-.18l0,0H719l-.11,0-.08,0-.08,0-.08,0-.08,0-.08,0-.07,0h0l-.08,0-.24.1-.08,0-.08,0-.08,0h0l-.06,0-.08,0-.08,0-.08,0-.08,0-.08,0-.13.05h0l-.08,0-.08,0-.08,0-.08,0-.08,0-.08,0-.07,0h0l-.08,0-.08,0-.08,0-.08,0-.08,0-.08,0-.08,0h0l-.06,0-.08,0-.08,0-.08,0-.08,0-.08,0-.08,0,0,0h0l-.08,0-.08,0-.08,0-.08,0-.08,0-.08,0-.07,0h0l-.08,0-.08,0-.08,0-.08,0-.08,0-.08,0-.08,0h0l-.06,0-.08,0-.08,0-.08,0-.08,0-.08,0-.08,0,0,0-.58.22-.58.22h0s38-.09,47.59,2.72-8.48-1.92-31.77,9.43h0l.66-.08.6-.07h1.09l.27,0h.08l.51,0h.07l.26,0h.92l.28,0h.9l.23,0h.07l.48,0h0l.43,0h0l.71,0h0l.41,0,.43,0H737l.57,0h3.58l.64,0h0l.41,0h.08l.52,0,.4,0h.16l.32,0H744l.33,0h.46l.29,0h1l.29,0h.81l.35,0h.7l.29,0H749l.21,0h.12l.27,0h.07l.15,0h.67l.24,0H751l.19,0h.4l.17,0h.11l.35.07h.2l.1,0h.14l.31.06H753l.08,0h.62l.09,0h.06l.23.05h.19l.32.08h.31l.23.06h.07l.39.1h.2l.12,0h.15l.28.07h.1l.15,0h.22l.24.07h.24l.2.06h.29l.28.08h.36l.15,0h.23l.38.12h.39l.27.09H760l.14,0h.14l.06,0h0l.27.09h.2l.21.07h.37l.21.07H762l.24.08h.18l.4.14H763l.08,0h.17l.2.07h.24l.16.06h.19l.05,0h0l.11,0h.05l.11,0h.18l.08,0h.12l.15.06h.25l.2.08h.35l.21.08h.1l.07,0h.29l.07,0h0l.07,0h.2l.12,0h.15l.28.12,0,0,0,0,0,0,0,0,0,0,0,0,.26.11,0,0,0,0,0,0,0,0,0,0,0,0,0,0,0,0,0,0,0,0,0,0,0,0,0,0,0,0,.26.11,0,0,0,0,0,0,0,0,0,0,0,0,0,0,0,0,0,0,0,0,0,0,0,0,0,0,0,0,0,0,.23.1,0,0,0,0,0,0,0,0,0,0,0,0,0,0,0,0,0,0,.14.06H770l.15.07h.37l0,0h.29l.13.06H771l.3.14h.5l.52.25h.17c-19.53.9-56,6.24-69.86,14.45,27.74,21.11,43.55,20.36,66.16,25.55,12.32.6,25.89,10.71,34.4,17.67-3.29,5,2.41,3.33-19.85-.52-7.89-1.36-13.85-2.52-22-2.09,9.89,4.66,26.26,44.92,30.74,51,.34.45.75,1,1.12,1.46s.88,1,1.29,1.42c2.91,3.06,1.42,1.73,4.74,4L807.78,674,769,660.79l15.85,42.32c-12-9.66-26.65-17.3-40.26-28.15-10-8-29.49-27.3-41.3-29.07,14.57,11.77,23,16.65,34.25,33.69,12.88,19.44,9.64,28.7,17.43,47.94-18-11.88-45.43-45.53-61.2-64.27,3,25.55,1.71,34-1.84,59.65-7.76-2.06-22.21-19.72-30.37-25.47,8.79,31.87,13.77,34.1,11,75.85-9.11-17.12-18.42-31.75-33.38-39.83-1.46-7-1.35-4.37-3.64-9.87-1.3-15-5.48-31.42-8.4-46.22-4.27-21.58-5.33-21.67-17.13-34.1C609.24,660.82,608.06,679.15,597.36,688.85Zm-67-204.93-4.48-2.25c-7.25,12.51-18.46,19.3-28.2,15.88-11.78-4.14-17.2-21.74-12.83-40.25-1-.43-2-.83-3.17-1.21C468.22,505,518.11,517.63,530.4,483.92ZM602,610.53c1.18-2.64,4.58-9.27,11.31-19.93,5.57-8.82,13.54-19.75,22.91-28.24a73.74,73.74,0,0,1,31.11-15.93c8-1.72,13.51-2.82,17.28-2.72h0c9.7-.87,2.61-2.22,2.61-2.22-3.36-.55-16.22,1.13-19.6,2.06-36.65,10.07-50.09,34-67.6,66.59C600,610.13,597.93,616.93,602,610.53Zm-9.23,0c-1.18-2.64-4.58-9.27-11.31-19.93-5.57-8.82-13.54-19.75-22.91-28.24a73.74,73.74,0,0,0-31.11-15.93c-8-1.72-13.51-2.82-17.28-2.72h0c-9.7-.87-2.61-2.22-2.61-2.22,3.36-.55,16.22,1.13,19.6,2.06,36.65,10.07,50.09,34,67.6,66.59C594.72,610.13,596.8,616.93,592.75,610.53ZM582,493.92c-2-.48-5.5,2.54-7.86,6.76s-2.65,8-.67,8.5,5.5-2.54,7.86-6.76S584,494.4,582,493.92Zm30.65,0c2-.48,5.5,2.54,7.86,6.76s2.65,8,.67,8.5-5.5-2.54-7.86-6.76S610.7,494.4,612.69,493.92Zm-50.13-177a64.72,64.72,0,0,0-2.45-15.43c-.5-1.85-1-3.68-1.51-5.53,11.18,5.37,23.2,20.88,32.85,28.83-1.46,2-3.06,3.92-4.59,5.9C579.11,325.25,571.66,319.93,562.56,316.94Zm-17.11,29.18c-.41-10.35-3.93-16.55-9.66-24.81a53.89,53.89,0,0,1-6.6-11.51,44.55,44.55,0,0,1,10.75,3.67c6.38,2.92,11.16,5,17.87,5.8l2.43,34c-1.2-.81-2.38-1.64-3.62-2.43A42.81,42.81,0,0,0,545.45,346.12ZM492,343.84c-.72-2.73-1.67-5.62-3.49-7.67-.64-.72-1.36-1.38-2-2.1l0,0c10.1.67,19.71,3.52,29.29,6.9,4.84,1.7,9.65,3.54,14.53,5.1a55.26,55.26,0,0,0,11.29,2.57l3.76,11.84a145,145,0,0,0-52.45-16.51Zm-15.28,10.79a14.05,14.05,0,0,0-2.71-6c-.34-.39-.71-.75-1.08-1.12,1.09.22,2.18.41,3.27.56a104.73,104.73,0,0,0,14.12.57h1.24l5.66,8.61Zm-2.59,23c-.1-.87-.19-1.75-.26-2.62-.07-1,.09-2.13-.9-2.91a2.17,2.17,0,0,0-2.25-.29c-.31-.31-.62-.67-.78-.85a30,30,0,0,0-5-4.27c-2-1.49-4.08-3-6-4.57-.49-.41-1-.84-1.47-1.29H477.8c3.65,6.65,9.1,12.89,14.27,18.68Zm-6,36.88a18.55,18.55,0,0,0-.82-1.94c-3.87-7.87-13.19-12.89-20.61-16.89-4.87-2.62-11.89-6.09-16.45-10.4,5.48-.15,10.9-.54,16.4-1,8.61-.75,16.95-1.37,25.61-1.37h1.16c3.79,7,9.51,13.19,14.71,19.13,4.55,5.19,9.1,10.55,12.48,16.59C490.5,415.09,478.43,414.77,468.13,414.53Zm35.72,310.35c5.52-1.82,13.17-9.5,17.17-13.39,2.43-2.37,4.84-4.76,7.31-7.08l.63-.59c-1.05,3.56-2.15,7.1-3.26,10.65-1.41,4.5-2.82,9-3.92,13.61-3.55,14.85-2.9,30.22-1.9,45.33l.52,7.82,3.68-6.92c7.1-13.35,15.33-27.49,28-36.2-6.1,24.27-19.53,53.51-37.59,70.75.46-4,1-8.06,1.35-12.1a114.06,114.06,0,0,0-.92-30.22c-.41-2.52-.6-5.25-.87-7.81-.44-4.16-.94-8.32-1.6-12.45a73.91,73.91,0,0,0-3.38-14.14C508.11,729.54,506.5,726.23,503.85,724.88Zm-62.74,4.37a118.76,118.76,0,0,0,16.52-13.93c6.28-6.11,12.26-12.58,18.09-19.12,7.57-8.5,14.87-17.21,22.18-25.92a160.91,160.91,0,0,0-.78,22.57c.45,10.1,2,20.32,3.41,30.33l.16,1.15c-2.94.49-6.24,3.62-8.12,5.46a128.53,128.53,0,0,0-10.21,11.62c-3,3.78-5.93,7.65-8.76,11.57-1.72,2.39-3.53,4.88-5.09,7.38-4.58,7.34-9.06,14.15-12.69,22.06-1.86,4-3.29,8.15-5,12.23-.44,1-.9,2.06-1.4,3ZM408.56,707l2.67-2.14c6.12-4.92,12.78-9.21,19.35-13.5,7.14-4.65,14.23-9.33,20.9-14.64,3.84-3.06,9.57-8.27,15.74-13.42a103.4,103.4,0,0,0-11.94,15.06,75.27,75.27,0,0,0-11.21,25.9c-.84,3.48-1.57,7-2.48,10.46a97.18,97.18,0,0,1-3.95,12l-.85,2.11c-10.82,2.77-20.12,12.18-29.35,18a118.08,118.08,0,0,1-25.27,12.19c1.52-2.15,3.1-4.25,4.66-6.35,3.25-4.38,6.48-8.75,9.44-13.33C402.63,729.4,407.59,718.81,408.56,707Zm-22.22-30.43,35.59-12.14-14.7,39.25-1,.09c-9.07.78-19.3,5.35-27.74,8.73-8,3.22-16.32,6.39-24.88,8,.87-.76,1.77-1.5,2.71-2.25,2.21-1.74,4.43-3.4,6.54-5.26a57.18,57.18,0,0,0,7.44-8c3.28-4.25,7.17-8,10.28-12.39a29.48,29.48,0,0,0,5.74-15.34Zm31-129.28,4.74.22a270.34,270.34,0,0,1,32.32,3.66,210,210,0,0,1,21.11,4.57A81,81,0,0,1,487.9,560a114.25,114.25,0,0,1-21.37,12.57,103.63,103.63,0,0,1-20.4,6.31c-6.83,1.45-13.72,2.57-20.53,4.13-12.61.71-26,10.43-35.51,18.16l-1.56,1.27,1.1,1.68c.74,1.14,1.21,2.84,2.29,3.59,1.58,1.09,4,.2,5.72-.22,4.67-1.15,9.34-2.09,14.08-2.91a123.91,123.91,0,0,1,15.65-2.08c-5.28,6-10.56,16.25-13.08,21.11-2.84,5.47-5.53,11-8.25,16.54-1,2.08-2.06,4.17-3.15,6.23a28.94,28.94,0,0,1-2.07,3.54c-.33.45-.67.92-1,1.35s-.8.89-1.2,1.32a28.24,28.24,0,0,1-2,2.13c-.66.54-1.65,1.12-2.37,1.62l-.43.3-9.82,18.18c-13,.47-28,11.19-39.29,20.17l10.23-30.45,6.92-11.35.08-.32C364.2,644,369,637.56,374,630.06c5.7-8.67,13.26-12.14,14.6-23.54l.28-2.41L386.4,604a35.67,35.67,0,0,0-16.92,3.08c-2.06.9-3.95,1.78-5.91,2.56,4.2-9,13.57-22.88,19.46-26.49l.72-.44.25-.81c2.31-7.69,9.84-13.39,15.55-18.62a60.36,60.36,0,0,1,8.52-6.52,36.08,36.08,0,0,0,5.92-4.17A14.29,14.29,0,0,0,417.36,547.28Zm2.76-36.72,2.6.45,2.1.37.51.09,2.15.39,2,.36h.07l1.85.35.42.08,1.64.32.43.09,1.48.3.6.12,1.73.36,1.63.35,1.68.37.38.08,1.56.35,1.43.33.53.13,1.45.34,1.39.34.23.06,1.16.29.36.09,1.32.34,1.28.34.33.09.94.25.35.1,1.19.33.12,0,1,.3.29.09,1.21.36,1.25.38,2,.63.15,0,1.13.37c.37.12.73.26,1.11.37l1.09.37,1.05.36.84.3.15.05.9.32,1.74.64.11,0c.5.18,1,.38,1.47.58q-6.75.12-13.48.39c-4.46.18-8.94.41-13.39.82a54.31,54.31,0,0,0-9.8,1.51c-1.64.48-4.51,1-4.19,3.38s3.13,2.14,4.83,2.24c2.42.15,4.81.37,7.21.71a79.14,79.14,0,0,1,10.88,2.35h-.23l-.57,0-.4,0-.81.05-.33,0-.84.07h-.19l-.82.08-.29,0-.85.1-.35,0-.71.09-.33,0-.83.12-.27,0-.94.16-.24,0-.84.16-.17,0-1,.19-.31.06-1,.21-.23.05-.84.2-.23.06-1,.25-.28.07-1,.28-.2.06-.95.28-.15,0-1,.32-.27.09-1,.34-.21.07-.92.32-.24.08-1.1.4-.2.07-1.16.44-.08,0-1.09.43-.21.08-1.11.46-.28.12q-1.22.51-2.43,1.06L424,542l-1.2.55-.3.14-1.21.57-3.08,1.48c.2-.75.37-1.51.53-2.27l.55-2.68H416.5c-4.4,0-8.75.21-13.13.61-3.53.32-7,.77-10.57,1.14-1.82.19-3.64.35-5.45.46,4.83-5.22,9.58-10.51,14.79-15.35a44.68,44.68,0,0,1,9.24-6.85c1.76-.94,4-1.77,5.51-3.05C418.59,515.28,419.53,512.95,420.12,510.56Zm14.78-32.84.2.27c3.35,4.61,12.35,7.87,17.56,10a91.34,91.34,0,0,1,10,4.46c-14.51.64-32.36,4.31-41.25,15l-.8,1c.15-.85.28-1.67.4-2.43l.41-2.58h-22c2.35-1.94,5-3.79,7.1-5.2,3.12-2.14,6.3-4.17,9.45-6.27a58,58,0,0,1,6.53-3.75c1.51-.75,3-1.5,4.4-2.36a21.28,21.28,0,0,1,4.9-2.32c1-.28,1.9-.11,2.7-1.06s.54-2,.47-3.07C434.89,478.8,434.88,478.26,434.9,477.73Zm12.45-24.55,19.12,13c-4.1,1-8.44,1.48-12.49,2.18-6.53,1.13-12.75,2.75-18.32,6.52l-.58.39c0-.34.07-.68.11-1l.28-2.3-2.31-.19c-7.19-.59-14.07-2.77-21.15-4.05l4-2.7c3.06-2,6.22-3.13,9.58-4.55a122.48,122.48,0,0,1,20-6.48l1.73-.4Zm150,241.64c.24,0,3.1-.36,4.4,4.33,2.27.49-.38,51.3,1.07,55.23,8.67,23.51,11.42,38.71,14.48,48.77,6,7.43,7.64-88.51,15.61-83.67-1.64-14-5.21-27.9-7.93-41.67-.89-4.48-1.78-9.12-3.06-13.51a30.54,30.54,0,0,0-3.16-7.58,51.58,51.58,0,0,0-6.74-8.18c-.73,14-5,36.41-14.68,46.29-.24,0-3.1-.36-4.4,4.33-2.27.49.38,51.3-1.07,55.23-8.67,23.51-11.42,38.71-14.48,48.77-6,7.43-7.64-88.51-15.61-83.67,1.64-14,5.21-27.9,7.93-41.67.89-4.48,1.78-9.12,3.06-13.51a30.54,30.54,0,0,1,3.16-7.58,51.56,51.56,0,0,1,6.74-8.18C583.42,662.49,587.65,684.93,597.36,694.81Zm34.81-377.87a64.72,64.72,0,0,1,2.45-15.43c.5-1.85,1-3.68,1.51-5.53-11.18,5.37-23.2,20.88-32.85,28.83,1.46,2,3.06,3.92,4.58,5.9C615.61,325.25,623.06,319.93,632.17,316.94Zm17.11,29.18c.41-10.35,3.93-16.55,9.67-24.81a53.88,53.88,0,0,0,6.6-11.51,44.55,44.55,0,0,0-10.75,3.67c-6.38,2.92-11.16,5-17.87,5.8l-2.43,34c1.2-.81,2.38-1.64,3.62-2.43A42.81,42.81,0,0,1,649.28,346.12Zm53.48-2.28c.72-2.73,1.67-5.62,3.49-7.67.64-.72,1.36-1.38,2-2.1l0,0c-10.1.67-19.71,3.52-29.29,6.9-4.84,1.7-9.65,3.54-14.53,5.1a55.27,55.27,0,0,1-11.29,2.57l-3.76,11.84a145,145,0,0,1,52.45-16.51ZM718,354.63a14.05,14.05,0,0,1,2.71-6c.34-.39.71-.75,1.08-1.12-1.09.22-2.18.41-3.27.56a104.73,104.73,0,0,1-14.12.57h-1.24l-5.66,8.61Zm2.59,23c.1-.87.19-1.75.26-2.62.07-1-.09-2.13.9-2.91a2.17,2.17,0,0,1,2.25-.29c.31-.31.62-.67.78-.85a30,30,0,0,1,5-4.27c2-1.49,4.08-3,6-4.57.49-.41,1-.84,1.47-1.29H716.93c-3.65,6.65-9.1,12.89-14.27,18.68Zm6,36.88a18.65,18.65,0,0,1,.82-1.94c3.87-7.87,13.19-12.89,20.61-16.89,4.87-2.62,11.89-6.09,16.45-10.4-5.48-.15-10.9-.54-16.4-1-8.61-.75-16.95-1.37-25.61-1.37h-1.16c-3.79,7-9.51,13.19-14.71,19.13-4.55,5.19-9.1,10.55-12.48,16.59C704.23,415.09,716.3,414.77,726.6,414.53ZM690.88,724.88c-5.52-1.82-13.17-9.5-17.17-13.39-2.43-2.37-4.84-4.76-7.31-7.08l-.63-.59c1.05,3.56,2.15,7.1,3.26,10.65,1.41,4.5,2.82,9,3.92,13.61,3.55,14.85,2.9,30.22,1.9,45.33l-.52,7.82-3.68-6.92c-7.1-13.35-15.33-27.49-28-36.2,6.1,24.27,19.53,53.51,37.59,70.75-.46-4-1-8.06-1.35-12.1a114,114,0,0,1,.92-30.22c.41-2.52.59-5.25.87-7.81.44-4.16.94-8.32,1.6-12.45a73.93,73.93,0,0,1,3.38-14.14C686.62,729.54,688.23,726.23,690.88,724.88Zm62.74,4.37a118.78,118.78,0,0,1-16.52-13.93c-6.28-6.11-12.26-12.58-18.09-19.12-7.57-8.5-14.87-17.21-22.18-25.92a160.91,160.91,0,0,1,.78,22.57c-.45,10.1-2,20.32-3.41,30.33l-.16,1.15c2.94.49,6.24,3.62,8.12,5.46a128.55,128.55,0,0,1,10.21,11.62c3,3.78,5.93,7.65,8.76,11.57,1.72,2.39,3.53,4.88,5.09,7.38,4.58,7.34,9.06,14.15,12.69,22.06,1.86,4,3.29,8.15,5,12.23.44,1,.9,2.06,1.4,3ZM786.17,707l-2.67-2.14c-6.12-4.92-12.78-9.21-19.35-13.5-7.14-4.65-14.23-9.33-20.9-14.64-3.84-3.06-9.57-8.27-15.74-13.42a103.39,103.39,0,0,1,11.94,15.06,75.27,75.27,0,0,1,11.21,25.9c.84,3.48,1.57,7,2.48,10.46a97.31,97.31,0,0,0,3.95,12l.85,2.11c10.82,2.77,20.12,12.18,29.35,18a118.08,118.08,0,0,0,25.27,12.19c-1.52-2.15-3.1-4.25-4.66-6.35-3.25-4.38-6.48-8.75-9.44-13.33C792.1,729.4,787.14,718.81,786.17,707Zm22.22-30.43-35.59-12.14,14.7,39.25,1,.09c9.07.78,19.3,5.35,27.74,8.73,8,3.22,16.32,6.39,24.88,8-.87-.76-1.77-1.5-2.71-2.25-2.21-1.74-4.43-3.4-6.54-5.26a57.18,57.18,0,0,1-7.44-8c-3.28-4.25-7.17-8-10.28-12.39a29.48,29.48,0,0,1-5.74-15.34Zm-31-129.28-4.74.22a270.32,270.32,0,0,0-32.32,3.66,209.91,209.91,0,0,0-21.11,4.57A80.94,80.94,0,0,0,706.83,560a114.25,114.25,0,0,0,21.37,12.57,103.63,103.63,0,0,0,20.4,6.31c6.83,1.45,13.72,2.57,20.53,4.13,12.61.71,26,10.43,35.51,18.16l1.56,1.27-1.1,1.68c-.74,1.14-1.21,2.84-2.29,3.59-1.58,1.09-4,.2-5.72-.22-4.67-1.15-9.34-2.09-14.08-2.91a123.91,123.91,0,0,0-15.65-2.08c5.28,6,10.56,16.25,13.08,21.11,2.84,5.47,5.53,11,8.25,16.54,1,2.08,2.06,4.17,3.15,6.23A28.93,28.93,0,0,0,793.9,650c.33.45.67.92,1,1.35s.8.89,1.2,1.32a28.31,28.31,0,0,0,2,2.13c.66.54,1.65,1.12,2.37,1.62l.43.3,9.82,18.18c13,.47,28,11.19,39.29,20.17l-10.23-30.45-6.92-11.35-.08-.32c-2.32-8.88-7.13-15.36-12.07-22.86-5.7-8.67-13.26-12.14-14.6-23.54l-.28-2.41,2.43-.08a35.67,35.67,0,0,1,16.92,3.08c2.06.9,3.95,1.78,5.91,2.56-4.2-9-13.57-22.88-19.46-26.49l-.72-.44-.25-.81c-2.31-7.69-9.84-13.39-15.55-18.62a60.4,60.4,0,0,0-8.52-6.52,36.09,36.09,0,0,1-5.92-4.17A14.29,14.29,0,0,1,777.37,547.28Zm-2.76-36.72L772,511l-2.1.37-.5.09-2.15.39-2,.36h-.07l-1.85.35-.42.08-1.64.32-.43.09-1.48.3-.6.12-1.73.36-1.63.35-1.68.37-.38.08-1.56.35-1.43.33-.53.13-1.45.34-1.39.34-.23.06-1.16.29-.36.09-1.32.34-1.28.34-.33.09-.94.25-.35.1-1.19.33-.12,0-1,.3-.29.09-1.21.36-1.25.38-2,.63-.15,0-1.13.37c-.37.12-.73.26-1.11.37l-1.09.37-1.05.36-.84.3-.15.05-.9.32-1.74.64-.11,0c-.5.18-1,.38-1.47.58,4.5.08,9,.21,13.48.39s8.95.41,13.39.82a54.31,54.31,0,0,1,9.8,1.51c1.64.48,4.51,1,4.19,3.38s-3.13,2.14-4.83,2.24c-2.42.15-4.81.37-7.21.71a79.13,79.13,0,0,0-10.88,2.35h.23l.57,0,.4,0,.81.05.33,0,.84.07h.19l.82.08.29,0,.85.1.35,0,.71.09.33,0,.83.12.27,0,.94.16.24,0,.84.16.17,0,1,.19.31.06,1,.21.23.05.84.2.23.06,1,.25.28.07,1,.28.2.06.95.28.15,0,1,.32.27.09,1,.34.21.07.92.32.24.08,1.1.4.2.07,1.16.44.08,0,1.09.43.21.08,1.11.46.28.12q1.22.51,2.43,1.06l.14.06,1.2.55.3.14,1.21.57,3.08,1.48c-.2-.75-.37-1.51-.53-2.27l-.56-2.68h2.74c4.4,0,8.76.21,13.13.61,3.53.32,7,.77,10.57,1.14,1.82.19,3.64.35,5.45.46-4.83-5.22-9.58-10.51-14.79-15.35a44.68,44.68,0,0,0-9.24-6.85c-1.76-.94-4-1.77-5.51-3.05C776.13,515.28,775.2,512.95,774.61,510.56Zm-14.78-32.84-.2.27c-3.35,4.61-12.35,7.87-17.56,10a91.31,91.31,0,0,0-10,4.46c14.51.64,32.36,4.31,41.25,15l.8,1c-.15-.85-.28-1.67-.4-2.43l-.41-2.58h22c-2.35-1.94-5-3.79-7.1-5.2-3.12-2.14-6.3-4.17-9.45-6.27a58,58,0,0,0-6.53-3.75c-1.51-.75-3-1.5-4.4-2.36a21.29,21.29,0,0,0-4.9-2.32c-1-.28-1.9-.11-2.7-1.06s-.54-2-.47-3.07C759.84,478.8,759.84,478.26,759.83,477.73Zm-12.45-24.55-19.12,13c4.1,1,8.44,1.48,12.49,2.18,6.53,1.13,12.75,2.75,18.32,6.52l.58.39c0-.34-.07-.68-.11-1l-.28-2.3,2.31-.19c7.19-.59,14.07-2.77,21.15-4.05l-4-2.7c-3.06-2-6.22-3.13-9.58-4.55a122.48,122.48,0,0,0-20-6.48l-1.72-.4Zm-38.5-10.31c12.45-1.13,28.22-1.73,38.51,4.78v-4.83l1.72-.4a71.59,71.59,0,0,0,9.07-2.74c3-1.12,5.89-2.35,8.87-3.46,2.29-.85,4.57-1.54,6.93-2.18a20.84,20.84,0,0,0,3.81-1.26,7.91,7.91,0,0,0,1.86-1.34A66.05,66.05,0,0,1,773,430c-5.94-1.59-11.65-3.65-17.68-5a122.65,122.65,0,0,0-27.59-2.82H726a93.35,93.35,0,0,1-7.65,9.31A105.11,105.11,0,0,0,708.89,442.86Zm-223,0c-12.45-1.13-28.22-1.73-38.51,4.78v-4.83l-1.72-.4a71.6,71.6,0,0,1-9.07-2.74c-3-1.12-5.89-2.35-8.87-3.46-2.29-.85-4.57-1.54-6.93-2.18a20.86,20.86,0,0,1-3.81-1.26,7.91,7.91,0,0,1-1.86-1.34,66,66,0,0,0,6.62-1.44c5.94-1.59,11.65-3.65,17.68-5A122.65,122.65,0,0,1,467,422.13h1.82a93.39,93.39,0,0,0,7.65,9.31A105.15,105.15,0,0,1,485.84,442.86Zm178.49,41.06,4.48-2.25c7.25,12.51,18.46,19.3,28.2,15.88,11.78-4.14,17.2-21.74,12.83-40.25,1-.43,2-.83,3.17-1.21C726.51,505,676.62,517.63,664.33,483.92ZM550.81,302.85q-.31-1.35-.68-2.72c-.49-1.85-1-3.68-1.51-5.53l-5.82-21.74,20.28,9.75c13.69,6.58,23,20.06,34.29,29.62,11.33-9.56,20.6-23,34.29-29.62l20.28-9.75-5.82,21.74c-.49,1.85-1,3.68-1.51,5.53q-.37,1.37-.68,2.72c2.18-.82,4.32-1.8,6.58-2.84a55.22,55.22,0,0,1,13.18-4.43l18.08-3.32-6.56,17.17a63.88,63.88,0,0,1-7.77,13.71,60.17,60.17,0,0,0-5.35,8.75c4.53-1.47,9-3.17,13.48-4.76,10.44-3.68,20.93-6.72,32-7.46L732,318l-13.13,15.41.91-.17,34-6.74-20.38,19.93h30.27L744.29,364.4q-.9.83-1.84,1.62c-1.3,1.08-2.63,2.1-4,3.1,3.51.23,7,.52,10.52.82,5.26.46,10.52.83,15.8,1l25,.69-18.16,17.15c-5.42,5.12-12.15,8.48-18.65,12-3.28,1.77-8.34,4.41-12.08,7.52a118.59,118.59,0,0,1,16.83,2.57c6.12,1.41,12,3.5,18,5.12a55.83,55.83,0,0,0,5.59,1.22L802,420.5l-15.21,14.38a18.19,18.19,0,0,1-4.31,3.06,29.31,29.31,0,0,1-5.75,2c-2,.55-4.06,1.16-6,1.89-1.75.65-3.49,1.35-5.23,2l2.53.91,1.42-2,.06,2.52q1.85.72,3.69,1.49c4,1.7,7.61,3,11.3,5.48l25.29,16.91-25.16,4.55c-2.33.42-4.61.92-6.87,1.43a69.07,69.07,0,0,1,6.83,4c3.19,2.12,6.41,4.18,9.57,6.35,2.68,1.84,5.34,3.69,7.85,5.76l22.14,18.3h-31a63.77,63.77,0,0,1,6.57,5.4C805,520,810,525.52,815,530.93l17.5,18.91-25.72-1.58c-2-.12-3.93-.29-5.89-.5l-3.87-.43q2.67,2,5.16,4.29c6.84,6.26,13.93,11.82,17.5,20.52,8.12,6.59,16.93,20.69,20.87,29.09l11,23.54-24.18-9.54c-1-.39-2-.82-3-1.25a54.88,54.88,0,0,1,5,6.35c5.44,8.27,10.37,15.14,13.1,24.73l6.76,11.08L871,720.73l-27.31-21.65a146.91,146.91,0,0,0-17.9-12.5c2.28,2.68,4.73,5.28,6.88,8.06a47.14,47.14,0,0,0,6.1,6.56c1.94,1.72,4,3.28,6.08,4.88,1.07.84,2.13,1.71,3.15,2.61l28.31,24.95-37.07-7c-9.28-1.76-18.06-5.07-26.79-8.57-4.07-1.63-8.91-3.74-13.75-5.41a75.05,75.05,0,0,0,8.49,17c2.83,4.39,5.95,8.59,9.06,12.78,1.61,2.17,3.23,4.33,4.79,6.53l18.26,25.77-30-10a128.26,128.26,0,0,1-27.5-13.24c-5.46-3.43-12.61-9.64-19.3-13.56L751.43,829l-15.36-30.74q-.9-1.8-1.67-3.65c-1.67-4-3.09-8-4.88-11.94-3.36-7.32-7.8-14.07-12.06-20.89-1.46-2.34-3.1-4.58-4.71-6.81q-4.09-5.68-8.45-11.17a117.24,117.24,0,0,0-9.37-10.68l-.08-.08a70.48,70.48,0,0,0-2.39,10.82c-.63,4-1.1,7.93-1.53,11.91-.3,2.8-.49,5.59-.94,8.37a105.66,105.66,0,0,0-.84,27.59c.38,4,.87,7.94,1.33,11.91L693.71,832l-20.63-19.69c-16.89-16.12-29.82-41.21-37.28-64.53-.37,3.51-.71,7-1,10.53-.94,9.75-1.78,19.58-3,29.29-1.07,8.18-2.22,21.79-13.29,22.24a11.18,11.18,0,0,1-9.15-4.27L608,804l-.58-1.9c-2-6.45-3.47-13.14-5.23-19.66q-2.22-8.25-4.84-16.34-2.62,8.1-4.84,16.34c-1.76,6.53-3.27,13.21-5.23,19.66l-.58,1.9-1.24,1.55a11.18,11.18,0,0,1-9.15,4.27c-11.08-.45-12.22-14.06-13.29-22.24-1.27-9.71-2.1-19.54-3-29.29-.34-3.5-.68-7-1-10.53-7.46,23.32-20.39,48.41-37.28,64.53L501,832l3.23-28.34c.45-4,.95-7.93,1.33-11.91a105.66,105.66,0,0,0-.84-27.59c-.45-2.78-.65-5.57-.94-8.37-.42-4-.89-8-1.53-11.91a70.48,70.48,0,0,0-2.39-10.82l-.08.08a117.24,117.24,0,0,0-9.37,10.68Q486.07,749.29,482,755c-1.61,2.23-3.25,4.47-4.71,6.81-4.26,6.82-8.7,13.57-12.06,20.89-1.79,3.9-3.21,8-4.88,11.94q-.78,1.85-1.67,3.65L443.3,829l-11.06-91.12c-6.69,3.92-13.85,10.13-19.3,13.56a128.26,128.26,0,0,1-27.5,13.24l-30,10,18.26-25.77c1.56-2.2,3.18-4.37,4.79-6.53,3.11-4.19,6.22-8.39,9.06-12.78a75,75,0,0,0,8.49-17c-4.84,1.66-9.69,3.77-13.75,5.41-8.73,3.5-17.52,6.81-26.79,8.57l-37.07,7,28.31-24.95c1-.9,2.08-1.77,3.15-2.61,2-1.6,4.14-3.16,6.08-4.88a47.14,47.14,0,0,0,6.1-6.56c2.14-2.78,4.59-5.37,6.88-8.06a146.94,146.94,0,0,0-17.9,12.5l-27.31,21.65,21.7-64.59,6.76-11.08c2.74-9.58,7.67-16.46,13.1-24.73a54.87,54.87,0,0,1,5-6.35c-1,.43-2,.85-3,1.25l-24.18,9.54,11-23.54c3.94-8.4,12.75-22.5,20.87-29.09,3.57-8.7,10.66-14.26,17.5-20.52q2.49-2.28,5.16-4.29l-3.87.43c-2,.21-3.93.38-5.89.5l-25.72,1.58,17.5-18.91c5-5.41,9.93-10.88,15.34-15.91a63.79,63.79,0,0,1,6.57-5.4h-31l22.14-18.3c2.5-2.07,5.17-3.93,7.85-5.76,3.16-2.16,6.38-4.23,9.57-6.35a69,69,0,0,1,6.83-4c-2.27-.51-4.55-1-6.87-1.43L385,469.24l25.29-16.91c3.69-2.47,7.28-3.78,11.3-5.48q1.84-.78,3.69-1.49l.06-2.52,1.42,2,2.53-.91c-1.74-.69-3.48-1.39-5.23-2-2-.74-4-1.34-6-1.89a29.31,29.31,0,0,1-5.75-2,18.19,18.19,0,0,1-4.31-3.06L392.76,420.5l20.67-3.33A55.84,55.84,0,0,0,419,416c6-1.62,11.92-3.71,18-5.12a118.59,118.59,0,0,1,16.83-2.57c-3.74-3.11-8.8-5.75-12.08-7.52-6.5-3.5-13.23-6.86-18.65-12L405,371.61l25-.69c5.27-.15,10.54-.52,15.8-1,3.51-.3,7-.59,10.52-.82-1.35-1-2.69-2-4-3.1q-.94-.79-1.84-1.62L431,346.46h30.27l-20.38-19.93,34,6.74.91.17L462.7,318l24.44,1.63c11.1.74,21.59,3.78,32,7.46,4.49,1.58,9,3.29,13.48,4.76a60.18,60.18,0,0,0-5.35-8.75,63.87,63.87,0,0,1-7.77-13.71L513,292.26,531,295.58A55.22,55.22,0,0,1,544.23,300C546.5,301.05,548.64,302,550.81,302.85Zm405,431.52-11.12,10.8c3.82,5.74,4.21,4.28,10.71,1.78C958.28,739.6,959.92,739.15,955.81,734.37Zm-191,150.76a16.67,16.67,0,0,0-9.1,11.39q-2.23,9.51,4.8,23.09,6.89,13.28,16.36,17.5a16.13,16.13,0,0,0,14.62-.55,17.11,17.11,0,0,0,9.37-11.89q2.07-9.37-4.55-22.13-5.1-9.82-11.56-15a19.08,19.08,0,0,0-10.08-4.45A17.59,17.59,0,0,0,764.77,885.13Zm-103.89,91a45.74,45.74,0,0,0,10.47-.62c5.41-1,9.31-2.92,11.72-5.86a11.63,11.63,0,0,0,2.64-9.78,13.41,13.41,0,0,0-3.14-6.46,13.1,13.1,0,0,0-7.19-4,27.5,27.5,0,0,0-11.08,0c-1.85.33-3.43.64-4.74.93a24.07,24.07,0,0,0-3.12.89Zm-5.18-29a34.13,34.13,0,0,0,3.88-.2c1.44-.15,3-.38,4.71-.68,4.36-.78,7.56-1.82,9.58-3.16a10.64,10.64,0,0,0,4.27-5.23,12.29,12.29,0,0,0,.61-6.67,11.81,11.81,0,0,0-6-8.31q-5-3-13.35-1.5a31,31,0,0,0-7.9,2.42Zm-145.49,4.65L506,925l-16.38,21.64Zm-115-89.41a16.28,16.28,0,0,0-14.45-2.43q-9.45,2.79-17.78,15-8.54,12.48-7.8,22.84a16,16,0,0,0,7.32,12.52,17.9,17.9,0,0,0,15.68,2.5q8.5-2.4,16.75-14.45,8.93-13.06,8.18-23Q402.52,867.3,395.24,862.32Zm-157-127.84,11.12,10.8c-3.82,5.74-4.21,4.28-10.71,1.79C235.75,739.7,234.11,739.25,238.21,734.48Zm23.54,46.26,3.15-15.23L256,784.42l-7.78,5,1-31.69L235.38,786.4l3.69-30.66-14.54,17.85,6.54-31.07-13.68,14.15,4.66-27.79c-10.62,13.76-13.44,9.35-14.1,2.59a2.74,2.74,0,0,0,2,1.18c2.32.22,5-2.35,5.92-5.76.83-3.07-.08-5.8-2-6.41a52.59,52.59,0,0,1,9.24-7.69c7.06-23.3,14.84-43.35,24.08-57-8.93,21.84-12.79,35.33-16.11,55.46l9.41,13.61c2.33-4.09,10.78-14.65,18.43-18.89-4.3,5.57-9.8,20.16-11,28.95l10.5,7.49c7.43,5.51,14.91,11,22.32,16.5l7.49-19.68c-.64,8,1,15.61.38,23.6l.38.36Zm29.44,72.69,21.12-53.08L282.47,828.8c-2.74,2.62-4.17,4.54-4.29,5.79-.15,1.69.62,3.42,2.29,5.17l1.5,1.57-1.21,1.16L265.94,827l1.21-1.16,1.5,1.57q2.7,2.83,5.56,2.38c1.16-.18,3-1.48,5.49-3.86l29.18-27.82a14.14,14.14,0,0,0,3.66-4.74,5.08,5.08,0,0,0,0-3.22,12.63,12.63,0,0,0-3.14-4.58l1.23-1.17L322.66,797l-19.5,49.52,50.14-17.39,12.06,12.64L364.13,843l-1.48-1.55q-2.73-2.87-5.57-2.42c-1.17.19-3,1.47-5.51,3.86L322.4,870.68c-2.74,2.62-4.15,4.56-4.25,5.83q-.22,2.53,2.28,5.16l1.48,1.55-1.21,1.16-18.09-19,1.21-1.16,1.51,1.58q2.73,2.87,5.56,2.38c1.16-.18,3-1.48,5.49-3.86l29.84-28.46-54,18.61Zm106.63,6.64q9.92,6.79,12,19.28t-5.59,23.76q-7.95,11.61-20.51,14.25a29.65,29.65,0,0,1-35.52-24q-2-12.37,6.08-24.24,8.3-12.13,21.8-14.14A29.55,29.55,0,0,1,397.81,860.07Zm75.72,42.71L412.73,939l23.06,10.41q5.31,2.4,9.19,1.35c2.6-.7,5.7-3.07,9.29-7.14l1.26.86-9.37,13.7-45.79-20.67.69-1.53,59.26-35.06-18-8.12q-4.48-2-6.93-2a7.61,7.61,0,0,0-4.35,1.44c-1.26.91-2.94,2.92-5,6l-1.57-.71L431.94,884Zm37.11,52.52-23.19-5.71L481.06,958a15.17,15.17,0,0,0-2.79,4.85,3.13,3.13,0,0,0,.71,2.72c.7.91,2.46,1.82,5.31,2.75l-.4,1.63L465,965.34l.4-1.63c2.61.16,4.37,0,5.28-.54,1.85-1,4.22-3.5,7.11-7.38L511,911.68l1.54.38,8.58,55q1,6.64,2.65,8.92a9.67,9.67,0,0,0,5.23,3.43l-.4,1.63L505,975.18l.4-1.63c2.41.47,4.13.46,5.14,0a3.13,3.13,0,0,0,1.88-2.16c.32-1.3.22-3.48-.27-6.58ZM578.71,985l-21.85-52.79-1.57,41.2c-.14,3.79.17,6.16,1,7.14,1.07,1.31,2.83,2,5.25,2.11l2.17.08-.06,1.68-21.45-.81.06-1.68,2.17.08c2.61.1,4.48-.62,5.65-2.16.7-.94,1.11-3.14,1.25-6.59L552.82,933a14.14,14.14,0,0,0-.68-5.95,5.09,5.09,0,0,0-2.26-2.29,12.64,12.64,0,0,0-5.44-1.09l.06-1.69,17.46.66,20.53,49.1,23.84-47.42,17.46.66-.06,1.69-2.14-.08c-2.64-.1-4.53.62-5.68,2.15-.7,1-1.13,3.14-1.26,6.6l-1.53,40.29c-.14,3.79.2,6.16,1,7.14q1.6,2,5.24,2.11l2.14.08-.06,1.68-26.2-1,.06-1.68,2.19.08c2.64.1,4.52-.62,5.65-2.16.7-.94,1.11-3.14,1.25-6.59l1.57-41.2-25.75,51Zm100.9-39.66q6.57.2,10.23,2.61a13.59,13.59,0,0,1,6.14,9.3,15.28,15.28,0,0,1-1.33,9.18,16.58,16.58,0,0,1-6.78,7.44q-4.66,2.8-14.9,4.63L644.3,983.6l-.29-1.65,2.28-.41q3.81-.68,5-3.41c.5-1.16.46-3.44-.15-6.85l-7-39.25q-1-5.64-2.57-6.88a6.69,6.69,0,0,0-5.55-1l-2.28.41-.3-1.67,26.24-4.68a52.45,52.45,0,0,1,12-1q7,.41,11.28,3.87a14.25,14.25,0,0,1,5.22,8.8,13.3,13.3,0,0,1-1.31,8.67A16.64,16.64,0,0,1,679.6,945.31Zm64.72,11.84.54,1.59-25.06,8.45-.54-1.59,2.08-.7q3.62-1.22,4.54-3.89c.38-1.15,0-3.49-1.19-7L712,916.24a20.57,20.57,0,0,0-2.53-5.67,4.15,4.15,0,0,0-2.39-1.26,8.61,8.61,0,0,0-4.32.31l-2.08.7-.54-1.6,25.06-8.45.54,1.6-2.12.71c-2.38.8-3.88,2.1-4.5,3.86-.41,1.17,0,3.5,1.15,7L733,951.23a20.58,20.58,0,0,0,2.53,5.67,4.12,4.12,0,0,0,2.44,1.24,8.37,8.37,0,0,0,4.28-.28Zm55-22q7.81,5,14.33,5.84a24.22,24.22,0,0,0,12.87-1.81l.67,1.3a49.88,49.88,0,0,1-13.08,3.93,57.93,57.93,0,0,1-15,.58,66.4,66.4,0,0,1-13.78-2.61,43.73,43.73,0,0,1-11.78-.19A30.6,30.6,0,0,1,761,936.51a35,35,0,0,1-9.74-12.09q-6.37-12.28-2.63-24.53a29.31,29.31,0,0,1,15.07-18.11q10.73-5.57,22.82-1.51T805,896.73a32.67,32.67,0,0,1,3.56,20.55A31.1,31.1,0,0,1,799.33,935.13Zm30.16-96.38-1.05-1.32,17.09-13.62,1.06,1.32-1.82,1.45a6.25,6.25,0,0,0-2.48,5.86c.09,1.14,1.19,3,3.33,5.73l15.59,19.57q5.79,7.27,7.54,12.4a18.1,18.1,0,0,1-.18,11.39q-1.95,6.23-9.2,12-7.91,6.3-14.18,6.81a18.92,18.92,0,0,1-11.67-2.74q-3.66-2.27-10.62-11l-15-18.86c-2.36-3-4.31-4.59-5.87-4.85s-3.24.32-5.06,1.77l-1.82,1.45-1.06-1.32,20.86-16.62,1.05,1.32L814.13,851c-2,1.59-2.93,3.35-2.78,5.29.08,1.32,1.21,3.34,3.36,6l16.76,21a59.81,59.81,0,0,0,5.64,6,17.73,17.73,0,0,0,6.38,4.17,12.93,12.93,0,0,0,6.56.23,17.09,17.09,0,0,0,7.3-3.65,22,22,0,0,0,6.82-8.81,14.12,14.12,0,0,0,.9-9.36q-1.2-4.31-7.32-12l-15.57-19.55c-2.4-3-4.24-4.62-5.5-4.86a6.72,6.72,0,0,0-5.38,1.72ZM866,807.46l18.46,15.93,8.86-10.27q3.45-4,3.41-6.37c0-2.11-1.31-4.37-3.86-6.82l1.1-1.27,16.27,14-1.1,1.27a23.61,23.61,0,0,0-5.21-2.81,5.71,5.71,0,0,0-3.65.4,13.69,13.69,0,0,0-4.44,3.74l-8.86,10.27,15.41,13.29a19.47,19.47,0,0,0,4,3,2.94,2.94,0,0,0,1.9,0,7.93,7.93,0,0,0,2.65-2.29l6.84-7.93a27.82,27.82,0,0,0,4.41-6.23A11.21,11.21,0,0,0,923,820a35.12,35.12,0,0,0-2.67-9.93l1.19-1.38,8.25,14.13-31.06,36-1.27-1.1,1.43-1.66a8.64,8.64,0,0,0,1.9-3.82,3.84,3.84,0,0,0-.35-2.93,21.94,21.94,0,0,0-4.18-4.28l-30.36-26.18c-3-2.56-5-3.83-6.25-3.83q-2.44,0-4.94,2.94l-1.43,1.66-1.28-1.11,31.06-36,10.68,8.31-1.17,1.35a21.15,21.15,0,0,0-6.44-2.76,7.26,7.26,0,0,0-4.35.78,20.75,20.75,0,0,0-4.71,4.41Zm66.33-26.82-3.15-15.22,8.87,18.9,7.78,5-1-31.69,13.91,28.66L955,755.63l14.55,17.85L963,742.41l13.69,14.15L972,728.76c10.62,13.75,13.45,9.35,14.1,2.59a2.74,2.74,0,0,1-2,1.18c-2.32.23-5-2.35-5.92-5.76-.83-3.07.07-5.8,2-6.41a52.57,52.57,0,0,0-9.25-7.69c-7.07-23.3-14.85-43.34-24.1-57,8.94,21.84,12.8,35.33,16.13,55.46l-9.4,13.61c-2.33-4.09-10.79-14.65-18.43-18.88,4.3,5.57,9.81,20.16,11,28.94l-10.5,7.49c-7.43,5.51-14.9,11-22.31,16.51l-7.5-19.68c.64,8-1,15.61-.38,23.6l-.38.36Zm-320.87-8.57c-.09.09.26.26.28.28ZM269.49,219.63h12.63q3.14,12.11,10.36,19a24,24,0,0,0,17.07,6.83c3.94,0,7.12-1,9.49-3a9.84,9.84,0,0,0,3.57-7.89q0-7.54-15.5-12.66c-3.35-1.07-6-2-7.9-2.68q-9.31-3.36-14.35-5.7a28.34,28.34,0,0,1-15.09-14.93,32.49,32.49,0,0,1-2.53-13.1q0-15.79,9.8-25.5t25.87-9.69a58.22,58.22,0,0,1,15.24,1.9A53.72,53.72,0,0,1,331.87,158l2.37-5.26h12.56v36.42H332.07c-1.44-7.45-4.16-13-8.17-16.62s-9.34-5.47-16-5.47a14.53,14.53,0,0,0-9.67,3.2,9.94,9.94,0,0,0-3.79,7.87q0,7,14.55,10.63c2.37.63,4.22,1.09,5.55,1.46Q334.8,195.83,343,204.1t8.17,22.53q0,15.86-10,25.29T314,261.36a53.23,53.23,0,0,1-15-2.11,60.14,60.14,0,0,1-14.28-6.36l-3.24,5.81h-12Zm133.13-10.16-8-31.75-7.47,31.75Zm86.62-12.95H494c4.64,0,8-1.15,10.15-3.46s3.18-6,3.18-10.89-1-8.39-3-10.52-5.29-3.15-9.93-3.15h-5.23Zm0,47h5.62c5.31,0,9.12-1.33,11.43-4s3.44-7,3.44-13.05q0-8.32-3.64-12.3c-2.44-2.63-6.23-4-11.37-4h-5.49Zm-36.73-.16h.76c2.9,0,4.79-.39,5.7-1.22s1.37-3.15,1.37-7v-58c0-4.06-.44-6.59-1.28-7.53s-2.81-1.41-5.92-1.41h-4.27v-14.8H501.6q17.18,0,25.17,6t8,18.7a24.64,24.64,0,0,1-4.66,15q-4.64,6.33-13.46,9.69,11.43,3,17,9.53t5.57,17.17q0,15.4-9,22.09t-30.07,6.67H399.3V243.36h3.94c3.33,0,5.36-.21,6.1-.65a2.62,2.62,0,0,0,1.11-2.47,16.47,16.47,0,0,0-.15-2.34c-.11-.73-.24-1.46-.41-2.16l-3.14-11.23h-23.6l-2.74,10a36.26,36.26,0,0,0-.94,3.59,11.91,11.91,0,0,0-.26,2.37,2.36,2.36,0,0,0,1.59,2.14,11,11,0,0,0,4.53.76h4.33v14.87H350.49V243.36h3.24a7.21,7.21,0,0,0,5.6-2.53c1.5-1.67,2.81-4.43,3.92-8.23l23-79.22H418l20.53,78.91c1.42,5.18,2.68,8.34,3.83,9.43s3,1.64,5.55,1.64h4.59Zm146.69-90v14.8h-4.27c-3.16,0-5.16.5-6,1.48s-1.31,3.46-1.31,7.45v57.23c0,4,.46,6.54,1.35,7.53s2.87,1.48,6,1.48h4.27v14.87h-52.1V243.36h4.33q4.61,0,5.94-1.48c.89-1,1.33-3.49,1.33-7.53V177.11c0-4-.44-6.46-1.31-7.45s-2.85-1.48-6-1.48h-4.33v-14.8Zm96.74,0v39.08H682a81.41,81.41,0,0,0-2.83-11.9,21.54,21.54,0,0,0-3.68-6.88,14,14,0,0,0-6.05-4.25q-3.59-1.25-11.56-1.25H644V197h3.37c4,0,6.75-1.15,8.34-3.44s2.4-6.36,2.4-12.22v-.91h11v47.85h-11c-.17-7.32-1-12.09-2.4-14.28s-4.16-3.28-8.21-3.28H644v32.67h15.5c6,0,10.15-.44,12.41-1.3a10,10,0,0,0,5.27-4.43,33.62,33.62,0,0,0,3.22-9.12A84,84,0,0,0,682,215h14.41v43.27h-92.5V243.36h4.4c2.9,0,4.79-.42,5.7-1.22s1.37-3.15,1.37-7v-58c0-4.06-.44-6.59-1.28-7.53s-2.81-1.41-5.92-1.41h-4.27v-14.8Zm141.2,0v43H822.91a90.5,90.5,0,0,0-1.37-12.63,29.3,29.3,0,0,0-2.83-8.28,13,13,0,0,0-5.79-5.6q-3.53-1.64-13.54-1.64H788.14V197h3.37c4,0,6.73-1.15,8.32-3.44s2.4-6.36,2.4-12.22v-.91h11v47.85h-11c-.17-7.32-1-12.09-2.4-14.28s-4.14-3.28-8.19-3.28h-3.51v23.65c0,4.32.46,6.9,1.37,7.76s2.83,1.25,5.77,1.25h4.86v14.87H748V243.36h4.4c2.9,0,4.79-.42,5.7-1.22s1.37-3.15,1.37-7v-58c0-4.06-.44-6.59-1.28-7.53s-2.81-1.41-5.92-1.41H748v-14.8Zm95.63,64.24q-.52,21.06-11.13,32.41t-30,11.33q-22.7,0-34.93-14.38t-12.22-41.11q0-25.28,12.65-40.46T891,150.23a47,47,0,0,1,13.24,1.8,41.52,41.52,0,0,1,11.71,5.52l2.24-5.78h14.22V195h-15.7q-2.29-15.12-7-22A14.69,14.69,0,0,0,897,166.17q-9.24,0-13.46,9.35t-4.2,30q0,21.37,4.33,30.77t14.11,9.38q8.85,0,14.54-7.58t6.38-20.5ZM597.37,100.28c-127.27,0-216.53,7.27-338.22-33.9L166.52,188.2s80.13,105.11,47.87,227.91-88.43,362,6.77,455.29C293.35,942.1,418.39,1009,508.82,1057.12c43.84,23.33,78.07,54.62,88.54,65.09,10.47-10.47,44.7-41.76,88.54-65.09,90.44-48.11,215.47-115,287.65-185.72,95.21-93.26,39-332.49,6.77-455.29s47.87-227.91,47.87-227.91L935.58,66.37C813.9,107.55,724.63,100.28,597.37,100.28Z"/><path class="cls-3" d="M597.37,82.15c58.39,0,117.59,2.2,175.83-1.85,54.35-3.78,104.91-13.6,156.57-31.09l12.6-4.26L1051.59,188.6l-8.52,11.18c-13.49,17.82-26.07,43.79-33.91,64.42-18,47.26-23.77,98.33-10.81,147.67,32.65,124.3,91.91,371.84-11.72,473.35-17.45,17.1-38.18,32.91-57.87,47.34-27,19.79-55,38.48-83.29,56.36-48.83,30.84-99.88,58.09-150.84,85.2-29,15.4-60.84,38.52-84.19,61.86l-13.07,13.07L584.29,1136c-23.34-23.34-55.23-46.46-84.18-61.86-51-27.11-102-54.36-150.84-85.2C321,971,293,952.35,266,932.56c-19.69-14.43-40.41-30.24-57.87-47.34-103.63-101.51-44.38-349-11.72-473.35,13-49.34,7.15-100.41-10.81-147.67-7.84-20.63-20.42-46.61-33.91-64.42l-8.52-11.18L252.37,44.95,265,49.21c51.66,17.48,102.22,27.3,156.57,31.09C479.78,84.34,539,82.15,597.37,82.15Z"/></g></svg>