<svg xmlns="http://www.w3.org/2000/svg" viewBox="0 0 1200 1200"><defs><style>.cls-1{fill:#936;}.cls-1,.cls-2{fill-rule:evenodd;}.cls-2{fill:#fff;}</style></defs><title>TCHUELA FC - LIONS 2 team colour</title><g id="TCHUELA_FC_-_LIONS_2_team_colour" data-name="TCHUELA FC - LIONS 2 team colour"><path class="cls-1" d="M266,89l-77.3,101.67c12.28,18.8,23.26,41.87,30.69,61.22,21,54.63,27.42,113.75,12.43,170.82-28.17,107.24-87.61,350.57,2.07,438.41,40.56,39.73,92.72,74.06,141.2,103.37,46.57,28.15,94.48,53.9,142.5,79.45A419.34,419.34,0,0,1,598,1100.35a419.35,419.35,0,0,1,80.32-56.42c48-25.55,95.94-51.3,142.5-79.45C869.26,935.16,921.42,900.83,962,861.1c89.68-87.84,30.25-331.17,2.07-438.41-15-57.07-8.57-116.19,12.43-170.83,7.44-19.35,18.42-42.41,30.69-61.21L929.86,89c-50.46,16-100.38,25.25-153.58,28.95C717.15,122,657.23,119.87,598,119.87s-119.2,2.17-178.34-1.94C366.42,114.23,316.5,105,266,89m71.09,571.65,26.68,75.05,3.69-7.41,4.6,11.49a112.1,112.1,0,0,0,26.64,39.3c14,13.6,30.82,24.11,46.76,35.27l10.82,7.58,1.06-5.08L463.8,820a34.93,34.93,0,0,0,4,1.67l1.89.65,1,1.71a12.63,12.63,0,0,0,1.65,2.2c2.25,2.36,5.64,3.63,8.56,4.92l.5.22.45.31c4.57,3.21,9.4,5.93,13.71,9.53,4,3.35,7.56,7.19,11.55,10.54l12.09,10.14,3.56-25.83,7.92,8.09.79.81a57.25,57.25,0,0,1,14.41,26.22L549.57,885,563,872.93,561.71,887c-.22,2.46-.42,4.92-.58,7.38l-.75,11.72,11.44-2.68a212.67,212.67,0,0,0,87.74-43.3l11.81-9.82-1.3,7,15.52-7.51c14.84-7.18,28.34-16.78,42.26-25.53l1.27-.81,1.66-1.06,2,.22a11.76,11.76,0,0,0,6-1,48,48,0,0,0,5.88-3.25c8.86-5.47,17.35-11.53,25.88-17.51,27.63-19.37,52.47-42.09,59.9-76.36l.82-3.77,3.82-.54c7.12-1,9.76-9.89,11.59-15.75,2.58-8.27,4.88-16.63,7.59-24.86,8.26-25.16,11.68-50,7.88-76.36-2.72-18.86-9.24-36.71-14.1-55.05a144.37,144.37,0,0,1-4.29-22.26c-1.89-18.5-5.11-35.34-12.07-52.66-5.1-12.69-10.93-25.05-15.54-37.95-5.27-14.74-10.57-30.1-17.82-44-3.44-6.59-7-12-13-16.56-2.65-2.06-5.41-3.89-7.92-6.15a86,86,0,0,1-11.61-13.48c-5.93-8.17-16.19-13.16-23.9-19.53l-24.5-20.22c-32.35-26.7-68.53-36.1-108.55-21-7.14,2.69-13.36,3.8-20.9,1.92-3.68-.92-7.21-2.27-10.78-3.52a112.88,112.88,0,0,0-14.83-4.23c-16-3.24-32.57-1.67-48.44,1.6-6.14,1.27-12.76,4-18.49,6.5-6,2.65-11.94,5.6-17.71,8.74-7.79,4.22-15.78,9.08-22.44,15-4.37,3.86-8.85,8.92-10.38,14.66l-.53,2-1.69,1.16c-29.35,20.16-48.28,55.8-60.89,88.24-10.25,26.36-17.6,53.77-24,81.29-2.38,10.26-4.59,20.56-7,30.81-1.24,5.32-2.41,11.65-4.64,16.6-12.22,27.12-13.43,68.65-9.89,97.91ZM258.38,172c-3.58,0-6.32,2-8.23,5.91s-2.86,9.69-2.86,17.21v.45h-9.67V155.36h68.87v40.19h-9.58v-.45q0-11.2-2.88-17.15c-1.92-4-4.7-6-8.31-6h-2.86v65.4c0,4.09.34,6.62,1,7.63s2.15,1.5,4.47,1.5h5.48v15.07H250.75V246.51h5.11q3.29,0,4.34-1.27c.7-.87,1-3.48,1-7.86V172Zm119.14,48.46q-.39,21.34-8.31,32.83t-22.42,11.48q-16.95,0-26.08-14.57t-9.12-41.65q0-25.61,9.45-41t25.27-15.39a26.56,26.56,0,0,1,9.89,1.82,28.33,28.33,0,0,1,8.75,5.6l1.67-5.86h10.62v43.76H365.5q-1.71-15.32-5.24-22.25t-9.48-6.91q-6.9,0-10,9.47t-3.14,30.43q0,21.65,3.24,31.17t10.54,9.5q6.61,0,10.86-7.68T367,220.44Zm41.1-65.08v15h-1.09q-3,0-3.85,1.5c-.6,1-.91,3.54-.91,7.55v19.19h18.14V179.4c0-4-.31-6.55-.93-7.55s-1.92-1.5-3.89-1.5h-1v-15h36.29v15H458c-2.29,0-3.76.47-4.41,1.43s-1,3.51-1,7.63v58c0,4.14.32,6.68,1,7.65s2.11,1.48,4.41,1.48h3.33v15.07H425.06V246.51h1c1.93,0,3.22-.53,3.85-1.56s1-3.54,1-7.57V213.58H412.77v23.81c0,4,.31,6.55.93,7.57s1.9,1.56,3.84,1.56h1.09v15.07H382.33V246.51h3.28q3.29,0,4.34-1.27c.7-.87,1-3.48,1-7.86v-58c0-4.17-.33-6.73-1-7.65s-2.1-1.4-4.42-1.4h-3.28v-15Zm75.26,70.89c0,8.21.78,13.93,2.36,17.23a8.19,8.19,0,0,0,8,5c4.45,0,7.64-1.64,9.58-4.88s2.91-8.58,2.91-16V179.4c0-4.17-.33-6.73-1-7.65s-2.08-1.4-4.37-1.4H508v-15h30.34v15h-3c-2.28,0-3.76.47-4.41,1.43s-1,3.35-1,7.15V230.2q0,17-7.58,25.86t-22.19,8.84q-13.29,0-20.58-8.74t-7.28-24.68V179.4c0-4-.34-6.55-1-7.55s-2.15-1.5-4.47-1.5h-3.33v-15H503v15h-3.63c-2.34,0-3.85.5-4.5,1.5s-1,3.51-1,7.55Zm115.66-70.89v39.59H599.15A107.75,107.75,0,0,0,597,182.88a25.05,25.05,0,0,0-2.75-7,11.09,11.09,0,0,0-4.52-4.3q-2.68-1.27-8.63-1.27H570.8v29.16h2.52c3,0,5-1.16,6.23-3.48s1.79-6.44,1.79-12.38v-.92h8.19v48.48h-8.19c-.13-7.42-.72-12.25-1.79-14.46s-3.11-3.33-6.13-3.33H570.8v33.1h11.58c4.49,0,7.58-.45,9.27-1.32a8.62,8.62,0,0,0,3.93-4.49,42.6,42.6,0,0,0,2.41-9.24,114.37,114.37,0,0,0,1.17-13.72h10.76v43.84H540.85V246.51h3.28c2.16,0,3.58-.42,4.26-1.24s1-3.19,1-7.1V179.4c0-4.12-.33-6.68-1-7.63s-2.1-1.43-4.42-1.43h-3.19v-15Zm46.68,0v15H652.5c-2.15,0-3.56.42-4.23,1.24s-1,3.17-1,7V246.2h4.39q6.1,0,8.58-1a8.17,8.17,0,0,0,4-3.67,27.38,27.38,0,0,0,2.81-8.81,122.06,122.06,0,0,0,1.28-15.39h10.14v44.29H616.82V246.51h3.28c2.29,0,3.76-.5,4.41-1.48s1-3.51,1-7.65v-58c0-4.12-.32-6.68-1-7.63s-2.1-1.43-4.42-1.43h-3.28v-15ZM716,261.58V246.51h2.94c2.49,0,4-.21,4.55-.66a3.08,3.08,0,0,0,.83-2.51,22.52,22.52,0,0,0-.11-2.38c-.08-.74-.18-1.48-.31-2.19l-2.34-11.38H703.94l-2,10.13c-.34,1.56-.58,2.77-.7,3.64a16.25,16.25,0,0,0-.2,2.4,2.45,2.45,0,0,0,1.19,2.16,6.34,6.34,0,0,0,3.38.77h3.24v15.07H679.55V246.51H682a4.92,4.92,0,0,0,4.18-2.56c1.12-1.69,2.1-4.49,2.93-8.34l17.2-80.26h23.67l15.33,79.94c1.06,5.25,2,8.45,2.86,9.55a4.92,4.92,0,0,0,4.15,1.66h3.43v15.07Zm2.47-49.41-6-32.17-5.58,32.17Zm132.68-56.82v43.52H840.54a123.18,123.18,0,0,0-1-12.8,37.26,37.26,0,0,0-2.11-8.39,11.79,11.79,0,0,0-4.32-5.67q-2.63-1.66-10.11-1.66h-8.39v29.16h2.52q4.44,0,6.21-3.48c1.19-2.32,1.79-6.44,1.79-12.38v-.92h8.19v48.48h-8.19c-.13-7.42-.72-12.25-1.79-14.46s-3.09-3.33-6.11-3.33h-2.62v24c0,4.38.34,7,1,7.86s2.11,1.27,4.31,1.27h3.63v15.07H784.63V246.51h3.28c2.16,0,3.58-.42,4.26-1.24s1-3.19,1-7.1V179.4c0-4.12-.33-6.68-1-7.63s-2.1-1.43-4.42-1.43h-3.19v-15Zm-9.28,94.32a19.23,19.23,0,0,1,2.6-10.32c1.72-2.82,3.85-4.22,6.39-4.22s4.67,1.4,6.39,4.22a22.17,22.17,0,0,1,0,20.72c-1.72,2.82-3.84,4.22-6.39,4.22s-4.67-1.4-6.39-4.22A19.39,19.39,0,0,1,841.87,249.68Zm93.87-29.24q-.39,21.34-8.31,32.83T905,264.75q-16.95,0-26.08-14.57t-9.12-41.65q0-25.61,9.45-41t25.26-15.39a26.55,26.55,0,0,1,9.89,1.82,28.33,28.33,0,0,1,8.75,5.6l1.67-5.86h10.62v43.76H923.73q-1.71-15.32-5.23-22.25T909,168.32q-6.9,0-10,9.47t-3.14,30.43q0,21.65,3.24,31.17t10.54,9.5q6.61,0,10.86-7.68t4.76-20.77Zm10,29.24a19.23,19.23,0,0,1,2.6-10.32c1.72-2.82,3.85-4.22,6.39-4.22s4.67,1.4,6.39,4.22a22.17,22.17,0,0,1,0,20.72c-1.72,2.82-3.84,4.22-6.39,4.22s-4.67-1.4-6.39-4.22A19.39,19.39,0,0,1,945.79,249.68Zm-706.06,487,11.12,10.8c-3.82,5.74-4.21,4.29-10.72,1.79C237.27,741.93,235.63,741.47,239.73,736.7ZM263.28,783l3.15-15.23-8.86,18.91-7.78,5,1-31.7L236.9,788.64,240.59,758,226,775.82l6.55-31.08-13.69,14.16,4.67-27.8c-10.62,13.76-13.45,9.35-14.11,2.59a2.74,2.74,0,0,0,2,1.18c2.32.22,5-2.35,5.93-5.76.83-3.07-.08-5.81-2-6.41a52.6,52.6,0,0,1,9.25-7.7c7.06-23.31,14.84-43.36,24.09-57-8.94,21.85-12.79,35.34-16.12,55.48L242,727.1c2.33-4.09,10.79-14.65,18.43-18.89-4.3,5.57-9.81,20.17-11,29l10.51,7.49c7.43,5.51,14.91,11,22.33,16.51l7.5-19.69c-.64,8,1,15.61.38,23.61l.38.36Zm694.29-46.38L946.45,747.4c3.82,5.74,4.22,4.28,10.72,1.78C960,741.82,961.68,741.37,957.57,736.59ZM934,782.88l-3.15-15.23,8.87,18.91,7.78,5-1-31.7,13.92,28.67-3.7-30.67,14.55,17.85-6.56-31.08,13.69,14.15L973.73,731c10.62,13.76,13.45,9.35,14.11,2.59a2.74,2.74,0,0,1-2,1.18c-2.32.23-5-2.35-5.93-5.76-.83-3.07.07-5.81,2-6.41a52.59,52.59,0,0,0-9.25-7.69c-7.07-23.31-14.86-43.36-24.1-57,8.94,21.85,12.8,35.34,16.14,55.48L955.32,727c-2.33-4.09-10.79-14.65-18.44-18.89,4.3,5.57,9.81,20.17,11,29l-10.5,7.5c-7.43,5.51-14.91,11-22.32,16.51l-7.5-19.69c.64,8-1,15.61-.38,23.61l-.38.36ZM831.21,841l-1.06-1.32,17.1-13.62,1.05,1.32-1.82,1.45A6.26,6.26,0,0,0,844,834.7c.09,1.14,1.19,3,3.33,5.73L862.94,860q5.79,7.27,7.54,12.41a18.1,18.1,0,0,1-.18,11.39q-1.95,6.23-9.2,12-7.91,6.3-14.18,6.81a18.93,18.93,0,0,1-11.67-2.74q-3.66-2.27-10.62-11l-15-18.87c-2.36-3-4.31-4.59-5.87-4.86s-3.24.32-5.06,1.77l-1.82,1.45-1.05-1.32,20.86-16.62,1.06,1.32-1.85,1.47c-2,1.59-2.93,3.35-2.78,5.29.08,1.33,1.21,3.34,3.36,6l16.77,21a59.89,59.89,0,0,0,5.64,6,17.74,17.74,0,0,0,6.38,4.17,12.94,12.94,0,0,0,6.56.23,17.09,17.09,0,0,0,7.3-3.65,22,22,0,0,0,6.82-8.81,14.12,14.12,0,0,0,.9-9.36q-1.2-4.32-7.32-12l-15.58-19.55c-2.4-3-4.24-4.63-5.5-4.86a6.72,6.72,0,0,0-5.38,1.72ZM580.34,987.28l-21.86-52.81-1.57,41.22c-.14,3.79.17,6.16,1,7.14,1.07,1.32,2.83,2,5.25,2.11l2.17.08-.06,1.68-21.46-.82.06-1.68,2.17.08c2.61.1,4.49-.62,5.65-2.16.7-.94,1.11-3.14,1.25-6.59l1.53-40.3a14.14,14.14,0,0,0-.68-5.95A5.08,5.08,0,0,0,551.5,927a12.63,12.63,0,0,0-5.45-1.09l.06-1.69,17.47.66L584.13,974,608,926.56l17.47.66-.06,1.69-2.14-.08c-2.64-.1-4.53.62-5.68,2.15-.7,1-1.13,3.14-1.26,6.61l-1.53,40.3c-.14,3.79.2,6.16,1,7.14q1.6,2,5.24,2.11l2.14.08-.06,1.68-26.21-1,.06-1.68,2.19.08c2.64.1,4.52-.62,5.65-2.16.7-.94,1.11-3.14,1.25-6.59l1.57-41.22-25.76,51ZM867.69,809.7l18.47,15.93L895,815.36q3.46-4,3.41-6.38c0-2.11-1.31-4.38-3.86-6.82l1.1-1.27,16.27,14-1.1,1.27a23.62,23.62,0,0,0-5.21-2.81,5.72,5.72,0,0,0-3.65.4,13.7,13.7,0,0,0-4.44,3.74l-8.86,10.27,15.41,13.29a19.5,19.5,0,0,0,4,3,2.94,2.94,0,0,0,1.9,0,7.94,7.94,0,0,0,2.65-2.29l6.84-7.93a27.82,27.82,0,0,0,4.41-6.23,11.22,11.22,0,0,0,.81-5.31,35.12,35.12,0,0,0-2.67-9.94l1.19-1.38,8.25,14.13-31.07,36-1.27-1.1,1.43-1.66a8.65,8.65,0,0,0,1.9-3.82,3.84,3.84,0,0,0-.35-2.93,21.94,21.94,0,0,0-4.18-4.28l-30.37-26.19c-3-2.56-5-3.84-6.25-3.83q-2.44,0-4.94,2.94l-1.43,1.66-1.28-1.11,31.07-36,10.68,8.31-1.17,1.35a21.15,21.15,0,0,0-6.44-2.76,7.27,7.27,0,0,0-4.35.78,20.76,20.76,0,0,0-4.71,4.41Zm-101.22,77.7a16.67,16.67,0,0,0-9.11,11.39q-2.23,9.51,4.81,23.1,6.89,13.28,16.36,17.5a16.13,16.13,0,0,0,14.63-.55,17.11,17.11,0,0,0,9.37-11.9q2.07-9.37-4.56-22.14-5.1-9.83-11.56-15a19.09,19.09,0,0,0-10.08-4.45A17.59,17.59,0,0,0,766.47,887.41Zm34.57,50q7.81,5,14.34,5.84a24.23,24.23,0,0,0,12.87-1.81l.67,1.3a49.91,49.91,0,0,1-13.08,3.93,58,58,0,0,1-15,.58,66.42,66.42,0,0,1-13.78-2.62,43.74,43.74,0,0,1-11.79-.19,30.62,30.62,0,0,1-12.65-5.67,35,35,0,0,1-9.74-12.1q-6.37-12.29-2.63-24.54A29.32,29.32,0,0,1,765.35,884q10.74-5.57,22.83-1.52T806.7,899a32.68,32.68,0,0,1,3.56,20.56A31.11,31.11,0,0,1,801,937.41Zm-55,22,.54,1.59-25.07,8.45-.54-1.59,2.08-.7q3.62-1.22,4.54-3.89c.38-1.15,0-3.49-1.19-7l-12.74-37.79a20.6,20.6,0,0,0-2.53-5.67,4.15,4.15,0,0,0-2.39-1.26,8.62,8.62,0,0,0-4.32.31l-2.08.7-.54-1.6,25.07-8.45.54,1.6-2.12.71c-2.38.8-3.88,2.1-4.5,3.86-.41,1.17,0,3.5,1.15,7l12.74,37.79a20.57,20.57,0,0,0,2.53,5.67,4.12,4.12,0,0,0,2.44,1.24,8.37,8.37,0,0,0,4.28-.28Zm-83.47,19a45.76,45.76,0,0,0,10.48-.62c5.41-1,9.31-2.92,11.72-5.86a11.63,11.63,0,0,0,2.64-9.78,13.41,13.41,0,0,0-3.14-6.46,13.1,13.1,0,0,0-7.19-4,27.51,27.51,0,0,0-11.09,0c-1.85.33-3.44.64-4.74.93a24.05,24.05,0,0,0-3.12.89Zm-5.18-29a34.14,34.14,0,0,0,3.88-.2c1.44-.15,3-.38,4.71-.68,4.36-.78,7.57-1.82,9.58-3.16a10.65,10.65,0,0,0,4.27-5.23,12.29,12.29,0,0,0,.61-6.67,11.81,11.81,0,0,0-6-8.31q-5-3-13.35-1.5a31,31,0,0,0-7.9,2.42Zm23.91-1.76q6.57.2,10.23,2.61a13.59,13.59,0,0,1,6.14,9.3,15.29,15.29,0,0,1-1.33,9.19,16.58,16.58,0,0,1-6.78,7.44q-4.66,2.8-14.91,4.63L646,985.9l-.3-1.65,2.28-.41q3.81-.68,5-3.41c.5-1.16.46-3.44-.15-6.85l-7-39.26q-1-5.64-2.57-6.88a6.69,6.69,0,0,0-5.55-1l-2.28.41-.3-1.67,26.25-4.68a52.47,52.47,0,0,1,12-1q7,.41,11.28,3.87a14.25,14.25,0,0,1,5.22,8.81,13.3,13.3,0,0,1-1.31,8.68A16.64,16.64,0,0,1,681.27,947.61ZM511.82,954l-4.2-26.72-16.39,21.64Zm.43,3.58-23.2-5.71-6.39,8.46a15.19,15.19,0,0,0-2.79,4.85,3.13,3.13,0,0,0,.71,2.72c.7.91,2.46,1.82,5.31,2.75l-.4,1.63-18.87-4.65L467,966c2.62.16,4.37,0,5.28-.54,1.85-1,4.22-3.5,7.11-7.38L512.65,914l1.54.38,8.59,55q1,6.64,2.65,8.92a9.68,9.68,0,0,0,5.23,3.43l-.4,1.63-23.65-5.83.4-1.63c2.41.47,4.13.46,5.14,0a3.13,3.13,0,0,0,1.88-2.16c.32-1.3.22-3.48-.27-6.58Zm-37.12-52.54-60.82,36.18,23.07,10.41c3.54,1.6,6.61,2,9.19,1.35s5.7-3.07,9.29-7.14l1.26.86-9.37,13.7-45.81-20.68.69-1.53,59.28-35.07-18-8.12q-4.48-2-6.93-2a7.61,7.61,0,0,0-4.35,1.45c-1.26.91-2.94,2.92-5,6l-1.57-.71,7.51-13.54Zm-78.32-40.48a16.29,16.29,0,0,0-14.45-2.43q-9.45,2.79-17.78,15Q356,889.59,356.78,900a16,16,0,0,0,7.32,12.52,17.91,17.91,0,0,0,15.68,2.5q8.5-2.4,16.76-14.45,8.93-13.06,8.18-23Q404.09,869.56,396.81,864.58Zm2.57-2.25q9.92,6.79,12,19.29t-5.59,23.77q-7.95,11.62-20.52,14.25a29.66,29.66,0,0,1-35.53-24q-2-12.38,6.08-24.24,8.3-12.14,21.8-14.15A29.56,29.56,0,0,1,399.39,862.33Zm-106.66-6.64,21.13-53.1L284,831.05c-2.74,2.62-4.17,4.54-4.29,5.79-.15,1.69.62,3.42,2.29,5.18l1.5,1.57-1.21,1.16-14.82-15.54,1.21-1.16,1.5,1.57q2.7,2.83,5.56,2.38c1.16-.18,3-1.48,5.49-3.86l29.19-27.83a14.15,14.15,0,0,0,3.66-4.74,5.09,5.09,0,0,0,0-3.22,12.63,12.63,0,0,0-3.14-4.58l1.23-1.17,12.06,12.65L304.7,848.8l50.16-17.39,12.06,12.65-1.23,1.17-1.48-1.55q-2.73-2.87-5.57-2.42c-1.17.19-3,1.47-5.51,3.86L324,872.95c-2.74,2.62-4.15,4.56-4.25,5.83q-.22,2.53,2.28,5.16l1.48,1.55-1.21,1.16-18.1-19,1.21-1.16,1.51,1.59q2.73,2.87,5.56,2.38c1.16-.18,3-1.48,5.49-3.86l29.85-28.47-54,18.62ZM598,102.29c-127.31,0-216.6,7.27-338.33-33.91L167,190.24s80.16,105.14,47.89,228-88.46,362.15,6.78,455.44c72.21,70.73,197.28,137.66,287.75,185.79,43.86,23.33,78.1,54.63,88.57,65.11,10.47-10.47,44.72-41.77,88.57-65.11C777,1011.32,902.07,944.39,974.28,873.66c95.24-93.29,39-332.6,6.78-455.44s47.89-228,47.89-228L936.28,68.37C814.56,109.56,725.26,102.29,598,102.29ZM522.61,786.77l-3.07-9.2-6.27-31.29c-16.54,10.92-26.54,25.9-26.31,52.22l-.43,5.49c-14.87-7.25-31.94-29.22-40.72-42.64C434.34,743.86,425,725.8,422,701.12c-3.43,4.44-5.07,6.45-6.21,14.36-1.94,13.51,3.21,35.07,5.48,48.28-5.86-3.09-3.18-1.1-8.17-5.4-38-32.72-26.78-104.67-17.59-145.27-18.37,7.44-19.11,23.7-29.33,41.15l-2.3,3.5L361,649.31l-1.89-9.84c-9.4-67.51,39.76-118,49-144.12-8.6,3.74-24.59,16.53-27.6,20.5,0-21.86,12.54-47.62,20.74-62.51,13.43-24.39,39.92-42.93,40.68-43.58l3.62-3.32c-11.9.24-20.11,3.58-29.08,6.22,8.29-22.54,26.06-43,42.12-54.31,27.44-19.24,38.74-20.15,76.32-13.62-12.37-16.48-24.67-11-39.4-18.4,23.31-23.38,78.23-12.78,101.4,2.63,12-6.16,16-12,35-15.53,12.6-2.34,33.17-2.78,43.38,6.92-9.89,4.71-22.71,7.46-32.63,12.25-11.69,4.8-3.37.93-7.23,6.36l6.38-3.6c28.79-9,42-2.54,66.41,6.25l-4.61,2.25c-10.89,3.65-9.77,1.91-19.9,3.52-11.37,1.8-15.43,3.41-22,8.66,56.45-6,103.24,20.4,118.49,56.47-8.75-2.74-16.49-6-28.3-5.7,18.58,19.14,65.78,52,64.58,109.11-3-4.49-21.42-18.07-28.57-21.41,10.19,23.09,27.78,41.51,39,71,9.24,24.35,20.28,65,6.16,92.31-12.47-16.66-10.59-36.39-31.17-44.93,6.35,34.58,14.37,54.17,7,92.62C803.34,734.21,788,761.54,770.19,771c9.19-15.51,19.53-43.18,8.59-61.67-5-8.37-2.56-3.68-5.88-6.81,2.5,46.8-35.94,91-63.85,101.7-.14-20-8.57-43-25.79-51.63,2.86,46.46-13.18,52.75-22.91,76.84-5.07-6.31-5.23-16-6.63-21.94-5.93,6.67-9.39,24.21-22.95,39.77-8.62,9.9-26.6,18-41.51,21.66-2.36-32.87-13.8-50.81-32.46-63L550.25,822C537.29,815.72,529,803.27,522.61,786.77Zm-58.36-57.34c-16.49-34.36-14.22-57.05-25.34-92.24C414.25,667.92,443.36,716.69,464.25,729.43ZM725.17,754c30.67-13.22,29-51.43,16.64-85.83C734.45,703,739.23,719.2,725.17,754ZM397.26,571.7c6.78-8,9.91-22.32,14.95-32.47,6.25-12.59,12.2-21.42,18.6-33.83C403.53,515,392.7,535.84,397.26,571.7ZM798,579.15c1.27-33-9-49.93-37.46-55.58,16.16,24.09,10.7,7.85,31.47,46.87l4.18,6.54C796.59,577.56,797.38,578.43,798,579.15Zm-12.35,62.32c-4.58-18.32-11.48-23.17-26.48-29.89L777,655.07l9.11,32.2C789.21,669.19,789.51,657.47,785.64,641.47ZM701.16,374.16l35.3,11.63C729.32,376,717.51,364.75,701.16,374.16Zm-223-15.26c-8.28,7-11.66,8.83-16.94,19.48l19.17-8.32L516,363.47l-6.9-5.65a27.29,27.29,0,0,0-10.78-2.51C490.51,354.9,484,357.13,478.17,358.89Zm74.39,386-.58-.42v.46Zm-36.79-92.78c7.59,23-1.11,31,17.56,46.07,17.47,14.08,17.9,15.83,19.31,44.2,7.72-8.87,8.75-20.43,5.43-32.52,13,9.07,13.83,27.42,19.14,46.25q.51.65,1,1.33l.28-30.68c6.07,5.36,13.87,20.28,17.4,29.69,6.73,17.91,2.85,25.19,2.69,42.74,11.72-23.33,19-34.93,23.73-65.37l1,25.57c5.94-19.65,6.35-39.94,20.08-49.55-3.35,12.15-2.06,23.94,5.45,32.59.46-10.88.07-21.91,4.94-30,2.92-4.86,12.94-14.1,18.69-16.7l.05.3a6.18,6.18,0,0,1,2.19-2.33l-.2-.52c9.82-15,5.55-24.84,11.23-41,7.59,8,5.8,12,6.65,24.86,13.13-25.23,6.25-33.67,9.39-55.33,1.81-12.54,6.28-14,10.95-21.77,4-6.7,5.82-18.79,9.85-23.72,5.3,19.29-3.72,37.55-5.68,56.86,14.27-13.26,21.12-35.88,16.65-62.51-3.84-22.92-20-33.84-28.36-53.41,3.61,19.29,8.08,12.39,7.1,44.82-.46,15.19-12.92,29.22-20.62,33.35-2.83-5-3-9.13-6.57-15.08-9.78-16.41,4.39-23-20.37-46.32,3.21,13.63,14.16,18.33,11.41,38.3l-9.73-2c1.1,5.58,21.12,11.12,15.66,44.76-2.51,15.47-13.18,29.16-23.66,34.72,7.58.24,12.13-3.65,17.79-5.85-2,5.87-6.7,14.9-10.51,19.27-5.78-.56-17.82-5.95-26.22-7.55-34.21-6.52-37,11.82-35.28-40.87,2-.8,4.78-1.92,6.38-4,2-2.56.71-.17,1.18-3.09L612,603c9.45-5.48,30.46-10.28,31-22.39-6.44,1.08-1.87,3.81-8.5,1-4.43-1.9-3-3.21-10.43-3.16-8.43.06-13.87,5.19-22.14,5.66-12.47.7-21.8-9.46-33.4-3.48-8.64,4.45-1.77,1.36-10.45.35,2.77,13.5,21.1,15.32,31.35,22,.33.84.12,2.74.22,3.72.45,4.41,3.62,6.47,7.62,8,1.46,52.55-.44,34.33-35.42,40.91-8.78,1.65-19.92,6.86-26.1,7.51l-10.94-19.05c6.19,2,10.67,5.78,18.25,5.64-23.89-13.85-37.93-67-9.29-77.21-.32-.22-.9-.7-1.11-.37l-3.38-1c-3.63-1-1.78.52-4.43-1.42-.17-20.33,8.8-22.24,11.84-35.83-25.63,25-8.6,26.73-26.91,61.52-19.56-10.85-23.34-35.92-19.62-58.21,1.3-7.79,5-14.27,6.1-20.14-1.79,4.14-7.42,11.32-10.2,15.94-4.93,8.2-10.26,7-20,8.6,12.23-36.44,3.55-73.91,52.12-84.2.81-7.17,1.78-7.64,3.5-13.67-10-4.29.19-6.23,8.3-13.44-7.35-5.45-30.47-15.15-42.31-14.51-27,1.47-5.68,37.24-5.54,37.6-8.46-3.94-16.72-26.8-9.35-35,13.34-14.9,39.8-4.55,56,2.53,18.5,8.08,6.83-10,49-20.86-11.9-14.56-43.51-10.07-56.74.84,13.06-.4,19.14-1.5,30.68,2.25-13.57,16.46-46-8.72-77.11,1.6-7.41,3.9-12,11-11.42,22.12.76,15.83,8.69,20.47,14.54,29.89-2.69,3-4.17,3.67-5.83,8.55,12.33-3.62,17.26-10.59,33-8.51-14.1,7.71-28.41,8.27-36,26.47-8.8,21.06.2,46.57-5.13,65.17,6.25-3.83,12.21-6.3,16.81-6.52-8.61,9.31-14,26.92-13.88,44.73a92.24,92.24,0,0,0,3,20.15c4.86,8.85,7.08,18.88,15,26.24-2-18.55-11-38.17-5.63-56.78,2.87,3.48,5.77,16.12,8.9,22,4,7.55,8.68,9.46,11.16,20,4.84,20.48-4.12,22.14,8.4,55.58.19.5.81,2.18.94,2.78C508,666.61,505,664.71,515.76,652.13Zm30,20.24a6.4,6.4,0,0,1,2.27-2l8-3.74c22.13-9,66.62-9.16,88.46-.38,3.86,1.55,8.32,3,11.21,6.09-9.34,8.56-38.33,17.53-55,17.25C583.06,689.34,556.52,681.06,545.72,672.37Zm-28.4-173.66,9.9,1.9c1.93,7.09,5,9.4,12.52,10.46,3.7.52,8.69,0,11.49.5,5.74,1,1.6,2.79,8.73,3.48-3.24-26.3-16.86-28.09-35.83-20.62C517.33,497.11,519,496.56,517.32,498.71Zm32.58-.23c2.05,3,2.76,5.13,1.93,9.42-9.91,3.49-19.56-.44-18.29-11.92,2.19-1.35,3.08-2.21,6.85-2.27C536.91,502.94,543.26,504.43,549.9,498.48Zm91.58,16.57c6.61-.58,3.69-2.12,7.71-3.24,7.23-2,21.17,3.63,25-11.51l10.09-1.22c-1.79-2.47-1.17-2.32-6-4.3C658.84,486.88,645.06,488.28,641.48,515.05ZM661,493.72c3.7.07,4.68,1,6.91,2.21,1.79,17.82-27,17.84-16.4,2.54C661.38,507.3,662.82,498.63,661,493.72ZM565.8,511c10.21,1.15,9.71-1.9,17.37-4.28,9.41-2.92,12.33,1.54,17.55,4.55,5-2.82,7.43-7,16.49-4.89,7.94,1.89,7.61,5.83,18.45,4.6-1.81-2-12.62-8.23-15.9-9.6-9.54-4-12.67-2.75-19,1.84-5.62-4.08-9.33-5.68-18.12-2.21C579,502.44,567.73,508.92,565.8,511Zm71.49,23.73-9.22-2.47c5.94,5.67,17.89,12.9,16.41,25.25-3-3.07-5.33-5.32-11.66-6.12,3,4.48,6,4.36,9.79,10.24,4.48,6.9,1.76,9.74,1.64,16.35.75-3.41,3.39-8.12,4.26-13.63,1.82-11.51-1.45-22.09-6.41-32.1-3.13-6.32-2.68-8.36-5-15.22C632.35,522.88,635.55,528.33,637.29,534.72Zm-80.35,42.62c.82-5.38-2.36-8.36,1.38-14.92,3.35-5.87,7.44-6.84,10.35-11-6.48.82-8.58,3-11.68,6.16-1.53-12.55,10.45-19.35,16.47-25.1l-9.29,2.3c1.64-6.33,5-11.91.19-17.71-1.92,5.77-1.56,7.94-4.2,13.47-2.3,4.82-4.17,8.52-5.67,13.85C551.23,555.93,553,567.64,556.93,577.34Zm43.79-129.5c1.47-3.05,9-40.29,0-45.19-3.62,2-3.75,3.11-4.11,8.55a98.14,98.14,0,0,0,.3,13.07C597.47,431.59,597.8,442,600.72,447.84Zm22.2,43a9.28,9.28,0,0,0,1.42-2.65c.61-1.36.83-2.32,1.51-3.72,3.53-7.23,20.13-14.72,9.68-30.12-3.82-5.62-2.93-2.21-5-9.35-.85-2.91-.43-2.55-1.23-3.77-7.26,6.62,4.94,13.06,2.14,25.4C629,477.28,619.68,473.32,622.92,490.88Zm-44.39,0c3.09-16.78-4.71-13-8.18-23.21-4.26-12.58,9.37-19.26,1.8-26.36l-2.09,6.84c-2.6,6.53-16.14,14.59.93,30.58,4.44,4.16,3.55,3.83,5.67,8.57L578,490A9.55,9.55,0,0,0,578.53,490.87Zm-89.13,19.23c2.83-6.92,4.22-14.57,7.41-20.85,3.66-7.2,8.84-11.68,11.84-18.68C491.42,476.25,487.35,488.76,489.39,510.09Zm212.46-.83c2-20.92-2.28-34.26-19.24-39.45,2.9,6.74,7.65,10.87,11.35,17.78S699,502,701.86,509.27Zm-150.27,9.54c-7.27-2.21-12.74,3.36-19.75-2.3-6-4.87-6.21-10.71-15.13-10,1.73,3,10.82,10.65,13.76,12.73C539.07,525.29,542.48,521.32,551.59,518.81Zm98.26-.68c6.44,3.65,13.33,6.35,20.36,1.62,2.71-1.82,12.92-10.51,14.55-13.29-8.78-.62-10,5.9-14.34,9.57C664.4,521.05,658.62,518.27,649.84,518.13Zm45.76-51.56s18.21,4.27,23.52,14,9.27,23,9.8,37.57-2.61,17,2.12,27.07S727.43,540,724,527.48s-3.36-22.67-9.82-32.38S709,477.15,695.6,466.56Zm-71.88-66.48c15.58,3.89,23.28,8,32.79,16.47,12.68,11.23,3,7.62,33-2.1,26.13-8.47,54.24-3.11,36.56,31.28-3.86,7.51-3.57,6.18-6.76,7.67.24-.64,20.74-34.69-4.27-37.47-11.74-1.31-36.2,8.79-43.6,14.38,4.94,3.78,9.31,6.15,13.8,10.86-.28.19-.74.08-.88.49-.85,2.36.38-.65-4.63,2.11l3.89,13.58c9.82,1.92,19.51-4.89,30.7,2l-7,2c1.15.3,3.43,1.17,4.5.9,11.13-3.85,23.87-11.49,26.19-32.9,5.28-48.68-69.6-19.45-72.47-19.35-7,.24-13.86-4.4-15.81-6.88,11.63-3.73,17.66-2.66,30.65-2.22-5.56-7.23-19.23-9.63-27.77-9.58C645,391.37,629.05,393.39,623.72,400.08ZM345.67,658.63l19.48,54.81,6.58-13.2c6.51,62.38,40.88,80.41,78.77,107l1.33-6.32c1.17-5.33-2,1.45,1.42-5.75,4.73,10.89,10.94,17.55,22.38,19.57,4,7.17,1.17,4.93,10.27,9.13,3.42,2.53,10.71,6.88,15.31,10.71,4.22,3.53,6.5,6.3,11.57,10.56,1.89-13.7-2-23.27-5.75-35.4L504.77,797l1-5.49,5.79,6.17c.33,34,31.92,29.83,42.83,71.25,8.71-7.87,7.67-15.61,8-30.34,13.67,18.76,9.11,30.88,7.48,56.34,48.18-11.28,88.45-38.14,116.09-75.21l-4.13,22.19c14.66-7.09,26.65-15.78,41.41-25.06,28.3-17.8-14.66,16.73,42.25-23.17,25.52-17.89,55.86-42.56,58.33-85.56l6.18-1.89c5,14.35,6.95-2.05,15.94-29.43,23.7-72.18-6.29-105-10.89-150.07-4.62-45.26-14.07-52-27.15-88.55-27.12-75.86-23.39-42.54-49.15-78-4.72-6.5-14.88-12.5-22.4-17.93l-24.5-20.22C684.89,302,653,287,611.88,302.5c-34.84,13.13-35-16.5-96.27-3.86-12,2.48-65.47,26.38-62.5,41.8,0,.12.47.71.37,1.08-73.3,42.3-89.17,194.28-99.45,217.1-11,24.43-16,64.46-9.19,93.28ZM599,84.15c58.39,0,117.59,2.2,175.83-1.85,54.35-3.78,104.91-13.6,156.57-31.09L944,46.94,1053.22,190.6l-8.52,11.18c-13.49,17.82-26.07,43.79-33.91,64.42-18,47.26-23.77,98.33-10.81,147.67,32.65,124.3,91.91,371.84-11.72,473.35-17.45,17.1-38.18,32.91-57.87,47.34-27,19.79-55,38.48-83.29,56.36-48.83,30.84-99.88,58.09-150.84,85.2-29,15.4-60.84,38.52-84.19,61.86L599,1151.06,585.93,1138c-23.35-23.34-55.23-46.46-84.18-61.86-51-27.11-102-54.36-150.84-85.2-28.31-17.88-56.29-36.57-83.29-56.36-19.69-14.43-40.41-30.24-57.87-47.34-103.63-101.51-44.38-349-11.72-473.35,13-49.34,7.15-100.41-10.81-147.67-7.84-20.63-20.42-46.61-33.91-64.42l-8.52-11.18L254,46.94l12.6,4.26c51.66,17.48,102.22,27.3,156.57,31.09C481.41,86.34,540.61,84.15,599,84.15Z"/><path class="cls-2" d="M266,89l-77.3,101.67c12.28,18.8,23.26,41.87,30.69,61.22,21,54.63,27.42,113.75,12.43,170.82-28.17,107.24-87.61,350.57,2.07,438.41,40.56,39.73,92.72,74.06,141.2,103.37,46.57,28.15,94.48,53.9,142.5,79.45A419.34,419.34,0,0,1,598,1100.35a419.35,419.35,0,0,1,80.32-56.42c48-25.55,95.94-51.3,142.5-79.45C869.26,935.16,921.42,900.83,962,861.1c89.68-87.84,30.25-331.17,2.07-438.41-15-57.07-8.57-116.19,12.43-170.83,7.44-19.35,18.42-42.41,30.69-61.21L929.86,89c-50.46,16-100.38,25.25-153.58,28.95C717.15,122,657.23,119.87,598,119.87s-119.2,2.17-178.34-1.94C366.42,114.23,316.5,105,266,89m71.09,571.65,26.68,75.05,3.69-7.41,4.6,11.49a112.1,112.1,0,0,0,26.64,39.3c14,13.6,30.82,24.11,46.76,35.27l10.82,7.58,1.06-5.08L463.8,820a34.93,34.93,0,0,0,4,1.67l1.89.65,1,1.71a12.63,12.63,0,0,0,1.65,2.2c2.25,2.36,5.64,3.63,8.56,4.92l.5.22.45.31c4.57,3.21,9.4,5.93,13.71,9.53,4,3.35,7.56,7.19,11.55,10.54l12.09,10.14,3.56-25.83,7.92,8.09.79.81a57.25,57.25,0,0,1,14.41,26.22L549.57,885,563,872.93,561.71,887c-.22,2.46-.42,4.92-.58,7.38l-.75,11.72,11.44-2.68a212.67,212.67,0,0,0,87.74-43.3l11.81-9.82-1.3,7,15.52-7.51c14.84-7.18,28.34-16.78,42.26-25.53l1.27-.81,1.66-1.06,2,.22a11.76,11.76,0,0,0,6-1,48,48,0,0,0,5.88-3.25c8.86-5.47,17.35-11.53,25.88-17.51,27.63-19.37,52.47-42.09,59.9-76.36l.82-3.77,3.82-.54c7.12-1,9.76-9.89,11.59-15.75,2.58-8.27,4.88-16.63,7.59-24.86,8.26-25.16,11.68-50,7.88-76.36-2.72-18.86-9.24-36.71-14.1-55.05a144.37,144.37,0,0,1-4.29-22.26c-1.89-18.5-5.11-35.34-12.07-52.66-5.1-12.69-10.93-25.05-15.54-37.95-5.27-14.74-10.57-30.1-17.82-44-3.44-6.59-7-12-13-16.56-2.65-2.06-5.41-3.89-7.92-6.15a86,86,0,0,1-11.61-13.48c-5.93-8.17-16.19-13.16-23.9-19.53l-24.5-20.22c-32.35-26.7-68.53-36.1-108.55-21-7.14,2.69-13.36,3.8-20.9,1.92-3.68-.92-7.21-2.27-10.78-3.52a112.88,112.88,0,0,0-14.83-4.23c-16-3.24-32.57-1.67-48.44,1.6-6.14,1.27-12.76,4-18.49,6.5-6,2.65-11.94,5.6-17.71,8.74-7.79,4.22-15.78,9.08-22.44,15-4.37,3.86-8.85,8.92-10.38,14.66l-.53,2-1.69,1.16c-29.35,20.16-48.28,55.8-60.89,88.24-10.25,26.36-17.6,53.77-24,81.29-2.38,10.26-4.59,20.56-7,30.81-1.24,5.32-2.41,11.65-4.64,16.6-12.22,27.12-13.43,68.65-9.89,97.91ZM258.38,172c-3.58,0-6.32,2-8.23,5.91s-2.86,9.69-2.86,17.21v.45h-9.67V155.36h68.87v40.19h-9.58v-.45q0-11.2-2.88-17.15c-1.92-4-4.7-6-8.31-6h-2.86v65.4c0,4.09.34,6.62,1,7.63s2.15,1.5,4.47,1.5h5.48v15.07H250.75V246.51h5.11q3.29,0,4.34-1.27c.7-.87,1-3.48,1-7.86V172Zm119.14,48.46q-.39,21.34-8.31,32.83t-22.42,11.48q-16.95,0-26.08-14.57t-9.12-41.65q0-25.61,9.45-41t25.27-15.39a26.56,26.56,0,0,1,9.89,1.82,28.33,28.33,0,0,1,8.75,5.6l1.67-5.86h10.62v43.76H365.5q-1.71-15.32-5.24-22.25t-9.48-6.91q-6.9,0-10,9.47t-3.14,30.43q0,21.65,3.24,31.17t10.54,9.5q6.61,0,10.86-7.68T367,220.44Zm41.1-65.08v15h-1.09q-3,0-3.85,1.5c-.6,1-.91,3.54-.91,7.55v19.19h18.14V179.4c0-4-.31-6.55-.93-7.55s-1.92-1.5-3.89-1.5h-1v-15h36.29v15H458c-2.29,0-3.76.47-4.41,1.43s-1,3.51-1,7.63v58c0,4.14.32,6.68,1,7.65s2.11,1.48,4.41,1.48h3.33v15.07H425.06V246.51h1c1.93,0,3.22-.53,3.85-1.56s1-3.54,1-7.57V213.58H412.77v23.81c0,4,.31,6.55.93,7.57s1.9,1.56,3.84,1.56h1.09v15.07H382.33V246.51h3.28q3.29,0,4.34-1.27c.7-.87,1-3.48,1-7.86v-58c0-4.17-.33-6.73-1-7.65s-2.1-1.4-4.42-1.4h-3.28v-15Zm75.26,70.89c0,8.21.78,13.93,2.36,17.23a8.19,8.19,0,0,0,8,5c4.45,0,7.64-1.64,9.58-4.88s2.91-8.58,2.91-16V179.4c0-4.17-.33-6.73-1-7.65s-2.08-1.4-4.37-1.4H508v-15h30.34v15h-3c-2.28,0-3.76.47-4.41,1.43s-1,3.35-1,7.15V230.2q0,17-7.58,25.86t-22.19,8.84q-13.29,0-20.58-8.74t-7.28-24.68V179.4c0-4-.34-6.55-1-7.55s-2.15-1.5-4.47-1.5h-3.33v-15H503v15h-3.63c-2.34,0-3.85.5-4.5,1.5s-1,3.51-1,7.55Zm115.66-70.89v39.59H599.15A107.75,107.75,0,0,0,597,182.88a25.05,25.05,0,0,0-2.75-7,11.09,11.09,0,0,0-4.52-4.3q-2.68-1.27-8.63-1.27H570.8v29.16h2.52c3,0,5-1.16,6.23-3.48s1.79-6.44,1.79-12.38v-.92h8.19v48.48h-8.19c-.13-7.42-.72-12.25-1.79-14.46s-3.11-3.33-6.13-3.33H570.8v33.1h11.58c4.49,0,7.58-.45,9.27-1.32a8.62,8.62,0,0,0,3.93-4.49,42.6,42.6,0,0,0,2.41-9.24,114.37,114.37,0,0,0,1.17-13.72h10.76v43.84H540.85V246.51h3.28c2.16,0,3.58-.42,4.26-1.24s1-3.19,1-7.1V179.4c0-4.12-.33-6.68-1-7.63s-2.1-1.43-4.42-1.43h-3.19v-15Zm46.68,0v15H652.5c-2.15,0-3.56.42-4.23,1.24s-1,3.17-1,7V246.2h4.39q6.1,0,8.58-1a8.17,8.17,0,0,0,4-3.67,27.38,27.38,0,0,0,2.81-8.81,122.06,122.06,0,0,0,1.28-15.39h10.14v44.29H616.82V246.51h3.28c2.29,0,3.76-.5,4.41-1.48s1-3.51,1-7.65v-58c0-4.12-.32-6.68-1-7.63s-2.1-1.43-4.42-1.43h-3.28v-15ZM716,261.58V246.51h2.94c2.49,0,4-.21,4.55-.66a3.08,3.08,0,0,0,.83-2.51,22.52,22.52,0,0,0-.11-2.38c-.08-.74-.18-1.48-.31-2.19l-2.34-11.38H703.94l-2,10.13c-.34,1.56-.58,2.77-.7,3.64a16.25,16.25,0,0,0-.2,2.4,2.45,2.45,0,0,0,1.19,2.16,6.34,6.34,0,0,0,3.38.77h3.24v15.07H679.55V246.51H682a4.92,4.92,0,0,0,4.18-2.56c1.12-1.69,2.1-4.49,2.93-8.34l17.2-80.26h23.67l15.33,79.94c1.06,5.25,2,8.45,2.86,9.55a4.92,4.92,0,0,0,4.15,1.66h3.43v15.07Zm2.47-49.41-6-32.17-5.58,32.17Zm132.68-56.82v43.52H840.54a123.18,123.18,0,0,0-1-12.8,37.26,37.26,0,0,0-2.11-8.39,11.79,11.79,0,0,0-4.32-5.67q-2.63-1.66-10.11-1.66h-8.39v29.16h2.52q4.44,0,6.21-3.48c1.19-2.32,1.79-6.44,1.79-12.38v-.92h8.19v48.48h-8.19c-.13-7.42-.72-12.25-1.79-14.46s-3.09-3.33-6.11-3.33h-2.62v24c0,4.38.34,7,1,7.86s2.11,1.27,4.31,1.27h3.63v15.07H784.63V246.51h3.28c2.16,0,3.58-.42,4.26-1.24s1-3.19,1-7.1V179.4c0-4.12-.33-6.68-1-7.63s-2.1-1.43-4.42-1.43h-3.19v-15Zm-9.28,94.32a19.23,19.23,0,0,1,2.6-10.32c1.72-2.82,3.85-4.22,6.39-4.22s4.67,1.4,6.39,4.22a22.17,22.17,0,0,1,0,20.72c-1.72,2.82-3.84,4.22-6.39,4.22s-4.67-1.4-6.39-4.22A19.39,19.39,0,0,1,841.87,249.68Zm93.87-29.24q-.39,21.34-8.31,32.83T905,264.75q-16.95,0-26.08-14.57t-9.12-41.65q0-25.61,9.45-41t25.26-15.39a26.55,26.55,0,0,1,9.89,1.82,28.33,28.33,0,0,1,8.75,5.6l1.67-5.86h10.62v43.76H923.73q-1.71-15.32-5.23-22.25T909,168.32q-6.9,0-10,9.47t-3.14,30.43q0,21.65,3.24,31.17t10.54,9.5q6.61,0,10.86-7.68t4.76-20.77Zm10,29.24a19.23,19.23,0,0,1,2.6-10.32c1.72-2.82,3.85-4.22,6.39-4.22s4.67,1.4,6.39,4.22a22.17,22.17,0,0,1,0,20.72c-1.72,2.82-3.84,4.22-6.39,4.22s-4.67-1.4-6.39-4.22A19.39,19.39,0,0,1,945.79,249.68Zm-706.06,487,11.12,10.8c-3.82,5.74-4.21,4.29-10.72,1.79C237.27,741.93,235.63,741.47,239.73,736.7ZM263.28,783l3.15-15.23-8.86,18.91-7.78,5,1-31.7L236.9,788.64,240.59,758,226,775.82l6.55-31.08-13.69,14.16,4.67-27.8c-10.62,13.76-13.45,9.35-14.11,2.59a2.74,2.74,0,0,0,2,1.18c2.32.22,5-2.35,5.93-5.76.83-3.07-.08-5.81-2-6.41a52.6,52.6,0,0,1,9.25-7.7c7.06-23.31,14.84-43.36,24.09-57-8.94,21.85-12.79,35.34-16.12,55.48L242,727.1c2.33-4.09,10.79-14.65,18.43-18.89-4.3,5.57-9.81,20.17-11,29l10.51,7.49c7.43,5.51,14.91,11,22.33,16.51l7.5-19.69c-.64,8,1,15.61.38,23.61l.38.36Zm694.29-46.38L946.45,747.4c3.82,5.74,4.22,4.28,10.72,1.78C960,741.82,961.68,741.37,957.57,736.59ZM934,782.88l-3.15-15.23,8.87,18.91,7.78,5-1-31.7,13.92,28.67-3.7-30.67,14.55,17.85-6.56-31.08,13.69,14.15L973.73,731c10.62,13.76,13.45,9.35,14.11,2.59a2.74,2.74,0,0,1-2,1.18c-2.32.23-5-2.35-5.93-5.76-.83-3.07.07-5.81,2-6.41a52.59,52.59,0,0,0-9.25-7.69c-7.07-23.31-14.86-43.36-24.1-57,8.94,21.85,12.8,35.34,16.14,55.48L955.32,727c-2.33-4.09-10.79-14.65-18.44-18.89,4.3,5.57,9.81,20.17,11,29l-10.5,7.5c-7.43,5.51-14.91,11-22.32,16.51l-7.5-19.69c.64,8-1,15.61-.38,23.61l-.38.36ZM831.21,841l-1.06-1.32,17.1-13.62,1.05,1.32-1.82,1.45A6.26,6.26,0,0,0,844,834.7c.09,1.14,1.19,3,3.33,5.73L862.94,860q5.79,7.27,7.54,12.41a18.1,18.1,0,0,1-.18,11.39q-1.95,6.23-9.2,12-7.91,6.3-14.18,6.81a18.93,18.93,0,0,1-11.67-2.74q-3.66-2.27-10.62-11l-15-18.87c-2.36-3-4.31-4.59-5.87-4.86s-3.24.32-5.06,1.77l-1.82,1.45-1.05-1.32,20.86-16.62,1.06,1.32-1.85,1.47c-2,1.59-2.93,3.35-2.78,5.29.08,1.33,1.21,3.34,3.36,6l16.77,21a59.89,59.89,0,0,0,5.64,6,17.74,17.74,0,0,0,6.38,4.17,12.94,12.94,0,0,0,6.56.23,17.09,17.09,0,0,0,7.3-3.65,22,22,0,0,0,6.82-8.81,14.12,14.12,0,0,0,.9-9.36q-1.2-4.32-7.32-12l-15.58-19.55c-2.4-3-4.24-4.63-5.5-4.86a6.72,6.72,0,0,0-5.38,1.72ZM580.34,987.28l-21.86-52.81-1.57,41.22c-.14,3.79.17,6.16,1,7.14,1.07,1.32,2.83,2,5.25,2.11l2.17.08-.06,1.68-21.46-.82.06-1.68,2.17.08c2.61.1,4.49-.62,5.65-2.16.7-.94,1.11-3.14,1.25-6.59l1.53-40.3a14.14,14.14,0,0,0-.68-5.95A5.08,5.08,0,0,0,551.5,927a12.63,12.63,0,0,0-5.45-1.09l.06-1.69,17.47.66L584.13,974,608,926.56l17.47.66-.06,1.69-2.14-.08c-2.64-.1-4.53.62-5.68,2.15-.7,1-1.13,3.14-1.26,6.61l-1.53,40.3c-.14,3.79.2,6.16,1,7.14q1.6,2,5.24,2.11l2.14.08-.06,1.68-26.21-1,.06-1.68,2.19.08c2.64.1,4.52-.62,5.65-2.16.7-.94,1.11-3.14,1.25-6.59l1.57-41.22-25.76,51ZM867.69,809.7l18.47,15.93L895,815.36q3.46-4,3.41-6.38c0-2.11-1.31-4.38-3.86-6.82l1.1-1.27,16.27,14-1.1,1.27a23.62,23.62,0,0,0-5.21-2.81,5.72,5.72,0,0,0-3.65.4,13.7,13.7,0,0,0-4.44,3.74l-8.86,10.27,15.41,13.29a19.5,19.5,0,0,0,4,3,2.94,2.94,0,0,0,1.9,0,7.94,7.94,0,0,0,2.65-2.29l6.84-7.93a27.82,27.82,0,0,0,4.41-6.23,11.22,11.22,0,0,0,.81-5.31,35.12,35.12,0,0,0-2.67-9.94l1.19-1.38,8.25,14.13-31.07,36-1.27-1.1,1.43-1.66a8.65,8.65,0,0,0,1.9-3.82,3.84,3.84,0,0,0-.35-2.93,21.94,21.94,0,0,0-4.18-4.28l-30.37-26.19c-3-2.56-5-3.84-6.25-3.83q-2.44,0-4.94,2.94l-1.43,1.66-1.28-1.11,31.07-36,10.68,8.31-1.17,1.35a21.15,21.15,0,0,0-6.44-2.76,7.27,7.27,0,0,0-4.35.78,20.76,20.76,0,0,0-4.71,4.41Zm-101.22,77.7a16.67,16.67,0,0,0-9.11,11.39q-2.23,9.51,4.81,23.1,6.89,13.28,16.36,17.5a16.13,16.13,0,0,0,14.63-.55,17.11,17.11,0,0,0,9.37-11.9q2.07-9.37-4.56-22.14-5.1-9.83-11.56-15a19.09,19.09,0,0,0-10.08-4.45A17.59,17.59,0,0,0,766.47,887.41Zm34.57,50q7.81,5,14.34,5.84a24.23,24.23,0,0,0,12.87-1.81l.67,1.3a49.91,49.91,0,0,1-13.08,3.93,58,58,0,0,1-15,.58,66.42,66.42,0,0,1-13.78-2.62,43.74,43.74,0,0,1-11.79-.19,30.62,30.62,0,0,1-12.65-5.67,35,35,0,0,1-9.74-12.1q-6.37-12.29-2.63-24.54A29.32,29.32,0,0,1,765.35,884q10.74-5.57,22.83-1.52T806.7,899a32.68,32.68,0,0,1,3.56,20.56A31.11,31.11,0,0,1,801,937.41Zm-55,22,.54,1.59-25.07,8.45-.54-1.59,2.08-.7q3.62-1.22,4.54-3.89c.38-1.15,0-3.49-1.19-7l-12.74-37.79a20.6,20.6,0,0,0-2.53-5.67,4.15,4.15,0,0,0-2.39-1.26,8.62,8.62,0,0,0-4.32.31l-2.08.7-.54-1.6,25.07-8.45.54,1.6-2.12.71c-2.38.8-3.88,2.1-4.5,3.86-.41,1.17,0,3.5,1.15,7l12.74,37.79a20.57,20.57,0,0,0,2.53,5.67,4.12,4.12,0,0,0,2.44,1.24,8.37,8.37,0,0,0,4.28-.28Zm-83.47,19a45.76,45.76,0,0,0,10.48-.62c5.41-1,9.31-2.92,11.72-5.86a11.63,11.63,0,0,0,2.64-9.78,13.41,13.41,0,0,0-3.14-6.46,13.1,13.1,0,0,0-7.19-4,27.51,27.51,0,0,0-11.09,0c-1.85.33-3.44.64-4.74.93a24.05,24.05,0,0,0-3.12.89Zm-5.18-29a34.14,34.14,0,0,0,3.88-.2c1.44-.15,3-.38,4.71-.68,4.36-.78,7.57-1.82,9.58-3.16a10.65,10.65,0,0,0,4.27-5.23,12.29,12.29,0,0,0,.61-6.67,11.81,11.81,0,0,0-6-8.31q-5-3-13.35-1.5a31,31,0,0,0-7.9,2.42Zm23.91-1.76q6.57.2,10.23,2.61a13.59,13.59,0,0,1,6.14,9.3,15.29,15.29,0,0,1-1.33,9.19,16.58,16.58,0,0,1-6.78,7.44q-4.66,2.8-14.91,4.63L646,985.9l-.3-1.65,2.28-.41q3.81-.68,5-3.41c.5-1.16.46-3.44-.15-6.85l-7-39.26q-1-5.64-2.57-6.88a6.69,6.69,0,0,0-5.55-1l-2.28.41-.3-1.67,26.25-4.68a52.47,52.47,0,0,1,12-1q7,.41,11.28,3.87a14.25,14.25,0,0,1,5.22,8.81,13.3,13.3,0,0,1-1.31,8.68A16.64,16.64,0,0,1,681.27,947.61ZM511.82,954l-4.2-26.72-16.39,21.64Zm.43,3.58-23.2-5.71-6.39,8.46a15.19,15.19,0,0,0-2.79,4.85,3.13,3.13,0,0,0,.71,2.72c.7.91,2.46,1.82,5.31,2.75l-.4,1.63-18.87-4.65L467,966c2.62.16,4.37,0,5.28-.54,1.85-1,4.22-3.5,7.11-7.38L512.65,914l1.54.38,8.59,55q1,6.64,2.65,8.92a9.68,9.68,0,0,0,5.23,3.43l-.4,1.63-23.65-5.83.4-1.63c2.41.47,4.13.46,5.14,0a3.13,3.13,0,0,0,1.88-2.16c.32-1.3.22-3.48-.27-6.58Zm-37.12-52.54-60.82,36.18,23.07,10.41c3.54,1.6,6.61,2,9.19,1.35s5.7-3.07,9.29-7.14l1.26.86-9.37,13.7-45.81-20.68.69-1.53,59.28-35.07-18-8.12q-4.48-2-6.93-2a7.61,7.61,0,0,0-4.35,1.45c-1.26.91-2.94,2.92-5,6l-1.57-.71,7.51-13.54Zm-78.32-40.48a16.29,16.29,0,0,0-14.45-2.43q-9.45,2.79-17.78,15Q356,889.59,356.78,900a16,16,0,0,0,7.32,12.52,17.91,17.91,0,0,0,15.68,2.5q8.5-2.4,16.76-14.45,8.93-13.06,8.18-23Q404.09,869.56,396.81,864.58Zm2.57-2.25q9.92,6.79,12,19.29t-5.59,23.77q-7.95,11.62-20.52,14.25a29.66,29.66,0,0,1-35.53-24q-2-12.38,6.08-24.24,8.3-12.14,21.8-14.15A29.56,29.56,0,0,1,399.39,862.33Zm-106.66-6.64,21.13-53.1L284,831.05c-2.74,2.62-4.17,4.54-4.29,5.79-.15,1.69.62,3.42,2.29,5.18l1.5,1.57-1.21,1.16-14.82-15.54,1.21-1.16,1.5,1.57q2.7,2.83,5.56,2.38c1.16-.18,3-1.48,5.49-3.86l29.19-27.83a14.15,14.15,0,0,0,3.66-4.74,5.09,5.09,0,0,0,0-3.22,12.63,12.63,0,0,0-3.14-4.58l1.23-1.17,12.06,12.65L304.7,848.8l50.16-17.39,12.06,12.65-1.23,1.17-1.48-1.55q-2.73-2.87-5.57-2.42c-1.17.19-3,1.47-5.51,3.86L324,872.95c-2.74,2.62-4.15,4.56-4.25,5.83q-.22,2.53,2.28,5.16l1.48,1.55-1.21,1.16-18.1-19,1.21-1.16,1.51,1.59q2.73,2.87,5.56,2.38c1.16-.18,3-1.48,5.49-3.86l29.85-28.47-54,18.62ZM598,102.29c-127.31,0-216.6,7.27-338.33-33.91L167,190.24s80.16,105.14,47.89,228-88.46,362.15,6.78,455.44c72.21,70.73,197.28,137.66,287.75,185.79,43.86,23.33,78.1,54.63,88.57,65.11,10.47-10.47,44.72-41.77,88.57-65.11C777,1011.32,902.07,944.39,974.28,873.66c95.24-93.29,39-332.6,6.78-455.44s47.89-228,47.89-228L936.28,68.37C814.56,109.56,725.26,102.29,598,102.29ZM522.61,786.77l-3.07-9.2-6.27-31.29c-16.54,10.92-26.54,25.9-26.31,52.22l-.43,5.49c-14.87-7.25-31.94-29.22-40.72-42.64C434.34,743.86,425,725.8,422,701.12c-3.43,4.44-5.07,6.45-6.21,14.36-1.94,13.51,3.21,35.07,5.48,48.28-5.86-3.09-3.18-1.1-8.17-5.4-38-32.72-26.78-104.67-17.59-145.27-18.37,7.44-19.11,23.7-29.33,41.15l-2.3,3.5L361,649.31l-1.89-9.84c-9.4-67.51,39.76-118,49-144.12-8.6,3.74-24.59,16.53-27.6,20.5,0-21.86,12.54-47.62,20.74-62.51,13.43-24.39,39.92-42.93,40.68-43.58l3.62-3.32c-11.9.24-20.11,3.58-29.08,6.22,8.29-22.54,26.06-43,42.12-54.31,27.44-19.24,38.74-20.15,76.32-13.62-12.37-16.48-24.67-11-39.4-18.4,23.31-23.38,78.23-12.78,101.4,2.63,12-6.16,16-12,35-15.53,12.6-2.34,33.17-2.78,43.38,6.92-9.89,4.71-22.71,7.46-32.63,12.25-11.69,4.8-3.37.93-7.23,6.36l6.38-3.6c28.79-9,42-2.54,66.41,6.25l-4.61,2.25c-10.89,3.65-9.77,1.91-19.9,3.52-11.37,1.8-15.43,3.41-22,8.66,56.45-6,103.24,20.4,118.49,56.47-8.75-2.74-16.49-6-28.3-5.7,18.58,19.14,65.78,52,64.58,109.11-3-4.49-21.42-18.07-28.57-21.41,10.19,23.09,27.78,41.51,39,71,9.24,24.35,20.28,65,6.16,92.31-12.47-16.66-10.59-36.39-31.17-44.93,6.35,34.58,14.37,54.17,7,92.62C803.34,734.21,788,761.54,770.19,771c9.19-15.51,19.53-43.18,8.59-61.67-5-8.37-2.56-3.68-5.88-6.81,2.5,46.8-35.94,91-63.85,101.7-.14-20-8.57-43-25.79-51.63,2.86,46.46-13.18,52.75-22.91,76.84-5.07-6.31-5.23-16-6.63-21.94-5.93,6.67-9.39,24.21-22.95,39.77-8.62,9.9-26.6,18-41.51,21.66-2.36-32.87-13.8-50.81-32.46-63L550.25,822C537.29,815.72,529,803.27,522.61,786.77Zm-58.36-57.34c-16.49-34.36-14.22-57.05-25.34-92.24C414.25,667.92,443.36,716.69,464.25,729.43ZM725.17,754c30.67-13.22,29-51.43,16.64-85.83C734.45,703,739.23,719.2,725.17,754ZM397.26,571.7c6.78-8,9.91-22.32,14.95-32.47,6.25-12.59,12.2-21.42,18.6-33.83C403.53,515,392.7,535.84,397.26,571.7ZM798,579.15c1.27-33-9-49.93-37.46-55.58,16.16,24.09,10.7,7.85,31.47,46.87l4.18,6.54C796.59,577.56,797.38,578.43,798,579.15Zm-12.35,62.32c-4.58-18.32-11.48-23.17-26.48-29.89L777,655.07l9.11,32.2C789.21,669.19,789.51,657.47,785.64,641.47ZM701.16,374.16l35.3,11.63C729.32,376,717.51,364.75,701.16,374.16Zm-223-15.26c-8.28,7-11.66,8.83-16.94,19.48l19.17-8.32L516,363.47l-6.9-5.65a27.29,27.29,0,0,0-10.78-2.51C490.51,354.9,484,357.13,478.17,358.89Zm74.39,386-.58-.42v.46Zm-36.79-92.78c7.59,23-1.11,31,17.56,46.07,17.47,14.08,17.9,15.83,19.31,44.2,7.72-8.87,8.75-20.43,5.43-32.52,13,9.07,13.83,27.42,19.14,46.25q.51.65,1,1.33l.28-30.68c6.07,5.36,13.87,20.28,17.4,29.69,6.73,17.91,2.85,25.19,2.69,42.74,11.72-23.33,19-34.93,23.73-65.37l1,25.57c5.94-19.65,6.35-39.94,20.08-49.55-3.35,12.15-2.06,23.94,5.45,32.59.46-10.88.07-21.91,4.94-30,2.92-4.86,12.94-14.1,18.69-16.7l.05.3a6.18,6.18,0,0,1,2.19-2.33l-.2-.52c9.82-15,5.55-24.84,11.23-41,7.59,8,5.8,12,6.65,24.86,13.13-25.23,6.25-33.67,9.39-55.33,1.81-12.54,6.28-14,10.95-21.77,4-6.7,5.82-18.79,9.85-23.72,5.3,19.29-3.72,37.55-5.68,56.86,14.27-13.26,21.12-35.88,16.65-62.51-3.84-22.92-20-33.84-28.36-53.41,3.61,19.29,8.08,12.39,7.1,44.82-.46,15.19-12.92,29.22-20.62,33.35-2.83-5-3-9.13-6.57-15.08-9.78-16.41,4.39-23-20.37-46.32,3.21,13.63,14.16,18.33,11.41,38.3l-9.73-2c1.1,5.58,21.12,11.12,15.66,44.76-2.51,15.47-13.18,29.16-23.66,34.72,7.58.24,12.13-3.65,17.79-5.85-2,5.87-6.7,14.9-10.51,19.27-5.78-.56-17.82-5.95-26.22-7.55-34.21-6.52-37,11.82-35.28-40.87,2-.8,4.78-1.92,6.38-4,2-2.56.71-.17,1.18-3.09L612,603c9.45-5.48,30.46-10.28,31-22.39-6.44,1.08-1.87,3.81-8.5,1-4.43-1.9-3-3.21-10.43-3.16-8.43.06-13.87,5.19-22.14,5.66-12.47.7-21.8-9.46-33.4-3.48-8.64,4.45-1.77,1.36-10.45.35,2.77,13.5,21.1,15.32,31.35,22,.33.84.12,2.74.22,3.72.45,4.41,3.62,6.47,7.62,8,1.46,52.55-.44,34.33-35.42,40.91-8.78,1.65-19.92,6.86-26.1,7.51l-10.94-19.05c6.19,2,10.67,5.78,18.25,5.64-23.89-13.85-37.93-67-9.29-77.21-.32-.22-.9-.7-1.11-.37l-3.38-1c-3.63-1-1.78.52-4.43-1.42-.17-20.33,8.8-22.24,11.84-35.83-25.63,25-8.6,26.73-26.91,61.52-19.56-10.85-23.34-35.92-19.62-58.21,1.3-7.79,5-14.27,6.1-20.14-1.79,4.14-7.42,11.32-10.2,15.94-4.93,8.2-10.26,7-20,8.6,12.23-36.44,3.55-73.91,52.12-84.2.81-7.17,1.78-7.64,3.5-13.67-10-4.29.19-6.23,8.3-13.44-7.35-5.45-30.47-15.15-42.31-14.51-27,1.47-5.68,37.24-5.54,37.6-8.46-3.94-16.72-26.8-9.35-35,13.34-14.9,39.8-4.55,56,2.53,18.5,8.08,6.83-10,49-20.86-11.9-14.56-43.51-10.07-56.74.84,13.06-.4,19.14-1.5,30.68,2.25-13.57,16.46-46-8.72-77.11,1.6-7.41,3.9-12,11-11.42,22.12.76,15.83,8.69,20.47,14.54,29.89-2.69,3-4.17,3.67-5.83,8.55,12.33-3.62,17.26-10.59,33-8.51-14.1,7.71-28.41,8.27-36,26.47-8.8,21.06.2,46.57-5.13,65.17,6.25-3.83,12.21-6.3,16.81-6.52-8.61,9.31-14,26.92-13.88,44.73a92.24,92.24,0,0,0,3,20.15c4.86,8.85,7.08,18.88,15,26.24-2-18.55-11-38.17-5.63-56.78,2.87,3.48,5.77,16.12,8.9,22,4,7.55,8.68,9.46,11.16,20,4.84,20.48-4.12,22.14,8.4,55.58.19.5.81,2.18.94,2.78C508,666.61,505,664.71,515.76,652.13Zm30,20.24a6.4,6.4,0,0,1,2.27-2l8-3.74c22.13-9,66.62-9.16,88.46-.38,3.86,1.55,8.32,3,11.21,6.09-9.34,8.56-38.33,17.53-55,17.25C583.06,689.34,556.52,681.06,545.72,672.37Zm-28.4-173.66,9.9,1.9c1.93,7.09,5,9.4,12.52,10.46,3.7.52,8.69,0,11.49.5,5.74,1,1.6,2.79,8.73,3.48-3.24-26.3-16.86-28.09-35.83-20.62C517.33,497.11,519,496.56,517.32,498.71Zm32.58-.23c2.05,3,2.76,5.13,1.93,9.42-9.91,3.49-19.56-.44-18.29-11.92,2.19-1.35,3.08-2.21,6.85-2.27C536.91,502.94,543.26,504.43,549.9,498.48Zm91.58,16.57c6.61-.58,3.69-2.12,7.71-3.24,7.23-2,21.17,3.63,25-11.51l10.09-1.22c-1.79-2.47-1.17-2.32-6-4.3C658.84,486.88,645.06,488.28,641.48,515.05ZM661,493.72c3.7.07,4.68,1,6.91,2.21,1.79,17.82-27,17.84-16.4,2.54C661.38,507.3,662.82,498.63,661,493.72ZM565.8,511c10.21,1.15,9.71-1.9,17.37-4.28,9.41-2.92,12.33,1.54,17.55,4.55,5-2.82,7.43-7,16.49-4.89,7.94,1.89,7.61,5.83,18.45,4.6-1.81-2-12.62-8.23-15.9-9.6-9.54-4-12.67-2.75-19,1.84-5.62-4.08-9.33-5.68-18.12-2.21C579,502.44,567.73,508.92,565.8,511Zm71.49,23.73-9.22-2.47c5.94,5.67,17.89,12.9,16.41,25.25-3-3.07-5.33-5.32-11.66-6.12,3,4.48,6,4.36,9.79,10.24,4.48,6.9,1.76,9.74,1.64,16.35.75-3.41,3.39-8.12,4.26-13.63,1.82-11.51-1.45-22.09-6.41-32.1-3.13-6.32-2.68-8.36-5-15.22C632.35,522.88,635.55,528.33,637.29,534.72Zm-80.35,42.62c.82-5.38-2.36-8.36,1.38-14.92,3.35-5.87,7.44-6.84,10.35-11-6.48.82-8.58,3-11.68,6.16-1.53-12.55,10.45-19.35,16.47-25.1l-9.29,2.3c1.64-6.33,5-11.91.19-17.71-1.92,5.77-1.56,7.94-4.2,13.47-2.3,4.82-4.17,8.52-5.67,13.85C551.23,555.93,553,567.64,556.93,577.34Zm43.79-129.5c1.47-3.05,9-40.29,0-45.19-3.62,2-3.75,3.11-4.11,8.55a98.14,98.14,0,0,0,.3,13.07C597.47,431.59,597.8,442,600.72,447.84Zm22.2,43a9.28,9.28,0,0,0,1.42-2.65c.61-1.36.83-2.32,1.51-3.72,3.53-7.23,20.13-14.72,9.68-30.12-3.82-5.62-2.93-2.21-5-9.35-.85-2.91-.43-2.55-1.23-3.77-7.26,6.62,4.94,13.06,2.14,25.4C629,477.28,619.68,473.32,622.92,490.88Zm-44.39,0c3.09-16.78-4.71-13-8.18-23.21-4.26-12.58,9.37-19.26,1.8-26.36l-2.09,6.84c-2.6,6.53-16.14,14.59.93,30.58,4.44,4.16,3.55,3.83,5.67,8.57L578,490A9.55,9.55,0,0,0,578.53,490.87Zm-89.13,19.23c2.83-6.92,4.22-14.57,7.41-20.85,3.66-7.2,8.84-11.68,11.84-18.68C491.42,476.25,487.35,488.76,489.39,510.09Zm212.46-.83c2-20.92-2.28-34.26-19.24-39.45,2.9,6.74,7.65,10.87,11.35,17.78S699,502,701.86,509.27Zm-150.27,9.54c-7.27-2.21-12.74,3.36-19.75-2.3-6-4.87-6.21-10.71-15.13-10,1.73,3,10.82,10.65,13.76,12.73C539.07,525.29,542.48,521.32,551.59,518.81Zm98.26-.68c6.44,3.65,13.33,6.35,20.36,1.62,2.71-1.82,12.92-10.51,14.55-13.29-8.78-.62-10,5.9-14.34,9.57C664.4,521.05,658.62,518.27,649.84,518.13Zm45.76-51.56s18.21,4.27,23.52,14,9.27,23,9.8,37.57-2.61,17,2.12,27.07S727.43,540,724,527.48s-3.36-22.67-9.82-32.38S709,477.15,695.6,466.56Zm-71.88-66.48c15.58,3.89,23.28,8,32.79,16.47,12.68,11.23,3,7.62,33-2.1,26.13-8.47,54.24-3.11,36.56,31.28-3.86,7.51-3.57,6.18-6.76,7.67.24-.64,20.74-34.69-4.27-37.47-11.74-1.31-36.2,8.79-43.6,14.38,4.94,3.78,9.31,6.15,13.8,10.86-.28.19-.74.08-.88.49-.85,2.36.38-.65-4.63,2.11l3.89,13.58c9.82,1.92,19.51-4.89,30.7,2l-7,2c1.15.3,3.43,1.17,4.5.9,11.13-3.85,23.87-11.49,26.19-32.9,5.28-48.68-69.6-19.45-72.47-19.35-7,.24-13.86-4.4-15.81-6.88,11.63-3.73,17.66-2.66,30.65-2.22-5.56-7.23-19.23-9.63-27.77-9.58C645,391.37,629.05,393.39,623.72,400.08ZM345.67,658.63l19.48,54.81,6.58-13.2c6.51,62.38,40.88,80.41,78.77,107l1.33-6.32c1.17-5.33-2,1.45,1.42-5.75,4.73,10.89,10.94,17.55,22.38,19.57,4,7.17,1.17,4.93,10.27,9.13,3.42,2.53,10.71,6.88,15.31,10.71,4.22,3.53,6.5,6.3,11.57,10.56,1.89-13.7-2-23.27-5.75-35.4L504.77,797l1-5.49,5.79,6.17c.33,34,31.92,29.83,42.83,71.25,8.71-7.87,7.67-15.61,8-30.34,13.67,18.76,9.11,30.88,7.48,56.34,48.18-11.28,88.45-38.14,116.09-75.21l-4.13,22.19c14.66-7.09,26.65-15.78,41.41-25.06,28.3-17.8-14.66,16.73,42.25-23.17,25.52-17.89,55.86-42.56,58.33-85.56l6.18-1.89c5,14.35,6.95-2.05,15.94-29.43,23.7-72.18-6.29-105-10.89-150.07-4.62-45.26-14.07-52-27.15-88.55-27.12-75.86-23.39-42.54-49.15-78-4.72-6.5-14.88-12.5-22.4-17.93l-24.5-20.22C684.89,302,653,287,611.88,302.5c-34.84,13.13-35-16.5-96.27-3.86-12,2.48-65.47,26.38-62.5,41.8,0,.12.47.71.37,1.08-73.3,42.3-89.17,194.28-99.45,217.1-11,24.43-16,64.46-9.19,93.28Z"/></g></svg>